<svg width="256" height="259" viewBox="0 0 256 259" fill="none" xmlns="http://www.w3.org/2000/svg">
    <path d="M128 258.179C198.692 258.179 256 200.384 256 129.09C256 57.7954 198.692 0 128 0C57.3075 0 0 57.7954 0 129.09C0 200.384 57.3075 258.179 128 258.179Z" fill="url(#paint0_linear_0_1)"/>
    <path opacity="0.45" d="M29.6774 138.724C29.6774 95.4768 54.111 57.9524 89.9108 39.1627C90.1225 39.0373 90.2479 38.7943 90.2479 38.5356C90.2479 38.1358 89.9265 37.8145 89.5267 37.8145C89.3935 37.8145 89.2681 37.838 89.1662 37.9007C47.5656 54.37 18.1465 94.9516 18.1465 142.416C18.1465 204.475 68.456 254.785 130.524 254.785C133.604 254.785 136.654 254.644 139.679 254.401C140.205 253.28 140.761 252.175 141.341 251.085C79.6028 250.701 29.6774 200.548 29.6774 138.724Z" fill="url(#paint1_radial_0_1)"/>
    <path opacity="0.45" d="M254.825 133.048C254.825 64.09 198.926 8.19141 129.96 8.19141C111.131 8.19141 93.2822 12.3695 77.2754 19.8321C89.7626 15.6383 103.136 13.365 117.042 13.365C186 13.365 241.906 69.2636 241.906 138.222C241.906 166.481 232.515 192.537 216.689 213.459C219.221 213.851 221.706 214.376 224.143 215.026C243.254 193.086 254.825 164.419 254.825 133.048Z" fill="url(#paint2_radial_0_1)"/>
    <path d="M209.538 189.056C209.217 192.231 206.559 195.202 203.604 195.688L66.4797 218.13C63.5245 218.616 61.3923 216.445 61.7137 213.27L63.0698 199.999C63.3912 196.824 66.0486 193.853 69.0038 193.367L206.128 170.925C209.083 170.439 211.216 172.61 210.894 175.785L209.538 189.056Z" fill="url(#paint3_linear_0_1)"/>
    <path d="M203.387 106.718C202.901 106.796 202.509 106.459 202.509 105.973V105.965C202.509 104.515 203.685 103.159 205.135 102.932L209.525 102.257C210.011 102.179 210.403 102.516 210.403 103.002V103.01C210.403 104.46 209.227 105.816 207.777 106.044L203.387 106.718ZM192.593 119.981C196.363 115.944 198.354 110.574 198.354 104.468C198.354 99.0514 196.685 94.6538 193.518 91.7535C190.335 88.8374 185.945 87.7086 180.827 88.5004C175.81 89.2764 171.271 91.7848 168.034 95.5788C164.608 99.5923 162.797 104.758 162.797 110.527C162.797 121.517 169.978 128.086 180.254 126.503C184.966 125.774 189.348 123.454 192.593 119.981ZM190.171 105.942C190.171 113.224 186.118 119.134 180.537 119.997C174.955 120.859 170.903 116.258 170.903 109.062C170.903 102.806 173.929 96.0256 180.678 94.9831C188.187 93.8229 190.171 101.646 190.171 105.942ZM97.0141 113.867C97.0141 126.864 89.4183 136.333 76.641 139.343V139.649C76.5626 141.992 73.5133 144.36 69.7507 144.971C69.2804 145.034 68.8963 144.705 68.8963 144.234V140.534C62.1862 140.958 48.5938 139.602 48.5938 121.635C48.5938 106.146 59.0037 98.1186 69.0374 95.6572V95.6494C69.0374 93.2742 72.0788 90.8598 75.8415 90.2562C76.3196 90.1857 76.7116 90.5149 76.7116 90.9931V94.4578C86.6825 93.6348 97.0141 98.2989 97.0141 113.867ZM68.9668 101.92C62.9074 103.582 56.7696 109.124 56.7696 120.075C56.7696 129.027 61.3083 134.279 68.9668 134.287V101.92ZM88.8382 115.058C88.8382 101.975 80.9289 100.541 76.641 100.729V133.119C80.9445 131.849 88.8382 127.781 88.8382 115.058ZM131.677 129.16V98.0167C131.677 97.5385 131.285 97.2014 130.807 97.2798L130.619 97.3112C124.975 98.2126 121.667 100.815 120.319 103.277L111.9 118.515C110.262 121.627 109.164 123.885 107.926 126.526C108.051 123.43 108.098 120.483 108.098 116.25V101.67C108.098 101.191 107.706 100.854 107.228 100.933L107.165 100.941C103.497 101.505 100.455 103.919 100.424 106.318V137.446C100.424 137.932 100.816 138.261 101.294 138.183C107.016 137.297 110.277 134.687 111.641 132.21C112.739 130.203 113.828 128.188 114.894 126.213C116.713 122.85 118.43 119.675 120.06 116.759C121.604 113.82 122.819 111.405 124.183 108.544C124.011 112.205 123.933 114.87 123.933 119.158V133.809C123.933 134.287 124.325 134.624 124.803 134.546L124.983 134.514C128.62 133.934 131.638 131.535 131.677 129.16ZM162.986 92.2551L138.67 96.0099C136.294 96.3862 134.35 99.2866 134.311 102.312V102.555C134.311 103.034 134.703 103.371 135.181 103.292L145.105 101.764V130.485C145.105 130.963 145.497 131.292 145.975 131.222L146.32 131.167C150.005 130.595 153.054 128.165 153.062 125.758V100.533L159.536 99.5374C161.912 99.1298 163.848 96.1981 163.856 93.1644V92.992C163.856 92.506 163.464 92.1767 162.986 92.2551ZM91.3545 175.613C93.9805 175.205 96.3165 173.434 96.1989 171.639L94.7252 150.913C94.686 150.372 94.2313 150.019 93.6826 150.098L89.7789 150.701C88.0465 150.991 87.2156 152.645 86.5571 154.456L86.2044 155.452C86.1966 155.467 86.1887 155.483 86.1887 155.507L83.79 162.373C83.2256 164.043 82.575 165.987 82.0263 167.672C81.8303 167.116 81.6265 166.559 81.4306 166.018C81.2189 165.43 81.0229 164.882 80.8505 164.396L76.6567 153.414C76.5078 153.022 76.1158 152.802 75.669 152.873L72.4002 153.374C70.66 153.641 69.4137 155.812 69.2334 158.117H69.2255L67.7518 178.122C67.7283 178.412 67.8302 178.686 68.0262 178.866C68.2221 179.047 68.5043 179.125 68.7944 179.086L68.959 179.062C71.6164 178.639 73.7171 176.859 73.8191 175.072L74.2737 166.34C74.3207 165.517 74.3678 164.662 74.407 163.792C74.65 164.537 74.8851 165.242 75.1046 165.885L79.2043 176.64C79.3532 177.032 79.7452 177.251 80.192 177.181L80.3331 177.157V177.15C82.9591 176.742 84.5896 174.774 85.1775 173.23L88.6579 163.557C88.995 162.569 89.2929 161.707 89.5594 160.923C89.5908 161.448 89.6221 161.966 89.6535 162.467L89.7319 163.839L90.257 174.767C90.2806 175.323 90.7431 175.692 91.2996 175.597L91.3545 175.613ZM110.348 175.84C111.908 172.971 113.335 169.358 115.012 164.67L121.307 147.26C121.432 146.923 121.385 146.562 121.189 146.312C120.993 146.061 120.672 145.935 120.327 145.99L118.924 146.21C116.266 146.625 114.612 148.459 114.056 150.2H114.048L110.332 161.77C110.144 162.358 109.964 162.953 109.791 163.533C109.619 163.016 109.431 162.499 109.251 162.005L104.202 149.157C104.053 148.773 103.661 148.561 103.222 148.624L102.823 148.687C100.628 149.032 97.8372 151.007 98.3702 152.536L106.193 170.824C106.366 171.263 106.405 171.443 106.413 171.506C106.382 171.639 106.248 171.96 106.17 172.14C105.072 174.782 103.426 176.46 102.925 176.938C102.007 177.855 101.067 178.49 100.385 178.89C99.9066 179.188 99.5774 179.713 99.5774 180.277C99.5774 181.045 100.205 181.571 100.973 181.453L101.129 181.43C102.501 181.226 107.526 180.983 110.348 175.84ZM143.153 174.962C145.615 174.539 147.183 172.987 147.386 171.357L147.582 162.82C147.59 162.538 147.488 162.287 147.292 162.115C147.096 161.942 146.838 161.872 146.555 161.903L145.199 162.083V143.192C145.199 142.612 144.729 142.22 144.157 142.306L143.843 142.353C141.202 142.761 139.007 144.548 138.96 146.288V162.883L130.423 164.2V145.473C130.423 144.893 129.953 144.501 129.381 144.587L129.067 144.634C126.425 145.042 124.238 146.829 124.183 148.569V169.491C124.183 170.071 124.654 170.463 125.226 170.377L141.836 167.813L142.001 174.108C142.017 174.672 142.479 175.057 143.044 174.962H143.153ZM168.473 163.714C171.146 163.298 173.356 161.527 173.356 159.716V138.849C173.356 138.269 172.886 137.877 172.314 137.963L169.743 138.363C167.085 138.771 165.745 140.738 164.867 142.337L159.301 152.41C158.627 153.688 158.094 154.754 157.585 155.789C157.616 154.386 157.632 152.881 157.632 150.991V141.271C157.632 140.691 157.161 140.299 156.589 140.385L156.424 140.409C153.775 140.832 151.588 142.643 151.588 144.391V165.266C151.588 165.846 152.058 166.238 152.631 166.152L155.115 165.768C157.616 165.383 159.011 163.486 159.834 162.06C160.595 160.664 161.355 159.261 162.1 157.882C163.315 155.64 164.459 153.523 165.549 151.571C166.207 150.317 166.78 149.204 167.344 148.06C167.289 149.596 167.266 151.07 167.266 153.076V162.844C167.266 163.424 167.736 163.816 168.308 163.729L168.473 163.714ZM197.806 134.028L185.632 135.909C182.967 136.325 180.748 138.144 180.748 139.899V146.9C180.748 149.353 180.686 151.242 180.443 152.724C179.682 157.568 178.428 158.603 176.915 160.273C176.531 160.696 176.343 161.268 176.5 161.785C176.719 162.491 177.495 162.789 178.232 162.452L178.389 162.381C179.698 161.785 184.425 160.045 186.024 154.582H186.032C186.627 152.206 186.8 149.337 186.8 145.967V141.154L192.616 140.252V158.932C192.616 159.512 193.087 159.904 193.659 159.818L193.988 159.771C196.614 159.355 198.801 157.576 198.848 155.844V134.906C198.856 134.342 198.386 133.942 197.806 134.028Z" fill="#0C7315"/>
    <path d="M201.207 104.601C200.721 104.679 200.329 104.342 200.329 103.856V103.849C200.329 102.398 201.505 101.042 202.955 100.815L207.345 100.141C207.831 100.062 208.223 100.399 208.223 100.885V100.893C208.223 102.343 207.047 103.7 205.597 103.927L201.207 104.601ZM190.413 117.864C194.184 113.827 196.175 108.458 196.175 102.351C196.175 96.9347 194.505 92.5371 191.338 89.6368C188.156 86.7207 183.766 85.5919 178.647 86.3837C173.63 87.1597 169.092 89.6681 165.854 93.4621C162.429 97.4756 160.618 102.641 160.618 108.411C160.618 119.401 167.798 125.97 178.075 124.386C182.786 123.657 187.168 121.345 190.413 117.864ZM187.991 103.825C187.991 111.107 183.938 117.018 178.357 117.88C172.776 118.742 168.723 114.141 168.723 106.945C168.723 100.69 171.749 93.9089 178.498 92.8664C186.008 91.7062 187.991 99.5294 187.991 103.825ZM94.8344 111.758C94.8344 124.755 87.2386 134.224 74.4613 137.234V137.54C74.383 139.884 71.3337 142.251 67.571 142.862C67.1007 142.925 66.7166 142.596 66.7166 142.125V138.426C60.0066 138.849 46.4141 137.493 46.4141 119.526C46.4141 104.037 56.824 96.0097 66.8577 93.5483V93.5405C66.8577 91.1653 69.8992 88.751 73.6618 88.1474C74.14 88.0768 74.5319 88.4061 74.5319 88.8842V92.349C84.5029 91.5259 94.8344 96.1822 94.8344 111.758ZM66.7871 99.8116C60.7277 101.473 54.59 107.015 54.59 117.966C54.59 126.918 59.1286 132.17 66.7871 132.178V99.8116ZM86.6585 112.942C86.6585 99.8586 78.7492 98.4241 74.4613 98.6122V131.002C78.7649 129.74 86.6585 125.664 86.6585 112.942ZM129.498 127.044V95.9C129.498 95.4218 129.106 95.0848 128.628 95.1631L128.439 95.1945C122.795 96.0959 119.487 98.6984 118.139 101.16L109.72 116.398C108.082 119.51 106.985 121.768 105.746 124.41C105.871 121.313 105.919 118.366 105.919 114.133V99.5529C105.919 99.0747 105.527 98.7376 105.048 98.816L104.986 98.8239C101.317 99.3883 98.2757 101.803 98.2443 104.201V135.329C98.2443 135.815 98.6363 136.144 99.1144 136.066C104.837 135.18 108.098 132.57 109.462 130.093C110.559 128.086 111.649 126.072 112.715 124.096C114.533 120.733 116.25 117.559 117.881 114.643C119.425 111.703 120.64 109.289 122.004 106.428C121.831 110.088 121.753 112.753 121.753 117.041V131.692C121.753 132.17 122.145 132.507 122.623 132.429L122.803 132.398C126.441 131.817 129.458 129.427 129.498 127.044ZM160.798 90.1385L136.482 93.8932C134.107 94.2695 132.163 97.1699 132.124 100.196V100.439C132.124 100.917 132.516 101.254 132.994 101.176L142.918 99.6469V128.368C142.918 128.847 143.31 129.176 143.788 129.105L144.133 129.05C147.817 128.478 150.866 126.048 150.874 123.642V98.4162L157.349 97.4207C159.724 97.0131 161.66 94.0814 161.668 91.0478V90.8753C161.676 90.3971 161.284 90.0601 160.798 90.1385ZM89.1748 173.504C91.8008 173.097 94.1368 171.325 94.0192 169.53L92.5455 148.804C92.5063 148.263 92.0516 147.911 91.5029 147.989L87.5992 148.593C85.8668 148.883 85.0359 150.537 84.3774 152.347L84.0247 153.343C84.0169 153.359 84.009 153.374 84.009 153.398L81.6103 160.265C81.0459 161.934 80.3953 163.878 79.8466 165.564C79.6506 165.007 79.4468 164.45 79.2509 163.91C79.0392 163.322 78.8432 162.773 78.6708 162.287L74.477 151.305C74.3281 150.913 73.9361 150.693 73.4893 150.764L70.2205 151.266C68.4803 151.532 67.234 153.703 67.0537 156.008H67.0458L65.5956 176.021C65.5721 176.311 65.674 176.585 65.87 176.765C66.066 176.945 66.3482 177.024 66.6382 176.985L66.8028 176.961C69.4602 176.538 71.561 174.758 71.6629 172.971L72.1175 164.239C72.1646 163.416 72.2116 162.561 72.2508 161.691C72.4938 162.436 72.729 163.141 72.9485 163.784L77.0481 174.539C77.1971 174.931 77.589 175.15 78.0358 175.08L78.1769 175.056V175.049C80.8029 174.641 82.4334 172.673 83.0213 171.129L86.5018 161.456C86.8388 160.468 87.1367 159.606 87.4032 158.822C87.4346 159.347 87.4659 159.865 87.4973 160.366L87.5757 161.738L88.1009 172.665C88.1244 173.222 88.5869 173.59 89.1434 173.496L89.1748 173.504ZM108.168 173.724C109.728 170.855 111.155 167.241 112.832 162.553L119.127 145.143C119.252 144.806 119.205 144.446 119.009 144.195C118.813 143.944 118.492 143.819 118.147 143.874L116.744 144.093C114.087 144.508 112.433 146.343 111.876 148.083H111.868L108.153 159.653C107.964 160.241 107.784 160.837 107.612 161.417C107.439 160.899 107.251 160.382 107.071 159.888L102.023 147.04C101.874 146.656 101.482 146.445 101.043 146.507L100.643 146.57C98.4481 146.915 95.6575 148.89 96.1905 150.419L104.014 168.707C104.186 169.146 104.225 169.326 104.233 169.389C104.202 169.522 104.069 169.844 103.99 170.024C102.893 172.665 101.247 174.343 100.745 174.821C99.8277 175.738 98.8871 176.373 98.2051 176.773C97.727 177.071 97.3977 177.596 97.3977 178.16C97.3977 178.929 98.0248 179.454 98.793 179.336L98.9498 179.313C100.322 179.109 105.346 178.866 108.168 173.724ZM140.974 172.846C143.435 172.423 145.003 170.87 145.207 169.24L145.403 160.703C145.41 160.421 145.309 160.17 145.113 159.998C144.917 159.826 144.658 159.747 144.376 159.786L143.02 159.967V141.075C143.02 140.495 142.549 140.103 141.977 140.189L141.664 140.236C139.022 140.644 136.827 142.431 136.78 144.171V160.766L128.243 162.083V143.356C128.243 142.776 127.773 142.384 127.201 142.47L126.887 142.517C124.246 142.925 122.059 144.712 122.004 146.452V167.374C122.004 167.954 122.474 168.346 123.046 168.26L139.657 165.697L139.821 171.991C139.837 172.556 140.3 172.94 140.864 172.846H140.974ZM166.293 161.597C168.966 161.182 171.177 159.41 171.177 157.599V136.732C171.177 136.152 170.706 135.76 170.134 135.847L167.563 136.246C164.906 136.654 163.565 138.622 162.687 140.221L157.122 150.294C156.448 151.571 155.914 152.637 155.405 153.672C155.436 152.269 155.452 150.764 155.452 148.875V139.155C155.452 138.574 154.982 138.183 154.409 138.269L154.245 138.292C151.595 138.716 149.408 140.526 149.408 142.274V163.149C149.408 163.729 149.879 164.121 150.451 164.035L152.936 163.651C155.436 163.267 156.832 161.37 157.655 159.943C158.415 158.548 159.175 157.145 159.92 155.765C161.135 153.523 162.28 151.407 163.369 149.455C164.028 148.201 164.6 147.087 165.164 145.943C165.109 147.479 165.086 148.953 165.086 150.96V160.727C165.086 161.307 165.556 161.699 166.128 161.613L166.293 161.597ZM195.626 131.919L183.452 133.801C180.787 134.216 178.569 136.035 178.569 137.791V144.791C178.569 147.244 178.506 149.133 178.263 150.615C177.503 155.459 176.248 156.494 174.735 158.164C174.351 158.587 174.163 159.159 174.32 159.677C174.54 160.382 175.316 160.68 176.052 160.343L176.209 160.272C177.518 159.677 182.245 157.936 183.844 152.473H183.852C184.448 150.098 184.62 147.229 184.62 143.858V139.045L190.437 138.143V156.823C190.437 157.403 190.907 157.795 191.479 157.709L191.808 157.662C194.434 157.247 196.621 155.467 196.668 153.735V132.805C196.676 132.225 196.206 131.825 195.626 131.919Z" fill="white"/>
    <path d="M202.806 102.924L206.577 102.344C206.381 102.798 205.957 103.167 205.456 103.245L201.685 103.825C201.881 103.363 202.304 103.002 202.806 102.924ZM171.318 117.41C169.044 115.285 167.673 111.797 167.673 107.454C167.673 103.856 168.598 100.368 170.267 97.6402C172.282 94.3558 175.253 92.3176 178.843 91.7689C181.398 91.377 183.601 91.8708 185.365 93.1956C183.499 91.4319 181.046 90.7342 178.145 91.181C174.555 91.7376 171.584 93.7678 169.57 97.0523C167.892 99.7802 166.975 103.268 166.975 106.866C166.975 111.632 168.621 115.379 171.318 117.41ZM190.656 91.0321C190.437 90.8283 190.209 90.6402 189.974 90.4599C192.882 93.1329 194.419 97.2169 194.419 102.265C194.419 107.972 192.584 112.957 189.112 116.681C186.125 119.879 182.08 122.019 177.714 122.693C173.418 123.359 169.679 122.521 166.834 120.279C166.842 120.287 166.842 120.287 166.85 120.294C169.766 122.967 173.763 123.994 178.412 123.281C182.778 122.607 186.823 120.475 189.809 117.269C193.282 113.545 195.116 108.56 195.116 102.853C195.116 97.797 193.572 93.7051 190.656 91.0321ZM57.9605 130.689C55.1072 128.055 53.5395 123.869 53.5395 118.468C53.5395 113.067 54.9426 108.513 57.7097 104.93C60.6728 101.097 64.3805 99.4431 66.9595 98.7376C67.0144 98.722 67.0692 98.7063 67.1241 98.6984C67.3279 98.6671 67.5161 98.6828 67.7042 98.7376C67.6258 98.573 67.5082 98.4241 67.3515 98.3143C67.0928 98.1262 66.7635 98.0557 66.4265 98.1027C66.3716 98.1105 66.3167 98.1262 66.2619 98.1419C63.6829 98.8474 59.9751 100.501 57.0121 104.335C54.245 107.917 52.8418 112.471 52.8418 117.872C52.8418 123.704 54.6682 128.11 57.9605 130.689ZM73.5284 132.06C73.45 131.896 73.403 131.708 73.403 131.512V99.1217C73.403 98.722 73.5755 98.3222 73.8655 98.0086C74.1242 97.7421 74.4534 97.5618 74.7983 97.5069C74.8532 97.4991 74.9002 97.4913 74.9551 97.4913C77.0324 97.3972 80.5207 97.6716 83.4289 99.9213C80.4031 97.1228 76.5072 96.8015 74.2574 96.9034C74.2026 96.9034 74.1555 96.9112 74.1007 96.919C73.7558 96.9739 73.4265 97.1463 73.1679 97.4207C72.87 97.7264 72.7054 98.134 72.7054 98.5338V130.924C72.7054 131.331 72.8778 131.684 73.1835 131.904C73.2933 131.974 73.4108 132.029 73.5284 132.06ZM87.85 97.3894C91.3226 100.533 93.0863 105.33 93.0863 111.672C93.0863 117.692 91.3461 123.046 88.0538 127.161C84.7693 131.261 79.9092 134.169 73.9909 135.564C73.2697 135.737 72.7132 136.427 72.7132 137.156V137.43C72.6583 138.606 70.9573 140.15 68.4489 140.887V141.655C71.3336 141.028 73.3481 139.303 73.403 138.018V137.744C73.403 137.015 73.9596 136.325 74.6886 136.152C80.599 134.757 85.4669 131.857 88.7436 127.749C92.0359 123.642 93.7761 118.28 93.7761 112.26C93.7761 105.51 91.785 100.509 87.85 97.3894ZM72.7838 90.0914V92.2471C72.7838 92.8115 73.1208 93.2426 73.6068 93.3916C73.5284 93.227 73.4814 93.0467 73.4814 92.835V89.9111C73.2384 89.966 73.0111 90.0287 72.7838 90.0914ZM66.4813 136.709C62.5619 136.96 57.1688 136.544 53.1318 133.362C57.2315 137.085 63.0323 137.563 67.179 137.297C67.3358 137.289 67.4847 137.305 67.6258 137.352C67.422 136.936 66.9987 136.678 66.4813 136.709ZM104.163 114.031C104.163 118.382 104.115 121.251 103.99 124.253C103.967 124.833 104.304 125.303 104.813 125.46C104.727 125.28 104.68 125.076 104.688 124.849C104.813 121.846 104.86 118.985 104.86 114.627V100.58C104.617 100.627 104.39 100.689 104.163 100.752V114.031ZM122.004 104.719C121.886 104.703 121.761 104.711 121.643 104.726C121.134 104.805 120.648 105.165 120.405 105.675C119.072 108.458 117.888 110.817 116.321 113.812C114.674 116.743 112.966 119.91 111.155 123.265C110.183 125.06 109.054 127.146 107.941 129.191C107.933 129.207 107.917 129.231 107.909 129.254C107.29 130.391 105.307 133.009 99.9766 134.138V134.867C105.832 133.824 107.957 131.026 108.607 129.842C108.623 129.819 108.631 129.803 108.638 129.779C109.752 127.733 110.88 125.648 111.852 123.853C113.663 120.498 115.372 117.331 117.018 114.4C118.594 111.405 119.777 109.046 121.102 106.263C121.345 105.753 121.831 105.393 122.341 105.314C122.458 105.299 122.584 105.291 122.701 105.307C122.772 105.314 122.842 105.33 122.905 105.354C122.748 105.009 122.419 104.766 122.004 104.719ZM127.75 97.068V126.942C127.718 128.165 126.009 129.779 123.485 130.477V131.237C126.386 130.665 128.408 128.87 128.447 127.537V96.9347C128.212 96.9661 127.977 97.0131 127.75 97.068ZM142.565 97.9459L133.966 99.2707C133.919 99.5058 133.887 99.741 133.872 99.984L143.255 98.5338C143.459 98.5025 143.654 98.5181 143.827 98.573C143.615 98.1262 143.129 97.8597 142.565 97.9459ZM159.818 92.0276C159.473 93.8854 158.297 95.4924 156.988 95.7275L150.529 96.7231C149.761 96.8406 149.134 97.5618 149.134 98.33V123.547C149.134 124.214 148.64 124.982 147.778 125.672C146.939 126.346 145.834 126.863 144.658 127.161V127.906C146.092 127.655 147.472 127.059 148.475 126.26C149.338 125.57 149.831 124.802 149.831 124.135V98.9179C149.831 98.1497 150.459 97.4286 151.227 97.311L157.686 96.3155C159.16 96.0568 160.469 94.05 160.61 91.91L159.818 92.0276ZM77.001 162.647C77.1735 163.134 77.3695 163.682 77.5811 164.262L77.5968 164.309C77.7849 164.827 77.9809 165.368 78.169 165.901C78.2944 166.261 78.5766 166.504 78.9215 166.606C78.9059 166.567 78.8823 166.528 78.8667 166.488C78.6785 165.948 78.4826 165.407 78.2944 164.897L78.2787 164.85C78.0671 164.262 77.8711 163.721 77.6987 163.235L73.5912 152.488L73.1443 152.559L77.001 162.647ZM71.8901 159.998C71.8352 160.006 71.7725 160.021 71.7177 160.037C71.0435 160.225 70.534 160.86 70.4948 161.542C70.4478 162.404 70.4086 163.259 70.3615 164.082L69.9069 172.767C69.9069 172.783 69.9069 172.791 69.9069 172.807C69.8677 173.559 68.8722 174.531 67.4142 175.025L67.3593 175.817C69.2249 175.448 70.5654 174.272 70.6124 173.395C70.6124 173.379 70.6124 173.363 70.6124 173.355L71.0592 164.67C71.1062 163.847 71.1533 162.992 71.1925 162.13C71.2238 161.448 71.7412 160.813 72.4153 160.625C72.4702 160.609 72.5329 160.594 72.5878 160.586C72.7838 160.555 72.9797 160.57 73.16 160.625C72.9327 160.163 72.4388 159.912 71.8901 159.998ZM91.5263 149.721L90.8757 149.823L92.271 169.53C92.2867 169.742 92.1848 169.977 91.9653 170.235C91.5734 170.714 90.7738 171.254 89.7548 171.584L89.794 172.352C91.1344 172.078 92.1848 171.411 92.663 170.831C92.8746 170.573 92.9765 170.33 92.9687 170.126L91.5263 149.721ZM87.2228 157.113C87.1601 157.113 87.0896 157.121 87.0269 157.129C86.4468 157.215 85.9138 157.67 85.71 158.266C85.4591 159.01 85.1691 159.865 84.8242 160.876L81.3516 170.518C80.9596 171.537 79.9563 172.791 78.3415 173.238L78.608 173.928C80.4736 173.598 81.6259 172.211 82.0492 171.106L85.5218 161.464C85.8746 160.453 86.1646 159.598 86.4076 158.853C86.6036 158.258 87.1366 157.811 87.7245 157.717C87.7872 157.709 87.8578 157.701 87.9205 157.701C88.0538 157.701 88.1792 157.725 88.2968 157.756C88.1086 157.364 87.7088 157.113 87.2228 157.113ZM105.401 160.265C105.574 160.743 105.754 161.244 105.926 161.754C106.052 162.122 106.334 162.373 106.679 162.475C106.655 162.436 106.64 162.389 106.624 162.342C106.451 161.832 106.271 161.331 106.099 160.852L101.137 148.232L100.98 148.255C100.886 148.271 100.792 148.287 100.698 148.31L105.401 160.265ZM117.089 145.778C117.065 145.778 117.042 145.786 117.018 145.794L111.178 161.966C109.281 167.257 107.956 170.431 106.616 172.893C105.323 175.252 103.324 176.702 100.525 177.322C100.086 177.659 99.6238 177.965 99.1457 178.247L99.3025 178.215C99.42 178.2 99.5611 178.176 99.7258 178.16C99.9217 178.137 100.141 178.106 100.4 178.066C103.637 177.565 105.903 176.068 107.322 173.481C108.662 171.019 109.987 167.845 111.884 162.553L117.998 145.637L117.089 145.778ZM126.495 144.375V162.013C126.495 162.577 126.832 163.008 127.318 163.157C127.24 162.992 127.193 162.804 127.193 162.608V144.226C126.95 144.258 126.715 144.313 126.495 144.375ZM141.271 142.086V159.888C141.271 160.453 141.609 160.892 142.095 161.033C142.016 160.868 141.969 160.68 141.969 160.476V141.93C141.726 141.977 141.491 142.024 141.271 142.086ZM143.631 161.628L143.458 169.044C143.325 169.82 142.588 170.518 141.538 170.91L141.562 171.701C142.957 171.388 143.999 170.565 144.156 169.632L144.344 161.534L143.631 161.628ZM139.312 164.019L123.744 166.418V167.116L140.009 164.607C140.213 164.576 140.409 164.592 140.582 164.646C140.37 164.192 139.876 163.925 139.312 164.019ZM154.401 140.025C154.158 140.072 153.923 140.134 153.704 140.205V148.804C153.704 150.748 153.688 152.222 153.657 153.562C153.641 154.135 153.978 154.597 154.48 154.746C154.394 154.574 154.347 154.37 154.354 154.158C154.386 152.81 154.401 151.344 154.401 149.4V140.025ZM165.172 144.258C165.054 144.242 164.929 144.25 164.811 144.265C164.31 144.344 163.832 144.689 163.581 145.19C163.04 146.28 162.475 147.377 161.817 148.647C160.727 150.599 159.583 152.708 158.384 154.934L158.368 154.958C157.655 156.275 156.894 157.686 156.118 159.112C155.107 160.868 154.017 161.746 152.591 161.973L151.156 162.193V162.89L153.288 162.561C154.715 162.342 155.805 161.456 156.816 159.7C157.592 158.273 158.36 156.862 159.066 155.553L159.081 155.53C160.288 153.296 161.425 151.195 162.515 149.243C163.181 147.981 163.738 146.884 164.278 145.786C164.529 145.285 165.007 144.94 165.509 144.861C165.635 144.846 165.752 144.838 165.878 144.853C165.948 144.861 166.019 144.877 166.081 144.893C165.909 144.548 165.587 144.305 165.172 144.258ZM169.428 137.697V157.521C169.428 158.258 168.362 159.238 166.818 159.708V160.468C168.723 160.116 170.126 158.955 170.126 158.117V137.587L169.428 137.697ZM190.084 136.45L184.267 137.352C183.499 137.469 182.872 138.19 182.872 138.959V143.772C182.872 147.409 182.66 149.917 182.182 151.885C182.174 151.908 182.167 151.94 182.159 151.963C181.242 155.114 179.117 156.8 177.424 157.748C177.079 158.179 176.726 158.563 176.366 158.955C176.256 159.073 176.154 159.191 176.044 159.308C176.037 159.324 176.029 159.332 176.021 159.339L176.162 159.277C176.248 159.238 176.35 159.191 176.468 159.144C177.996 158.477 181.587 156.909 182.864 152.551C182.872 152.52 182.88 152.496 182.888 152.473C183.366 150.505 183.578 147.989 183.578 144.36V139.547C183.578 138.778 184.205 138.057 184.973 137.94L190.789 137.038C190.993 137.007 191.189 137.022 191.361 137.077C191.126 136.63 190.648 136.364 190.084 136.45ZM194.92 133.761V153.625C194.889 154.276 193.831 155.342 192.169 155.812V156.557C194.231 156.227 195.579 154.958 195.618 154.213V133.652L194.92 133.761Z" fill="#007D43"/>
    <path d="M116.43 192.702L116.391 196.417L120.099 195.806L120.138 192.09L122.56 191.69L122.458 201.426L120.036 201.826L120.075 197.726L116.368 198.338L116.328 202.437L113.906 202.837L114.008 193.101L116.43 192.702Z" fill="#067611"/>
    <path d="M134.224 194.52C134.185 198.094 131.685 200.109 129.239 200.509C126.535 200.955 124.449 199.427 124.481 196.291C124.512 193.093 126.605 190.788 129.506 190.31C132.359 189.84 134.256 191.564 134.224 194.52ZM126.981 195.821C126.966 197.702 127.875 198.964 129.333 198.721C130.713 198.494 131.693 196.973 131.716 194.998C131.732 193.477 131.081 191.831 129.419 192.105C127.71 192.388 126.997 194.198 126.981 195.821Z" fill="#067611"/>
    <path d="M136.231 192.647C136.247 191.369 136.215 190.335 136.184 189.425L138.316 189.073L138.418 190.554L138.457 190.546C139.178 189.331 140.307 188.524 141.765 188.281C143.976 187.912 145.786 189.527 145.755 192.569C145.716 196.088 143.513 198.15 141.326 198.51C140.127 198.706 139.123 198.354 138.637 197.656L138.598 197.664L138.543 202.704L136.121 203.104L136.231 192.647ZM138.63 194.669C138.63 194.912 138.645 195.124 138.684 195.336C138.927 196.292 139.774 196.872 140.817 196.7C142.353 196.441 143.278 194.999 143.294 193.078C143.309 191.361 142.494 190.099 140.942 190.358C139.939 190.523 138.998 191.416 138.731 192.537C138.692 192.741 138.645 192.968 138.645 193.172L138.63 194.669Z" fill="#067611"/>
    <path d="M147.973 187.473L151.031 186.964L152.347 190.977C152.536 191.565 152.865 192.608 153.069 193.391L153.108 193.384C153.312 192.655 153.743 191.306 154.064 190.272L155.365 186.242L158.423 185.733L158.956 195.359L156.69 195.735L156.557 191.526C156.526 190.593 156.463 189.268 156.455 188.108L156.392 188.116C156.063 189.292 155.898 189.833 155.373 191.455L153.79 196.088L152.034 196.378L150.678 192.333C150.411 191.463 150.074 190.099 149.847 189.237L149.768 189.253C149.737 190.46 149.682 191.784 149.612 192.733L149.369 196.942L147.182 197.303L147.973 187.473Z" fill="#067611"/>
    <path d="M115.505 191.996L115.465 195.712L119.173 195.1L119.212 191.385L121.635 190.985L121.533 200.721L119.11 201.12L119.15 197.021L115.442 197.632L115.403 201.732L112.98 202.132L113.082 192.396L115.505 191.996Z" fill="white"/>
    <path d="M133.299 193.815C133.259 197.39 130.759 199.404 128.313 199.804C125.609 200.251 123.524 198.722 123.555 195.587C123.586 192.388 125.679 190.084 128.58 189.606C131.441 189.135 133.33 190.86 133.299 193.815ZM126.063 195.116C126.048 196.998 126.957 198.26 128.415 198.017C129.795 197.789 130.775 196.269 130.798 194.293C130.814 192.772 130.163 191.126 128.501 191.401C126.785 191.683 126.079 193.494 126.063 195.116Z" fill="white"/>
    <path d="M135.305 191.949C135.321 190.672 135.289 189.637 135.258 188.728L137.39 188.375L137.492 189.856L137.531 189.848C138.252 188.633 139.381 187.826 140.839 187.583C143.05 187.215 144.861 188.829 144.829 191.871C144.79 195.39 142.587 197.452 140.4 197.813C139.201 198.009 138.198 197.656 137.712 196.958L137.672 196.966L137.618 202.006L135.195 202.406L135.305 191.949ZM137.704 193.964C137.704 194.207 137.719 194.418 137.759 194.63C138.002 195.586 138.848 196.167 139.891 195.994C141.427 195.735 142.352 194.293 142.368 192.373C142.384 190.656 141.568 189.394 140.016 189.652C139.013 189.817 138.072 190.711 137.806 191.832C137.766 192.035 137.719 192.263 137.719 192.467L137.704 193.964Z" fill="white"/>
    <path d="M147.055 186.768L150.113 186.258L151.429 190.272C151.618 190.859 151.947 191.902 152.151 192.686L152.19 192.678C152.394 191.949 152.825 190.601 153.146 189.566L154.447 185.537L157.505 185.027L158.038 194.653L155.772 195.03L155.639 190.82C155.608 189.887 155.545 188.563 155.537 187.403L155.474 187.41C155.145 188.586 154.98 189.127 154.455 190.75L152.872 195.382L151.116 195.672L149.76 191.628C149.493 190.758 149.156 189.394 148.929 188.531L148.85 188.547C148.819 189.754 148.764 191.079 148.694 192.027L148.451 196.237L146.264 196.597L147.055 186.768Z" fill="white"/>
    <path d="M256 130C256 200.669 198.712 258 128 258C57.2879 258 0 200.669 0 130C0 59.3307 57.2879 2 128 2C198.712 2 256 59.2879 256 130Z" fill="white"/>
    <path d="M85.2922 49.5391C83.2829 52.9592 78.9221 54.1563 75.4592 52.1897C72.039 50.2231 70.842 45.8196 72.8086 42.3567C74.7752 38.9365 79.1787 37.7395 82.5988 39.7061C86.019 41.6727 87.2161 46.0761 85.2495 49.5391H85.2922Z" fill="#289B38"/>
    <path d="M79.0509 55.1827C77.4263 55.1827 75.8445 54.7552 74.4337 53.9429C70.0302 51.4205 68.5339 45.7773 71.0562 41.3738C73.4931 37.1413 79.3929 35.5595 83.6254 37.9964C88.0288 40.5615 89.5252 46.2048 87.0028 50.5655C85.3782 53.4299 82.3001 55.1827 79.0081 55.1827H79.0509ZM79.0509 40.818C77.2125 40.818 75.5025 41.8013 74.5619 43.3831C73.1511 45.82 74.0061 48.9837 76.443 50.4372C78.8371 51.8053 82.1291 50.9075 83.4971 48.5562C84.9079 46.0765 84.0529 42.9556 81.616 41.502C80.8465 41.0318 79.9487 40.818 79.0509 40.818V40.818Z" fill="#289B38"/>
    <path d="M51.1753 81.0491C51.1753 85.025 47.9689 88.2314 43.9929 88.2314C40.017 88.2314 36.8105 85.025 36.8105 81.0491C36.8105 77.0731 40.017 73.8667 43.9929 73.8667C47.9689 73.8667 51.1753 77.0731 51.1753 81.0491Z" fill="#289B38"/>
    <path d="M43.9944 90.2406C38.9069 90.2406 34.8027 86.0937 34.8027 81.0489C34.8027 75.9614 38.9069 71.8572 43.9944 71.8145C49.082 71.8145 53.2289 75.9614 53.2289 81.0062C53.2289 86.0937 49.082 90.1979 44.0372 90.2406H43.9944ZM43.9944 75.8759C41.1301 75.8759 38.8214 78.1845 38.8214 81.0489C38.8214 83.9133 41.1301 86.2219 43.9944 86.2219C46.8161 86.2219 49.1675 83.9133 49.1675 81.0489C49.1675 78.1845 46.8588 75.8759 43.9944 75.8759Z" fill="#289B38"/>
    <path d="M47.5415 170.614C50.9617 172.58 52.1587 176.984 50.1921 180.404C48.1828 183.824 43.822 185.021 40.3591 183.055C36.8962 181.088 35.7419 176.685 37.7085 173.264C39.7178 169.844 44.0786 168.647 47.5415 170.614V170.614Z" fill="#289B38"/>
    <path d="M43.9495 186.047C42.325 186.047 40.7431 185.619 39.3751 184.807C34.9716 182.242 33.4753 176.641 35.9976 172.238C38.4345 168.006 44.3343 166.381 48.6095 168.861C53.013 171.426 54.5093 177.026 51.987 181.43C50.3196 184.251 47.2842 186.047 43.9923 186.047H43.9495ZM43.9495 171.682C42.1112 171.682 40.4011 172.666 39.4606 174.29C38.0497 176.727 38.9048 179.891 41.3844 181.344C43.7358 182.712 47.0705 181.814 48.4385 179.42C49.8493 176.983 48.9943 173.82 46.5147 172.366C45.7451 171.896 44.8473 171.682 43.9495 171.682Z" fill="#289B38"/>
    <path d="M79.0515 204.73C83.0275 204.73 86.2339 207.937 86.2339 211.913C86.2339 215.889 83.0275 219.095 79.0515 219.095C75.0756 219.095 71.8691 215.889 71.8691 211.913C71.8691 207.937 75.1183 204.73 79.0515 204.73Z" fill="#289B38"/>
    <path d="M79.0489 221.146C73.9614 221.146 69.8145 216.999 69.8145 211.955C69.8145 206.91 73.9614 202.72 79.0062 202.72C84.0937 202.72 88.2406 206.867 88.2406 211.912C88.2406 216.957 84.0937 221.104 79.0489 221.146V221.146ZM79.0489 206.782C77.6809 206.782 76.3983 207.337 75.415 208.321C74.4317 209.304 73.9187 210.587 73.9187 211.955C73.9187 214.776 76.2273 217.085 79.0917 217.128C81.9561 217.128 84.2647 214.819 84.2647 211.955C84.2647 209.09 81.9561 206.824 79.0917 206.782H79.0489Z" fill="#289B38"/>
    <path d="M168.615 208.322C170.624 204.902 174.985 203.705 178.448 205.671C181.868 207.638 183.065 212.041 181.099 215.504C179.132 218.925 174.729 220.122 171.308 218.155C167.845 216.188 166.691 211.785 168.658 208.322H168.615Z" fill="#289B38"/>
    <path d="M174.857 221.148C173.276 221.148 171.651 220.721 170.283 219.908C168.145 218.668 166.606 216.702 166.008 214.308C165.366 211.914 165.708 209.434 166.906 207.339C169.342 203.107 175.242 201.525 179.475 203.962C183.878 206.484 185.374 212.127 182.852 216.531C181.227 219.395 178.149 221.148 174.857 221.148V221.148ZM174.857 206.783C173.019 206.783 171.309 207.767 170.368 209.391C169.684 210.588 169.471 211.956 169.855 213.282C170.197 214.607 171.052 215.719 172.25 216.403C174.601 217.771 177.936 216.873 179.304 214.521C180.714 212.042 179.859 208.878 177.423 207.467C176.653 206.997 175.755 206.783 174.857 206.783V206.783Z" fill="#289B38"/>
    <path d="M202.734 176.857C202.734 172.881 205.941 169.675 209.917 169.675C213.893 169.675 217.099 172.881 217.099 176.857C217.099 180.833 213.893 184.04 209.917 184.04C205.941 184.04 202.734 180.79 202.734 176.857Z" fill="#289B38"/>
    <path d="M209.914 186.048C204.827 186.048 200.68 181.901 200.68 176.856C200.68 171.812 204.827 167.665 209.871 167.665C214.916 167.665 219.063 171.769 219.063 176.856C219.063 181.944 214.959 186.048 209.871 186.091L209.914 186.048ZM209.914 171.683C207.05 171.683 204.741 173.992 204.741 176.856C204.741 179.721 207.05 182.029 209.914 182.029C212.779 182.029 215.087 179.721 215.087 176.856C215.087 173.992 212.779 171.683 209.914 171.683Z" fill="#289B38"/>
    <path d="M206.324 87.2478C202.904 85.2384 201.707 80.8777 203.674 77.4148C205.64 73.9946 210.044 72.7976 213.464 74.7642C216.884 76.7308 218.081 81.1342 216.115 84.5544C214.148 87.9746 209.745 89.1716 206.282 87.205L206.324 87.2478Z" fill="#289B38"/>
    <path d="M209.914 90.2408C208.333 90.2408 206.708 89.8133 205.34 89.001C200.936 86.4358 199.44 80.7925 201.962 76.4318C204.399 72.1994 210.256 70.5748 214.532 73.0544C218.935 75.5768 220.431 81.2201 217.909 85.6235C216.242 88.4879 213.206 90.2408 209.914 90.2408ZM209.914 75.8761C208.076 75.8761 206.366 76.8593 205.425 78.4839C204.015 80.9208 204.87 84.0845 207.307 85.538C209.701 86.9061 212.993 86.0083 214.361 83.6142C215.771 81.1773 214.916 78.0137 212.437 76.5601C211.667 76.0898 210.769 75.8761 209.872 75.8761H209.914Z" fill="#289B38"/>
    <path d="M174.854 53.1743C170.878 53.1743 167.672 49.9679 167.672 45.9919C167.672 42.016 170.878 38.8096 174.854 38.8096C178.83 38.8096 182.037 42.016 182.037 45.9919C182.037 49.9679 178.83 53.1743 174.854 53.1743Z" fill="#289B38"/>
    <path d="M174.856 55.1835C169.768 55.1835 165.664 51.0365 165.664 45.9918C165.664 40.947 169.768 36.7573 174.856 36.7573C179.943 36.7573 184.048 40.9043 184.09 45.949C184.09 51.0365 179.943 55.1835 174.899 55.1835H174.856ZM174.856 40.8188C171.991 40.8188 169.683 43.1274 169.683 45.9918C169.683 48.8562 171.991 51.1648 174.856 51.1648C177.72 51.1648 180.029 48.8562 180.029 45.9918C180.029 43.1701 177.72 40.8615 174.856 40.8615V40.8188Z" fill="#289B38"/>
    <rect x="122" y="53" width="12" height="83" rx="6" fill="#289B38"/>
    <rect x="122" y="82" width="12" height="54" rx="6" fill="#289B38"/>
    <rect x="122" y="15" width="12" height="37" rx="6" fill="#289B38"/>
    <rect x="122" y="208" width="12" height="37" rx="6" fill="#289B38"/>
    <rect x="13" y="136" width="12" height="37" rx="6" transform="rotate(-90 13 136)" fill="#289B38"/>
    <rect x="206" y="136" width="12" height="37" rx="6" transform="rotate(-90 206 136)" fill="#289B38"/>
    <defs>
        <linearGradient id="paint0_linear_0_1" x1="128.004" y1="-0.00180293" x2="128.004" y2="258.181" gradientUnits="userSpaceOnUse">
            <stop offset="0.1524" stop-color="#0B7425"/>
            <stop offset="1" stop-color="#52B121"/>
        </linearGradient>
        <radialGradient id="paint1_radial_0_1" cx="0" cy="0" r="1" gradientUnits="userSpaceOnUse" gradientTransform="translate(-520.863 2075.34) scale(174.36 174.36)">
            <stop offset="0.1524" stop-color="#FFF8A5"/>
            <stop offset="1" stop-color="#7DC242"/>
        </radialGradient>
        <radialGradient id="paint2_radial_0_1" cx="0" cy="0" r="1" gradientUnits="userSpaceOnUse" gradientTransform="translate(166.055 129.812) scale(106.473 106.473)">
            <stop offset="0.1524" stop-color="#FFF8A5"/>
            <stop offset="1" stop-color="#7DC242"/>
        </radialGradient>
        <linearGradient id="paint3_linear_0_1" x1="61.6883" y1="194.527" x2="210.924" y2="194.527" gradientUnits="userSpaceOnUse">
            <stop offset="0.0286" stop-color="#B0FE30"/>
            <stop offset="0.5" stop-color="#68DE13"/>
            <stop offset="1" stop-color="#AFFE30"/>
        </linearGradient>
    </defs>
</svg>
