<svg width="256" height="259" viewBox="0 0 256 259" fill="none" xmlns="http://www.w3.org/2000/svg">
    <path d="M128 258.179C198.692 258.179 256 200.384 256 129.09C256 57.7954 198.692 0 128 0C57.3075 0 0 57.7954 0 129.09C0 200.384 57.3075 258.179 128 258.179Z" fill="url(#paint0_linear_0_1)"/>
    <path opacity="0.45" d="M29.6774 138.724C29.6774 95.4768 54.111 57.9524 89.9108 39.1627C90.1225 39.0373 90.2479 38.7943 90.2479 38.5356C90.2479 38.1358 89.9265 37.8145 89.5267 37.8145C89.3935 37.8145 89.2681 37.838 89.1662 37.9007C47.5656 54.37 18.1465 94.9516 18.1465 142.416C18.1465 204.475 68.456 254.785 130.524 254.785C133.604 254.785 136.654 254.644 139.679 254.401C140.205 253.28 140.761 252.175 141.341 251.085C79.6028 250.701 29.6774 200.548 29.6774 138.724Z" fill="url(#paint1_radial_0_1)"/>
    <path opacity="0.45" d="M254.825 133.048C254.825 64.09 198.926 8.19141 129.96 8.19141C111.131 8.19141 93.2822 12.3695 77.2754 19.8321C89.7626 15.6383 103.136 13.365 117.042 13.365C186 13.365 241.906 69.2636 241.906 138.222C241.906 166.481 232.515 192.537 216.689 213.459C219.221 213.851 221.706 214.376 224.143 215.026C243.254 193.086 254.825 164.419 254.825 133.048Z" fill="url(#paint2_radial_0_1)"/>
    <path d="M209.539 189.056C209.218 192.231 206.56 195.202 203.605 195.688L66.4807 218.13C63.5254 218.616 61.3933 216.445 61.7147 213.27L63.0708 199.999C63.3922 196.824 66.0495 193.853 69.0048 193.367L206.129 170.925C209.084 170.439 211.217 172.61 210.895 175.785L209.539 189.056Z" fill="url(#paint3_linear_0_1)"/>
    <path d="M203.386 106.718C202.9 106.796 202.508 106.459 202.508 105.973V105.965C202.508 104.515 203.684 103.159 205.134 102.932L209.524 102.257C210.01 102.179 210.402 102.516 210.402 103.002V103.01C210.402 104.46 209.226 105.816 207.776 106.044L203.386 106.718ZM192.592 119.981C196.362 115.944 198.353 110.574 198.353 104.468C198.353 99.0514 196.684 94.6538 193.517 91.7535C190.334 88.8374 185.944 87.7086 180.826 88.5004C175.809 89.2764 171.27 91.7848 168.033 95.5788C164.607 99.5923 162.796 104.758 162.796 110.527C162.796 121.517 169.977 128.086 180.253 126.503C184.965 125.774 189.347 123.454 192.592 119.981ZM190.17 105.942C190.17 113.224 186.117 119.134 180.536 119.997C174.954 120.859 170.902 116.258 170.902 109.062C170.902 102.806 173.928 96.0256 180.677 94.9831C188.186 93.8229 190.17 101.646 190.17 105.942ZM97.0131 113.867C97.0131 126.864 89.4173 136.333 76.6401 139.343V139.649C76.5617 141.992 73.5124 144.36 69.7497 144.971C69.2794 145.034 68.8953 144.705 68.8953 144.234V140.534C62.1853 140.958 48.5928 139.602 48.5928 121.635C48.5928 106.146 59.0027 98.1186 69.0364 95.6572V95.6494C69.0364 93.2742 72.0779 90.8598 75.8405 90.2562C76.3187 90.1857 76.7106 90.5149 76.7106 90.9931V94.4578C86.6816 93.6348 97.0131 98.2989 97.0131 113.867ZM68.9658 101.92C62.9064 103.582 56.7687 109.124 56.7687 120.075C56.7687 129.027 61.3073 134.279 68.9658 134.287V101.92ZM88.8372 115.058C88.8372 101.975 80.9279 100.541 76.6401 100.729V133.119C80.9436 131.849 88.8372 127.781 88.8372 115.058ZM131.676 129.16V98.0167C131.676 97.5385 131.284 97.2014 130.806 97.2798L130.618 97.3112C124.974 98.2126 121.666 100.815 120.318 103.277L111.899 118.515C110.261 121.627 109.163 123.885 107.925 126.526C108.05 123.43 108.097 120.483 108.097 116.25V101.67C108.097 101.191 107.705 100.854 107.227 100.933L107.164 100.941C103.496 101.505 100.454 103.919 100.423 106.318V137.446C100.423 137.932 100.815 138.261 101.293 138.183C107.015 137.297 110.276 134.687 111.64 132.21C112.738 130.203 113.827 128.188 114.893 126.213C116.712 122.85 118.429 119.675 120.059 116.759C121.604 113.82 122.819 111.405 124.182 108.544C124.01 112.205 123.932 114.87 123.932 119.158V133.809C123.932 134.287 124.324 134.624 124.802 134.546L124.982 134.514C128.619 133.934 131.637 131.535 131.676 129.16ZM162.985 92.2551L138.669 96.0099C136.293 96.3862 134.349 99.2866 134.31 102.312V102.555C134.31 103.034 134.702 103.371 135.18 103.292L145.104 101.764V130.485C145.104 130.963 145.496 131.292 145.974 131.222L146.319 131.167C150.004 130.595 153.053 128.165 153.061 125.758V100.533L159.536 99.5374C161.911 99.1298 163.847 96.1981 163.855 93.1644V92.992C163.855 92.506 163.463 92.1767 162.985 92.2551ZM91.3535 175.613C93.9795 175.205 96.3155 173.434 96.1979 171.639L94.7242 150.913C94.685 150.372 94.2303 150.019 93.6816 150.098L89.7779 150.701C88.0455 150.991 87.2146 152.645 86.5561 154.456L86.2034 155.452C86.1956 155.467 86.1877 155.483 86.1877 155.507L83.789 162.373C83.2247 164.043 82.574 165.987 82.0253 167.672C81.8293 167.116 81.6255 166.559 81.4296 166.018C81.2179 165.43 81.0219 164.882 80.8495 164.396L76.6557 153.414C76.5068 153.022 76.1149 152.802 75.668 152.873L72.3993 153.374C70.659 153.641 69.4127 155.812 69.2324 158.117H69.2245L67.7508 178.122C67.7273 178.412 67.8292 178.686 68.0252 178.866C68.2212 179.047 68.5034 179.125 68.7934 179.086L68.958 179.062C71.6154 178.639 73.7162 176.859 73.8181 175.072L74.2727 166.34C74.3198 165.517 74.3668 164.662 74.406 163.792C74.649 164.537 74.8842 165.242 75.1037 165.885L79.2033 176.64C79.3523 177.032 79.7442 177.251 80.191 177.181L80.3321 177.157V177.15C82.9581 176.742 84.5886 174.774 85.1765 173.23L88.657 163.557C88.994 162.569 89.2919 161.707 89.5584 160.923C89.5898 161.448 89.6211 161.966 89.6525 162.467L89.7309 163.839L90.2561 174.767C90.2796 175.323 90.7421 175.692 91.2986 175.597L91.3535 175.613ZM110.347 175.84C111.907 172.971 113.334 169.358 115.011 164.67L121.306 147.26C121.431 146.923 121.384 146.562 121.188 146.312C120.992 146.061 120.671 145.935 120.326 145.99L118.923 146.21C116.265 146.625 114.611 148.459 114.055 150.2H114.047L110.331 161.77C110.143 162.358 109.963 162.953 109.79 163.533C109.618 163.016 109.43 162.499 109.25 162.005L104.201 149.157C104.052 148.773 103.66 148.561 103.221 148.624L102.822 148.687C100.627 149.032 97.8362 151.007 98.3692 152.536L106.192 170.824C106.365 171.263 106.404 171.443 106.412 171.506C106.381 171.639 106.247 171.96 106.169 172.14C105.071 174.782 103.425 176.46 102.924 176.938C102.006 177.855 101.066 178.49 100.384 178.89C99.9057 179.188 99.5764 179.713 99.5764 180.277C99.5764 181.045 100.204 181.571 100.972 181.453L101.129 181.43C102.5 181.226 107.525 180.983 110.347 175.84ZM143.152 174.963C145.614 174.539 147.182 172.987 147.385 171.357L147.581 162.82C147.589 162.538 147.487 162.287 147.291 162.115C147.095 161.942 146.837 161.872 146.554 161.903L145.198 162.083V143.192C145.198 142.612 144.728 142.22 144.156 142.306L143.842 142.353C141.201 142.761 139.006 144.548 138.959 146.288V162.883L130.422 164.2V145.473C130.422 144.893 129.952 144.501 129.38 144.587L129.066 144.634C126.424 145.042 124.237 146.829 124.182 148.569V169.491C124.182 170.071 124.653 170.463 125.225 170.377L141.835 167.813L142 174.108C142.016 174.672 142.478 175.057 143.043 174.963H143.152ZM168.472 163.714C171.145 163.298 173.355 161.527 173.355 159.716V138.849C173.355 138.269 172.885 137.877 172.313 137.963L169.742 138.363C167.084 138.771 165.744 140.738 164.866 142.337L159.3 152.41C158.626 153.688 158.093 154.754 157.584 155.789C157.615 154.386 157.631 152.881 157.631 150.991V141.271C157.631 140.691 157.16 140.299 156.588 140.385L156.424 140.409C153.774 140.832 151.587 142.643 151.587 144.391V165.266C151.587 165.846 152.057 166.238 152.63 166.152L155.114 165.768C157.615 165.383 159.01 163.486 159.833 162.06C160.594 160.664 161.354 159.261 162.099 157.882C163.314 155.64 164.458 153.523 165.548 151.571C166.206 150.317 166.779 149.204 167.343 148.06C167.288 149.596 167.265 151.07 167.265 153.076V162.844C167.265 163.424 167.735 163.816 168.307 163.729L168.472 163.714ZM197.805 134.028L185.631 135.909C182.966 136.325 180.747 138.144 180.747 139.899V146.9C180.747 149.353 180.685 151.242 180.442 152.724C179.681 157.568 178.427 158.603 176.914 160.273C176.53 160.696 176.342 161.268 176.499 161.785C176.718 162.491 177.494 162.789 178.231 162.452L178.388 162.381C179.697 161.785 184.424 160.045 186.023 154.582H186.031C186.626 152.206 186.799 149.337 186.799 145.967V141.154L192.615 140.252V158.932C192.615 159.512 193.086 159.904 193.658 159.818L193.987 159.771C196.613 159.355 198.8 157.576 198.847 155.844V134.906C198.855 134.342 198.385 133.942 197.805 134.028Z" fill="#0C7315"/>
    <path d="M201.206 104.601C200.72 104.679 200.328 104.342 200.328 103.856V103.849C200.328 102.398 201.504 101.042 202.954 100.815L207.344 100.141C207.83 100.062 208.222 100.399 208.222 100.885V100.893C208.222 102.343 207.046 103.7 205.596 103.927L201.206 104.601ZM190.412 117.864C194.183 113.827 196.174 108.458 196.174 102.351C196.174 96.9347 194.504 92.5371 191.337 89.6368C188.155 86.7207 183.765 85.5919 178.646 86.3837C173.629 87.1597 169.091 89.6681 165.853 93.4621C162.428 97.4756 160.617 102.641 160.617 108.411C160.617 119.401 167.797 125.97 178.074 124.386C182.785 123.657 187.167 121.345 190.412 117.864ZM187.99 103.825C187.99 111.107 183.937 117.018 178.356 117.88C172.775 118.742 168.722 114.141 168.722 106.945C168.722 100.69 171.748 93.9089 178.497 92.8664C186.007 91.7062 187.99 99.5294 187.99 103.825ZM94.8334 111.758C94.8334 124.755 87.2376 134.224 74.4604 137.234V137.54C74.382 139.884 71.3327 142.251 67.5701 142.862C67.0997 142.925 66.7156 142.596 66.7156 142.125V138.426C60.0056 138.849 46.4131 137.493 46.4131 119.526C46.4131 104.037 56.823 96.0097 66.8567 93.5483V93.5405C66.8567 91.1653 69.8982 88.751 73.6608 88.1474C74.139 88.0768 74.5309 88.4061 74.5309 88.8842V92.349C84.5019 91.5259 94.8334 96.1822 94.8334 111.758ZM66.7862 99.8116C60.7268 101.473 54.589 107.015 54.589 117.966C54.589 126.918 59.1276 132.17 66.7862 132.178V99.8116ZM86.6576 112.942C86.6576 99.8586 78.7482 98.4241 74.4604 98.6122V131.002C78.7639 129.74 86.6576 125.664 86.6576 112.942ZM129.497 127.044V95.9C129.497 95.4218 129.105 95.0848 128.627 95.1631L128.438 95.1945C122.795 96.0959 119.487 98.6984 118.138 101.16L109.719 116.398C108.081 119.51 106.984 121.768 105.745 124.41C105.87 121.313 105.918 118.366 105.918 114.133V99.5529C105.918 99.0747 105.526 98.7376 105.047 98.816L104.985 98.8239C101.316 99.3883 98.2747 101.803 98.2433 104.201V135.329C98.2433 135.815 98.6353 136.144 99.1134 136.066C104.836 135.18 108.097 132.57 109.461 130.093C110.558 128.086 111.648 126.072 112.714 124.096C114.532 120.733 116.249 117.559 117.88 114.643C119.424 111.703 120.639 109.289 122.003 106.428C121.83 110.088 121.752 112.753 121.752 117.041V131.692C121.752 132.17 122.144 132.507 122.622 132.429L122.802 132.398C126.44 131.817 129.457 129.427 129.497 127.044ZM160.797 90.1385L136.481 93.8932C134.106 94.2695 132.162 97.1699 132.123 100.196V100.439C132.123 100.917 132.515 101.254 132.993 101.176L142.917 99.6469V128.368C142.917 128.847 143.309 129.176 143.787 129.105L144.132 129.05C147.816 128.478 150.865 126.048 150.873 123.642V98.4162L157.348 97.4207C159.723 97.0131 161.659 94.0814 161.667 91.0478V90.8753C161.675 90.3971 161.283 90.0601 160.797 90.1385ZM89.1738 173.504C91.7998 173.097 94.1358 171.325 94.0182 169.53L92.5445 148.804C92.5053 148.263 92.0507 147.911 91.5019 147.989L87.5982 148.593C85.8658 148.883 85.0349 150.537 84.3765 152.347L84.0237 153.343C84.0159 153.359 84.008 153.374 84.008 153.398L81.6094 160.265C81.045 161.934 80.3943 163.878 79.8456 165.564C79.6497 165.007 79.4459 164.45 79.2499 163.91C79.0382 163.322 78.8423 162.773 78.6698 162.287L74.476 151.305C74.3271 150.913 73.9352 150.693 73.4884 150.764L70.2196 151.266C68.4793 151.532 67.233 153.703 67.0527 156.008H67.0449L65.5947 176.021C65.5711 176.311 65.6731 176.585 65.869 176.765C66.065 176.945 66.3472 177.024 66.6372 176.985L66.8018 176.961C69.4592 176.538 71.56 174.758 71.6619 172.971L72.1166 164.239C72.1636 163.416 72.2106 162.561 72.2498 161.691C72.4928 162.436 72.728 163.141 72.9475 163.784L77.0472 174.539C77.1961 174.931 77.588 175.15 78.0349 175.08L78.176 175.056V175.049C80.802 174.641 82.4324 172.673 83.0204 171.129L86.5008 161.456C86.8379 160.468 87.1357 159.606 87.4023 158.822C87.4336 159.347 87.465 159.865 87.4963 160.366L87.5747 161.738L88.0999 172.665C88.1234 173.222 88.5859 173.59 89.1425 173.496L89.1738 173.504ZM108.167 173.724C109.727 170.855 111.154 167.241 112.831 162.553L119.126 145.143C119.251 144.806 119.204 144.446 119.008 144.195C118.812 143.944 118.491 143.819 118.146 143.874L116.743 144.093C114.086 144.508 112.432 146.343 111.875 148.083H111.867L108.152 159.653C107.963 160.241 107.783 160.837 107.611 161.417C107.438 160.899 107.25 160.382 107.07 159.888L102.022 147.04C101.873 146.656 101.481 146.445 101.042 146.507L100.642 146.57C98.4471 146.915 95.6565 148.89 96.1896 150.419L104.013 168.707C104.185 169.146 104.224 169.326 104.232 169.389C104.201 169.522 104.068 169.844 103.989 170.024C102.892 172.665 101.246 174.343 100.744 174.821C99.8268 175.738 98.8861 176.373 98.2041 176.773C97.726 177.071 97.3967 177.596 97.3967 178.16C97.3967 178.929 98.0238 179.454 98.7921 179.336L98.9488 179.313C100.321 179.109 105.345 178.866 108.167 173.724ZM140.973 172.846C143.434 172.423 145.002 170.87 145.206 169.24L145.402 160.703C145.409 160.421 145.308 160.17 145.112 159.998C144.916 159.826 144.657 159.747 144.375 159.786L143.019 159.967V141.075C143.019 140.495 142.548 140.103 141.976 140.189L141.663 140.236C139.021 140.644 136.826 142.431 136.779 144.171V160.766L128.242 162.083V143.356C128.242 142.776 127.772 142.384 127.2 142.47L126.886 142.517C124.245 142.925 122.058 144.712 122.003 146.452V167.374C122.003 167.954 122.473 168.346 123.045 168.26L139.656 165.697L139.82 171.991C139.836 172.556 140.299 172.94 140.863 172.846H140.973ZM166.292 161.597C168.965 161.182 171.176 159.41 171.176 157.599V136.732C171.176 136.152 170.705 135.76 170.133 135.847L167.562 136.246C164.905 136.654 163.564 138.622 162.686 140.221L157.121 150.294C156.447 151.571 155.913 152.637 155.404 153.672C155.435 152.269 155.451 150.764 155.451 148.875V139.155C155.451 138.574 154.981 138.183 154.408 138.269L154.244 138.292C151.594 138.716 149.407 140.526 149.407 142.274V163.149C149.407 163.729 149.878 164.121 150.45 164.035L152.935 163.651C155.435 163.267 156.831 161.37 157.654 159.943C158.414 158.548 159.174 157.145 159.919 155.765C161.134 153.523 162.279 151.407 163.368 149.455C164.027 148.201 164.599 147.087 165.163 145.943C165.108 147.479 165.085 148.953 165.085 150.96V160.727C165.085 161.307 165.555 161.699 166.127 161.613L166.292 161.597ZM195.625 131.919L183.451 133.801C180.786 134.216 178.568 136.035 178.568 137.791V144.791C178.568 147.244 178.505 149.133 178.262 150.615C177.502 155.459 176.247 156.494 174.734 158.164C174.35 158.587 174.162 159.159 174.319 159.677C174.539 160.382 175.315 160.68 176.051 160.343L176.208 160.272C177.517 159.677 182.244 157.936 183.843 152.473H183.851C184.447 150.098 184.619 147.229 184.619 143.858V139.045L190.436 138.143V156.823C190.436 157.403 190.906 157.795 191.478 157.709L191.807 157.662C194.433 157.247 196.62 155.467 196.667 153.735V132.805C196.675 132.225 196.205 131.825 195.625 131.919Z" fill="white"/>
    <path d="M202.805 102.924L206.576 102.344C206.38 102.798 205.956 103.167 205.455 103.245L201.684 103.825C201.88 103.363 202.304 103.002 202.805 102.924ZM171.317 117.41C169.043 115.285 167.672 111.797 167.672 107.454C167.672 103.856 168.597 100.368 170.266 97.6402C172.281 94.3558 175.252 92.3176 178.842 91.7689C181.397 91.377 183.6 91.8708 185.364 93.1956C183.498 91.4319 181.045 90.7342 178.144 91.181C174.554 91.7376 171.583 93.7678 169.569 97.0523C167.891 99.7802 166.974 103.268 166.974 106.866C166.974 111.632 168.62 115.379 171.317 117.41ZM190.655 91.0321C190.436 90.8283 190.208 90.6402 189.973 90.4599C192.881 93.1329 194.418 97.2169 194.418 102.265C194.418 107.972 192.583 112.957 189.111 116.681C186.124 119.879 182.079 122.019 177.713 122.693C173.417 123.359 169.678 122.521 166.833 120.279C166.841 120.287 166.841 120.287 166.849 120.294C169.765 122.967 173.762 123.994 178.411 123.281C182.777 122.607 186.822 120.475 189.808 117.269C193.281 113.545 195.115 108.56 195.115 102.853C195.115 97.797 193.571 93.7051 190.655 91.0321ZM57.9596 130.689C55.1062 128.055 53.5385 123.869 53.5385 118.468C53.5385 113.067 54.9416 108.513 57.7087 104.93C60.6718 101.097 64.3796 99.4431 66.9585 98.7376C67.0134 98.722 67.0683 98.7063 67.1231 98.6984C67.327 98.6671 67.5151 98.6828 67.7032 98.7376C67.6248 98.573 67.5073 98.4241 67.3505 98.3143C67.0918 98.1262 66.7626 98.0557 66.4255 98.1027C66.3706 98.1105 66.3158 98.1262 66.2609 98.1419C63.6819 98.8474 59.9741 100.501 57.0111 104.335C54.244 107.917 52.8408 112.471 52.8408 117.872C52.8408 123.704 54.6673 128.11 57.9596 130.689ZM73.5275 132.06C73.4491 131.896 73.402 131.708 73.402 131.512V99.1217C73.402 98.722 73.5745 98.3222 73.8645 98.0086C74.1232 97.7421 74.4524 97.5618 74.7973 97.5069C74.8522 97.4991 74.8993 97.4913 74.9541 97.4913C77.0314 97.3972 80.5197 97.6716 83.4279 99.9213C80.4021 97.1228 76.5062 96.8015 74.2565 96.9034C74.2016 96.9034 74.1546 96.9112 74.0997 96.919C73.7548 96.9739 73.4256 97.1463 73.1669 97.4207C72.869 97.7264 72.7044 98.134 72.7044 98.5338V130.924C72.7044 131.331 72.8768 131.684 73.1825 131.904C73.2923 131.974 73.4099 132.029 73.5275 132.06ZM87.849 97.3894C91.3216 100.533 93.0853 105.33 93.0853 111.672C93.0853 117.692 91.3451 123.046 88.0528 127.161C84.7683 131.261 79.9082 134.169 73.9899 135.564C73.2688 135.737 72.7122 136.427 72.7122 137.156V137.43C72.6573 138.606 70.9563 140.15 68.4479 140.887V141.655C71.3326 141.028 73.3472 139.303 73.402 138.018V137.744C73.402 137.015 73.9586 136.325 74.6876 136.152C80.5981 134.757 85.466 131.857 88.7426 127.749C92.0349 123.642 93.7751 118.28 93.7751 112.26C93.7751 105.51 91.7841 100.509 87.849 97.3894ZM72.7828 90.0914V92.2471C72.7828 92.8115 73.1198 93.2426 73.6058 93.3916C73.5275 93.227 73.4804 93.0467 73.4804 92.835V89.9111C73.2374 89.966 73.0101 90.0287 72.7828 90.0914ZM66.4804 136.709C62.561 136.96 57.1679 136.544 53.1309 133.362C57.2306 137.085 63.0313 137.563 67.178 137.297C67.3348 137.289 67.4837 137.305 67.6248 137.352C67.421 136.936 66.9977 136.678 66.4804 136.709ZM104.162 114.031C104.162 118.382 104.115 121.251 103.989 124.253C103.966 124.833 104.303 125.303 104.812 125.46C104.726 125.28 104.679 125.076 104.687 124.849C104.812 121.846 104.859 118.985 104.859 114.627V100.58C104.616 100.627 104.389 100.689 104.162 100.752V114.031ZM122.003 104.719C121.885 104.703 121.76 104.711 121.642 104.726C121.133 104.805 120.647 105.165 120.404 105.675C119.071 108.458 117.887 110.817 116.32 113.812C114.673 116.743 112.965 119.91 111.154 123.265C110.182 125.06 109.053 127.146 107.94 129.191C107.932 129.207 107.916 129.231 107.909 129.254C107.289 130.391 105.306 133.009 99.9756 134.138V134.867C105.831 133.824 107.956 131.026 108.606 129.842C108.622 129.819 108.63 129.803 108.638 129.779C109.751 127.733 110.879 125.648 111.851 123.853C113.662 120.498 115.371 117.331 117.017 114.4C118.593 111.405 119.776 109.046 121.101 106.263C121.344 105.753 121.83 105.393 122.34 105.314C122.457 105.299 122.583 105.291 122.7 105.307C122.771 105.314 122.841 105.33 122.904 105.354C122.747 105.009 122.418 104.766 122.003 104.719ZM127.749 97.068V126.942C127.717 128.165 126.008 129.779 123.484 130.477V131.237C126.385 130.665 128.407 128.87 128.446 127.537V96.9347C128.211 96.9661 127.976 97.0131 127.749 97.068ZM142.564 97.9459L133.965 99.2707C133.918 99.5058 133.886 99.741 133.871 99.984L143.254 98.5338C143.458 98.5025 143.653 98.5181 143.826 98.573C143.614 98.1262 143.128 97.8597 142.564 97.9459ZM159.817 92.0276C159.472 93.8854 158.296 95.4924 156.987 95.7275L150.528 96.7231C149.76 96.8406 149.133 97.5618 149.133 98.33V123.547C149.133 124.214 148.639 124.982 147.777 125.672C146.938 126.346 145.833 126.863 144.657 127.161V127.906C146.091 127.655 147.471 127.059 148.474 126.26C149.337 125.57 149.83 124.802 149.83 124.135V98.9179C149.83 98.1497 150.458 97.4286 151.226 97.311L157.685 96.3155C159.159 96.0568 160.468 94.05 160.609 91.91L159.817 92.0276ZM77 162.647C77.1725 163.134 77.3685 163.682 77.5801 164.262L77.5958 164.309C77.7839 164.827 77.9799 165.368 78.168 165.901C78.2935 166.261 78.5757 166.504 78.9206 166.606C78.9049 166.567 78.8814 166.528 78.8657 166.488C78.6776 165.948 78.4816 165.407 78.2935 164.897L78.2778 164.85C78.0661 164.262 77.8702 163.721 77.6977 163.235L73.5902 152.488L73.1434 152.559L77 162.647ZM71.8891 159.998C71.8343 160.006 71.7716 160.021 71.7167 160.037C71.0425 160.225 70.533 160.86 70.4938 161.542C70.4468 162.404 70.4076 163.259 70.3606 164.082L69.9059 172.767C69.9059 172.783 69.9059 172.791 69.9059 172.807C69.8667 173.559 68.8712 174.531 67.4132 175.025L67.3583 175.817C69.2239 175.448 70.5644 174.272 70.6114 173.395C70.6114 173.379 70.6114 173.363 70.6114 173.355L71.0582 164.67C71.1053 163.847 71.1523 162.992 71.1915 162.13C71.2229 161.448 71.7402 160.813 72.4144 160.625C72.4692 160.609 72.5319 160.594 72.5868 160.586C72.7828 160.555 72.9787 160.57 73.159 160.625C72.9317 160.163 72.4379 159.912 71.8891 159.998ZM91.5254 149.721L90.8748 149.823L92.2701 169.53C92.2857 169.742 92.1838 169.977 91.9644 170.235C91.5724 170.714 90.7729 171.254 89.7538 171.584L89.793 172.352C91.1334 172.078 92.1838 171.411 92.662 170.831C92.8736 170.573 92.9756 170.33 92.9677 170.126L91.5254 149.721ZM87.2219 157.113C87.1592 157.113 87.0886 157.121 87.0259 157.129C86.4458 157.215 85.9128 157.67 85.709 158.266C85.4581 159.01 85.1681 159.865 84.8232 160.876L81.3506 170.518C80.9587 171.537 79.9553 172.791 78.3405 173.238L78.607 173.928C80.4727 173.598 81.6249 172.211 82.0482 171.106L85.5209 161.464C85.8736 160.453 86.1636 159.598 86.4066 158.853C86.6026 158.258 87.1356 157.811 87.7236 157.717C87.7863 157.709 87.8568 157.701 87.9195 157.701C88.0528 157.701 88.1782 157.725 88.2958 157.756C88.1076 157.364 87.7079 157.113 87.2219 157.113ZM105.4 160.265C105.573 160.743 105.753 161.244 105.925 161.754C106.051 162.122 106.333 162.373 106.678 162.475C106.654 162.436 106.639 162.389 106.623 162.342C106.45 161.832 106.27 161.331 106.098 160.852L101.136 148.232L100.979 148.255C100.885 148.271 100.791 148.287 100.697 148.31L105.4 160.265ZM117.088 145.778C117.064 145.778 117.041 145.786 117.017 145.794L111.177 161.966C109.28 167.257 107.956 170.431 106.615 172.893C105.322 175.252 103.323 176.702 100.524 177.322C100.085 177.659 99.6229 177.965 99.1447 178.247L99.3015 178.215C99.4191 178.2 99.5602 178.176 99.7248 178.16C99.9208 178.137 100.14 178.106 100.399 178.066C103.636 177.565 105.902 176.068 107.321 173.481C108.661 171.019 109.986 167.845 111.883 162.553L117.997 145.637L117.088 145.778ZM126.494 144.375V162.013C126.494 162.577 126.831 163.008 127.317 163.157C127.239 162.992 127.192 162.804 127.192 162.608V144.226C126.949 144.258 126.714 144.313 126.494 144.375ZM141.271 142.086V159.888C141.271 160.453 141.608 160.892 142.094 161.033C142.015 160.868 141.968 160.68 141.968 160.476V141.93C141.725 141.977 141.49 142.024 141.271 142.086ZM143.63 161.628L143.458 169.044C143.324 169.82 142.587 170.518 141.537 170.91L141.561 171.701C142.956 171.388 143.998 170.565 144.155 169.632L144.343 161.534L143.63 161.628ZM139.311 164.019L123.743 166.418V167.116L140.008 164.607C140.212 164.576 140.408 164.592 140.581 164.646C140.369 164.192 139.875 163.925 139.311 164.019ZM154.401 140.025C154.158 140.072 153.922 140.134 153.703 140.205V148.804C153.703 150.748 153.687 152.222 153.656 153.562C153.64 154.135 153.977 154.597 154.479 154.746C154.393 154.574 154.346 154.37 154.353 154.158C154.385 152.81 154.401 151.344 154.401 149.4V140.025ZM165.171 144.258C165.053 144.242 164.928 144.25 164.81 144.265C164.309 144.344 163.831 144.689 163.58 145.19C163.039 146.28 162.474 147.377 161.816 148.647C160.726 150.599 159.582 152.708 158.383 154.934L158.367 154.958C157.654 156.275 156.893 157.686 156.117 159.112C155.106 160.868 154.016 161.746 152.59 161.973L151.155 162.193V162.89L153.287 162.561C154.714 162.342 155.804 161.456 156.815 159.7C157.591 158.273 158.359 156.862 159.065 155.553L159.08 155.53C160.287 153.296 161.424 151.195 162.514 149.243C163.18 147.981 163.737 146.884 164.277 145.786C164.528 145.285 165.006 144.94 165.508 144.861C165.634 144.846 165.751 144.838 165.877 144.853C165.947 144.861 166.018 144.877 166.08 144.893C165.908 144.548 165.586 144.305 165.171 144.258ZM169.428 137.697V157.521C169.428 158.258 168.361 159.238 166.817 159.708V160.468C168.722 160.116 170.125 158.955 170.125 158.117V137.587L169.428 137.697ZM190.083 136.45L184.266 137.352C183.498 137.469 182.871 138.19 182.871 138.959V143.772C182.871 147.409 182.659 149.917 182.181 151.885C182.173 151.908 182.166 151.94 182.158 151.963C181.241 155.114 179.116 156.8 177.423 157.748C177.078 158.179 176.725 158.563 176.365 158.955C176.255 159.073 176.153 159.191 176.043 159.308C176.036 159.324 176.028 159.332 176.02 159.339L176.161 159.277C176.247 159.238 176.349 159.191 176.467 159.144C177.995 158.477 181.586 156.909 182.863 152.551C182.871 152.52 182.879 152.496 182.887 152.473C183.365 150.505 183.577 147.989 183.577 144.36V139.547C183.577 138.778 184.204 138.057 184.972 137.94L190.788 137.038C190.992 137.007 191.188 137.022 191.361 137.077C191.125 136.63 190.647 136.364 190.083 136.45ZM194.919 133.761V153.625C194.888 154.276 193.83 155.342 192.168 155.812V156.557C194.23 156.227 195.578 154.958 195.617 154.213V133.652L194.919 133.761Z" fill="#007D43"/>
    <path d="M116.429 192.702L116.39 196.417L120.098 195.806L120.137 192.09L122.559 191.69L122.457 201.426L120.035 201.826L120.074 197.726L116.367 198.338L116.327 202.437L113.905 202.837L114.007 193.101L116.429 192.702Z" fill="#067611"/>
    <path d="M134.223 194.52C134.184 198.094 131.684 200.109 129.238 200.509C126.534 200.955 124.448 199.427 124.48 196.291C124.511 193.093 126.604 190.788 129.505 190.31C132.358 189.84 134.255 191.564 134.223 194.52ZM126.98 195.821C126.965 197.702 127.874 198.964 129.332 198.721C130.712 198.494 131.692 196.973 131.715 194.998C131.731 193.477 131.08 191.831 129.418 192.105C127.709 192.388 126.996 194.198 126.98 195.821Z" fill="#067611"/>
    <path d="M136.23 192.647C136.246 191.369 136.214 190.335 136.183 189.425L138.315 189.073L138.417 190.554L138.456 190.546C139.177 189.331 140.306 188.524 141.764 188.281C143.975 187.912 145.785 189.527 145.754 192.569C145.715 196.088 143.512 198.15 141.325 198.51C140.126 198.706 139.122 198.354 138.636 197.656L138.597 197.664L138.542 202.704L136.12 203.104L136.23 192.647ZM138.629 194.669C138.629 194.912 138.644 195.124 138.683 195.336C138.926 196.292 139.773 196.872 140.816 196.7C142.352 196.441 143.277 194.999 143.293 193.078C143.308 191.361 142.493 190.099 140.941 190.358C139.938 190.523 138.997 191.416 138.73 192.537C138.691 192.741 138.644 192.968 138.644 193.172L138.629 194.669Z" fill="#067611"/>
    <path d="M147.973 187.473L151.031 186.964L152.347 190.977C152.536 191.565 152.865 192.608 153.069 193.391L153.108 193.384C153.312 192.655 153.743 191.306 154.064 190.272L155.365 186.242L158.423 185.733L158.956 195.359L156.69 195.735L156.557 191.526C156.526 190.593 156.463 189.268 156.455 188.108L156.392 188.116C156.063 189.292 155.898 189.833 155.373 191.455L153.79 196.088L152.034 196.378L150.678 192.333C150.411 191.463 150.074 190.099 149.847 189.237L149.768 189.253C149.737 190.46 149.682 191.784 149.612 192.733L149.369 196.942L147.182 197.303L147.973 187.473Z" fill="#067611"/>
    <path d="M115.505 191.996L115.465 195.712L119.173 195.1L119.212 191.385L121.635 190.985L121.533 200.721L119.11 201.12L119.15 197.021L115.442 197.632L115.403 201.732L112.98 202.132L113.082 192.396L115.505 191.996Z" fill="white"/>
    <path d="M133.299 193.815C133.259 197.39 130.759 199.404 128.313 199.804C125.609 200.251 123.524 198.722 123.555 195.587C123.586 192.388 125.679 190.084 128.58 189.606C131.441 189.135 133.33 190.86 133.299 193.815ZM126.063 195.116C126.048 196.998 126.957 198.26 128.415 198.017C129.795 197.789 130.775 196.269 130.798 194.293C130.814 192.772 130.163 191.126 128.501 191.401C126.785 191.683 126.079 193.494 126.063 195.116Z" fill="white"/>
    <path d="M135.306 191.949C135.322 190.672 135.29 189.637 135.259 188.728L137.391 188.375L137.493 189.856L137.532 189.848C138.253 188.633 139.382 187.826 140.84 187.583C143.051 187.215 144.862 188.829 144.83 191.871C144.791 195.39 142.588 197.452 140.401 197.813C139.202 198.009 138.199 197.656 137.713 196.958L137.673 196.966L137.618 202.006L135.196 202.406L135.306 191.949ZM137.705 193.964C137.705 194.207 137.72 194.418 137.76 194.63C138.003 195.586 138.849 196.167 139.892 195.994C141.428 195.735 142.353 194.293 142.369 192.373C142.384 190.656 141.569 189.394 140.017 189.652C139.014 189.817 138.073 190.711 137.807 191.832C137.767 192.035 137.72 192.263 137.72 192.467L137.705 193.964Z" fill="white"/>
    <path d="M147.056 186.768L150.114 186.258L151.43 190.272C151.619 190.859 151.948 191.902 152.152 192.686L152.191 192.678C152.395 191.949 152.826 190.601 153.147 189.566L154.448 185.537L157.506 185.027L158.039 194.653L155.773 195.03L155.64 190.82C155.609 189.887 155.546 188.563 155.538 187.403L155.475 187.41C155.146 188.586 154.981 189.127 154.456 190.75L152.873 195.382L151.117 195.672L149.761 191.628C149.494 190.758 149.157 189.394 148.93 188.531L148.851 188.547C148.82 189.754 148.765 191.079 148.695 192.027L148.452 196.237L146.265 196.597L147.056 186.768Z" fill="white"/>
    <path fill-rule="evenodd" clip-rule="evenodd" d="M63.5283 19.3979L126.945 130H127.782L127.999 129.878V2C104.487 2 82.4595 8.33835 63.5283 19.3979Z" fill="white"/>
    <path d="M85.2912 49.5391C83.2819 52.9592 78.9212 54.1563 75.4582 52.1897C72.0381 50.2231 70.841 45.8196 72.8076 42.3567C74.7742 38.9365 79.1777 37.7395 82.5979 39.7061C86.018 41.6727 87.2151 46.0761 85.2485 49.5391H85.2912Z" fill="#289B38"/>
    <path d="M79.0499 55.1827C77.4253 55.1827 75.8435 54.7552 74.4327 53.9429C70.0292 51.4205 68.5329 45.7773 71.0553 41.3738C73.4921 37.1413 79.3919 35.5595 83.6244 37.9964C88.0279 40.5615 89.5242 46.2048 87.0018 50.5655C85.3772 53.4299 82.2991 55.1827 79.0072 55.1827H79.0499ZM79.0499 40.818C77.2116 40.818 75.5015 41.8013 74.5609 43.3831C73.1501 45.82 74.0052 48.9837 76.442 50.4372C78.8361 51.8053 82.1281 50.9075 83.4961 48.5562C84.907 46.0765 84.0519 42.9556 81.615 41.502C80.8455 41.0318 79.9477 40.818 79.0499 40.818Z" fill="#289B38"/>
    <rect x="122" y="82" width="12" height="54" rx="6" fill="#289B38"/>
    <rect x="122" y="15" width="12" height="37" rx="6" fill="#289B38"/>
    <rect width="12" height="83" rx="6" transform="matrix(-0.863353 0.504601 0.504601 0.863353 94.3447 60.4634)" fill="#289B38"/>
    <defs>
        <linearGradient id="paint0_linear_0_1" x1="128.004" y1="-0.00180293" x2="128.004" y2="258.181" gradientUnits="userSpaceOnUse">
            <stop offset="0.1524" stop-color="#0B7425"/>
            <stop offset="1" stop-color="#52B121"/>
        </linearGradient>
        <radialGradient id="paint1_radial_0_1" cx="0" cy="0" r="1" gradientUnits="userSpaceOnUse" gradientTransform="translate(-520.863 2075.34) scale(174.36 174.36)">
            <stop offset="0.1524" stop-color="#FFF8A5"/>
            <stop offset="1" stop-color="#7DC242"/>
        </radialGradient>
        <radialGradient id="paint2_radial_0_1" cx="0" cy="0" r="1" gradientUnits="userSpaceOnUse" gradientTransform="translate(166.055 129.812) scale(106.473 106.473)">
            <stop offset="0.1524" stop-color="#FFF8A5"/>
            <stop offset="1" stop-color="#7DC242"/>
        </radialGradient>
        <linearGradient id="paint3_linear_0_1" x1="61.6893" y1="194.527" x2="210.925" y2="194.527" gradientUnits="userSpaceOnUse">
            <stop offset="0.0286" stop-color="#B0FE30"/>
            <stop offset="0.5" stop-color="#68DE13"/>
            <stop offset="1" stop-color="#AFFE30"/>
        </linearGradient>
    </defs>
</svg>
