<svg width="256" height="256" viewBox="0 0 256 256" fill="none" xmlns="http://www.w3.org/2000/svg">
<path d="M256 128C256 198.669 198.712 256 128 256C57.2879 256 0 198.669 0 128C0 57.3307 57.2879 0 128 0C198.712 0 256 57.2879 256 128Z" fill="white"/>
<path d="M126.933 51.7726C123.556 51.7726 120.862 49.0364 120.862 45.7018V18.6397C120.862 15.305 123.598 12.5688 126.933 12.5688C130.268 12.5688 133.004 15.305 133.004 18.6397V45.7018C133.004 49.0792 130.268 51.7726 126.933 51.7726Z" fill="#289B38"/>
<path d="M45.7032 133.002H18.6411C15.3065 133.002 12.5703 130.266 12.5703 126.931C12.5703 123.596 15.3065 120.86 18.6411 120.86H45.746C49.0807 120.86 51.8168 123.554 51.8168 126.931C51.8168 130.309 49.0807 133.002 45.746 133.002H45.7032Z" fill="#289B38"/>
<path d="M132.971 128.982C131.929 130.799 129.981 132.047 127.722 132.033C124.371 132.033 121.634 129.33 121.634 125.978L121.433 54.4013C121.433 51.05 124.137 48.3127 127.488 48.3127C130.839 48.3127 133.577 51.0161 133.577 54.3674L133.777 125.944C133.791 127.037 133.482 128.092 132.971 128.982Z" fill="#289B38"/>
<path d="M122.486 128.6C121.975 127.711 121.665 126.656 121.678 125.564L121.756 83.3111C121.754 79.9598 124.488 77.2541 127.84 77.2513C131.191 77.2485 133.897 79.9834 133.9 83.3348L133.822 125.587C133.824 128.939 131.089 131.645 127.738 131.647C125.479 131.663 123.53 130.417 122.486 128.6Z" fill="#289B38"/>
<path d="M126.933 243.431C123.556 243.431 120.862 240.695 120.862 237.36V210.298C120.862 206.92 123.598 204.227 126.933 204.227C130.268 204.227 133.004 206.92 133.004 210.298V237.36C133.004 240.737 130.268 243.431 126.933 243.431Z" fill="#289B38"/>
<path d="M237.361 133.002H210.299C206.922 133.002 204.229 130.266 204.229 126.931C204.229 123.596 206.965 120.86 210.299 120.86H237.361C240.696 120.86 243.432 123.554 243.432 126.931C243.432 130.309 240.696 133.002 237.361 133.002Z" fill="#289B38"/>
<path d="M85.2912 47.5391C83.2819 50.9592 78.9212 52.1563 75.4582 50.1897C72.0381 48.2231 70.841 43.8196 72.8076 40.3567C74.7742 36.9365 79.1777 35.7395 82.5979 37.7061C86.018 39.6727 87.2151 44.0761 85.2485 47.5391H85.2912Z" fill="#289B38"/>
<path d="M79.0499 53.1827C77.4253 53.1827 75.8435 52.7552 74.4327 51.9429C70.0292 49.4205 68.5329 43.7773 71.0553 39.3738C73.4921 35.1413 79.3919 33.5595 83.6244 35.9964C88.0279 38.5615 89.5242 44.2048 87.0018 48.5655C85.3772 51.4299 82.2991 53.1827 79.0072 53.1827H79.0499ZM79.0499 38.818C77.2116 38.818 75.5015 39.8013 74.5609 41.3831C73.1501 43.82 74.0052 46.9837 76.442 48.4372C78.8361 49.8053 82.1281 48.9075 83.4961 46.5562C84.907 44.0765 84.0519 40.9556 81.615 39.502C80.8455 39.0318 79.9477 38.818 79.0499 38.818Z" fill="#289B38"/>
<path d="M51.1763 79.0491C51.1763 83.025 47.9698 86.2314 43.9939 86.2314C40.0179 86.2314 36.8115 83.025 36.8115 79.0491C36.8115 75.0731 40.0179 71.8667 43.9939 71.8667C47.9698 71.8667 51.1763 75.0731 51.1763 79.0491Z" fill="#289B38"/>
<path d="M43.9944 88.2406C38.9069 88.2406 34.8027 84.0937 34.8027 79.0489C34.8027 73.9614 38.9069 69.8572 43.9944 69.8145C49.082 69.8145 53.2289 73.9614 53.2289 79.0062C53.2289 84.0937 49.082 88.1979 44.0372 88.2406H43.9944ZM43.9944 73.8759C41.1301 73.8759 38.8214 76.1845 38.8214 79.0489C38.8214 81.9133 41.1301 84.2219 43.9944 84.2219C46.8161 84.2219 49.1675 81.9133 49.1675 79.0489C49.1675 76.1845 46.8588 73.8759 43.9944 73.8759Z" fill="#289B38"/>
<path d="M47.5415 168.614C50.9617 170.58 52.1587 174.984 50.1921 178.404C48.1828 181.824 43.822 183.021 40.3591 181.055C36.8962 179.088 35.7419 174.685 37.7085 171.264C39.7178 167.844 44.0786 166.647 47.5415 168.614Z" fill="#289B38"/>
<path d="M43.9495 184.047C42.325 184.047 40.7431 183.619 39.3751 182.807C34.9716 180.242 33.4753 174.641 35.9976 170.238C38.4345 166.006 44.3343 164.381 48.6095 166.861C53.013 169.426 54.5093 175.026 51.987 179.43C50.3196 182.251 47.2842 184.047 43.9923 184.047H43.9495ZM43.9495 169.682C42.1112 169.682 40.4011 170.666 39.4606 172.29C38.0497 174.727 38.9048 177.891 41.3844 179.344C43.7358 180.712 47.0705 179.814 48.4385 177.42C49.8493 174.983 48.9943 171.82 46.5147 170.366C45.7451 169.896 44.8473 169.682 43.9495 169.682Z" fill="#289B38"/>
<path d="M79.0515 202.73C83.0275 202.73 86.2339 205.937 86.2339 209.913C86.2339 213.889 83.0275 217.095 79.0515 217.095C75.0756 217.095 71.8691 213.889 71.8691 209.913C71.8691 205.937 75.1183 202.73 79.0515 202.73Z" fill="#289B38"/>
<path d="M79.0489 219.146C73.9614 219.146 69.8145 214.999 69.8145 209.955C69.8145 204.91 73.9614 200.72 79.0062 200.72C84.0937 200.72 88.2406 204.867 88.2406 209.912C88.2406 214.957 84.0937 219.104 79.0489 219.146ZM79.0489 204.782C77.6809 204.782 76.3983 205.337 75.415 206.321C74.4317 207.304 73.9187 208.587 73.9187 209.955C73.9187 212.776 76.2273 215.085 79.0917 215.128C81.9561 215.128 84.2647 212.819 84.2647 209.955C84.2647 207.09 81.9561 204.824 79.0917 204.782H79.0489Z" fill="#289B38"/>
<path d="M168.616 206.322C170.625 202.902 174.986 201.705 178.449 203.671C181.869 205.638 183.066 210.041 181.1 213.504C179.133 216.925 174.729 218.122 171.309 216.155C167.846 214.188 166.692 209.785 168.659 206.322H168.616Z" fill="#289B38"/>
<path d="M174.857 219.148C173.276 219.148 171.651 218.721 170.283 217.908C168.145 216.668 166.606 214.702 166.008 212.308C165.366 209.914 165.708 207.434 166.906 205.339C169.342 201.107 175.242 199.525 179.475 201.962C183.878 204.484 185.374 210.127 182.852 214.531C181.227 217.395 178.149 219.148 174.857 219.148ZM174.857 204.783C173.019 204.783 171.309 205.767 170.368 207.391C169.684 208.588 169.471 209.956 169.855 211.282C170.197 212.607 171.052 213.719 172.25 214.403C174.601 215.771 177.936 214.873 179.304 212.521C180.714 210.042 179.859 206.878 177.423 205.467C176.653 204.997 175.755 204.783 174.857 204.783Z" fill="#289B38"/>
<path d="M202.734 174.857C202.734 170.881 205.941 167.675 209.917 167.675C213.893 167.675 217.099 170.881 217.099 174.857C217.099 178.833 213.893 182.04 209.917 182.04C205.941 182.04 202.734 178.79 202.734 174.857Z" fill="#289B38"/>
<path d="M209.915 184.048C204.828 184.048 200.681 179.901 200.681 174.856C200.681 169.812 204.828 165.665 209.872 165.665C214.917 165.665 219.064 169.769 219.064 174.856C219.064 179.944 214.96 184.048 209.872 184.091L209.915 184.048ZM209.915 169.683C207.051 169.683 204.742 171.992 204.742 174.856C204.742 177.721 207.051 180.029 209.915 180.029C212.78 180.029 215.088 177.721 215.088 174.856C215.088 171.992 212.78 169.683 209.915 169.683Z" fill="#289B38"/>
<path d="M206.323 85.2478C202.903 83.2384 201.706 78.8777 203.673 75.4148C205.639 71.9946 210.043 70.7976 213.463 72.7642C216.883 74.7308 218.08 79.1342 216.114 82.5544C214.147 85.9746 209.744 87.1716 206.281 85.205L206.323 85.2478Z" fill="#289B38"/>
<path d="M209.914 88.2408C208.333 88.2408 206.708 87.8133 205.34 87.001C200.936 84.4358 199.44 78.7925 201.962 74.4318C204.399 70.1994 210.256 68.5748 214.532 71.0544C218.935 73.5768 220.431 79.2201 217.909 83.6235C216.242 86.4879 213.206 88.2408 209.914 88.2408ZM209.914 73.8761C208.076 73.8761 206.366 74.8593 205.425 76.4839C204.015 78.9208 204.87 82.0845 207.307 83.538C209.701 84.9061 212.993 84.0083 214.361 81.6142C215.771 79.1773 214.916 76.0137 212.437 74.5601C211.667 74.0898 210.769 73.8761 209.872 73.8761H209.914Z" fill="#289B38"/>
<path d="M174.854 51.1743C170.878 51.1743 167.672 47.9679 167.672 43.9919C167.672 40.016 170.878 36.8096 174.854 36.8096C178.83 36.8096 182.037 40.016 182.037 43.9919C182.037 47.9679 178.83 51.1743 174.854 51.1743Z" fill="#289B38"/>
<path d="M174.856 53.1835C169.768 53.1835 165.664 49.0365 165.664 43.9918C165.664 38.947 169.768 34.7573 174.856 34.7573C179.943 34.7573 184.048 38.9043 184.09 43.949C184.09 49.0365 179.943 53.1835 174.899 53.1835H174.856ZM174.856 38.8188C171.991 38.8188 169.683 41.1274 169.683 43.9918C169.683 46.8562 171.991 49.1648 174.856 49.1648C177.72 49.1648 180.029 46.8562 180.029 43.9918C180.029 41.1701 177.72 38.8615 174.856 38.8615V38.8188Z" fill="#289B38"/>
</svg>
