<svg width="264" height="259" viewBox="0 0 264 259" fill="none" xmlns="http://www.w3.org/2000/svg">
    <path d="M136 258.179C206.692 258.179 264 200.384 264 129.09C264 57.7954 206.692 0 136 0C65.3075 0 8 57.7954 8 129.09C8 200.384 65.3075 258.179 136 258.179Z" fill="url(#paint0_linear_0_1)"/>
    <path opacity="0.45" d="M37.6774 138.724C37.6774 95.4768 62.111 57.9524 97.9108 39.1627C98.1225 39.0373 98.2479 38.7943 98.2479 38.5356C98.2479 38.1358 97.9265 37.8145 97.5267 37.8145C97.3935 37.8145 97.2681 37.838 97.1662 37.9007C55.5656 54.37 26.1465 94.9516 26.1465 142.416C26.1465 204.475 76.456 254.785 138.524 254.785C141.604 254.785 144.654 254.644 147.679 254.401C148.205 253.28 148.761 252.175 149.341 251.085C87.6028 250.701 37.6774 200.548 37.6774 138.724Z" fill="url(#paint1_radial_0_1)"/>
    <path opacity="0.45" d="M262.825 133.048C262.825 64.09 206.926 8.19141 137.96 8.19141C119.131 8.19141 101.282 12.3695 85.2754 19.8321C97.7626 15.6383 111.136 13.365 125.042 13.365C194 13.365 249.906 69.2636 249.906 138.222C249.906 166.481 240.515 192.537 224.689 213.459C227.221 213.851 229.706 214.376 232.143 215.026C251.254 193.086 262.825 164.419 262.825 133.048Z" fill="url(#paint2_radial_0_1)"/>
    <path d="M217.539 189.056C217.218 192.231 214.56 195.202 211.605 195.688L74.4807 218.13C71.5254 218.616 69.3933 216.445 69.7147 213.27L71.0708 199.999C71.3922 196.824 74.0495 193.853 77.0048 193.367L214.129 170.925C217.084 170.439 219.217 172.61 218.895 175.785L217.539 189.056Z" fill="url(#paint3_linear_0_1)"/>
    <path d="M211.386 106.718C210.9 106.796 210.508 106.459 210.508 105.973V105.965C210.508 104.515 211.684 103.159 213.134 102.932L217.524 102.257C218.01 102.179 218.402 102.516 218.402 103.002V103.01C218.402 104.46 217.226 105.816 215.776 106.044L211.386 106.718ZM200.592 119.981C204.362 115.944 206.353 110.574 206.353 104.468C206.353 99.0514 204.684 94.6538 201.517 91.7535C198.334 88.8374 193.944 87.7086 188.826 88.5004C183.809 89.2764 179.27 91.7848 176.033 95.5788C172.607 99.5923 170.796 104.758 170.796 110.527C170.796 121.517 177.977 128.086 188.253 126.503C192.965 125.774 197.347 123.454 200.592 119.981ZM198.17 105.942C198.17 113.224 194.117 119.134 188.536 119.997C182.954 120.859 178.902 116.258 178.902 109.062C178.902 102.806 181.928 96.0256 188.677 94.9831C196.186 93.8229 198.17 101.646 198.17 105.942ZM105.013 113.867C105.013 126.864 97.4173 136.333 84.6401 139.343V139.649C84.5617 141.992 81.5124 144.36 77.7497 144.971C77.2794 145.034 76.8953 144.705 76.8953 144.234V140.534C70.1853 140.958 56.5928 139.602 56.5928 121.635C56.5928 106.146 67.0027 98.1186 77.0364 95.6572V95.6494C77.0364 93.2742 80.0779 90.8598 83.8405 90.2562C84.3187 90.1857 84.7106 90.5149 84.7106 90.9931V94.4578C94.6816 93.6348 105.013 98.2989 105.013 113.867ZM76.9658 101.92C70.9064 103.582 64.7687 109.124 64.7687 120.075C64.7687 129.027 69.3073 134.279 76.9658 134.287V101.92ZM96.8372 115.058C96.8372 101.975 88.9279 100.541 84.6401 100.729V133.119C88.9436 131.849 96.8372 127.781 96.8372 115.058ZM139.676 129.16V98.0167C139.676 97.5385 139.284 97.2014 138.806 97.2798L138.618 97.3112C132.974 98.2126 129.666 100.815 128.318 103.277L119.899 118.515C118.261 121.627 117.163 123.885 115.925 126.526C116.05 123.43 116.097 120.483 116.097 116.25V101.67C116.097 101.191 115.705 100.854 115.227 100.933L115.164 100.941C111.496 101.505 108.454 103.919 108.423 106.318V137.446C108.423 137.932 108.815 138.261 109.293 138.183C115.015 137.297 118.276 134.687 119.64 132.21C120.738 130.203 121.827 128.188 122.893 126.213C124.712 122.85 126.429 119.675 128.059 116.759C129.604 113.82 130.819 111.405 132.182 108.544C132.01 112.205 131.932 114.87 131.932 119.158V133.809C131.932 134.287 132.324 134.624 132.802 134.546L132.982 134.514C136.619 133.934 139.637 131.535 139.676 129.16ZM170.985 92.2551L146.669 96.0099C144.293 96.3862 142.349 99.2866 142.31 102.312V102.555C142.31 103.034 142.702 103.371 143.18 103.292L153.104 101.764V130.485C153.104 130.963 153.496 131.292 153.974 131.222L154.319 131.167C158.004 130.595 161.053 128.165 161.061 125.758V100.533L167.536 99.5374C169.911 99.1298 171.847 96.1981 171.855 93.1644V92.992C171.855 92.506 171.463 92.1767 170.985 92.2551ZM99.3535 175.613C101.98 175.205 104.315 173.434 104.198 171.639L102.724 150.913C102.685 150.372 102.23 150.019 101.682 150.098L97.7779 150.701C96.0455 150.991 95.2146 152.645 94.5561 154.456L94.2034 155.452C94.1956 155.467 94.1877 155.483 94.1877 155.507L91.789 162.373C91.2247 164.043 90.574 165.987 90.0253 167.672C89.8293 167.116 89.6255 166.559 89.4296 166.018C89.2179 165.43 89.0219 164.882 88.8495 164.396L84.6557 153.414C84.5068 153.022 84.1149 152.802 83.668 152.873L80.3993 153.374C78.659 153.641 77.4127 155.812 77.2324 158.117H77.2245L75.7508 178.122C75.7273 178.412 75.8292 178.686 76.0252 178.866C76.2212 179.047 76.5034 179.125 76.7934 179.086L76.958 179.062C79.6154 178.639 81.7162 176.859 81.8181 175.072L82.2727 166.34C82.3198 165.517 82.3668 164.662 82.406 163.792C82.649 164.537 82.8842 165.242 83.1037 165.885L87.2033 176.64C87.3523 177.032 87.7442 177.251 88.191 177.181L88.3321 177.157V177.15C90.9581 176.742 92.5886 174.774 93.1765 173.23L96.657 163.557C96.994 162.569 97.2919 161.707 97.5584 160.923C97.5898 161.448 97.6211 161.966 97.6525 162.467L97.7309 163.839L98.2561 174.767C98.2796 175.323 98.7421 175.692 99.2986 175.597L99.3535 175.613ZM118.347 175.84C119.907 172.971 121.334 169.358 123.011 164.67L129.306 147.26C129.431 146.923 129.384 146.562 129.188 146.312C128.992 146.061 128.671 145.935 128.326 145.99L126.923 146.21C124.265 146.625 122.611 148.459 122.055 150.2H122.047L118.331 161.77C118.143 162.358 117.963 162.953 117.79 163.533C117.618 163.016 117.43 162.499 117.25 162.005L112.201 149.157C112.052 148.773 111.66 148.561 111.221 148.624L110.822 148.687C108.627 149.032 105.836 151.007 106.369 152.536L114.192 170.824C114.365 171.263 114.404 171.443 114.412 171.506C114.381 171.639 114.247 171.96 114.169 172.14C113.071 174.782 111.425 176.46 110.924 176.938C110.006 177.855 109.066 178.49 108.384 178.89C107.906 179.188 107.576 179.713 107.576 180.277C107.576 181.045 108.204 181.571 108.972 181.453L109.129 181.43C110.5 181.226 115.525 180.983 118.347 175.84ZM151.152 174.963C153.614 174.539 155.182 172.987 155.385 171.357L155.581 162.82C155.589 162.538 155.487 162.287 155.291 162.115C155.095 161.942 154.837 161.872 154.554 161.903L153.198 162.083V143.192C153.198 142.612 152.728 142.22 152.156 142.306L151.842 142.353C149.201 142.761 147.006 144.548 146.959 146.288V162.883L138.422 164.2V145.473C138.422 144.893 137.952 144.501 137.38 144.587L137.066 144.634C134.424 145.042 132.237 146.829 132.182 148.569V169.491C132.182 170.071 132.653 170.463 133.225 170.377L149.835 167.813L150 174.108C150.016 174.672 150.478 175.057 151.043 174.963H151.152ZM176.472 163.714C179.145 163.298 181.355 161.527 181.355 159.716V138.849C181.355 138.269 180.885 137.877 180.313 137.963L177.742 138.363C175.084 138.771 173.744 140.738 172.866 142.337L167.3 152.41C166.626 153.688 166.093 154.754 165.584 155.789C165.615 154.386 165.631 152.881 165.631 150.991V141.271C165.631 140.691 165.16 140.299 164.588 140.385L164.424 140.409C161.774 140.832 159.587 142.643 159.587 144.391V165.266C159.587 165.846 160.057 166.238 160.63 166.152L163.114 165.768C165.615 165.383 167.01 163.486 167.833 162.06C168.594 160.664 169.354 159.261 170.099 157.882C171.314 155.64 172.458 153.523 173.548 151.571C174.206 150.317 174.779 149.204 175.343 148.06C175.288 149.596 175.265 151.07 175.265 153.076V162.844C175.265 163.424 175.735 163.816 176.307 163.729L176.472 163.714ZM205.805 134.028L193.631 135.909C190.966 136.325 188.747 138.144 188.747 139.899V146.9C188.747 149.353 188.685 151.242 188.442 152.724C187.681 157.568 186.427 158.603 184.914 160.273C184.53 160.696 184.342 161.268 184.499 161.785C184.718 162.491 185.494 162.789 186.231 162.452L186.388 162.381C187.697 161.785 192.424 160.045 194.023 154.582H194.031C194.626 152.206 194.799 149.337 194.799 145.967V141.154L200.615 140.252V158.932C200.615 159.512 201.086 159.904 201.658 159.818L201.987 159.771C204.613 159.355 206.8 157.576 206.847 155.844V134.906C206.855 134.342 206.385 133.942 205.805 134.028Z" fill="#0C7315"/>
    <path d="M209.206 104.601C208.72 104.679 208.328 104.342 208.328 103.856V103.849C208.328 102.398 209.504 101.042 210.954 100.815L215.344 100.141C215.83 100.062 216.222 100.399 216.222 100.885V100.893C216.222 102.343 215.046 103.7 213.596 103.927L209.206 104.601ZM198.412 117.864C202.183 113.827 204.174 108.458 204.174 102.351C204.174 96.9347 202.504 92.5371 199.337 89.6368C196.155 86.7207 191.765 85.5919 186.646 86.3837C181.629 87.1597 177.091 89.6681 173.853 93.4621C170.428 97.4756 168.617 102.641 168.617 108.411C168.617 119.401 175.797 125.97 186.074 124.386C190.785 123.657 195.167 121.345 198.412 117.864ZM195.99 103.825C195.99 111.107 191.937 117.018 186.356 117.88C180.775 118.742 176.722 114.141 176.722 106.945C176.722 100.69 179.748 93.9089 186.497 92.8664C194.007 91.7062 195.99 99.5294 195.99 103.825ZM102.833 111.758C102.833 124.755 95.2376 134.224 82.4604 137.234V137.54C82.382 139.884 79.3327 142.251 75.5701 142.862C75.0997 142.925 74.7156 142.596 74.7156 142.125V138.426C68.0056 138.849 54.4131 137.493 54.4131 119.526C54.4131 104.037 64.823 96.0097 74.8567 93.5483V93.5405C74.8567 91.1653 77.8982 88.751 81.6608 88.1474C82.139 88.0768 82.5309 88.4061 82.5309 88.8842V92.349C92.5019 91.5259 102.833 96.1822 102.833 111.758ZM74.7862 99.8116C68.7268 101.473 62.589 107.015 62.589 117.966C62.589 126.918 67.1276 132.17 74.7862 132.178V99.8116ZM94.6576 112.942C94.6576 99.8586 86.7482 98.4241 82.4604 98.6122V131.002C86.7639 129.74 94.6576 125.664 94.6576 112.942ZM137.497 127.044V95.9C137.497 95.4218 137.105 95.0848 136.627 95.1631L136.438 95.1945C130.795 96.0959 127.487 98.6984 126.138 101.16L117.719 116.398C116.081 119.51 114.984 121.768 113.745 124.41C113.87 121.313 113.918 118.366 113.918 114.133V99.5529C113.918 99.0747 113.526 98.7376 113.047 98.816L112.985 98.8239C109.316 99.3883 106.275 101.803 106.243 104.201V135.329C106.243 135.815 106.635 136.144 107.113 136.066C112.836 135.18 116.097 132.57 117.461 130.093C118.558 128.086 119.648 126.072 120.714 124.096C122.532 120.733 124.249 117.559 125.88 114.643C127.424 111.703 128.639 109.289 130.003 106.428C129.83 110.088 129.752 112.753 129.752 117.041V131.692C129.752 132.17 130.144 132.507 130.622 132.429L130.802 132.398C134.44 131.817 137.457 129.427 137.497 127.044ZM168.797 90.1385L144.481 93.8932C142.106 94.2695 140.162 97.1699 140.123 100.196V100.439C140.123 100.917 140.515 101.254 140.993 101.176L150.917 99.6469V128.368C150.917 128.847 151.309 129.176 151.787 129.105L152.132 129.05C155.816 128.478 158.865 126.048 158.873 123.642V98.4162L165.348 97.4207C167.723 97.0131 169.659 94.0814 169.667 91.0478V90.8753C169.675 90.3971 169.283 90.0601 168.797 90.1385ZM97.1738 173.504C99.7998 173.097 102.136 171.325 102.018 169.53L100.545 148.804C100.505 148.263 100.051 147.911 99.5019 147.989L95.5982 148.593C93.8658 148.883 93.0349 150.537 92.3765 152.347L92.0237 153.343C92.0159 153.359 92.008 153.374 92.008 153.398L89.6094 160.265C89.045 161.934 88.3943 163.878 87.8456 165.564C87.6497 165.007 87.4459 164.45 87.2499 163.91C87.0382 163.322 86.8423 162.773 86.6698 162.287L82.476 151.305C82.3271 150.913 81.9352 150.693 81.4884 150.764L78.2196 151.266C76.4793 151.532 75.233 153.703 75.0527 156.008H75.0449L73.5947 176.021C73.5711 176.311 73.6731 176.585 73.869 176.765C74.065 176.945 74.3472 177.024 74.6372 176.985L74.8018 176.961C77.4592 176.538 79.56 174.758 79.6619 172.971L80.1166 164.239C80.1636 163.416 80.2106 162.561 80.2498 161.691C80.4928 162.436 80.728 163.141 80.9475 163.784L85.0472 174.539C85.1961 174.931 85.588 175.15 86.0349 175.08L86.176 175.056V175.049C88.802 174.641 90.4324 172.673 91.0204 171.129L94.5008 161.456C94.8379 160.468 95.1357 159.606 95.4023 158.822C95.4336 159.347 95.465 159.865 95.4963 160.366L95.5747 161.738L96.0999 172.665C96.1234 173.222 96.5859 173.59 97.1425 173.496L97.1738 173.504ZM116.167 173.724C117.727 170.855 119.154 167.241 120.831 162.553L127.126 145.143C127.251 144.806 127.204 144.446 127.008 144.195C126.812 143.944 126.491 143.819 126.146 143.874L124.743 144.093C122.086 144.508 120.432 146.343 119.875 148.083H119.867L116.152 159.653C115.963 160.241 115.783 160.837 115.611 161.417C115.438 160.899 115.25 160.382 115.07 159.888L110.022 147.04C109.873 146.656 109.481 146.445 109.042 146.507L108.642 146.57C106.447 146.915 103.657 148.89 104.19 150.419L112.013 168.707C112.185 169.146 112.224 169.326 112.232 169.389C112.201 169.522 112.068 169.844 111.989 170.024C110.892 172.665 109.246 174.343 108.744 174.821C107.827 175.738 106.886 176.373 106.204 176.773C105.726 177.071 105.397 177.596 105.397 178.16C105.397 178.929 106.024 179.454 106.792 179.336L106.949 179.313C108.321 179.109 113.345 178.866 116.167 173.724ZM148.973 172.846C151.434 172.423 153.002 170.87 153.206 169.24L153.402 160.703C153.409 160.421 153.308 160.17 153.112 159.998C152.916 159.826 152.657 159.747 152.375 159.786L151.019 159.967V141.075C151.019 140.495 150.548 140.103 149.976 140.189L149.663 140.236C147.021 140.644 144.826 142.431 144.779 144.171V160.766L136.242 162.083V143.356C136.242 142.776 135.772 142.384 135.2 142.47L134.886 142.517C132.245 142.925 130.058 144.712 130.003 146.452V167.374C130.003 167.954 130.473 168.346 131.045 168.26L147.656 165.697L147.82 171.991C147.836 172.556 148.299 172.94 148.863 172.846H148.973ZM174.292 161.597C176.965 161.182 179.176 159.41 179.176 157.599V136.732C179.176 136.152 178.705 135.76 178.133 135.847L175.562 136.246C172.905 136.654 171.564 138.622 170.686 140.221L165.121 150.294C164.447 151.571 163.913 152.637 163.404 153.672C163.435 152.269 163.451 150.764 163.451 148.875V139.155C163.451 138.574 162.981 138.183 162.408 138.269L162.244 138.292C159.594 138.716 157.407 140.526 157.407 142.274V163.149C157.407 163.729 157.878 164.121 158.45 164.035L160.935 163.651C163.435 163.267 164.831 161.37 165.654 159.943C166.414 158.548 167.174 157.145 167.919 155.765C169.134 153.523 170.279 151.407 171.368 149.455C172.027 148.201 172.599 147.087 173.163 145.943C173.108 147.479 173.085 148.953 173.085 150.96V160.727C173.085 161.307 173.555 161.699 174.127 161.613L174.292 161.597ZM203.625 131.919L191.451 133.801C188.786 134.216 186.568 136.035 186.568 137.791V144.791C186.568 147.244 186.505 149.133 186.262 150.615C185.502 155.459 184.247 156.494 182.734 158.164C182.35 158.587 182.162 159.159 182.319 159.677C182.539 160.382 183.315 160.68 184.051 160.343L184.208 160.272C185.517 159.677 190.244 157.936 191.843 152.473H191.851C192.447 150.098 192.619 147.229 192.619 143.858V139.045L198.436 138.143V156.823C198.436 157.403 198.906 157.795 199.478 157.709L199.807 157.662C202.433 157.247 204.62 155.467 204.667 153.735V132.805C204.675 132.225 204.205 131.825 203.625 131.919Z" fill="white"/>
    <path d="M210.805 102.924L214.576 102.344C214.38 102.798 213.956 103.167 213.455 103.245L209.684 103.825C209.88 103.363 210.304 103.002 210.805 102.924ZM179.317 117.41C177.043 115.285 175.672 111.797 175.672 107.454C175.672 103.856 176.597 100.368 178.266 97.6402C180.281 94.3558 183.252 92.3176 186.842 91.7689C189.397 91.377 191.6 91.8708 193.364 93.1956C191.498 91.4319 189.045 90.7342 186.144 91.181C182.554 91.7376 179.583 93.7678 177.569 97.0523C175.891 99.7802 174.974 103.268 174.974 106.866C174.974 111.632 176.62 115.379 179.317 117.41ZM198.655 91.0321C198.436 90.8283 198.208 90.6402 197.973 90.4599C200.881 93.1329 202.418 97.2169 202.418 102.265C202.418 107.972 200.583 112.957 197.111 116.681C194.124 119.879 190.079 122.019 185.713 122.693C181.417 123.359 177.678 122.521 174.833 120.279C174.841 120.287 174.841 120.287 174.849 120.294C177.765 122.967 181.762 123.994 186.411 123.281C190.777 122.607 194.822 120.475 197.808 117.269C201.281 113.545 203.115 108.56 203.115 102.853C203.115 97.797 201.571 93.7051 198.655 91.0321ZM65.9596 130.689C63.1062 128.055 61.5385 123.869 61.5385 118.468C61.5385 113.067 62.9416 108.513 65.7087 104.93C68.6718 101.097 72.3796 99.4431 74.9585 98.7376C75.0134 98.722 75.0683 98.7063 75.1231 98.6984C75.327 98.6671 75.5151 98.6828 75.7032 98.7376C75.6248 98.573 75.5073 98.4241 75.3505 98.3143C75.0918 98.1262 74.7626 98.0557 74.4255 98.1027C74.3706 98.1105 74.3158 98.1262 74.2609 98.1419C71.6819 98.8474 67.9741 100.501 65.0111 104.335C62.244 107.917 60.8408 112.471 60.8408 117.872C60.8408 123.704 62.6673 128.11 65.9596 130.689ZM81.5275 132.06C81.4491 131.896 81.402 131.708 81.402 131.512V99.1217C81.402 98.722 81.5745 98.3222 81.8645 98.0086C82.1232 97.7421 82.4524 97.5618 82.7973 97.5069C82.8522 97.4991 82.8993 97.4913 82.9541 97.4913C85.0314 97.3972 88.5197 97.6716 91.4279 99.9213C88.4021 97.1228 84.5062 96.8015 82.2565 96.9034C82.2016 96.9034 82.1546 96.9112 82.0997 96.919C81.7548 96.9739 81.4256 97.1463 81.1669 97.4207C80.869 97.7264 80.7044 98.134 80.7044 98.5338V130.924C80.7044 131.331 80.8768 131.684 81.1825 131.904C81.2923 131.974 81.4099 132.029 81.5275 132.06ZM95.849 97.3894C99.3216 100.533 101.085 105.33 101.085 111.672C101.085 117.692 99.3451 123.046 96.0528 127.161C92.7683 131.261 87.9082 134.169 81.9899 135.564C81.2688 135.737 80.7122 136.427 80.7122 137.156V137.43C80.6573 138.606 78.9563 140.15 76.4479 140.887V141.655C79.3326 141.028 81.3472 139.303 81.402 138.018V137.744C81.402 137.015 81.9586 136.325 82.6876 136.152C88.5981 134.757 93.466 131.857 96.7426 127.749C100.035 123.642 101.775 118.28 101.775 112.26C101.775 105.51 99.7841 100.509 95.849 97.3894ZM80.7828 90.0914V92.2471C80.7828 92.8115 81.1198 93.2426 81.6058 93.3916C81.5275 93.227 81.4804 93.0467 81.4804 92.835V89.9111C81.2374 89.966 81.0101 90.0287 80.7828 90.0914ZM74.4804 136.709C70.561 136.96 65.1679 136.544 61.1309 133.362C65.2306 137.085 71.0313 137.563 75.178 137.297C75.3348 137.289 75.4837 137.305 75.6248 137.352C75.421 136.936 74.9977 136.678 74.4804 136.709ZM112.162 114.031C112.162 118.382 112.115 121.251 111.989 124.253C111.966 124.833 112.303 125.303 112.812 125.46C112.726 125.28 112.679 125.076 112.687 124.849C112.812 121.846 112.859 118.985 112.859 114.627V100.58C112.616 100.627 112.389 100.689 112.162 100.752V114.031ZM130.003 104.719C129.885 104.703 129.76 104.711 129.642 104.726C129.133 104.805 128.647 105.165 128.404 105.675C127.071 108.458 125.887 110.817 124.32 113.812C122.673 116.743 120.965 119.91 119.154 123.265C118.182 125.06 117.053 127.146 115.94 129.191C115.932 129.207 115.916 129.231 115.909 129.254C115.289 130.391 113.306 133.009 107.976 134.138V134.867C113.831 133.824 115.956 131.026 116.606 129.842C116.622 129.819 116.63 129.803 116.638 129.779C117.751 127.733 118.879 125.648 119.851 123.853C121.662 120.498 123.371 117.331 125.017 114.4C126.593 111.405 127.776 109.046 129.101 106.263C129.344 105.753 129.83 105.393 130.34 105.314C130.457 105.299 130.583 105.291 130.7 105.307C130.771 105.314 130.841 105.33 130.904 105.354C130.747 105.009 130.418 104.766 130.003 104.719ZM135.749 97.068V126.942C135.717 128.165 134.008 129.779 131.484 130.477V131.237C134.385 130.665 136.407 128.87 136.446 127.537V96.9347C136.211 96.9661 135.976 97.0131 135.749 97.068ZM150.564 97.9459L141.965 99.2707C141.918 99.5058 141.886 99.741 141.871 99.984L151.254 98.5338C151.458 98.5025 151.653 98.5181 151.826 98.573C151.614 98.1262 151.128 97.8597 150.564 97.9459ZM167.817 92.0276C167.472 93.8854 166.296 95.4924 164.987 95.7275L158.528 96.7231C157.76 96.8406 157.133 97.5618 157.133 98.33V123.547C157.133 124.214 156.639 124.982 155.777 125.672C154.938 126.346 153.833 126.863 152.657 127.161V127.906C154.091 127.655 155.471 127.059 156.474 126.26C157.337 125.57 157.83 124.802 157.83 124.135V98.9179C157.83 98.1497 158.458 97.4286 159.226 97.311L165.685 96.3155C167.159 96.0568 168.468 94.05 168.609 91.91L167.817 92.0276ZM85 162.647C85.1725 163.134 85.3685 163.682 85.5801 164.262L85.5958 164.309C85.7839 164.827 85.9799 165.368 86.168 165.901C86.2935 166.261 86.5757 166.504 86.9206 166.606C86.9049 166.567 86.8814 166.528 86.8657 166.488C86.6776 165.948 86.4816 165.407 86.2935 164.897L86.2778 164.85C86.0661 164.262 85.8702 163.721 85.6977 163.235L81.5902 152.488L81.1434 152.559L85 162.647ZM79.8891 159.998C79.8343 160.006 79.7716 160.021 79.7167 160.037C79.0425 160.225 78.533 160.86 78.4938 161.542C78.4468 162.404 78.4076 163.259 78.3606 164.082L77.9059 172.767C77.9059 172.783 77.9059 172.791 77.9059 172.807C77.8667 173.559 76.8712 174.531 75.4132 175.025L75.3583 175.817C77.2239 175.448 78.5644 174.272 78.6114 173.395C78.6114 173.379 78.6114 173.363 78.6114 173.355L79.0582 164.67C79.1053 163.847 79.1523 162.992 79.1915 162.13C79.2229 161.448 79.7402 160.813 80.4144 160.625C80.4692 160.609 80.5319 160.594 80.5868 160.586C80.7828 160.555 80.9787 160.57 81.159 160.625C80.9317 160.163 80.4379 159.912 79.8891 159.998ZM99.5254 149.721L98.8748 149.823L100.27 169.53C100.286 169.742 100.184 169.977 99.9644 170.235C99.5724 170.714 98.7729 171.254 97.7538 171.584L97.793 172.352C99.1334 172.078 100.184 171.411 100.662 170.831C100.874 170.573 100.976 170.33 100.968 170.126L99.5254 149.721ZM95.2219 157.113C95.1592 157.113 95.0886 157.121 95.0259 157.129C94.4458 157.215 93.9128 157.67 93.709 158.266C93.4581 159.01 93.1681 159.865 92.8232 160.876L89.3506 170.518C88.9587 171.537 87.9553 172.791 86.3405 173.238L86.607 173.928C88.4727 173.598 89.6249 172.211 90.0482 171.106L93.5209 161.464C93.8736 160.453 94.1636 159.598 94.4066 158.853C94.6026 158.258 95.1356 157.811 95.7236 157.717C95.7863 157.709 95.8568 157.701 95.9195 157.701C96.0528 157.701 96.1782 157.725 96.2958 157.756C96.1076 157.364 95.7079 157.113 95.2219 157.113ZM113.4 160.265C113.573 160.743 113.753 161.244 113.925 161.754C114.051 162.122 114.333 162.373 114.678 162.475C114.654 162.436 114.639 162.389 114.623 162.342C114.45 161.832 114.27 161.331 114.098 160.852L109.136 148.232L108.979 148.255C108.885 148.271 108.791 148.287 108.697 148.31L113.4 160.265ZM125.088 145.778C125.064 145.778 125.041 145.786 125.017 145.794L119.177 161.966C117.28 167.257 115.956 170.431 114.615 172.893C113.322 175.252 111.323 176.702 108.524 177.322C108.085 177.659 107.623 177.965 107.145 178.247L107.301 178.215C107.419 178.2 107.56 178.176 107.725 178.16C107.921 178.137 108.14 178.106 108.399 178.066C111.636 177.565 113.902 176.068 115.321 173.481C116.661 171.019 117.986 167.845 119.883 162.553L125.997 145.637L125.088 145.778ZM134.494 144.375V162.013C134.494 162.577 134.831 163.008 135.317 163.157C135.239 162.992 135.192 162.804 135.192 162.608V144.226C134.949 144.258 134.714 144.313 134.494 144.375ZM149.271 142.086V159.888C149.271 160.453 149.608 160.892 150.094 161.033C150.015 160.868 149.968 160.68 149.968 160.476V141.93C149.725 141.977 149.49 142.024 149.271 142.086ZM151.63 161.628L151.458 169.044C151.324 169.82 150.587 170.518 149.537 170.91L149.561 171.701C150.956 171.388 151.998 170.565 152.155 169.632L152.343 161.534L151.63 161.628ZM147.311 164.019L131.743 166.418V167.116L148.008 164.607C148.212 164.576 148.408 164.592 148.581 164.646C148.369 164.192 147.875 163.925 147.311 164.019ZM162.401 140.025C162.158 140.072 161.922 140.134 161.703 140.205V148.804C161.703 150.748 161.687 152.222 161.656 153.562C161.64 154.135 161.977 154.597 162.479 154.746C162.393 154.574 162.346 154.37 162.353 154.158C162.385 152.81 162.401 151.344 162.401 149.4V140.025ZM173.171 144.258C173.053 144.242 172.928 144.25 172.81 144.265C172.309 144.344 171.831 144.689 171.58 145.19C171.039 146.28 170.474 147.377 169.816 148.647C168.726 150.599 167.582 152.708 166.383 154.934L166.367 154.958C165.654 156.275 164.893 157.686 164.117 159.112C163.106 160.868 162.016 161.746 160.59 161.973L159.155 162.193V162.89L161.287 162.561C162.714 162.342 163.804 161.456 164.815 159.7C165.591 158.273 166.359 156.862 167.065 155.553L167.08 155.53C168.287 153.296 169.424 151.195 170.514 149.243C171.18 147.981 171.737 146.884 172.277 145.786C172.528 145.285 173.006 144.94 173.508 144.861C173.634 144.846 173.751 144.838 173.877 144.853C173.947 144.861 174.018 144.877 174.08 144.893C173.908 144.548 173.586 144.305 173.171 144.258ZM177.428 137.697V157.521C177.428 158.258 176.361 159.238 174.817 159.708V160.468C176.722 160.116 178.125 158.955 178.125 158.117V137.587L177.428 137.697ZM198.083 136.45L192.266 137.352C191.498 137.469 190.871 138.19 190.871 138.959V143.772C190.871 147.409 190.659 149.917 190.181 151.885C190.173 151.908 190.166 151.94 190.158 151.963C189.241 155.114 187.116 156.8 185.423 157.748C185.078 158.179 184.725 158.563 184.365 158.955C184.255 159.073 184.153 159.191 184.043 159.308C184.036 159.324 184.028 159.332 184.02 159.339L184.161 159.277C184.247 159.238 184.349 159.191 184.467 159.144C185.995 158.477 189.586 156.909 190.863 152.551C190.871 152.52 190.879 152.496 190.887 152.473C191.365 150.505 191.577 147.989 191.577 144.36V139.547C191.577 138.778 192.204 138.057 192.972 137.94L198.788 137.038C198.992 137.007 199.188 137.022 199.361 137.077C199.125 136.63 198.647 136.364 198.083 136.45ZM202.919 133.761V153.625C202.888 154.276 201.83 155.342 200.168 155.812V156.557C202.23 156.227 203.578 154.958 203.617 154.213V133.652L202.919 133.761Z" fill="#007D43"/>
    <path d="M124.429 192.702L124.39 196.417L128.098 195.806L128.137 192.09L130.559 191.69L130.457 201.426L128.035 201.826L128.074 197.726L124.367 198.338L124.327 202.437L121.905 202.837L122.007 193.101L124.429 192.702Z" fill="#067611"/>
    <path d="M142.223 194.52C142.184 198.094 139.684 200.109 137.238 200.509C134.534 200.955 132.448 199.427 132.48 196.291C132.511 193.093 134.604 190.788 137.505 190.31C140.358 189.84 142.255 191.564 142.223 194.52ZM134.98 195.821C134.965 197.702 135.874 198.964 137.332 198.721C138.712 198.494 139.692 196.973 139.715 194.998C139.731 193.477 139.08 191.831 137.418 192.105C135.709 192.388 134.996 194.198 134.98 195.821Z" fill="#067611"/>
    <path d="M144.23 192.647C144.246 191.369 144.214 190.335 144.183 189.425L146.315 189.073L146.417 190.554L146.456 190.546C147.177 189.331 148.306 188.524 149.764 188.281C151.975 187.912 153.785 189.527 153.754 192.569C153.715 196.088 151.512 198.15 149.325 198.51C148.126 198.706 147.122 198.354 146.636 197.656L146.597 197.664L146.542 202.704L144.12 203.104L144.23 192.647ZM146.629 194.669C146.629 194.912 146.644 195.124 146.683 195.336C146.926 196.292 147.773 196.872 148.816 196.7C150.352 196.441 151.277 194.999 151.293 193.078C151.308 191.361 150.493 190.099 148.941 190.358C147.938 190.523 146.997 191.416 146.73 192.537C146.691 192.741 146.644 192.968 146.644 193.172L146.629 194.669Z" fill="#067611"/>
    <path d="M155.973 187.473L159.031 186.964L160.347 190.977C160.536 191.565 160.865 192.608 161.069 193.391L161.108 193.384C161.312 192.655 161.743 191.306 162.064 190.272L163.365 186.242L166.423 185.733L166.956 195.359L164.69 195.735L164.557 191.526C164.526 190.593 164.463 189.268 164.455 188.108L164.392 188.116C164.063 189.292 163.898 189.833 163.373 191.455L161.79 196.088L160.034 196.378L158.678 192.333C158.411 191.463 158.074 190.099 157.847 189.237L157.768 189.253C157.737 190.46 157.682 191.784 157.612 192.733L157.369 196.942L155.182 197.303L155.973 187.473Z" fill="#067611"/>
    <path d="M123.505 191.996L123.465 195.712L127.173 195.1L127.212 191.385L129.635 190.985L129.533 200.721L127.11 201.12L127.15 197.021L123.442 197.632L123.403 201.732L120.98 202.132L121.082 192.396L123.505 191.996Z" fill="white"/>
    <path d="M141.299 193.815C141.259 197.39 138.759 199.404 136.313 199.804C133.609 200.251 131.524 198.722 131.555 195.587C131.586 192.388 133.679 190.084 136.58 189.606C139.441 189.135 141.33 190.86 141.299 193.815ZM134.063 195.116C134.048 196.998 134.957 198.26 136.415 198.017C137.795 197.789 138.775 196.269 138.798 194.293C138.814 192.772 138.163 191.126 136.501 191.401C134.785 191.683 134.079 193.494 134.063 195.116Z" fill="white"/>
    <path d="M143.306 191.949C143.322 190.672 143.29 189.637 143.259 188.728L145.391 188.375L145.493 189.856L145.532 189.848C146.253 188.633 147.382 187.826 148.84 187.583C151.051 187.215 152.862 188.829 152.83 191.871C152.791 195.39 150.588 197.452 148.401 197.813C147.202 198.009 146.199 197.656 145.713 196.958L145.673 196.966L145.618 202.006L143.196 202.406L143.306 191.949ZM145.705 193.964C145.705 194.207 145.72 194.418 145.76 194.63C146.003 195.586 146.849 196.167 147.892 195.994C149.428 195.735 150.353 194.293 150.369 192.373C150.384 190.656 149.569 189.394 148.017 189.652C147.014 189.817 146.073 190.711 145.807 191.832C145.767 192.035 145.72 192.263 145.72 192.467L145.705 193.964Z" fill="white"/>
    <path d="M155.056 186.768L158.114 186.258L159.43 190.272C159.619 190.859 159.948 191.902 160.152 192.686L160.191 192.678C160.395 191.949 160.826 190.601 161.147 189.566L162.448 185.537L165.506 185.027L166.039 194.653L163.773 195.03L163.64 190.82C163.609 189.887 163.546 188.563 163.538 187.403L163.475 187.41C163.146 188.586 162.981 189.127 162.456 190.75L160.873 195.382L159.117 195.672L157.761 191.628C157.494 190.758 157.157 189.394 156.93 188.531L156.851 188.547C156.82 189.754 156.765 191.079 156.695 192.027L156.452 196.237L154.265 196.597L155.056 186.768Z" fill="white"/>
    <path fill-rule="evenodd" clip-rule="evenodd" d="M127 8.00391C56.7486 8.54137 0 65.6642 0 136H127V8.00391Z" fill="white"/>
    <path d="M126.933 59.7726C123.556 59.7726 120.862 57.0364 120.862 53.7018V26.6397C120.862 23.305 123.598 20.5688 126.933 20.5688C130.268 20.5688 133.004 23.305 133.004 26.6397V53.7018C133.004 57.0792 130.268 59.7726 126.933 59.7726Z" fill="#289B38"/>
    <path d="M45.7032 141.002H18.6411C15.3065 141.002 12.5703 138.266 12.5703 134.931C12.5703 131.596 15.3065 128.86 18.6411 128.86H45.746C49.0807 128.86 51.8168 131.554 51.8168 134.931C51.8168 138.309 49.0807 141.002 45.746 141.002H45.7032Z" fill="#289B38"/>
    <path d="M85.2912 55.5391C83.2819 58.9592 78.9212 60.1563 75.4582 58.1897C72.0381 56.2231 70.841 51.8196 72.8076 48.3567C74.7742 44.9365 79.1777 43.7395 82.5979 45.7061C86.018 47.6727 87.2151 52.0761 85.2485 55.5391H85.2912Z" fill="#289B38"/>
    <path d="M79.0499 61.1827C77.4253 61.1827 75.8435 60.7552 74.4327 59.9429C70.0292 57.4205 68.5329 51.7773 71.0553 47.3738C73.4921 43.1413 79.3919 41.5595 83.6244 43.9964C88.0279 46.5615 89.5242 52.2048 87.0018 56.5655C85.3772 59.4299 82.2991 61.1827 79.0072 61.1827H79.0499ZM79.0499 46.818C77.2116 46.818 75.5015 47.8013 74.5609 49.3831C73.1501 51.82 74.0052 54.9837 76.442 56.4372C78.8361 57.8053 82.1281 56.9075 83.4961 54.5562C84.907 52.0765 84.0519 48.9556 81.615 47.502C80.8455 47.0318 79.9477 46.818 79.0499 46.818Z" fill="#289B38"/>
    <path d="M51.1763 87.0491C51.1763 91.025 47.9698 94.2314 43.9939 94.2314C40.0179 94.2314 36.8115 91.025 36.8115 87.0491C36.8115 83.0731 40.0179 79.8667 43.9939 79.8667C47.9698 79.8667 51.1763 83.0731 51.1763 87.0491Z" fill="#289B38"/>
    <path d="M43.9944 96.2406C38.9069 96.2406 34.8027 92.0937 34.8027 87.0489C34.8027 81.9614 38.9069 77.8572 43.9944 77.8145C49.082 77.8145 53.2289 81.9614 53.2289 87.0062C53.2289 92.0937 49.082 96.1979 44.0372 96.2406H43.9944ZM43.9944 81.8759C41.1301 81.8759 38.8214 84.1845 38.8214 87.0489C38.8214 89.9133 41.1301 92.2219 43.9944 92.2219C46.8161 92.2219 49.1675 89.9133 49.1675 87.0489C49.1675 84.1845 46.8588 81.8759 43.9944 81.8759Z" fill="#289B38"/>
    <path d="M52.1975 139.173C50.4036 138.092 49.1982 136.117 49.2619 133.859C49.3353 130.508 52.0981 127.831 55.4486 127.904L127.013 129.273C130.363 129.347 133.041 132.11 132.967 135.46C132.894 138.811 130.131 141.488 126.78 141.415L55.2163 140.045C54.1239 140.036 53.0761 139.703 52.1975 139.173Z" fill="#289B38"/>
    <path d="M122.486 136.6C121.975 135.711 121.665 134.656 121.678 133.564L121.756 91.3111C121.754 87.9598 124.488 85.2541 127.84 85.2513C131.191 85.2485 133.897 87.9834 133.9 91.3348L133.822 133.587C133.824 136.939 131.089 139.645 127.738 139.647C125.479 139.663 123.53 138.417 122.486 136.6Z" fill="#289B38"/>
    <defs>
        <linearGradient id="paint0_linear_0_1" x1="136.004" y1="-0.00180293" x2="136.004" y2="258.181" gradientUnits="userSpaceOnUse">
            <stop offset="0.1524" stop-color="#0B7425"/>
            <stop offset="1" stop-color="#52B121"/>
        </linearGradient>
        <radialGradient id="paint1_radial_0_1" cx="0" cy="0" r="1" gradientUnits="userSpaceOnUse" gradientTransform="translate(-512.863 2075.34) scale(174.36 174.36)">
            <stop offset="0.1524" stop-color="#FFF8A5"/>
            <stop offset="1" stop-color="#7DC242"/>
        </radialGradient>
        <radialGradient id="paint2_radial_0_1" cx="0" cy="0" r="1" gradientUnits="userSpaceOnUse" gradientTransform="translate(174.055 129.812) scale(106.473 106.473)">
            <stop offset="0.1524" stop-color="#FFF8A5"/>
            <stop offset="1" stop-color="#7DC242"/>
        </radialGradient>
        <linearGradient id="paint3_linear_0_1" x1="69.6893" y1="194.527" x2="218.925" y2="194.527" gradientUnits="userSpaceOnUse">
            <stop offset="0.0286" stop-color="#B0FE30"/>
            <stop offset="0.5" stop-color="#68DE13"/>
            <stop offset="1" stop-color="#AFFE30"/>
        </linearGradient>
    </defs>
</svg>
