<svg width="83" height="101" viewBox="0 0 83 101" fill="none" xmlns="http://www.w3.org/2000/svg">
<path d="M75.1976 16.2535C67.6557 10.6896 57.5595 10.743 52.0347 16.9366C51.7181 17.2923 51.3232 17.8188 51.3232 17.8188C51.3232 17.8188 67.1861 11.3335 74.4078 16.4705C82.3055 22.0878 84.6356 32.2623 79.9006 39.5765C79.9291 39.6405 79.7441 39.8041 79.7725 39.8682C85.0341 32.6749 83.1913 22.1518 75.1976 16.2535V16.2535Z" fill="#0A7325"/>
<path d="M16.0118 100.766C16.8478 101.25 17.9186 100.962 18.4024 100.122L22.3121 93.3307L19.2776 91.584L15.3679 98.3752C14.8876 99.2113 15.1722 100.282 16.0118 100.766Z" fill="#0A7325"/>
<path d="M66.4419 100.766C65.6059 101.25 64.5351 100.962 64.0513 100.122L60.1416 93.3307L63.1761 91.584L67.0858 98.3752C67.5661 99.2113 67.2815 100.282 66.4419 100.766Z" fill="#0A7325"/>
<path d="M31.0524 17.6535C25.428 11.6058 15.5097 10.8907 7.96777 16.2945C-0.0259215 22.0221 -2.36675 32.4847 2.60307 39.8701C8.04959 28.6284 18.498 20.2611 31.0524 17.6571V17.6535Z" fill="#0A7325"/>
<path d="M51.3232 17.6535C56.9476 11.6058 66.8659 10.8907 74.4078 16.2945C82.4015 22.0221 84.7424 32.4847 79.7725 39.8701C74.326 28.6284 63.8776 20.2611 51.3232 17.6571V17.6535Z" fill="#0A7325"/>
<path d="M41.2267 19.291C19.0244 19.291 1.02344 37.2884 1.02344 59.4907C1.02344 81.6931 19.0208 99.6904 41.2231 99.6904C63.4255 99.6904 81.4228 81.6895 81.4228 59.4907C81.4228 37.2919 63.429 19.291 41.2267 19.291ZM65.9264 84.1904C52.287 97.8298 30.17 97.8298 16.5306 84.1904C2.89112 70.551 2.89112 48.434 16.5306 34.7946C30.17 21.1551 52.287 21.1551 65.9264 34.7946C79.5658 48.434 79.5658 70.551 65.9264 84.1904Z" fill="#0A7325"/>
<path d="M41.9184 29.2217C41.9184 28.9727 41.6089 28.7734 41.2282 28.7734C40.8476 28.7734 40.5381 28.9762 40.5381 29.2217V33.2274L41.2282 33.9069L41.9184 33.2274V29.2217Z" fill="#0A7325"/>
<path d="M41.2282 85.0801L40.5381 85.7596V89.7653C40.5381 90.0143 40.8476 90.2171 41.2282 90.2171C41.6089 90.2171 41.9184 90.0179 41.9184 89.7689V85.7631L41.2282 85.0836V85.0801Z" fill="#0A7325"/>
<path d="M15.6383 59.4909L14.9589 58.8008H10.9531C10.7041 58.8008 10.5049 59.1103 10.5049 59.4909C10.5049 59.8716 10.7041 60.1811 10.9531 60.1811H14.9589L15.6383 59.4909Z" fill="#0A7325"/>
<path d="M71.4977 58.8047H67.492L66.8125 59.4948L67.492 60.185H71.4977C71.7467 60.185 71.946 59.8755 71.946 59.4948C71.946 59.1142 71.7467 58.8047 71.4977 58.8047Z" fill="#0A7325"/>
<path d="M26.6882 32.932C26.5637 32.715 26.1973 32.6972 25.8664 32.8858C25.5356 33.0743 25.3719 33.4052 25.4929 33.6186L27.4958 37.0872L28.4314 37.3291L28.6875 36.397L26.6846 32.9285L26.6882 32.932Z" fill="#0A7325"/>
<path d="M54.9554 81.8943L54.0198 81.6523L53.7637 82.5844L55.7665 86.053C55.8911 86.27 56.2575 86.2878 56.5883 86.0992C56.9192 85.9071 57.0864 85.5798 56.9619 85.3664L54.959 81.8943H54.9554Z" fill="#0A7325"/>
<path d="M18.1357 72.0293L14.6671 74.0322C14.4537 74.1567 14.4323 74.5231 14.6209 74.8539C14.8094 75.1848 15.1403 75.3484 15.3537 75.2239L18.8223 73.2211L19.0642 72.2854L18.1321 72.0293H18.1357Z" fill="#0A7325"/>
<path d="M64.3188 46.9547L67.7873 44.9519C68.0008 44.8274 68.0221 44.4609 67.83 44.1301C67.6379 43.7992 67.3106 43.6356 67.0972 43.7566L63.6286 45.7594L63.3867 46.6951L64.3188 46.9512V46.9547Z" fill="#0A7325"/>
<path d="M18.8225 45.7629L15.354 43.76C15.1405 43.6355 14.8097 43.8027 14.6211 44.13C14.4326 44.4608 14.4504 44.8272 14.6674 44.9517L18.1359 46.9546L19.068 46.6985L18.8261 45.7629H18.8225Z" fill="#0A7325"/>
<path d="M67.7873 74.0322L64.3188 72.0293L63.3867 72.2854L63.6286 73.2211L67.0972 75.2239C67.3106 75.3484 67.6415 75.1812 67.83 74.8539C68.0221 74.5231 68.0008 74.1567 67.7873 74.0322Z" fill="#0A7325"/>
<path d="M28.4348 81.6523L27.4992 81.8943L25.4963 85.3628C25.3718 85.5798 25.539 85.9071 25.8698 86.0992C26.2007 86.2878 26.5671 86.27 26.6916 86.053L28.6945 82.5844L28.4383 81.6523H28.4348Z" fill="#0A7325"/>
<path d="M54.9561 37.0906L56.9589 33.622C57.0834 33.405 56.9162 33.0777 56.5854 32.8856C56.2545 32.6935 55.8881 32.7148 55.7636 32.9283L53.7607 36.3968L54.0169 37.3289L54.9525 37.087L54.9561 37.0906Z" fill="#0A7325"/>
<path d="M38.5042 33.5822L38.7212 33.3189L38.5753 31.9208C38.5647 31.8354 38.4508 31.775 38.3192 31.7892C38.1876 31.8034 38.088 31.8852 38.0951 31.9706L38.2409 33.3687L38.5078 33.5786L38.5042 33.5822Z" fill="#0A7325"/>
<path d="M43.9514 85.4043L43.7344 85.6675L43.8802 87.0656C43.8909 87.1546 44.0047 87.2115 44.1364 87.1973C44.268 87.183 44.3712 87.1012 44.3605 87.0158L44.2146 85.6177L43.9478 85.4043H43.9514Z" fill="#0A7325"/>
<path d="M15.3195 62.2151L15.0562 61.998L13.6581 62.1439C13.5727 62.1546 13.5123 62.2684 13.5265 62.4C13.5407 62.5317 13.6225 62.6348 13.7079 62.6242L15.106 62.4783L15.3195 62.2115V62.2151Z" fill="#0A7325"/>
<path d="M67.1377 56.7692L67.401 56.9863L68.799 56.8404C68.8844 56.8333 68.9449 56.7159 68.9307 56.5843C68.9164 56.4526 68.8346 56.3495 68.7492 56.3601L67.3511 56.506L67.1413 56.7728L67.1377 56.7692Z" fill="#0A7325"/>
<path d="M35.811 34.0076L35.9995 33.723L35.7078 32.3498C35.69 32.2645 35.5691 32.2182 35.4375 32.2467C35.3058 32.2751 35.2169 32.3676 35.2347 32.4495L35.5264 33.8226L35.811 34.0041V34.0076Z" fill="#0A7325"/>
<path d="M46.6436 84.9762L46.4551 85.2573L46.7468 86.6305C46.7646 86.7158 46.8855 86.7621 47.0172 86.7336C47.1488 86.7052 47.2377 86.6127 47.2199 86.5273L46.9282 85.1541L46.6436 84.9727V84.9762Z" fill="#0A7325"/>
<path d="M15.7469 64.9092L15.4623 64.7207L14.0891 65.0124C14.0037 65.0302 13.9575 65.1512 13.9859 65.2828C14.0144 65.4144 14.1033 65.5034 14.1887 65.4856L15.5619 65.1939L15.7433 64.9092H15.7469Z" fill="#0A7325"/>
<path d="M66.7119 54.0763L66.9965 54.2613L68.3697 53.9696C68.4551 53.9518 68.5013 53.8308 68.4729 53.6992C68.4444 53.5676 68.3519 53.4786 68.2665 53.4964L66.8933 53.7881L66.7119 54.0727V54.0763Z" fill="#0A7325"/>
<path d="M32.8723 34.5643L33.1747 34.7173L33.3312 34.4149L32.8972 33.0773C32.8687 32.9954 32.7442 32.9599 32.6197 33.0025C32.4916 33.0452 32.4098 33.1448 32.4383 33.2267L32.8723 34.5643V34.5643Z" fill="#0A7325"/>
<path d="M49.582 84.4225L49.2796 84.2695L49.123 84.5719L49.5571 85.9095C49.5855 85.9914 49.71 86.0269 49.8345 85.9842C49.9626 85.9416 50.0409 85.8419 50.016 85.7601L49.582 84.4225Z" fill="#0A7325"/>
<path d="M16.4507 67.5413L16.1483 67.3848L14.8107 67.8188C14.7288 67.8472 14.6933 67.9718 14.7359 68.0963C14.7786 68.2243 14.8782 68.3026 14.9601 68.2777L16.2977 67.8437L16.4507 67.5413Z" fill="#0A7325"/>
<path d="M66.0059 51.4402L66.3082 51.5968L67.6459 51.1627C67.7277 51.1378 67.7633 51.0098 67.7206 50.8853C67.6779 50.7572 67.5783 50.6789 67.4965 50.7038L66.1588 51.1378L66.0059 51.4402Z" fill="#0A7325"/>
<path d="M30.3144 35.5738L30.631 35.6912L30.7555 35.3746L30.1827 34.0903C30.1472 34.0085 30.0191 33.9907 29.8981 34.0441C29.7772 34.0974 29.706 34.2077 29.7416 34.286L30.3144 35.5702V35.5738Z" fill="#0A7325"/>
<path d="M52.1433 83.412L51.8267 83.291L51.7021 83.6076L52.2749 84.8919C52.3105 84.9737 52.4386 84.9915 52.5595 84.9381C52.6805 84.8848 52.7516 84.7745 52.716 84.6962L52.1433 83.412V83.412Z" fill="#0A7325"/>
<path d="M15.8296 70.5376C15.7513 70.5732 15.73 70.7012 15.7834 70.8222C15.8367 70.9432 15.947 71.0143 16.0253 70.9787L17.3095 70.406L17.4305 70.0894L17.1139 69.9648L15.8296 70.5376V70.5376Z" fill="#0A7325"/>
<path d="M65.3459 49.0172L66.6302 48.4444C66.7084 48.4089 66.7298 48.2808 66.6764 48.1598C66.6231 48.0389 66.5128 47.9677 66.4345 48.0033L65.1503 48.5761L65.0293 48.8927L65.3459 49.0172V49.0172Z" fill="#0A7325"/>
<path d="M25.5788 38.3632L25.9132 38.413L25.9701 38.0786L25.1448 36.9437C25.095 36.8726 24.9633 36.8797 24.8566 36.958C24.7499 37.0362 24.7036 37.1572 24.7534 37.2283L25.5788 38.3667V38.3632Z" fill="#0A7325"/>
<path d="M56.8786 80.6182L56.5442 80.5684L56.4873 80.9028L57.3126 82.0412C57.366 82.1123 57.4941 82.1052 57.6008 82.0269C57.7075 81.9487 57.7538 81.8277 57.704 81.7566L56.8786 80.6182V80.6182Z" fill="#0A7325"/>
<path d="M18.682 75.5737C18.6109 75.6271 18.618 75.7552 18.6962 75.8619C18.7745 75.9686 18.8955 76.0149 18.9666 75.9651L20.105 75.1397L20.1548 74.8053L19.8204 74.752L18.682 75.5773V75.5737Z" fill="#0A7325"/>
<path d="M62.642 44.2328L63.7804 43.4075C63.8516 43.3577 63.8445 43.226 63.7662 43.1193C63.6879 43.0126 63.567 42.9663 63.4958 43.0161L62.3574 43.8415L62.3076 44.1759L62.642 44.2328V44.2328Z" fill="#0A7325"/>
<path d="M23.4555 40.1172L23.7935 40.1314L23.8148 39.7935L22.8757 38.7511C22.8187 38.6871 22.6907 38.7049 22.5911 38.7938C22.4914 38.8828 22.4594 39.0073 22.5163 39.0713L23.4555 40.1172Z" fill="#0A7325"/>
<path d="M58.998 78.8677L58.66 78.8535L58.6387 79.1915L59.5779 80.2338C59.6383 80.2979 59.7628 80.2801 59.8625 80.1911C59.9621 80.1022 59.9941 79.9777 59.9372 79.9136L58.998 78.8677V78.8677Z" fill="#0A7325"/>
<path d="M20.4863 77.8431C20.4222 77.9036 20.44 78.0281 20.5325 78.1277C20.6214 78.2273 20.746 78.2594 20.81 78.2024L21.8559 77.2633L21.8701 76.9217L21.5322 76.9004L20.4863 77.8396V77.8431Z" fill="#0A7325"/>
<path d="M60.9268 42.0805L61.9727 41.1413C62.0368 41.0844 62.0154 40.9563 61.9265 40.8567C61.8376 40.7571 61.713 40.7251 61.649 40.782L60.6031 41.7211L60.5889 42.0591L60.9268 42.0805V42.0805Z" fill="#0A7325"/>
<path d="M21.5274 42.0801L21.8654 42.0587L21.8512 41.7208L20.8053 40.7816C20.7412 40.7211 20.6167 40.7567 20.5278 40.8563C20.4389 40.9559 20.4175 41.084 20.4851 41.1409L21.531 42.0801H21.5274Z" fill="#0A7325"/>
<path d="M60.9268 76.9043L60.5889 76.9256L60.6031 77.2636L61.6454 78.2028C61.7095 78.2597 61.834 78.2277 61.9265 78.1281C62.0154 78.0285 62.0368 77.9004 61.9692 77.8435L60.9233 76.9043H60.9268Z" fill="#0A7325"/>
<path d="M23.4555 78.8694L22.5163 79.9153C22.4594 79.9793 22.4914 80.1038 22.5911 80.1927C22.6907 80.2817 22.8187 80.303 22.8757 80.2354L23.8148 79.1895L23.7935 78.8516L23.4555 78.8658V78.8694Z" fill="#0A7325"/>
<path d="M58.998 40.1165L59.9372 39.0705C59.9941 39.0065 59.9621 38.882 59.8625 38.7895C59.7628 38.7006 59.6348 38.6792 59.5779 38.7468L58.6387 39.7927L58.66 40.1307L58.998 40.1165V40.1165Z" fill="#0A7325"/>
<path d="M19.8165 44.233L20.1509 44.1761L20.1011 43.8417L18.9627 43.0163C18.8916 42.963 18.7706 43.0092 18.6923 43.1195C18.6141 43.2262 18.607 43.3578 18.6781 43.4076L19.8165 44.233Z" fill="#0A7325"/>
<path d="M62.642 74.75L62.3076 74.8069L62.3574 75.1413L63.4923 75.9667C63.5634 76.02 63.6844 75.9738 63.7626 75.8635C63.8409 75.7568 63.848 75.6251 63.7769 75.5753L62.6385 74.75H62.642Z" fill="#0A7325"/>
<path d="M25.5788 80.6182L24.7534 81.7566C24.7036 81.8277 24.7499 81.9487 24.8566 82.0269C24.9633 82.1052 25.095 82.1123 25.1448 82.0412L25.9701 80.9028L25.9132 80.5684L25.5788 80.6182V80.6182Z" fill="#0A7325"/>
<path d="M56.8786 38.3628L57.704 37.2244C57.7538 37.1533 57.7075 37.0323 57.6008 36.9541C57.4941 36.8758 57.366 36.8687 57.3126 36.9398L56.4873 38.0782L56.5442 38.4126L56.8786 38.3628V38.3628Z" fill="#0A7325"/>
<path d="M15.828 48.4487L17.1123 49.0215L17.4289 48.8969L17.3115 48.5803L16.0272 48.0111C15.949 47.9756 15.8387 48.0467 15.7853 48.1677C15.732 48.2886 15.7533 48.4167 15.8316 48.4523L15.828 48.4487Z" fill="#0A7325"/>
<path d="M66.6302 70.5376L65.3459 69.9648L65.0293 70.0894L65.1503 70.406L66.4345 70.9787C66.5163 71.0143 66.6231 70.9432 66.6764 70.8222C66.7298 70.7012 66.712 70.5732 66.6302 70.5376V70.5376Z" fill="#0A7325"/>
<path d="M30.3144 83.412L29.7416 84.6962C29.706 84.7745 29.7772 84.8848 29.8981 84.9381C30.0191 84.9915 30.1472 84.9737 30.1827 84.8919L30.7555 83.6076L30.631 83.291L30.3144 83.412V83.412Z" fill="#0A7325"/>
<path d="M52.1433 35.5732L52.716 34.2889C52.7516 34.2107 52.6805 34.1004 52.5595 34.047C52.4386 33.9937 52.3105 34.015 52.2749 34.0933L51.7021 35.3775L51.8267 35.6942L52.1433 35.5732V35.5732Z" fill="#0A7325"/>
<path d="M14.8146 51.1638L16.1522 51.5978L16.4546 51.4413L16.3016 51.1389L14.964 50.7049C14.8822 50.6764 14.779 50.7582 14.7399 50.8863C14.6972 51.0144 14.7327 51.1389 14.8146 51.1638Z" fill="#0A7325"/>
<path d="M67.6429 67.8227L66.3053 67.3887L66.0029 67.5452L66.1559 67.8476L67.4935 68.2816C67.5753 68.3101 67.675 68.2282 67.7176 68.1002C67.7603 67.9721 67.7248 67.8476 67.6429 67.8227Z" fill="#0A7325"/>
<path d="M32.8771 84.4225L32.4431 85.7601C32.4182 85.8419 32.4964 85.9451 32.6245 85.9842C32.7526 86.0269 32.8771 85.9914 32.902 85.9095L33.336 84.5719L33.1795 84.2695L32.8771 84.4225V84.4225Z" fill="#0A7325"/>
<path d="M49.582 34.5643L50.016 33.2267C50.0409 33.1448 49.9591 33.0417 49.8345 33.0025C49.71 32.9599 49.582 32.9954 49.5571 33.0773L49.123 34.4149L49.2796 34.7173L49.582 34.5643V34.5643Z" fill="#0A7325"/>
<path d="M14.0885 53.9696L15.4617 54.2613L15.7463 54.0727L15.5648 53.7881L14.1916 53.4964C14.1063 53.4786 14.0138 53.5676 13.9889 53.6992C13.9604 53.8308 14.0067 53.9518 14.092 53.9696H14.0885Z" fill="#0A7325"/>
<path d="M68.3697 65.0163L66.9965 64.7246L66.7119 64.9132L66.8933 65.1978L68.2665 65.4895C68.3519 65.5073 68.4444 65.4183 68.4729 65.2867C68.5013 65.1551 68.4551 65.0341 68.3697 65.0163V65.0163Z" fill="#0A7325"/>
<path d="M35.5263 85.158L35.2346 86.5312C35.2168 86.6166 35.3093 86.7091 35.4374 86.7375C35.569 86.766 35.69 86.7197 35.7042 86.6344L35.9959 85.2612L35.8074 84.9766L35.5228 85.1615L35.5263 85.158Z" fill="#0A7325"/>
<path d="M47.0204 32.2467C46.8888 32.2182 46.7714 32.2645 46.7536 32.3498L46.4619 33.723L46.6505 34.0076L46.9351 33.8262L47.2268 32.453C47.2446 32.3676 47.1521 32.2751 47.0204 32.2467Z" fill="#0A7325"/>
<path d="M13.6581 56.8381L15.0562 56.984L15.3195 56.7669L15.106 56.5001L13.7079 56.3543C13.6225 56.3436 13.5407 56.4468 13.5265 56.5784C13.5123 56.71 13.5727 56.8274 13.6581 56.8345V56.8381Z" fill="#0A7325"/>
<path d="M68.799 62.1478L67.401 62.002L67.1377 62.219L67.3476 62.4822L68.7457 62.6281C68.8346 62.6387 68.9129 62.5391 68.9271 62.4039C68.9413 62.2723 68.8844 62.1549 68.7955 62.1478H68.799Z" fill="#0A7325"/>
<path d="M38.2409 85.6138L38.0951 87.0119C38.088 87.1009 38.1876 87.1791 38.3192 87.1934C38.4508 87.2076 38.5682 87.1507 38.5753 87.0617L38.7212 85.6636L38.5042 85.4004L38.2374 85.6138H38.2409Z" fill="#0A7325"/>
<path d="M44.1393 31.7931C44.0077 31.7789 43.8903 31.8393 43.8832 31.9247L43.7373 33.3228L43.9508 33.5861L44.2176 33.3762L44.3634 31.9781C44.3705 31.8927 44.2709 31.8109 44.1393 31.7967V31.7931Z" fill="#0A7325"/>
<path d="M39.1475 53.7718L41.1859 59.4673L43.2813 53.7931L41.2713 42.0996L39.1475 53.7718ZM42.4453 53.7148L41.2001 57.0873L39.987 53.7042L41.2499 46.767L42.4453 53.7148Z" fill="#FF0000"/>
<path d="M40.3936 54.8375L40.5714 55.332L41.8486 55.3285L42.03 54.834L40.3936 54.8375Z" fill="#FF0000"/>
<path d="M40.0908 53.9915L40.2545 54.4469L42.1755 54.4397L42.3463 53.9844L40.0908 53.9915Z" fill="#FF0000"/>
<path d="M40.0864 53.1458L40.0117 53.562L42.4166 53.5549L42.3454 53.1387L40.0864 53.1458Z" fill="#FF0000"/>
<path d="M40.6982 55.6852L40.8868 56.2188L41.52 56.2153L41.7157 55.6816L40.6982 55.6852Z" fill="#FF0000"/>
<path d="M41.1445 47.3532H41.3509L41.326 47.2109H41.1694L41.1445 47.3532Z" fill="#FF0000"/>
<path d="M41.403 56.5293L41.001 56.5329L41.2002 57.0878L41.403 56.5293Z" fill="#FF0000"/>
<path d="M41.5024 48.24L41.4704 48.0586H41.0151L40.9795 48.2436L41.5024 48.24Z" fill="#FF0000"/>
<path d="M42.1111 51.7833L42.0542 51.4453L40.3964 51.4489L40.3359 51.7904L42.1111 51.7833Z" fill="#FF0000"/>
<path d="M41.9608 50.8965L41.9074 50.5977L40.5485 50.6012L40.4951 50.9L41.9608 50.8965Z" fill="#FF0000"/>
<path d="M40.243 52.2981L40.1719 52.6752L42.2637 52.6681L42.1996 52.291L40.243 52.2981Z" fill="#FF0000"/>
<path d="M41.6563 49.1249L41.6172 48.9043L40.8594 48.9079L40.8203 49.1284L41.6563 49.1249Z" fill="#FF0000"/>
<path d="M41.8092 50.0116L41.763 49.752L40.7064 49.7555L40.6602 50.0152L41.8092 50.0116Z" fill="#FF0000"/>
<path fill-rule="evenodd" clip-rule="evenodd" d="M7.25781 23.953C12.1906 9.99787 25.501 0 41.1453 0C56.7892 0 70.0954 9.99925 75.0268 23.953H69.9836C68.4605 20.2815 66.2062 16.8418 63.2209 13.8564C51.0305 1.66608 31.2633 1.66608 19.073 13.8564C16.0876 16.8418 13.8334 20.2815 12.3102 23.953H7.25781Z" fill="#0A7325"/>
<path d="M43.0982 59.4905C43.0982 60.6218 42.1804 61.5396 41.0491 61.5396C39.9178 61.5396 39 60.6218 39 59.4905C39 58.3592 39.9178 57.4414 41.0491 57.4414C42.1804 57.4414 43.0982 58.3592 43.0982 59.4905Z" fill="#0A7325"/>
</svg>
