<svg width="142" height="117" viewBox="0 0 142 117" fill="none" xmlns="http://www.w3.org/2000/svg">
<path d="M59.3225 31.0876C52.7333 26.1084 42.8416 27.1265 36.3526 33.7578C29.4749 40.7865 28.9865 51.4966 35.1633 57.9068C38.5749 45.8901 47.4116 35.8356 59.3231 31.0911L59.3225 31.0876Z" fill="#0A7325"/>
<path d="M106.77 33.8198C100.309 27.0308 90.3572 25.3302 83.8408 30.4703C83.4672 30.7657 82.9869 31.2156 82.9869 31.2156C82.9869 31.2156 99.735 27.5834 105.955 33.8964C112.757 40.7997 113.285 51.2242 107.352 57.6051C107.369 57.6731 107.158 57.8021 107.175 57.8701C113.606 51.6998 113.618 41.0166 106.77 33.8198V33.8198Z" fill="#0A7325"/>
<path d="M83.0155 31.052C89.6046 26.0728 99.4964 27.0909 105.985 33.7223C112.863 40.7509 113.351 51.4611 107.175 57.8712C103.763 45.8545 94.9263 35.8001 83.0148 31.0555L83.0155 31.052Z" fill="#0A7325"/>
<path fill-rule="evenodd" clip-rule="evenodd" d="M37.2578 39.953C42.1906 25.9979 55.501 16 71.1453 16C86.7892 16 100.095 25.9993 105.027 39.953H99.9836C98.4605 36.2815 96.2062 32.8418 93.2209 29.8564C81.0305 17.6661 61.2633 17.6661 49.073 29.8564C46.0876 32.8418 43.8334 36.2815 42.3102 39.953H37.2578Z" fill="#0A7325"/>
<path d="M46.0118 116.766C46.8478 117.25 47.9186 116.962 48.4024 116.122L52.3121 109.331L49.2776 107.584L45.3679 114.375C44.8876 115.211 45.1722 116.282 46.0118 116.766Z" fill="#0A7325"/>
<path d="M96.4419 116.766C95.6059 117.25 94.5351 116.962 94.0513 116.122L90.1416 109.331L93.1761 107.584L97.0858 114.375C97.5661 115.211 97.2815 116.282 96.4419 116.766Z" fill="#0A7325"/>
<path d="M71.2267 35.291C49.0244 35.291 31.0234 53.2884 31.0234 75.4907C31.0234 97.6931 49.0208 115.69 71.2231 115.69C93.4255 115.69 111.423 97.6895 111.423 75.4907C111.423 53.2919 93.429 35.291 71.2267 35.291ZM95.9264 100.19C82.287 113.83 60.17 113.83 46.5306 100.19C32.8911 86.551 32.8911 64.434 46.5306 50.7946C60.17 37.1551 82.287 37.1551 95.9264 50.7946C109.566 64.434 109.566 86.551 95.9264 100.19Z" fill="#0A7325"/>
<path d="M71.9179 45.2217C71.9179 44.9727 71.6084 44.7734 71.2278 44.7734C70.8471 44.7734 70.5376 44.9762 70.5376 45.2217V49.2274L71.2278 49.9069L71.9179 49.2274V45.2217Z" fill="#0A7325"/>
<path d="M71.2278 101.08L70.5376 101.76V105.765C70.5376 106.014 70.8471 106.217 71.2278 106.217C71.6084 106.217 71.9179 106.018 71.9179 105.769V101.763L71.2278 101.084V101.08Z" fill="#0A7325"/>
<path d="M45.6383 75.4909L44.9589 74.8008H40.9531C40.7041 74.8008 40.5049 75.1103 40.5049 75.4909C40.5049 75.8716 40.7041 76.1811 40.9531 76.1811H44.9589L45.6383 75.4909Z" fill="#0A7325"/>
<path d="M101.498 74.8047H97.492L96.8125 75.4948L97.492 76.185H101.498C101.747 76.185 101.946 75.8755 101.946 75.4948C101.946 75.1142 101.747 74.8047 101.498 74.8047Z" fill="#0A7325"/>
<path d="M56.6877 48.932C56.5632 48.715 56.1968 48.6972 55.8659 48.8858C55.5351 49.0743 55.3714 49.4052 55.4924 49.6186L57.4953 53.0872L58.4309 53.3291L58.687 52.397L56.6842 48.9285L56.6877 48.932Z" fill="#0A7325"/>
<path d="M84.9559 97.8943L84.0203 97.6523L83.7642 98.5844L85.767 102.053C85.8915 102.27 86.258 102.288 86.5888 102.099C86.9197 101.907 87.0869 101.58 86.9623 101.366L84.9595 97.8943H84.9559Z" fill="#0A7325"/>
<path d="M48.1357 88.0293L44.6671 90.0322C44.4537 90.1567 44.4323 90.5231 44.6209 90.8539C44.8094 91.1848 45.1403 91.3484 45.3537 91.2239L48.8223 89.2211L49.0642 88.2854L48.1321 88.0293H48.1357Z" fill="#0A7325"/>
<path d="M94.3183 62.9547L97.7869 60.9519C98.0003 60.8274 98.0216 60.4609 97.8295 60.1301C97.6374 59.7992 97.3102 59.6356 97.0967 59.7566L93.6281 61.7594L93.3862 62.6951L94.3183 62.9512V62.9547Z" fill="#0A7325"/>
<path d="M48.8225 61.7629L45.354 59.76C45.1405 59.6355 44.8097 59.8027 44.6211 60.13C44.4326 60.4608 44.4504 60.8272 44.6674 60.9517L48.1359 62.9546L49.068 62.6985L48.8261 61.7629H48.8225Z" fill="#0A7325"/>
<path d="M97.7869 90.0322L94.3183 88.0293L93.3862 88.2854L93.6281 89.2211L97.0967 91.2239C97.3102 91.3484 97.641 91.1812 97.8295 90.8539C98.0216 90.5231 98.0003 90.1567 97.7869 90.0322Z" fill="#0A7325"/>
<path d="M58.4348 97.6523L57.4992 97.8943L55.4963 101.363C55.3718 101.58 55.539 101.907 55.8698 102.099C56.2007 102.288 56.5671 102.27 56.6916 102.053L58.6945 98.5844L58.4383 97.6523H58.4348Z" fill="#0A7325"/>
<path d="M84.9561 53.0906L86.9589 49.622C87.0834 49.405 86.9162 49.0777 86.5854 48.8856C86.2545 48.6935 85.8881 48.7148 85.7636 48.9283L83.7607 52.3968L84.0169 53.3289L84.9525 53.087L84.9561 53.0906Z" fill="#0A7325"/>
<path d="M68.5042 49.5822L68.7212 49.3189L68.5753 47.9208C68.5647 47.8354 68.4508 47.775 68.3192 47.7892C68.1876 47.8034 68.088 47.8852 68.0951 47.9706L68.2409 49.3687L68.5078 49.5786L68.5042 49.5822Z" fill="#0A7325"/>
<path d="M73.9509 101.404L73.7339 101.668L73.8797 103.066C73.8904 103.155 74.0043 103.212 74.1359 103.197C74.2675 103.183 74.3707 103.101 74.36 103.016L74.2141 101.618L73.9473 101.404H73.9509Z" fill="#0A7325"/>
<path d="M45.3195 78.2151L45.0562 77.998L43.6581 78.1439C43.5727 78.1546 43.5123 78.2684 43.5265 78.4C43.5407 78.5317 43.6225 78.6348 43.7079 78.6242L45.106 78.4783L45.3195 78.2115V78.2151Z" fill="#0A7325"/>
<path d="M97.1377 72.7692L97.401 72.9863L98.799 72.8404C98.8844 72.8333 98.9449 72.7159 98.9307 72.5843C98.9164 72.4526 98.8346 72.3495 98.7492 72.3601L97.3511 72.506L97.1413 72.7728L97.1377 72.7692Z" fill="#0A7325"/>
<path d="M65.8105 50.0076L65.9991 49.723L65.7073 48.3498C65.6896 48.2645 65.5686 48.2182 65.437 48.2467C65.3053 48.2751 65.2164 48.3676 65.2342 48.4495L65.5259 49.8226L65.8105 50.0041V50.0076Z" fill="#0A7325"/>
<path d="M76.6441 100.976L76.4556 101.257L76.7473 102.63C76.7651 102.716 76.886 102.762 77.0177 102.734C77.1493 102.705 77.2382 102.613 77.2204 102.527L76.9287 101.154L76.6441 100.973V100.976Z" fill="#0A7325"/>
<path d="M45.7474 80.9092L45.4628 80.7207L44.0896 81.0124C44.0042 81.0302 43.958 81.1512 43.9864 81.2828C44.0149 81.4144 44.1038 81.5034 44.1892 81.4856L45.5624 81.1939L45.7438 80.9092H45.7474Z" fill="#0A7325"/>
<path d="M96.7119 70.0763L96.9965 70.2613L98.3697 69.9696C98.4551 69.9518 98.5013 69.8308 98.4729 69.6992C98.4444 69.5676 98.3519 69.4786 98.2665 69.4964L96.8933 69.7881L96.7119 70.0727V70.0763Z" fill="#0A7325"/>
<path d="M62.8728 50.5643L63.1752 50.7173L63.3317 50.4149L62.8977 49.0773C62.8692 48.9954 62.7447 48.9599 62.6202 49.0025C62.4921 49.0452 62.4103 49.1448 62.4388 49.2267L62.8728 50.5643V50.5643Z" fill="#0A7325"/>
<path d="M79.582 100.423L79.2796 100.27L79.123 100.572L79.5571 101.91C79.5855 101.991 79.71 102.027 79.8345 101.984C79.9626 101.942 80.0409 101.842 80.016 101.76L79.582 100.423Z" fill="#0A7325"/>
<path d="M46.4512 83.5413L46.1488 83.3848L44.8111 83.8188C44.7293 83.8472 44.6937 83.9718 44.7364 84.0963C44.7791 84.2243 44.8787 84.3026 44.9606 84.2777L46.2982 83.8437L46.4512 83.5413Z" fill="#0A7325"/>
<path d="M96.0063 67.4402L96.3087 67.5968L97.6464 67.1627C97.7282 67.1378 97.7638 67.0098 97.7211 66.8853C97.6784 66.7572 97.5788 66.6789 97.4969 66.7038L96.1593 67.1378L96.0063 67.4402Z" fill="#0A7325"/>
<path d="M60.3139 51.5738L60.6305 51.6912L60.755 51.3746L60.1822 50.0903C60.1467 50.0085 60.0186 49.9907 59.8976 50.0441C59.7767 50.0974 59.7055 50.2077 59.7411 50.286L60.3139 51.5702V51.5738Z" fill="#0A7325"/>
<path d="M82.1438 99.412L81.8271 99.291L81.7026 99.6076L82.2754 100.892C82.311 100.974 82.439 100.992 82.56 100.938C82.6809 100.885 82.7521 100.774 82.7165 100.696L82.1438 99.412V99.412Z" fill="#0A7325"/>
<path d="M45.8291 86.5376C45.7509 86.5732 45.7295 86.7012 45.7829 86.8222C45.8362 86.9432 45.9465 87.0143 46.0248 86.9787L47.309 86.406L47.43 86.0894L47.1134 85.9648L45.8291 86.5376V86.5376Z" fill="#0A7325"/>
<path d="M95.3459 65.0172L96.6302 64.4444C96.7084 64.4089 96.7298 64.2808 96.6764 64.1598C96.6231 64.0389 96.5128 63.9677 96.4345 64.0033L95.1503 64.5761L95.0293 64.8927L95.3459 65.0172V65.0172Z" fill="#0A7325"/>
<path d="M55.5793 54.3632L55.9137 54.413L55.9706 54.0786L55.1452 52.9437C55.0954 52.8726 54.9638 52.8797 54.8571 52.958C54.7504 53.0362 54.7041 53.1572 54.7539 53.2283L55.5793 54.3667V54.3632Z" fill="#0A7325"/>
<path d="M86.8786 96.6182L86.5442 96.5684L86.4873 96.9028L87.3126 98.0412C87.366 98.1123 87.4941 98.1052 87.6008 98.0269C87.7075 97.9487 87.7538 97.8277 87.704 97.7566L86.8786 96.6182V96.6182Z" fill="#0A7325"/>
<path d="M48.6815 91.5737C48.6104 91.6271 48.6175 91.7552 48.6958 91.8619C48.774 91.9686 48.895 92.0149 48.9661 91.9651L50.1045 91.1397L50.1543 90.8053L49.8199 90.752L48.6815 91.5773V91.5737Z" fill="#0A7325"/>
<path d="M92.642 60.2328L93.7804 59.4075C93.8516 59.3577 93.8445 59.226 93.7662 59.1193C93.6879 59.0126 93.567 58.9663 93.4958 59.0161L92.3574 59.8415L92.3076 60.1759L92.642 60.2328V60.2328Z" fill="#0A7325"/>
<path d="M53.4555 56.1172L53.7935 56.1314L53.8148 55.7935L52.8757 54.7511C52.8187 54.6871 52.6907 54.7049 52.5911 54.7938C52.4914 54.8828 52.4594 55.0073 52.5163 55.0713L53.4555 56.1172Z" fill="#0A7325"/>
<path d="M88.9985 94.8677L88.6605 94.8535L88.6392 95.1915L89.5783 96.2338C89.6388 96.2979 89.7633 96.2801 89.8629 96.1911C89.9625 96.1022 89.9946 95.9777 89.9376 95.9136L88.9985 94.8677V94.8677Z" fill="#0A7325"/>
<path d="M50.4858 93.8431C50.4217 93.9036 50.4395 94.0281 50.532 94.1277C50.621 94.2273 50.7455 94.2594 50.8095 94.2024L51.8554 93.2633L51.8696 92.9217L51.5317 92.9004L50.4858 93.8396V93.8431Z" fill="#0A7325"/>
<path d="M90.9268 58.0805L91.9727 57.1413C92.0368 57.0844 92.0154 56.9563 91.9265 56.8567C91.8376 56.7571 91.713 56.7251 91.649 56.782L90.6031 57.7211L90.5889 58.0591L90.9268 58.0805V58.0805Z" fill="#0A7325"/>
<path d="M51.5279 58.0801L51.8659 58.0587L51.8517 57.7208L50.8058 56.7816C50.7417 56.7211 50.6172 56.7567 50.5283 56.8563C50.4393 56.9559 50.418 57.084 50.4856 57.1409L51.5315 58.0801H51.5279Z" fill="#0A7325"/>
<path d="M90.9268 92.9043L90.5889 92.9256L90.6031 93.2636L91.6454 94.2028C91.7095 94.2597 91.834 94.2277 91.9265 94.1281C92.0154 94.0285 92.0368 93.9004 91.9692 93.8435L90.9233 92.9043H90.9268Z" fill="#0A7325"/>
<path d="M53.4555 94.8694L52.5163 95.9153C52.4594 95.9793 52.4914 96.1038 52.5911 96.1927C52.6907 96.2817 52.8187 96.303 52.8757 96.2354L53.8148 95.1895L53.7935 94.8516L53.4555 94.8658V94.8694Z" fill="#0A7325"/>
<path d="M88.9985 56.1165L89.9376 55.0705C89.9946 55.0065 89.9625 54.882 89.8629 54.7895C89.7633 54.7006 89.6353 54.6792 89.5783 54.7468L88.6392 55.7927L88.6605 56.1307L88.9985 56.1165V56.1165Z" fill="#0A7325"/>
<path d="M49.817 60.233L50.1514 60.1761L50.1016 59.8417L48.9632 59.0163C48.892 58.963 48.7711 59.0092 48.6928 59.1195C48.6146 59.2262 48.6074 59.3578 48.6786 59.4076L49.817 60.233Z" fill="#0A7325"/>
<path d="M92.642 90.75L92.3076 90.8069L92.3574 91.1413L93.4923 91.9667C93.5634 92.02 93.6844 91.9738 93.7626 91.8635C93.8409 91.7568 93.848 91.6251 93.7769 91.5753L92.6385 90.75H92.642Z" fill="#0A7325"/>
<path d="M55.5793 96.6182L54.7539 97.7566C54.7041 97.8277 54.7504 97.9487 54.8571 98.0269C54.9638 98.1052 55.0954 98.1123 55.1452 98.0412L55.9706 96.9028L55.9137 96.5684L55.5793 96.6182V96.6182Z" fill="#0A7325"/>
<path d="M86.8786 54.3628L87.704 53.2244C87.7538 53.1533 87.7075 53.0323 87.6008 52.9541C87.4941 52.8758 87.366 52.8687 87.3126 52.9398L86.4873 54.0782L86.5442 54.4126L86.8786 54.3628V54.3628Z" fill="#0A7325"/>
<path d="M45.828 64.4487L47.1123 65.0215L47.4289 64.8969L47.3115 64.5803L46.0272 64.0111C45.949 63.9756 45.8387 64.0467 45.7853 64.1677C45.732 64.2886 45.7533 64.4167 45.8316 64.4523L45.828 64.4487Z" fill="#0A7325"/>
<path d="M96.6302 86.5376L95.3459 85.9648L95.0293 86.0894L95.1503 86.406L96.4345 86.9787C96.5163 87.0143 96.6231 86.9432 96.6764 86.8222C96.7298 86.7012 96.712 86.5732 96.6302 86.5376V86.5376Z" fill="#0A7325"/>
<path d="M60.3139 99.412L59.7411 100.696C59.7055 100.774 59.7767 100.885 59.8976 100.938C60.0186 100.992 60.1467 100.974 60.1822 100.892L60.755 99.6076L60.6305 99.291L60.3139 99.412V99.412Z" fill="#0A7325"/>
<path d="M82.1438 51.5732L82.7165 50.2889C82.7521 50.2107 82.6809 50.1004 82.56 50.047C82.439 49.9937 82.311 50.015 82.2754 50.0933L81.7026 51.3775L81.8271 51.6942L82.1438 51.5732V51.5732Z" fill="#0A7325"/>
<path d="M44.8141 67.1638L46.1517 67.5978L46.4541 67.4413L46.3011 67.1389L44.9635 66.7049C44.8817 66.6764 44.7785 66.7582 44.7394 66.8863C44.6967 67.0144 44.7323 67.1389 44.8141 67.1638Z" fill="#0A7325"/>
<path d="M97.6429 83.8227L96.3053 83.3887L96.0029 83.5452L96.1559 83.8476L97.4935 84.2816C97.5753 84.3101 97.675 84.2282 97.7176 84.1002C97.7603 83.9721 97.7248 83.8476 97.6429 83.8227Z" fill="#0A7325"/>
<path d="M62.8771 100.423L62.4431 101.76C62.4182 101.842 62.4964 101.945 62.6245 101.984C62.7526 102.027 62.8771 101.991 62.902 101.91L63.336 100.572L63.1795 100.27L62.8771 100.423V100.423Z" fill="#0A7325"/>
<path d="M79.582 50.5643L80.016 49.2267C80.0409 49.1448 79.9591 49.0417 79.8345 49.0025C79.71 48.9599 79.582 48.9954 79.5571 49.0773L79.123 50.4149L79.2796 50.7173L79.582 50.5643V50.5643Z" fill="#0A7325"/>
<path d="M44.088 69.9696L45.4612 70.2613L45.7458 70.0727L45.5643 69.7881L44.1912 69.4964C44.1058 69.4786 44.0133 69.5676 43.9884 69.6992C43.9599 69.8308 44.0062 69.9518 44.0915 69.9696H44.088Z" fill="#0A7325"/>
<path d="M98.3697 81.0163L96.9965 80.7246L96.7119 80.9132L96.8933 81.1978L98.2665 81.4895C98.3519 81.5073 98.4444 81.4183 98.4729 81.2867C98.5013 81.1551 98.4551 81.0341 98.3697 81.0163V81.0163Z" fill="#0A7325"/>
<path d="M65.5258 101.158L65.2341 102.531C65.2163 102.617 65.3088 102.709 65.4369 102.738C65.5685 102.766 65.6895 102.72 65.7037 102.634L65.9954 101.261L65.8069 100.977L65.5223 101.162L65.5258 101.158Z" fill="#0A7325"/>
<path d="M77.0204 48.2467C76.8888 48.2182 76.7714 48.2645 76.7536 48.3498L76.4619 49.723L76.6505 50.0076L76.9351 49.8262L77.2268 48.453C77.2446 48.3676 77.1521 48.2751 77.0204 48.2467Z" fill="#0A7325"/>
<path d="M43.6581 72.8381L45.0562 72.984L45.3195 72.7669L45.106 72.5001L43.7079 72.3543C43.6225 72.3436 43.5407 72.4468 43.5265 72.5784C43.5123 72.71 43.5727 72.8274 43.6581 72.8345V72.8381Z" fill="#0A7325"/>
<path d="M98.799 78.1478L97.401 78.002L97.1377 78.219L97.3476 78.4822L98.7457 78.6281C98.8346 78.6387 98.9129 78.5391 98.9271 78.4039C98.9413 78.2723 98.8844 78.1549 98.7955 78.1478H98.799Z" fill="#0A7325"/>
<path d="M68.2409 101.614L68.0951 103.012C68.088 103.101 68.1876 103.179 68.3192 103.193C68.4508 103.208 68.5682 103.151 68.5753 103.062L68.7212 101.664L68.5042 101.4L68.2374 101.614H68.2409Z" fill="#0A7325"/>
<path d="M74.1393 47.7931C74.0077 47.7789 73.8903 47.8393 73.8832 47.9247L73.7373 49.3228L73.9508 49.5861L74.2176 49.3762L74.3634 47.9781C74.3705 47.8927 74.2709 47.8109 74.1393 47.7967V47.7931Z" fill="#0A7325"/>
<path d="M68.1835 68.0217L71.2053 76.2692L74.1852 68.0106L71.1463 51.0582L68.1834 68.0258L68.1835 68.0217ZM72.9673 67.9041L71.1954 72.8122L69.4021 67.9116L71.161 57.8264L72.9674 67.9L72.9673 67.9041Z" fill="#FF0000"/>
<path d="M70.0018 69.5577L70.2647 70.2758L72.1186 70.2549L72.3762 69.536L70.0018 69.5577Z" fill="#FF0000"/>
<path d="M69.5537 68.3367L69.793 68.9959L72.5841 68.9669L72.8239 68.3018L69.5537 68.3367Z" fill="#FF0000"/>
<path d="M69.5404 67.103L69.4351 67.7129L72.926 67.6746L72.8189 67.0683L69.5404 67.103Z" fill="#FF0000"/>
<path d="M70.4532 70.7848L70.7358 71.5575L71.6522 71.5489L71.9321 70.7681L70.4532 70.7848Z" fill="#FF0000"/>
<path d="M71.0083 58.6855L71.3124 58.684L71.2754 58.475L71.0463 58.4782L71.0083 58.6855Z" fill="#FF0000"/>
<path d="M71.4877 72.0037L70.9003 72.0113L71.1945 72.8176L71.4877 72.0037Z" fill="#FF0000"/>
<path d="M71.5409 59.9666L71.4968 59.7033L70.8303 59.7091L70.7827 59.9746L71.5409 59.9666Z" fill="#FF0000"/>
<path d="M72.4634 65.1074L72.3745 64.6139L69.9708 64.6391L69.8848 65.1328L72.4634 65.1074Z" fill="#FF0000"/>
<path d="M72.2339 63.8228L72.1562 63.3879L70.1858 63.4062L70.1094 63.8418L72.2339 63.8228Z" fill="#FF0000"/>
<path d="M69.7549 65.8701L69.6592 66.4219L72.696 66.3901L72.5959 65.8422L69.7549 65.8701Z" fill="#FF0000"/>
<path d="M71.7746 61.2513L71.7151 60.9293L70.6153 60.9421L70.5581 61.2656L71.7746 61.2513Z" fill="#FF0000"/>
<path d="M72.0045 62.5358L71.938 62.1595L70.4009 62.175L70.334 62.5566L72.0045 62.5358Z" fill="#FF0000"/>
<path d="M69.1475 69.7718L71.1859 75.4673L73.2813 69.7931L71.2713 58.0996L69.1475 69.7718ZM72.4453 69.7148L71.2001 73.0873L69.987 69.7042L71.2499 62.767L72.4453 69.7148Z" fill="#FF0000"/>
<path d="M70.3931 70.8375L70.5709 71.332L71.8481 71.3285L72.0295 70.834L70.3931 70.8375Z" fill="#FF0000"/>
<path d="M70.0903 69.9915L70.254 70.4469L72.175 70.4397L72.3458 69.9844L70.0903 69.9915Z" fill="#FF0000"/>
<path d="M70.0864 69.1458L70.0117 69.562L72.4166 69.5549L72.3454 69.1387L70.0864 69.1458Z" fill="#FF0000"/>
<path d="M70.6982 71.6852L70.8868 72.2188L71.52 72.2153L71.7157 71.6816L70.6982 71.6852Z" fill="#FF0000"/>
<path d="M71.144 63.3532H71.3504L71.3255 63.2109H71.1689L71.144 63.3532Z" fill="#FF0000"/>
<path d="M71.403 72.5293L71.001 72.5329L71.2002 73.0878L71.403 72.5293Z" fill="#FF0000"/>
<path d="M71.5024 64.24L71.4704 64.0586H71.0151L70.9795 64.2436L71.5024 64.24Z" fill="#FF0000"/>
<path d="M72.1111 67.7833L72.0542 67.4453L70.3964 67.4489L70.3359 67.7904L72.1111 67.7833Z" fill="#FF0000"/>
<path d="M71.9613 66.8965L71.9079 66.5977L70.549 66.6012L70.4956 66.9L71.9613 66.8965Z" fill="#FF0000"/>
<path d="M70.2435 68.2981L70.1724 68.6752L72.2642 68.6681L72.2001 68.291L70.2435 68.2981Z" fill="#FF0000"/>
<path d="M71.6558 65.1249L71.6167 64.9043L70.859 64.9079L70.8198 65.1284L71.6558 65.1249Z" fill="#FF0000"/>
<path d="M71.8092 66.0116L71.763 65.752L70.7064 65.7555L70.6602 66.0152L71.8092 66.0116Z" fill="#FF0000"/>
<path d="M73.0982 75.4905C73.0982 76.6218 72.1804 77.5396 71.0491 77.5396C69.9178 77.5396 69 76.6218 69 75.4905C69 74.3592 69.9178 73.4414 71.0491 73.4414C72.1804 73.4414 73.0982 74.3592 73.0982 75.4905Z" fill="#0A7325"/>
<ellipse cx="20.7264" cy="21.9406" rx="2.51689" ry="13.4234" transform="rotate(-46.7201 20.7264 21.9406)" fill="#ED1C24"/>
<ellipse cx="33.4233" cy="13.5399" rx="2.51689" ry="13.4234" transform="rotate(-18.1666 33.4233 13.5399)" fill="#ED1C24"/>
<ellipse cx="13.5869" cy="35.5768" rx="2.51689" ry="13.4234" transform="rotate(-73.5583 13.5869 35.5768)" fill="#ED1C24"/>
<ellipse rx="2.51689" ry="13.4234" transform="matrix(-0.685563 -0.728013 -0.728013 0.685563 121.274 21.9406)" fill="#ED1C24"/>
<ellipse rx="2.51689" ry="13.4234" transform="matrix(-0.950154 -0.311781 -0.311781 0.950154 108.577 13.5399)" fill="#ED1C24"/>
<ellipse rx="2.51689" ry="13.4234" transform="matrix(-0.28304 -0.959108 -0.959108 0.28304 128.413 35.5768)" fill="#ED1C24"/>
</svg>
