<svg width="7" height="26" viewBox="0 0 7 26" fill="none" xmlns="http://www.w3.org/2000/svg">
<path d="M0.183464 17.0217L3.2053 25.2692L6.18522 17.0106L3.14633 0.0582049L0.18337 17.0258L0.183464 17.0217ZM4.96732 16.9041L3.19542 21.8122L1.40207 16.9116L3.16104 6.82637L4.96742 16.9L4.96732 16.9041Z" fill="#FF0000"/>
<path d="M2.00133 18.5577L2.26425 19.2758L4.11807 19.2549L4.37576 18.536L2.00133 18.5577Z" fill="#FF0000"/>
<path d="M1.55373 17.3367L1.79299 17.9959L4.58407 17.9669L4.82389 17.3018L1.55373 17.3367Z" fill="#FF0000"/>
<path d="M1.53988 16.103L1.43457 16.7129L4.92555 16.6746L4.81838 16.0683L1.53988 16.103Z" fill="#FF0000"/>
<path d="M2.45371 19.7848L2.73624 20.5575L3.65269 20.5489L3.9326 19.7681L2.45371 19.7848Z" fill="#FF0000"/>
<path d="M3.00781 7.68555L3.31188 7.68404L3.27492 7.47497L3.04579 7.47816L3.00781 7.68555Z" fill="#FF0000"/>
<path d="M3.48718 21.0037L2.89977 21.0113L3.19404 21.8176L3.48718 21.0037Z" fill="#FF0000"/>
<path d="M3.5404 8.96664L3.49633 8.70326L2.82983 8.70913L2.78223 8.97461L3.5404 8.96664Z" fill="#FF0000"/>
<path d="M4.46336 14.1074L4.37448 13.6139L1.97081 13.6391L1.88477 14.1328L4.46336 14.1074Z" fill="#FF0000"/>
<path d="M4.23386 12.8228L4.15616 12.3879L2.18579 12.4062L2.10938 12.8418L4.23386 12.8228Z" fill="#FF0000"/>
<path d="M1.75486 14.8701L1.65918 15.4219L4.69605 15.3901L4.59589 14.8422L1.75486 14.8701Z" fill="#FF0000"/>
<path d="M3.77504 10.2513L3.71563 9.92925L2.61583 9.94205L2.55859 10.2656L3.77504 10.2513Z" fill="#FF0000"/>
<path d="M4.00454 11.5358L3.93802 11.1595L2.40086 11.175L2.33398 11.5566L4.00454 11.5358Z" fill="#FF0000"/>
</svg>
