<svg viewBox="0 0 107 141" fill="none" xmlns="http://www.w3.org/2000/svg">
	<style>

	</style>
	<g id="6b99352cf6e918a91d6bdf266b6c24cb">
		<path fill-rule="evenodd" clip-rule="evenodd" d="M99.1855 0.148875C97.8867 -0.319432 96.4541 0.353869 95.9858 1.65274C94.3146 6.28781 92.6388 10.7688 91.0193 15.0993C88.2317 22.5531 85.6109 29.5612 83.4672 36.1419C80.063 46.592 77.7391 56.3049 77.7391 65.6411C77.7391 70.6181 79.3459 75.8 81.5803 80.8826C83.8212 85.9798 86.7934 91.192 89.6876 96.2223C89.8186 96.45 89.9493 96.6772 90.0799 96.904C92.864 101.741 95.5432 106.396 97.5676 110.812C99.6977 115.458 100.97 119.569 100.97 123.091C100.97 124.471 102.089 125.591 103.47 125.591C104.851 125.591 105.97 124.471 105.97 123.091C105.97 118.483 104.338 113.583 102.113 108.728C99.9887 104.095 97.2024 99.2546 94.4571 94.4858C94.3118 94.2332 94.1665 93.9809 94.0215 93.7289C91.1079 88.6649 88.2725 83.6811 86.1575 78.8703C84.0362 74.0448 82.7391 69.6066 82.7391 65.6411C82.7391 57.092 84.8723 47.9711 88.2213 37.6906C90.3365 31.1972 92.8881 24.3762 95.6437 17.0097C97.2704 12.661 98.9682 8.12227 100.689 3.34863C101.158 2.04976 100.484 0.617183 99.1855 0.148875Z" fill="#0A7325"/>
		<path fill-rule="evenodd" clip-rule="evenodd" d="M6.78445 0.148875C8.08332 -0.319432 9.5159 0.353869 9.9842 1.65274C11.6554 6.28781 13.3312 10.7688 14.9507 15.0993C17.7382 22.5531 20.3591 29.5612 22.5028 36.1419C25.907 46.592 28.2309 56.3049 28.2309 65.6411C28.2309 70.6181 26.624 75.8 24.3896 80.8826C22.1488 85.9798 19.1765 91.192 16.2824 96.2223C16.1514 96.45 16.0206 96.6772 15.8901 96.904C13.1059 101.741 10.4267 106.396 8.4024 110.812C6.27231 115.458 5 119.569 5 123.091C5 124.471 3.88071 125.591 2.5 125.591C1.11929 125.591 0 124.471 0 123.091C0 118.483 1.63155 113.583 3.85724 108.728C5.9813 104.095 8.76757 99.2546 11.5128 94.4858C11.6582 94.2332 11.8035 93.9809 11.9485 93.7289C14.862 88.6649 17.6975 83.6811 19.8124 78.8703C21.9338 74.0448 23.2309 69.6066 23.2309 65.6411C23.2309 57.092 21.0976 47.9711 17.7487 37.6906C15.6334 31.1972 13.0819 24.3762 10.3263 17.0097C8.69956 12.661 7.00173 8.12227 5.28059 3.34863C4.81229 2.04976 5.48559 0.617183 6.78445 0.148875Z" fill="#0A7325"/>
		<g id="belly">
			<path id="36c016ba9780f7a79be86571634025f5" class="path"
				d="M47.0643 36V52.756L38.3572 45.5188L33 51.3688L53.5495 72L74 51.3688L68.9764 45.5188L60.2014 52.756V36H47.0643Z"
				fill="#FF0000">
			</path>
			 <circle id="c7e610194b65f2ac3e3947e3ffef173b" cx="46" cy="19" r="2"
                fill="#FE1A1A">
            </circle>
            <circle id="ed690248d7a2ed91f1a34a4ccbe57bb5" cx="39" cy="10" r="2"
                fill="#FE1A1A">

            </circle>
            <circle id="646019b183e7aa5149aba27fe4033ea8" cx="49" cy="10" r="2"
                fill="#FE1A1A">

            </circle>
            <circle id="35622ac9deae3aa440fa238c25c32929" cx="53" cy="19" r="2"
                fill="#FE1A1A">

            </circle>
            <circle id="c01f3822e7e8d7546a5af00683062fc7" cx="57" cy="10" r="2"
                fill="#FE1A1A">

            </circle>
            <circle id="76a8420460f275508d90db61eede703f" cx="68" cy="10" r="2"
                fill="#FE1A1A">

            </circle>
            <circle id="f1d0e29207bf493489fa181f1b5ec55c" cx="73" cy="2" r="2"
                fill="#FE1A1A">

            </circle>
            <circle id="cfeecb905d520f855e3c657c12c8a066" cx="60" cy="2" r="2"
                fill="#FE1A1A">

            </circle>
            <circle id="01a4abfe0f272b4924193448b5634192" cx="46" cy="2" r="2"
                fill="#FE1A1A">

            </circle>
            <circle id="73feaa851478fe79ad2961d862e77750" cx="33" cy="2" r="2"
                fill="#FE1A1A">

            </circle>
            <circle id="4c7acc3e0ef58344ce369d25c8371bbc" cx="53" cy="28" r="2"
                fill="#FE1A1A">

            </circle>
            <circle id="ff89dbec82860114b696e480d4d25d21" cx="60" cy="19" r="2"
                fill="#FE1A1A">
            </circle>
		</g>
	</g>
</svg>