<svg width="229" height="302" viewBox="0 0 229 302" fill="none" xmlns="http://www.w3.org/2000/svg">
<mask id="mask0_608_1140" style="mask-type:alpha" maskUnits="userSpaceOnUse" x="0" y="0" width="229" height="302">
<rect width="228.8" height="301.49" fill="#D9D9D9"/>
</mask>
<g mask="url(#mask0_608_1140)">
<path fill-rule="evenodd" clip-rule="evenodd" d="M214.937 0.304213C212.283 -0.652728 209.355 0.723098 208.398 3.37721C204.983 12.8485 201.559 22.005 198.25 30.8541C192.554 46.0852 187.198 60.4055 182.818 73.8525C175.862 95.2063 171.113 115.054 171.113 134.131C171.113 144.301 174.396 154.89 178.962 165.276C183.541 175.691 189.615 186.342 195.529 196.621C195.796 197.086 196.063 197.551 196.33 198.014C202.019 207.898 207.494 217.41 211.631 226.433C215.983 235.928 218.583 244.327 218.583 251.524C218.583 254.345 220.87 256.633 223.692 256.633C226.513 256.633 228.8 254.345 228.8 251.524C228.8 242.109 225.466 232.096 220.918 222.175C216.578 212.708 210.884 202.817 205.275 193.073C204.978 192.557 204.681 192.041 204.384 191.526C198.431 181.178 192.637 170.994 188.315 161.164C183.98 151.304 181.33 142.235 181.33 134.131C181.33 116.662 185.689 98.0244 192.532 77.0171C196.855 63.7486 202.069 49.8104 207.699 34.7578C211.023 25.8716 214.493 16.5971 218.01 6.8426C218.967 4.18849 217.591 1.26115 214.937 0.304213Z" fill="#0A7325"/>
<path fill-rule="evenodd" clip-rule="evenodd" d="M13.8634 0.304213C16.5175 -0.652728 19.4448 0.723098 20.4018 3.37721C23.8167 12.8485 27.241 22.005 30.5503 30.8541C36.2464 46.0852 41.6018 60.4055 45.9823 73.8525C52.9385 95.2063 57.6871 115.054 57.6871 134.131C57.6871 144.301 54.4037 154.89 49.8379 165.276C45.259 175.691 39.1854 186.342 33.2715 196.621C33.0039 197.086 32.7366 197.551 32.4698 198.014C26.7807 207.898 21.306 217.41 17.1695 226.433C12.8169 235.928 10.217 244.327 10.217 251.524C10.217 254.345 7.92986 256.633 5.10851 256.633C2.28716 256.633 0 254.345 0 251.524C0 242.109 3.33391 232.096 7.88191 222.175C12.2222 212.708 17.9157 202.817 23.5254 193.073C23.8224 192.557 24.1192 192.041 24.4156 191.526C30.3691 181.178 36.1631 170.994 40.4848 161.164C44.8197 151.304 47.47 142.235 47.47 134.131C47.47 116.662 43.111 98.0244 36.2677 77.0171C31.9454 63.7486 26.7315 49.8104 21.1008 34.7578C17.7767 25.8716 14.3074 16.5971 10.7904 6.8426C9.83345 4.18849 11.2093 1.26115 13.8634 0.304213Z" fill="#0A7325"/>
<path d="M101.28 78.6719V112.911L83.4879 98.1226L72.541 110.077L114.532 152.234L156.321 110.077L146.055 98.1226L128.124 112.911V78.6719H101.28Z" fill="#FF0000"/>
<path d="M90.9315 52.1072C93.1886 52.1072 95.0183 50.2775 95.0183 48.0204C95.0183 45.7633 93.1886 43.9336 90.9315 43.9336C88.6745 43.9336 86.8447 45.7633 86.8447 48.0204C86.8447 50.2775 88.6745 52.1072 90.9315 52.1072Z" fill="#FE1A1A"/>
<path d="M74.5844 29.6306C76.8415 29.6306 78.6712 27.8009 78.6712 25.5438C78.6712 23.2868 76.8415 21.457 74.5844 21.457C72.3273 21.457 70.4976 23.2868 70.4976 25.5438C70.4976 27.8009 72.3273 29.6306 74.5844 29.6306Z" fill="#FE1A1A"/>
<path d="M105.235 29.6306C107.493 29.6306 109.322 27.8009 109.322 25.5438C109.322 23.2868 107.493 21.457 105.235 21.457C102.978 21.457 101.149 23.2868 101.149 25.5438C101.149 27.8009 102.978 29.6306 105.235 29.6306Z" fill="#FE1A1A"/>
<path d="M113.409 48.0213C115.666 48.0213 117.496 46.1915 117.496 43.9345C117.496 41.6774 115.666 39.8477 113.409 39.8477C111.152 39.8477 109.322 41.6774 109.322 43.9345C109.322 46.1915 111.152 48.0213 113.409 48.0213Z" fill="#FE1A1A"/>
<path d="M127.713 29.6306C129.97 29.6306 131.8 27.8009 131.8 25.5438C131.8 23.2868 129.97 21.457 127.713 21.457C125.456 21.457 123.626 23.2868 123.626 25.5438C123.626 27.8009 125.456 29.6306 127.713 29.6306Z" fill="#FE1A1A"/>
<path d="M144.06 33.7166C146.317 33.7166 148.147 31.8869 148.147 29.6298C148.147 27.3727 146.317 25.543 144.06 25.543C141.803 25.543 139.973 27.3727 139.973 29.6298C139.973 31.8869 141.803 33.7166 144.06 33.7166Z" fill="#FE1A1A"/>
<path d="M160.407 13.283C162.664 13.283 164.494 11.4533 164.494 9.19618C164.494 6.9391 162.664 5.10938 160.407 5.10938C158.15 5.10938 156.321 6.9391 156.321 9.19618C156.321 11.4533 158.15 13.283 160.407 13.283Z" fill="#FE1A1A"/>
<path d="M127.713 13.283C129.97 13.283 131.8 11.4533 131.8 9.19618C131.8 6.9391 129.97 5.10938 127.713 5.10938C125.456 5.10938 123.626 6.9391 123.626 9.19618C123.626 11.4533 125.456 13.283 127.713 13.283Z" fill="#FE1A1A"/>
<path d="M99.1054 13.283C101.362 13.283 103.192 11.4533 103.192 9.19618C103.192 6.9391 101.362 5.10938 99.1054 5.10938C96.8483 5.10938 95.0186 6.9391 95.0186 9.19618C95.0186 11.4533 96.8483 13.283 99.1054 13.283Z" fill="#FE1A1A"/>
<path d="M66.4108 13.283C68.6679 13.283 70.4976 11.4533 70.4976 9.19618C70.4976 6.9391 68.6679 5.10938 66.4108 5.10938C64.1537 5.10938 62.324 6.9391 62.324 9.19618C62.324 11.4533 64.1537 13.283 66.4108 13.283Z" fill="#FE1A1A"/>
<path d="M113.409 66.4119C115.666 66.4119 117.496 64.5822 117.496 62.3251C117.496 60.068 115.666 58.2383 113.409 58.2383C111.152 58.2383 109.322 60.068 109.322 62.3251C109.322 64.5822 111.152 66.4119 113.409 66.4119Z" fill="#FE1A1A"/>
<path d="M135.887 52.1072C138.144 52.1072 139.973 50.2775 139.973 48.0204C139.973 45.7633 138.144 43.9336 135.887 43.9336C133.63 43.9336 131.8 45.7633 131.8 48.0204C131.8 50.2775 133.63 52.1072 135.887 52.1072Z" fill="#FE1A1A"/>
</g>
</svg>
