<?xml version="1.0" encoding="UTF-8"?>
<svg id="Layer_1" data-name="Layer 1" xmlns="http://www.w3.org/2000/svg" viewBox="0 0 501.9 717.35">
  <defs>
    <style>
      .cls-1 {
        fill: #0a7325;
      }
    </style>
  </defs>
  <rect class="cls-1" x="0" y="0" width="501.9" height="52.36" rx="26.18" ry="26.18"/>
  <rect class="cls-1" x="0" y="664.99" width="501.9" height="52.36" rx="26.18" ry="26.18"/>
  <g>
    <path class="cls-1" d="m38.56,638.6c-5.86,0-10.86-4.24-11.4-9.87-.22-2.27-.33-4.41-.33-6.52v-33.29c0-14.67,1-28.04,2.98-39.75,2.04-12.06,5.18-22.76,9.34-31.8,8.2-17.82,24.32-38.68,49.3-63.78l.04-.04,61.26-60.86c20.17-20.23,24.82-28.22,25.88-30.6-.62-1.35-2.48-4.64-7.81-10.94-5.64-6.67-13.85-15.16-24.4-25.24l-.07-.07-61.25-59.55c-10.74-10.28-19.85-20.37-27.09-29.98-7.44-9.89-13.15-19.6-16.96-28.86-3.79-9.2-6.65-20.18-8.5-32.64-1.81-12.12-2.72-26.05-2.72-41.38v-35.92c0-3.12.25-6.23.78-9.5.95-5.93,6.79-10.01,13.05-9.11,6.26.9,10.57,6.43,9.62,12.36-.35,2.19-.52,4.24-.52,6.26v35.92c0,28.31,3.25,50.56,9.66,66.13,6.35,15.46,19.48,32.78,39.02,51.49l.06.06,61.25,59.55c12.34,11.79,21.4,21.28,27.7,29,7.94,9.73,11.33,16.43,11.33,22.4,0,7.86-5.51,18.61-32.37,45.56l-.04.04-61.25,60.85c-22.8,22.91-37.92,42.27-44.94,57.54-6.91,15.03-10.41,36.19-10.41,62.89v33.29c0,1.45.08,2.94.23,4.55.58,5.97-4.07,11.25-10.37,11.8-.35.03-.71.05-1.06.05Zm137.36-277.3s0,0,0,0c0,0,0,0,0,0Z"/>
    <path class="cls-1" d="m463.34,638.6c-.35,0-.7-.01-1.05-.05-6.3-.54-10.95-5.83-10.37-11.8.16-1.61.23-3.1.23-4.55v-33.29c0-26.69-3.5-47.85-10.42-62.89-7.02-15.26-22.14-34.62-44.94-57.53l-61.29-60.89c-26.87-26.95-32.37-37.7-32.37-45.56,0-5.97,3.39-12.67,11.33-22.4,6.3-7.72,15.36-17.21,27.7-28.99l61.31-59.61c19.54-18.7,32.66-36.02,39.01-51.48,6.41-15.58,9.66-37.83,9.66-66.14v-35.92c0-2.02-.17-4.07-.52-6.26-.95-5.93,3.36-11.46,9.62-12.36,6.26-.9,12.1,3.18,13.05,9.11.52,3.28.78,6.38.78,9.5v35.92c0,15.33-.92,29.26-2.72,41.38-1.86,12.46-4.72,23.44-8.51,32.65-3.81,9.26-9.51,18.97-16.96,28.86-7.24,9.61-16.36,19.7-27.1,29.99l-61.32,59.61c-10.55,10.08-18.76,18.58-24.4,25.24-5.33,6.3-7.19,9.6-7.81,10.94,1.05,2.38,5.7,10.36,25.87,30.59l61.31,60.91c24.98,25.1,41.1,45.96,49.3,63.78,4.16,9.05,7.3,19.75,9.34,31.81,1.98,11.71,2.98,25.09,2.98,39.75v33.29c0,2.12-.11,4.25-.33,6.52-.54,5.64-5.54,9.87-11.4,9.87Zm-137.36-277.3s0,0,0,0c0,0,0,0,0,0Z"/>
  </g>
</svg>