<svg viewBox="0 0 107 141" fill="none" xmlns="http://www.w3.org/2000/svg">
    <style>

    </style>
    <g id="6b99352cf6e918a91d6bdf266b6c24cb">
        <path id="339b0ddb006739aee5b4698bbb9a3866" fill-rule="evenodd" clip-rule="evenodd" d="M8.72484 119.819C8.0059 119.414 7.38515 118.863 6.91487 118.188C5.93502 116.791 5.73104 115.008 6.35756 113.298C8.85877 106.448 11.984 99.8111 15.0091 93.3867L15.1325 93.1247C16.1014 91.0761 17.0667 89.0312 18.0138 86.9717L19.733 83.3258L19.745 83.3006C23.4393 75.5491 27.6257 66.765 26.8907 59.023C26.0966 50.6868 22.5342 43.2966 18.7605 35.4698L18.7555 35.4595C14.3313 26.275 9.75978 16.7846 9.95277 5.57082C9.9909 3.49462 11.0646 1.75026 12.7086 0.792443C11.8268 0.280759 10.7914 0 9.72249 0C6.4879 0 4.01096 2.39789 3.95268 5.57082C3.75969 16.7846 8.33123 26.275 12.7554 35.4595L12.7604 35.4698C16.5341 43.2966 20.0965 50.6868 20.8906 59.023C21.6256 66.765 17.4392 75.5491 13.7449 83.3006L13.733 83.3258L12.0137 86.9717C11.0666 89.0312 10.1013 91.0761 9.1324 93.1247L9.00905 93.3867C5.98389 99.8111 2.85868 106.448 0.357467 113.298C-0.269054 115.008 -0.0650702 116.791 0.914779 118.188C1.96748 119.698 3.77419 120.593 5.74846 120.593C6.84204 120.593 7.85609 120.319 8.72484 119.819Z" fill="#0A7325"></path>
        <path id="6901a8b308735f35b87c0f2424eff4c3" fill-rule="evenodd" clip-rule="evenodd" d="M98.2497 119.819C98.9687 119.414 99.5895 118.863 100.06 118.188C101.04 116.791 101.244 115.008 100.617 113.298C98.1158 106.448 94.9906 99.8111 91.9655 93.3867L91.8421 93.1247C90.8732 91.0761 89.9079 89.0312 88.9609 86.9717L87.2416 83.3258L87.2296 83.3006C83.5353 75.5491 79.3489 66.765 80.0839 59.023C80.878 50.6868 84.4404 43.2966 88.2141 35.4698L88.2191 35.4595C92.6433 26.275 97.2148 16.7846 97.0218 5.57082C96.9837 3.4946 95.9099 1.75023 94.2659 0.792416C95.1477 0.280749 96.1831 0 97.252 0C100.487 0 102.964 2.39789 103.022 5.57082C103.215 16.7846 98.6433 26.275 94.2191 35.4595L94.2141 35.4698C90.4404 43.2966 86.878 50.6868 86.0839 59.023C85.3489 66.765 89.5353 75.5491 93.2296 83.3006L93.2416 83.3258L94.9609 86.9717C95.9079 89.0312 96.8732 91.0761 97.8421 93.1247L97.9655 93.3867C100.991 99.8111 104.116 106.448 106.617 113.298C107.244 115.008 107.04 116.791 106.06 118.188C105.007 119.698 103.2 120.593 101.226 120.593C100.132 120.593 99.1185 120.319 98.2497 119.819Z" fill="#0A7325"></path>
        <g id="belly">
            <path id="36c016ba9780f7a79be86571634025f5" class="path"
            d="M47.0643 36V52.756L38.3572 45.5188L33 51.3688L53.5495 72L74 51.3688L68.9764 45.5188L60.2014 52.756V36H47.0643Z"
            fill="#FF0000">
        </path>
        <circle id="c7e610194b65f2ac3e3947e3ffef173b" cx="42" cy="21" r="2"
        fill="#FE1A1A">
    </circle>
    <circle id="ed690248d7a2ed91f1a34a4ccbe57bb5" cx="34" cy="10" r="2"
    fill="#FE1A1A">

</circle>
<circle id="646019b183e7aa5149aba27fe4033ea8" cx="49" cy="10" r="2"
fill="#FE1A1A">

</circle>
<circle id="35622ac9deae3aa440fa238c25c32929" cx="53" cy="19" r="2"
fill="#FE1A1A">

</circle>
<circle id="c01f3822e7e8d7546a5af00683062fc7" cx="60" cy="10" r="2"
fill="#FE1A1A">

</circle>
<circle id="76a8420460f275508d90db61eede703f" cx="68" cy="12" r="2"
fill="#FE1A1A">

</circle>
<circle id="f1d0e29207bf493489fa181f1b5ec55c" cx="76" cy="2" r="2"
fill="#FE1A1A">

</circle>
<circle id="cfeecb905d520f855e3c657c12c8a066" cx="60" cy="2" r="2"
fill="#FE1A1A">

</circle>
<circle id="01a4abfe0f272b4924193448b5634192" cx="46" cy="2" r="2"
fill="#FE1A1A">

</circle>
<circle id="73feaa851478fe79ad2961d862e77750" cx="30" cy="2" r="2"
fill="#FE1A1A">

</circle>
<circle id="4c7acc3e0ef58344ce369d25c8371bbc" cx="53" cy="28" r="2"
fill="#FE1A1A">

</circle>
<circle id="ff89dbec82860114b696e480d4d25d21" cx="64" cy="21" r="2"
fill="#FE1A1A">
</circle>
</g>
</g>
</svg>