<svg width="166" height="265" viewBox="0 0 166 265" fill="none" xmlns="http://www.w3.org/2000/svg">
<path d="M70.0046 6.32303C72.6198 6.32303 74.7519 8.45516 74.7519 11.0812V14.8858C74.7519 28.4072 85.7298 39.4101 99.2204 39.4101H112.989C116.468 39.4101 119.849 40.0948 123.03 41.4445C126.104 42.7452 128.861 44.6084 131.227 46.9802C133.593 49.3519 135.452 52.1149 136.75 55.1957C138.097 58.389 138.78 61.773 138.78 65.2597C138.78 68.7464 138.097 72.1354 136.75 75.3238C135.452 78.4046 133.593 81.1676 131.227 83.5393C128.861 85.911 126.104 87.7742 123.03 89.075C119.844 90.4247 116.468 91.1093 112.989 91.1093H58.7975C53.5183 91.1093 49.2248 95.4127 49.2248 100.704C49.2248 105.995 53.5183 110.298 58.7975 110.298H133.901C137.379 110.298 140.761 110.983 143.942 112.333C147.016 113.634 149.772 115.497 152.139 117.869C154.505 120.24 156.364 123.003 157.662 126.084C159.008 129.277 159.691 132.661 159.691 136.148C159.691 139.635 159.008 143.024 157.662 146.212C156.364 149.293 154.505 152.056 152.139 154.428C149.772 156.799 147.016 158.663 143.942 159.963C140.756 161.313 137.379 161.998 133.901 161.998H32.0993C26.8201 161.998 22.5266 166.301 22.5266 171.592C22.5266 176.883 26.8201 181.187 32.0993 181.187H121.898C125.377 181.187 128.758 181.871 131.939 183.221C135.013 184.522 137.77 186.385 140.136 188.757C142.502 191.129 144.361 193.892 145.659 196.972C147.006 200.166 147.689 203.55 147.689 207.036C147.689 210.523 147.006 213.912 145.659 217.1C144.361 220.181 142.502 222.944 140.136 225.316C137.77 227.688 135.013 229.551 131.939 230.852C128.753 232.201 125.377 232.886 121.898 232.886H102.45C90.887 232.886 81.4851 242.314 81.4851 253.899C81.4851 256.52 79.3578 258.657 76.7377 258.657H70.0095C67.3943 258.657 65.2622 256.525 65.2622 253.899C65.2622 248.867 66.2478 243.987 68.1848 239.385C70.0583 234.945 72.7369 230.959 76.1474 227.541C79.5578 224.123 83.5342 221.433 87.9644 219.56C92.5556 217.614 97.4249 216.631 102.445 216.631H121.893C127.173 216.631 131.466 212.328 131.466 207.036C131.466 201.745 127.173 197.442 121.893 197.442H32.0944C28.6156 197.442 25.2345 196.757 22.0533 195.408C18.9795 194.107 16.2228 192.244 13.8565 189.872C11.4902 187.5 9.63126 184.737 8.33343 181.656C6.98681 178.463 6.30373 175.079 6.30373 171.592C6.30373 168.106 6.98681 164.717 8.33343 161.528C9.63126 158.447 11.4902 155.684 13.8565 153.313C16.2228 150.941 18.9795 149.078 22.0533 147.777C25.2393 146.427 28.6156 145.743 32.0944 145.743H133.896C139.175 145.743 143.469 141.439 143.469 136.148C143.469 130.857 139.175 126.553 133.896 126.553H58.4413C55.0845 126.505 51.8253 125.825 48.7466 124.519C45.6728 123.218 42.9161 121.355 40.5498 118.983C38.1835 116.612 36.3245 113.849 35.0267 110.768C33.6801 107.575 32.997 104.191 32.997 100.704C32.997 97.2172 33.6801 93.8283 35.0267 90.6399C36.3245 87.559 38.1835 84.7961 40.5498 82.4243C42.9161 80.0526 45.6728 78.1894 48.7466 76.8886C51.9131 75.5487 55.2748 74.8641 58.7389 74.8543H112.984C118.263 74.8543 122.557 70.5509 122.557 65.2597C122.557 59.9685 118.263 55.6652 112.984 55.6652H99.2155C93.7217 55.6652 88.3938 54.5893 83.3733 52.4621C78.5235 50.4082 74.1762 47.4692 70.4438 43.7282C66.7113 39.9872 63.779 35.6251 61.7298 30.7691C59.6172 25.7518 58.5389 20.4264 58.534 14.9396V11.0861C58.534 8.46494 60.6613 6.32792 63.2813 6.32792H70.0095M70.0095 0.00977969H63.2813C57.1776 0.00977969 52.2303 4.96844 52.2303 11.0861V14.9493C52.24 21.2822 53.4793 27.434 55.9237 33.2289C58.29 38.8429 61.6761 43.8798 65.9843 48.1978C70.2974 52.5208 75.3179 55.9097 80.9191 58.2814C86.7203 60.7363 92.8776 61.9833 99.2155 61.9833H112.984C114.785 61.9833 116.253 63.4552 116.253 65.2597C116.253 67.0642 114.785 68.5362 112.984 68.5362H58.7292C54.4258 68.5459 50.2396 69.3968 46.2973 71.0693C42.4722 72.6879 39.0373 75.0059 36.0952 77.9596C33.1532 80.9084 30.8405 84.3511 29.2207 88.185C27.5471 92.1607 26.6933 96.3712 26.6933 100.709C26.6933 105.046 27.5423 109.262 29.2207 113.233C30.8356 117.067 33.1483 120.509 36.0952 123.458C39.0373 126.407 42.4722 128.725 46.2973 130.348C50.1323 131.972 54.1868 132.823 58.3632 132.877H133.901C135.701 132.877 137.17 134.348 137.17 136.158C137.17 137.967 135.701 139.434 133.901 139.434H32.0993C27.7716 139.434 23.5658 140.285 19.604 141.967C15.7789 143.586 12.344 145.904 9.40194 148.858C6.45988 151.807 4.14719 155.249 2.52735 159.083C0.853831 163.059 0 167.269 0 171.607C0 175.945 0.848952 180.16 2.52735 184.131C4.14231 187.965 6.455 191.407 9.40194 194.356C12.344 197.305 15.7789 199.623 19.604 201.246C23.5707 202.924 27.7764 203.78 32.0993 203.78H121.898C123.699 203.78 125.167 205.251 125.167 207.056C125.167 208.86 123.699 210.332 121.898 210.332H102.45C96.5857 210.332 90.887 211.487 85.5152 213.76C80.3336 215.956 75.6839 219.096 71.6928 223.096C67.7017 227.096 64.5694 231.756 62.3787 236.95C60.1099 242.334 58.9585 248.041 58.9585 253.924C58.9585 259.807 63.9058 265 70.0095 265H76.7377C82.8414 265 87.7888 260.041 87.7888 253.924C87.7888 245.821 94.3657 239.229 102.45 239.229H121.898C126.226 239.229 130.432 238.378 134.393 236.696C138.219 235.077 141.654 232.759 144.596 229.805C147.538 226.856 149.85 223.414 151.47 219.58C153.144 215.604 153.998 211.394 153.998 207.056C153.998 202.718 153.149 198.503 151.47 194.532C149.855 190.698 147.543 187.256 144.596 184.307C141.654 181.358 138.219 179.04 134.393 177.416C130.427 175.739 126.226 174.883 121.898 174.883H32.0993C30.2989 174.883 28.8303 173.411 28.8303 171.607C28.8303 169.802 30.2989 168.33 32.0993 168.33H133.901C138.228 168.33 142.434 167.48 146.396 165.797C150.221 164.179 153.656 161.861 156.598 158.907C159.54 155.958 161.853 152.516 163.473 148.682C165.146 144.706 166 140.495 166 136.158C166 131.82 165.151 127.605 163.473 123.634C161.858 119.8 159.545 116.357 156.598 113.409C153.656 110.46 150.221 108.142 146.396 106.518C142.429 104.841 138.224 103.985 133.901 103.985H58.7975C56.9971 103.985 55.5285 102.513 55.5285 100.709C55.5285 98.9043 56.9971 97.4324 58.7975 97.4324H112.989C117.317 97.4324 121.523 96.5815 125.484 94.8992C129.31 93.2806 132.744 90.9626 135.686 88.0089C138.629 85.0602 140.941 81.6175 142.561 77.7835C144.235 73.8078 145.088 69.5924 145.088 65.2597C145.088 60.927 144.239 56.7068 142.561 52.7359C140.946 48.902 138.633 45.4593 135.686 42.5105C132.744 39.5617 129.31 37.2438 125.484 35.6202C121.518 33.9429 117.317 33.0871 112.989 33.0871H99.2204C89.1891 33.0871 81.0557 24.9351 81.0557 14.8809V11.0763C81.0557 4.95866 76.1083 0 70.0046 0L70.0095 0.00977969Z" fill="#0A7325"/>
</svg>
