<svg width="655" height="62" viewBox="0 0 655 62" fill="none" xmlns="http://www.w3.org/2000/svg">
<rect x="1.5" y="5.5" width="620" height="52" rx="8.5" fill="#FF0000" stroke="white" stroke-width="3"/>
<path d="M35.7144 31.3081V33.936H27.1792V31.3081H35.7144ZM28.1787 24.6484V41H24.8096V24.6484H28.1787ZM38.1177 24.6484V41H34.7598V24.6484H38.1177ZM52.021 38.3721V41H43.3174V38.3721H52.021ZM44.418 24.6484V41H41.0488V24.6484H44.418ZM50.8867 31.3081V33.8687H43.3174V31.3081H50.8867ZM52.0098 24.6484V27.2876H43.3174V24.6484H52.0098ZM69.1924 35.5757H72.5503C72.4829 36.6763 72.1797 37.6533 71.6406 38.5068C71.109 39.3604 70.3641 40.0267 69.4058 40.5059C68.4549 40.985 67.3094 41.2246 65.9692 41.2246C64.9211 41.2246 63.9814 41.0449 63.1504 40.6855C62.3193 40.3187 61.6081 39.7946 61.0166 39.1133C60.4326 38.432 59.9871 37.6084 59.6802 36.6426C59.3732 35.6768 59.2197 34.5949 59.2197 33.397V32.2627C59.2197 31.0648 59.377 29.9829 59.6914 29.0171C60.0133 28.0438 60.4701 27.2165 61.0615 26.5352C61.6605 25.8538 62.3755 25.3298 63.2065 24.9629C64.0376 24.596 64.966 24.4126 65.9917 24.4126C67.3543 24.4126 68.5036 24.6597 69.4395 25.1538C70.3828 25.6479 71.1128 26.3293 71.6294 27.1978C72.1535 28.0662 72.4679 29.0545 72.5728 30.1626H69.2036C69.1662 29.5037 69.0352 28.946 68.8105 28.4893C68.5859 28.0251 68.2453 27.6769 67.7886 27.4448C67.3394 27.2052 66.7404 27.0854 65.9917 27.0854C65.4302 27.0854 64.9398 27.1903 64.5205 27.3999C64.1012 27.6095 63.7493 27.9277 63.4648 28.3545C63.1803 28.7812 62.967 29.3203 62.8247 29.9717C62.6899 30.6156 62.6226 31.3717 62.6226 32.2402V33.397C62.6226 34.243 62.6862 34.988 62.8135 35.6318C62.9408 36.2682 63.1354 36.8073 63.3975 37.249C63.667 37.6833 64.0114 38.0127 64.4307 38.2373C64.8574 38.4544 65.3703 38.563 65.9692 38.563C66.673 38.563 67.2533 38.4507 67.71 38.2261C68.1667 38.0015 68.5148 37.6683 68.7544 37.2266C69.0015 36.7848 69.1475 36.2345 69.1924 35.5757ZM88.1943 32.4424V33.2173C88.1943 34.4601 88.0259 35.5757 87.689 36.564C87.3521 37.5522 86.8766 38.3945 86.2627 39.0908C85.6488 39.7796 84.915 40.3075 84.0615 40.6743C83.2155 41.0412 82.2759 41.2246 81.2427 41.2246C80.217 41.2246 79.2773 41.0412 78.4238 40.6743C77.5778 40.3075 76.8441 39.7796 76.2227 39.0908C75.6012 38.3945 75.1183 37.5522 74.7739 36.564C74.437 35.5757 74.2686 34.4601 74.2686 33.2173V32.4424C74.2686 31.1921 74.437 30.0765 74.7739 29.0957C75.1108 28.1074 75.5863 27.2651 76.2002 26.5688C76.8216 25.8726 77.5553 25.341 78.4014 24.9741C79.2549 24.6073 80.1945 24.4238 81.2202 24.4238C82.2534 24.4238 83.193 24.6073 84.0391 24.9741C84.8926 25.341 85.6263 25.8726 86.2402 26.5688C86.8617 27.2651 87.3408 28.1074 87.6777 29.0957C88.0221 30.0765 88.1943 31.1921 88.1943 32.4424ZM84.7915 33.2173V32.4199C84.7915 31.5514 84.7129 30.7878 84.5557 30.1289C84.3984 29.4701 84.1663 28.916 83.8594 28.4668C83.5524 28.0176 83.1781 27.6807 82.7363 27.4561C82.2946 27.224 81.7892 27.1079 81.2202 27.1079C80.6512 27.1079 80.1458 27.224 79.7041 27.4561C79.2699 27.6807 78.8993 28.0176 78.5923 28.4668C78.2928 28.916 78.0645 29.4701 77.9072 30.1289C77.75 30.7878 77.6714 31.5514 77.6714 32.4199V33.2173C77.6714 34.0783 77.75 34.842 77.9072 35.5083C78.0645 36.1672 78.2965 36.7249 78.6035 37.1816C78.9105 37.6309 79.2848 37.9715 79.7266 38.2036C80.1683 38.4357 80.6737 38.5518 81.2427 38.5518C81.8117 38.5518 82.3171 38.4357 82.7588 38.2036C83.2005 37.9715 83.5711 37.6309 83.8706 37.1816C84.1701 36.7249 84.3984 36.1672 84.5557 35.5083C84.7129 34.842 84.7915 34.0783 84.7915 33.2173ZM103.209 38.3721V41H91.4287V38.3721H103.209ZM92.4282 38.3721V45.0093H89.2612L89.0815 38.3721H92.4282ZM105.635 38.3721L105.343 45.0205H102.255V38.3721H105.635ZM101.356 24.6484V27.2876H93.4839V24.6484H101.356ZM103.76 24.6484V41H100.402V24.6484H103.76ZM93.0684 24.6484H96.4375L95.9995 31.3081C95.9321 32.4087 95.8123 33.382 95.6401 34.228C95.4754 35.0666 95.2733 35.804 95.0337 36.4404C94.8016 37.0768 94.5433 37.6346 94.2588 38.1138C93.9743 38.5854 93.6748 38.9972 93.3604 39.3491C93.0459 39.6935 92.7277 40.0005 92.4058 40.27C92.0838 40.5321 91.7694 40.7754 91.4624 41H89.5308V38.3721H90.2832C90.5003 38.1924 90.7287 37.9453 90.9683 37.6309C91.2153 37.3164 91.4474 36.8934 91.6646 36.3618C91.8892 35.8228 92.0838 35.1414 92.2485 34.3179C92.4207 33.4943 92.548 32.491 92.6304 31.3081L93.0684 24.6484ZM118.348 38.3721V41H109.645V38.3721H118.348ZM110.745 24.6484V41H107.376V24.6484H110.745ZM117.214 31.3081V33.8687H109.645V31.3081H117.214ZM118.337 24.6484V27.2876H109.645V24.6484H118.337ZM126.681 35.1714H122.515V32.5435H126.681C127.325 32.5435 127.849 32.4386 128.253 32.229C128.658 32.0119 128.953 31.7124 129.141 31.3306C129.328 30.9487 129.421 30.5182 129.421 30.0391C129.421 29.5524 129.328 29.0994 129.141 28.6802C128.953 28.2609 128.658 27.924 128.253 27.6694C127.849 27.4149 127.325 27.2876 126.681 27.2876H123.683V41H120.313V24.6484H126.681C127.961 24.6484 129.058 24.8805 129.972 25.3447C130.893 25.8014 131.596 26.4341 132.083 27.2427C132.57 28.0513 132.813 28.9759 132.813 30.0166C132.813 31.0723 132.57 31.9857 132.083 32.7568C131.596 33.528 130.893 34.1232 129.972 34.5425C129.058 34.9618 127.961 35.1714 126.681 35.1714ZM139.821 34.2617L133.588 24.6484H137.777L141.438 31.2744H144.279L143.841 34.2617H139.821ZM141.416 33.7451L137.541 41H133.341L138.698 31.791L141.416 33.7451ZM146.48 24.6484V41H143.134V24.6484H146.48ZM155.892 24.6484L149.749 34.2617H145.75L145.312 31.2744H148.131L151.703 24.6484H155.892ZM151.938 41L148.154 33.7451L150.883 31.791L156.139 41H151.938ZM160.867 35.6992L167.437 24.6484H170.806V41H167.437V29.9492L160.867 41H157.498V24.6484H160.867V35.6992ZM180.7 24.6484V41H177.342V24.6484H180.7ZM185.731 24.6484V27.2876H172.389V24.6484H185.731ZM196.018 35.6992L202.588 24.6484H205.957V41H202.588V29.9492L196.018 41H192.649V24.6484H196.018V35.6992ZM218.355 35.5757H221.713C221.646 36.6763 221.343 37.6533 220.804 38.5068C220.272 39.3604 219.527 40.0267 218.569 40.5059C217.618 40.985 216.472 41.2246 215.132 41.2246C214.084 41.2246 213.145 41.0449 212.313 40.6855C211.482 40.3187 210.771 39.7946 210.18 39.1133C209.596 38.432 209.15 37.6084 208.843 36.6426C208.536 35.6768 208.383 34.5949 208.383 33.397V32.2627C208.383 31.0648 208.54 29.9829 208.854 29.0171C209.176 28.0438 209.633 27.2165 210.225 26.5352C210.824 25.8538 211.539 25.3298 212.37 24.9629C213.201 24.596 214.129 24.4126 215.155 24.4126C216.517 24.4126 217.667 24.6597 218.603 25.1538C219.546 25.6479 220.276 26.3293 220.792 27.1978C221.317 28.0662 221.631 29.0545 221.736 30.1626H218.367C218.329 29.5037 218.198 28.946 217.974 28.4893C217.749 28.0251 217.408 27.6769 216.952 27.4448C216.502 27.2052 215.903 27.0854 215.155 27.0854C214.593 27.0854 214.103 27.1903 213.684 27.3999C213.264 27.6095 212.912 27.9277 212.628 28.3545C212.343 28.7812 212.13 29.3203 211.988 29.9717C211.853 30.6156 211.786 31.3717 211.786 32.2402V33.397C211.786 34.243 211.849 34.988 211.977 35.6318C212.104 36.2682 212.299 36.8073 212.561 37.249C212.83 37.6833 213.174 38.0127 213.594 38.2373C214.021 38.4544 214.533 38.563 215.132 38.563C215.836 38.563 216.416 38.4507 216.873 38.2261C217.33 38.0015 217.678 37.6683 217.917 37.2266C218.165 36.7848 218.311 36.2345 218.355 35.5757ZM227.306 24.6484V41H223.937V24.6484H227.306ZM236.942 24.6484L230.675 34.2505H226.554L226.127 31.252H228.878L232.854 24.6484H236.942ZM233.472 41L228.89 33.689L231.226 31.2856L237.47 41H233.472ZM243.927 35.0703L247.948 24.6484H251.575L245.971 37.833C245.777 38.2822 245.552 38.7127 245.297 39.1245C245.05 39.5288 244.755 39.8919 244.41 40.2139C244.066 40.5283 243.654 40.7791 243.175 40.9663C242.696 41.146 242.123 41.2358 241.457 41.2358C241.292 41.2358 241.09 41.2321 240.85 41.2246C240.611 41.2171 240.42 41.2059 240.277 41.1909L240.255 38.563C240.345 38.5854 240.487 38.6004 240.682 38.6079C240.876 38.6079 241.019 38.6079 241.108 38.6079C241.55 38.6079 241.898 38.5443 242.153 38.417C242.407 38.2897 242.61 38.11 242.759 37.8779C242.917 37.6383 243.055 37.3576 243.175 37.0356L243.927 35.0703ZM241.266 24.6484L244.994 32.7456L246.039 36.4629L243.534 36.5078L237.649 24.6484H241.266ZM262.536 35.5757H265.894C265.827 36.6763 265.523 37.6533 264.984 38.5068C264.453 39.3604 263.708 40.0267 262.75 40.5059C261.799 40.985 260.653 41.2246 259.313 41.2246C258.265 41.2246 257.325 41.0449 256.494 40.6855C255.663 40.3187 254.952 39.7946 254.36 39.1133C253.776 38.432 253.331 37.6084 253.024 36.6426C252.717 35.6768 252.563 34.5949 252.563 33.397V32.2627C252.563 31.0648 252.721 29.9829 253.035 29.0171C253.357 28.0438 253.814 27.2165 254.405 26.5352C255.004 25.8538 255.719 25.3298 256.55 24.9629C257.381 24.596 258.31 24.4126 259.335 24.4126C260.698 24.4126 261.847 24.6597 262.783 25.1538C263.727 25.6479 264.457 26.3293 264.973 27.1978C265.497 28.0662 265.812 29.0545 265.917 30.1626H262.547C262.51 29.5037 262.379 28.946 262.154 28.4893C261.93 28.0251 261.589 27.6769 261.132 27.4448C260.683 27.2052 260.084 27.0854 259.335 27.0854C258.774 27.0854 258.284 27.1903 257.864 27.3999C257.445 27.6095 257.093 27.9277 256.809 28.3545C256.524 28.7812 256.311 29.3203 256.168 29.9717C256.034 30.6156 255.966 31.3717 255.966 32.2402V33.397C255.966 34.243 256.03 34.988 256.157 35.6318C256.285 36.2682 256.479 36.8073 256.741 37.249C257.011 37.6833 257.355 38.0127 257.774 38.2373C258.201 38.4544 258.714 38.563 259.313 38.563C260.017 38.563 260.597 38.4507 261.054 38.2261C261.51 38.0015 261.859 37.6683 262.098 37.2266C262.345 36.7848 262.491 36.2345 262.536 35.5757ZM277.585 35.5757H280.943C280.875 36.6763 280.572 37.6533 280.033 38.5068C279.502 39.3604 278.757 40.0267 277.798 40.5059C276.847 40.985 275.702 41.2246 274.362 41.2246C273.314 41.2246 272.374 41.0449 271.543 40.6855C270.712 40.3187 270.001 39.7946 269.409 39.1133C268.825 38.432 268.38 37.6084 268.073 36.6426C267.766 35.6768 267.612 34.5949 267.612 33.397V32.2627C267.612 31.0648 267.77 29.9829 268.084 29.0171C268.406 28.0438 268.863 27.2165 269.454 26.5352C270.053 25.8538 270.768 25.3298 271.599 24.9629C272.43 24.596 273.359 24.4126 274.384 24.4126C275.747 24.4126 276.896 24.6597 277.832 25.1538C278.775 25.6479 279.505 26.3293 280.022 27.1978C280.546 28.0662 280.861 29.0545 280.965 30.1626H277.596C277.559 29.5037 277.428 28.946 277.203 28.4893C276.979 28.0251 276.638 27.6769 276.181 27.4448C275.732 27.2052 275.133 27.0854 274.384 27.0854C273.823 27.0854 273.332 27.1903 272.913 27.3999C272.494 27.6095 272.142 27.9277 271.857 28.3545C271.573 28.7812 271.36 29.3203 271.217 29.9717C271.083 30.6156 271.015 31.3717 271.015 32.2402V33.397C271.015 34.243 271.079 34.988 271.206 35.6318C271.333 36.2682 271.528 36.8073 271.79 37.249C272.06 37.6833 272.404 38.0127 272.823 38.2373C273.25 38.4544 273.763 38.563 274.362 38.563C275.066 38.563 275.646 38.4507 276.103 38.2261C276.559 38.0015 276.907 37.6683 277.147 37.2266C277.394 36.7848 277.54 36.2345 277.585 35.5757ZM290.129 24.6484V41H286.771V24.6484H290.129ZM295.161 24.6484V27.2876H281.819V24.6484H295.161ZM303.482 33.8237H299.282L299.26 31.5103H302.786C303.408 31.5103 303.917 31.4316 304.313 31.2744C304.71 31.1097 305.006 30.8739 305.201 30.5669C305.403 30.2524 305.504 29.8706 305.504 29.4214C305.504 28.9123 305.407 28.5005 305.212 28.186C305.025 27.8716 304.729 27.6432 304.325 27.501C303.928 27.3587 303.415 27.2876 302.786 27.2876H300.45V41H297.081V24.6484H302.786C303.737 24.6484 304.587 24.7383 305.335 24.918C306.092 25.0977 306.732 25.3709 307.256 25.7378C307.78 26.1047 308.181 26.5688 308.458 27.1304C308.735 27.6844 308.873 28.3433 308.873 29.1069C308.873 29.7808 308.72 30.4022 308.413 30.9712C308.113 31.5402 307.638 32.0044 306.986 32.3638C306.342 32.7231 305.5 32.9215 304.459 32.959L303.482 33.8237ZM303.336 41H298.361L299.675 38.3721H303.336C303.928 38.3721 304.411 38.2785 304.785 38.0913C305.16 37.8966 305.437 37.6346 305.616 37.3052C305.796 36.9757 305.886 36.5977 305.886 36.1709C305.886 35.6917 305.803 35.2762 305.639 34.9243C305.481 34.5724 305.227 34.3029 304.875 34.1157C304.523 33.9211 304.059 33.8237 303.482 33.8237H300.237L300.259 31.5103H304.302L305.077 32.4199C306.073 32.4049 306.874 32.5809 307.48 32.9478C308.094 33.3071 308.54 33.7751 308.817 34.3516C309.101 34.9281 309.244 35.5457 309.244 36.2046C309.244 37.2528 309.015 38.1362 308.559 38.855C308.102 39.5662 307.432 40.1016 306.548 40.4609C305.672 40.8203 304.602 41 303.336 41ZM322.743 38.3721V41H314.039V38.3721H322.743ZM315.14 24.6484V41H311.771V24.6484H315.14ZM321.608 31.3081V33.8687H314.039V31.3081H321.608ZM322.731 24.6484V27.2876H314.039V24.6484H322.731ZM335.613 31.3081V33.936H327.078V31.3081H335.613ZM328.077 24.6484V41H324.708V24.6484H328.077ZM338.016 24.6484V41H334.658V24.6484H338.016ZM351.852 31.3081V33.936H343.317V31.3081H351.852ZM344.316 24.6484V41H340.947V24.6484H344.316ZM354.255 24.6484V41H350.897V24.6484H354.255ZM359.41 30.6118H363.229C364.509 30.6118 365.613 30.8252 366.542 31.252C367.477 31.6787 368.192 32.2777 368.687 33.0488C369.188 33.82 369.439 34.7184 369.439 35.7441C369.439 36.5228 369.297 37.234 369.012 37.8779C368.728 38.5143 368.316 39.0684 367.777 39.54C367.238 40.0042 366.586 40.3636 365.823 40.6182C365.059 40.8727 364.194 41 363.229 41H357.209V24.6484H360.589V38.3721H363.229C363.865 38.3721 364.393 38.2523 364.812 38.0127C365.239 37.7731 365.557 37.4549 365.767 37.0581C365.976 36.6538 366.081 36.2083 366.081 35.7217C366.081 35.2575 365.976 34.8382 365.767 34.4639C365.557 34.082 365.239 33.7826 364.812 33.5654C364.393 33.3483 363.865 33.2397 363.229 33.2397H359.41V30.6118ZM374.246 24.6484V41H370.888V24.6484H374.246ZM380.153 24.6484L383.23 30.3535L386.307 24.6484H390.159L385.409 32.7568L390.283 41H386.397L383.23 35.1826L380.063 41H376.155L381.04 32.7568L376.278 24.6484H380.153ZM410.677 38.3721V41H398.896V38.3721H410.677ZM399.896 38.3721V45.0093H396.729L396.549 38.3721H399.896ZM413.103 38.3721L412.811 45.0205H409.723V38.3721H413.103ZM408.824 24.6484V27.2876H400.952V24.6484H408.824ZM411.228 24.6484V41H407.87V24.6484H411.228ZM400.536 24.6484H403.905L403.467 31.3081C403.4 32.4087 403.28 33.382 403.108 34.228C402.943 35.0666 402.741 35.804 402.501 36.4404C402.269 37.0768 402.011 37.6346 401.727 38.1138C401.442 38.5854 401.143 38.9972 400.828 39.3491C400.514 39.6935 400.195 40.0005 399.874 40.27C399.552 40.5321 399.237 40.7754 398.93 41H396.999V38.3721H397.751C397.968 38.1924 398.196 37.9453 398.436 37.6309C398.683 37.3164 398.915 36.8934 399.132 36.3618C399.357 35.8228 399.552 35.1414 399.716 34.3179C399.889 33.4943 400.016 32.491 400.098 31.3081L400.536 24.6484ZM428.006 32.4424V33.2173C428.006 34.4601 427.837 35.5757 427.5 36.564C427.164 37.5522 426.688 38.3945 426.074 39.0908C425.46 39.7796 424.727 40.3075 423.873 40.6743C423.027 41.0412 422.087 41.2246 421.054 41.2246C420.028 41.2246 419.089 41.0412 418.235 40.6743C417.389 40.3075 416.656 39.7796 416.034 39.0908C415.413 38.3945 414.93 37.5522 414.585 36.564C414.249 35.5757 414.08 34.4601 414.08 33.2173V32.4424C414.08 31.1921 414.249 30.0765 414.585 29.0957C414.922 28.1074 415.398 27.2651 416.012 26.5688C416.633 25.8726 417.367 25.341 418.213 24.9741C419.066 24.6073 420.006 24.4238 421.032 24.4238C422.065 24.4238 423.005 24.6073 423.851 24.9741C424.704 25.341 425.438 25.8726 426.052 26.5688C426.673 27.2651 427.152 28.1074 427.489 29.0957C427.834 30.0765 428.006 31.1921 428.006 32.4424ZM424.603 33.2173V32.4199C424.603 31.5514 424.524 30.7878 424.367 30.1289C424.21 29.4701 423.978 28.916 423.671 28.4668C423.364 28.0176 422.99 27.6807 422.548 27.4561C422.106 27.224 421.601 27.1079 421.032 27.1079C420.463 27.1079 419.957 27.224 419.516 27.4561C419.081 27.6807 418.711 28.0176 418.404 28.4668C418.104 28.916 417.876 29.4701 417.719 30.1289C417.562 30.7878 417.483 31.5514 417.483 32.4199V33.2173C417.483 34.0783 417.562 34.842 417.719 35.5083C417.876 36.1672 418.108 36.7249 418.415 37.1816C418.722 37.6309 419.096 37.9715 419.538 38.2036C419.98 38.4357 420.485 38.5518 421.054 38.5518C421.623 38.5518 422.129 38.4357 422.57 38.2036C423.012 37.9715 423.383 37.6309 423.682 37.1816C423.982 36.7249 424.21 36.1672 424.367 35.5083C424.524 34.842 424.603 34.0783 424.603 33.2173ZM441.123 24.6484V27.2876H433.767V41H430.409V24.6484H441.123ZM432.61 30.6118H436.429C437.716 30.6118 438.825 30.8252 439.753 31.252C440.681 31.6787 441.396 32.2777 441.898 33.0488C442.4 33.82 442.65 34.7184 442.65 35.7441C442.65 36.5228 442.508 37.234 442.224 37.8779C441.939 38.5143 441.524 39.0684 440.977 39.54C440.438 40.0042 439.787 40.3636 439.023 40.6182C438.259 40.8727 437.395 41 436.429 41H430.409V24.6484H433.79V38.3721H436.429C437.073 38.3721 437.604 38.2523 438.023 38.0127C438.443 37.7731 438.757 37.4549 438.967 37.0581C439.184 36.6538 439.292 36.2083 439.292 35.7217C439.292 35.2575 439.184 34.8382 438.967 34.4639C438.757 34.082 438.443 33.7826 438.023 33.5654C437.604 33.3483 437.073 33.2397 436.429 33.2397H432.61V30.6118ZM451.5 27.4448L447.053 41H443.47L449.546 24.6484H451.826L451.5 27.4448ZM455.195 41L450.736 27.4448L450.377 24.6484H452.679L458.789 41H455.195ZM454.993 34.9131V37.5522H446.356V34.9131H454.993ZM466.706 33.8237H462.506L462.483 31.5103H466.01C466.631 31.5103 467.14 31.4316 467.537 31.2744C467.934 31.1097 468.23 30.8739 468.424 30.5669C468.626 30.2524 468.728 29.8706 468.728 29.4214C468.728 28.9123 468.63 28.5005 468.436 28.186C468.248 27.8716 467.953 27.6432 467.548 27.501C467.152 27.3587 466.639 27.2876 466.01 27.2876H463.674V41H460.305V24.6484H466.01C466.961 24.6484 467.81 24.7383 468.559 24.918C469.315 25.0977 469.955 25.3709 470.479 25.7378C471.004 26.1047 471.404 26.5688 471.681 27.1304C471.958 27.6844 472.097 28.3433 472.097 29.1069C472.097 29.7808 471.943 30.4022 471.636 30.9712C471.337 31.5402 470.861 32.0044 470.21 32.3638C469.566 32.7231 468.724 32.9215 467.683 32.959L466.706 33.8237ZM466.56 41H461.585L462.899 38.3721H466.56C467.152 38.3721 467.634 38.2785 468.009 38.0913C468.383 37.8966 468.66 37.6346 468.84 37.3052C469.02 36.9757 469.109 36.5977 469.109 36.1709C469.109 35.6917 469.027 35.2762 468.862 34.9243C468.705 34.5724 468.451 34.3029 468.099 34.1157C467.747 33.9211 467.283 33.8237 466.706 33.8237H463.46L463.483 31.5103H467.526L468.301 32.4199C469.297 32.4049 470.098 32.5809 470.704 32.9478C471.318 33.3071 471.764 33.7751 472.041 34.3516C472.325 34.9281 472.467 35.5457 472.467 36.2046C472.467 37.2528 472.239 38.1362 471.782 38.855C471.326 39.5662 470.655 40.1016 469.772 40.4609C468.896 40.8203 467.825 41 466.56 41ZM488.426 32.4424V33.2173C488.426 34.4601 488.257 35.5757 487.92 36.564C487.583 37.5522 487.108 38.3945 486.494 39.0908C485.88 39.7796 485.146 40.3075 484.293 40.6743C483.447 41.0412 482.507 41.2246 481.474 41.2246C480.448 41.2246 479.509 41.0412 478.655 40.6743C477.809 40.3075 477.076 39.7796 476.454 39.0908C475.833 38.3945 475.35 37.5522 475.005 36.564C474.668 35.5757 474.5 34.4601 474.5 33.2173V32.4424C474.5 31.1921 474.668 30.0765 475.005 29.0957C475.342 28.1074 475.818 27.2651 476.432 26.5688C477.053 25.8726 477.787 25.341 478.633 24.9741C479.486 24.6073 480.426 24.4238 481.452 24.4238C482.485 24.4238 483.424 24.6073 484.271 24.9741C485.124 25.341 485.858 25.8726 486.472 26.5688C487.093 27.2651 487.572 28.1074 487.909 29.0957C488.254 30.0765 488.426 31.1921 488.426 32.4424ZM485.023 33.2173V32.4199C485.023 31.5514 484.944 30.7878 484.787 30.1289C484.63 29.4701 484.398 28.916 484.091 28.4668C483.784 28.0176 483.41 27.6807 482.968 27.4561C482.526 27.224 482.021 27.1079 481.452 27.1079C480.883 27.1079 480.377 27.224 479.936 27.4561C479.501 27.6807 479.131 28.0176 478.824 28.4668C478.524 28.916 478.296 29.4701 478.139 30.1289C477.981 30.7878 477.903 31.5514 477.903 32.4199V33.2173C477.903 34.0783 477.981 34.842 478.139 35.5083C478.296 36.1672 478.528 36.7249 478.835 37.1816C479.142 37.6309 479.516 37.9715 479.958 38.2036C480.4 38.4357 480.905 38.5518 481.474 38.5518C482.043 38.5518 482.549 38.4357 482.99 38.2036C483.432 37.9715 483.803 37.6309 484.102 37.1816C484.402 36.7249 484.63 36.1672 484.787 35.5083C484.944 34.842 485.023 34.0783 485.023 33.2173ZM494.232 24.6484V41H490.863V24.6484H494.232ZM503.868 24.6484L497.601 34.2505H493.479L493.053 31.252H495.804L499.78 24.6484H503.868ZM500.397 41L495.815 33.689L498.151 31.2856L504.396 41H500.397ZM514.694 35.6992L521.264 24.6484H524.633V41H521.264V29.9492L514.694 41H511.325V24.6484H514.694V35.6992ZM544.017 24.6484V27.2876H536.649V41H533.292V24.6484H544.017ZM547.644 24.6484H550.497L554.697 36.6538L558.897 24.6484H561.75L555.842 41H553.551L547.644 24.6484ZM546.105 24.6484H548.947L549.463 36.3506V41H546.105V24.6484ZM560.447 24.6484H563.299V41H559.93V36.3506L560.447 24.6484ZM579.685 32.4424V33.2173C579.685 34.4601 579.516 35.5757 579.179 36.564C578.842 37.5522 578.367 38.3945 577.753 39.0908C577.139 39.7796 576.405 40.3075 575.552 40.6743C574.706 41.0412 573.766 41.2246 572.733 41.2246C571.707 41.2246 570.768 41.0412 569.914 40.6743C569.068 40.3075 568.334 39.7796 567.713 39.0908C567.091 38.3945 566.609 37.5522 566.264 36.564C565.927 35.5757 565.759 34.4601 565.759 33.2173V32.4424C565.759 31.1921 565.927 30.0765 566.264 29.0957C566.601 28.1074 567.076 27.2651 567.69 26.5688C568.312 25.8726 569.046 25.341 569.892 24.9741C570.745 24.6073 571.685 24.4238 572.71 24.4238C573.744 24.4238 574.683 24.6073 575.529 24.9741C576.383 25.341 577.117 25.8726 577.73 26.5688C578.352 27.2651 578.831 28.1074 579.168 29.0957C579.512 30.0765 579.685 31.1921 579.685 32.4424ZM576.282 33.2173V32.4199C576.282 31.5514 576.203 30.7878 576.046 30.1289C575.889 29.4701 575.657 28.916 575.35 28.4668C575.043 28.0176 574.668 27.6807 574.227 27.4561C573.785 27.224 573.279 27.1079 572.71 27.1079C572.141 27.1079 571.636 27.224 571.194 27.4561C570.76 27.6807 570.389 28.0176 570.083 28.4668C569.783 28.916 569.555 29.4701 569.397 30.1289C569.24 30.7878 569.162 31.5514 569.162 32.4199V33.2173C569.162 34.0783 569.24 34.842 569.397 35.5083C569.555 36.1672 569.787 36.7249 570.094 37.1816C570.401 37.6309 570.775 37.9715 571.217 38.2036C571.659 38.4357 572.164 38.5518 572.733 38.5518C573.302 38.5518 573.807 38.4357 574.249 38.2036C574.691 37.9715 575.061 37.6309 575.361 37.1816C575.66 36.7249 575.889 36.1672 576.046 35.5083C576.203 34.842 576.282 34.0783 576.282 33.2173Z" fill="white"/>
<path d="M587.071 11.8626L587.081 11.8876L587.092 11.9122C587.316 12.4027 587.603 12.9426 588.002 13.4597L600.334 34.7568L600.334 34.7568L612.725 56.1586V56.1632L612.884 56.4805L612.891 56.4948V56.5951L613.144 56.9735L613.156 56.9905C613.221 57.0883 613.331 57.2525 613.488 57.4312C613.521 57.4822 613.561 57.5363 613.607 57.5917C614.954 59.3226 617.113 60.5 619.504 60.5C622.036 60.5 624.247 59.2237 625.592 57.3529C625.684 57.2388 625.75 57.1281 625.795 57.0406L625.796 57.0398L625.887 56.895L626.094 56.5634L626.108 56.5414L626.121 56.5189L638.756 34.7158L638.756 34.7156L651.265 13.1209L651.266 13.1198L651.722 12.3334L651.754 12.2798L651.78 12.2238C652.249 11.2376 652.507 10.1476 652.507 8.96891C652.507 4.81389 649.123 1.5 645.022 1.5H619.545H594.026C589.884 1.5 586.5 4.85537 586.5 8.96891C586.5 9.99866 586.706 10.9804 587.071 11.8626ZM613.249 57.0362C613.264 57.0509 613.258 57.0464 613.24 57.0272L613.249 57.0362Z" fill="#FF0000" stroke="white" stroke-width="3" stroke-miterlimit="10"/>
<path d="M615.847 41.3862C615.847 40.1841 616.179 39.2307 616.844 38.609C617.509 37.9872 618.465 37.6556 619.712 37.6556C620.917 37.6556 621.873 37.9872 622.538 38.609C623.203 39.2307 623.536 40.1841 623.536 41.3447C623.536 42.5053 623.203 43.4173 622.538 44.0805C621.873 44.7437 620.917 45.0753 619.754 45.0753C618.507 45.0753 617.593 44.7437 616.928 44.1219C616.221 43.4587 615.847 42.5468 615.847 41.3862ZM622.414 33.925H617.052L615.93 12.5779H623.494L622.414 33.925Z" fill="white"/>
</svg>
