<svg width="160" height="155" viewBox="0 0 160 155" fill="none" xmlns="http://www.w3.org/2000/svg">
    <path d="M88.2154 73.0411C87.9811 72.6235 87.9582 72.1195 88.2048 71.6905C88.5663 71.0032 89.4287 70.7455 90.1301 71.1272L104.392 78.8882C105.079 79.2453 105.333 80.1039 104.947 80.8051C104.586 81.4924 103.723 81.7501 103.022 81.3685L88.7604 73.6074C88.5266 73.4802 88.3285 73.3006 88.2044 73.0795L88.2154 73.0411Z" fill="#0A7325"/>
    <path d="M97.4064 67.8852C97.1721 67.4675 97.1492 66.9636 97.3958 66.5345C97.7573 65.8472 98.6197 65.5895 99.3211 65.9712L112.089 72.9229C112.777 73.28 113.031 74.1386 112.645 74.8398C112.283 75.5271 111.421 75.7848 110.719 75.4031L97.9515 68.4514C97.7177 68.3242 97.5195 68.1447 97.3954 67.9236L97.4064 67.8852Z" fill="#0A7325"/>
    <path d="M106.621 62.7148C106.387 62.2972 106.364 61.7932 106.611 61.3642C106.972 60.6769 107.835 60.4192 108.536 60.8009L117.692 65.7736C118.38 66.1307 118.634 66.9893 118.248 67.6905C117.887 68.3778 117.024 68.6355 116.323 68.2538L107.166 63.2811C106.933 63.1539 106.734 62.9744 106.61 62.7533L106.621 62.7148Z" fill="#0A7325"/>
    <path d="M84.7698 82.8231C84.0531 81.5456 83.6933 80.0356 83.762 78.479C83.8942 75.5302 85.5 72.9498 88.0695 71.5082L127.255 49.5247C118.989 47.7023 98.3917 43.8185 90.4361 48.2817C83.9628 51.9133 79.8886 58.7209 79.7887 66.012C79.7736 66.7956 79.1426 67.408 78.3705 67.4213C77.5846 67.41 76.9734 66.7839 76.9638 66.0141C77.0674 57.6874 81.6951 49.9556 89.0331 45.8389C100.028 39.6707 130.117 47.273 131.475 47.6092L132.91 47.9669L132.467 49.3781C132.068 50.6355 122.876 80.3398 111.882 86.5079C104.074 90.888 94.6317 90.5007 87.2229 85.5166C86.1775 84.8111 85.3378 83.8933 84.7451 82.837L84.7698 82.8231ZM128.658 51.9675L89.4478 73.9649C87.743 74.9214 86.6935 76.6406 86.5925 78.6029C86.5134 80.4883 87.3351 82.1268 88.8648 83.1743C95.3603 87.5727 103.673 87.9153 110.542 84.0619C118.498 79.5987 125.918 59.9965 128.671 51.9921L128.658 51.9675Z" fill="#0A7325"/>
    <path d="M65.9726 72.8259C65.8623 72.6294 65.8015 72.4051 65.8038 72.1777L65.4732 55.9552C65.4636 55.1854 66.067 54.5239 66.8638 54.4967C67.636 54.4834 68.2965 55.0818 68.3199 55.8762L68.6643 72.1233C68.6739 72.8931 68.0705 73.5546 67.2737 73.5817C66.7296 73.5963 66.2482 73.3172 66.0001 72.875L65.9726 72.8259Z" fill="#0A7325"/>
    <path d="M56.9398 67.4932C56.8295 67.2966 56.7687 67.0724 56.771 66.845L56.4791 52.3126C56.4695 51.5428 57.0728 50.8813 57.8697 50.8542C58.6418 50.8409 59.3024 51.4393 59.3258 52.2336L59.6177 66.766C59.6273 67.5358 59.0239 68.1973 58.2271 68.2244C57.683 68.239 57.2016 67.9599 56.9535 67.5177L56.9398 67.4932Z" fill="#0A7325"/>
    <path d="M47.9057 62.1606C47.7954 61.964 47.7346 61.7398 47.7369 61.5124L47.5181 51.1056C47.5085 50.3358 48.1119 49.6743 48.9088 49.6471C49.6809 49.6338 50.3414 50.2322 50.3648 51.0266L50.5836 61.4334C50.5932 62.2032 49.9898 62.8647 49.193 62.8918C48.6489 62.9064 48.1675 62.6274 47.9194 62.1851L47.9057 62.1606Z" fill="#0A7325"/>
    <path d="M35.5162 75.2808C29.3141 64.2256 25.1386 49.2558 24.8814 48.3342L24.475 46.915L25.9171 46.5904C27.2081 46.286 57.5712 39.2646 68.3871 45.6318C76.0672 50.1731 80.4235 58.5171 79.7383 67.4285C79.5234 70.2299 77.8981 72.6597 75.3861 73.9721C72.7752 75.34 69.7056 75.2533 67.1942 73.7876L28.6507 50.9999C31.1571 59.0574 38.0202 78.8177 45.8296 83.4157C52.1041 87.1307 59.9633 87.2434 66.3296 83.7687C66.9967 83.3944 67.882 83.6407 68.2541 84.304C68.64 84.9918 68.375 85.8511 67.7079 86.2254C60.4906 90.2098 51.5404 90.0631 44.3939 85.8361C41.1783 83.9258 38.1734 79.9592 35.5409 75.2669L35.5162 75.2808ZM74.4033 55.6608C72.6805 52.5899 70.1286 49.9519 66.9652 48.0768C59.1421 43.4542 38.4234 46.9384 30.1002 48.604L68.6684 71.3779C70.3216 72.3561 72.3634 72.4057 74.0957 71.4984C75.754 70.6327 76.7982 69.0779 76.9434 67.2523C77.2632 63.1324 76.3466 59.1247 74.4171 55.6854L74.4033 55.6608Z" fill="#0A7325"/>
    <path d="M62.8751 100.597C62.503 99.9335 62.7186 99.1019 63.3719 98.7031L77.3275 90.2278C78.0193 89.8397 78.877 90.0368 79.2738 90.6863C79.6953 91.3219 79.4579 92.2303 78.8045 92.6291L64.849 101.104C64.1572 101.492 63.2995 101.295 62.9027 100.646L62.8751 100.597Z" fill="#0A7325"/>
    <path d="M64.1854 110.229C63.8132 109.566 64.0289 108.735 64.6822 108.336L77.1582 100.755C77.85 100.367 78.7077 100.564 79.1045 101.213C79.5507 101.835 79.2886 102.757 78.6353 103.156L66.1593 110.737C65.4675 111.125 64.6098 110.928 64.2129 110.279L64.1854 110.229Z" fill="#0A7325"/>
    <path d="M67.5678 118.571C67.1957 117.908 67.4114 117.077 68.0647 116.678L77.0024 111.244C77.6941 110.856 78.5518 111.053 78.9487 111.702C79.3346 112.39 79.1327 113.246 78.4794 113.645L69.5417 119.079C68.8499 119.467 67.9922 119.27 67.5954 118.621L67.5678 118.571Z" fill="#0A7325"/>
    <path d="M58.8496 116.873C56.2172 112.18 54.3597 107.538 54.4439 103.808C54.5712 94.8871 59.6821 86.9165 67.7267 83.017C70.2553 81.7922 73.1767 81.962 75.5892 83.4832C78.0679 85.0641 79.5317 87.7312 79.4873 90.663L78.8209 135.448C84.5807 129.213 98.3529 113.347 98.4854 104.261C98.5773 97.0718 94.8859 90.2604 88.812 86.4976C88.16 86.0882 87.9304 85.2157 88.3689 84.5498C88.7827 83.8978 89.6726 83.6892 90.3246 84.0986C97.2321 88.3628 101.447 96.1077 101.324 104.284C101.145 116.819 79.3027 139.086 78.3701 140.029L77.3415 141.091L76.3558 140.029C75.6896 139.304 65.0903 127.938 58.9019 116.908L58.8496 116.873ZM75.9513 87.8342C75.5103 87.0481 74.8578 86.3482 74.0628 85.8576C72.4837 84.8378 70.6178 84.7542 68.9567 85.5569C61.8538 88.9926 57.3705 95.9974 57.2578 103.845C57.1253 112.931 70.4231 129.049 75.9685 135.401L76.6349 90.616C76.6662 89.6295 76.3952 88.6833 75.9266 87.8481L75.9513 87.8342Z" fill="#0A7325"/>
    <path d="M88.0894 31.478C88.145 27.1187 80.3665 18.1753 80.3665 18.1753C80.3665 18.1753 72.3277 26.9487 72.2474 31.3218C72.1672 35.695 75.6852 39.2444 80.0325 39.2926C84.4044 39.3269 87.9953 35.8265 88.0647 31.4918L88.0894 31.478Z" fill="#0A7325"/>
    <path d="M34.793 93.968C30.9881 96.1026 27.0645 107.348 27.0645 107.348C27.0645 107.348 38.6816 109.874 42.5112 107.726C46.3408 105.577 47.7063 100.774 45.57 96.9657C43.4337 93.1578 38.6226 91.8195 34.793 93.968Z" fill="#0A7325"/>
    <path d="M115.501 108.476C119.25 110.7 130.952 108.399 130.952 108.399C130.952 108.399 127.374 97.0991 123.625 94.8745C119.875 92.6498 115.016 93.8899 112.781 97.6635C110.531 101.413 111.752 106.251 115.526 108.462L115.501 108.476Z" fill="#0A7325"/>
</svg>
