<svg width="90" height="87" viewBox="0 0 90 87" fill="none" xmlns="http://www.w3.org/2000/svg">
<path d="M30.7969 82.6244V37.6578C30.7969 37.3114 32.2346 36.2305 32.4667 35.995C33.7485 34.6855 34.9332 33.279 36.1527 31.9417C38.7613 29.0872 41.4565 26.527 43.7014 23.3364C46.8435 18.871 49.3932 14.0209 51.742 9.10164C52.7362 7.0196 53.4811 4.54263 55.0573 2.87631C56.249 1.6153 59.1244 -0.494451 61.0471 0.104872C63.4721 0.863552 64.986 2.9837 65.2909 4.95488C65.8347 8.57161 66.1465 12.2749 65.329 15.8743C64.5945 19.1204 63.3093 22.2417 61.5286 25.0547C60.427 26.7938 57.7352 30.6669 58.1683 32.8321C58.3553 33.7605 69.7667 33.0434 70.7402 33.0261C73.7125 32.9741 76.6884 32.9048 79.6607 32.8771C85.266 32.8217 91.81 36.182 89.4439 42.9305C88.4601 45.7331 85.8653 46.0761 84.0084 47.9641C86.1009 50.0738 88.0478 52.0693 87.3134 55.395C86.7418 57.9898 84.9195 58.79 82.8687 60.051C81.0707 61.1561 83.1909 62.7982 83.1909 62.7982C84.147 63.9899 84.975 65.3237 85.1724 66.8687C85.3006 67.8803 85.1447 68.9196 84.7602 69.8654C84.2786 71.0467 83.416 72.0617 82.356 72.7684C81.2023 73.534 79.2831 73.6622 80.3363 74.7673C81.9576 76.4683 81.6181 77.5665 81.4587 79.3506C81.0534 83.9304 77.1457 83.8022 73.6086 83.778C70.9931 83.7606 68.381 83.7052 65.7655 83.6498C59.114 83.5043 52.4383 83.3103 45.7869 83.1059C40.7983 82.9535 35.8305 82.7941 30.7969 82.6244V82.6244Z" fill="#0A7325"/>
<path d="M22.0433 32.001H6.57177C2.94228 32.001 0 34.9433 0 38.5727V80.4283C0 84.0578 2.94228 87.0001 6.57177 87.0001H22.0433C25.6728 87.0001 28.6151 84.0578 28.6151 80.4283V38.5727C28.6151 34.9433 25.6728 32.001 22.0433 32.001Z" fill="#0A7325"/>
</svg>
