<svg width="161" height="256" viewBox="0 0 81 128" fill="none" xmlns="http://www.w3.org/2000/svg" id="flora">
    <style>
        #flora circle {
        color: #FE1A1A;
        animation: color-change;
        animation-iteration-count: 1;
        }
        @keyframes color-change {
        from { color: #FE1A1A; }
        to { color: #B3D736; }
        }
        #flora circle:nth-child(3) {
        animation-delay: 0.3s;
        animation-duration: 6.1s;
        }
        #flora circle:nth-child(4) {
        animation-delay: 0.6s;
        animation-duration: 5.8s;
        }
        #flora circle:nth-child(5) {
        animation-delay: 0.9s;
        animation-duration: 5.5s;
        }
        #flora circle:nth-child(6) {
        animation-delay: 1.2s;
        animation-duration: 5.2s;
        }
        #flora circle:nth-child(7) {
        animation-delay: 1.5s;
        animation-duration: 4.9s;
        }
        #flora circle:nth-child(8) {
        animation-delay: 1.8s;
        animation-duration: 4.6s;
        }
        #flora circle:nth-child(9) {
        animation-delay: 2.1s;
        animation-duration: 4.3s;
        }
        #flora circle:nth-child(10) {
        animation-delay: 2.4s;
        animation-duration: 4s;
        }
        #flora circle:nth-child(11) {
        animation-delay: 2.7s;
        animation-duration: 3.7s;
        }
        #flora circle:nth-child(12) {
        animation-delay: 3s;
        animation-duration: 3.4s;
        }
        #flora circle:nth-child(13) {
        animation-delay: 3.3s;
        animation-duration: 3.1s;
        }
        #flora circle:nth-child(14) {
        animation-delay: 3.6s;
        animation-duration: 2.8s;
        }
        #flora circle:nth-child(15) {
        animation-delay: 3.9s;
        animation-duration: 2.5s;
        }
        #flora circle:nth-child(16) {
        animation-delay: 4.2s;
        animation-duration: 2.2s;
        }
        #flora circle:nth-child(17) {
        animation-delay: 4.5s;
        animation-duration: 1.9s;
        }
        #flora circle:nth-child(18) {
        animation-delay: 4.8s;
        animation-duration: 1.6s;
        }
        #flora circle:nth-child(19) {
        animation-delay: 5.1s;
        animation-duration: 1.3s;
        }
    </style>
    <path d="M33.8928 3.05151C35.1596 3.05151 36.1902 4.08222 36.1902 5.34915V7.18623C36.1902 13.7178 41.5035 19.0318 48.0347 19.0318H54.6996C56.3843 19.0318 58.02 19.3621 59.5618 20.0137C61.0499 20.6424 62.3851 21.5422 63.5304 22.688C64.6761 23.8337 65.5755 25.169 66.2045 26.6573C66.856 28.1989 67.1862 29.8351 67.1862 31.5196C67.1862 33.2041 66.856 34.8403 66.2045 36.3822C65.5758 37.8702 64.6761 39.2058 63.5304 40.3512C62.3851 41.4967 61.0496 42.3965 59.5618 43.0255C58.02 43.6771 56.3843 44.0074 54.6996 44.0074H28.4639C25.9083 44.0074 23.8294 46.0868 23.8294 48.6423C23.8294 51.1979 25.9083 53.2773 28.4639 53.2773H64.8214C66.506 53.2773 68.1418 53.6075 69.6836 54.2591C71.1716 54.8882 72.5068 55.7877 73.6522 56.9334C74.7978 58.0792 75.6972 59.4145 76.3262 60.9027C76.9778 62.4446 77.308 64.0806 77.308 65.7654C77.308 67.4501 76.9778 69.0861 76.3262 70.628C75.6975 72.1162 74.7978 73.4515 73.6522 74.5973C72.5068 75.7427 71.1713 76.6425 69.6836 77.2716C68.1418 77.9232 66.506 78.2534 64.8214 78.2534H15.5384C12.9828 78.2534 10.9039 80.3328 10.9039 82.8884C10.9039 85.4439 12.9831 87.5233 15.5384 87.5233H59.0107C60.6953 87.5233 62.3311 87.8536 63.8726 88.5052C65.3606 89.1339 66.6958 90.0337 67.8415 91.1795C68.9868 92.3249 69.8865 93.6606 70.5155 95.1485C71.1671 96.6904 71.4973 98.3263 71.4973 100.011C71.4973 101.696 71.1671 103.332 70.5155 104.874C69.8865 106.362 68.9871 107.697 67.8415 108.843C66.6961 109.989 65.3606 110.888 63.8729 111.517C62.3311 112.169 60.6953 112.499 59.0107 112.499H49.5954C43.9984 112.499 39.445 117.053 39.445 122.651C39.445 123.917 38.4144 124.948 37.1476 124.948H33.8904C32.6236 124.948 31.5929 123.917 31.5929 122.651C31.5929 120.22 32.069 117.862 33.0078 115.64C33.9142 113.495 35.2115 111.569 36.8632 109.917C38.5151 108.265 40.4402 106.968 42.5851 106.062C44.8068 105.123 47.1653 104.647 49.5951 104.647H59.0104C61.566 104.647 63.6449 102.567 63.6449 100.012C63.6449 97.4562 61.566 95.3768 59.0104 95.3768H15.5384C13.8538 95.3768 12.218 95.0465 10.6762 94.3949C9.18817 93.7662 7.85299 92.8664 6.70764 91.7206C5.56198 90.5749 4.6626 89.2396 4.03362 87.7513C3.38205 86.2094 3.05184 84.5735 3.05184 82.8887C3.05184 81.2039 3.38205 79.568 4.03362 78.026C4.6623 76.5378 5.56198 75.2025 6.70764 74.0571C7.85299 72.9116 9.18848 72.0118 10.6762 71.3828C12.218 70.7312 13.8538 70.4009 15.5384 70.4009H64.8217C67.3773 70.4009 69.4562 68.3215 69.4562 65.766C69.4562 63.2104 67.3773 61.131 64.8217 61.131H28.3855L28.2942 61.1298C26.67 61.1084 25.0913 60.7785 23.602 60.1491C22.1139 59.5201 20.7788 58.6206 19.6334 57.4749C18.488 56.3294 17.5884 54.9938 16.9594 53.5059C16.3078 51.9639 15.9776 50.328 15.9776 48.6432C15.9776 46.9585 16.3078 45.3225 16.9594 43.7806C17.5884 42.2924 18.4877 40.9571 19.6334 39.8116C20.7788 38.6661 22.1142 37.7664 23.6023 37.1373C25.1362 36.4891 26.7637 36.1588 28.4398 36.1555H54.7003C57.2559 36.1555 59.3348 34.0761 59.3348 31.5202C59.3348 28.9644 57.2556 26.8853 54.7003 26.8853H48.0353C45.3766 26.8853 42.7963 26.3643 40.3655 25.3372C38.0189 24.3453 35.9125 22.926 34.1052 21.1186C32.2979 19.3111 30.8785 17.2045 29.887 14.8577C28.8631 12.4347 28.3424 9.86203 28.3391 7.21156V5.35007C28.3391 4.08313 29.3694 3.05243 30.6362 3.05243H33.8934L33.8928 3.05151ZM33.8934 0.000305212H30.6362C27.682 0.000305212 25.2869 2.39561 25.2869 5.35007V7.21522C25.2906 10.2747 25.8921 13.2456 27.0753 16.0459C28.221 18.7571 29.8598 21.19 31.9467 23.277C34.0335 25.3641 36.4661 27.0034 39.1771 28.1488C41.9857 29.3358 44.9658 29.9377 48.0347 29.9377H54.6996C55.5725 29.9377 56.2823 30.6479 56.2823 31.5205C56.2823 32.3931 55.5722 33.1033 54.6996 33.1033H28.4337C26.3496 33.1076 24.3244 33.5187 22.4142 34.326C20.5621 35.1089 18.9003 36.2284 17.4754 37.6535C16.0505 39.0785 14.9311 40.7404 14.1483 42.5927C13.3371 44.5125 12.9258 46.5483 12.9258 48.6432C12.9258 50.7382 13.3371 52.774 14.1483 54.6938C14.9311 56.5461 16.0505 58.208 17.4754 59.633C18.9003 61.0581 20.5621 62.1776 22.4142 62.9605C24.2698 63.7445 26.2336 64.1551 28.2542 64.1816V64.1831H64.8217C65.6945 64.1831 66.4044 64.8931 66.4044 65.766C66.4044 66.6389 65.6942 67.3488 64.8217 67.3488H15.5384C13.4437 67.3488 11.4081 67.7602 9.48847 68.5715C7.63631 69.3543 5.97459 70.4739 4.54968 71.8989C3.12478 73.3239 2.00536 74.9858 1.22257 76.8382C0.411388 78.7579 0 80.7937 0 82.8887C0 84.9837 0.411388 87.0194 1.22257 88.9392C2.00536 90.7916 3.12478 92.4534 4.54968 93.8785C5.97459 95.3035 7.63631 96.423 9.48847 97.2059C11.4081 98.0172 13.4437 98.4286 15.5384 98.4286H59.0107C59.8835 98.4286 60.5934 99.1385 60.5934 100.011C60.5934 100.884 59.8832 101.594 59.0107 101.594H49.5954C46.7554 101.594 43.9971 102.151 41.3973 103.25C38.8884 104.31 36.6367 105.828 34.7055 107.759C32.774 109.691 31.2572 111.942 30.197 114.451C29.0984 117.051 28.5414 119.81 28.5414 122.65C28.5414 125.491 30.9365 128 33.8907 128H37.1479C40.1021 128 42.4972 125.605 42.4972 122.65C42.4972 118.736 45.6815 115.551 49.5957 115.551H59.011C61.1058 115.551 63.1413 115.14 65.0609 114.328C66.9131 113.545 68.5748 112.426 69.9997 111.001C71.4246 109.576 72.5441 107.914 73.3268 106.062C74.138 104.142 74.5494 102.106 74.5494 100.011C74.5494 97.9161 74.138 95.8804 73.3268 93.9606C72.5441 92.1082 71.4246 90.4464 69.9997 89.0213C68.5748 87.5963 66.9131 86.4768 65.0609 85.6939C63.1413 84.8826 61.1058 84.4712 59.011 84.4712H15.5384C14.6656 84.4712 13.9558 83.7613 13.9558 82.8884C13.9558 82.0155 14.6659 81.3055 15.5384 81.3055H64.8217C66.9165 81.3055 68.952 80.8941 70.8716 80.0829C72.7238 79.3 74.3855 78.1805 75.8104 76.7554C77.2353 75.3304 78.3548 73.6685 79.1376 71.8162C79.9487 69.8964 80.3601 67.8606 80.3601 65.7657C80.3601 63.6707 79.9487 61.6349 79.1376 59.7151C78.3548 57.8628 77.2353 56.2009 75.8104 54.7759C74.3855 53.3508 72.7238 52.2313 70.8716 51.4484C68.952 50.6372 66.9165 50.2258 64.8217 50.2258H28.4639C27.5911 50.2258 26.8812 49.5155 26.8812 48.6429C26.8812 47.7703 27.5914 47.0601 28.4639 47.0601H54.6996C56.7944 47.0601 58.83 46.6487 60.7496 45.8374C62.6018 45.0545 64.2635 43.935 65.6884 42.51C67.1133 41.085 68.2327 39.4231 69.0155 37.5707C69.8267 35.651 70.2381 33.6152 70.2381 31.5202C70.2381 29.4252 69.8267 27.3895 69.0155 25.4697C68.2327 23.6173 67.1133 21.9555 65.6884 20.5304C64.2635 19.1054 62.6018 17.9859 60.7496 17.203C58.83 16.3917 56.7944 15.9803 54.6996 15.9803H48.0347C43.1786 15.9803 39.2421 12.0434 39.2421 7.18684V5.34976C39.2421 2.39531 36.847 0 33.8928 0L33.8934 0.000305212Z" fill="#0A7325"/>
    <circle cx="33" cy="11" r="3" fill="currentColor"/>
    <circle cx="47" cy="23" r="3" fill="currentColor"/>
    <circle cx="63" cy="33" r="3" fill="currentColor"/>
    <circle cx="40" cy="40" r="3" fill="currentColor"/>
    <circle cx="20" cy="48" r="3" fill="currentColor"/>
    <circle cx="36" cy="57" r="3" fill="currentColor"/>
    <circle cx="59" cy="57" r="3" fill="currentColor"/>
    <circle cx="73" cy="67" r="3" fill="currentColor"/>
    <circle cx="58" cy="74" r="3" fill="currentColor"/>
    <circle cx="35" cy="74" r="3" fill="currentColor"/>
    <circle cx="12" cy="76" r="3" fill="currentColor"/>
    <circle cx="9" cy="89" r="3" fill="currentColor"/>
    <circle cx="28" cy="91" r="3" fill="currentColor"/>
    <circle cx="53" cy="91" r="3" fill="currentColor"/>
    <circle cx="67" cy="100" r="3" fill="currentColor"/>
    <circle cx="55" cy="109" r="3" fill="currentColor"/>
    <circle cx="37" cy="116" r="3" fill="currentColor"/>
</svg>