<svg width="82" height="82" viewBox="0 0 82 82" fill="none" xmlns="http://www.w3.org/2000/svg">
<path d="M0 41C0 63.6437 18.3563 82 41 82C63.6437 82 82 63.6437 82 41C82 18.3563 63.6437 0 41 0C18.3563 0 0 18.3563 0 41Z" fill="#0A7325"/>
<path fill-rule="evenodd" clip-rule="evenodd" d="M24.8725 23.1803C23.8111 24.6936 24.1775 26.7809 25.6908 27.8423L47.0009 42.7884L26.1347 53.0584C24.4762 53.8747 23.7935 55.8808 24.6098 57.5393C25.426 59.1978 27.4322 59.8805 29.0907 59.0642L55.0295 46.2976C56.0906 45.7753 56.7973 44.7317 56.8885 43.5525C56.9796 42.3733 56.4416 41.2336 55.4733 40.5545L29.5345 22.3619C28.0212 21.3005 25.9339 21.6669 24.8725 23.1803Z" fill="white"/>
</svg>
