<svg width="90" height="81" viewBox="0 0 90 81" fill="none" xmlns="http://www.w3.org/2000/svg">
<path d="M0.653034 11.9639C0.949868 12.6219 1.30607 13.28 1.781 13.8782L19.4723 44.7451L37.4011 76.0308C37.4011 76.0906 37.4604 76.1504 37.4604 76.2102L37.5792 76.4495C37.6385 76.5093 37.6979 76.5691 37.6979 76.6888C37.8166 76.8682 37.9354 77.0477 38.1135 77.2271C38.1728 77.287 38.1728 77.3468 38.2322 77.4066C39.7757 79.4405 42.2691 80.8163 45 80.8163C47.909 80.8163 50.4617 79.3208 52.0053 77.1075C52.0646 77.0477 52.124 76.9281 52.124 76.8682C52.1834 76.8084 52.2427 76.6888 52.3021 76.629L52.5989 76.1504L70.6464 44.6853L88.5158 13.5192L89.1689 12.3827C89.7032 11.2461 90 9.98988 90 8.61403C90 3.82846 86.1412 0 81.4512 0H45.0594H8.60818C3.85884 0 0 3.88828 0 8.61403C0 9.81042 0.237467 10.947 0.653034 11.9639Z" fill="#0A7325"/>
<path d="M40.4062 55.3991C40.4062 53.7005 40.8828 52.3534 41.8359 51.4749C42.789 50.5964 44.1591 50.1278 45.9462 50.1278C47.6738 50.1278 49.0439 50.5964 49.997 51.4749C50.9501 52.3534 51.4267 53.7005 51.4267 55.3405C51.4267 56.9804 50.9501 58.269 49.997 59.2061C49.0439 60.1432 47.6738 60.6117 46.0058 60.6117C44.2187 60.6117 42.9082 60.1432 41.9551 59.2646C40.9424 58.3275 40.4062 57.039 40.4062 55.3991ZM49.8183 44.8566H42.1338L40.5254 14.6934H51.3671L49.8183 44.8566Z" fill="white"/>
</svg>
