<svg width="74" height="66" viewBox="0 0 74 66" fill="none" xmlns="http://www.w3.org/2000/svg">
<path d="M2.10335 12.4547L2.11368 12.4798L2.1249 12.5044C2.36325 13.0273 2.66865 13.6 3.09102 14.147L16.3077 36.9714L16.3078 36.9715L29.5985 59.9269V59.9353L29.7575 60.2526L29.7766 60.2905V60.3908L30.0295 60.7692L30.0413 60.7869C30.1117 60.8924 30.2276 61.0661 30.3941 61.2541C30.4289 61.3078 30.4704 61.3651 30.5197 61.4237C31.9439 63.2548 34.2266 64.5 36.7538 64.5C39.4318 64.5 41.7696 63.1502 43.1919 61.1703C43.291 61.0477 43.3606 60.9285 43.407 60.8368L43.4112 60.8326L43.502 60.6877L43.7247 60.3324L43.7384 60.3104L43.7514 60.288L57.2886 36.9275L57.2887 36.9273L70.6916 13.7901L70.6922 13.7889L71.1814 12.9462L71.2125 12.8927L71.2391 12.8367C71.7342 11.7943 72.0075 10.642 72.0075 9.39526C72.0075 5.00338 68.4309 1.5 64.0952 1.5H36.7983H9.45686C5.07656 1.5 1.5 5.04782 1.5 9.39526C1.5 10.4842 1.71836 11.5222 2.10335 12.4547ZM30.1283 60.82C30.1437 60.8354 30.1382 60.8313 30.1204 60.8122L30.1283 60.82Z" fill="#FF0000" stroke="white" stroke-width="3" stroke-miterlimit="10"/>
<path d="M32.8364 44.1277C32.8364 42.8398 33.1927 41.8183 33.9051 41.1522C34.6176 40.486 35.6418 40.1307 36.9777 40.1307C38.2691 40.1307 39.2933 40.486 40.0058 41.1522C40.7182 41.8183 41.0745 42.8398 41.0745 44.0833C41.0745 45.3269 40.7182 46.3039 40.0058 47.0145C39.2933 47.7251 38.2691 48.0804 37.0223 48.0804C35.6863 48.0804 34.7067 47.7251 33.9942 47.0589C33.2372 46.3483 32.8364 45.3713 32.8364 44.1277ZM39.8722 36.1337H34.1278L32.9255 13.2617H41.03L39.8722 36.1337Z" fill="white"/>
</svg>
