<svg width="1277" height="107" viewBox="0 0 1277 107" fill="none" xmlns="http://www.w3.org/2000/svg">
<path d="M24.1607 72.0931C24.1607 81.1111 22.9357 87.9045 20.5196 92.4904C18.4098 96.4604 15.3812 98.4454 11.3998 98.4454H0V2.39648H21.7106V6.22954H2.38205V46.1344H10.9574C19.771 46.1344 24.1607 54.793 24.1607 72.0931ZM21.7787 72.3498C21.7787 64.1361 20.6217 58.2154 18.3417 54.6048C16.266 51.5075 13.2033 49.9675 9.11983 49.9675H2.38205V94.6294H10.1067C13.9179 94.6294 16.8104 92.7129 18.7841 88.8627C20.7919 85.0126 21.7787 79.5197 21.7787 72.3498Z" fill="#1F1B1B" fill-opacity="0.2"/>
<path d="M59.2453 98.4449H56.7952L52.7798 67.5238H35.7652L31.6136 98.4449H29.3677L42.7071 2.37891H45.6677L59.2453 98.4449ZM52.3714 63.7078L44.2044 5.16814L36.2075 63.7078H52.3714Z" fill="#1F1B1B" fill-opacity="0.2"/>
<path d="M99.2979 106.693H97.052V98.4454H66.1195V106.693H63.8735V94.6294H66.6299C68.6376 87.9216 70.1009 81.6929 70.9856 75.9433C71.7343 70.9979 72.2107 65.4366 72.4489 59.2421C72.6871 53.0647 72.7892 45.159 72.7892 35.5251V2.39648H95.6228V94.6294H99.2639L99.2979 106.693ZM93.2748 94.6123V6.22954H75.2053V37.9549C75.2053 50.3439 74.7629 61.0731 73.8441 70.1424C72.9253 79.2116 71.36 87.374 69.114 94.6294H93.2748V94.6123Z" fill="#1F1B1B" fill-opacity="0.2"/>
<path d="M111.242 98.1876H108.486V90.5215H111.242V98.1876Z" fill="#1F1B1B" fill-opacity="0.2"/>
<path d="M148.98 98.4454H146.598V48.7696H124.956V98.4454H122.574V2.39648H124.956V44.9537H146.598V2.39648H148.98V98.4454Z" fill="#1F1B1B" fill-opacity="0.2"/>
<path d="M181.103 98.4454H159.665V2.39648H180.763V6.22954H162.081V46.1344H179.096V49.9675H162.081V94.6294H181.137V98.4454H181.103Z" fill="#1F1B1B" fill-opacity="0.2"/>
<path d="M226.294 98.4454H223.912V54.5877H215.405L203.665 98.4625H200.568L212.58 54.331C208.939 52.7396 206.251 49.899 204.617 45.8093C202.95 41.7196 202.133 36.0042 202.133 28.6974C202.133 19.7137 203.358 12.9203 205.774 8.35141C207.884 4.38146 210.913 2.39648 214.894 2.39648H226.294V98.4454ZM223.912 50.7546V6.22954H216.187C212.376 6.22954 209.484 8.14607 207.51 11.9791C205.502 15.8122 204.515 21.288 204.515 28.4407C204.515 36.6373 205.672 42.5238 207.952 46.1515C210.028 49.2317 213.091 50.7717 217.174 50.7717H223.912V50.7546Z" fill="#1F1B1B" fill-opacity="0.2"/>
<path d="M259.065 71.6995C259.065 82.2918 257.465 89.667 254.3 93.8252C251.952 96.9224 248.72 98.4625 244.602 98.4625H234.461V2.39648H245.487C249.23 2.39648 252.157 4.15901 254.198 7.68405C256.478 11.654 257.635 17.3351 257.635 24.7275C257.635 30.6311 257.091 35.2513 256.002 38.6052C254.607 42.9174 252.089 46.0489 248.481 47.9825C252.225 48.8552 254.981 51.73 256.785 56.5898C258.316 60.6624 259.065 65.6933 259.065 71.6995ZM255.253 25.121C255.253 17.7287 253.994 12.4925 251.544 9.39524C249.57 7.27337 246.984 6.22954 243.751 6.22954H236.843V46.1344H244.16C247.529 46.1344 250.081 44.7655 251.816 42.0447C254.096 38.7763 255.253 33.1465 255.253 25.121ZM256.682 71.5626C256.682 64.4099 255.594 59.0196 253.45 55.3919C251.306 51.7642 248.141 49.9675 243.956 49.9675H236.843V94.6294H245.079C248.72 94.6294 251.476 93.038 253.314 89.8552C255.526 85.9708 256.682 79.879 256.682 71.5626Z" fill="#1F1B1B" fill-opacity="0.2"/>
<path d="M296.53 98.3256H294.148V6.22954H275.092V53.9203C275.092 72.5038 274.411 84.7045 273.084 90.5226C271.757 96.3406 269.783 99.2496 267.231 99.2496H264.407V95.4166L266.585 95.6904C268.728 95.6904 270.294 91.96 271.247 84.4992C272.199 77.0384 272.676 65.9157 272.676 51.1653V2.39648H296.496V98.3256H296.53Z" fill="#1F1B1B" fill-opacity="0.2"/>
<path d="M329.982 98.4454H327.599V54.5877H319.092L307.352 98.4625H304.255L316.268 54.331C312.627 52.7396 309.938 49.899 308.305 45.8093C306.637 41.7196 305.821 36.0042 305.821 28.6974C305.821 19.7137 307.046 12.9203 309.462 8.35141C311.572 4.38146 314.6 2.39648 318.582 2.39648H329.982V98.4454ZM327.565 50.7546V6.22954H319.841C316.029 6.22954 313.137 8.14607 311.163 11.9791C309.156 15.8122 308.169 21.288 308.169 28.4407C308.169 36.6373 309.326 42.5238 311.606 46.1515C313.681 49.2317 316.744 50.7717 320.828 50.7717H327.565V50.7546Z" fill="#1F1B1B" fill-opacity="0.2"/>
<path d="M359.825 98.4454H338.387V2.39648H359.485V6.22954H340.803V46.1344H357.817V49.9675H340.803V94.6294H359.859V98.4454H359.825Z" fill="#1F1B1B" fill-opacity="0.2"/>
<path d="M390.485 6.22954H378.881V98.4454H376.499V6.22954H364.895V2.39648H390.485V6.22954Z" fill="#1F1B1B" fill-opacity="0.2"/>
<path d="M424.651 68.1912C424.651 76.8327 423.562 84.3106 421.418 90.6591C420.261 94.013 418.832 96.4943 417.198 98.1199C415.565 99.7455 413.557 100.567 411.209 100.567C407.262 100.567 404.267 98.1541 402.157 93.3115C400.388 89.2559 399.163 83.4379 398.482 75.8231C397.802 68.2084 397.461 58.7797 397.461 47.5201C397.461 34.1557 398.244 23.5977 399.775 15.8461C401.885 5.28803 405.765 0.0175781 411.379 0.0175781C413.489 0.0175781 415.293 0.702053 416.824 2.071C418.355 3.43995 419.717 5.57893 420.942 8.47084C423.188 14.0322 424.311 20.278 424.311 27.2254H421.792C421.792 24.6758 421.588 22.0577 421.18 19.3711C420.771 16.6845 420.193 14.2375 419.444 12.0301C417.573 6.57142 414.816 3.83352 411.209 3.83352C407.602 3.83352 404.846 7.05055 402.974 13.4675C400.898 20.6716 399.877 32.6841 399.877 49.488C399.877 67.7806 400.932 80.3578 403.042 87.2196C405.016 93.551 407.908 96.7167 411.686 96.7167C415.565 96.7167 418.423 93.1574 420.193 86.0218C420.84 83.3866 421.35 80.546 421.656 77.5001C421.997 74.4542 422.133 71.3569 422.133 68.1912H424.651Z" fill="#1F1B1B" fill-opacity="0.2"/>
<path d="M457.455 98.4454H455.073V54.5877H446.565L434.825 98.4625H431.729L443.741 54.331C440.1 52.7396 437.411 49.899 435.778 45.8093C434.111 41.7196 433.294 36.0042 433.294 28.6974C433.294 19.7137 434.519 12.9203 436.935 8.35141C439.045 4.38146 442.073 2.39648 446.055 2.39648H457.455V98.4454ZM455.073 50.7546V6.22954H447.348C443.537 6.22954 440.644 8.14607 438.67 11.9791C436.663 15.8122 435.676 21.288 435.676 28.4407C435.676 36.6373 436.833 42.5238 439.113 46.1515C441.189 49.2317 444.251 50.7717 448.335 50.7717H455.073V50.7546Z" fill="#1F1B1B" fill-opacity="0.2"/>
<path d="M508.703 98.3256H506.321V6.22954H487.265V53.9203C487.265 72.5038 486.584 84.7045 485.257 90.5226C483.93 96.3406 481.956 99.2496 479.404 99.2496H476.58V95.4166L478.757 95.6904C480.901 95.6904 482.467 91.96 483.419 84.4992C484.372 77.0384 484.849 65.9157 484.849 51.1653V2.39648H508.669V98.3256H508.703Z" fill="#1F1B1B" fill-opacity="0.2"/>
<path d="M541.098 98.4454H519.66V2.39648H540.758V6.22954H522.076V46.1344H539.091V49.9675H522.076V94.6294H541.133V98.4454H541.098Z" fill="#1F1B1B" fill-opacity="0.2"/>
<path d="M575.603 98.4454H573.017L558.691 44.543L551.817 61.8602V98.4625H549.435V2.39648H551.817V56.1791L571.86 2.39648H574.446L560.256 40.6415L575.603 98.4454Z" fill="#1F1B1B" fill-opacity="0.2"/>
<path d="M609.191 98.4449H606.741L602.725 67.5238H585.71L581.559 98.4449H579.313L592.652 2.37891H595.613L609.191 98.4449ZM602.317 63.7078L594.15 5.16814L586.153 63.7078H602.317Z" fill="#1F1B1B" fill-opacity="0.2"/>
<path d="M641.042 27.4311C641.042 44.7483 636.652 53.3898 627.839 53.3898H619.263V98.4454H616.881V2.39648H627.43C631.548 2.39648 634.747 4.15901 637.061 7.70116C639.681 12.116 641.042 18.687 641.042 27.4311ZM638.626 27.9616C638.626 20.6206 637.605 15.179 635.563 11.5856C633.522 8.00918 630.561 6.21243 626.682 6.21243H619.229V49.5568H625.967C630.051 49.5568 633.079 48.1536 635.087 45.313C637.469 41.8736 638.626 36.0897 638.626 27.9616Z" fill="#1F1B1B" fill-opacity="0.2"/>
<path d="M674.561 68.1912C674.561 76.8327 673.472 84.3106 671.328 90.6591C670.171 94.013 668.742 96.4943 667.109 98.1199C665.475 99.7455 663.467 100.567 661.119 100.567C657.172 100.567 654.177 98.1541 652.068 93.3115C650.298 89.2559 649.073 83.4379 648.392 75.8231C647.712 68.2084 647.372 58.7797 647.372 47.5201C647.372 34.1557 648.154 23.5977 649.686 15.8461C651.795 5.28803 655.675 0.0175781 661.29 0.0175781C663.399 0.0175781 665.203 0.702053 666.734 2.071C668.266 3.43995 669.627 5.57893 670.852 8.47084C673.098 14.0322 674.221 20.278 674.221 27.2254H671.703C671.703 24.6758 671.498 22.0577 671.09 19.3711C670.682 16.6845 670.103 14.2375 669.355 12.0301C667.483 6.57142 664.727 3.83352 661.119 3.83352C657.512 3.83352 654.756 7.05055 652.884 13.4675C650.809 20.6716 649.788 32.6841 649.788 49.488C649.788 67.7806 650.843 80.3578 652.952 87.2196C654.926 93.551 657.819 96.7167 661.596 96.7167C665.475 96.7167 668.334 93.1574 670.103 86.0218C670.75 83.3866 671.26 80.546 671.566 77.5001C671.907 74.4542 672.043 71.3569 672.043 68.1912H674.561Z" fill="#1F1B1B" fill-opacity="0.2"/>
<path d="M707.298 6.22954H695.694V98.4454H693.312V6.22954H681.708V2.39648H707.298V6.22954Z" fill="#1F1B1B" fill-opacity="0.2"/>
<path d="M738.842 71.6995C738.842 82.2918 737.243 89.667 734.078 93.8252C731.73 96.9224 728.497 98.4625 724.38 98.4625H714.273V2.39648H725.298C729.042 2.39648 731.934 4.15901 734.01 7.68405C736.29 11.654 737.447 17.3351 737.447 24.7275C737.447 30.6311 736.902 35.2513 735.813 38.6052C734.418 42.9174 731.9 46.0489 728.293 47.9825C732.036 48.8552 734.793 51.73 736.596 56.5898C738.093 60.6624 738.842 65.6933 738.842 71.6995ZM735.065 25.121C735.065 17.7287 733.84 12.4925 731.356 9.39524C729.382 7.27337 726.796 6.22954 723.563 6.22954H716.689V46.1344H724.005C727.374 46.1344 729.926 44.7655 731.662 42.0447C733.908 38.7763 735.065 33.1465 735.065 25.121ZM736.46 71.5626C736.46 64.4099 735.371 59.0196 733.227 55.3919C731.083 51.7642 727.919 49.9675 723.733 49.9675H716.621V94.6294H724.856C728.497 94.6294 731.254 93.038 733.091 89.8552C735.337 85.9708 736.46 79.879 736.46 71.5626Z" fill="#1F1B1B" fill-opacity="0.2"/>
<path d="M769.435 98.4454H747.997V2.39648H769.095V6.22954H750.413V46.1344H767.427V49.9675H750.413V94.6294H769.469V98.4454H769.435Z" fill="#1F1B1B" fill-opacity="0.2"/>
<path d="M804.212 98.4454H801.83V48.7696H780.188V98.4454H777.806V2.39648H780.188V44.9537H801.83V2.39648H804.212V98.4454Z" fill="#1F1B1B" fill-opacity="0.2"/>
<path d="M841.475 98.4454H839.093V48.7696H817.45V98.4454H815.068V2.39648H817.45V44.9537H839.093V2.39648H841.475V98.4454Z" fill="#1F1B1B" fill-opacity="0.2"/>
<path d="M877.035 72.0931C877.035 81.1111 875.776 87.9045 873.326 92.4904C871.216 96.4604 868.188 98.4454 864.172 98.4454H852.772V2.39648H855.155V46.1344H863.73C872.612 46.1344 877.035 54.793 877.035 72.0931ZM874.585 72.3498C874.585 64.1361 873.428 58.2154 871.148 54.6048C869.175 51.5075 866.112 49.9675 861.926 49.9675H855.189V94.6294H862.913C866.69 94.6294 869.583 92.7129 871.591 88.8627C873.564 85.0126 874.585 79.5197 874.585 72.3498ZM888.129 98.4454H885.747V2.39648H888.129V98.4454Z" fill="#1F1B1B" fill-opacity="0.2"/>
<path d="M936.008 98.4454H933.626V26.5756L934.408 9.53213L918.517 98.4454H916.339L900.447 9.39524L901.23 26.4729V98.4625H898.848V2.39648H901.298L917.496 93.2947L933.626 2.39648H936.008V98.4454Z" fill="#1F1B1B" fill-opacity="0.2"/>
<path d="M988.344 68.1912C988.344 76.8327 987.255 84.3106 985.111 90.6591C983.954 94.013 982.525 96.4943 980.892 98.1199C979.258 99.7455 977.251 100.567 974.903 100.567C970.955 100.567 967.961 98.1541 965.851 93.3115C964.081 89.2559 962.856 83.4379 962.176 75.8231C961.495 68.2084 961.155 58.7797 961.155 47.5201C961.155 34.1557 961.937 23.5977 963.469 15.8461C965.579 5.28803 969.458 0.0175781 975.073 0.0175781C977.183 0.0175781 978.986 0.702053 980.517 2.071C982.049 3.43995 983.41 5.57893 984.635 8.47084C986.881 14.0322 988.004 20.278 988.004 27.2254H985.486C985.486 24.6758 985.282 22.0577 984.873 19.3711C984.465 16.6845 983.886 14.2375 983.138 12.0301C981.266 6.57142 978.51 3.83352 974.903 3.83352C971.295 3.83352 968.539 7.05055 966.668 13.4675C964.592 20.6716 963.571 32.6841 963.571 49.488C963.571 67.7806 964.626 80.3578 966.736 87.2196C968.709 93.551 971.602 96.7167 975.379 96.7167C979.258 96.7167 982.117 93.1574 983.886 86.0218C984.533 83.3866 985.043 80.546 985.35 77.5001C985.69 74.4542 985.826 71.3569 985.826 68.1912H988.344Z" fill="#1F1B1B" fill-opacity="0.2"/>
<path d="M1023.5 27.4311C1023.5 44.7483 1019.11 53.3898 1010.29 53.3898H1001.72V98.4454H999.336V2.39648H1009.88C1014 2.39648 1017.2 4.15901 1019.52 7.70116C1022.17 12.116 1023.5 18.687 1023.5 27.4311ZM1021.11 27.9616C1021.11 20.6206 1020.09 15.179 1018.05 11.5856C1016.01 8.00918 1013.05 6.21243 1009.17 6.21243H1001.72V49.5568H1008.46C1012.54 49.5568 1015.57 48.1536 1017.58 45.313C1019.92 41.8736 1021.11 36.0897 1021.11 27.9616Z" fill="#1F1B1B" fill-opacity="0.2"/>
<path d="M1051.54 98.4454H1030.1V2.39648H1051.2V6.22954H1032.51V46.1344H1049.53V49.9675H1032.51V94.6294H1051.57V98.4454H1051.54Z" fill="#1F1B1B" fill-opacity="0.2"/>
<path d="M1092.78 106.693H1090.53V98.4454H1059.6V106.693H1057.36V94.6294H1060.11C1062.12 87.9216 1063.58 81.6929 1064.47 75.9433C1065.22 70.9979 1065.69 65.4366 1065.93 59.2421C1066.17 53.0647 1066.27 45.159 1066.27 35.5251V2.39648H1089.11V94.6294H1092.75L1092.78 106.693ZM1086.76 94.6123V6.22954H1068.69V37.9549C1068.69 50.3439 1068.25 61.0731 1067.33 70.1424C1066.41 79.2116 1064.84 87.374 1062.6 94.6294H1086.76V94.6123Z" fill="#1F1B1B" fill-opacity="0.2"/>
<path d="M1128.21 68.1912C1128.21 76.8327 1127.12 84.3106 1124.97 90.6591C1123.82 94.013 1122.39 96.4943 1120.75 98.1199C1119.12 99.7455 1117.11 100.567 1114.76 100.567C1110.82 100.567 1107.82 98.1541 1105.71 93.3115C1103.94 89.2559 1102.72 83.4379 1102.04 75.8231C1101.36 68.2084 1101.02 58.7797 1101.02 47.5201C1101.02 34.1557 1101.8 23.5977 1103.33 15.8461C1105.44 5.28803 1109.32 0.0175781 1114.93 0.0175781C1117.04 0.0175781 1118.85 0.702053 1120.38 2.071C1121.91 3.43995 1123.27 5.57893 1124.5 8.47084C1126.74 14.0322 1127.86 20.278 1127.86 27.2254H1125.35C1125.35 24.6758 1125.14 22.0577 1124.73 19.3711C1124.33 16.6845 1123.75 14.2375 1123 12.0301C1121.13 6.57142 1118.37 3.83352 1114.76 3.83352C1111.16 3.83352 1108.4 7.05055 1106.53 13.4675C1104.45 20.6716 1103.43 32.6841 1103.43 49.488C1103.43 67.7806 1104.49 80.3578 1106.6 87.2196C1108.57 93.551 1111.46 96.7167 1115.24 96.7167C1119.12 96.7167 1121.98 93.1574 1123.75 86.0218C1124.39 83.3866 1124.9 80.546 1125.21 77.5001C1125.55 74.4542 1125.69 71.3569 1125.69 68.1912H1128.21Z" fill="#1F1B1B" fill-opacity="0.2"/>
<path d="M1160.97 6.22954H1149.37V98.4454H1146.99V6.22954H1135.38V2.39648H1160.97V6.22954Z" fill="#1F1B1B" fill-opacity="0.2"/>
<path d="M1192.52 71.6995C1192.52 82.2918 1190.92 89.667 1187.76 93.8252C1185.41 96.9224 1182.18 98.4625 1178.06 98.4625H1167.95V2.39648H1178.98C1182.72 2.39648 1185.65 4.15901 1187.69 7.68405C1189.97 11.654 1191.13 17.3351 1191.13 24.7275C1191.13 30.6311 1190.58 35.2513 1189.49 38.6052C1188.1 42.9174 1185.58 46.0489 1181.97 47.9825C1185.71 48.8552 1188.47 51.73 1190.27 56.5898C1191.77 60.6624 1192.52 65.6933 1192.52 71.6995ZM1188.74 25.121C1188.74 17.7287 1187.52 12.4925 1185.03 9.39524C1183.06 7.27337 1180.47 6.22954 1177.24 6.22954H1170.37V46.1344H1177.68C1181.05 46.1344 1183.6 44.7655 1185.34 42.0447C1187.59 38.7763 1188.74 33.1465 1188.74 25.121ZM1190.14 71.5626C1190.14 64.4099 1189.05 59.0196 1186.91 55.3919C1184.76 51.7642 1181.6 49.9675 1177.41 49.9675H1170.3V94.6294H1178.53C1182.18 94.6294 1184.93 93.038 1186.77 89.8552C1189.02 85.9708 1190.14 79.879 1190.14 71.5626Z" fill="#1F1B1B" fill-opacity="0.2"/>
<path d="M1229.07 50.1549C1229.07 55.0831 1229 59.6348 1228.86 63.8101C1228.73 67.9854 1228.52 71.6132 1228.29 74.6933C1227.88 78.9199 1227.33 82.4963 1226.75 85.4395C1226.14 88.3828 1225.36 90.9667 1224.37 93.157C1222.23 98.0852 1219.1 100.549 1215.01 100.549C1210.66 100.549 1207.39 97.6061 1205.18 91.7025C1203.82 87.9208 1202.8 82.6161 1202.08 75.8056C1201.37 68.995 1201.03 60.4391 1201.03 50.1378C1201.03 40.1958 1201.37 31.965 1202.01 25.4625C1202.66 18.9599 1203.72 13.6382 1205.11 9.49709C1207.36 3.1657 1210.66 0 1215.01 0C1220.83 0 1224.75 5.32179 1226.82 15.9654C1228.32 23.3748 1229.07 34.7713 1229.07 50.1549ZM1226.62 50.1549C1226.62 36.7905 1226.07 26.7116 1224.92 19.9353C1224.07 14.6649 1222.81 10.6607 1221.1 7.92279C1219.4 5.20201 1217.4 3.83306 1214.98 3.83306C1210.22 3.83306 1206.95 8.98373 1205.21 19.268C1204.06 25.7876 1203.44 36.0718 1203.44 50.1549C1203.44 68.2763 1204.46 80.7167 1206.54 87.493C1208.41 93.6532 1211.24 96.7334 1214.98 96.7334C1219.81 96.7334 1223.08 91.8565 1224.75 82.0856C1226.01 75.4975 1226.62 64.854 1226.62 50.1549Z" fill="#1F1B1B" fill-opacity="0.2"/>
<path d="M1276.57 98.4454H1274.19V26.5756L1274.97 9.53213L1259.08 98.4454H1256.9L1241.01 9.39524L1241.79 26.4729V98.4625H1239.41V2.39648H1241.86L1258.06 93.2947L1274.19 2.39648H1276.57V98.4454Z" fill="#1F1B1B" fill-opacity="0.2"/>
</svg>
