<svg width="768" height="890" viewBox="0 0 768 890" fill="none" xmlns="http://www.w3.org/2000/svg">
<path fill-rule="evenodd" clip-rule="evenodd" d="M139 0C50.6344 0 -21 71.6345 -21 160V476C-21 564.365 50.6344 636 139 636C141.009 636 143.009 635.963 145 635.89V730C145 818.365 216.634 890 305 890C393.366 890 465 818.365 465 730V636C466.337 636 467.671 635.984 469 635.951V730C469 818.365 540.634 890 629 890C717.366 890 789 818.365 789 730V414C789 325.635 717.366 254 629 254C627.663 254 626.329 254.016 625 254.049V160C625 71.6345 553.366 0 465 0C376.634 0 305 71.6345 305 160V254C302.991 254 300.991 254.037 299 254.11V160C299 71.6345 227.366 0 139 0Z" fill="white" fill-opacity="0.6"/>
</svg>
