<svg width="391" height="657" viewBox="0 0 391 657" fill="none" xmlns="http://www.w3.org/2000/svg">
<path opacity="0.5" fill-rule="evenodd" clip-rule="evenodd" d="M0 111C0 49.6964 49.6964 0 111 0C169.781 0 217.89 45.6907 221.75 103.494C238.683 93.0353 258.636 87 280 87C341.304 87 391 136.696 391 198V277C391 317.279 369.546 352.547 337.442 372C369.546 391.453 391 426.721 391 467V546C391 607.304 341.304 657 280 657C223.354 657 176.619 614.568 169.844 559.756C152.999 570.061 133.193 576 112 576C50.6964 576 1 526.304 1 465V386C1 343.756 24.5983 307.024 59.3315 288.267C24.052 269.678 0 232.648 0 190V111Z" fill="white"/>
</svg>
