<svg width="1326" height="1504" viewBox="0 0 1326 1504" fill="none" xmlns="http://www.w3.org/2000/svg">
<path d="M0.38 1503.04L0 604.01V603.55C1.72 547.91 23.39 500.52 62.68 466.48C97.48 436.33 143.14 419.61 191.24 419.4C191.53 419.4 191.83 419.4 192.12 419.4C239.2 419.4 283.31 435.5 316.43 464.78C354.15 498.13 375.27 546.03 377.52 603.3L377.54 603.93L376.3 1000.32C379.18 1086.2 445.73 1126.26 506.46 1127.14C561.54 1127.92 627.88 1095.16 633.93 1000.25L633.87 604.02V603.56C635.59 547.91 657.33 500.5 696.75 466.46C731.64 436.33 777.41 419.62 825.62 419.41C825.92 419.41 826.21 419.41 826.51 419.41C873.7 419.41 917.92 435.49 951.12 464.76C988.96 498.11 1010.15 546.02 1012.4 603.31L1012.42 604.48L1012.34 1000.45C1016.36 1085.38 1079.78 1125.57 1137.14 1126.97C1190.39 1128.26 1255.78 1095.4 1264.83 998.53C1266.38 974.98 1265.5 549.7 1264.86 239.08C1264.68 152.38 1264.51 70.16 1264.4 0.1L1323.93 0C1324.05 70.05 1324.22 152.27 1324.39 238.95C1325.29 675.43 1325.8 985.79 1324.12 1003.87C1318.75 1061.79 1296.21 1109.75 1258.96 1142.55C1225.52 1172 1181.76 1187.59 1135.69 1186.48C1089.65 1185.36 1045.99 1167.86 1012.76 1137.22C975.93 1103.26 955.22 1056.65 952.84 1002.43L952.81 1001.12L952.89 605.08C948.97 511.95 882.54 478.94 826.48 478.94C826.27 478.94 826.07 478.94 825.87 478.94C764.03 479.2 696.27 518.76 693.4 604.95L693.46 1002.05L693.41 1002.94C689.96 1060.81 668.21 1108.92 630.53 1142.08C597.07 1171.51 552.7 1187.35 505.61 1186.67C458 1185.98 412.83 1168.79 378.41 1138.26C339.79 1104.01 318.49 1056.77 316.79 1001.67L316.77 1001.17V1000.67L318.01 605.04C314.07 511.95 247.91 478.95 192.09 478.95C191.89 478.95 191.69 478.95 191.48 478.95C129.88 479.21 62.39 518.76 59.52 604.96L59.9 1503.04L0.37 1503.07L0.38 1503.04Z" fill="white" fill-opacity="0.6"/>
</svg>
