<svg width="319" height="380" viewBox="0 0 319 380" fill="none" xmlns="http://www.w3.org/2000/svg">
<path d="M315.572 177.401C314.016 176.57 312.703 175.485 311.538 174.141C308.922 171.113 306.407 167.977 303.488 165.256C301.312 163.226 299.504 160.759 296.861 159.237C296.158 158.835 296.222 158.038 296.292 157.469C296.564 155.328 295.487 154.123 293.767 153.149C291.678 151.963 289.673 150.63 287.562 149.481C285.618 148.418 284.428 146.501 282.547 145.327C279.045 143.127 275.435 141.15 271.741 139.321C271.425 139.17 270.88 139.369 270.897 138.721C270.958 136.606 269.184 135.915 267.911 134.795C264.219 131.573 259.44 131.038 255.035 129.627C251.98 128.655 248.857 127.85 245.802 126.877C244.827 126.575 243.861 126.444 242.855 126.35C241.792 126.252 240.635 126.473 240.933 124.544C241.086 123.522 239.852 122.728 238.736 122.551C232.458 121.55 226.172 121.351 219.815 121.758C215.813 122.011 211.768 121.669 207.727 121.596C205.981 119.38 204.057 121.027 202.259 121.442C200.327 121.868 198.474 122.603 196.633 123.435C192.503 125.303 188.201 126.817 184.036 128.625C182.099 129.471 180.135 130.467 178.516 131.789C177.356 132.735 176.347 133.041 175.07 132.664C174.056 132.378 173.06 132.456 172.092 132.688C164.684 134.486 158.209 138.016 152.453 142.997C150.669 144.538 148.904 146.061 146.459 146.802C141.47 148.316 138.1 151.943 135.228 156.19C132.711 159.922 129.449 162.964 125.629 165.421C119.354 169.458 112.564 171.463 105.079 171.558C102.539 171.588 100.019 172.63 97.2954 172.21C98.0188 170.877 99.2619 170.145 100.086 169.065C103.212 165.024 106.139 160.799 109.358 156.82C110.669 155.214 112.131 153.636 113.845 152.339C117.434 149.583 120.811 146.529 124.487 143.911C127.986 141.397 132.127 139.683 135.319 136.866C138.772 133.816 143.224 132.349 146.424 129.036C146.91 128.529 147.732 128.174 147.453 127.357C147.126 126.385 146.28 127.177 145.694 127.087C144.52 126.926 143.49 127.937 142.109 127.726C143.665 126.172 145.581 125.688 147.359 124.948C150.526 123.599 153.169 121.381 156.055 119.578C156.53 119.28 157.696 118.906 157.194 117.981C156.795 117.272 155.972 116.978 154.989 117.152C151.887 117.684 148.95 118.683 146.072 119.991C141.041 122.266 136.313 124.92 132.88 129.651C132.766 128.977 132.969 128.072 132.449 128.158C130.295 128.457 131.282 126.852 131.319 126.186C131.428 122.548 131.593 118.913 131.015 115.274C130.874 114.389 131.087 113.981 132.089 113.808C136.982 112.975 141.235 110.294 146.002 108.978C148.58 108.264 150.18 105.587 152.047 103.593C154.908 100.547 158.063 97.7094 159.347 93.5263C160.491 89.7934 161.278 85.9642 162.084 82.136C163.179 76.893 163.441 71.5461 163.471 66.2434C163.503 58.5175 162.821 50.9425 159.16 43.7539C156.993 39.5111 155.324 34.9145 152.345 31.1986C148.69 26.6243 145.238 21.8325 140.342 18.2953C136.71 15.6877 133.076 13.118 128.975 11.3999C126.365 10.2996 123.599 9.61038 120.624 9.92068C118.934 10.1122 117.178 9.78481 115.463 9.74595C109.041 9.59597 103.676 12.3864 98.6927 15.8469C96.2497 17.5608 94.3136 20.1045 92.4431 22.4992C91.3328 23.9253 90.719 23.6429 89.7452 22.6343C86.4097 19.1655 82.9928 15.7876 79.7577 12.229C77.8523 10.1379 75.1992 9.47398 72.8834 8.23754C69.9559 6.68061 66.9872 5.17865 64.083 3.5467C59.8456 1.1913 55.151 0.184052 50.1786 1.06932C44.9557 1.99779 39.9133 3.45156 35.1811 5.83856C28.0739 9.40903 22.0662 14.1287 18.2447 21.3751C14.53 28.4175 13.6726 35.8872 14.2669 43.6672C14.4539 46.12 14.6218 48.5717 15.0801 51.2877C12.2233 50.1736 9.59142 49.1293 7.21447 47.6223C4.21107 45.7177 0.948376 44.6953 -2.49956 44.254C-4.09091 44.0504 -5.56581 43.4716 -7.19735 43.3039C-15.7957 42.4977 -22.6695 46.3293 -29.2848 50.9958C-34.0914 54.3708 -37.9231 58.7355 -40.6308 63.8118C-44.722 71.4437 -46.3671 79.6897 -44.6963 88.3505C-43.5431 94.3301 -42.4713 100.4 -40.1333 106.008C-37.3235 112.729 -34.5582 119.562 -29.5858 125.145C-27.09 127.937 -24.996 131.088 -22.1186 133.539C-17.7297 137.277 -12.7474 139.96 -7.45099 142.146C-3.33055 143.865 0.960692 144.239 5.32497 144.331C7.49761 144.376 9.49233 145.213 11.6776 145.374C18.4437 145.848 24.7626 144.428 30.8328 141.658C34.0438 140.197 37.3774 138.934 40.1915 136.726C41.0097 136.085 41.3751 136.716 41.8472 137.143C48.6485 143.458 55.4319 149.753 61.8081 156.502C65.4838 160.372 69.3222 164.059 72.6542 168.272C74.6681 170.808 76.3291 173.515 77.6338 176.451C78.2429 177.839 78.0827 178.994 77 180.269C72.3478 185.656 67.4399 190.838 62.5342 195.982C58.9056 199.786 55.3848 203.71 51.6305 207.373C46.0388 212.841 40.3214 218.169 34.7656 223.677C26.9472 231.424 18.6431 238.648 11.0424 246.599C8.97432 248.772 6.9422 250.986 4.89321 253.161C4.32545 253.759 3.59591 254.52 2.89748 254.385C2.0849 254.244 2.43311 253.138 2.26118 252.46C1.33827 248.841 0.319229 245.235 -0.119642 241.489C-0.251209 240.432 -0.226724 239.995 0.866152 239.56C3.09209 238.655 4.95591 237.061 6.88406 235.681C9.24879 234 11.9641 232.874 14.049 230.74C20.2815 224.392 23.5653 216.867 22.8816 207.956C22.3975 201.613 21.1304 195.284 18.3983 189.559C15.1711 182.796 11.6712 176.131 7.5625 169.776C4.33129 164.787 0.077811 160.675 -3.17671 155.761C-4.84832 153.244 -7.23132 151.164 -10.0733 149.784C-14.0478 147.844 -17.9155 145.7 -21.9567 143.928C-28.9033 140.887 -35.8718 141.641 -42.7904 144.23C-49.7091 146.819 -55.0405 151.385 -59.4488 157.187C-61.6947 160.152 -62.1128 163.868 -63.8836 167.547C-64.1383 165.281 -63.3132 163.496 -63.5722 161.65C-63.7271 160.668 -63.6896 159.659 -63.7483 158.663C-63.8175 157.514 -64.1025 156.812 -65.3548 157.028C-66.2595 157.168 -66.329 156.706 -66.3477 156.018C-66.3607 148.08 -66.8314 140.135 -66.7103 132.185C-66.6732 129.821 -67.0525 127.396 -67.6104 125.094C-68.0618 123.275 -69.4179 123.981 -70.5892 124.793C-71.5573 120.618 -72.3563 116.49 -73.5051 112.476C-74.7183 108.248 -76.3385 104.131 -77.6869 99.9344C-78.5638 97.1949 -79.3053 94.4249 -80.124 91.6695C-80.3013 91.0872 -80.043 90.224 -80.9898 90.0946C-81.9165 89.9473 -82.2053 90.6752 -82.566 91.3228C-82.8209 91.7856 -83.1128 92.2271 -83.5961 93.0205C-84.5755 90.4088 -85.3785 88.0551 -86.376 85.7667C-88.2381 81.541 -90.1784 77.3491 -92.1387 73.1751C-92.5641 72.2544 -92.9906 71.3528 -93.2797 70.3826C-93.4897 69.703 -93.6531 68.8734 -94.584 68.8021C-95.6872 68.7403 -95.4785 69.7824 -95.7979 70.3751C-96.0105 70.7638 -96.0382 71.2584 -96.1822 71.7846C-96.7834 71.6173 -96.9882 71.186 -97.119 70.7971C-99.4288 63.6651 -103.066 57.0693 -105.416 49.9732C-106.462 46.8427 -106.943 43.5148 -107.562 40.2555C-108.034 37.7867 -108.989 35.4245 -108.959 32.8503C-108.951 32.3546 -109.097 31.9076 -109.723 31.8343C-110.35 31.7801 -110.794 31.8697 -111.248 32.493C-113.806 35.9177 -116.126 39.5275 -118.186 43.2473C-120.861 48.0964 -123.499 52.9477 -125.62 58.0951C-127.476 62.6277 -128.939 67.2776 -130.478 71.9234C-130.915 73.2536 -130.683 75.2509 -133.161 74.864C-133.577 74.8025 -133.921 75.4893 -134.252 75.9477C-137.23 80.0549 -138.051 84.8363 -138.743 89.6822C-138.927 90.9311 -139.016 92.1854 -139.163 93.4365C-139.17 93.5697 -139.183 93.7979 -139.241 93.8138C-142.124 94.5299 -142.296 97.2488 -142.947 99.3303C-143.646 101.6 -144.782 103.826 -144.863 106.283C-144.962 109.425 -146.023 112.343 -146.876 115.309C-147.492 117.45 -147.541 119.68 -147.588 121.89C-147.599 122.768 -147.611 123.664 -147.848 124.49C-148.418 126.481 -149.185 126.552 -150.688 125.113C-154.71 121.301 -158.287 117.036 -162.858 113.822C-164.107 112.951 -165.293 112.331 -166.656 113.495C-167.196 113.942 -167.633 113.898 -168.28 113.538C-174.179 110.173 -180.244 107.067 -186.014 103.461C-188.393 101.992 -188.611 102.133 -189.463 104.737C-189.715 105.486 -190.132 105.444 -190.696 105.298C-195.645 104.067 -200.316 102.297 -204.163 98.7619C-205.27 97.7458 -206.607 96.4116 -207.614 99.0455C-207.972 99.9985 -208.648 99.1211 -209.097 98.9624C-214.747 96.9476 -219.121 92.9436 -223.788 89.4002C-225.801 87.8754 -227.609 86.0951 -229.54 84.4604C-230.159 83.9296 -230.832 82.9951 -231.68 84.1688C-232.238 84.9389 -232.932 85.3961 -231.841 86.6975C-229.586 89.3615 -228.495 92.7045 -227.423 96.0464C-226.415 99.1749 -226.235 102.429 -225.362 105.569C-224.872 107.39 -223.659 108.889 -223.326 110.777C-223.107 111.992 -223.306 112.477 -224.536 112.293C-225.746 112.092 -225.826 112.831 -225.856 113.707C-225.963 119.025 -225.161 124.126 -222.429 128.82C-221.977 129.609 -221.821 130.572 -221.567 131.483C-221.344 132.278 -221.944 132.091 -222.388 132.181C-224.259 132.534 -224.781 133.344 -224.411 135.254C-223.743 138.65 -223.288 142.11 -222.349 145.444C-221.522 148.391 -220.192 151.213 -219.054 154.062C-218.654 155.096 -218.319 155.935 -219.421 156.866C-220.383 157.689 -219.901 158.957 -219.476 159.896C-218.38 162.457 -217.106 164.933 -215.912 167.461C-214.191 171.126 -212.685 174.893 -210.207 178.351C-211.608 178.502 -212.514 177.974 -213.438 177.445C-213.993 177.128 -214.671 176.976 -215.118 177.466C-215.646 178.028 -215.317 178.618 -214.911 179.214C-211.405 184.409 -207.319 189.122 -203.093 193.728C-200.846 196.182 -199.101 199.104 -196.269 200.999C-195.993 201.186 -195.664 201.777 -195.773 202.019C-196.639 204.203 -195.154 205.622 -194.007 206.945C-189.582 212.078 -184.345 216.34 -179.045 220.51C-178.094 221.251 -177.331 221.923 -177.619 223.319C-177.836 224.471 -177.205 225.46 -176.406 226.192C-173.283 229.019 -169.976 231.646 -166.503 234.016C-164.995 235.036 -163.743 236.518 -161.703 236.899C-162.432 237.297 -163.435 237.146 -163.564 238.092C-163.687 238.925 -162.867 239.276 -162.418 239.778C-160.131 242.215 -157.002 243.23 -154.056 244.464C-149.6 246.316 -145.26 248.544 -140.517 249.706C-140.254 249.778 -139.912 249.817 -139.79 250.014C-137.193 254.071 -132.752 254.835 -128.665 256.133C-125.104 257.267 -121.267 257.578 -117.902 259.159C-109.017 263.359 -98.3039 260.143 -93.5796 258.576C-96.2916 266.114 -90.9692 275.666 -87.614 282.189C-84.8954 287.474 -81.8788 292.546 -80.0607 298.239C-78.7651 302.357 -77.7239 306.25 -74.8088 309.39C-74.7736 310.804 -75.5845 311.655 -77.4163 312.678C-83.0693 315.834 -89.0263 318.286 -94.9527 320.873C-97.7695 322.108 -100.433 323.676 -103.282 324.795C-110.579 327.668 -117.454 331.519 -125.109 333.627C-128.849 334.658 -132.475 336.039 -136.34 336.566C-137.513 336.729 -138.699 337.121 -139.898 336.729C-142.483 335.859 -146.476 338.345 -146.214 342.176C-145.908 346.601 -144.365 350.732 -141.164 353.869C-139.302 355.71 -136.544 356.208 -134.07 357.014C-133.639 357.153 -132.903 356.946 -132.56 356.622C-129.883 354.139 -126.364 353.649 -123.119 352.61C-117.97 350.952 -112.959 349.039 -107.927 347.088C-104.007 345.571 -100.107 344.073 -96.341 342.242C-90.5159 339.42 -84.7056 336.521 -79.1213 333.228C-77.2271 332.113 -75.1428 331.352 -73.144 330.415C-68.4817 328.253 -64.0274 325.717 -59.7484 322.903C-58.7378 322.235 -58.1366 322.402 -57.3274 322.944C-52.6402 326.126 -48.2839 329.766 -43.6358 332.965C-37.0947 337.453 -31.0029 342.469 -25.1542 347.739C-17.8701 354.291 -9.63429 359.523 -2.01601 365.559C3.93961 370.281 10.223 374.602 16.3626 379.106C16.857 379.477 17.4399 380.311 18.0331 379.6C18.6675 378.834 17.963 378.127 17.3218 377.652C8.58146 371.209 0.678498 363.783 -7.75629 356.995C-15.1506 351.047 -21.7742 344.284 -29.1283 338.3C-35.2412 333.321 -40.8826 327.758 -46.8518 322.596C-48.0338 321.556 -48.8912 320.173 -50.1112 319.131C-50.6203 318.683 -51.1684 317.908 -50.0036 317.21C-46.788 315.33 -43.6433 313.35 -40.4996 311.389C-38.1265 309.9 -35.5138 308.902 -33.0731 307.569C-28.6241 305.128 -24.6873 301.952 -20.3978 299.293C-16.8799 297.124 -13.7887 294.397 -10.5728 291.829C-7.93737 289.745 -5.42868 287.538 -2.84601 285.374C-2.04467 284.694 -0.895793 284.282 -0.945805 282.79C-0.96237 282.064 0.118606 282.182 0.693507 282.138C3.21917 282.013 5.75855 281.983 8.30109 281.897C12.525 281.771 16.7061 282.406 20.9204 282.451C23.1321 282.48 25.309 282.449 27.5091 282.687C31.4357 283.098 35.0354 284.234 38.3452 286.461C39.3382 287.128 40.68 287.699 41.7345 287.949C46.4597 289.091 49.8058 292.37 53.39 295.147C58.8027 299.342 62.8094 304.795 65.2315 311.285C66.0599 313.525 67.2457 315.519 68.646 317.429C69.9386 319.219 71.9288 320.475 73.923 320.301C76.6083 320.05 77.5119 321.971 78.5596 323.365C80.5492 325.995 82.0621 328.961 83.7335 331.822C85.5285 334.861 89.7034 337.651 93.5421 336.226C94.244 335.96 94.6 336.075 95.1292 336.505C98.125 338.887 101.022 341.32 103.529 344.265C105.372 346.448 107.989 347.415 110.891 347.387C111.082 347.378 111.402 347.454 111.465 347.343C113.91 344.236 115.281 347.69 116.823 348.444C119.999 349.977 122.67 352.378 125.262 354.813C126.985 356.417 129.118 356.823 131.4 356.626C131.458 356.61 131.57 356.655 131.591 356.618C134.023 354.407 135.701 356.81 137.403 357.764C141.399 360.01 145.769 361.362 149.943 363.141C151.565 363.824 155.518 362.061 156.056 360.298C156.826 357.784 158.481 358.564 159.643 359.277C163.204 361.442 167.171 361.474 171.079 361.884C172.862 362.06 172.872 360.534 172.935 359.393C173.03 357.7 173.387 357.128 175.327 357.58C179.864 358.674 184.613 358.368 189.187 359.483C190.449 359.783 191.155 359.097 190.735 357.738C190.185 355.971 190.862 355.818 192.497 355.91C198.069 356.241 203.449 357.63 208.884 358.698C209.714 358.859 210.736 359.355 211.366 358.665C212.18 357.757 210.903 357.056 210.673 356.05C213.061 355.669 215.428 355.649 217.803 355.82C221.926 356.128 226.022 356.93 230.165 356.876C230.929 356.861 231.876 357.334 232.4 356.505C232.943 355.657 231.946 355.067 231.631 354.21C237.173 353.376 242.585 353.507 247.947 354.857C251.278 355.693 254.661 355.92 258.057 355.92C258.591 355.931 259.252 356.063 259.509 355.219C259.718 354.544 259.356 354.199 259.015 353.818C255.659 350.023 252.465 346.085 248.907 342.49C244.918 338.431 241.932 333.494 237.56 329.795C237.323 329.591 236.887 329.547 237.405 329.157C238.583 328.211 237.912 327.258 237.372 326.331C235.074 322.405 231.699 319.64 227.796 317.437C226.649 316.8 225.523 316.127 224.23 315.367C226.305 314.758 225.785 313.833 224.919 312.601C221.683 308.031 216.611 305.934 212.154 303.07C211.16 302.423 210.39 301.521 209.275 300.982C208.179 300.463 209.277 299.933 209.752 299.616C210.801 298.95 211.396 298.544 210.093 297.288C205.352 292.672 200.443 288.352 194.058 286.181C194.159 285.748 194.426 285.744 194.678 285.663C195.301 285.45 196.204 285.348 196.152 284.562C196.12 283.778 195.484 283.208 194.726 282.765C192.582 281.538 190.261 280.741 187.98 279.888C183.944 278.364 179.822 277.026 175.648 275.571C176.097 275.062 177.113 274.966 177.087 274.068C177.06 273.189 176.324 272.709 175.783 272.144C174.286 270.591 172.178 270.416 170.282 269.871C166.152 268.666 161.926 267.8 157.671 267.122C156.801 266.978 155.774 266.921 155.666 265.445C155.6 264.583 154.573 263.839 153.649 263.653C148.61 262.646 143.568 261.715 138.524 260.821C136.899 260.54 135.246 260.409 133.591 260.316C132.583 260.26 131.873 259.991 131.194 259.17C130.424 258.269 129.268 257.784 128.02 257.581C123.956 256.895 119.904 257.03 115.813 257.507C112.184 257.914 108.655 258.575 104.877 257.219C99.5654 255.299 94.4043 257.51 89.3164 259.094C85.1998 260.371 81.0347 261.492 76.9022 262.711C73.9345 263.575 71.3045 265.221 68.4571 266.321C64.185 267.989 59.7461 269.229 55.3895 270.702C52.297 271.75 49.2994 273.147 46.1446 273.943C42.5449 274.848 38.8251 275.174 35.1779 275.904C29.3494 277.085 23.5454 275.787 17.7343 275.976C13.95 276.088 10.1891 276.126 6.40912 276.162C5.81734 276.167 5.21184 276.076 4.2809 276.004C6.16693 274.355 7.86685 272.962 9.47592 271.487C12.9742 268.306 15.6951 264.356 19.2272 261.253C24.2847 256.805 28.7255 251.787 33.3848 246.954C35.7943 244.475 37.456 241.382 39.8137 238.804C48.049 229.745 56.0847 220.502 64.1922 211.34C70.7718 203.905 77.7698 196.836 84.059 189.137C85.9443 186.819 88.0292 184.684 90.0972 182.511C91.2941 181.242 91.6616 179.45 93.0254 178.267C93.628 177.728 94.1111 177.279 94.8846 177.436C101.057 178.622 107.442 178.407 113.474 180.405C116.416 181.371 118.981 182.927 121.088 185.163C121.592 185.707 121.922 186.622 121.957 187.368C122.154 192.359 124.579 196.75 125.513 201.534C126.388 206.01 128.124 210.095 130.601 213.916C131.356 215.084 132.226 216.24 133.463 216.634C137.233 217.799 138.213 221.422 140.085 224.103C142.859 228.055 145.818 231.789 149.418 234.948C150.218 235.661 151.226 236.748 152.598 235.756C153.135 235.366 153.393 235.858 153.759 236.145C158.193 239.752 161.621 244.295 165.492 248.423C166.825 249.833 168.714 250.855 170.8 250.743C171.853 250.687 172.541 251.012 173.291 251.589C177.924 255.054 182.496 258.592 187.253 261.892C190.044 263.842 192.688 266.032 195.831 267.486C197.914 268.443 198.204 268.383 198.584 266.019C201.971 267.201 204.846 269.365 208.044 270.861C212.47 272.922 216.739 275.393 221.567 276.389C222.51 276.595 223.936 277.361 224.037 275.23C224.079 274.469 224.93 274.956 225.36 275.113C231.64 277.45 237.941 279.749 244.176 282.216C246.677 283.215 249.218 283.834 251.835 284.115C252.67 284.2 253.638 283.949 254.123 283.117C254.608 282.305 253.818 281.764 253.443 280.961C255.536 280.716 257.563 280.982 259.49 281.319C265.424 282.358 271.418 282.98 277.414 283.583C278.533 283.703 279.683 283.615 280.824 283.679C281.756 283.731 282.315 283.285 282.174 282.399C281.928 280.993 282.74 281.153 283.549 281.351C290.458 283.016 297.35 284.662 304.044 287.098C305.802 287.73 307.67 288.102 309.406 288.791C310.806 289.346 312.225 289.903 312.995 291.492C313.679 292.904 315.106 292.297 316.224 292.092C316.764 291.989 316.563 291.482 316.297 291.123C313.109 286.728 311.374 281.593 309.07 276.751C306.697 271.753 304.739 266.53 302.17 261.635C300.739 258.902 298.482 256.62 296.52 254.182C296.182 253.743 295.57 253.423 296.227 252.944C297.502 251.985 296.88 250.825 296.291 250.105C292.776 245.748 290.645 240.534 287.288 236.091C284.889 232.923 282.246 230.047 279.222 227.473C278.932 227.209 278.519 227.09 278.449 226.628C277.437 221.191 273.829 217.478 270.024 213.887C265.819 209.931 260.659 207.352 255.622 204.284C257.504 203.378 257.184 202.292 256.043 201.198C254.957 200.145 253.852 199.09 252.531 197.814C255.254 197.223 257.776 197.517 260.24 197.121C263.899 196.524 267.294 195.188 270.72 193.968C273.369 193.01 276.184 193.511 278.804 192.723C279.735 192.451 280.923 192.365 280.131 190.832C279.942 190.459 280.113 190.468 281.073 190.026C285.753 187.884 290.916 188.021 295.822 186.96C297.117 186.67 298.175 186.52 299.122 185.275C300.297 183.719 302.453 183.382 304.298 182.799C307.91 181.685 311.627 182.084 315.316 182.309C315.944 182.345 316.286 182.707 316.707 183.017C317.405 183.514 318.104 183.63 318.678 182.918C319.394 182.061 318.529 181.497 318.056 181.089C317.527 180.64 316.753 180.501 316.045 180.194C316.24 179.442 317.557 179.439 317.304 178.49C317.209 177.474 316.202 177.742 315.572 177.401ZM248.685 194.603C248.25 194.197 247.755 193.826 247.279 193.475C242.322 189.992 236.549 188.485 230.929 186.625C230.236 186.395 229.306 186.305 229.259 185.443C229.223 184.716 230.262 184.908 230.647 184.51C231.254 183.895 232.702 184.263 232.686 183.193C232.674 182.048 231.403 181.576 230.601 180.901C230.419 180.738 230.094 180.758 229.832 180.667C227.461 179.733 224.826 179.433 222.618 178.317C217.846 175.951 212.665 175.794 207.648 174.749C206.046 174.412 204.167 175.241 203.409 172.776C202.99 171.397 201.21 171.488 199.998 170.982C192.951 168.03 185.618 166.436 177.951 166.388C177.074 166.377 175.873 166.691 175.348 165.841C173.704 163.173 170.927 163.018 168.426 163.049C163.136 163.135 157.912 164.082 152.748 165.319C150.04 165.969 147.286 166.425 144.238 167.017C144.811 166.324 145.24 166.158 145.689 165.992C148.959 164.84 152.181 163.513 155.5 162.516C159.827 161.232 164.045 159.503 168.638 159.264C177.594 158.793 186.542 158.131 195.53 158.1C196.217 158.1 196.66 158.373 197.135 158.743C200.696 161.595 204.739 163.672 208.725 165.747C215.529 169.295 222.143 173.158 228.692 177.169C234.393 180.656 240.396 183.511 246.589 186.033C230.079 177.953 214.834 167.73 199.002 158.466C202.93 158.171 206.709 158.154 210.483 158.213C213.667 158.258 216.829 157.672 219.979 157.982C221.858 158.163 223.789 157.07 225.67 158.568C228.703 160.97 231.858 163.246 235.18 165.245C242.474 169.584 249.664 174.07 256.518 179.091C259.249 181.095 262.106 182.896 264.919 184.79C265.022 184.643 265.106 184.514 265.21 184.367C253.303 174.846 239.739 167.656 227.399 158.359C230.977 157.854 234.147 158.49 237.245 159.045C243.082 160.097 248.843 161.469 254.63 162.728C255.667 162.958 256.864 163.044 257.631 163.66C260.223 165.751 263.067 167.437 265.869 169.197C272.651 173.469 279.393 177.778 286.922 180.642C288.454 181.224 290.02 181.884 292.152 181.298C280.301 177.924 270.712 171.3 261.15 164.544C262.275 164.55 263.397 164.613 264.449 164.92C269.444 166.344 274.421 167.768 279.371 169.324C281.021 169.836 282.99 169.775 284.26 170.953C287.795 174.261 291.767 176.926 295.988 179.242C298.135 180.412 299.394 180.768 300.691 180.44C295.576 178.417 291.053 175.703 287.304 171.791C294.621 173.67 301.098 177.601 308.253 179.987C305.215 181.076 302.119 181.513 299.291 182.938C295.521 184.845 291.499 185.802 287.323 186.427C284.725 186.815 282.194 187.723 279.702 188.614C276.763 189.651 274.003 191.233 270.914 191.88C269.601 192.15 268.356 192.576 267.128 193.042C262.778 194.725 258.37 195.757 253.661 195.016C253.017 194.922 252.236 194.898 251.686 195.191C250.443 195.923 249.574 195.416 248.685 194.603ZM124.307 188.664C124.476 186.67 124.077 184.949 122.697 183.345C121.712 182.202 120.176 181.697 119.391 180.374C123.588 179.369 127.603 180.243 131.622 181.041C132.189 181.149 133.022 181.272 133.123 181.85C133.482 183.95 134.624 185.712 135.336 187.641C138.312 195.821 140.626 204.232 144.479 212.099C147.406 218.083 150.273 224.12 154.324 229.461C154.661 229.919 154.885 230.694 155.874 230.406C150.989 222.92 146.943 215.118 143.525 206.989C140.072 198.801 137.786 190.22 134.575 181.817C135.334 181.554 135.99 181.762 136.651 181.876C141.054 182.638 145.307 184.04 149.68 184.991C154.751 186.096 159.407 188.474 164.398 189.632C169.014 190.692 171.372 193.553 172.935 197.666C174.25 201.098 175.546 204.529 176.589 208.06C178.824 215.493 181.741 222.697 184.62 229.88C187.784 237.766 190.343 245.904 194.915 253.182C196.965 256.445 199.137 259.562 201.662 262.509C201.184 261.165 200.567 259.91 199.813 258.723C198.076 256.011 196.004 253.491 194.523 250.641C189.421 240.911 186.194 230.388 182.108 220.218C179.699 214.187 178.027 207.931 175.948 201.785C174.933 198.789 173.508 195.962 172.367 192.826C173.044 192.997 173.498 193.061 173.927 193.238C179.967 195.79 185.987 198.34 192.046 200.874C192.493 201.071 192.929 201.114 192.95 201.764C193.082 205.531 194.529 208.989 195.688 212.488C197.811 218.866 199.796 225.331 202.484 231.492C207.149 242.228 212.301 252.782 218.891 262.52C219.243 263.055 219.484 263.851 220.465 263.715C218.928 261.187 217.464 258.7 215.941 256.268C211.3 248.853 207.915 240.821 204.217 232.925C202.343 228.908 201.287 224.594 199.744 220.462C197.887 215.474 196.107 210.451 194.736 205.299C194.454 204.215 194.287 203.099 194.643 201.859C199.435 203.845 204.007 206.028 208.552 208.344C211.241 209.716 213.89 211.142 216.475 212.68C221.535 215.673 225.93 219.659 231.136 222.431C234.044 223.987 236.175 225.805 236.988 229.342C237.724 232.551 239.543 235.496 240.762 238.598C244.96 249.156 250.236 259.201 255.433 269.281C256.569 271.482 257.94 273.581 259.87 275.235C255.002 267.788 251.566 259.638 247.679 251.712C243.808 243.825 237.908 229.26 237.999 226.956C239.624 227.925 241.276 228.743 242.694 230.005C246.962 233.851 251.497 237.368 256.174 240.74C257.806 241.919 259.8 243.099 260.491 245.084C263.541 253.975 267.318 262.506 272.428 270.405C273.481 272.048 275.025 273.775 276.21 274.071C269.943 265.381 265.323 256.231 262.36 245.78C270.023 251.018 275.358 257.957 281.912 263.571C284.863 266.084 287.445 269.033 290.416 271.508C294.08 274.576 298.047 277.317 301.751 280.348C303.923 282.111 306.192 283.841 307.996 286.709C305.113 285.727 302.76 284.812 300.338 284.104C296.377 282.947 292.37 281.94 288.387 280.821C284.725 279.776 280.755 280.145 277.207 278.42C277.077 278.355 275.822 278.285 275.604 279.112C275.34 280.07 276.139 280.115 276.753 280.398C277.424 280.683 278.258 280.768 278.795 281.752C275.149 281.433 271.661 281.371 268.259 280.78C262.799 279.825 257.22 279.952 251.84 278.582C251.013 278.364 250.354 278.88 249.984 279.355C249.635 279.794 250.514 280.11 250.757 280.544C250.965 280.918 251.406 281.21 251.243 281.735C250.524 281.981 249.922 281.813 249.264 281.643C245.801 280.8 242.606 279.247 239.274 278.087C233.997 276.246 228.741 274.368 223.482 272.528C222.621 272.231 221.519 272.494 221.475 273.274C221.406 274.51 220.931 274.121 220.232 274.006C218.396 273.731 216.891 272.674 215.232 271.97C209.734 269.639 204.517 266.714 199.234 263.956C197.566 263.081 196.399 263.473 195.87 265.428C192.857 263.351 189.857 261.389 186.98 259.263C181.998 255.549 176.666 252.312 172.198 247.94C171.998 247.757 171.974 247.508 171.622 247.66C168.272 249.208 166.463 246.76 164.841 244.723C161.097 240.029 156.504 236.185 152.396 231.871C151.656 231.105 150.119 230.961 149.955 231.162C149.032 232.312 148.435 231.382 148.041 230.921C144.28 226.532 140.799 221.929 138.15 216.763C137.754 215.996 137.393 215.289 136.205 215.375C134.844 215.49 133.649 214.679 132.964 213.629C131.294 211.074 129.743 208.449 128.723 205.549C126.96 200.566 126.458 195.233 124.288 190.361C123.979 189.752 124.256 189.233 124.307 188.664ZM238.305 344.414C231.662 341.065 225.018 337.736 218.438 334.276C215.325 332.632 212.19 331.025 208.862 329.809C205.086 328.414 201.467 326.589 197.604 325.381C203.555 324.398 209.576 324.563 215.403 323.058C209.549 323.341 203.729 323.682 197.884 323.45C197.466 323.427 196.688 323.345 196.605 323.817C196.343 325.425 195.393 324.665 194.702 324.398C191.13 323.11 187.492 321.971 184.05 320.404C180.068 318.597 175.811 317.615 171.847 315.828L171.941 315.852C167.779 314.532 163.596 313.248 159.457 311.852C154.514 310.182 149.594 308.418 144.336 306.578C158.482 303.726 172.429 302.714 186.525 303.142C184.789 302.796 183.044 302.603 181.31 302.563C174.049 302.404 166.764 302.34 159.541 303.213C154.988 303.759 150.405 304.17 145.849 304.774C143.427 305.096 141.071 306.28 138.417 305.292C133.611 303.535 128.627 302.244 123.801 300.523C121.22 299.596 118.494 298.871 116.307 297.032C115.565 297.333 114.88 296.971 114.224 296.762C111.805 295.997 109.41 295.157 106.993 294.354C101.019 292.359 95.1347 290.102 89.0137 288.671C82.8177 287.217 76.7847 285.238 70.5876 283.803C63.505 282.166 56.4712 280.341 49.2605 279.288C47.1409 278.979 44.9851 278.972 42.6446 278.517C43.5336 277.975 44.4733 277.551 44.9509 277.539C46.5762 277.478 46.5422 275.701 47.784 275.332C51.8415 274.09 55.6677 272.206 59.779 271.024C65.0159 269.505 70.1399 267.617 75.0655 265.184C77.8126 263.83 81.1106 263.882 83.8851 262.72C88.5939 260.752 93.3573 259.168 98.3836 258.343C100.541 257.987 103.037 257.707 104.792 259.065C105.945 259.95 106.756 260.11 108.056 260.068C111.269 259.943 114.384 259.163 117.562 258.979C121.16 258.78 124.785 258.449 128.255 259.864C128.61 259.999 129.218 260.376 129.196 260.432C128.146 263.159 130.436 261.799 131.102 261.837C138.03 262.148 144.773 263.709 151.548 265.043C152.549 265.233 153.347 265.621 151.993 266.633C151.336 267.13 151.514 267.693 152.383 267.856C155.271 268.4 158.161 268.924 161.052 269.43C165.038 270.149 168.979 270.981 172.749 272.489C173.421 272.756 174.279 273.109 174.37 273.859C174.473 274.761 173.488 274.63 172.901 274.883C172.315 275.136 171.85 275.587 171.851 276.255C171.861 276.752 172.416 276.726 172.793 276.804C178.714 278.071 184.312 280.312 189.956 282.422C190.928 282.781 192.463 282.982 192.556 284.037C192.656 284.977 191.213 285.202 190.314 285.571C189.806 285.79 189.257 286.389 189.473 286.955C189.724 287.599 190.347 287.366 190.842 287.051C191.237 286.806 191.613 286.903 191.985 287.076C193.829 287.886 195.675 288.657 197.498 289.484C201.088 291.136 203.649 294.122 206.601 296.615C208.368 298.107 208.369 298.088 206.431 299.296C205.7 299.751 204.617 300.339 206.005 301.123C210.184 303.494 213.904 306.565 218.147 308.825C220.018 309.827 221.638 311.215 222.532 313.307C221.518 313.708 220.53 313.977 219.864 314.951C221.063 315.686 222.183 316.474 223.446 317.098C227.79 319.249 231.821 321.879 234.744 325.897C235.206 326.515 235.778 327.196 234.61 327.607C232.84 328.214 233.808 328.993 234.541 329.53C236.81 331.26 238.891 333.285 240.64 335.444C245.478 341.382 250.959 346.745 255.52 352.858C253.876 353.243 252.144 352.822 249.265 351.096C245.535 348.864 242.092 346.306 238.305 344.414ZM39.8022 280.208C45.4452 280.296 50.9767 281.35 56.54 282.177C58.2434 282.425 59.4446 283.122 60.1222 284.648C60.6975 285.959 61.6122 287.002 62.4264 288.135C65.4128 292.386 68.2988 296.726 71.4438 300.871C75.9764 306.811 79.5229 313.326 83.0481 319.877C84.6224 322.77 86.0961 325.753 88.6597 328.014C80.8274 312.178 71.2129 297.5 60.2678 283.072C64.8939 283.599 68.6512 284.649 72.3884 285.717C75.8625 286.713 79.2645 287.972 82.8783 288.518C83.9191 288.672 84.7442 289.271 85.3651 290.108C91.2442 297.898 95.9997 306.331 99.9064 315.269C101.513 318.946 103.139 322.625 105.354 325.993C107.622 329.44 109.871 332.886 111.784 336.542C112.784 338.449 113.8 340.414 115.594 341.774C114.623 339.678 113.593 337.635 112.425 335.662C107.983 328.105 103.344 320.671 99.9246 312.561C97.3628 306.521 93.9163 300.948 90.5279 295.358C89.4277 293.541 88.1488 291.847 86.5775 289.584C90.1456 290.605 93.1347 291.402 96.0794 292.311C99.3421 293.333 102.58 294.45 105.82 295.547C108.572 296.484 111.743 296.757 113.068 300.017C113.136 300.174 113.379 300.264 113.523 300.405C116.52 303.111 119.054 306.249 121.252 309.577C125.703 316.295 129.876 323.207 133.124 330.621C135.476 335.981 138.635 340.89 141.617 345.903C142.647 347.621 143.874 349.216 145.055 350.942C145.237 350.418 145.272 350.134 144.991 349.698C139.071 340.952 134.763 331.342 129.885 322.025C127.42 317.326 124.779 312.694 121.703 308.343C119.281 304.907 116.719 301.596 113.961 298.388C116.041 299.058 118.045 299.724 119.914 300.764C123.726 302.885 127.961 303.924 132.087 305.205C134.168 305.855 136.612 305.84 138.153 307.605C140.502 310.294 142.75 313.091 144.879 315.958C149.97 322.826 154.804 329.851 158.806 337.441C161.374 342.336 164.336 347.024 166.806 351.989C167.561 353.501 168.065 355.399 170.137 356.221C161.064 339.361 152.275 322.554 139.876 307.854C140.789 307.562 141.407 307.768 142.047 307.919C147.955 309.414 153.473 312.07 159.312 313.771C160.87 314.221 162.547 314.601 163.709 316.002C167.727 320.902 171.448 326.014 175.466 330.914C180.716 337.333 185.525 344.128 190.535 350.743C190.855 351.162 191.043 351.897 191.917 351.622C183.918 339.439 174.285 328.501 165.986 316.568C167.046 316.036 167.631 316.489 168.248 316.714C174.125 318.761 180.049 320.638 185.816 322.946C187.776 323.723 189.976 323.961 191.455 326.505C193.823 330.55 197.376 333.878 200.395 337.558C203.663 341.538 207.252 345.25 210.241 349.463C210.718 350.138 210.713 351.263 212.019 351.451C206.542 342.272 198.882 334.935 192.677 326.154C199.467 326.535 240.61 346.528 247.439 352.348C245.33 352.192 243.429 352.066 241.528 351.941C237.784 351.674 234.049 352.609 230.342 352.02C229.17 351.821 229.011 352.613 228.436 353.001C227.367 353.704 228.991 354.005 228.729 354.582C225.241 354.863 221.872 353.701 218.367 353.925C215.514 354.108 212.567 354.268 209.812 353.712C208.227 353.395 207.595 354.122 207.247 354.885C206.832 355.816 206.524 355.875 205.634 355.749C200.441 355.115 195.376 353.571 190.082 353.733C188.668 353.768 187.972 354.95 188.213 355.746C188.613 357.123 187.833 356.755 187.282 356.705C183.053 356.239 178.783 356.171 174.602 355.193C172.041 354.591 171.197 355.346 171.062 358.086C171.016 359.247 170.601 359.51 169.493 359.543C165.248 359.706 161.45 358.005 157.828 356.256C155.97 355.351 155.695 356.518 154.875 357.198C154.675 357.358 154.724 357.838 154.63 358.157C153.937 360.656 152.829 361.357 150.364 360.742C146.468 359.779 142.862 358.07 139.341 356.213C137.34 355.146 135.424 353.932 133.444 352.829C131.723 351.874 130.901 352.248 130.491 354.114C130.385 354.642 129.995 354.449 129.745 354.492C128.952 354.676 128.389 354.168 127.764 353.751C125.978 352.583 124.54 351.014 122.798 349.752C120.268 347.912 117.406 346.55 115.169 344.249C114.212 343.28 112.769 342.13 111.366 343.674C109.517 345.688 109.114 345.723 106.834 344.183C104.959 342.914 103.988 340.837 102.213 339.478C99.9453 337.729 97.617 336.034 95.6514 333.997C94.3893 332.686 93.1833 333.095 92.4739 333.838C91.6027 334.743 90.9603 334.631 90.0209 334.368C87.7482 333.726 86.5708 331.923 85.4325 330.104C82.7705 325.853 80.2861 321.497 76.77 317.846C75.7961 316.838 74.3769 316.968 74.1113 317.621C73.6247 318.815 73.0988 317.984 72.7406 317.907C71.8932 317.706 71.2817 317.042 70.7071 316.4C68.7859 314.25 68.0824 311.482 66.8282 309.008C63.9566 303.39 60.5935 298.031 55.3486 294.245C51.7918 291.661 48.4444 288.745 44.344 287.007C40.9156 285.537 39.6811 283.731 39.8022 280.208ZM-4.38686 281.205C-5.39619 281.511 -6.46046 281.775 -7.53184 281.486C-7.94499 281.368 -8.58226 281.504 -8.5629 280.818C-8.55526 280.341 -8.3004 279.879 -7.85012 279.675C-7.43897 279.488 -6.9581 279.42 -6.51422 279.33C-0.763942 278.183 5.01036 277.629 10.9121 277.864C14.8727 278.01 18.8758 277.738 22.8723 277.924C25.0607 278.028 27.2511 278.437 29.4261 278.1C31.4087 277.792 33.1289 278.079 35.0307 278.872C37.2314 279.778 37.8046 281.127 37.4927 283.628C33.8756 281.097 29.7831 280.582 25.851 280.61C19.4556 280.671 13.1166 279.724 6.68727 280.051C2.95796 280.204 -0.756424 280.092 -4.38686 281.205ZM-15.4284 352.939C-13.8155 354.461 -11.5724 355.292 -10.449 357.378C-12.0419 355.839 -14.5091 355.261 -15.4284 352.939ZM-56.4326 321.277C-56.3498 320.48 -55.2653 319.854 -54.5139 319.724C-53.7445 319.615 -53.0243 318.338 -52.2923 319.238C-48.1503 324.317 -42.8304 328.126 -38.0994 332.569C-33.8585 336.566 -29.6398 340.618 -24.9316 344.107C-21.4509 346.687 -18.9059 350.302 -15.4453 352.9C-16.017 352.887 -16.5094 352.822 -17.0386 352.391C-24.2205 346.398 -31.341 340.332 -38.6879 334.559C-43.8956 330.451 -49.4132 326.764 -54.7848 322.857C-55.4081 322.403 -56.5122 322.016 -56.4326 321.277ZM-136.235 343.88C-135.142 346.174 -133.285 348.453 -133.034 351.462C-132.876 353.398 -133.901 354.677 -135.603 354.391C-137.115 354.134 -138.637 353.724 -139.713 352.5C-142.387 349.469 -143.922 345.891 -144.251 341.885C-144.354 340.658 -143.736 339.51 -142.54 338.928C-141.265 338.313 -140.356 339.108 -139.565 339.973C-138.485 341.14 -137.487 342.398 -136.235 343.88ZM-91.6931 258.281C-91.6265 258.113 -91.6179 257.961 -91.6295 257.827C-91.416 257.762 -91.2416 257.715 -91.1656 257.719C-91.1824 257.68 -90.8422 257.737 -90.5601 257.81C-90.7588 257.952 -90.8857 258.174 -90.8658 258.499C-90.5213 262.907 -91.2664 265.308 -89.306 269.482C-87.4143 273.518 -85.327 277.47 -83.4544 281.506C-80.0689 288.851 -78.9528 297.194 -74.0696 303.688C-74.0157 303.748 -73.9608 303.79 -73.9058 303.831C-74.0119 304.703 -74.0788 305.214 -74.0777 305.195C-74.0345 305.446 -73.9712 305.678 -73.9628 305.869C-73.9166 306.406 -73.9855 306.956 -74.1475 307.462C-77.093 303.843 -77.7606 299.074 -79.406 294.727C-80.6693 291.393 -82.3998 288.224 -84.0753 285.096C-86.2861 280.966 -88.2867 276.827 -89.969 272.459C-91.7168 267.896 -93.8892 263.081 -91.6931 258.281ZM-47.1068 224.66C-41.3474 230.841 -35.8534 237.331 -27.3725 240.573C-20.7025 243.103 -14.3624 243.687 -7.6892 241.733C-6.48645 241.381 -6.11989 241.649 -5.83402 242.676C-4.49543 247.731 -3.88285 252.803 -3.9118 258.087C-3.92821 261.444 -5.82916 263.36 -7.62753 265.148C-14.2353 271.723 -21.7567 277.236 -29.1164 282.929C-34.1621 286.825 -39.2965 290.601 -44.3961 294.437C-49.6352 298.379 -55.5986 300.945 -61.0403 304.418C-62.1492 305.138 -63.4692 305.542 -64.7175 306.025C-66.4139 306.674 -67.2263 306.19 -67.2983 304.411C-67.4206 301.485 -67.2934 298.535 -67.5308 295.621C-68.1285 288.242 -69.8623 281.046 -71.4619 273.84C-71.6255 273.354 -71.8271 272.865 -72.0668 272.375C-72.4332 271.763 -73.2314 270.344 -73.2831 270.246C-73.546 269.831 -76.8494 265.448 -77.4671 264.554C-79.8031 261.294 -82.7004 258.518 -85.2383 255.456C-86.3292 254.155 -81.6253 246.825 -81.8921 243.413C-82.2724 238.622 -80.7462 233.861 -80.0782 229.09C-79.7951 227.103 -80.6595 224.822 -79.4973 223.15C-77.174 219.827 -75.7245 216.092 -73.977 212.488C-71.0226 206.415 -67.6942 200.476 -66.4218 193.774C-65.9059 191.036 -64.9512 187.961 -67.6405 185.558C-67.8043 185.416 -67.8389 185.013 -67.7881 184.787C-67.1858 182.55 -67.3357 180.118 -65.8909 177.49C-66.0873 183.718 -64.8005 191.06 -62.294 197.745C-60.5178 202.481 -59.0153 207.336 -55.9105 211.517C-52.81 215.774 -50.6525 220.855 -47.1068 224.66ZM-85.9313 208.918C-84.9687 209.106 -85.5324 207.929 -85.2732 207.391C-85.2299 207.298 -85.0745 207.249 -84.9751 207.178C-82.7948 208.789 -82.7432 209.231 -82.5166 210.293C-81.8418 213.574 -81.9533 216.926 -81.9887 220.282C-82.0655 228.12 -83.2813 235.856 -84.2688 243.604C-84.6433 246.541 -84.7894 249.49 -87.0406 252.207C-88.9572 247.253 -92.0421 243.398 -95.0075 239.454C-97.8663 235.649 -99.873 231.282 -102.592 227.37C-105.082 223.796 -106.311 220.179 -106.002 215.693C-105.274 205.43 -107.212 195.4 -109.573 185.441C-111.149 178.827 -111.99 172.045 -113.699 165.442C-113.793 165.075 -114.02 164.699 -113.526 164.384C-112.892 163.98 -112.714 164.543 -112.427 164.865C-112.23 165.105 -112.015 165.346 -111.799 165.587C-109.665 162.577 -107.838 163.672 -106.772 166.098C-105.978 167.936 -104.97 169.69 -104.252 171.524C-102.652 175.659 -100.481 179.482 -98.5269 183.427C-97.9949 184.487 -97.1709 185.106 -95.9563 184.201C-94.322 182.957 -93.4201 184.228 -93.1618 185.407C-92.448 188.671 -91.1719 191.777 -90.458 195.041C-89.5628 199.155 -88.5905 203.255 -87.6763 207.37C-87.5214 208.352 -86.4786 208.811 -85.9313 208.918ZM-68.7747 306.923C-68.624 307.638 -68.6856 308.398 -69.8132 308.43C-70.8076 308.469 -71.5451 308.352 -71.6133 307.184C-71.6919 305.863 -71.7504 304.524 -71.81 303.204C-71.9383 299.705 -70.7183 296.32 -70.8846 292.819C-71.1682 286.984 -72.8436 281.471 -75.6711 276.428C-79.3138 269.927 -82.7354 263.229 -87.9023 257.711C-88.6227 256.946 -87.9367 256.622 -87.647 256.218C-87.1722 255.577 -86.8776 256.109 -86.6136 256.505C-86.3686 256.9 -86.1215 257.258 -85.7782 257.601C-81.7307 261.644 -78.1029 266.026 -75.6546 270.685C-74.3705 272.627 -73.1169 274.09 -72.9963 276.024C-72.8768 277.977 -72.4096 279.854 -71.9614 281.73C-70.8255 286.316 -69.7276 290.9 -69.5735 295.64C-69.4612 299.424 -69.5581 303.197 -68.7747 306.923ZM-76.692 278.641C-74.7483 282.433 -73.7559 286.514 -73.3448 290.754C-73.0682 293.651 -73.3377 298.12 -73.632 301.328C-77.5823 295.21 -78.777 287.588 -81.8405 280.967C-83.5917 277.148 -85.5396 273.432 -87.3501 269.648C-88.5958 267.022 -89.3052 265.379 -89.2667 262.31C-89.2598 261.165 -89.124 260.104 -89.1361 258.959C-88.1655 260.024 -86.8433 261.625 -86.2582 262.421C-82.5155 267.477 -79.5647 273.042 -76.692 278.641ZM-203.221 123.829C-198.885 128.518 -194.006 132.703 -189.612 137.357C-185.703 141.487 -181.612 145.437 -177.581 149.441C-175.593 151.422 -173.118 152.878 -171.069 154.786C-167.04 158.484 -163.295 162.472 -159.186 166.099C-155.531 169.318 -152.041 172.758 -148.691 176.304C-146.369 178.781 -143.703 180.933 -141.44 183.445C-135.98 189.514 -130.1 195.243 -125.081 201.706C-122.857 204.579 -119.966 206.782 -117.586 209.606C-118.681 210.079 -119.651 209.681 -120.594 209.475C-124.703 208.577 -128.811 207.66 -132.919 206.743C-141.927 204.731 -150.446 201.487 -158.488 196.877C-163.479 194.021 -168.302 190.87 -173.546 188.439C-179.815 185.55 -186.039 182.568 -191.375 178.014C-192.394 177.136 -193.062 175.782 -194.49 175.378C-194.74 175.765 -194.461 175.895 -194.281 176.077C-190.324 180.382 -185.572 183.758 -180.363 186.149C-171.119 190.407 -162.614 195.94 -153.643 200.659C-150.827 202.152 -147.911 203.575 -144.873 204.528C-139.398 206.247 -133.789 207.629 -128.173 208.879C-124.648 209.649 -121.202 210.796 -117.646 211.358C-116.001 211.622 -115.089 212.379 -114.278 213.569C-111.224 217.976 -107.832 222.135 -105.274 226.877C-105.031 227.31 -104.346 227.673 -104.702 228.244C-105.038 228.798 -105.706 228.455 -106.202 228.447C-110.072 228.401 -113.724 227.166 -117.455 226.328C-125.388 224.548 -133.07 222.037 -140.522 218.815C-145.31 216.753 -149.881 214.226 -154.473 211.717C-160.601 208.378 -167.168 205.702 -172.021 200.373C-172.111 200.273 -172.319 200.242 -172.767 200.064C-171.558 202.326 -169.942 203.791 -168.122 205.019C-161.408 209.497 -154.036 212.772 -147.068 216.807C-142.042 219.722 -136.584 221.745 -131.059 223.6C-126.227 225.226 -121.297 226.456 -116.418 227.912C-112.439 229.089 -108.373 230.08 -104.161 229.82C-103.453 229.784 -103.184 230.104 -102.922 230.538C-100.836 234.166 -98.8871 237.863 -96.2025 241.371C-101.921 241.604 -107.365 241.719 -112.833 241.565C-122.491 241.291 -131.631 239.596 -139.695 233.687C-142.408 231.703 -145.315 229.785 -148.612 228.684C-144.48 231.568 -140.285 234.341 -135.967 236.949C-131.777 239.473 -127.273 240.813 -122.539 241.46C-114.585 242.535 -106.548 242.795 -98.5353 242.481C-95.6282 242.357 -94.1566 243.337 -92.8727 245.622C-91.6416 247.828 -89.919 249.775 -88.8465 252.087C-87.9439 254.026 -88.8131 255.237 -90.8114 255.144C-91.8966 255.102 -92.9788 255.347 -93.6293 256.398C-93.9656 256.952 -94.4201 257.232 -95.0584 257.387C-98.656 258.253 -102.306 258.698 -105.994 258.796C-109.797 258.907 -113.493 258.109 -117.201 257.214C-121.023 256.294 -124.841 255.298 -128.618 254.266C-131.249 253.546 -133.726 252.472 -136.04 250.854C-135.342 250.321 -134.197 250.309 -134.397 249.458C-134.568 248.761 -135.638 248.797 -136.359 248.718C-138.482 248.466 -140.539 248.064 -142.628 247.547C-145.694 246.764 -148.395 245.239 -151.224 243.974C-154.147 242.684 -157.174 241.542 -160.084 239.318C-157.319 239.015 -158.209 238.221 -159.344 237.356C-163.625 234.082 -167.907 230.808 -172.147 227.48C-173.079 226.741 -174.15 226.108 -174.697 224.971C-174.918 224.5 -175.315 224.097 -174.493 223.723C-172.985 223.025 -172.865 222.25 -174.26 221.599C-178.145 219.778 -181.288 216.95 -184.392 214.124C-187.442 211.339 -190.709 208.695 -192.911 205.079C-193.156 204.684 -193.816 204.208 -192.953 203.799C-191.171 202.983 -192.38 202.419 -193.064 201.694C-195.514 199.095 -198.285 196.803 -200.592 194.04C-202.719 191.479 -204.727 188.829 -207.034 186.429C-208.604 184.814 -210.048 182.997 -211.061 180.651C-209.732 181.107 -208.603 181.399 -207.803 180.394C-206.94 179.298 -207.902 178.423 -208.444 177.534C-209.215 176.308 -210.064 175.116 -210.697 173.821C-213.074 168.899 -215.372 163.942 -217.759 158.867C-216.692 158.564 -216.024 159.575 -215.351 158.811C-214.964 158.375 -215.281 157.899 -215.468 157.488C-217.712 152.249 -219.819 146.941 -221.11 141.373C-221.631 139.092 -222.305 136.822 -222.184 134.329C-221.082 134.754 -220.149 135.13 -219.214 135.469C-218.877 135.583 -218.458 135.931 -218.113 135.569C-217.787 135.205 -218.068 134.77 -218.201 134.419C-219.036 132.292 -219.969 130.218 -220.765 128.074C-222.242 124.118 -223.834 120.194 -223.419 115.847C-223.376 115.43 -223.86 114.869 -222.915 114.693C-220.392 114.262 -220.388 114.205 -221.199 111.641C-221.473 110.748 -221.708 109.838 -222.119 108.994C-223.845 105.406 -223.988 101.486 -224.63 97.6149C-223.381 100.184 -221.216 102.08 -220.006 104.648C-218.503 107.804 -215.863 110.051 -213.563 112.603C-210.112 116.383 -206.657 120.107 -203.221 123.829ZM-142.05 128.612C-140.484 130.627 -139.885 133.217 -138.158 135.088C-134.597 138.97 -131.695 143.35 -128.394 147.446C-127.395 148.685 -126.449 148.834 -125.374 147.692C-123.794 146.044 -123.485 145.985 -122.279 147.961C-118.47 154.223 -115.422 160.766 -114.133 168.07C-112.671 176.376 -111.037 184.672 -109.344 192.933C-107.921 199.882 -106.975 206.842 -107.601 213.924C-107.746 215.481 -107.263 217.091 -107.913 218.81C-108.312 218.445 -108.662 218.215 -108.873 217.898C-112.474 212.697 -116.898 208.213 -121.201 203.622C-121.831 202.957 -122.742 202.181 -122.794 201.415C-123.072 197.182 -124.061 193.044 -124.455 188.824C-125.143 181.363 -127.065 174.119 -128.757 166.85C-130.063 161.224 -131.933 155.777 -133.725 150.296C-134.475 148.022 -135.031 145.682 -136.519 143.633C-130.5 161.524 -125.947 179.696 -125.006 198.658C-125.151 198.535 -125.372 198.389 -125.553 198.207C-129.4 194.004 -133.267 189.799 -137.075 185.56C-137.936 184.596 -139.224 183.741 -139.279 182.326C-139.438 177.337 -140.388 172.495 -141.53 167.68C-143.073 161.163 -144.867 154.709 -147.029 148.348C-149.453 141.21 -152.324 134.218 -155.079 127.195C-155.562 125.947 -156.143 124.731 -156.684 123.499C-155.735 127.33 -154.493 131.044 -152.939 134.642C-150.709 139.785 -149.025 145.145 -147.3 150.451C-145.541 155.835 -143.996 161.302 -142.936 166.895C-142.068 171.504 -141.296 176.107 -141.016 180.989C-141.911 180.271 -142.664 179.751 -143.316 179.123C-147.695 174.871 -152.034 170.583 -156.394 166.332C-156.883 165.865 -157.142 165.374 -157.351 164.675C-158.522 160.717 -158.942 156.63 -159.556 152.607C-161.099 142.351 -164.416 132.758 -169.482 123.736C-169.847 123.105 -170.291 122.526 -170.656 121.876C-170.984 121.266 -171.248 120.526 -172.091 120.25C-164.243 133.417 -160.929 147.837 -159.792 162.955C-160.089 162.805 -160.391 162.749 -160.572 162.568C-165.17 157.788 -170.378 153.699 -175.241 149.229C-180.413 144.474 -185.299 139.392 -190.226 134.365C-192.464 132.083 -194.961 129.997 -196.12 126.841C-197.415 123.391 -198.148 119.782 -199.249 116.286C-200.612 111.993 -202.287 107.835 -204.646 103.963C-203.5 107.691 -202.024 111.322 -200.897 115.049C-199.786 118.717 -199.044 122.499 -198.147 126.232C-209.327 114.634 -220.791 103.344 -227.579 87.9285C-227.068 88.3578 -226.887 88.5206 -226.685 88.6655C-220.826 93.077 -215.262 97.9682 -208.341 100.779C-207.278 101.22 -206.311 102.019 -205.251 100.8C-204.822 100.309 -204.472 100.862 -204.272 101.045C-201.746 103.286 -198.957 104.93 -195.628 105.804C-193.446 106.365 -191.32 107.228 -189.071 107.621C-187.842 107.824 -186.876 107.611 -187.394 105.96C-187.509 105.629 -187.491 105.306 -187.114 105.041C-186.393 105.463 -185.655 105.905 -184.916 106.347C-178.99 109.885 -172.43 112.332 -167.01 116.738C-166.225 117.373 -164.724 117.496 -164.47 116.709C-163.821 114.665 -163.09 116.252 -162.532 116.512C-160.86 117.312 -159.699 118.731 -158.456 120.041C-156.294 122.318 -154.03 124.487 -151.686 126.584C-151.086 127.113 -150.008 126.945 -149.79 128.159C-149.631 129.065 -147.859 129.107 -147.224 128.322C-145.422 126.133 -143.828 126.299 -142.05 128.612ZM-112.788 38.8559C-117.418 54.0708 -115.284 69.7792 -116.442 85.6847C-119.464 77.9785 -121.487 70.5001 -122.677 62.7821C-122.641 69.9775 -120.734 76.8007 -118.768 83.6081C-118.433 84.7717 -118.069 86.1087 -116.974 86.6661C-116.14 87.0945 -116.145 87.5331 -116.015 88.2654C-114.787 95.9855 -115.456 103.828 -113.906 111.586C-112.744 117.413 -111.512 123.34 -111.2 129.348C-111.09 131.473 -110.29 133.54 -110.466 136.011C-115.337 130.319 -119.997 124.944 -124.156 119.139C-128.349 113.276 -130.918 106.683 -133.757 100.131C-132.925 101.972 -132.673 103.951 -132.034 105.819C-129.26 113.873 -124.275 120.583 -119.271 127.313C-116.22 131.433 -112.391 134.949 -110.099 139.675C-107.807 144.402 -107.617 149.507 -106.516 155.064C-110.674 151.969 -113.932 148.829 -116.93 145.456C-121.651 140.154 -126.876 135.339 -131.658 130.091C-135.631 125.747 -139.776 121.737 -140.959 115.622C-141.614 116.749 -141.614 116.749 -141.354 117.565C-140.135 121.335 -137.968 124.547 -135.265 127.389C-130.653 132.246 -126.099 137.138 -121.346 141.869C-116.484 146.702 -112.718 152.694 -106.6 156.224C-106.415 156.329 -106.299 156.641 -106.236 156.874C-105.606 159.256 -104.938 161.64 -105.276 164.254C-105.735 163.942 -106.203 163.783 -106.376 163.468C-107.541 161.437 -109.194 160.982 -111.32 161.798C-112.237 162.166 -112.499 161.388 -112.832 160.854C-114.16 158.681 -115.449 156.491 -116.464 154.163C-118.019 150.585 -119.872 147.218 -122.593 144.375C-123.44 143.488 -123.989 143.4 -125.083 144.197C-127.43 145.898 -126.789 146.372 -128.859 143.49C-129.09 143.172 -129.398 142.887 -129.647 142.568C-132.605 138.834 -135.998 135.362 -138.084 131.047C-139.556 128.027 -141.593 125.909 -144.653 124.669C-145.176 124.468 -145.967 124.29 -145.711 123.465C-144.952 121.16 -146.661 118.279 -144.018 116.405C-143.78 116.246 -143.804 115.653 -143.782 115.254C-143.568 111.106 -143.033 106.996 -141.894 103.015C-141.421 101.381 -141.184 99.5435 -139.879 98.052C-139.686 98.3491 -139.503 98.4929 -139.475 98.6662C-139.354 99.2263 -139.212 99.7685 -138.503 99.7128C-137.526 99.6341 -138.191 98.9098 -138.035 98.4988C-137.627 97.3578 -137.541 96.1605 -137.36 94.9686C-136.632 90.1629 -136.659 85.1814 -134.216 80.758C-133.729 79.8886 -133.687 78.1165 -131.836 79.136C-131.521 79.3063 -131.176 78.9441 -131.027 78.6662C-130.307 77.39 -129.274 76.3221 -128.942 74.8143C-127.794 69.6506 -125.877 64.7397 -123.887 59.8712C-122.739 57.0926 -121.705 54.2885 -120.445 51.5543C-119.642 49.8248 -118.304 48.4306 -117.589 46.5626C-116.535 43.7596 -114.681 41.3067 -112.788 38.8559ZM-70.222 185.318C-70.4031 186.167 -70.6751 186.934 -69.5668 187.244C-67.7262 187.767 -67.7554 189.311 -67.8691 190.659C-68.0827 193.109 -68.7338 195.533 -69.6997 197.788C-71.8748 202.894 -74.0689 207.999 -76.486 212.997C-77.3692 214.798 -77.757 216.951 -79.4432 218.441C-79.7682 217.43 -79.8344 216.568 -79.8001 215.616C-79.679 212.093 -79.9638 208.661 -82.9119 206.111C-83.6217 205.499 -84.1877 204.704 -85.1683 204.496C-85.7537 204.387 -86.06 204.065 -86.197 203.446C-86.7222 201.242 -87.3246 199.052 -87.8688 196.846C-89.0712 192.085 -90.0019 187.244 -92.0617 183.14C-83.6299 174.321 -75.9779 165.114 -70.6233 154.004C-71.1918 153.934 -71.3515 154.058 -71.5354 154.277C-73.3498 156.351 -74.6307 158.778 -76.1313 161.041C-80.1307 167.037 -84.7524 172.56 -89.5927 177.898C-90.7314 179.151 -92.3551 180.205 -92.6403 182.23C-93.495 181.82 -94.2735 181.07 -95.2565 181.588C-96.5534 182.259 -97.1819 181.556 -97.7922 180.53C-99.7297 177.311 -100.844 173.7 -102.566 170.378C-103.064 169.396 -103.009 168.407 -102.986 167.321C-102.933 164.672 -102.996 162.054 -103.744 159.398C-105.016 154.862 -105.477 150.143 -106.112 145.47L-106.116 145.547C-106.964 143.992 -107.131 142.208 -107.4 140.533C-108.998 130.922 -110.364 121.248 -112.04 111.652C-113.609 102.539 -113.778 93.2945 -114.332 84.1238C-114.782 76.8289 -113.949 69.4533 -114.033 62.1026C-114.127 53.5683 -112.344 45.2346 -109.995 36.6846C-109.818 37.6104 -109.719 38.2266 -109.582 38.8448C-108.775 42.4963 -108.316 46.2236 -107.024 49.7304C-105.863 52.8484 -104.372 55.8513 -103.134 58.9545C-101.244 63.716 -99.5104 68.5261 -97.6021 73.2887C-96.7166 75.5325 -95.6345 75.6313 -94.077 73.7152C-93.8079 74.3599 -93.5958 75.0015 -93.2843 75.5723C-91.0523 79.6661 -88.8405 83.7778 -87.3336 88.2126C-86.5147 90.6245 -85.6757 93.0185 -84.7396 95.3797C-84.3047 96.4726 -83.415 96.5987 -82.4942 95.8298C-82.1739 95.5616 -82.1947 94.9117 -81.454 94.9723C-79.9428 99.331 -78.6293 103.812 -76.8455 108.072C-74.6574 113.289 -73.7628 118.777 -72.4646 124.211C-72.048 125.971 -72.5091 128.75 -69.2226 128.667C-68.6688 128.66 -68.7147 129.478 -68.755 129.857C-68.9691 133.337 -68.5333 136.796 -68.556 140.267C-68.58 146.143 -67.7248 151.991 -68.1503 157.882C-68.2269 158.908 -67.4625 160.249 -66.7818 160.02C-65.2831 159.493 -65.7666 160.63 -65.602 161.097C-65.2853 161.916 -65.3344 162.791 -65.4035 163.684C-65.9735 171.132 -68.6725 178.097 -70.222 185.318ZM-53.9515 154.766C-53.584 155.359 -53.6932 155.945 -53.9079 156.372C-55.0958 158.843 -55.0939 161.533 -55.3361 164.153C-55.5773 166.753 -55.5205 169.485 -54.7777 171.893C-53.3396 176.533 -51.3001 180.998 -48.8473 185.238C-46.7778 188.826 -44.3553 192.244 -42.6389 196.004C-40.5646 200.527 -37.9988 204.793 -35.0682 208.678C-29.7583 215.73 -24.9115 223.214 -18.4408 229.3C-15.2879 232.282 -12.3317 235.71 -7.96596 237.138C-7.32883 237.345 -7.28136 237.52 -7.3208 238.224C-7.39648 239.574 -8.29273 239.905 -9.22065 240.121C-10.7109 240.495 -12.2316 240.734 -13.7492 240.916C-16.6892 241.286 -19.5942 241.371 -22.5094 240.616C-28.2278 239.151 -33.0789 236.17 -37.2394 232.101C-40.8761 228.558 -44.8352 225.322 -47.4653 220.843C-48.6849 218.771 -49.9044 216.7 -51.3237 214.788C-54.3948 210.686 -56.9786 206.4 -58.4165 201.416C-59.6297 197.189 -62.1683 193.459 -62.7156 188.925C-63.2987 184.008 -64.2062 179.092 -62.9981 174.218C-62.0103 170.209 -60.6071 166.281 -59.2431 162.369C-58.2187 159.412 -56.3429 156.922 -53.9515 154.766ZM-7.37119 235.378C-7.6069 235.498 -8.10237 235.146 -8.47533 234.992C-11.2382 233.902 -13.2376 231.786 -15.3025 229.82C-20.175 225.177 -24.2853 219.872 -28.3945 214.547C-32.0063 209.88 -35.6752 205.209 -38.36 200.002C-41.787 193.399 -45.6886 187.094 -49.1547 180.508C-53.8096 171.641 -54.3274 162.835 -50.0644 153.839C-49.1123 151.832 -48.4824 149.444 -45.9997 148.381C-42.3056 146.814 -38.5831 145.419 -34.6769 144.494C-31.4672 143.738 -28.3352 144.028 -25.177 144.873C-21.6057 145.837 -18.4057 147.638 -15.1179 149.234C-12.3129 150.593 -9.26474 151.699 -7.04882 154.037C-2.45327 158.854 1.34095 164.352 5.55591 169.492C9.32308 174.111 11.5903 179.619 14.4114 184.776C15.7101 187.138 17.2243 189.398 17.8708 192.163C18.7756 196.106 19.9509 199.988 20.7954 203.985C21.777 208.6 21.5086 213.05 20.0166 217.202C17.7574 223.468 14.6224 229.36 8.37967 232.826C6.0478 234.26 3.68004 235.654 1.38197 237.166C0.0955267 237.991 -1.01976 238.825 -1.83559 236.699C-1.93587 236.446 -2.34366 236.232 -2.64586 236.177C-4.18955 235.804 -5.58169 234.429 -7.37119 235.378ZM0.254394 261.373C-0.0425615 263.608 0.820741 265.908 -0.350117 268.075C-0.988942 269.26 -1.56969 270.429 -3.12955 270.685C-3.86192 270.816 -4.50864 270.78 -4.9543 270.221C-5.52566 269.521 -4.71917 269.089 -4.41147 268.706C-2.81059 266.696 -2.12895 264.407 -1.75894 261.89C-1.42286 259.638 -2.06431 257.465 -1.90051 255.223C-1.48458 249.503 -3.30487 244.192 -5.67163 239.098C-6.1319 238.119 -5.79047 237.813 -5.07815 237.701C-4.17351 237.56 -3.37056 237.873 -2.75812 238.861C-2.64309 239.192 -2.3654 239.684 -2.29802 240.184C-1.83037 243.416 -1.20842 246.618 -0.259961 249.781C0.880538 253.604 0.777234 257.491 0.254394 261.373ZM42.253 135.009C42.7436 134.426 43.5239 133.44 44.6426 134.246C45.0282 134.516 45.3937 134.804 45.7793 135.073C47.7568 136.558 49.3663 138.48 51.2635 140.036C57.1208 144.81 62.0858 150.527 67.6798 155.572C72.5472 159.966 75.4409 165.872 79.2082 170.147C80.8375 172.738 82.3023 174.518 83.1351 176.683C83.4844 177.599 83.1872 178.136 82.3451 177.84C81.3161 177.477 79.952 176.962 79.5784 176.14C78.5248 173.829 77.17 171.788 75.663 169.738C73.0219 166.137 70.3437 162.514 67.1168 159.49C62.802 155.451 59.3319 150.639 54.814 146.818C50.8434 143.447 47.0578 139.839 43.1886 136.359C42.7154 135.951 41.6196 135.756 42.253 135.009ZM103.86 108.181C105.826 109.875 108.424 110.841 110.654 112.244C114.321 114.568 118.312 114.849 122.385 115.039C122.765 115.06 123.244 115.029 123.541 114.836C124.117 114.43 124.948 113.904 125.346 114.289C125.833 114.793 125.759 115.762 125.62 116.555C125.156 119.048 124.367 121.542 124.361 124.041C124.346 128.39 121.206 130.275 118.239 131.807C115.842 133.047 113.905 134.579 112.013 136.343C107.319 140.774 103.716 146.162 99.641 151.124C96.3642 155.119 93.0483 159.131 90.062 163.39C89.6465 163.996 89.271 164.567 88.4594 164.75C88.2519 163.346 88.6308 162.031 88.6473 160.716C88.662 154.325 87.0619 148.148 85.9807 141.906C85.3579 138.379 83.9065 134.997 83.4179 131.458C82.4312 124.21 80.1467 117.308 78.3082 110.279C78.1668 109.737 77.8427 109.051 78.5899 108.997C79.988 108.904 80.6542 107.911 81.6299 107.183C86.0476 103.939 90.6057 100.913 94.9916 97.8956C96.5682 102.449 100.382 105.219 103.86 108.181ZM86.7238 167.801C87.0885 169.806 86.8182 171.565 86.6387 173.406C86.5441 174.412 86.0333 175.357 84.6512 175.165C84.3677 171.371 85.3808 167.593 84.6397 163.792C84.2687 161.901 84.1291 159.966 83.8351 158.061C83.2167 154.115 82.9471 150.074 81.8436 146.272C80.2769 140.861 79.2334 135.307 77.8211 129.866C76.394 124.348 75.7024 118.643 73.9297 113.163C72.807 109.704 72.9186 110.778 75.954 109.727C76.8682 109.416 76.8427 109.872 76.8498 110.426C76.946 112.454 77.817 114.277 78.262 116.21C79.4473 121.276 80.6707 126.344 81.5865 131.451C82.5762 136.945 84.7664 142.124 85.2139 147.758C85.5342 151.917 86.9091 155.982 86.5362 160.254C86.3384 162.762 86.2832 165.449 86.7238 167.801ZM72.1943 157.752C69.7863 154.755 66.5252 152.683 63.9882 149.946C58.4284 143.949 52.4594 138.443 46.1479 133.262C45.8384 132.997 45.4137 132.744 45.9138 132.333C47.8748 130.707 48.3367 128.252 49.4463 126.158C51.8811 121.525 53.1315 116.577 53.5154 111.427C53.6515 109.68 53.9644 109.544 55.4308 110.275C60.7608 112.883 66.2102 113.36 71.7382 110.731C72.643 114.674 74.1703 118.404 74.5964 122.378C74.9488 125.622 75.5908 128.806 76.6017 131.878C77.8437 135.592 78.2941 139.471 79.3427 143.232C80.598 147.729 81.1167 152.433 81.8489 157.072C82.5621 161.71 83.3324 166.352 82.6485 171.065C82.4709 171.169 82.2944 171.255 82.1168 171.359C80.2118 168.581 78.3068 165.803 76.3827 163.024C75.0933 161.177 73.6031 159.51 72.1943 157.752ZM15.8019 53.3888C16.2964 55.8016 17.258 58.0498 18.1985 60.3349C20.7032 66.3711 23.227 72.4085 27.0096 77.7722C29.2906 80.991 31.1953 84.4559 33.1434 87.8279C35.5433 91.9884 38.5681 95.5542 41.4692 99.2849C43.9256 102.437 47.339 104.517 50.3029 107.126C51.3212 108.023 52.0595 108.808 51.5938 110.308C51.2932 111.245 51.3677 112.299 51.2542 113.304C50.6567 118.518 48.336 123.158 46.4083 127.934C46.0073 128.961 45.1214 129.789 44.4784 130.707C43.4823 132.14 42.116 132.006 41.1773 132.755C40.5024 131.858 34.2026 135.321 31.3925 135.755C28.5433 136.206 25.794 135.556 22.9862 135.609C19.2231 135.684 15.5619 134.964 11.9993 133.505C8.21265 131.957 4.80891 129.706 1.12379 128.049C-5.79844 124.913 -10.9221 119.646 -15.845 114.2C-17.9288 111.889 -19.188 108.822 -20.831 106.135C-25.061 99.22 -28.0205 91.7655 -30.0637 83.9615C-31.322 79.1781 -32.2718 74.3357 -31.8784 69.3586C-31.5595 65.3696 -30.5094 61.6123 -27.9453 58.4169C-26.5094 56.6275 -24.877 55.078 -22.2918 54.2307C-24.8054 53.4602 -27.715 54.3084 -29.0167 56.0863C-30.2571 57.7912 -31.3697 59.5988 -32.4643 61.4264C-33.4341 63.0702 -33.8439 64.9362 -33.9283 66.7823C-34.1397 71.2353 -34.0604 75.6092 -33.0893 80.0712C-31.1418 88.9002 -28.2725 97.2847 -23.6319 105.043C-20.9626 109.505 -18.7859 114.245 -14.8122 117.902C-12.0173 120.463 -9.60939 123.46 -6.4286 125.603C-2.53047 128.226 1.83833 129.94 5.84325 132.358C7.79977 133.537 9.86632 134.454 11.972 135.354C16.0892 137.13 20.4018 137.124 24.7141 137.461C29.1776 137.826 33.6294 138.399 37.6612 135.573C37.7256 135.786 37.8089 136.001 37.8743 136.195C35.7751 137.222 33.658 138.229 31.5747 139.315C26.4038 142.04 20.8341 143.368 15.1041 144.154C12.5276 144.506 10.083 143.186 7.58484 143.16C-1.28009 143.026 -9.16933 140.122 -16.6182 135.488C-21.67 132.343 -25.1318 127.722 -28.6348 123.157C-32.9562 117.534 -35.7799 111.06 -38.2706 104.433C-39.6152 100.847 -40.2252 97.0919 -41.2612 93.4467C-44.6265 81.6571 -42.8437 70.614 -35.5739 60.737C-31.8158 55.6432 -26.8325 51.8392 -21.2219 48.7573C-17.3035 46.5918 -13.2343 45.1408 -8.8574 45.3479C-3.79467 45.5743 1.15767 46.7487 5.84647 48.8813C8.7117 50.1867 11.4426 51.8471 14.6411 52.3125C15.2867 52.3678 15.6512 52.6744 15.8019 53.3888ZM34.9779 8.78469C34.08 10.1654 33.5365 11.0126 32.995 11.8219C31.2079 14.4311 31.3596 17.5116 30.851 20.4597C29.9364 25.8845 29.3272 31.3074 30.7787 36.7313C31.2037 38.3388 31.9174 39.9052 32.2273 41.5254C32.8544 44.9759 34.1621 48.1975 35.1982 51.4992C36.1826 54.7027 37.612 57.7975 39.0435 60.8543C41.2086 65.4595 42.0907 70.489 44.1173 75.1819C47.4096 82.8269 51.1205 90.1519 56.5248 96.5414C59.8886 100.527 63.0695 104.712 68.0806 106.882C68.6204 107.122 69.3527 107.335 69.6387 108.019C68.6272 108.363 68.914 109.714 67.7081 110.124C64.0121 111.386 60.7452 110.096 57.4192 108.841C55.1582 107.989 51.7461 105.547 50.7997 104.73C48.6533 102.855 46.2828 101.234 44.2569 99.2503C40.6752 95.7486 37.9117 91.6059 35.3501 87.2647C31.3599 80.4964 26.836 74.0608 23.3997 66.942C19.2435 58.3709 16.3026 49.5627 16.4066 39.8756C16.4617 35.1467 17.1983 30.5133 18.758 26.174C20.4987 21.3297 23.56 17.0936 27.4368 13.6283C29.5057 11.7789 31.8303 10.1347 34.9779 8.78469ZM97.99 37.5784C100.79 42.4291 103.473 47.3305 104.124 53.0721C104.754 58.5262 105.292 63.8989 104.598 69.4697C103.881 75.1156 103.078 80.6039 100.761 85.8548C99.1888 89.392 96.945 92.3191 94.3631 95.151C91.6585 98.1286 87.9285 99.656 85.0117 102.336C83.2631 103.917 81.2176 105.347 78.8808 106.19C77.9454 106.538 76.3116 106.752 75.6985 107.137C75.1289 107.086 74.6006 106.98 74.0659 106.988C68.8794 106.927 64.974 104.094 61.815 100.539C57.9738 96.2219 54.4148 91.634 51.5915 86.5148C49.7565 83.1683 47.9395 79.8418 46.4976 76.2884C44.7709 72.0321 35.7238 48.5903 33.7768 40.7726C32.9352 37.4055 31.7849 34.0973 32.0761 30.6028C32.6097 24.1453 32.5971 17.5619 35.8113 11.6171C36.9388 9.5433 38.1384 6.8629 38.4513 6.72779C42.2152 4.93526 46.228 4.14885 50.281 3.32655C55.5124 2.24591 60.1564 3.13583 64.5753 5.99749C65.6434 6.687 66.8552 7.19379 67.9644 7.82837C70.7757 9.41695 73.9941 10.2079 76.6351 12.1113C80.3768 14.8014 83.1045 18.5605 86.5607 21.5781C88.0522 22.8828 89.4738 24.4126 90.7157 26.085C93.4308 29.7289 95.7294 33.6547 97.99 37.5784ZM111.541 12.6554C109.329 15.3554 108.148 18.3802 107.847 21.378C107.383 25.9123 107.562 30.5398 107.573 35.1197C107.558 40.824 108.525 46.3924 109.126 51.9977C109.476 55.2991 110.361 58.5733 110.443 61.8788C110.574 68.0492 112.88 73.5401 115.305 78.9613C116.745 82.2093 118.047 85.526 119.35 88.8426C121.539 94.3842 123.025 100.211 126.309 105.279C126.677 105.853 126.744 106.372 126.321 107.112C125.752 108.072 125.419 109.236 125.28 110.354C125.067 112.117 123.93 113.332 122.033 113.149C118.009 112.771 114.091 112.532 110.322 110.337C105.297 107.403 101.028 103.901 97.6254 99.2453C96.864 98.1914 96.2476 96.5922 97.0701 95.8751C98.5745 94.5665 99.3742 92.8941 100.302 91.3242C102.196 88.1676 103.982 84.8905 104.854 81.2568C106.047 76.3054 106.674 71.2461 106.96 66.1485C107.399 58.3119 106.43 50.7399 103.036 43.5471C100.291 37.7264 97.1515 32.1125 93.5178 26.8144C92.8652 25.862 93.0938 25.1879 93.6489 24.4749C98.1419 18.5255 103.252 13.4883 111.541 12.6554ZM134.525 109.155C133.463 107.34 131.499 106.295 129.959 105.522C126.802 103.971 125.557 100.982 124.667 98.4901C122.725 92.9624 120.608 87.5012 118.588 82.0073C116.932 77.5069 114.456 73.3421 113.425 68.5906C112.636 64.9592 112.617 61.2184 111.867 57.5702C110.969 53.1695 110.591 48.6834 109.943 44.2395C109.552 41.6799 110.079 39.0763 109.82 36.5622C109.449 32.9543 109.573 29.3932 109.66 25.7918C109.678 24.7816 109.179 23.8187 109.602 22.7358C110.313 20.9439 110.951 19.0906 111.456 17.23C111.984 15.3133 115.153 15.6245 114.838 13.0691C114.823 12.992 115.307 12.8664 115.543 12.7461C118.706 11.1107 122.224 11.6704 125.176 12.4464C132.398 14.3203 138.538 18.4804 143.794 23.774C147.225 27.2291 150.275 31.0254 152.946 35.1247C153.668 36.539 154.371 37.9522 155.113 39.3485C157.632 44.1071 159.899 48.947 161.11 54.2429C161.478 55.8472 161.063 57.4649 161.283 58.9846C161.985 63.8132 161.563 68.6169 161.334 73.3933C161.164 77.1045 160.593 80.8313 159.798 84.4503C159.032 87.9181 158.392 91.5075 156.613 94.6515C154.454 98.4421 151.018 101.188 148.041 104.265C146.725 105.622 145.138 106.697 143.213 107.333C140.881 108.099 138.395 108.533 136.276 109.921C135.365 110.519 134.874 109.747 134.525 109.155ZM129.368 127.985C128.087 131.767 127.636 136.073 123.31 138.025C123.075 138.127 122.375 138.354 121.655 138.619C122.598 137.108 123.449 135.534 124.208 133.916C125.896 130.347 126.06 126.407 126.578 122.601C127.075 118.85 128.141 115.151 127.197 111.225C126.548 108.498 128.23 107.429 130.828 108.395C131.333 108.576 131.802 108.716 132.374 108.729C133.326 108.764 133.927 109.618 134.076 110.351C134.315 111.548 132.942 111.184 132.367 111.572C131.555 112.099 131.315 111.284 131.2 110.61C131.142 110.282 131.165 109.864 130.682 109.97C130.064 110.107 129.843 110.648 129.831 111.201C129.788 112.992 129.82 114.806 129.815 116.6C129.735 120.411 130.625 124.277 129.368 127.985ZM135.187 129.341C139.994 124.268 145.975 121.379 152.8 120.12C147.134 123.523 140.791 125.706 135.187 129.341ZM123.81 142.041C129.047 136.095 135.23 131.652 143.048 129.686C136.706 133.91 130.75 138.728 123.81 142.041ZM94.8776 172.113C94.8576 172.13 94.8575 172.13 94.8374 172.148C94.0186 174.163 92.3905 175.637 91.1121 177.339C91.2632 177.367 91.3762 177.392 91.5453 177.44C90.7461 178.082 90.5109 179.214 90.0056 179.72C87.0664 182.799 84.7831 186.43 81.8471 189.452C77.0883 194.356 72.8208 199.688 68.061 204.611C60.7087 212.213 53.9163 220.38 46.9253 228.346C42.788 233.056 38.7965 237.889 34.5874 242.518C33.0829 244.17 32.1868 246.2 30.6105 247.772C24.0608 254.331 17.5112 260.89 11.0523 267.531C8.54134 270.118 5.90362 272.585 3.19511 274.951C0.525693 277.301 -3.35299 276.035 -6.17226 277.995C-6.76739 278.4 -7.04493 277.564 -7.57431 277.477C-8.2178 277.384 -8.61741 277.705 -8.94625 278.125C-9.48131 278.82 -9.97935 279.537 -10.4035 280.295C-11.5647 282.291 -10.8499 283.495 -8.49862 283.417C-6.79726 283.359 -5.0884 283.169 -3.03718 282.998C-7.03904 287.334 -11.8866 290.077 -16.1437 293.521C-20.8596 297.321 -26.0393 300.541 -31.0583 303.961C-36.0974 307.4 -41.8514 309.634 -46.7702 313.308C-48.2639 314.427 -49.8104 315.466 -51.5522 316.246C-54.7422 317.67 -57.853 319.384 -60.7789 321.205C-64.1784 323.304 -67.7352 325.146 -71.1167 327.265C-74.5575 329.42 -78.4437 330.671 -82.0587 332.529C-90.4291 336.849 -98.2674 342.23 -107.518 344.898C-111.494 346.049 -115.237 348.148 -119.275 349.371C-122.089 350.225 -124.839 351.292 -127.638 352.204C-128.532 352.497 -129.61 353.009 -130.357 352.719C-131.291 352.362 -130.532 351.068 -130.844 350.173C-131.158 349.297 -131.394 348.406 -131.765 347.546C-133.169 344.338 -135.188 341.553 -137.843 338.524C-132.583 338.303 -128.204 336.431 -123.702 335.08C-120.286 334.05 -117.013 332.516 -113.71 331.118C-109.606 329.383 -105.518 327.589 -101.447 325.757C-96.5729 323.568 -91.7488 321.244 -86.8413 319.134C-82.4613 317.242 -77.8374 315.765 -74.3316 312.451C-72.4572 310.667 -70.4154 310.323 -68.1507 310.087C-67.8822 310.064 -67.6275 309.945 -67.3612 309.96C-66.6944 309.978 -66.4374 309.478 -66.6422 309.046C-67.2735 307.713 -66.537 307.85 -65.6187 307.806C-64.7765 307.758 -63.8708 307.599 -63.1076 307.26C-59.1176 305.518 -55.231 303.58 -51.5524 301.267C-48.2692 299.2 -44.968 297.153 -41.8062 294.868C-37.4108 291.68 -32.9245 288.573 -28.8163 285.064C-22.6043 279.764 -16.1769 274.705 -9.96498 269.406C-8.58218 268.224 -7.03888 267.242 -5.63494 266.023C-6.91213 267.363 -7.32305 269.248 -8.66993 270.47C-9.09284 270.867 -9.13637 271.303 -8.85442 271.719C-8.64323 272.037 -8.25033 272.517 -7.89196 272.25C-6.4987 271.222 -5.47098 272.291 -4.31089 272.699C-3.56179 272.951 -2.74816 273.073 -1.96068 272.64C0.637465 271.221 2.86012 268.331 2.29631 265.113C2.03493 263.648 2.3284 262.157 2.29527 260.705C2.23863 257.63 3.4623 255.542 6.22629 254.228C6.75584 253.972 7.14709 253.459 7.59008 253.045C10.8484 250.06 13.3462 246.346 16.6584 243.422C21.4971 239.133 26.1003 234.62 30.6866 230.069C34.0402 226.746 37.5554 223.604 40.872 220.26C46.0282 215.073 51.5456 210.249 56.5392 204.901C58.7722 202.507 61.3136 200.398 63.4367 197.922C65.8475 195.08 68.3132 192.28 70.9774 189.682C73.501 187.209 75.9179 184.597 77.8733 181.711C79.266 179.671 80.1805 178.673 82.6463 179.956C83.6848 180.491 85.5892 180.216 85.5668 178.574C85.5619 177.639 85.8264 177.005 86.2378 176.475C86.2888 175.905 86.605 175.37 87.2867 175.122C87.8913 174.888 88.3723 174.476 88.7265 173.943C88.7276 173.924 88.7096 173.904 88.7118 173.866C88.7078 173.255 88.724 172.626 88.7771 172.019C88.7592 171.999 88.7402 171.998 88.7222 171.977C88.4963 171.583 88.6991 167.282 89.0395 166.996C93.5261 163.202 96.3522 158.056 100.054 153.627C103.551 149.454 106.755 145.054 110.088 140.738C113.443 136.366 118.236 133.562 123.067 130.437C121.9 132.871 121.476 135.347 119.655 137.191C119.007 137.86 118.737 138.933 119.543 139.531C120.711 140.475 122.454 140.706 122.154 141.28C121.79 141.985 120.93 142.7 121.326 143.466C121.515 143.84 121.995 143.79 121.378 144.233C118.693 146.181 116.294 148.47 113.718 150.52C111.581 152.232 109.518 153.967 107.778 156.083C103.435 161.392 99.4759 167.009 94.8776 172.113ZM115.347 175.931C117.501 175.632 119.467 175.952 121.372 173.96C123.116 172.13 126.248 172.077 128.793 171.266C130.911 170.583 133.138 171.013 135.282 170.561C138.931 169.792 142.453 168.577 146.17 167.965C152.543 166.929 158.846 165.451 165.26 164.723C167.507 164.467 169.671 165.008 171.932 165.86C170.996 166.208 170.1 166.54 170.42 167.645C170.595 168.265 171.148 168.277 171.744 168.196C174.092 167.832 176.458 168.174 178.818 167.944C181.312 167.702 183.816 168.644 186.302 168.879C190.856 169.325 194.937 171.08 199.125 172.612C200.34 173.061 199.968 173.575 199.268 174.146C198.988 174.379 198.117 173.91 198.465 174.845C198.697 175.469 199.242 175.633 199.758 175.605C201.981 175.443 204.142 176.041 206.368 176.147C210.231 176.325 214.081 177.094 217.766 178.408C220.852 179.515 223.917 180.66 227.002 181.787C227.75 182.058 228.972 182.05 229.024 182.816C229.084 183.793 227.843 183.819 227.064 184.099C226.694 184.231 226.337 184.459 226.019 184.69C225.643 184.936 225.472 185.269 225.772 185.706C226.003 186.005 226.162 186.567 226.656 186.271C227.525 185.747 228.004 186.384 228.635 186.706C230.285 187.562 231.959 188.342 233.756 188.958C237.351 190.171 241.085 191.296 244.208 193.456C247.422 195.677 250.284 198.413 253.29 200.948C254.147 201.664 254.742 202.27 252.981 202.724C251.723 203.035 251.507 203.825 252.819 204.585C253.633 205.05 254.405 205.571 255.2 206.016C261.66 209.583 268.156 213.172 272.563 219.315C273.801 221.044 276.593 222.632 274.954 225.669C274.846 225.892 275.086 226.383 275.485 226.748C277.68 228.779 280.184 230.408 282.212 232.697C286.069 237.073 288.779 242.166 291.923 246.998C292.573 248.008 293.574 248.865 293.848 250.102C293.196 250.504 292.417 249.773 292.055 250.44C291.652 251.162 292.29 251.693 292.681 252.211C293.124 252.809 293.568 253.406 294.073 253.93C298.492 258.49 301.512 263.849 303.951 269.691C305.566 273.56 307.061 277.517 309.026 281.271C309.784 282.726 311.062 284.095 310.913 286.071C304.977 279.308 297.156 274.844 290.463 268.973C293.822 269.295 297.05 269.915 300.406 269.626C300.253 268.95 299.78 268.866 299.435 268.904C297.443 269.04 295.569 268.42 293.662 268.065C291.623 267.684 289.448 266.989 287.886 265.929C284.67 263.726 281.852 260.897 279.069 258.127C274.026 253.131 268.998 248.194 263.242 243.998C258.493 240.545 254.055 236.671 249.43 233.054C245.446 229.931 241.563 226.698 237.128 224.122C234.449 222.56 231.665 221.164 229.097 219.321C225.539 216.756 222.105 214.026 218.136 211.991C216.076 210.941 214.155 209.478 211.639 208.402C225.538 208.265 238.861 209.527 252.198 210.904C250.429 209.775 248.479 209.856 246.584 209.616C240.502 208.856 234.424 208.019 228.302 207.619C222.446 207.252 216.581 207.382 210.771 206.541C210.032 206.442 209.593 207.124 208.723 206.655C203.612 203.869 198.22 201.697 192.784 199.618C191.514 199.127 190.269 198.523 188.799 197.868C193.475 195.116 198.454 194.46 203.364 194.334C210.206 194.145 217.082 194.702 223.949 194.4C224.522 194.375 225.234 194.625 225.795 193.797C222.906 193.254 220.12 193.594 217.358 193.516C211.872 193.361 206.404 192.864 200.928 193.205C197.194 193.454 193.461 194.008 189.99 195.34C187.144 196.421 184.739 196.42 181.933 195.079C178.031 193.22 174.04 191.565 169.965 190.058C167.367 189.092 164.508 188.703 162.15 187.197C163.111 185.362 164.689 184.439 166.505 184.045C169.963 183.285 173.468 182.718 177.019 182.669C180.533 182.618 184.009 182.564 187.483 181.843C190.65 181.181 193.963 181.309 197.175 180.841C200.445 180.375 203.783 180.734 207.006 179.751C201.07 179.437 195.151 179.506 189.288 180.284C184.982 180.863 180.68 181.347 176.356 181.563C171.974 181.795 167.567 181.776 163.451 183.721C162.628 184.114 161.822 184.527 161.49 185.347C160.889 186.878 159.855 186.611 158.713 186.222C156.954 185.608 155.222 184.844 153.434 184.4C148.503 183.189 143.741 181.338 138.69 180.559C138.293 180.499 137.723 180.448 137.607 179.792C138.896 178.586 140.465 177.834 142.102 177.22C144.479 176.342 146.913 175.811 149.4 175.359C151.385 174.993 153.366 174.379 155.385 174.11C159.806 173.519 164.242 173.023 168.652 172.297C170.057 172.071 171.569 171.659 172.737 170.561C172.182 169.9 171.687 170.235 171.185 170.34C169.039 170.83 166.918 171.57 164.736 171.696C157.922 172.077 151.233 173.286 144.67 174.979C141.302 175.84 137.679 176.476 135.548 179.772C135.151 180.38 134.616 180.064 134.319 179.913C132.816 179.142 131.168 179.279 129.593 179.114C126.636 178.777 123.741 178.004 120.654 178.613C118.898 178.954 116.717 179.061 115.144 178.534C111.061 177.16 106.9 176.85 102.71 176.368C101.421 176.219 100.021 176.35 98.9096 175.41C100.3 175.45 101.665 175.279 103.048 175.451C107.096 176.079 111.193 176.519 115.347 175.931ZM314.53 179.995C303.934 176.692 294.122 171.333 283.409 168.424C272.64 165.493 261.947 162.242 250.657 160.083C252.674 158.478 254.337 157.064 255.894 155.51C258.579 152.875 261.44 150.517 265.205 149.373C267.943 148.534 270.681 148.363 273.477 148.177C270.517 147.209 267.505 147.155 264.574 148.04C260.227 149.342 256.95 152.326 253.635 155.289C251.024 157.623 248.141 159.694 244.359 158.756C238.976 157.425 233.509 156.584 227.989 156.351C218.832 155.971 209.688 156.737 200.506 156.471C192.677 156.242 184.773 156.658 176.921 157.191C171.079 157.588 165.211 157.431 159.663 159.734C158.901 160.054 158.108 160.239 157.04 160.58C158.413 157.527 159.927 155.017 161.813 152.681C164.888 148.884 169.205 146.417 172.278 142.658C173.752 140.871 175.298 139.164 176.827 137.418C176.683 137.257 176.519 137.115 176.376 136.954C175.349 137.908 174.322 138.861 173.314 139.835C170.654 142.357 167.975 144.879 165.351 147.441C162.283 150.436 158.54 152.879 156.889 157.137C156.777 157.436 156.561 157.881 156.33 157.926C153.457 158.452 155.404 159.801 155.985 161.017C151.14 161.318 147.359 164.445 142.787 165.333C144.699 160.499 144.922 155.149 148.71 151.24C147.872 150.869 147.469 151.247 147.239 151.597C144.536 155.91 141.441 160.068 141.064 165.447C141.056 165.58 140.853 165.797 140.737 165.829C138.795 166.083 137.529 167.92 135.7 168.199C132.602 168.674 129.544 169.094 126.593 170.341C124.209 171.352 121.589 171.797 119.204 172.808C115.217 174.512 111.128 174.607 106.93 173.933C109.487 173.58 111.997 173.053 114.478 172.371C121.63 170.387 128.314 167.556 133.204 161.667C135.108 159.37 136.811 156.889 138.496 154.408C140.119 151.999 142.386 150.352 145.054 149.738C147.413 149.183 149.145 147.888 150.919 146.537C151.657 145.968 152.27 145.239 153.008 144.67C156.499 141.965 160.184 139.538 164.133 137.508C166.942 136.063 169.885 134.968 173.11 134.958C173.549 134.964 174.114 134.747 174.389 135.297C175.18 136.83 175.478 136.961 176.555 135.8C178.363 133.841 180.603 132.669 182.925 131.425C189.022 128.18 195.583 126.181 201.979 123.716C202.311 123.582 202.856 122.715 203.135 123.857C203.444 125.153 204.053 124.5 204.503 123.972C205.385 122.876 206.29 122.374 207.877 122.653C211.807 123.351 215.808 123.117 219.772 123.205C223.698 123.292 227.634 122.845 231.57 123.428C232.951 123.639 234.277 124.152 235.728 124.138C238.553 124.124 238.778 124.538 237.637 127.183C238.864 127.767 240.172 127.917 241.498 128.086C243.525 128.353 245.563 128.753 247.535 129.322C251.028 130.319 254.424 131.692 257.945 132.519C261.335 133.319 264.369 134.672 266.99 136.937C267.663 137.528 268.939 137.905 267.626 139.205C267.162 139.656 267.816 140.246 268.397 140.432C268.828 140.57 269.389 140.43 269.758 140.66C274.566 143.391 279.796 145.402 283.929 149.278C284.835 150.13 285.757 151.04 286.854 151.559C288.898 152.533 290.839 153.653 292.673 154.977C294.268 156.134 294.487 156.986 292.958 158.064C291.586 159.037 292.544 159.32 293.191 159.68C297.463 162.114 300.738 165.637 303.971 169.233C307.274 172.929 310.128 177.172 314.53 179.995Z" fill="white"/>
</svg>
