<svg width="320" height="554" viewBox="0 0 320 554" fill="none" xmlns="http://www.w3.org/2000/svg">
<path d="M173.316 4.00808C172.508 5.57656 171.443 6.9057 170.117 8.09067C167.129 10.7519 164.03 13.3133 161.354 16.2733C159.357 18.4795 156.917 20.3242 155.435 22.99C155.044 23.6985 154.245 23.6467 153.676 23.5852C151.531 23.3448 150.342 24.4401 149.394 26.1744C148.24 28.2816 146.937 30.3064 145.82 32.4343C144.786 34.3939 142.887 35.6126 141.741 37.5104C139.594 41.0451 137.672 44.6843 135.899 48.4058C135.752 48.724 135.959 49.2663 135.311 49.2588C133.196 49.2293 132.531 51.0134 131.43 52.3029C128.264 56.0437 127.801 60.8295 126.456 65.255C125.53 68.3249 124.772 71.4589 123.845 74.5288C123.557 75.5084 123.442 76.4761 123.362 77.4834C123.28 78.5477 123.519 79.7015 121.585 79.4316C120.561 79.2943 119.786 80.54 119.626 81.6583C118.719 87.9513 118.614 94.239 119.116 100.59C119.429 104.587 119.149 108.637 119.136 112.679C116.946 114.458 118.623 116.357 119.064 118.148C119.519 120.073 120.282 121.916 121.142 123.743C123.071 127.845 124.65 132.124 126.52 136.262C127.395 138.185 128.421 140.134 129.766 141.733C130.73 142.879 131.051 143.883 130.693 145.165C130.423 146.184 130.515 147.179 130.762 148.143C132.671 155.523 136.297 161.945 141.365 167.625C142.932 169.386 144.482 171.127 145.259 173.562C146.848 178.527 150.525 181.843 154.815 184.65C158.584 187.111 161.675 190.327 164.189 194.11C168.32 200.323 170.426 207.083 170.634 214.565C170.701 217.104 171.781 219.608 171.402 222.338C170.058 221.635 169.308 220.403 168.216 219.595C164.128 216.53 159.86 213.666 155.833 210.508C154.208 209.221 152.608 207.782 151.285 206.088C148.476 202.541 145.371 199.211 142.698 195.574C140.132 192.113 138.356 187.998 135.492 184.849C132.39 181.442 130.856 177.013 127.496 173.863C126.981 173.384 126.614 172.569 125.802 172.859C124.834 173.201 125.639 174.035 125.558 174.623C125.414 175.799 126.44 176.813 126.25 178.197C124.673 176.665 124.161 174.756 123.394 172.989C121.998 169.843 119.74 167.234 117.894 164.375C117.589 163.905 117.198 162.745 116.281 163.26C115.577 163.67 115.296 164.497 115.484 165.477C116.063 168.571 117.106 171.492 118.457 174.351C120.807 179.347 123.532 184.035 128.314 187.396C127.641 187.521 126.734 187.331 126.827 187.85C127.158 189.999 125.539 189.036 124.873 189.009C121.233 188.955 117.596 188.844 113.967 189.477C113.083 189.631 112.672 189.424 112.484 188.425C111.579 183.545 108.834 179.333 107.446 174.586C106.693 172.019 103.993 170.459 101.971 168.622C98.8828 165.807 95.9977 162.695 91.7959 161.475C88.0463 160.387 84.2057 159.657 80.3658 158.909C75.1069 157.892 69.7567 157.711 64.4541 157.761C56.7287 157.844 49.1647 158.64 42.0318 162.409C37.822 164.639 33.2511 166.377 29.5803 169.411C25.0614 173.134 20.3219 176.658 16.8587 181.607C14.3058 185.277 11.791 188.949 10.1347 193.076C9.0737 195.702 8.42603 198.478 8.78096 201.448C8.99782 203.135 8.69683 204.896 8.68371 206.611C8.63015 213.035 11.5008 218.357 15.0357 223.288C16.7861 225.705 19.3586 227.603 21.7811 229.437C23.2237 230.526 22.9505 231.144 21.9566 232.133C18.5383 235.52 15.2121 238.987 11.7025 242.275C9.64017 244.212 9.01619 246.875 7.81465 249.209C6.30184 252.159 4.84461 255.15 3.25645 258.078C0.964922 262.351 0.0282597 267.06 0.988069 272.019C1.99484 277.227 3.52413 282.247 5.98191 286.943C9.65867 293.996 14.468 299.932 21.7709 303.644C28.8683 307.253 36.35 307.998 44.1202 307.287C46.5699 307.063 49.0188 306.858 51.7277 306.359C50.6566 309.232 49.6519 311.88 48.1808 314.279C46.3214 317.311 45.3481 320.588 44.9587 324.042C44.7789 325.637 44.2224 327.12 44.0792 328.754C43.4021 337.363 47.3365 344.179 52.1018 350.723C55.5486 355.479 59.9703 359.245 65.0867 361.876C72.7791 365.852 81.0489 367.373 89.6836 365.573C95.6452 364.33 101.699 363.167 107.27 360.745C113.948 357.835 120.739 354.967 126.247 349.911C129.001 347.374 132.121 345.233 134.528 342.319C138.2 337.874 140.808 332.852 142.914 327.524C144.571 323.378 144.881 319.082 144.907 314.717C144.92 312.543 145.727 310.536 145.854 308.349C146.227 301.577 144.712 295.28 141.851 289.252C140.342 286.063 139.029 282.749 136.779 279.968C136.126 279.16 136.751 278.785 137.171 278.306C143.384 271.411 149.576 264.534 156.229 258.057C160.043 254.324 163.672 250.43 167.835 247.036C170.34 244.984 173.022 243.282 175.937 241.934C177.317 241.304 178.474 241.447 179.765 242.51C185.222 247.081 190.477 251.91 195.694 256.738C199.551 260.309 203.528 263.771 207.247 267.47C212.798 272.979 218.211 278.616 223.802 284.088C231.666 291.789 239.014 299.984 247.077 307.465C249.282 309.5 251.526 311.498 253.731 313.515C254.338 314.073 255.109 314.791 254.985 315.492C254.856 316.306 253.745 315.975 253.07 316.157C249.465 317.134 245.874 318.207 242.136 318.702C241.081 318.849 240.643 318.832 240.192 317.745C239.253 315.533 237.632 313.694 236.223 311.786C234.507 309.447 233.34 306.749 231.175 304.696C224.734 298.56 217.161 295.389 208.261 296.207C201.927 296.786 195.617 298.148 189.934 300.966C183.22 304.294 176.608 307.894 170.316 312.097C165.375 315.403 161.328 319.718 156.463 323.046C153.972 324.755 151.928 327.169 150.59 330.031C148.71 334.034 146.625 337.934 144.913 342.001C141.977 348.993 142.835 355.949 145.528 362.828C148.22 369.707 152.867 374.969 158.734 379.29C161.732 381.491 165.454 381.853 169.159 383.569C166.898 383.857 165.1 383.059 163.258 383.346C162.278 383.516 161.269 383.493 160.274 383.567C159.127 383.653 158.428 383.949 158.663 385.198C158.817 386.1 158.356 386.177 157.668 386.206C149.731 386.338 141.794 386.928 133.844 386.926C131.479 386.924 129.06 387.34 126.767 387.932C124.955 388.411 125.682 389.756 126.511 390.915C122.35 391.946 118.235 392.807 114.239 394.016C110.03 395.292 105.938 396.974 101.761 398.386C99.0355 399.303 96.2768 400.086 93.5341 400.946C92.9545 401.132 92.0875 400.887 91.9723 401.836C91.8389 402.765 92.5711 403.042 93.2241 403.393C93.6906 403.641 94.1365 403.926 94.937 404.398C92.3403 405.416 89.9989 406.255 87.7258 407.286C83.5285 409.212 79.3662 411.215 75.222 413.237C74.3079 413.677 73.4128 414.117 72.447 414.42C71.7707 414.64 70.9436 414.816 70.8863 415.748C70.8411 416.852 71.8799 416.628 72.4773 416.938C72.8692 417.145 73.3641 417.165 73.8924 417.301C73.7342 417.905 73.3061 418.116 72.9191 418.253C65.8226 420.669 59.2822 424.405 52.2222 426.861C49.1076 427.954 45.7873 428.485 42.5377 429.153C40.0763 429.662 37.7287 430.653 35.1543 430.662C34.6586 430.66 34.2138 430.814 34.15 431.44C34.1052 432.068 34.2014 432.51 34.8314 432.955C38.2941 435.462 41.9384 437.727 45.6887 439.731C50.5774 442.333 55.4678 444.898 60.6464 446.941C65.2063 448.729 69.8777 450.122 74.546 451.591C75.8827 452.008 77.8763 451.746 77.5266 454.23C77.4714 454.647 78.1632 454.98 78.6266 455.304C82.778 458.22 87.5712 458.97 92.4269 459.588C93.6785 459.754 94.934 459.824 96.1871 459.952C96.3204 459.957 96.5488 459.967 96.5655 460.025C97.3248 462.897 100.046 463.027 102.137 463.647C104.417 464.312 106.66 465.415 109.117 465.458C112.261 465.511 115.194 466.527 118.173 467.336C120.323 467.92 122.553 467.935 124.764 467.949C125.641 467.947 126.538 467.946 127.367 468.17C129.366 468.71 129.449 469.476 128.033 471C124.281 475.079 120.071 478.72 116.926 483.339C116.074 484.6 115.472 485.796 116.656 487.141C117.111 487.675 117.074 488.112 116.723 488.765C113.448 494.713 110.432 500.824 106.914 506.647C105.481 509.048 105.625 509.264 108.242 510.077C108.995 510.317 108.958 510.735 108.821 511.302C107.664 516.269 105.965 520.966 102.488 524.865C101.488 525.987 100.174 527.344 102.823 528.311C103.781 528.655 102.914 529.344 102.762 529.796C100.832 535.475 96.8946 539.908 93.4216 544.628C91.9272 546.664 90.1742 548.499 88.5687 550.454C88.0473 551.081 87.123 551.768 88.3092 552.598C89.0876 553.145 89.5552 553.831 90.84 552.721C93.47 550.426 96.7962 549.285 100.122 548.163C103.235 547.108 106.485 546.879 109.612 545.959C111.425 545.442 112.906 544.206 114.789 543.845C116 543.609 116.488 543.8 116.323 545.033C116.14 546.246 116.881 546.314 117.757 546.331C123.076 546.358 128.164 545.48 132.817 542.677C133.599 542.214 134.559 542.043 135.466 541.775C136.257 541.541 136.08 542.144 136.176 542.586C136.558 544.451 137.376 544.962 139.28 544.563C142.665 543.844 146.118 543.337 149.438 542.348C152.371 541.477 155.173 540.105 158.005 538.924C159.033 538.509 159.867 538.162 160.814 539.249C161.652 540.199 162.912 539.697 163.845 539.259C166.389 538.124 168.845 536.814 171.356 535.582C174.994 533.805 178.738 532.243 182.159 529.714C182.33 531.112 181.816 532.026 181.301 532.958C180.993 533.517 180.85 534.198 181.347 534.638C181.917 535.157 182.503 534.818 183.092 534.404C188.234 530.821 192.885 526.664 197.427 522.37C199.847 520.085 202.742 518.297 204.595 515.437C204.778 515.159 205.363 514.82 205.607 514.926C207.804 515.759 209.2 514.253 210.506 513.086C215.572 508.585 219.755 503.284 223.845 497.922C224.571 496.961 225.232 496.187 226.632 496.454C227.787 496.654 228.767 496.008 229.486 495.198C232.266 492.033 234.844 488.687 237.161 485.179C238.158 483.656 239.621 482.381 239.972 480.337C240.381 481.059 240.244 482.064 241.193 482.179C242.027 482.289 242.366 481.464 242.862 481.008C245.264 478.685 246.232 475.54 247.421 472.577C249.206 468.093 251.369 463.72 252.46 458.96C252.528 458.696 252.561 458.354 252.757 458.228C256.774 455.571 257.472 451.119 258.708 447.013C259.789 443.435 260.041 439.594 261.572 436.206C265.638 427.258 262.262 416.595 260.624 411.895C268.201 414.494 277.673 409.028 284.144 405.576C289.388 402.778 294.415 399.686 300.079 397.782C304.177 396.425 308.054 395.325 311.15 392.364C312.563 392.307 313.427 393.105 314.477 394.921C317.718 400.526 320.259 406.446 322.935 412.333C324.212 415.131 325.82 417.771 326.981 420.602C329.963 427.855 333.917 434.671 336.14 442.294C337.227 446.018 338.661 449.623 339.247 453.48C339.428 454.65 339.837 455.83 339.463 457.035C338.633 459.632 341.178 463.588 345.004 463.268C349.424 462.896 353.532 461.292 356.62 458.043C358.433 456.154 358.889 453.389 359.659 450.904C359.791 450.47 359.573 449.737 359.244 449.399C356.721 446.76 356.178 443.249 355.09 440.02C353.355 434.896 351.367 429.915 349.341 424.912C347.766 421.015 346.209 417.138 344.322 413.4C341.413 407.618 338.427 401.852 335.05 396.318C333.907 394.44 333.115 392.368 332.148 390.383C329.916 385.754 327.313 381.338 324.436 377.102C323.753 376.101 323.911 375.498 324.44 374.681C327.551 369.946 331.126 365.536 334.255 360.84C338.644 354.232 343.568 348.066 348.749 342.139C355.191 334.757 360.299 326.444 366.22 318.736C370.853 312.71 375.079 306.362 379.49 300.156C379.853 299.656 380.678 299.061 379.959 298.478C379.183 297.855 378.487 298.57 378.022 299.219C371.711 308.055 364.404 316.068 357.743 324.604C351.907 332.087 345.244 338.811 339.371 346.254C334.485 352.441 329.007 358.165 323.935 364.211C322.913 365.409 321.543 366.287 320.52 367.522C320.079 368.038 319.313 368.598 318.597 367.444C316.669 364.257 314.642 361.142 312.634 358.028C311.11 355.678 310.072 353.08 308.703 350.66C306.196 346.248 302.961 342.359 300.237 338.11C298.016 334.625 295.243 331.575 292.627 328.398C290.503 325.795 288.26 323.319 286.057 320.769C285.365 319.978 284.935 318.836 283.445 318.908C282.719 318.936 282.821 317.853 282.768 317.279C282.605 314.755 282.537 312.217 282.412 309.676C282.223 305.454 282.795 301.264 282.777 297.049C282.773 294.838 282.709 292.661 282.914 290.458C283.266 286.526 284.349 282.909 286.526 279.566C287.177 278.564 287.728 277.213 287.962 276.155C289.034 271.413 292.261 268.018 294.984 264.393C299.098 258.918 304.49 254.83 310.942 252.311C313.17 251.449 315.146 250.233 317.035 248.804C318.805 247.485 320.031 245.476 319.827 243.485C319.536 240.803 321.443 239.871 322.822 238.803C325.422 236.774 328.365 235.217 331.199 233.502C334.211 231.662 336.939 227.446 335.456 223.629C335.179 222.931 335.289 222.573 335.712 222.038C338.048 219.006 340.437 216.073 343.344 213.523C345.499 211.647 346.427 209.016 346.355 206.115C346.344 205.924 346.414 205.602 346.302 205.541C343.159 203.143 346.592 201.72 347.323 200.167C348.808 196.968 351.169 194.262 353.565 191.634C355.143 189.887 355.516 187.748 355.286 185.469C355.269 185.411 355.312 185.299 355.274 185.278C353.028 182.879 355.405 181.165 356.333 179.449C358.519 175.42 359.805 171.03 361.522 166.83C362.18 165.198 360.358 161.272 358.587 160.761C356.062 160.028 356.816 158.362 357.513 157.189C359.624 153.596 359.596 149.629 359.947 145.716C360.096 143.93 358.57 143.943 357.428 143.897C355.734 143.827 355.157 143.479 355.58 141.533C356.606 136.98 356.228 132.236 357.275 127.645C357.555 126.38 356.859 125.684 355.507 126.124C353.748 126.7 353.585 126.026 353.652 124.389C353.9 118.813 355.208 113.413 356.194 107.963C356.342 107.13 356.823 106.101 356.124 105.481C355.203 104.681 354.521 105.968 353.52 106.213C353.103 103.832 353.047 101.465 353.183 99.0875C353.428 94.9601 354.169 90.853 354.052 86.7108C354.027 85.9471 354.485 84.9935 353.648 84.4825C352.793 83.9517 352.218 84.9577 351.365 85.285C350.448 79.7563 350.498 74.3434 351.767 68.9614C352.553 65.6188 352.73 62.2322 352.678 58.8362C352.681 58.3025 352.804 57.6402 351.956 57.3957C351.277 57.1963 350.938 57.5637 350.562 57.9106C346.818 61.3226 342.929 64.5761 339.387 68.187C335.388 72.2368 330.496 75.2967 326.864 79.7238C326.663 79.9634 326.626 80.4005 326.228 79.8884C325.265 78.724 324.322 79.4098 323.403 79.9633C319.512 82.3206 316.798 85.7366 314.654 89.6718C314.034 90.8285 313.378 91.9647 312.638 93.269C311.998 91.2027 311.08 91.737 309.862 92.6214C305.341 95.9252 303.32 101.029 300.524 105.528C299.892 106.532 299.001 107.315 298.479 108.438C297.976 109.542 297.429 108.452 297.106 107.981C296.424 106.943 296.009 106.354 294.773 107.676C290.229 112.485 285.983 117.459 283.908 123.875C283.474 123.781 283.465 123.514 283.38 123.263C283.158 122.643 283.042 121.743 282.258 121.806C281.474 121.85 280.914 122.494 280.482 123.258C279.288 125.421 278.525 127.754 277.706 130.047C276.244 134.105 274.968 138.248 273.576 142.442C273.06 142.002 272.949 140.987 272.051 141.026C271.172 141.066 270.703 141.81 270.147 142.359C268.617 143.879 268.473 145.989 267.956 147.894C266.814 152.042 266.011 156.28 265.398 160.544C265.267 161.416 265.224 162.444 263.751 162.574C262.89 162.653 262.161 163.691 261.989 164.619C261.058 169.671 260.202 174.727 259.385 179.784C259.127 181.413 259.021 183.068 258.953 184.724C258.912 185.733 258.654 186.447 257.844 187.138C256.954 187.921 256.487 189.084 256.302 190.335C255.677 194.409 255.874 198.459 256.412 202.542C256.873 206.165 257.587 209.683 256.287 213.481C254.448 218.821 256.735 223.948 258.396 229.012C259.735 233.109 260.918 237.257 262.199 241.37C263.107 244.325 264.793 246.93 265.935 249.76C267.668 254.007 268.974 258.427 270.512 262.761C271.606 265.837 273.048 268.813 273.891 271.956C274.85 275.542 275.232 279.256 276.017 282.892C277.285 288.702 276.074 294.525 276.351 300.332C276.52 304.115 276.614 307.875 276.707 311.654C276.721 312.245 276.639 312.852 276.581 313.784C274.903 311.923 273.485 310.244 271.987 308.657C268.753 305.207 264.763 302.546 261.607 299.061C257.083 294.071 252 289.706 247.097 285.119C244.582 282.747 241.464 281.132 238.852 278.813C229.67 270.715 220.307 262.819 211.024 254.85C203.491 248.383 196.319 241.492 188.526 235.319C186.18 233.468 184.014 231.416 181.81 229.381C180.523 228.203 178.726 227.862 177.523 226.517C176.975 225.922 176.518 225.446 176.664 224.67C177.757 218.48 177.446 212.099 179.354 206.038C180.276 203.082 181.793 200.494 183.997 198.354C184.533 197.842 185.443 197.498 186.188 197.452C191.176 197.18 195.53 194.689 200.3 193.683C204.762 192.741 208.82 190.944 212.604 188.41C213.76 187.638 214.903 186.75 215.278 185.507C216.386 181.72 219.994 180.686 222.647 178.774C226.557 175.941 230.246 172.927 233.351 169.279C234.051 168.469 235.123 167.445 234.111 166.088C233.713 165.557 234.201 165.291 234.483 164.921C238.023 160.433 242.513 156.937 246.583 153.005C247.973 151.651 248.966 149.747 248.823 147.662C248.752 146.611 249.066 145.918 249.631 145.16C253.026 140.475 256.495 135.851 259.724 131.045C261.632 128.225 263.782 125.548 265.189 122.384C266.114 120.286 266.049 119.997 263.68 119.652C264.811 116.248 266.932 113.341 268.38 110.121C270.374 105.665 272.781 101.359 273.704 96.516C273.895 95.5705 274.641 94.133 272.508 94.0646C271.747 94.0334 272.22 93.1757 272.372 92.7434C274.613 86.4289 276.818 80.0938 279.191 73.8228C280.152 71.3073 280.734 68.7571 280.974 66.1358C281.047 65.2999 280.781 64.3356 279.943 63.8627C279.123 63.3906 278.595 64.1888 277.797 64.5756C277.52 62.486 277.756 60.4555 278.064 58.5233C279.014 52.5753 279.546 46.5721 280.059 40.5681C280.162 39.4473 280.056 38.299 280.103 37.1569C280.141 36.2242 279.687 35.6718 278.804 35.8262C277.401 36.0929 277.549 35.2791 277.735 34.4668C279.296 27.5334 280.838 20.6182 283.173 13.888C283.78 12.1206 284.123 10.2471 284.786 8.50108C285.32 7.09299 285.856 5.66587 287.433 4.87251C288.834 4.1673 288.206 2.74968 287.985 1.63474C287.873 1.09631 287.369 1.30444 287.015 1.57592C282.668 4.82972 277.56 6.64141 272.753 9.01836C267.791 11.4652 262.597 13.5022 257.741 16.1441C255.031 17.6155 252.782 19.9067 250.374 21.9053C249.941 22.2498 249.629 22.8662 249.141 22.217C248.163 20.9567 247.012 21.5959 246.301 22.1959C241.998 25.7757 236.817 27.9847 232.424 31.4083C229.292 33.8539 226.456 36.5404 223.928 39.6019C223.668 39.8963 223.556 40.3111 223.095 40.3876C217.673 41.4809 214.015 45.1443 210.482 49.0035C206.589 53.2674 204.088 58.4654 201.096 63.5479C200.162 61.6792 199.081 62.0162 198.003 63.1733C196.967 64.2748 195.93 65.3953 194.673 66.7357C194.041 64.0214 194.297 61.496 193.864 59.0377C193.213 55.3884 191.826 52.0139 190.555 48.6061C189.557 45.9721 190.016 43.15 189.188 40.5421C188.902 39.6152 188.798 38.4288 187.278 39.2435C186.907 39.4381 186.914 39.2668 186.458 38.3138C184.246 33.6662 184.305 28.5016 183.171 23.6121C182.861 22.322 182.695 21.2665 181.436 20.3378C179.863 19.1866 179.493 17.0359 178.882 15.1996C177.714 11.6053 178.057 7.88229 178.228 4.19035C178.253 3.5622 178.611 3.21459 178.914 2.7885C179.401 2.0839 179.506 1.38275 178.785 0.819345C177.918 0.11646 177.367 0.990023 176.966 1.46932C176.525 2.00416 176.398 2.78068 176.102 3.49307C175.347 3.30958 175.324 1.99307 174.379 2.25939C173.364 2.37032 173.647 3.37338 173.316 4.00808ZM191.52 70.6295C191.121 71.0707 190.757 71.5706 190.413 72.0523C187.005 77.0605 185.585 82.8558 183.809 88.503C183.59 89.1995 183.514 90.1306 182.653 90.1907C181.927 90.2372 182.103 89.1957 181.699 88.8169C181.075 88.2193 181.421 86.7654 180.352 86.7978C179.207 86.8271 178.754 88.1051 178.091 88.9169C177.931 89.101 177.956 89.4261 177.869 89.6895C176.97 92.0741 176.71 94.7137 175.627 96.9383C173.333 101.744 173.254 106.927 172.285 111.959C171.971 113.567 172.829 115.433 170.375 116.228C169.003 116.668 169.121 118.446 168.632 119.665C165.787 126.756 164.303 134.112 164.37 141.779C164.372 142.656 164.705 143.852 163.863 144.39C161.22 146.073 161.106 148.853 161.175 151.353C161.339 156.641 162.365 161.85 163.68 166.995C164.37 169.693 164.867 172.44 165.505 175.478C164.804 174.916 164.631 174.489 164.458 174.044C163.257 170.791 161.882 167.589 160.835 164.285C159.487 159.978 157.695 155.786 157.387 151.198C156.781 142.25 155.985 133.313 155.819 124.326C155.809 123.639 156.075 123.192 156.438 122.712C159.236 119.108 161.253 115.034 163.267 111.018C166.713 104.161 170.476 97.4898 174.388 90.8815C177.789 85.1293 180.554 79.0841 182.983 72.8535C175.151 89.4828 165.158 104.879 156.133 120.85C155.779 116.926 155.705 113.148 155.708 109.373C155.705 106.189 155.071 103.036 155.334 99.8816C155.487 98.0003 154.365 96.0858 155.835 94.1821C158.191 91.1137 160.419 87.9256 162.368 84.5734C166.597 77.2155 170.975 69.9589 175.892 63.0296C177.855 60.2691 179.613 57.3858 181.464 54.5445C181.316 54.4431 181.186 54.3615 181.037 54.2601C171.696 66.3087 164.711 79.9791 155.6 92.4565C155.041 88.8872 155.629 85.7081 156.138 82.6021C157.102 76.75 158.388 70.9683 159.56 65.1629C159.774 64.123 159.842 62.9246 160.446 62.1486C162.498 59.5252 164.141 56.6563 165.859 53.8286C170.029 46.983 174.236 40.1771 176.987 32.606C177.546 31.0654 178.182 29.4899 177.564 27.3672C174.368 39.2673 167.889 48.9545 161.277 58.6172C161.266 57.4918 161.312 56.3687 161.603 55.3129C162.953 50.2965 164.302 45.2992 165.783 40.3263C166.271 38.6684 166.18 36.7008 167.338 35.4137C170.593 31.8291 173.198 27.8175 175.451 23.5626C176.588 21.3975 176.926 20.1339 176.578 18.8422C174.632 23.9867 171.986 28.5495 168.131 32.3574C169.9 25.013 173.733 18.4777 176.011 11.2876C177.146 14.3085 177.629 17.3981 179.097 20.2038C181.06 23.9451 182.078 27.9526 182.765 32.1183C183.192 34.7098 184.138 37.2272 185.066 39.7058C186.147 42.6292 187.77 45.365 188.464 48.4441C188.753 49.7525 189.198 50.991 189.682 52.2121C191.431 56.5356 192.528 60.9278 191.858 65.6479C191.774 66.2927 191.761 67.0739 192.063 67.6202C192.813 68.8521 192.32 69.728 191.52 70.6295ZM187.448 195.082C185.452 194.943 183.738 195.369 182.155 196.772C181.027 197.774 180.544 199.318 179.234 200.122C178.166 195.941 178.979 191.913 179.716 187.882C179.816 187.314 179.927 186.48 180.503 186.37C182.597 185.979 184.342 184.811 186.26 184.07C194.395 180.972 202.77 178.531 210.579 174.561C216.518 171.544 222.511 168.587 227.79 164.456C228.243 164.112 229.015 163.877 228.713 162.892C221.301 167.889 213.56 172.052 205.484 175.592C197.348 179.167 188.803 181.581 180.448 184.919C180.174 184.164 180.373 183.505 180.476 182.842C181.172 178.428 182.51 174.154 183.395 169.767C184.424 164.68 186.732 159.989 187.815 154.981C188.805 150.35 191.63 147.949 195.72 146.325C199.132 144.958 202.543 143.611 206.058 142.516C213.456 140.169 220.616 137.144 227.755 134.158C235.592 130.875 243.691 128.195 250.9 123.514C254.132 121.416 257.216 119.197 260.124 116.628C258.788 117.126 257.542 117.761 256.366 118.533C253.681 120.31 251.192 122.42 248.365 123.944C238.712 129.192 228.239 132.576 218.132 136.814C212.138 139.314 205.907 141.079 199.793 143.25C196.813 144.31 194.007 145.778 190.889 146.966C191.05 146.286 191.107 145.83 191.277 145.399C193.738 139.322 196.198 133.265 198.641 127.168C198.831 126.718 198.868 126.281 199.517 126.251C203.281 126.062 206.717 124.563 210.199 123.352C216.544 121.133 222.978 119.052 229.098 116.271C239.764 111.446 250.239 106.136 259.877 99.4003C260.406 99.0407 261.199 98.7871 261.048 97.8086C258.543 99.3837 256.079 100.884 253.67 102.444C246.325 107.196 238.345 110.701 230.505 114.517C226.517 116.451 222.219 117.572 218.111 119.176C213.151 121.109 208.156 122.963 203.025 124.411C201.945 124.71 200.831 124.894 199.587 124.556C201.5 119.735 203.615 115.131 205.862 110.552C207.193 107.842 208.58 105.172 210.079 102.564C212.995 97.4595 216.915 93.006 219.609 87.7587C221.121 84.8273 222.906 82.6696 226.431 81.8036C229.628 81.0195 232.545 79.1561 235.629 77.8906C246.122 73.5351 256.088 68.1092 266.088 62.761C268.272 61.5921 270.35 60.1901 271.975 58.2356C264.602 63.2148 256.505 66.7725 248.638 70.7782C240.81 74.7663 226.335 80.8845 224.03 80.8281C224.975 79.189 225.767 77.5245 227.008 76.0882C230.789 71.7625 234.238 67.1754 237.539 62.4487C238.694 60.7991 239.844 58.787 241.818 58.0672C250.662 54.8833 259.135 50.9788 266.957 45.751C268.584 44.6737 270.288 43.1038 270.565 41.914C261.971 48.3113 252.891 53.068 242.486 56.1879C247.608 48.4471 254.467 43.0082 259.982 36.3703C262.45 33.3826 265.36 30.7564 267.79 27.7481C270.802 24.0392 273.484 20.0307 276.459 16.2821C278.189 14.0841 279.885 11.7894 282.725 9.94193C281.786 12.8397 280.908 15.2061 280.236 17.6382C279.139 21.6162 278.192 25.6386 277.132 29.6373C276.142 33.3147 276.571 37.2791 274.899 40.8523C274.836 40.9832 274.785 42.2395 275.615 42.4451C276.578 42.6943 276.61 41.8948 276.884 41.2768C277.159 40.6017 277.232 39.7658 278.207 39.2147C277.943 42.8647 277.934 46.3535 277.394 49.7633C276.521 55.2378 276.731 60.8139 275.442 66.2141C275.236 67.0446 275.763 67.6954 276.243 68.0583C276.687 68.4006 276.99 67.5169 277.42 67.2676C277.791 67.054 278.076 66.6081 278.604 66.7632C278.86 67.4792 278.702 68.0828 278.541 68.7436C277.751 72.2194 276.246 75.4372 275.136 78.7856C273.375 84.0901 271.575 89.3741 269.814 94.6596C269.531 95.5251 269.81 96.6233 270.591 96.6553C271.828 96.706 271.446 97.1861 271.341 97.8873C271.094 99.7266 270.059 101.248 269.381 102.917C267.133 108.449 264.286 113.709 261.608 119.034C260.757 120.715 261.167 121.876 263.13 122.375C261.098 125.419 259.182 128.448 257.099 131.356C253.46 136.393 250.304 141.774 245.999 146.307C245.82 146.51 245.571 146.538 245.728 146.887C247.327 150.213 244.906 152.059 242.893 153.711C238.256 157.525 234.481 162.175 230.23 166.348C229.474 167.099 229.354 168.638 229.557 168.799C230.721 169.705 229.8 170.316 229.345 170.716C225.013 174.543 220.463 178.093 215.336 180.819C214.576 181.227 213.875 181.598 213.978 182.785C214.113 184.144 213.32 185.351 212.281 186.052C209.751 187.76 207.15 189.35 204.266 190.414C199.31 192.251 193.985 192.833 189.146 195.075C188.542 195.394 188.019 195.125 187.448 195.082ZM341.47 78.7591C338.222 85.4517 334.992 92.1452 331.631 98.7761C330.034 101.914 328.475 105.072 327.308 108.418C325.97 112.215 324.2 115.86 323.05 119.741C321.978 113.805 322.053 107.783 320.46 101.979C320.831 107.829 321.26 113.642 321.115 119.49C321.098 119.909 321.028 120.688 321.502 120.764C323.113 121.002 322.368 121.963 322.11 122.658C320.876 126.249 319.792 129.903 318.278 133.369C316.531 137.377 315.612 141.649 313.885 145.639L313.908 145.545C312.65 149.726 311.429 153.928 310.095 158.087C308.5 163.055 306.81 168 305.049 173.286C301.985 159.184 300.764 145.254 300.98 131.153C300.66 132.894 300.493 134.642 300.479 136.376C300.43 143.638 300.474 150.924 301.456 158.133C302.071 162.677 302.55 167.254 303.222 171.8C303.581 174.217 304.8 176.555 303.852 179.224C302.167 184.055 300.951 189.057 299.303 193.909C298.415 196.504 297.731 199.24 295.924 201.454C296.237 202.192 295.885 202.883 295.686 203.542C294.957 205.972 294.153 208.379 293.386 210.807C291.481 216.812 289.313 222.729 287.975 228.87C286.614 235.088 284.726 241.15 283.384 247.368C281.853 254.474 280.134 261.534 279.189 268.76C278.912 270.884 278.938 273.04 278.517 275.387C277.962 274.506 277.524 273.573 277.506 273.095C277.42 271.471 275.644 271.532 275.256 270.296C273.953 266.257 272.012 262.46 270.769 258.367C269.171 253.153 267.206 248.058 264.699 243.17C263.305 240.443 263.306 237.145 262.104 234.388C260.065 229.709 258.41 224.97 257.509 219.957C257.121 217.806 256.803 215.314 258.135 213.538C259.002 212.372 259.15 211.559 259.089 210.26C258.915 207.049 258.089 203.946 257.857 200.771C257.604 197.176 257.219 193.557 258.582 190.066C258.711 189.709 259.079 189.095 259.136 189.117C261.878 190.125 260.484 187.856 260.511 187.19C260.719 180.258 262.178 173.492 263.41 166.698C263.585 165.694 263.961 164.89 264.993 166.229C265.5 166.879 266.061 166.692 266.211 165.821C266.711 162.924 267.192 160.027 267.654 157.129C268.314 153.133 269.086 149.179 270.538 145.387C270.794 144.712 271.135 143.848 271.883 143.746C272.783 143.63 272.667 144.617 272.929 145.199C273.191 145.782 273.649 146.24 274.317 146.229C274.813 146.211 274.779 145.657 274.851 145.278C276.029 139.34 278.186 133.708 280.21 128.033C280.556 127.056 280.733 125.519 281.786 125.409C282.725 125.295 282.971 126.735 283.354 127.628C283.581 128.133 284.188 128.673 284.75 128.448C285.39 128.188 285.149 127.568 284.826 127.078C284.575 126.687 284.666 126.309 284.834 125.934C285.616 124.079 286.359 122.222 287.159 120.386C288.756 116.772 291.704 114.166 294.153 111.178C295.618 109.388 295.599 109.387 296.836 111.307C297.302 112.031 297.906 113.105 298.669 111.706C300.977 107.491 303.991 103.725 306.188 99.4492C307.161 97.5633 308.525 95.9223 310.603 94.997C311.019 96.0055 311.303 96.9895 312.287 97.64C313.004 96.43 313.775 95.2986 314.38 94.0268C316.466 89.6508 319.035 85.5805 323.009 82.5974C323.619 82.1267 324.291 81.5441 324.721 82.7057C325.354 84.4667 326.118 83.4875 326.645 82.7464C328.34 80.4516 330.333 78.3407 332.466 76.5596C338.33 71.6329 343.611 66.0722 349.655 61.4198C350.065 63.0572 349.669 64.7952 347.987 67.7006C345.811 71.4629 343.304 74.9447 341.47 78.7591ZM280.251 278.203C280.254 272.56 281.225 267.013 281.968 261.438C282.191 259.731 282.87 258.52 284.386 257.819C285.687 257.224 286.717 256.294 287.838 255.463C292.043 252.413 296.34 249.462 300.437 246.255C306.308 241.634 312.769 237.99 319.266 234.367C322.135 232.749 325.096 231.231 327.319 228.634C311.601 236.703 297.07 246.537 282.808 257.697C283.265 253.064 284.258 249.291 285.27 245.538C286.214 242.05 287.422 238.629 287.914 235.007C288.052 233.964 288.639 233.131 289.466 232.497C297.166 226.502 305.527 221.62 314.406 217.58C318.059 215.918 321.712 214.237 325.046 211.972C328.459 209.652 331.871 207.351 335.498 205.384C337.39 204.355 339.339 203.31 340.672 201.496C338.591 202.498 336.564 203.559 334.609 204.756C327.119 209.311 319.756 214.062 311.698 217.602C305.697 220.254 300.176 223.784 294.638 227.256C292.837 228.383 291.163 229.688 288.924 231.293C289.891 227.71 290.643 224.709 291.508 221.751C292.481 218.473 293.549 215.218 294.597 211.963C295.493 209.197 295.718 206.022 298.958 204.649C299.114 204.579 299.2 204.334 299.34 204.187C302 201.151 305.099 198.57 308.394 196.322C315.045 191.771 321.893 187.494 329.257 184.135C334.581 181.703 339.442 178.471 344.41 175.414C346.112 174.359 347.689 173.108 349.397 171.9C348.871 171.726 348.586 171.696 348.155 171.983C339.498 178.034 329.954 182.486 320.711 187.503C316.05 190.039 311.458 192.749 307.154 195.89C303.754 198.362 300.482 200.974 297.316 203.78C297.955 201.69 298.59 199.676 299.602 197.792C301.666 193.949 302.641 189.699 303.86 185.554C304.479 183.463 304.427 181.02 306.169 179.452C308.822 177.063 311.585 174.774 314.419 172.602C321.21 167.408 328.162 162.469 335.691 158.354C340.547 155.712 345.19 152.68 350.118 150.137C351.618 149.359 353.508 148.827 354.299 146.743C337.577 156.067 320.904 165.108 306.392 177.726C306.086 176.817 306.283 176.196 306.424 175.554C307.83 169.625 310.403 164.067 312.016 158.204C312.443 156.639 312.798 154.956 314.181 153.774C319.02 149.682 324.076 145.885 328.915 141.793C335.254 136.448 341.976 131.537 348.516 126.428C348.929 126.102 349.662 125.903 349.374 125.034C337.312 133.215 326.519 143.011 314.713 151.488C314.165 150.436 314.609 149.844 314.825 149.224C316.783 143.317 318.571 137.366 320.792 131.565C321.54 129.594 321.745 127.39 324.267 125.873C328.275 123.444 331.549 119.841 335.184 116.768C339.114 113.44 342.772 109.796 346.939 106.744C347.608 106.257 348.733 106.246 348.901 104.937C339.805 110.551 332.584 118.32 323.897 124.657C324.176 117.861 343.549 76.4228 349.266 69.5072C349.142 71.6185 349.045 73.5212 348.948 75.4238C348.737 79.1713 349.728 82.8918 349.195 86.607C349.013 87.7817 349.808 87.9287 350.204 88.4978C350.923 89.5569 351.2 87.9285 351.78 88.1811C352.114 91.665 351.003 95.0514 351.279 98.5519C351.505 101.402 351.709 104.347 351.195 107.109C350.901 108.699 351.638 109.32 352.406 109.657C353.343 110.057 353.407 110.365 353.294 111.257C352.738 116.458 351.271 121.546 351.511 126.837C351.568 128.251 352.76 128.929 353.553 128.675C354.924 128.255 354.567 129.041 354.526 129.592C354.123 133.827 354.12 138.098 353.204 142.293C352.641 144.863 353.408 145.696 356.15 145.789C357.311 145.818 357.581 146.229 357.63 147.337C357.857 151.579 356.213 155.401 354.519 159.05C353.642 160.92 354.813 161.178 355.505 161.988C355.668 162.186 356.147 162.129 356.468 162.218C358.977 162.874 359.694 163.971 359.116 166.445C358.212 170.355 356.557 173.986 354.753 177.535C353.717 179.552 352.532 181.486 351.458 183.482C350.529 185.217 350.915 186.034 352.787 186.416C353.317 186.514 353.129 186.906 353.176 187.156C353.373 187.946 352.873 188.516 352.466 189.148C351.324 190.951 349.777 192.413 348.542 194.173C346.74 196.731 345.42 199.613 343.154 201.884C342.199 202.856 341.071 204.316 342.635 205.695C344.677 207.514 344.718 207.916 343.213 210.219C341.972 212.113 339.91 213.115 338.578 214.91C336.863 217.204 335.203 219.557 333.195 221.553C331.904 222.835 332.331 224.034 333.084 224.733C334.002 225.59 333.9 226.234 333.651 227.177C333.043 229.46 331.259 230.664 329.457 231.829C325.246 234.555 320.927 237.104 317.33 240.675C316.336 241.664 316.488 243.081 317.145 243.337C318.346 243.805 317.523 244.344 317.451 244.703C317.263 245.553 316.609 246.175 315.975 246.759C313.855 248.712 311.097 249.457 308.642 250.748C303.068 253.704 297.76 257.147 294.053 262.448C291.523 266.043 288.657 269.434 286.982 273.56C285.563 277.01 283.776 278.272 280.251 278.203ZM281.911 322.373C282.232 323.377 282.513 324.437 282.24 325.513C282.128 325.928 282.273 326.563 281.587 326.554C281.11 326.553 280.644 326.306 280.433 325.858C280.24 325.45 280.165 324.97 280.069 324.528C278.835 318.795 278.195 313.03 278.341 307.125C278.428 303.163 278.096 299.165 278.221 295.166C278.292 292.976 278.668 290.78 278.3 288.61C277.961 286.632 278.223 284.908 278.987 282.995C279.86 280.78 281.2 280.187 283.705 280.461C281.229 284.116 280.775 288.216 280.862 292.147C281.019 298.541 280.168 304.893 280.591 311.317C280.801 315.044 280.744 318.759 281.911 322.373ZM353.803 332.336C355.3 330.7 356.098 328.445 358.167 327.291C356.651 328.906 356.111 331.382 353.803 332.336ZM322.76 373.811C321.962 373.74 321.319 372.665 321.179 371.916C321.057 371.148 319.771 370.447 320.659 369.702C325.675 365.484 329.404 360.107 333.776 355.31C337.708 351.01 341.697 346.731 345.114 341.971C347.642 338.452 351.219 335.853 353.764 332.354C353.76 332.925 353.702 333.419 353.279 333.954C347.395 341.225 341.436 348.436 335.774 355.869C331.745 361.138 328.142 366.71 324.315 372.14C323.87 372.77 323.5 373.879 322.76 373.811ZM346.558 453.265C348.835 452.138 351.086 450.247 354.092 449.951C356.025 449.763 357.319 450.77 357.058 452.475C356.825 453.991 356.438 455.519 355.23 456.614C352.239 459.332 348.685 460.921 344.684 461.31C343.459 461.432 342.301 460.831 341.702 459.644C341.067 458.378 341.849 457.457 342.701 456.653C343.852 455.556 345.095 454.539 346.558 453.265ZM260.301 410.013C260.132 409.949 259.979 409.943 259.845 409.956C259.778 409.744 259.728 409.57 259.731 409.494C259.692 409.512 259.744 409.17 259.813 408.887C259.957 409.084 260.181 409.207 260.506 409.183C264.908 408.772 267.32 409.481 271.464 407.458C275.472 405.506 279.392 403.36 283.399 401.427C290.692 397.931 299.018 396.69 305.438 391.71C305.497 391.655 305.538 391.6 305.578 391.544C306.451 391.637 306.964 391.696 306.945 391.695C307.195 391.648 307.426 391.582 307.617 391.57C308.153 391.516 308.704 391.577 309.212 391.731C305.638 394.731 300.879 395.47 296.557 397.18C293.243 398.494 290.101 400.271 286.998 401.994C282.901 404.266 278.794 406.329 274.451 408.076C269.915 409.892 265.133 412.137 260.301 410.013ZM226.014 365.937C232.108 360.085 238.514 354.494 241.629 345.966C244.058 339.258 244.547 332.91 242.493 326.267C242.123 325.07 242.386 324.699 243.409 324.398C248.443 322.984 253.505 322.295 258.788 322.245C262.146 322.211 264.09 324.083 265.905 325.854C272.578 332.362 278.203 339.8 284.006 347.074C287.978 352.06 291.831 357.137 295.742 362.179C299.763 367.358 302.418 373.282 305.972 378.671C306.709 379.769 307.132 381.083 307.634 382.324C308.309 384.01 307.836 384.83 306.059 384.929C303.135 385.095 300.183 385.012 297.274 385.293C289.904 386.001 282.736 387.843 275.554 389.551C275.07 389.722 274.585 389.93 274.098 390.177C273.492 390.553 272.085 391.372 271.988 391.426C271.576 391.695 267.243 395.063 266.36 395.695C263.135 398.079 260.402 401.018 257.379 403.601C256.094 404.712 248.694 400.118 245.287 400.436C240.502 400.889 235.719 399.434 230.938 398.838C228.947 398.584 226.679 399.483 224.991 398.346C221.633 396.073 217.877 394.68 214.247 392.986C208.13 390.124 202.142 386.885 195.421 385.713C192.676 385.238 189.587 384.33 187.225 387.055C187.085 387.221 186.683 387.261 186.456 387.214C184.21 386.645 181.781 386.832 179.131 385.427C185.362 385.529 192.683 384.133 199.33 381.526C204.039 379.679 208.87 378.104 213.004 374.937C217.214 371.772 222.263 369.539 226.014 365.937ZM210.857 404.993C211.03 404.028 209.862 404.609 209.319 404.358C209.226 404.316 209.175 404.161 209.103 404.063C210.68 401.859 211.121 401.801 212.18 401.558C215.451 400.834 218.804 400.895 222.16 400.88C229.998 400.839 237.752 401.939 245.514 402.81C248.456 403.14 251.407 403.242 254.157 405.452C249.233 407.443 245.424 410.585 241.525 413.61C237.764 416.525 233.427 418.597 229.557 421.375C226.021 423.918 222.422 425.201 217.932 424.96C207.66 424.386 197.659 426.474 187.737 428.984C181.148 430.659 174.378 431.602 167.803 433.411C167.436 433.51 167.064 433.743 166.741 433.253C166.328 432.626 166.889 432.439 167.206 432.147C167.443 431.947 167.681 431.728 167.919 431.509C164.877 429.42 165.944 427.576 168.354 426.474C170.18 425.653 171.919 424.618 173.742 423.873C177.852 422.211 181.642 419.983 185.557 417.97C186.609 417.422 187.216 416.589 186.292 415.388C185.024 413.772 186.282 412.852 187.456 412.576C190.71 411.813 193.796 410.49 197.049 409.727C201.15 408.771 205.234 407.737 209.335 406.761C210.315 406.591 210.758 405.542 210.857 404.993ZM308.593 386.367C309.305 386.206 310.066 386.256 310.115 387.383C310.17 388.377 310.063 389.116 308.897 389.201C307.577 389.3 306.239 389.378 304.92 389.458C301.424 389.639 298.02 388.47 294.522 388.689C288.692 389.06 283.205 390.818 278.205 393.721C271.759 397.46 265.113 400.982 259.674 406.231C258.919 406.963 258.585 406.282 258.177 405.998C257.529 405.533 258.056 405.231 258.448 404.961C258.84 404.71 259.194 404.457 259.532 404.109C263.514 400.001 267.841 396.308 272.463 393.79C274.385 392.477 275.829 391.202 277.761 391.052C279.712 390.903 281.582 390.408 283.451 389.932C288.019 388.727 292.586 387.56 297.323 387.335C301.105 387.166 304.879 387.206 308.593 386.367ZM280.433 394.708C284.195 392.708 288.261 391.654 292.494 391.179C295.387 390.859 299.859 391.062 303.071 391.308C297.014 395.35 289.41 396.659 282.836 399.821C279.044 401.629 275.358 403.633 271.601 405.5C268.994 406.785 267.362 407.519 264.292 407.526C263.148 407.537 262.085 407.417 260.94 407.446C261.991 406.46 263.571 405.114 264.358 404.517C269.358 400.699 274.878 397.664 280.433 394.708ZM127.538 523.547C132.161 519.141 136.272 514.2 140.86 509.736C144.931 505.765 148.819 501.616 152.762 497.525C154.713 495.508 156.131 493.011 158.009 490.934C161.646 486.85 165.577 483.045 169.142 478.882C172.306 475.18 175.693 471.638 179.188 468.235C181.63 465.876 183.742 463.179 186.22 460.878C192.206 455.327 197.846 449.362 204.233 444.247C207.072 441.98 209.232 439.056 212.019 436.634C212.509 437.722 212.126 438.698 211.934 439.643C211.098 443.765 210.243 447.887 209.387 452.008C207.511 461.045 204.395 469.612 199.906 477.722C197.125 482.756 194.047 487.625 191.695 492.905C188.9 499.216 186.012 505.485 181.539 510.888C180.677 511.921 179.333 512.609 178.95 514.043C179.34 514.287 179.466 514.007 179.645 513.823C183.89 509.803 187.195 505 189.507 499.756C193.626 490.449 199.031 481.862 203.615 472.821C205.066 469.983 206.445 467.046 207.352 463.994C208.988 458.494 210.286 452.865 211.452 447.231C212.169 443.695 213.264 440.231 213.772 436.668C214.011 435.019 214.755 434.096 215.933 433.267C220.293 430.147 224.401 426.693 229.104 424.064C229.533 423.815 229.886 423.124 230.463 423.471C231.021 423.799 230.688 424.472 230.687 424.968C230.7 428.839 229.52 432.508 228.738 436.252C227.077 444.211 224.682 451.93 221.572 459.429C219.582 464.247 217.124 468.856 214.685 473.485C211.438 479.663 208.86 486.268 203.605 491.201C203.506 491.292 203.478 491.501 203.307 491.951C205.551 490.709 206.991 489.071 208.191 487.232C212.568 480.453 215.733 473.032 219.662 466.005C222.501 460.935 224.442 455.447 226.214 449.895C227.767 445.04 228.923 440.092 230.306 435.191C231.423 431.195 232.353 427.114 232.03 422.906C231.983 422.199 232.299 421.926 232.73 421.658C236.326 419.517 239.992 417.513 243.46 414.776C243.779 420.49 243.975 425.932 243.904 431.401C243.775 441.063 242.217 450.227 236.43 458.379C234.487 461.121 232.612 464.057 231.561 467.37C234.383 463.195 237.092 458.959 239.635 454.602C242.096 450.375 243.368 445.851 243.944 441.108C244.9 433.139 245.039 425.098 244.605 417.092C244.438 414.187 245.395 412.701 247.66 411.383C249.848 410.119 251.769 408.367 254.064 407.26C255.99 406.328 257.214 407.179 257.151 409.179C257.125 410.264 257.386 411.343 258.447 411.977C259.005 412.305 259.292 412.756 259.457 413.392C260.377 416.976 260.876 420.619 261.03 424.305C261.199 428.106 260.456 431.813 259.617 435.534C258.754 439.37 257.815 443.202 256.84 446.994C256.16 449.635 255.123 452.129 253.54 454.466C252.996 453.777 252.967 452.632 252.119 452.845C251.426 453.026 251.477 454.096 251.409 454.818C251.189 456.944 250.818 459.007 250.332 461.103C249.596 464.181 248.111 466.904 246.888 469.752C245.643 472.694 244.546 475.738 242.366 478.681C242.022 475.921 241.241 476.823 240.393 477.97C237.184 482.301 233.975 486.631 230.71 490.92C229.985 491.863 229.369 492.943 228.24 493.507C227.773 493.736 227.375 494.139 226.989 493.323C226.269 491.825 225.492 491.717 224.862 493.121C223.1 497.034 220.319 500.218 217.54 503.365C214.801 506.456 212.206 509.762 208.624 512.018C208.233 512.269 207.767 512.936 207.344 512.08C206.502 510.31 205.956 511.527 205.241 512.222C202.68 514.71 200.429 517.516 197.702 519.864C195.172 522.029 192.553 524.076 190.188 526.42C188.597 528.014 186.802 529.484 184.471 530.533C184.907 529.197 185.182 528.064 184.165 527.279C183.056 526.433 182.196 527.408 181.316 527.963C180.101 528.752 178.922 529.619 177.636 530.272C172.75 532.722 167.829 535.094 162.79 537.557C162.471 536.495 163.472 535.812 162.698 535.151C162.256 534.77 161.785 535.094 161.377 535.287C156.172 537.61 150.896 539.796 145.348 541.17C143.076 541.725 140.816 542.433 138.322 542.35C138.729 541.242 139.092 540.303 139.416 539.363C139.526 539.025 139.867 538.6 139.5 538.261C139.132 537.941 138.7 538.228 138.351 538.366C136.238 539.233 134.177 540.197 132.046 541.025C128.112 542.561 124.212 544.212 119.86 543.862C119.442 543.826 118.888 544.318 118.698 543.376C118.229 540.859 118.172 540.857 115.621 541.706C114.732 541.993 113.825 542.242 112.988 542.665C109.426 544.445 105.509 544.647 101.648 545.347C104.199 544.059 106.062 541.867 108.611 540.617C111.744 539.068 113.951 536.394 116.468 534.056C120.196 530.548 123.868 527.038 127.538 523.547ZM131.402 462.311C133.393 460.714 135.974 460.077 137.819 458.322C141.647 454.704 145.983 451.735 150.029 448.374C151.253 447.356 151.387 446.408 150.229 445.35C148.558 443.795 148.495 443.487 150.452 442.252C156.656 438.35 163.153 435.203 170.437 433.805C178.719 432.218 186.99 430.46 195.225 428.643C202.152 427.116 209.097 426.066 216.187 426.585C217.746 426.706 219.349 426.2 221.078 426.824C220.718 427.228 220.494 427.582 220.18 427.797C215.034 431.476 210.617 435.966 206.09 440.338C205.435 440.978 204.673 441.9 203.907 441.964C199.68 442.306 195.556 443.357 191.343 443.814C183.893 444.614 176.679 446.644 169.436 448.445C163.831 449.836 158.412 451.787 152.959 453.661C150.696 454.445 148.364 455.036 146.338 456.555C164.137 450.268 182.239 445.442 201.184 444.217C201.063 444.364 200.921 444.587 200.742 444.771C196.596 448.681 192.45 452.61 188.269 456.481C187.318 457.357 186.483 458.658 185.069 458.733C180.083 458.967 175.255 459.99 170.458 461.204C163.965 462.845 157.538 464.736 151.211 466.993C144.11 469.524 137.162 472.5 130.181 475.359C128.94 475.861 127.733 476.46 126.509 477.02C130.325 476.014 134.02 474.716 137.594 473.108C142.704 470.801 148.038 469.037 153.317 467.232C158.674 465.392 164.118 463.766 169.694 462.622C174.289 461.685 178.881 460.844 183.757 460.491C183.053 461.396 182.545 462.157 181.927 462.818C177.741 467.261 173.518 471.664 169.333 476.087C168.874 476.583 168.386 476.849 167.691 477.069C163.751 478.299 159.67 478.78 155.657 479.454C145.425 481.151 135.884 484.612 126.938 489.812C126.312 490.187 125.741 490.64 125.096 491.014C124.491 491.352 123.756 491.627 123.492 492.474C136.539 484.429 150.908 480.899 166.007 479.535C165.861 479.835 165.811 480.138 165.632 480.321C160.922 484.99 156.911 490.259 152.515 495.189C147.838 500.431 142.83 505.393 137.877 510.395C135.63 512.667 133.581 515.196 130.443 516.402C127.013 517.748 123.415 518.535 119.936 519.689C115.664 521.115 111.531 522.853 107.695 525.269C111.405 524.068 115.014 522.538 118.724 521.355C122.375 520.189 126.145 519.39 129.864 518.437C118.435 529.79 107.319 541.422 92.0069 548.441C92.4285 547.924 92.5886 547.74 92.7305 547.536C97.0535 541.612 101.861 535.974 104.567 529.012C104.993 527.942 105.776 526.964 104.542 525.922C104.044 525.501 104.593 525.142 104.773 524.94C106.975 522.38 108.577 519.566 109.401 516.225C109.929 514.035 110.76 511.896 111.12 509.642C111.304 508.41 111.076 507.447 109.433 507.99C109.104 508.11 108.781 508.097 108.51 507.723C108.921 506.997 109.352 506.252 109.783 505.507C113.231 499.528 115.58 492.931 119.904 487.446C120.528 486.652 120.627 485.149 119.836 484.907C117.783 484.289 119.359 483.534 119.611 482.972C120.385 481.288 121.787 480.106 123.078 478.843C125.323 476.647 127.457 474.352 129.518 471.977C130.039 471.369 129.854 470.293 131.065 470.057C131.968 469.884 131.984 468.112 131.19 467.488C128.974 465.719 129.116 464.124 131.402 462.311ZM41.2168 434.399C56.4994 438.801 72.174 436.431 88.0951 437.35C80.4352 440.488 72.9879 442.623 65.2887 443.928C72.4827 443.784 79.2765 441.775 86.0537 439.707C87.2121 439.354 88.5435 438.97 89.0844 437.868C89.5002 437.027 89.9388 437.026 90.6691 436.884C98.3699 435.541 106.222 436.092 113.955 434.426C119.764 433.176 125.672 431.855 131.675 431.453C133.797 431.311 135.853 430.48 138.326 430.62C132.707 435.576 127.403 440.316 121.662 444.561C115.862 448.842 109.308 451.509 102.8 454.446C104.628 453.587 106.603 453.305 108.461 452.638C116.473 449.744 123.107 444.658 129.761 439.554C133.835 436.442 137.293 432.56 141.985 430.198C146.676 427.835 151.778 427.568 157.318 426.384C154.286 430.588 151.195 433.893 147.867 436.941C142.636 441.741 137.9 447.038 132.725 451.897C128.441 455.935 124.493 460.14 118.397 461.415C119.534 462.053 119.534 462.053 120.346 461.781C124.097 460.505 127.277 458.29 130.078 455.545C134.865 450.86 139.688 446.234 144.347 441.41C149.106 436.477 155.041 432.621 158.478 426.45C158.581 426.264 158.891 426.143 159.123 426.076C161.495 425.411 163.869 424.707 166.488 425.006C166.183 425.47 166.031 425.94 165.718 426.118C163.705 427.313 163.275 428.973 164.123 431.086C164.505 431.998 163.731 432.271 163.202 432.612C161.049 433.973 158.878 435.295 156.566 436.344C153.011 437.952 149.673 439.856 146.871 442.62C145.997 443.48 145.917 444.03 146.731 445.112C148.466 447.433 148.931 446.784 146.08 448.898C145.765 449.133 145.486 449.446 145.17 449.7C141.481 452.714 138.06 456.158 133.778 458.309C130.779 459.826 128.692 461.895 127.498 464.973C127.305 465.499 127.139 466.292 126.31 466.049C123.995 465.325 121.139 467.076 119.225 464.462C119.063 464.226 118.471 464.259 118.071 464.243C113.921 464.092 109.803 463.618 105.805 462.539C104.165 462.09 102.324 461.881 100.813 460.599C101.107 460.402 101.248 460.217 101.421 460.186C101.979 460.056 102.519 459.906 102.453 459.198C102.359 458.222 101.645 458.898 101.232 458.748C100.085 458.358 98.8865 458.289 97.692 458.126C92.8759 457.471 87.8953 457.572 83.4358 455.197C82.5591 454.722 80.7866 454.707 81.7783 452.841C81.9438 452.523 81.5764 452.184 81.2963 452.039C80.0095 451.338 78.9262 450.321 77.4136 450.011C72.2332 448.941 67.2942 447.099 62.3963 445.182C59.6007 444.076 56.7814 443.083 54.0286 441.865C52.2873 441.088 50.8731 439.772 48.9946 439.084C46.1761 438.073 43.6956 436.255 41.2168 434.399ZM187.024 389.64C187.875 389.808 188.646 390.068 188.939 388.956C189.435 387.107 190.979 387.113 192.329 387.207C194.781 387.384 197.215 387.998 199.484 388.93C204.622 391.028 209.76 393.146 214.793 395.487C216.607 396.344 218.766 396.699 220.281 398.363C219.275 398.703 218.414 398.782 217.461 398.762C213.937 398.694 210.51 399.03 208.004 402.016C207.403 402.735 206.617 403.313 206.424 404.296C206.323 404.883 206.006 405.194 205.39 405.341C203.193 405.899 201.012 406.534 198.815 407.111C194.073 408.385 189.246 409.389 185.174 411.51C176.229 403.211 166.908 395.698 155.719 390.511C155.657 391.081 155.784 391.238 156.006 391.419C158.106 393.202 160.553 394.446 162.838 395.913C168.893 399.822 174.485 404.36 179.895 409.12C181.165 410.239 182.243 411.847 184.273 412.102C183.875 412.963 183.137 413.752 183.669 414.727C184.36 416.014 183.667 416.653 182.649 417.279C179.46 419.264 175.866 420.433 172.571 422.204C171.597 422.717 170.607 422.677 169.52 422.67C166.871 422.657 164.254 422.759 161.61 423.547C157.093 424.887 152.381 425.419 147.719 426.124L147.795 426.127C146.253 426.998 144.472 427.192 142.801 427.486C133.216 429.228 123.563 430.739 113.993 432.559C104.905 434.264 95.664 434.572 86.5027 435.264C79.2154 435.823 71.8281 435.101 64.4795 435.296C55.9476 435.518 47.5881 433.86 39.0038 431.639C39.9268 431.448 40.5414 431.34 41.1575 431.194C44.7964 430.332 48.5164 429.817 52.0035 428.473C55.1037 427.266 58.0839 425.729 61.1681 424.444C65.9008 422.484 70.6843 420.678 75.4177 418.698C77.648 417.779 77.7305 416.696 75.7912 415.167C76.4318 414.889 77.0701 414.667 77.6362 414.347C81.696 412.054 85.7741 409.78 90.1858 408.207C92.5851 407.352 94.9662 406.477 97.3131 405.506C98.3993 405.054 98.5121 404.163 97.7295 403.254C97.4565 402.938 96.807 402.968 96.8564 402.227C101.192 400.65 105.653 399.27 109.885 397.422C115.069 395.156 120.543 394.179 125.957 392.799C127.71 392.356 130.496 392.776 130.364 389.491C130.348 388.937 131.167 388.971 131.547 389.005C135.029 389.167 138.481 388.68 141.953 388.65C147.828 388.586 153.663 387.643 159.56 387.98C160.587 388.041 161.915 387.257 161.676 386.58C161.127 385.089 162.271 385.555 162.736 385.384C163.55 385.055 164.426 385.091 165.319 385.146C172.775 385.605 179.78 388.199 187.024 389.64ZM156.231 373.83C156.818 373.453 157.405 373.554 157.835 373.762C160.324 374.913 163.014 374.87 165.637 375.073C168.241 375.275 170.971 375.178 173.368 374.399C177.986 372.891 182.42 370.785 186.622 368.269C190.179 366.146 193.56 363.672 197.294 361.899C201.786 359.757 206.012 357.128 209.853 354.139C216.824 348.724 224.235 343.765 230.224 337.204C233.157 334.007 236.541 330.999 237.903 326.613C238.101 325.973 238.275 325.923 238.979 325.951C240.33 326.007 240.675 326.898 240.904 327.823C241.301 329.307 241.563 330.824 241.768 332.339C242.181 335.273 242.31 338.176 241.599 341.102C240.22 346.842 237.312 351.737 233.306 355.959C229.818 359.648 226.642 363.655 222.203 366.352C220.15 367.603 218.096 368.853 216.207 370.301C212.151 373.433 207.905 376.081 202.942 377.594C198.734 378.87 195.043 381.465 190.518 382.08C185.61 382.737 180.708 383.718 175.816 382.583C171.793 381.656 167.844 380.312 163.912 379.007C160.94 378.027 158.422 376.188 156.231 373.83ZM236.134 326.045C236.258 326.278 235.913 326.779 235.764 327.154C234.716 329.933 232.631 331.964 230.696 334.058C226.127 339 220.883 343.189 215.621 347.378C211.008 351.06 206.394 354.798 201.228 357.561C194.677 361.087 188.431 365.082 181.897 368.647C173.102 373.434 164.305 374.084 155.246 369.957C153.224 369.035 150.827 368.441 149.727 365.975C148.104 362.304 146.654 358.603 145.67 354.711C144.867 351.513 145.11 348.377 145.907 345.207C146.817 341.622 148.57 338.395 150.116 335.084C151.433 332.258 152.493 329.194 154.797 326.943C159.545 322.276 164.986 318.4 170.062 314.108C174.623 310.272 180.097 307.922 185.211 305.024C187.553 303.69 189.79 302.142 192.545 301.454C196.474 300.49 200.338 299.257 204.322 298.352C208.922 297.302 213.375 297.503 217.55 298.933C223.848 301.098 229.786 304.144 233.346 310.334C234.815 312.644 236.244 314.99 237.79 317.266C238.634 318.539 239.485 319.642 237.372 320.49C237.12 320.594 236.913 321.005 236.862 321.308C236.513 322.857 235.158 324.269 236.134 326.045ZM262.012 318.03C264.251 318.293 266.538 317.395 268.722 318.533C269.917 319.154 271.095 319.717 271.374 321.273C271.516 322.004 271.489 322.651 270.937 323.105C270.246 323.687 269.802 322.887 269.414 322.585C267.381 321.014 265.081 320.367 262.559 320.035C260.302 319.733 258.139 320.407 255.895 320.277C250.169 319.947 244.886 321.846 239.829 324.289C238.856 324.764 238.546 324.427 238.422 323.717C238.268 322.814 238.568 322.007 239.548 321.38C239.877 321.26 240.365 320.975 240.864 320.9C244.088 320.384 247.281 319.714 250.429 318.718C254.235 317.52 258.122 317.565 262.012 318.03ZM135.032 277.933C134.442 277.451 133.443 276.685 134.233 275.555C134.497 275.165 134.779 274.795 135.043 274.406C136.498 272.406 138.395 270.768 139.923 268.848C144.609 262.919 150.25 257.869 155.211 252.2C159.531 247.267 165.393 244.285 169.611 240.454C172.177 238.786 173.935 237.295 176.087 236.43C176.998 236.066 177.539 236.356 177.256 237.202C176.909 238.236 176.414 239.608 175.597 239.994C173.303 241.082 171.282 242.467 169.255 244.005C165.694 246.7 162.112 249.432 159.137 252.704C155.163 257.079 150.404 260.621 146.651 265.196C143.34 269.216 139.789 273.056 136.368 276.977C135.967 277.456 135.788 278.555 135.032 277.933ZM107.282 216.735C108.946 214.744 109.873 212.132 111.243 209.881C113.511 206.18 113.732 202.185 113.861 198.11C113.876 197.729 113.839 197.251 113.641 196.957C113.226 196.387 112.687 195.564 113.066 195.16C113.563 194.666 114.533 194.724 115.329 194.852C117.828 195.279 120.333 196.03 122.832 195.999C127.181 195.948 129.113 199.059 130.689 202.003C131.965 204.381 133.526 206.295 135.318 208.16C139.819 212.787 145.261 216.309 150.283 220.309C154.327 223.526 158.388 226.781 162.692 229.703C163.304 230.109 163.88 230.476 164.076 231.285C162.675 231.514 161.355 231.154 160.039 231.158C153.648 231.239 147.497 232.931 141.271 234.106C137.754 234.782 134.394 236.284 130.864 236.826C123.631 237.921 116.764 240.309 109.763 242.253C109.223 242.402 108.542 242.737 108.477 241.99C108.363 240.594 107.36 239.942 106.618 238.978C103.308 234.609 100.213 230.097 97.1308 225.757C101.66 224.112 104.373 220.258 107.282 216.735ZM167.153 232.975C169.152 232.58 170.915 232.824 172.758 232.976C173.766 233.055 174.718 233.552 174.546 234.936C170.757 235.277 166.964 234.321 163.175 235.119C161.29 235.518 159.358 235.687 157.457 236.009C153.52 236.687 149.484 237.017 145.699 238.177C140.312 239.825 134.775 240.952 129.356 242.446C123.86 243.955 118.165 244.733 112.712 246.587C109.27 247.762 110.343 247.634 109.247 244.615C108.922 243.705 109.379 243.724 109.932 243.709C111.958 243.582 113.769 242.684 115.695 242.21C120.742 240.949 125.79 239.649 130.884 238.657C136.362 237.585 141.507 235.317 147.135 234.785C151.288 234.402 155.332 232.967 159.609 233.275C162.119 233.436 164.807 233.45 167.153 232.975ZM157.323 247.653C154.362 250.106 152.34 253.398 149.641 255.976C143.727 261.625 138.312 267.676 133.227 274.064C132.966 274.378 132.72 274.806 132.301 274.312C130.646 272.376 128.184 271.951 126.074 270.873C121.404 268.508 116.438 267.332 111.284 267.025C109.534 266.916 109.394 266.605 110.103 265.128C112.63 259.759 113.025 254.303 110.314 248.815C114.243 247.851 117.95 246.268 121.916 245.782C125.155 245.381 128.329 244.692 131.385 243.635C135.08 242.337 138.952 241.829 142.697 240.724C147.174 239.401 151.87 238.812 156.498 238.01C161.125 237.227 165.754 236.387 170.477 237C170.584 237.176 170.672 237.352 170.779 237.528C168.03 239.474 165.281 241.421 162.531 243.386C160.704 244.703 159.059 246.218 157.323 247.653ZM53.8177 305.606C56.2228 305.075 58.4563 304.08 60.727 303.105C66.725 300.51 72.7237 297.896 78.0301 294.033C81.2143 291.704 84.6503 289.748 87.9926 287.749C92.1166 285.287 95.6366 282.209 99.3233 279.253C102.438 276.749 104.467 273.305 107.031 270.302C107.912 269.271 108.686 268.521 110.194 268.964C111.135 269.25 112.188 269.16 113.194 269.258C118.416 269.777 123.09 272.028 127.895 273.884C128.928 274.269 129.77 275.143 130.697 275.772C132.144 276.747 132.031 278.115 132.794 279.042C131.908 279.73 135.465 285.977 135.941 288.781C136.435 291.623 135.826 294.382 135.921 297.188C136.052 300.95 135.387 304.621 133.982 308.205C132.491 312.015 130.291 315.452 128.69 319.162C125.658 326.13 120.469 331.332 115.097 336.336C112.817 338.455 109.77 339.76 107.108 341.443C100.257 345.776 92.8479 348.847 85.0755 351.007C80.3115 352.337 75.4838 353.36 70.5014 353.041C66.5081 352.782 62.7355 351.789 59.5019 349.273C57.6911 347.864 56.1174 346.255 55.2314 343.683C54.4987 346.208 55.3904 349.104 57.1876 350.379C58.911 351.594 60.7351 352.679 62.5789 353.746C64.2371 354.691 66.1091 355.073 67.9562 355.129C72.4119 355.274 76.7841 355.129 81.231 354.091C90.0298 352.011 98.3702 349.016 106.058 344.26C110.48 341.524 115.186 339.276 118.783 335.248C121.302 332.415 124.262 329.963 126.358 326.75C128.921 322.813 130.57 318.419 132.928 314.378C134.077 312.404 134.963 310.324 135.831 308.205C137.545 304.062 137.474 299.75 137.747 295.433C138.044 290.964 138.551 286.504 135.664 282.515C135.877 282.448 136.09 282.361 136.283 282.293C137.342 284.376 138.381 286.478 139.497 288.545C142.299 293.674 143.712 299.224 144.583 304.941C144.974 307.512 143.69 309.976 143.702 312.474C143.701 321.34 140.916 329.272 136.395 336.79C133.326 341.888 128.757 345.419 124.245 348.99C118.687 353.396 112.257 356.316 105.668 358.906C102.102 360.304 98.3569 360.971 94.7277 362.061C82.9899 365.603 71.9213 363.986 61.9363 356.866C56.7867 353.184 52.9083 348.259 49.7425 342.695C47.5184 338.81 46.0064 334.763 46.1478 330.383C46.2983 325.318 47.3981 320.348 49.4602 315.628C50.7224 312.743 52.3416 309.988 52.759 306.783C52.8045 306.136 53.1056 305.767 53.8177 305.606ZM8.93075 287.102C10.3248 287.979 11.1801 288.509 11.9973 289.039C14.6332 290.786 17.711 290.589 20.6664 291.053C26.1043 291.886 31.5358 292.414 36.9372 290.881C38.5382 290.432 40.0937 289.695 41.709 289.36C45.1498 288.682 48.3513 287.326 51.6372 286.24C54.8255 285.208 57.8985 283.732 60.9335 282.255C65.5057 280.021 70.5214 279.063 75.1833 276.967C82.778 273.56 90.0464 269.739 96.3541 264.24C100.289 260.817 104.426 257.573 106.52 252.53C106.752 251.987 106.954 251.251 107.633 250.955C107.992 251.961 109.34 251.654 109.767 252.854C111.085 256.531 109.844 259.816 108.639 263.161C107.821 265.434 105.43 268.883 104.628 269.841C102.785 272.016 101.2 274.41 99.2468 276.466C95.7994 280.1 91.6986 282.925 87.3963 285.551C80.6887 289.643 74.3217 294.263 67.2553 297.806C58.7476 302.09 49.9845 305.163 40.2969 305.204C35.5677 305.22 30.9238 304.553 26.5616 303.059C21.6917 301.391 17.4101 298.394 13.887 294.569C12.0068 292.528 10.3279 290.229 8.93075 287.102ZM36.7753 223.664C41.5835 220.792 46.444 218.036 52.1752 217.298C57.6193 216.587 62.9833 215.968 68.5639 216.578C74.2198 217.21 79.7196 217.932 85.0047 220.169C88.5651 221.688 91.5256 223.888 94.3959 226.427C97.4138 229.086 98.9969 232.793 101.72 235.669C103.327 237.394 104.789 239.418 105.666 241.742C106.028 242.672 106.266 244.302 106.661 244.909C106.618 245.48 106.52 246.009 106.537 246.544C106.553 251.731 103.779 255.678 100.272 258.89C96.0129 262.796 91.4789 266.423 86.4027 269.323C83.0841 271.208 79.7853 273.075 76.2539 274.57C72.024 276.36 48.7207 285.758 40.9331 287.822C37.579 288.715 34.2885 289.914 30.79 289.676C24.3252 289.239 17.7427 289.35 11.7504 286.226C9.65984 285.13 6.96174 283.97 6.82194 283.66C4.97311 279.923 4.12656 275.922 3.24351 271.882C2.08446 266.668 2.90457 262.011 5.69957 257.549C6.37297 256.471 6.86151 255.252 7.47937 254.133C9.02557 251.298 9.76808 248.068 11.6316 245.399C14.2653 241.618 17.983 238.834 20.9484 235.333C22.2306 233.822 23.7389 232.377 25.3924 231.11C28.9951 228.341 32.886 225.984 36.7753 223.664ZM11.6517 210.489C14.3846 212.66 17.4268 213.796 20.4288 214.052C24.9695 214.448 29.5939 214.199 34.1731 214.12C39.8769 214.048 45.4302 212.999 51.0258 212.313C54.3216 211.914 57.5822 210.98 60.8861 210.848C67.0538 210.625 72.5094 208.236 77.8936 205.73C81.1197 204.242 84.4164 202.89 87.7132 201.538C93.2212 199.266 99.0248 197.692 104.044 194.333C104.612 193.956 105.13 193.881 105.876 194.293C106.844 194.848 108.014 195.163 109.133 195.285C110.899 195.472 112.131 196.59 111.976 198.49C111.659 202.519 111.479 206.44 109.34 210.242C106.482 215.311 103.045 219.631 98.4407 223.103C97.3984 223.88 95.8086 224.521 95.0792 223.709C93.7482 222.225 92.064 221.45 90.4804 220.546C87.2957 218.7 83.9921 216.963 80.3457 216.146C75.3771 215.027 70.3088 214.476 65.2075 214.267C57.3653 213.945 49.8086 215.028 42.6676 218.529C36.8887 221.362 31.3226 224.585 26.0797 228.298C25.1371 228.964 24.4597 228.746 23.7384 228.202C17.7223 223.799 12.609 218.765 11.6517 210.489ZM107.796 186.059C105.997 187.148 104.981 189.128 104.231 190.68C102.728 193.859 99.7582 195.148 97.2797 196.076C91.7818 198.101 86.353 200.3 80.89 202.402C76.415 204.125 72.2879 206.664 67.5523 207.766C63.9332 208.609 60.1931 208.685 56.5565 209.489C52.1698 210.453 47.6899 210.899 43.2562 211.613C40.7028 212.042 38.0916 211.554 35.5817 211.851C31.9798 212.276 28.4171 212.206 24.8149 212.173C23.8045 212.169 22.8492 212.683 21.76 212.276C19.9577 211.592 18.0951 210.982 16.227 210.505C14.3027 210.007 14.5662 206.833 12.0159 207.186C11.939 207.202 11.8062 206.72 11.6823 206.486C9.99964 203.348 10.5064 199.822 11.238 196.859C13.0033 189.609 17.0708 183.408 22.285 178.073C25.6881 174.59 29.4382 171.483 33.4969 168.752C34.9002 168.008 36.3027 167.284 37.6877 166.521C42.408 163.931 47.2133 161.592 52.4905 160.302C54.0891 159.91 55.7128 160.3 57.229 160.058C62.0465 159.283 66.856 159.632 71.6353 159.79C75.3486 159.904 79.0836 160.42 82.7141 161.159C86.193 161.874 89.7917 162.46 92.962 164.192C96.7846 166.293 99.5816 169.687 102.703 172.618C104.08 173.914 105.178 175.484 105.844 177.399C106.645 179.72 107.115 182.199 108.535 184.297C109.147 185.199 108.382 185.702 107.796 186.059ZM126.701 190.933C130.502 192.157 134.814 192.543 136.831 196.84C136.936 197.073 137.174 197.769 137.45 198.486C135.924 197.565 134.337 196.737 132.709 196.003C129.115 194.369 125.172 194.264 121.359 193.803C117.602 193.363 113.887 192.353 109.975 193.356C107.259 194.045 106.164 192.379 107.091 189.767C107.264 189.259 107.398 188.788 107.402 188.216C107.422 187.264 108.267 186.65 108.998 186.49C110.191 186.233 109.848 187.611 110.245 188.18C110.784 188.984 109.972 189.237 109.3 189.362C108.973 189.425 108.554 189.408 108.668 189.889C108.815 190.505 109.359 190.718 109.912 190.722C111.703 190.738 113.517 190.679 115.31 190.657C119.122 190.68 122.975 189.732 126.701 190.933ZM127.97 185.094C122.825 180.364 119.846 174.427 118.485 167.621C121.973 173.236 124.25 179.545 127.97 185.094ZM140.839 196.279C134.815 191.132 130.28 185.017 128.197 177.228C132.515 183.507 137.422 189.39 140.839 196.279ZM171.341 224.757C171.359 224.777 171.359 224.777 171.378 224.797C173.404 225.585 174.902 227.191 176.624 228.444C176.649 228.292 176.673 228.179 176.718 228.009C177.372 228.798 178.507 229.017 179.02 229.514C182.143 232.407 185.808 234.635 188.874 237.526C193.849 242.21 199.245 246.397 204.239 251.083C211.95 258.32 220.218 264.989 228.288 271.86C233.06 275.926 237.952 279.844 242.644 283.983C244.318 285.463 246.361 286.328 247.956 287.881C254.613 294.332 261.27 300.782 268.007 307.14C270.632 309.612 273.137 312.213 275.545 314.885C277.934 317.519 276.726 321.416 278.728 324.206C279.142 324.795 278.311 325.085 278.232 325.616C278.148 326.26 278.475 326.655 278.9 326.978C279.603 327.502 280.327 327.989 281.092 328.402C283.105 329.533 284.298 328.801 284.184 326.451C284.102 324.75 283.885 323.045 283.683 320.996C288.079 324.932 290.895 329.738 294.402 333.943C298.272 338.602 301.57 343.732 305.066 348.699C308.579 353.686 310.9 359.406 314.647 364.269C315.788 365.746 316.85 367.277 317.656 369.007C319.128 372.175 320.889 375.26 322.753 378.158C324.903 381.525 326.799 385.054 328.968 388.404C331.174 391.812 332.483 395.679 334.396 399.265C338.841 407.57 344.338 415.326 347.145 424.536C348.355 428.495 350.51 432.206 351.795 436.224C352.69 439.025 353.799 441.759 354.752 444.544C355.059 445.434 355.587 446.504 355.308 447.255C354.965 448.194 353.66 447.455 352.77 447.78C351.899 448.107 351.011 448.357 350.157 448.741C346.97 450.193 344.216 452.254 341.227 454.953C340.927 449.697 338.989 445.347 337.571 440.865C336.491 437.465 334.908 434.216 333.46 430.935C331.663 426.857 329.808 422.796 327.915 418.753C325.654 413.912 323.257 409.124 321.073 404.248C319.116 399.897 317.57 395.296 314.203 391.84C312.391 389.993 312.017 387.957 311.748 385.696C311.721 385.428 311.597 385.175 311.608 384.908C311.617 384.241 311.112 383.992 310.684 384.203C309.361 384.854 309.486 384.116 309.429 383.198C309.368 382.357 309.195 381.454 308.845 380.696C307.043 376.732 305.047 372.875 302.68 369.232C300.563 365.98 298.466 362.71 296.135 359.583C292.881 355.236 289.707 350.796 286.136 346.741C280.744 340.61 275.589 334.259 270.197 328.127C268.995 326.762 267.989 325.234 266.75 323.848C268.109 325.105 270 325.488 271.242 326.816C271.645 327.233 272.082 327.27 272.494 326.982C272.808 326.766 273.282 326.366 273.01 326.012C271.961 324.634 273.014 323.59 273.405 322.424C273.646 321.672 273.756 320.856 273.311 320.075C271.853 317.499 268.93 315.32 265.721 315.932C264.26 316.215 262.765 315.944 261.313 315.999C258.239 316.102 256.134 314.91 254.778 312.166C254.514 311.64 253.996 311.256 253.575 310.82C250.542 307.607 246.79 305.165 243.816 301.897C239.455 297.123 234.874 292.588 230.255 288.071C226.882 284.767 223.687 281.3 220.294 278.034C215.03 272.956 210.124 267.512 204.701 262.599C202.274 260.402 200.127 257.893 197.62 255.807C194.742 253.439 191.905 251.016 189.267 248.391C186.757 245.904 184.109 243.527 181.194 241.615C179.133 240.253 178.121 239.354 179.367 236.869C179.887 235.823 179.583 233.923 177.942 233.97C177.007 233.989 176.369 233.734 175.832 233.33C175.262 233.288 174.722 232.98 174.464 232.302C174.221 231.701 173.802 231.226 173.264 230.88C173.245 230.879 173.225 230.897 173.187 230.896C172.576 230.909 171.947 230.902 171.339 230.858C171.319 230.876 171.318 230.895 171.298 230.914C170.908 231.146 166.604 231.007 166.313 230.671C162.452 226.242 157.264 223.493 152.78 219.859C148.555 216.425 144.107 213.287 139.742 210.02C135.319 206.731 132.444 201.979 129.247 197.196C131.698 198.326 134.18 198.714 136.051 200.507C136.731 201.145 137.807 201.398 138.393 200.584C139.319 199.401 139.524 197.656 140.103 197.946C140.813 198.299 141.541 199.149 142.301 198.742C142.671 198.547 142.615 198.068 143.066 198.678C145.055 201.333 147.379 203.698 149.468 206.243C151.212 208.354 152.978 210.391 155.119 212.099C160.493 216.361 166.169 220.236 171.341 224.757ZM174.852 204.233C174.52 202.084 174.811 200.112 172.79 198.237C170.935 196.522 170.834 193.391 169.985 190.858C169.271 188.75 169.667 186.517 169.183 184.381C168.359 180.743 167.092 177.24 166.424 173.533C165.293 167.176 163.72 160.895 162.896 154.493C162.606 152.251 163.115 150.079 163.932 147.805C164.295 148.735 164.64 149.627 165.74 149.29C166.358 149.106 166.361 148.553 166.271 147.958C165.872 145.616 166.179 143.245 165.913 140.889C165.634 138.399 166.538 135.881 166.735 133.391C167.113 128.831 168.806 124.725 170.275 120.514C170.707 119.292 171.226 119.657 171.808 120.348C172.044 120.625 171.589 121.502 172.519 121.14C173.139 120.898 173.295 120.352 173.259 119.836C173.064 117.616 173.629 115.446 173.701 113.219C173.822 109.353 174.533 105.492 175.791 101.788C176.852 98.6854 177.951 95.6035 179.031 92.5018C179.291 91.7498 179.265 90.5284 180.03 90.4645C181.005 90.3901 181.05 91.6312 181.342 92.4059C181.48 92.7738 181.713 93.1265 181.948 93.4412C182.2 93.8138 182.536 93.9801 182.968 93.6737C183.264 93.438 183.824 93.2702 183.519 92.7811C182.983 91.9202 183.613 91.4312 183.925 90.7957C184.756 89.1329 185.511 87.4478 186.1 85.6416C187.259 82.0283 188.328 78.2778 190.44 75.1231C192.613 71.8755 195.306 68.9734 197.795 65.9294C198.498 65.0621 199.095 64.4574 199.576 66.2121C199.906 67.465 200.698 67.6691 201.439 66.3457C201.892 65.5253 202.401 64.7454 202.834 63.9433C206.304 57.4313 209.795 50.882 215.871 46.3834C217.581 45.1189 219.127 42.3032 222.188 43.8968C222.413 44.0014 222.9 43.7544 223.26 43.3497C225.257 41.1245 226.848 38.5966 229.106 36.5347C233.424 32.6123 238.476 29.826 243.26 26.6091C244.26 25.9446 245.102 24.9305 246.335 24.6378C246.747 25.2839 246.028 26.0743 246.7 26.426C247.427 26.8181 247.949 26.1722 248.462 25.7737C249.052 25.3212 249.643 24.8688 250.159 24.3561C254.652 19.8689 259.966 16.7691 265.77 14.2424C269.614 12.5696 273.548 11.0148 277.273 8.9939C278.716 8.21411 280.065 6.91571 282.043 7.03493C275.37 13.0725 271.024 20.9595 265.255 27.7395C265.526 24.3758 266.097 21.1389 265.758 17.7883C265.084 17.9513 265.008 18.4249 265.051 18.7698C265.217 20.7596 264.625 22.642 264.299 24.5543C263.948 26.5991 263.286 28.7838 262.249 30.3619C260.095 33.6103 257.309 36.4704 254.581 39.2949C249.661 44.4128 244.8 49.5141 240.691 55.3326C237.31 60.1322 233.503 64.6285 229.956 69.3069C226.892 73.3379 223.719 77.269 221.209 81.7421C219.687 84.4444 218.333 87.2489 216.53 89.8443C214.018 93.4402 211.34 96.915 209.365 100.914C208.345 102.989 206.912 104.932 205.874 107.464C205.528 93.5689 206.59 80.2276 207.767 66.872C206.664 68.6572 206.775 70.6065 206.563 72.5045C205.894 78.5975 205.149 84.6873 204.84 90.8142C204.562 96.6753 204.779 102.538 204.026 108.36C203.938 109.1 204.626 109.529 204.171 110.406C201.462 115.558 199.371 120.982 197.374 126.449C196.902 127.726 196.317 128.979 195.684 130.46C192.861 125.825 192.131 120.857 191.932 115.949C191.64 109.111 192.094 102.227 191.688 95.3658C191.655 94.7925 191.894 94.0777 191.058 93.5287C190.558 96.4254 190.94 99.2057 190.903 101.969C190.831 107.457 190.416 112.931 190.84 118.402C191.144 122.132 191.754 125.856 193.138 129.307C194.261 132.136 194.296 134.54 192.998 137.366C191.198 141.296 189.603 145.311 188.158 149.408C187.231 152.021 186.884 154.886 185.414 157.266C183.565 156.332 182.618 154.768 182.197 152.958C181.385 149.512 180.765 146.017 180.663 142.466C180.559 138.954 180.454 135.479 179.68 132.015C178.971 128.859 179.049 125.545 178.533 122.34C178.018 119.077 178.327 115.734 177.295 112.527C177.071 118.466 177.229 124.384 178.095 130.234C178.738 134.532 179.287 138.825 179.567 143.146C179.865 147.524 179.913 151.931 181.919 156.017C182.324 156.834 182.749 157.633 183.575 157.953C185.114 158.531 184.862 159.569 184.491 160.717C183.904 162.485 183.165 164.228 182.748 166.023C181.611 170.971 179.832 175.761 179.129 180.822C179.074 181.221 179.032 181.791 178.379 181.917C177.153 180.646 176.378 179.089 175.739 177.461C174.826 175.098 174.258 172.672 173.768 170.192C173.373 168.212 172.729 166.241 172.43 164.227C171.772 159.815 171.21 155.387 170.418 150.988C170.17 149.586 169.736 148.081 168.621 146.93C167.968 147.494 168.31 147.985 168.423 148.485C168.946 150.623 169.717 152.733 169.876 154.913C170.359 161.721 171.669 168.39 173.46 174.927C174.371 178.282 175.062 181.895 178.389 183.976C179.003 184.364 178.695 184.904 178.549 185.203C177.8 186.717 177.962 188.363 177.821 189.94C177.528 192.902 176.799 195.809 177.454 198.886C177.821 200.636 177.96 202.816 177.457 204.397C176.145 208.499 175.898 212.665 175.478 216.861C175.349 218.153 175.501 219.551 174.578 220.676C174.597 219.285 174.405 217.923 174.557 216.538C175.124 212.481 175.502 208.378 174.852 204.233ZM175.925 5.01116C172.781 15.6549 167.571 25.5467 164.823 36.302C162.054 47.1137 158.963 57.855 156.974 69.1753C155.34 67.1826 153.901 65.5411 152.324 64.0083C149.648 61.3628 147.247 58.5378 146.047 54.7897C145.168 52.0652 144.956 49.33 144.727 46.5369C143.804 49.5116 143.795 52.5238 144.724 55.4409C146.091 59.7679 149.124 63.0001 152.136 66.2695C154.509 68.8455 156.623 71.6968 155.743 75.4931C154.492 80.8949 153.733 86.374 153.583 91.8972C153.341 101.058 154.244 110.19 154.115 119.375C154.004 127.207 154.538 135.103 155.189 142.947C155.675 148.782 155.606 154.652 157.992 160.165C158.323 160.922 158.519 161.712 158.876 162.775C155.804 161.448 153.271 159.971 150.907 158.12C147.064 155.103 144.532 150.823 140.728 147.808C138.919 146.361 137.189 144.841 135.42 143.338C135.262 143.484 135.121 143.65 134.963 143.796C135.932 144.808 136.901 145.82 137.89 146.814C140.452 149.436 143.013 152.077 145.614 154.662C148.655 157.685 151.154 161.391 155.436 162.977C155.737 163.085 156.186 163.294 156.233 163.525C156.802 166.389 158.122 164.422 159.329 163.823C159.703 168.662 162.886 172.397 163.843 176.955C158.981 175.116 153.629 174.972 149.663 171.244C149.304 172.088 149.689 172.485 150.042 172.709C154.395 175.347 158.599 178.379 163.983 178.676C164.116 178.682 164.336 178.881 164.37 178.997C164.653 180.935 166.509 182.174 166.815 183.998C167.337 187.089 167.803 190.139 169.093 193.071C170.14 195.44 170.624 198.053 171.671 200.422C173.435 204.384 173.591 208.471 172.98 212.679C172.589 210.127 172.024 207.625 171.306 205.155C169.214 198.034 166.283 191.393 160.321 186.591C157.996 184.723 155.49 183.057 152.984 181.41C150.551 179.823 148.87 177.58 148.216 174.922C147.626 172.572 146.304 170.859 144.927 169.105C144.347 168.376 143.609 167.774 143.028 167.045C140.272 163.595 137.79 159.947 135.701 156.029C134.213 153.241 133.075 150.316 133.017 147.091C133.015 146.652 132.791 146.09 133.336 145.808C134.857 144.993 134.983 144.693 133.806 143.634C131.82 141.856 130.615 139.633 129.336 137.331C126 131.283 123.903 124.753 121.342 118.394C121.203 118.064 120.329 117.532 121.466 117.236C122.757 116.907 122.095 116.308 121.56 115.867C120.451 115.002 119.935 114.103 120.191 112.512C120.829 108.573 120.536 104.576 120.565 100.611C120.592 96.6843 120.086 92.7549 120.61 88.8105C120.8 87.4265 121.293 86.0929 121.257 84.6424C121.202 81.8183 121.611 81.5872 124.274 82.6878C124.839 81.4526 124.969 80.1423 125.119 78.8138C125.355 76.7833 125.724 74.7393 126.263 72.7594C127.208 69.2517 128.53 65.8358 129.304 62.302C130.054 58.9007 131.361 55.8465 133.586 53.1921C134.167 52.5104 134.525 51.2286 135.844 52.522C136.302 52.9793 136.882 52.3167 137.059 51.7328C137.191 51.2997 137.042 50.7407 137.267 50.3686C139.926 45.5202 141.857 40.2608 145.671 36.0699C146.509 35.1509 147.406 34.2153 147.908 33.1109C148.851 31.0522 149.942 29.095 151.238 27.2414C152.372 25.6291 153.22 25.397 154.321 26.9102C155.314 28.2665 155.582 27.3051 155.933 26.6522C158.303 22.3449 161.776 19.0171 165.323 15.7306C168.969 12.3717 173.169 9.45511 175.925 5.01116Z" fill="white"/>
</svg>
