<svg width="194" height="348" viewBox="0 0 194 348" fill="none" xmlns="http://www.w3.org/2000/svg">
<path d="M185.748 342.779C184.072 342.779 182.741 341.415 182.741 339.756V178.446C182.741 171.398 176.991 165.664 169.926 165.664C162.861 165.664 157.127 171.398 157.127 178.446V189.175C157.127 190.851 155.796 192.198 154.12 192.198C152.444 192.198 151.097 190.834 151.097 189.175V178.446C151.097 168.046 159.542 159.601 169.942 159.601C180.343 159.601 188.788 168.062 188.788 178.446V339.756C188.788 341.432 187.44 342.779 185.764 342.779H185.748Z" fill="#DACD4D"/>
<path d="M92.7857 73.5735C72.4947 73.5735 55.999 57.0449 55.999 36.7703C55.999 16.4957 72.5111 0 92.7857 0C113.06 0 129.572 16.5121 129.572 36.7703C129.572 57.0285 113.077 73.5735 92.7857 73.5735Z" fill="#DACD4D"/>
<path d="M188.262 142.449L140.927 70.4197C139.629 68.251 133.534 59.8224 128.358 56.2571C121.803 69.2861 108.314 78.2403 92.7708 78.2403C77.228 78.2403 63.4433 69.0725 56.9698 55.8135C53.766 57.0293 47.4733 63.4205 45.4853 68.2181L1.10793 157.745C-2.17807 165.697 2.09373 175.046 10.6373 178.529C19.1645 182.045 28.776 178.447 32.0456 170.462L50.1021 126.594L53.4703 186.58C41.8871 234.44 53.306 330.408 53.306 330.408C53.306 340.085 61.6853 347.873 72.0197 347.873C82.3542 347.873 90.7335 340.085 90.7335 330.408C90.7335 330.408 82.3706 231.483 90.7335 191.081H93.5758C101.019 220.59 93.5758 330.408 93.5758 330.408C93.5758 340.085 101.955 347.873 112.29 347.873C122.624 347.873 131.003 340.085 131.003 330.408C131.003 330.408 137.822 213.426 131.003 189.028L135.916 122.963L166.18 167.619C172.292 175.9 182.856 172.286 188.952 165.303C195.047 158.369 195.491 152.767 188.213 142.432L188.262 142.449Z" fill="#DACD4D"/>
</svg>
