<svg width="286" height="409" viewBox="0 0 286 409" fill="none" xmlns="http://www.w3.org/2000/svg">
<path d="M101.512 216.699C97.9298 155.802 94.3473 94.92 90.7649 34.0229C90.0811 22.3804 81.3257 13.3185 70.7716 13.3185H32.4203C21.8514 13.3185 13.1108 22.3804 12.427 34.0229C8.84461 94.9052 5.26218 155.802 1.67975 216.699H101.512ZM38.9014 8.80976H64.2906C62.9379 3.76714 57.7797 0 51.596 0C45.4122 0 40.2541 3.76714 38.9014 8.80976ZM167.289 349.306C167.289 379.369 197.004 408.571 197.004 408.571C197.004 408.571 56.0683 408.027 13.3467 408.027C84.5642 312.306 -0.044577 228.906 1.75674e-05 227.437H280.307C280.307 285.472 167.304 299.31 167.304 349.306H167.289ZM110.178 194.022H257.43C272.295 194.022 284.603 204.019 286 216.699H110.178V194.022Z" fill="#0A7325"/>
<path d="M123.366 300.982C122.542 309.469 115.458 316.143 106.765 316.143C98.0726 316.143 90.9891 309.461 90.165 300.982H70.4698C65.5247 309.469 62.9199 319.387 62.9199 329.724C62.9199 358.077 82.5917 381.133 106.773 381.133C130.955 381.133 150.627 358.077 150.627 329.724C150.627 319.387 148.014 309.469 143.077 300.982H123.382H123.366ZM75.9048 352.967C72.3359 352.967 69.4279 350.058 69.4279 346.479C69.4279 342.901 72.3359 340 75.9048 340C79.4738 340 82.3895 342.909 82.3895 346.479C82.3895 350.05 79.4738 352.967 75.9048 352.967ZM79.155 320.476C75.5861 320.476 72.6703 317.559 72.6703 313.988C72.6703 310.418 75.5861 307.509 79.155 307.509C82.7239 307.509 85.6319 310.418 85.6319 313.988C85.6319 317.559 82.7239 320.476 79.155 320.476ZM112.465 350.579C112.333 350.711 112.263 350.89 112.263 351.092V360.496C112.263 363.507 109.813 365.965 106.789 365.965C103.764 365.965 101.245 363.515 101.245 360.496V351.092C101.245 350.898 101.167 350.711 101.035 350.579C99.1145 348.657 98.298 346.028 98.7879 343.36C99.371 340.171 101.89 337.581 105.039 336.927C107.481 336.453 109.977 337.021 111.874 338.569C113.771 340.117 114.86 342.411 114.86 344.861C114.86 347.016 114.012 349.054 112.465 350.579ZM127.876 313.996C127.876 310.426 130.784 307.516 134.353 307.516C137.922 307.516 140.837 310.426 140.837 313.996C140.837 317.566 137.929 320.483 134.353 320.483C130.776 320.483 127.876 317.566 127.876 313.996ZM137.603 352.975C134.034 352.975 131.118 350.065 131.118 346.487C131.118 342.909 134.026 340.008 137.603 340.008C141.179 340.008 144.08 342.917 144.08 346.487C144.08 350.058 141.172 352.975 137.603 352.975Z" fill="#E7F8AD"/>
<path d="M85.6633 286.18C85.6633 274.652 95.0405 265.271 106.564 265.271C118.087 265.271 127.853 274.652 127.853 286.18V297.754H137.626V286.048C137.626 269.199 123.926 255.493 107.085 255.493H106.431C89.5899 255.493 75.8896 269.199 75.8896 286.048V297.754H85.6633V286.18Z" fill="#E7F8AD"/>
<path d="M88.1357 307.509H70.7266V326.885H88.1357V307.509Z" fill="#E7F8AD"/>
<path d="M142.175 307.509H124.766V326.885H142.175V307.509Z" fill="#E7F8AD"/>
<path d="M145.292 333.599H127.883V352.975H145.292V333.599Z" fill="#E7F8AD"/>
<path d="M85.6323 333.599H68.2231V352.975H85.6323V333.599Z" fill="#E7F8AD"/>
</svg>
