<svg width="171" height="347" viewBox="0 0 171 347" fill="none" xmlns="http://www.w3.org/2000/svg">
<path d="M169.87 164.679L135.4 80.9351H135.383C132.607 74.2152 125.131 70.7649 117.787 72.3586H53.1019C45.7577 70.7649 38.2821 74.2316 35.5054 80.9679H35.5218L1.05174 164.679C-2.06995 172.319 1.98826 181.207 10.1704 184.592C18.3197 187.96 27.4876 184.493 30.6257 176.886L49.5202 130.997V192.297C49.4216 193.119 49.3723 193.908 49.3723 194.63V329.816C49.3723 339.017 57.3901 346.542 67.2646 346.542C77.139 346.542 85.1568 339.034 85.1568 329.816V196.602H87.9006V329.816C87.9006 339.017 95.9184 346.542 105.809 346.542C115.7 346.542 123.702 339.034 123.702 329.816V136.616L140.279 176.886C143.434 184.493 152.585 187.96 160.768 184.592C168.95 181.224 173.008 172.335 169.886 164.679H169.87Z" fill="#AAC940"/>
<path d="M87.1133 64.5698C104.94 64.5698 119.398 50.1114 119.398 32.3013C119.398 14.4912 104.94 0 87.1133 0C69.2868 0 54.8284 14.4748 54.8284 32.3013C54.8284 50.1279 69.2868 64.5698 87.1133 64.5698Z" fill="#AAC940"/>
</svg>
