<svg width="151" height="342" viewBox="0 0 151 342" fill="none" xmlns="http://www.w3.org/2000/svg">
<path d="M136.847 316.476L131.638 240.454C131.441 237.694 130.62 235.114 129.322 232.847L109.244 187.122C107.092 182.226 103.001 178.776 98.2527 177.248C99.0906 175.49 99.6657 173.568 99.8628 171.53L109.392 74.692C110.329 65.2119 103.33 56.6849 93.833 55.7484L70.716 53.481C61.236 52.5445 52.7088 59.5436 51.7723 69.0402L42.2429 165.878C41.8979 169.362 42.6372 172.697 44.1488 175.589C40.7149 179.877 39.2362 185.644 40.6985 191.345L54.8118 246.418L10.9109 313.929C5.50548 322.243 7.88783 333.464 16.2014 338.87C24.515 344.275 35.7366 341.893 41.1421 333.579L89.3312 259.464C91.1385 256.687 92.0586 253.582 92.19 250.476C92.19 250.329 92.19 250.181 92.19 250.033C92.19 249.704 92.19 249.376 92.19 249.063C92.1572 247.716 91.9929 246.336 91.6478 244.972L86.6203 225.355L95.8539 246.402L100.816 318.924C101.489 328.814 110.148 336.356 120.039 335.682C129.93 335.009 137.471 326.35 136.797 316.459L136.847 316.476Z" fill="#BAC2E3"/>
<path opacity="0.2" d="M70.1877 234.604C89.4155 234.604 105.003 219.017 105.003 199.789C105.003 180.561 89.4155 164.974 70.1877 164.974C50.9598 164.974 35.3726 180.561 35.3726 199.789C35.3726 219.017 50.9598 234.604 70.1877 234.604Z" fill="#E42324"/>
<path opacity="0.5" d="M70.1854 225.241C84.2411 225.241 95.6354 213.847 95.6354 199.791C95.6354 185.735 84.2411 174.341 70.1854 174.341C56.1297 174.341 44.7354 185.735 44.7354 199.791C44.7354 213.847 56.1297 225.241 70.1854 225.241Z" fill="#E42324"/>
<path d="M70.1863 212.391C77.146 212.391 82.7881 206.748 82.7881 199.789C82.7881 192.829 77.146 187.187 70.1863 187.187C63.2265 187.187 57.5845 192.829 57.5845 199.789C57.5845 206.748 63.2265 212.391 70.1863 212.391Z" fill="#E42324"/>
<path d="M96.0978 0.016446C78.1234 0.016446 63.5664 14.6064 63.5664 32.5643C63.5664 37.7891 64.8315 42.718 67.0167 47.0884C68.4461 46.9241 69.9084 46.9076 71.3706 47.039L94.4876 49.3064C102.078 50.0457 108.289 54.8596 111.23 61.333C121.581 55.8783 128.646 45.0511 128.646 32.5479C128.646 14.5571 114.072 0 96.1142 0L96.0978 0.016446Z" fill="#BAC2E3"/>
<path d="M38.5285 129.487L64.2907 166.98C68.9404 173.765 67.2152 183.114 60.4296 187.764C57.8501 189.538 54.9091 190.376 52.001 190.376C47.2363 190.376 42.5374 188.109 39.6457 183.903L12.7334 144.717L38.5449 129.487M38.5449 122.915C37.4112 122.915 36.2611 123.21 35.2096 123.835L9.39811 139.065C7.83726 139.985 6.72003 141.53 6.32571 143.304C5.93139 145.078 6.29285 146.951 7.32794 148.447L34.2402 187.632C38.2491 193.465 44.9033 196.964 52.0175 196.964C56.3714 196.964 60.5775 195.666 64.1756 193.202C73.9515 186.482 76.4489 173.059 69.729 163.266L43.9668 125.773C42.7017 123.933 40.6479 122.915 38.5449 122.915Z" fill="#F0F1F6"/>
<path d="M72.4722 57.4247C66.2781 51.8878 56.683 52.4135 51.1461 58.6076L3.82773 111.446C-0.000459097 115.718 -0.920536 121.617 0.903192 126.693C1.3468 128.156 2.004 129.585 2.90765 130.9L39.2836 183.853C43.9826 190.705 53.4298 192.463 60.2811 187.747C67.1324 183.048 68.874 173.601 64.175 166.75L34.0753 122.931L73.6387 78.7508C79.1756 72.5567 78.6498 62.9616 72.4557 57.4247H72.4722Z" fill="#BAC2E3"/>
<path d="M113.812 137.24L136.748 156.808L99.6658 190.407C96.8234 192.987 93.2252 194.269 89.6435 194.269C85.5689 194.269 81.4942 192.626 78.5533 189.372C73.0328 183.277 73.4928 173.78 79.5883 168.26L113.812 137.257M113.812 130.685C112.235 130.685 110.657 131.259 109.392 132.393L75.1687 163.397C66.3786 171.365 65.705 185.002 73.6735 193.792C77.7318 198.278 83.548 200.84 89.6435 200.84C94.9997 200.84 100.126 198.869 104.085 195.287L141.168 161.688C142.564 160.423 143.353 158.615 143.32 156.726C143.287 154.837 142.449 153.046 141.02 151.83L118.084 132.262C116.852 131.21 115.34 130.685 113.812 130.685Z" fill="#F0F1F6"/>
<path d="M94.5866 61.9247C101.882 57.9651 111.099 60.6924 115.058 67.9873L148.904 130.323C151.648 135.367 151.188 141.314 148.23 145.833C147.475 147.163 146.489 148.379 145.306 149.463L97.6919 192.592C91.5306 198.162 81.9355 197.702 76.3657 191.541C70.796 185.379 71.256 175.784 77.4173 170.215L116.8 134.529L88.4911 82.4129C84.5314 75.1179 87.2588 65.9008 94.5537 61.9412L94.5866 61.9247Z" fill="#BAC2E3"/>
</svg>
