<svg width="286" height="409" viewBox="0 0 286 409" fill="none" xmlns="http://www.w3.org/2000/svg">
<path d="M101.517 216.856C97.9348 155.915 94.3522 94.9887 90.7696 34.0475C90.0858 22.3965 81.3299 13.3281 70.7753 13.3281H32.422C21.8525 13.3281 13.1115 22.3965 12.4277 34.0475C8.84507 94.9738 5.26245 155.915 1.67983 216.856H101.517ZM38.9034 8.81613H64.2939C62.9411 3.76986 57.7827 0 51.5986 0C45.4145 0 40.2562 3.76986 38.9034 8.81613ZM167.298 349.558C167.298 379.643 197.014 408.867 197.014 408.867C197.014 408.867 56.3408 405.898 13.6169 405.898C84.8382 310.108 -0.0445793 229.071 1.75683e-05 227.602H280.321C280.321 285.678 167.313 299.526 167.313 349.558H167.298ZM130.862 194.163H257.428C272.294 194.163 284.603 204.166 286 216.856H110.184C111.7 203.81 116.859 194.46 130.877 194.163H130.862Z" fill="#0A7325"/>
<path d="M126.691 195.403L135.613 161.243L145.887 198.275L137.637 199.634L126.691 197.762V195.403Z" fill="#0A7325"/>
<path d="M151.646 193.483L160.567 159.324L170.841 196.356L162.592 197.715L151.646 195.842V193.483Z" fill="#0A7325"/>
<path d="M176.6 193.483L185.522 159.324L195.795 196.356L187.546 197.715L176.6 195.842V193.483Z" fill="#0A7325"/>
<path d="M201.554 193.483L210.476 159.324L220.75 196.356L212.501 197.715L201.554 195.842V193.483Z" fill="#0A7325"/>
<path d="M226.508 193.483L235.43 159.324L245.704 196.356L237.455 197.715L226.508 195.842V193.483Z" fill="#0A7325"/>
<path d="M251.463 193.483L260.385 159.324L270.659 196.356L262.409 197.715L251.463 195.842V193.483Z" fill="#0A7325"/>
<path d="M122.281 297.259C121.451 305.803 114.32 312.522 105.568 312.522C96.8162 312.522 89.6849 305.795 88.8551 297.259H69.0268C64.0482 305.803 61.4258 315.788 61.4258 326.196C61.4258 354.74 81.2306 377.952 105.576 377.952C129.921 377.952 149.726 354.74 149.726 326.196C149.726 315.788 147.095 305.803 142.125 297.259H122.296H122.281ZM74.4985 349.595C70.9055 349.595 67.9778 346.666 67.9778 343.064C67.9778 339.462 70.9055 336.541 74.4985 336.541C78.0916 336.541 81.0271 339.469 81.0271 343.064C81.0271 346.658 78.0916 349.595 74.4985 349.595ZM77.7706 316.884C74.1776 316.884 71.2421 313.948 71.2421 310.353C71.2421 306.759 74.1776 303.83 77.7706 303.83C81.3637 303.83 84.2914 306.759 84.2914 310.353C84.2914 313.948 81.3637 316.884 77.7706 316.884ZM111.306 347.191C111.173 347.324 111.102 347.504 111.102 347.708V357.176C111.102 360.206 108.636 362.681 105.591 362.681C102.546 362.681 100.01 360.214 100.01 357.176V347.708C100.01 347.512 99.9317 347.324 99.7986 347.191C97.8651 345.257 97.0432 342.61 97.5363 339.924C98.1234 336.713 100.66 334.105 103.83 333.447C106.288 332.97 108.801 333.541 110.711 335.1C112.621 336.658 113.717 338.968 113.717 341.435C113.717 343.604 112.864 345.656 111.306 347.191ZM126.821 310.361C126.821 306.766 129.749 303.837 133.342 303.837C136.935 303.837 139.87 306.766 139.87 310.361C139.87 313.955 136.943 316.892 133.342 316.892C129.741 316.892 126.821 313.955 126.821 310.361ZM136.614 349.603C133.021 349.603 130.085 346.674 130.085 343.072C130.085 339.469 133.013 336.548 136.614 336.548C140.215 336.548 143.134 339.477 143.134 343.072C143.134 346.666 140.207 349.603 136.614 349.603Z" fill="#E7F8AD"/>
<path d="M84.3232 282.357C84.3232 270.751 93.7638 261.307 105.365 261.307C116.966 261.307 126.798 270.751 126.798 282.357V294.01H136.638V282.224C136.638 265.261 122.845 251.463 105.889 251.463H105.232C88.2763 251.463 74.4834 265.261 74.4834 282.224V294.01H84.3232V282.357Z" fill="#E7F8AD"/>
<path d="M86.8121 303.83H69.2852V323.337H86.8121V303.83Z" fill="#E7F8AD"/>
<path d="M141.217 303.83H123.69V323.337H141.217V303.83Z" fill="#E7F8AD"/>
<path d="M144.356 330.096H126.829V349.604H144.356V330.096Z" fill="#E7F8AD"/>
<path d="M84.2916 330.096H66.7646V349.604H84.2916V330.096Z" fill="#E7F8AD"/>
</svg>
