<svg width="171" height="347" viewBox="0 0 171 347" fill="none" xmlns="http://www.w3.org/2000/svg">
<path d="M169.87 164.678L135.4 80.9345H135.383C132.607 74.2147 125.131 70.7644 117.787 72.3581H53.1019C45.7577 70.7644 38.2821 74.2311 35.5054 80.9674H35.5218L1.05174 164.678C-2.06995 172.318 1.98826 181.207 10.1704 184.591C18.3197 187.959 27.4876 184.493 30.6257 176.886L49.5202 130.997V192.297C49.4216 193.118 49.3723 193.907 49.3723 194.63V329.816C49.3723 339.017 57.3901 346.541 67.2646 346.541C77.139 346.541 85.1568 339.033 85.1568 329.816V196.602H87.9006V329.816C87.9006 339.017 95.9184 346.541 105.809 346.541C115.7 346.541 123.702 339.033 123.702 329.816V136.616L140.279 176.886C143.434 184.493 152.585 187.959 160.768 184.591C168.95 181.223 173.008 172.334 169.886 164.678H169.87Z" fill="#F08FA9"/>
<path d="M87.1101 64.5698C104.937 64.5698 119.395 50.1115 119.395 32.3014C119.395 14.4913 104.937 0 87.1101 0C69.2836 0 54.8252 14.4749 54.8252 32.3014C54.8252 50.1279 69.2836 64.5698 87.1101 64.5698Z" fill="#F08FA9"/>
<path d="M115.273 128.054H54.8431C38.1831 141.576 27.2571 167.289 33.862 230.232H138.85C146.013 178.314 132.836 150.58 115.273 128.054Z" fill="#F08FA9"/>
<path d="M85.4692 215.824C112.818 215.824 134.989 193.653 134.989 166.304C134.989 138.955 112.818 116.784 85.4692 116.784C58.1201 116.784 35.9492 138.955 35.9492 166.304C35.9492 193.653 58.1201 215.824 85.4692 215.824Z" fill="#F08FA9" stroke="white" stroke-width="4" stroke-miterlimit="10"/>
<path d="M110.36 167.832C97.7747 180.319 86.3066 192.609 85.5508 203.009C81.6404 190.358 60.2486 168.917 60.2486 168.917C46.3981 155.378 68.9236 122.075 84.6471 158.566C96.0331 123.767 126.527 151.419 110.36 167.849V167.832Z" fill="white"/>
</svg>
