<svg width="32" height="31" viewBox="0 0 32 31" fill="none" xmlns="http://www.w3.org/2000/svg">
<g clip-path="url(#clip0_346_8079)">
<path d="M31.2855 0L32.0004 1.23844C27.3602 4.52355 23.058 8.69512 19.0938 13.7271C15.1295 18.7721 12.2701 23.6997 10.5154 28.5362L9.4756 29.2271C8.57876 29.8137 7.79891 30.4003 7.14903 30.987C7.03205 30.4134 6.73311 29.4878 6.2262 28.2233L5.68031 26.8675C4.49753 23.9214 3.48372 21.8747 2.67787 20.7014C1.85902 19.5282 0.975189 18.9024 0.0263672 18.8112C1.31313 17.6379 2.43092 17.0513 3.37974 17.0513C4.69249 17.0513 6.13522 18.8242 7.70793 22.3701L8.56577 24.2733C11.3732 19.2283 14.7656 14.5875 18.7299 10.3507C22.6941 6.10092 26.8923 2.65938 31.3115 0L31.2855 0Z" fill="#0A7325"/>
</g>
<defs>
<clipPath id="clip0_346_8079">
<rect width="32" height="31" fill="white"/>
</clipPath>
</defs>
</svg>
