<svg width="34" height="31" viewBox="0 0 34 31" fill="none" xmlns="http://www.w3.org/2000/svg">
<path d="M0.237397 18.8547C0.237397 18.9616 0.34186 18.9616 0.237397 18.8547C3.16236 20.4576 5.98286 22.0605 8.90783 23.5565C9.11676 23.7702 9.32568 23.7702 9.43014 23.5565C12.773 19.0684 16.3247 14.7941 20.2943 10.8403C23.9505 7.20706 27.9201 3.78757 32.3076 0.902367C32.7254 0.688648 33.0388 0.47493 33.4566 0.154352C34.0834 -0.166225 34.1879 0.047493 33.6656 0.47493C24.2639 9.13053 16.9515 19.2822 11.1016 30.7161C11.1016 30.7161 11.1016 30.8229 10.9971 30.8229C10.9971 31.0367 10.6837 31.0367 10.5792 30.9298L10.4748 30.8229C7.02749 26.8692 3.58021 23.0222 0.0284706 19.1753C-0.0759924 18.9616 0.132934 18.7479 0.237397 18.8547Z" fill="#0A7325"/>
</svg>
