<svg width="24" height="24" viewBox="0 0 24 24" fill="none" xmlns="http://www.w3.org/2000/svg">
<path d="M4.64785 12.5676C4.64785 12.6168 4.69567 12.6168 4.64785 12.5676C5.9867 13.3052 7.27774 14.0429 8.6166 14.7313C8.71223 14.8297 8.80786 14.8297 8.85568 14.7313C10.3858 12.6659 12.0116 10.6989 13.8286 8.87938C15.5021 7.2074 17.3192 5.63376 19.3274 4.30601C19.5187 4.20766 19.6622 4.10931 19.8534 3.96178C20.1403 3.81425 20.1881 3.9126 19.949 4.10931C15.6456 8.09257 12.2984 12.7643 9.62074 18.0261C9.62074 18.0261 9.62074 18.0753 9.57292 18.0753C9.57292 18.1737 9.42947 18.1737 9.38166 18.1245L9.33384 18.0753C7.7559 16.2558 6.17797 14.4855 4.55222 12.7151C4.5044 12.6168 4.60003 12.5184 4.64785 12.5676Z" fill="#0A7325"/>
<circle cx="11.6722" cy="11.6722" r="10.6722" stroke="#0A7325" stroke-width="2"/>
</svg>
