<svg width="502" height="57" viewBox="0 0 502 57" fill="none" xmlns="http://www.w3.org/2000/svg">
<path d="M78.9375 45.2305L83.9004 35.9336H87.8379V50.7266H83.9004V41.416L78.9375 50.7266H75V35.9336H78.9375V45.2305Z" fill="black"/>
<path d="M96.9844 47.9238C97.4674 47.9238 97.8958 47.8327 98.2695 47.6504C98.6432 47.459 98.9349 47.1947 99.1445 46.8574C99.3633 46.5111 99.4772 46.1055 99.4863 45.6406H103.191C103.182 46.6797 102.904 47.6048 102.357 48.416C101.811 49.2181 101.077 49.8516 100.156 50.3164C99.2357 50.7721 98.2057 51 97.0664 51C95.918 51 94.9154 50.8086 94.0586 50.4258C93.2109 50.043 92.5046 49.5143 91.9395 48.8398C91.3743 48.1562 90.9505 47.3633 90.668 46.4609C90.3854 45.5495 90.2441 44.5742 90.2441 43.5352V43.1387C90.2441 42.0905 90.3854 41.1152 90.668 40.2129C90.9505 39.3014 91.3743 38.5085 91.9395 37.834C92.5046 37.1504 93.2109 36.6172 94.0586 36.2344C94.9062 35.8516 95.8997 35.6602 97.0391 35.6602C98.2513 35.6602 99.3132 35.8926 100.225 36.3574C101.145 36.8223 101.865 37.4876 102.385 38.3535C102.913 39.2103 103.182 40.2266 103.191 41.4023H99.4863C99.4772 40.9102 99.3724 40.4635 99.1719 40.0625C98.9805 39.6615 98.6979 39.3424 98.3242 39.1055C97.9596 38.8594 97.5085 38.7363 96.9707 38.7363C96.3965 38.7363 95.9271 38.8594 95.5625 39.1055C95.1979 39.3424 94.9154 39.6706 94.7148 40.0898C94.5143 40.5 94.373 40.9694 94.291 41.498C94.2181 42.0176 94.1816 42.5645 94.1816 43.1387V43.5352C94.1816 44.1094 94.2181 44.6608 94.291 45.1895C94.3639 45.7181 94.5007 46.1875 94.7012 46.5977C94.9108 47.0078 95.1979 47.3314 95.5625 47.5684C95.9271 47.8053 96.401 47.9238 96.9844 47.9238Z" fill="black"/>
<path d="M115.428 35.9336V39.0234H108.264V35.9336H115.428ZM109.398 35.9336V50.7266H105.461V35.9336H109.398ZM118.299 35.9336V50.7266H114.348V35.9336H118.299Z" fill="black"/>
<path d="M120.705 43.4805V43.1934C120.705 42.1087 120.86 41.1107 121.17 40.1992C121.48 39.2786 121.931 38.4811 122.523 37.8066C123.116 37.1322 123.845 36.6081 124.711 36.2344C125.577 35.8516 126.57 35.6602 127.691 35.6602C128.812 35.6602 129.811 35.8516 130.686 36.2344C131.561 36.6081 132.294 37.1322 132.887 37.8066C133.488 38.4811 133.944 39.2786 134.254 40.1992C134.564 41.1107 134.719 42.1087 134.719 43.1934V43.4805C134.719 44.556 134.564 45.554 134.254 46.4746C133.944 47.3861 133.488 48.1836 132.887 48.8672C132.294 49.5417 131.565 50.0658 130.699 50.4395C129.833 50.8132 128.84 51 127.719 51C126.598 51 125.6 50.8132 124.725 50.4395C123.859 50.0658 123.125 49.5417 122.523 48.8672C121.931 48.1836 121.48 47.3861 121.17 46.4746C120.86 45.554 120.705 44.556 120.705 43.4805ZM124.643 43.1934V43.4805C124.643 44.1003 124.697 44.679 124.807 45.2168C124.916 45.7546 125.089 46.2285 125.326 46.6387C125.572 47.0397 125.891 47.3542 126.283 47.582C126.675 47.8099 127.154 47.9238 127.719 47.9238C128.266 47.9238 128.735 47.8099 129.127 47.582C129.519 47.3542 129.833 47.0397 130.07 46.6387C130.307 46.2285 130.48 45.7546 130.59 45.2168C130.708 44.679 130.768 44.1003 130.768 43.4805V43.1934C130.768 42.5918 130.708 42.0267 130.59 41.498C130.48 40.9603 130.303 40.4863 130.057 40.0762C129.82 39.6569 129.505 39.3288 129.113 39.0918C128.721 38.8548 128.247 38.7363 127.691 38.7363C127.135 38.7363 126.661 38.8548 126.27 39.0918C125.887 39.3288 125.572 39.6569 125.326 40.0762C125.089 40.4863 124.916 40.9603 124.807 41.498C124.697 42.0267 124.643 42.5918 124.643 43.1934Z" fill="black"/>
<path d="M146.873 35.9336V39.0234H139.6V35.9336H146.873ZM149.758 35.9336V50.7266H145.82V35.9336H149.758ZM138.615 35.9336H142.484L142.088 43.3984C142.033 44.4648 141.919 45.4036 141.746 46.2148C141.573 47.026 141.34 47.7188 141.049 48.293C140.766 48.8672 140.424 49.3366 140.023 49.7012C139.632 50.0566 139.171 50.3164 138.643 50.4805C138.123 50.6445 137.549 50.7266 136.92 50.7266H135.717L135.676 47.623L136.182 47.5684C136.473 47.541 136.729 47.459 136.947 47.3223C137.175 47.1764 137.367 46.9714 137.521 46.707C137.686 46.4336 137.822 46.0918 137.932 45.6816C138.041 45.2624 138.128 44.7702 138.191 44.2051C138.264 43.64 138.314 42.9883 138.342 42.25L138.615 35.9336Z" fill="black"/>
<path d="M155.527 40.3223H159.82C161.169 40.3223 162.318 40.5456 163.266 40.9922C164.223 41.4297 164.952 42.0404 165.453 42.8242C165.964 43.6081 166.219 44.515 166.219 45.5449C166.219 46.2923 166.073 46.985 165.781 47.623C165.499 48.252 165.084 48.7988 164.537 49.2637C163.99 49.7285 163.32 50.0885 162.527 50.3438C161.734 50.599 160.832 50.7266 159.82 50.7266H153.066V35.9336H157.018V47.6641H159.82C160.413 47.6641 160.887 47.5684 161.242 47.377C161.607 47.1764 161.871 46.9167 162.035 46.5977C162.208 46.2786 162.295 45.9323 162.295 45.5586C162.295 45.1667 162.208 44.8112 162.035 44.4922C161.871 44.1641 161.607 43.8997 161.242 43.6992C160.887 43.4987 160.413 43.3984 159.82 43.3984H155.527V40.3223Z" fill="black"/>
<path d="M175.037 43.6719H172.111V41.9082H174.203C174.695 41.9082 175.087 41.8398 175.379 41.7031C175.68 41.5664 175.894 41.375 176.021 41.1289C176.158 40.8737 176.227 40.5866 176.227 40.2676C176.227 39.985 176.167 39.7161 176.049 39.4609C175.939 39.1966 175.739 38.9824 175.447 38.8184C175.165 38.6452 174.764 38.5586 174.244 38.5586C173.816 38.5586 173.433 38.6224 173.096 38.75C172.768 38.8776 172.508 39.0645 172.316 39.3105C172.134 39.5475 172.043 39.8346 172.043 40.1719H168.092C168.092 39.2331 168.361 38.431 168.898 37.7656C169.436 37.0911 170.156 36.5762 171.059 36.2207C171.961 35.8561 172.95 35.6738 174.025 35.6738C174.964 35.6738 175.812 35.7695 176.568 35.9609C177.325 36.1432 177.972 36.4167 178.51 36.7812C179.048 37.1458 179.458 37.597 179.74 38.1348C180.032 38.6634 180.178 39.2786 180.178 39.9805C180.178 40.4818 180.059 40.9557 179.822 41.4023C179.585 41.849 179.243 42.2454 178.797 42.5918C178.35 42.929 177.808 43.1934 177.17 43.3848C176.541 43.5762 175.83 43.6719 175.037 43.6719ZM172.111 42.6875H175.037C175.921 42.6875 176.696 42.7741 177.361 42.9473C178.036 43.1113 178.601 43.3574 179.057 43.6855C179.512 44.0137 179.854 44.4193 180.082 44.9023C180.319 45.3763 180.438 45.9232 180.438 46.543C180.438 47.2448 180.283 47.8737 179.973 48.4297C179.663 48.9766 179.221 49.4414 178.646 49.8242C178.072 50.207 177.393 50.4987 176.609 50.6992C175.826 50.8997 174.964 51 174.025 51C173.023 51 172.048 50.8359 171.1 50.5078C170.152 50.1797 169.372 49.6738 168.762 48.9902C168.16 48.3066 167.859 47.4271 167.859 46.3516H171.811C171.811 46.6615 171.902 46.9531 172.084 47.2266C172.266 47.5 172.54 47.7188 172.904 47.8828C173.269 48.0378 173.72 48.1152 174.258 48.1152C174.796 48.1152 175.229 48.0286 175.557 47.8555C175.885 47.6823 176.122 47.4544 176.268 47.1719C176.423 46.8802 176.5 46.5794 176.5 46.2695C176.5 45.832 176.413 45.4766 176.24 45.2031C176.076 44.9297 175.821 44.7292 175.475 44.6016C175.137 44.474 174.714 44.4102 174.203 44.4102H172.111V42.6875Z" fill="black"/>
<path d="M182.229 43.4805V43.1934C182.229 42.1087 182.383 41.1107 182.693 40.1992C183.003 39.2786 183.454 38.4811 184.047 37.8066C184.639 37.1322 185.368 36.6081 186.234 36.2344C187.1 35.8516 188.094 35.6602 189.215 35.6602C190.336 35.6602 191.334 35.8516 192.209 36.2344C193.084 36.6081 193.818 37.1322 194.41 37.8066C195.012 38.4811 195.467 39.2786 195.777 40.1992C196.087 41.1107 196.242 42.1087 196.242 43.1934V43.4805C196.242 44.556 196.087 45.554 195.777 46.4746C195.467 47.3861 195.012 48.1836 194.41 48.8672C193.818 49.5417 193.089 50.0658 192.223 50.4395C191.357 50.8132 190.363 51 189.242 51C188.121 51 187.123 50.8132 186.248 50.4395C185.382 50.0658 184.648 49.5417 184.047 48.8672C183.454 48.1836 183.003 47.3861 182.693 46.4746C182.383 45.554 182.229 44.556 182.229 43.4805ZM186.166 43.1934V43.4805C186.166 44.1003 186.221 44.679 186.33 45.2168C186.439 45.7546 186.613 46.2285 186.85 46.6387C187.096 47.0397 187.415 47.3542 187.807 47.582C188.199 47.8099 188.677 47.9238 189.242 47.9238C189.789 47.9238 190.258 47.8099 190.65 47.582C191.042 47.3542 191.357 47.0397 191.594 46.6387C191.831 46.2285 192.004 45.7546 192.113 45.2168C192.232 44.679 192.291 44.1003 192.291 43.4805V43.1934C192.291 42.5918 192.232 42.0267 192.113 41.498C192.004 40.9603 191.826 40.4863 191.58 40.0762C191.343 39.6569 191.029 39.3288 190.637 39.0918C190.245 38.8548 189.771 38.7363 189.215 38.7363C188.659 38.7363 188.185 38.8548 187.793 39.0918C187.41 39.3288 187.096 39.6569 186.85 40.0762C186.613 40.4863 186.439 40.9603 186.33 41.498C186.221 42.0267 186.166 42.5918 186.166 43.1934Z" fill="black"/>
<path d="M206.031 44.5469H201.396L201.369 41.9629H205.197C205.708 41.9629 206.122 41.9128 206.441 41.8125C206.76 41.7031 206.993 41.5436 207.139 41.334C207.294 41.1152 207.371 40.8509 207.371 40.541C207.371 40.2676 207.321 40.0352 207.221 39.8438C207.13 39.6432 206.988 39.4792 206.797 39.3516C206.605 39.224 206.364 39.1328 206.072 39.0781C205.79 39.0143 205.457 38.9824 205.074 38.9824H202.859V50.7266H198.922V35.9336H205.074C206.04 35.9336 206.906 36.0202 207.672 36.1934C208.438 36.3574 209.089 36.6081 209.627 36.9453C210.174 37.2826 210.589 37.7109 210.871 38.2305C211.163 38.7409 211.309 39.347 211.309 40.0488C211.309 40.5046 211.204 40.9329 210.994 41.334C210.794 41.735 210.493 42.0905 210.092 42.4004C209.691 42.7103 209.194 42.9655 208.602 43.166C208.018 43.3574 207.344 43.4759 206.578 43.5215L206.031 44.5469ZM206.031 50.7266H200.426L201.779 47.6777H206.031C206.514 47.6777 206.911 47.6185 207.221 47.5C207.531 47.3815 207.758 47.2083 207.904 46.9805C208.059 46.7435 208.137 46.4609 208.137 46.1328C208.137 45.8138 208.068 45.5358 207.932 45.2988C207.795 45.0618 207.572 44.8796 207.262 44.752C206.961 44.6152 206.551 44.5469 206.031 44.5469H202.354L202.381 41.9629H206.564L207.521 43.002C208.561 43.0658 209.417 43.2617 210.092 43.5898C210.766 43.918 211.263 44.3372 211.582 44.8477C211.91 45.349 212.074 45.9004 212.074 46.502C212.074 47.2038 211.942 47.819 211.678 48.3477C211.413 48.8763 211.021 49.3184 210.502 49.6738C209.992 50.0202 209.363 50.2845 208.615 50.4668C207.868 50.64 207.007 50.7266 206.031 50.7266Z" fill="black"/>
<path d="M222.479 47.3906V40.8008C222.479 40.3268 222.401 39.9212 222.246 39.584C222.091 39.2376 221.85 38.9688 221.521 38.7773C221.202 38.5859 220.788 38.4902 220.277 38.4902C219.84 38.4902 219.462 38.5677 219.143 38.7227C218.824 38.8685 218.577 39.0827 218.404 39.3652C218.231 39.6387 218.145 39.9622 218.145 40.3359H214.207C214.207 39.707 214.353 39.11 214.645 38.5449C214.936 37.9798 215.36 37.4831 215.916 37.0547C216.472 36.6172 217.133 36.2754 217.898 36.0293C218.673 35.7832 219.539 35.6602 220.496 35.6602C221.645 35.6602 222.665 35.8516 223.559 36.2344C224.452 36.6172 225.154 37.1914 225.664 37.957C226.184 38.7227 226.443 39.6797 226.443 40.8281V47.1582C226.443 47.9694 226.493 48.6348 226.594 49.1543C226.694 49.6647 226.84 50.1113 227.031 50.4941V50.7266H223.053C222.861 50.3255 222.715 49.8242 222.615 49.2227C222.524 48.612 222.479 48.0013 222.479 47.3906ZM222.998 41.7168L223.025 43.9453H220.824C220.305 43.9453 219.854 44.0046 219.471 44.123C219.088 44.2415 218.773 44.4102 218.527 44.6289C218.281 44.8385 218.099 45.0846 217.98 45.3672C217.871 45.6497 217.816 45.9596 217.816 46.2969C217.816 46.6341 217.894 46.9395 218.049 47.2129C218.204 47.4772 218.427 47.6868 218.719 47.8418C219.01 47.9876 219.352 48.0605 219.744 48.0605C220.337 48.0605 220.852 47.9421 221.289 47.7051C221.727 47.4681 222.064 47.1764 222.301 46.8301C222.547 46.4837 222.674 46.1556 222.684 45.8457L223.723 47.5137C223.577 47.8874 223.376 48.2747 223.121 48.6758C222.875 49.0768 222.561 49.4551 222.178 49.8105C221.795 50.1569 221.335 50.444 220.797 50.6719C220.259 50.8906 219.621 51 218.883 51C217.944 51 217.092 50.8132 216.326 50.4395C215.57 50.0566 214.968 49.5326 214.521 48.8672C214.084 48.1927 213.865 47.4271 213.865 46.5703C213.865 45.7956 214.011 45.1074 214.303 44.5059C214.594 43.9043 215.023 43.3984 215.588 42.9883C216.162 42.569 216.878 42.2546 217.734 42.0449C218.591 41.8262 219.585 41.7168 220.715 41.7168H222.998Z" fill="black"/>
<path d="M236.793 35.9336V50.7266H232.842V35.9336H236.793ZM241.551 35.9336V38.9824H228.152V35.9336H241.551Z" fill="black"/>
<path d="M246.281 40.3223H250.574C251.923 40.3223 253.072 40.5456 254.02 40.9922C254.977 41.4297 255.706 42.0404 256.207 42.8242C256.717 43.6081 256.973 44.515 256.973 45.5449C256.973 46.2923 256.827 46.985 256.535 47.623C256.253 48.252 255.838 48.7988 255.291 49.2637C254.744 49.7285 254.074 50.0885 253.281 50.3438C252.488 50.599 251.586 50.7266 250.574 50.7266H243.82V35.9336H247.771V47.6641H250.574C251.167 47.6641 251.641 47.5684 251.996 47.377C252.361 47.1764 252.625 46.9167 252.789 46.5977C252.962 46.2786 253.049 45.9323 253.049 45.5586C253.049 45.1667 252.962 44.8112 252.789 44.4922C252.625 44.1641 252.361 43.8997 251.996 43.6992C251.641 43.4987 251.167 43.3984 250.574 43.3984H246.281V40.3223Z" fill="black"/>
<path d="M273.912 32.6113H278.342C279.527 32.6113 280.62 32.8073 281.623 33.1992C282.626 33.582 283.496 34.138 284.234 34.8672C284.982 35.5872 285.561 36.4577 285.971 37.4785C286.381 38.4902 286.586 39.6204 286.586 40.8691C286.586 42.0905 286.381 43.2025 285.971 44.2051C285.561 45.1986 284.982 46.0508 284.234 46.7617C283.496 47.4727 282.626 48.0195 281.623 48.4023C280.62 48.7852 279.527 48.9766 278.342 48.9766H273.912C272.718 48.9766 271.62 48.7852 270.617 48.4023C269.615 48.0195 268.74 47.4772 267.992 46.7754C267.245 46.0645 266.661 45.2122 266.242 44.2188C265.832 43.2253 265.627 42.1178 265.627 40.8965C265.627 39.6478 265.832 38.5176 266.242 37.5059C266.661 36.485 267.245 35.61 267.992 34.8809C268.74 34.1517 269.615 33.5911 270.617 33.1992C271.62 32.8073 272.718 32.6113 273.912 32.6113ZM273.912 35.8926C273.037 35.8926 272.267 36.084 271.602 36.4668C270.936 36.8496 270.421 37.4147 270.057 38.1621C269.692 38.9004 269.51 39.8118 269.51 40.8965C269.51 41.6803 269.615 42.373 269.824 42.9746C270.043 43.5671 270.348 44.0638 270.74 44.4648C271.132 44.8659 271.597 45.1712 272.135 45.3809C272.673 45.5905 273.265 45.6953 273.912 45.6953H278.369C279.235 45.6953 279.992 45.5085 280.639 45.1348C281.295 44.7611 281.805 44.2142 282.17 43.4941C282.535 42.7741 282.717 41.8991 282.717 40.8691C282.717 40.0579 282.612 39.3424 282.402 38.7227C282.193 38.1029 281.896 37.5833 281.514 37.1641C281.131 36.7448 280.671 36.4303 280.133 36.2207C279.604 36.002 279.016 35.8926 278.369 35.8926H273.912ZM278.096 30V51.5469H274.158V30H278.096Z" fill="black"/>
<path d="M292.957 45.2305L297.92 35.9336H301.857V50.7266H297.92V41.416L292.957 50.7266H289.02V35.9336H292.957V45.2305Z" fill="black"/>
<path d="M312.426 35.9336V50.7266H308.475V35.9336H312.426ZM317.184 35.9336V38.9824H303.785V35.9336H317.184Z" fill="black"/>
<path d="M318.1 43.4805V43.1934C318.1 42.1087 318.255 41.1107 318.564 40.1992C318.874 39.2786 319.326 38.4811 319.918 37.8066C320.51 37.1322 321.24 36.6081 322.105 36.2344C322.971 35.8516 323.965 35.6602 325.086 35.6602C326.207 35.6602 327.205 35.8516 328.08 36.2344C328.955 36.6081 329.689 37.1322 330.281 37.8066C330.883 38.4811 331.339 39.2786 331.648 40.1992C331.958 41.1107 332.113 42.1087 332.113 43.1934V43.4805C332.113 44.556 331.958 45.554 331.648 46.4746C331.339 47.3861 330.883 48.1836 330.281 48.8672C329.689 49.5417 328.96 50.0658 328.094 50.4395C327.228 50.8132 326.234 51 325.113 51C323.992 51 322.994 50.8132 322.119 50.4395C321.253 50.0658 320.52 49.5417 319.918 48.8672C319.326 48.1836 318.874 47.3861 318.564 46.4746C318.255 45.554 318.1 44.556 318.1 43.4805ZM322.037 43.1934V43.4805C322.037 44.1003 322.092 44.679 322.201 45.2168C322.311 45.7546 322.484 46.2285 322.721 46.6387C322.967 47.0397 323.286 47.3542 323.678 47.582C324.07 47.8099 324.548 47.9238 325.113 47.9238C325.66 47.9238 326.13 47.8099 326.521 47.582C326.913 47.3542 327.228 47.0397 327.465 46.6387C327.702 46.2285 327.875 45.7546 327.984 45.2168C328.103 44.679 328.162 44.1003 328.162 43.4805V43.1934C328.162 42.5918 328.103 42.0267 327.984 41.498C327.875 40.9603 327.697 40.4863 327.451 40.0762C327.214 39.6569 326.9 39.3288 326.508 39.0918C326.116 38.8548 325.642 38.7363 325.086 38.7363C324.53 38.7363 324.056 38.8548 323.664 39.0918C323.281 39.3288 322.967 39.6569 322.721 40.0762C322.484 40.4863 322.311 40.9603 322.201 41.498C322.092 42.0267 322.037 42.5918 322.037 43.1934Z" fill="black"/>
<path d="M343.529 46.2012L347.412 35.9336H350.625L344.855 50.7266H342.203L336.461 35.9336H339.674L343.529 46.2012ZM338.73 35.9336V50.7266H334.793V35.9336H338.73ZM348.424 50.7266V35.9336H352.361V50.7266H348.424Z" fill="black"/>
<path d="M360.195 49.0586L364.119 35.9336H368.344L362.396 52.9551C362.269 53.3288 362.096 53.7298 361.877 54.1582C361.667 54.5866 361.38 54.9922 361.016 55.375C360.66 55.7669 360.209 56.0859 359.662 56.332C359.124 56.5781 358.464 56.7012 357.68 56.7012C357.306 56.7012 357.001 56.6784 356.764 56.6328C356.527 56.5872 356.244 56.5234 355.916 56.4414V53.5566C356.016 53.5566 356.121 53.5566 356.23 53.5566C356.34 53.5658 356.445 53.5703 356.545 53.5703C357.064 53.5703 357.488 53.5111 357.816 53.3926C358.145 53.2741 358.409 53.0918 358.609 52.8457C358.81 52.6087 358.969 52.2988 359.088 51.916L360.195 49.0586ZM358.555 35.9336L361.768 46.6523L362.328 50.8223L359.648 51.1094L354.33 35.9336H358.555Z" fill="black"/>
<path d="M369.902 50.7266V35.9336H373.84V47.6504H378.789V35.9336H382.74V50.7266H369.902ZM384.955 47.6641L384.695 55.1152H381.031V50.7266H379.377V47.6641H384.955Z" fill="black"/>
<path d="M390.875 45.2305L395.838 35.9336H399.775V50.7266H395.838V41.416L390.875 50.7266H386.938V35.9336H390.875V45.2305Z" fill="black"/>
<path d="M412.764 35.9336V39.0234H405.49V35.9336H412.764ZM415.648 35.9336V50.7266H411.711V35.9336H415.648ZM404.506 35.9336H408.375L407.979 43.3984C407.924 44.4648 407.81 45.4036 407.637 46.2148C407.464 47.026 407.231 47.7188 406.939 48.293C406.657 48.8672 406.315 49.3366 405.914 49.7012C405.522 50.0566 405.062 50.3164 404.533 50.4805C404.014 50.6445 403.439 50.7266 402.811 50.7266H401.607L401.566 47.623L402.072 47.5684C402.364 47.541 402.619 47.459 402.838 47.3223C403.066 47.1764 403.257 46.9714 403.412 46.707C403.576 46.4336 403.713 46.0918 403.822 45.6816C403.932 45.2624 404.018 44.7702 404.082 44.2051C404.155 43.64 404.205 42.9883 404.232 42.25L404.506 35.9336Z" fill="black"/>
<path d="M446.164 38.9277V42.127H435.773V38.9277H446.164ZM436.99 30.8203V50.7266H432.889V30.8203H436.99ZM449.09 30.8203V50.7266H445.002V30.8203H449.09Z" fill="black"/>
<path d="M451.783 43.4805V43.1934C451.783 42.1087 451.938 41.1107 452.248 40.1992C452.558 39.2786 453.009 38.4811 453.602 37.8066C454.194 37.1322 454.923 36.6081 455.789 36.2344C456.655 35.8516 457.648 35.6602 458.77 35.6602C459.891 35.6602 460.889 35.8516 461.764 36.2344C462.639 36.6081 463.372 37.1322 463.965 37.8066C464.566 38.4811 465.022 39.2786 465.332 40.1992C465.642 41.1107 465.797 42.1087 465.797 43.1934V43.4805C465.797 44.556 465.642 45.554 465.332 46.4746C465.022 47.3861 464.566 48.1836 463.965 48.8672C463.372 49.5417 462.643 50.0658 461.777 50.4395C460.911 50.8132 459.918 51 458.797 51C457.676 51 456.678 50.8132 455.803 50.4395C454.937 50.0658 454.203 49.5417 453.602 48.8672C453.009 48.1836 452.558 47.3861 452.248 46.4746C451.938 45.554 451.783 44.556 451.783 43.4805ZM455.721 43.1934V43.4805C455.721 44.1003 455.775 44.679 455.885 45.2168C455.994 45.7546 456.167 46.2285 456.404 46.6387C456.65 47.0397 456.969 47.3542 457.361 47.582C457.753 47.8099 458.232 47.9238 458.797 47.9238C459.344 47.9238 459.813 47.8099 460.205 47.582C460.597 47.3542 460.911 47.0397 461.148 46.6387C461.385 46.2285 461.559 45.7546 461.668 45.2168C461.786 44.679 461.846 44.1003 461.846 43.4805V43.1934C461.846 42.5918 461.786 42.0267 461.668 41.498C461.559 40.9603 461.381 40.4863 461.135 40.0762C460.898 39.6569 460.583 39.3288 460.191 39.0918C459.799 38.8548 459.326 38.7363 458.77 38.7363C458.214 38.7363 457.74 38.8548 457.348 39.0918C456.965 39.3288 456.65 39.6569 456.404 40.0762C456.167 40.4863 455.994 40.9603 455.885 41.498C455.775 42.0267 455.721 42.5918 455.721 43.1934Z" fill="black"/>
<path d="M472.154 38.7773V56.4141H468.217V35.9336H471.867L472.154 38.7773ZM481.52 43.166V43.4531C481.52 44.5286 481.392 45.5267 481.137 46.4473C480.891 47.3678 480.526 48.1699 480.043 48.8535C479.56 49.528 478.958 50.0566 478.238 50.4395C477.527 50.8132 476.707 51 475.777 51C474.875 51 474.091 50.8177 473.426 50.4531C472.76 50.0885 472.2 49.5781 471.744 48.9219C471.298 48.2565 470.938 47.4863 470.664 46.6113C470.391 45.7363 470.181 44.7975 470.035 43.7949V43.043C470.181 41.9674 470.391 40.9831 470.664 40.0898C470.938 39.1875 471.298 38.4082 471.744 37.752C472.2 37.0866 472.756 36.5716 473.412 36.207C474.077 35.8424 474.857 35.6602 475.75 35.6602C476.689 35.6602 477.514 35.8379 478.225 36.1934C478.945 36.5488 479.546 37.0592 480.029 37.7246C480.521 38.39 480.891 39.1829 481.137 40.1035C481.392 41.0241 481.52 42.0449 481.52 43.166ZM477.568 43.4531V43.166C477.568 42.5371 477.514 41.9583 477.404 41.4297C477.304 40.8919 477.14 40.4225 476.912 40.0215C476.693 39.6204 476.402 39.3105 476.037 39.0918C475.682 38.8639 475.249 38.75 474.738 38.75C474.201 38.75 473.74 38.8366 473.357 39.0098C472.984 39.1829 472.678 39.4336 472.441 39.7617C472.204 40.0898 472.027 40.4818 471.908 40.9375C471.79 41.3932 471.717 41.9082 471.689 42.4824V44.3828C471.735 45.0573 471.863 45.6634 472.072 46.2012C472.282 46.7298 472.605 47.1491 473.043 47.459C473.48 47.7689 474.055 47.9238 474.766 47.9238C475.285 47.9238 475.723 47.8099 476.078 47.582C476.434 47.3451 476.721 47.0215 476.939 46.6113C477.167 46.2012 477.327 45.7272 477.418 45.1895C477.518 44.6517 477.568 44.0729 477.568 43.4531Z" fill="black"/>
<path d="M492.963 46.2012L496.846 35.9336H500.059L494.289 50.7266H491.637L485.895 35.9336H489.107L492.963 46.2012ZM488.164 35.9336V50.7266H484.227V35.9336H488.164ZM497.857 50.7266V35.9336H501.795V50.7266H497.857Z" fill="black"/>
<path d="M46.6787 1.29297V4.60352H39.0029V1.29297H46.6787ZM40.2188 1.29297V17.1426H36V1.29297H40.2188ZM49.7549 1.29297V17.1426H45.5215V1.29297H49.7549Z" fill="#0A7325"/>
<path d="M57.2256 4.33984V23.2363H53.0068V1.29297H56.918L57.2256 4.33984ZM67.2598 9.04199V9.34961C67.2598 10.502 67.123 11.5713 66.8496 12.5576C66.5859 13.5439 66.1953 14.4033 65.6777 15.1357C65.1602 15.8584 64.5156 16.4248 63.7441 16.835C62.9824 17.2354 62.1035 17.4355 61.1074 17.4355C60.1406 17.4355 59.3008 17.2402 58.5879 16.8496C57.875 16.459 57.2744 15.9121 56.7861 15.209C56.3076 14.4961 55.9219 13.6709 55.6289 12.7334C55.3359 11.7959 55.1113 10.79 54.9551 9.71582V8.91016C55.1113 7.75781 55.3359 6.70312 55.6289 5.74609C55.9219 4.7793 56.3076 3.94434 56.7861 3.24121C57.2744 2.52832 57.8701 1.97656 58.5732 1.58594C59.2861 1.19531 60.1211 1 61.0781 1C62.084 1 62.9678 1.19043 63.7295 1.57129C64.501 1.95215 65.1455 2.49902 65.6631 3.21191C66.1904 3.9248 66.5859 4.77441 66.8496 5.76074C67.123 6.74707 67.2598 7.84082 67.2598 9.04199ZM63.0264 9.34961V9.04199C63.0264 8.36816 62.9678 7.74805 62.8506 7.18164C62.7432 6.60547 62.5674 6.10254 62.3232 5.67285C62.0889 5.24316 61.7764 4.91113 61.3857 4.67676C61.0049 4.43262 60.541 4.31055 59.9941 4.31055C59.418 4.31055 58.9248 4.40332 58.5146 4.58887C58.1143 4.77441 57.7871 5.04297 57.5332 5.39453C57.2793 5.74609 57.0889 6.16602 56.9619 6.6543C56.835 7.14258 56.7568 7.69434 56.7275 8.30957V10.3457C56.7764 11.0684 56.9131 11.7178 57.1377 12.2939C57.3623 12.8604 57.709 13.3096 58.1777 13.6416C58.6465 13.9736 59.2617 14.1396 60.0234 14.1396C60.5801 14.1396 61.0488 14.0176 61.4297 13.7734C61.8105 13.5195 62.1182 13.1729 62.3525 12.7334C62.5967 12.2939 62.7676 11.7861 62.8652 11.21C62.9727 10.6338 63.0264 10.0137 63.0264 9.34961Z" fill="#0A7325"/>
<path d="M74.0859 11.2539L79.4033 1.29297H83.6221V17.1426H79.4033V7.16699L74.0859 17.1426H69.8672V1.29297H74.0859V11.2539Z" fill="#0A7325"/>
<path d="M100.233 1.29297V17.1426H96V1.29297H100.233ZM98.2412 8.0752V11.3711C97.9189 11.5371 97.5039 11.6934 96.9961 11.8398C96.4883 11.9863 95.9512 12.1035 95.3848 12.1914C94.8281 12.2695 94.3105 12.3086 93.832 12.3086C92.3086 12.3086 91 12.0986 89.9062 11.6787C88.8223 11.2588 87.9873 10.5996 87.4014 9.70117C86.8154 8.80273 86.5225 7.65039 86.5225 6.24414V1.27832H90.7412V6.24414C90.7412 6.95703 90.8486 7.51855 91.0635 7.92871C91.2783 8.3291 91.6104 8.6123 92.0596 8.77832C92.5186 8.93457 93.1094 9.0127 93.832 9.0127C94.3398 9.0127 94.833 8.97363 95.3115 8.89551C95.79 8.81738 96.2686 8.70996 96.7471 8.57324C97.2256 8.43652 97.7236 8.27051 98.2412 8.0752Z" fill="#0A7325"/>
<path d="M107.689 11.2539L113.007 1.29297H117.226V17.1426H113.007V7.16699L107.689 17.1426H103.471V1.29297H107.689V11.2539Z" fill="#0A7325"/>
<path d="M131.332 7.69434V10.9756H123.275V7.69434H131.332ZM124.682 1.29297V17.1426H120.463V1.29297H124.682ZM134.188 1.29297V17.1426H129.955V1.29297H134.188Z" fill="#0A7325"/>
<path d="M6.49414 19.3604L0.878906 18.0176L2.90527 0H22.876V5.68848H8.69141L7.8125 13.5742C8.2845 13.2975 9.00065 13.0046 9.96094 12.6953C10.9212 12.3698 11.9954 12.207 13.1836 12.207C14.9089 12.207 16.4388 12.4756 17.7734 13.0127C19.1081 13.5498 20.2393 14.3311 21.167 15.3564C22.111 16.3818 22.8271 17.6351 23.3154 19.1162C23.8037 20.5973 24.0479 22.2738 24.0479 24.1455C24.0479 25.7243 23.8037 27.2298 23.3154 28.6621C22.8271 30.0781 22.0866 31.3477 21.0938 32.4707C20.1009 33.5775 18.8558 34.4482 17.3584 35.083C15.861 35.7178 14.0869 36.0352 12.0361 36.0352C10.5062 36.0352 9.02507 35.8073 7.59277 35.3516C6.17676 34.8958 4.89909 34.2204 3.75977 33.3252C2.63672 32.43 1.7334 31.3477 1.0498 30.0781C0.382487 28.7923 0.0325521 27.3275 0 25.6836H6.98242C7.08008 26.6927 7.34049 27.5635 7.76367 28.2959C8.20312 29.012 8.78092 29.5654 9.49707 29.9561C10.2132 30.3467 11.0514 30.542 12.0117 30.542C12.9069 30.542 13.6719 30.3711 14.3066 30.0293C14.9414 29.6875 15.4541 29.2155 15.8447 28.6133C16.2354 27.9948 16.5202 27.2786 16.6992 26.4648C16.8945 25.6348 16.9922 24.7396 16.9922 23.7793C16.9922 22.819 16.8783 21.9482 16.6504 21.167C16.4225 20.3857 16.0726 19.7103 15.6006 19.1406C15.1286 18.571 14.5264 18.1315 13.7939 17.8223C13.0778 17.513 12.2396 17.3584 11.2793 17.3584C9.97721 17.3584 8.9681 17.5618 8.25195 17.9688C7.55208 18.3757 6.96615 18.8395 6.49414 19.3604Z" fill="#B3D736"/>
</svg>
