<svg width="277" height="101" viewBox="0 0 277 101" fill="none" xmlns="http://www.w3.org/2000/svg">
<path d="M72.3136 0.447958V5.50988H60.5875V0.447958H72.3136ZM62.4449 0.447958V24.6825H56V0.447958H62.4449ZM77.013 0.447958V24.6825H70.5457V0.447958H77.013Z" fill="#0A7325"/>
<path d="M88.4258 5.10672V34H81.9809V0.447958H87.9558L88.4258 5.10672ZM103.755 12.2964V12.7668C103.755 14.5288 103.546 16.1638 103.128 17.6719C102.725 19.1801 102.129 20.4941 101.338 21.614C100.547 22.7189 99.5626 23.585 98.384 24.2121C97.2203 24.8243 95.8777 25.1304 94.356 25.1304C92.879 25.1304 91.596 24.8318 90.5069 24.2345C89.4179 23.6372 88.5004 22.8011 87.7544 21.726C87.0234 20.6359 86.4341 19.3742 85.9866 17.9407C85.539 16.5072 85.1959 14.9693 84.9572 13.3267V12.0949C85.1959 10.3329 85.539 8.72025 85.9866 7.25692C86.4341 5.77866 87.0234 4.50198 87.7544 3.42688C88.5004 2.33685 89.4104 1.49319 90.4846 0.895916C91.5736 0.298639 92.8492 0 94.3112 0C95.8478 0 97.198 0.291173 98.3616 0.873518C99.5402 1.45586 100.525 2.29205 101.316 3.38208C102.121 4.47211 102.725 5.77119 103.128 7.27931C103.546 8.78744 103.755 10.4598 103.755 12.2964ZM97.2875 12.7668V12.2964C97.2875 11.2661 97.198 10.318 97.0189 9.45191C96.8548 8.57093 96.5863 7.80193 96.2133 7.14493C95.8553 6.48792 95.3779 5.98024 94.7811 5.62187C94.1993 5.24857 93.4907 5.06192 92.6552 5.06192C91.775 5.06192 91.0216 5.20378 90.395 5.48748C89.7834 5.77119 89.2836 6.18182 88.8957 6.71937C88.5078 7.25692 88.2169 7.89899 88.023 8.64559C87.829 9.39218 87.7097 10.2358 87.6649 11.1765V14.2899C87.7395 15.3948 87.9484 16.3878 88.2915 17.2688C88.6346 18.1348 89.1643 18.8217 89.8804 19.3294C90.5964 19.8371 91.5363 20.0909 92.7 20.0909C93.5504 20.0909 94.2664 19.9043 94.8483 19.531C95.4301 19.1427 95.9 18.6126 96.2581 17.9407C96.6311 17.2688 96.8921 16.4923 97.0413 15.6113C97.2054 14.7303 97.2875 13.7822 97.2875 12.7668Z" fill="#0A7325"/>
<path d="M114.183 15.6785L122.306 0.447958H128.751V24.6825H122.306V9.42951L114.183 24.6825H107.738V0.447958H114.183V15.6785Z" fill="#0A7325"/>
<path d="M154.128 0.447958V24.6825H147.66V0.447958H154.128ZM151.084 10.8182V15.8577C150.592 16.1115 149.958 16.3505 149.182 16.5744C148.406 16.7984 147.586 16.9776 146.721 17.112C145.87 17.2314 145.08 17.2912 144.349 17.2912C142.021 17.2912 140.022 16.9701 138.351 16.3281C136.695 15.686 135.42 14.6781 134.525 13.3043C133.629 11.9306 133.182 10.1686 133.182 8.01845V0.42556H139.627V8.01845C139.627 9.10848 139.791 9.96706 140.119 10.5942C140.447 11.2064 140.954 11.6394 141.641 11.8933C142.342 12.1322 143.245 12.2516 144.349 12.2516C145.124 12.2516 145.878 12.1919 146.609 12.0725C147.34 11.953 148.071 11.7888 148.802 11.5797C149.533 11.3707 150.294 11.1168 151.084 10.8182Z" fill="#0A7325"/>
<path d="M165.518 15.6785L173.641 0.447958H180.086V24.6825H173.641V9.42951L165.518 24.6825H159.073V0.447958H165.518V15.6785Z" fill="#0A7325"/>
<path d="M201.636 10.2358V15.253H189.328V10.2358H201.636ZM191.477 0.447958V24.6825H185.032V0.447958H191.477ZM206 0.447958V24.6825H199.533V0.447958H206Z" fill="#0A7325"/>
<path d="M10.532 31.1612L1.42538 29L4.71167 0H37.0995V9.15583H14.0954L12.6701 21.8482C13.4355 21.4029 14.597 20.9313 16.1543 20.4336C17.7117 19.9097 19.4538 19.6477 21.3807 19.6477C24.1787 19.6477 26.6599 20.0799 28.8244 20.9444C30.9888 21.8089 32.8233 23.0664 34.3279 24.7168C35.8589 26.3672 37.0203 28.3844 37.8122 30.7683C38.6041 33.1522 39 35.8505 39 38.8631C39 41.4042 38.6041 43.8275 37.8122 46.1328C37.0203 48.4119 35.8193 50.4553 34.2091 52.2629C32.599 54.0443 30.5797 55.4458 28.1513 56.4675C25.7228 57.4892 22.8457 58 19.5198 58C17.0386 58 14.6365 57.6332 12.3137 56.8997C10.0173 56.1662 7.94518 55.079 6.09746 53.6382C4.27614 52.1974 2.81117 50.4553 1.70254 48.4119C0.620305 46.3424 0.0527919 43.9846 0 41.3388H11.3239C11.4822 42.963 11.9046 44.3645 12.5909 45.5434C13.3036 46.696 14.2406 47.5867 15.402 48.2154C16.5635 48.8442 17.9228 49.1585 19.4802 49.1585C20.932 49.1585 22.1726 48.8835 23.202 48.3333C24.2315 47.7832 25.0629 47.0235 25.6964 46.0542C26.3299 45.0587 26.7919 43.9061 27.0822 42.5962C27.399 41.2602 27.5574 39.8193 27.5574 38.2737C27.5574 36.7281 27.3726 35.3266 27.003 34.0691C26.6335 32.8117 26.066 31.7245 25.3005 30.8076C24.535 29.8907 23.5584 29.1834 22.3706 28.6856C21.2091 28.1879 19.8497 27.939 18.2924 27.939C16.1807 27.939 14.5442 28.2665 13.3827 28.9214C12.2477 29.5763 11.2975 30.3229 10.532 31.1612Z" fill="#B3D736"/>
<mask id="mask0_2597_60332" style="mask-type:alpha" maskUnits="userSpaceOnUse" x="56" y="38" width="168" height="26">
<rect x="56.0781" y="38.3838" width="167.379" height="24.6953" fill="#D9D9D9"/>
</mask>
<g mask="url(#mask0_2597_60332)">
<path d="M59.6795 52.3142L64.2188 43.8109H67.8202V57.3411H64.2188V48.8253L59.6795 57.3411H56.0781V43.8109H59.6795V52.3142Z" fill="black"/>
<path d="M76.1859 54.7777C76.6278 54.7777 77.0196 54.6943 77.3614 54.5276C77.7032 54.3525 77.97 54.1107 78.1617 53.8023C78.3618 53.4855 78.466 53.1145 78.4743 52.6893H81.8631C81.8548 53.6397 81.6005 54.4859 81.1003 55.2278C80.6001 55.9614 79.9291 56.5408 79.0871 56.966C78.2451 57.3828 77.303 57.5912 76.261 57.5912C75.2106 57.5912 74.2935 57.4162 73.5099 57.066C72.7346 56.7159 72.0885 56.2324 71.5716 55.6155C71.0548 54.9902 70.6671 54.265 70.4087 53.4396C70.1503 52.606 70.021 51.714 70.021 50.7636V50.401C70.021 49.4422 70.1503 48.5502 70.4087 47.7249C70.6671 46.8913 71.0548 46.166 71.5716 45.5491C72.0885 44.9238 72.7346 44.4361 73.5099 44.086C74.2852 43.7359 75.1939 43.5608 76.236 43.5608C77.3447 43.5608 78.3159 43.7734 79.1496 44.1985C79.9916 44.6237 80.6502 45.2323 81.1253 46.0243C81.6089 46.8079 81.8548 47.7374 81.8631 48.8128H78.4743C78.466 48.3627 78.3701 47.9542 78.1867 47.5874C78.0116 47.2206 77.7532 46.9288 77.4114 46.712C77.0779 46.4869 76.6653 46.3744 76.1734 46.3744C75.6482 46.3744 75.2189 46.4869 74.8854 46.712C74.552 46.9288 74.2935 47.2289 74.1101 47.6124C73.9267 47.9875 73.7975 48.4169 73.7225 48.9004C73.6558 49.3756 73.6224 49.8758 73.6224 50.401V50.7636C73.6224 51.2888 73.6558 51.7932 73.7225 52.2767C73.7892 52.7602 73.9142 53.1895 74.0976 53.5647C74.2894 53.9398 74.552 54.2358 74.8854 54.4525C75.2189 54.6693 75.6524 54.7777 76.1859 54.7777Z" fill="black"/>
<path d="M93.055 43.8109V46.637H86.5024V43.8109H93.055ZM87.5403 43.8109V57.3411H83.9389V43.8109H87.5403ZM95.681 43.8109V57.3411H92.0671V43.8109H95.681Z" fill="black"/>
<path d="M97.8819 50.7136V50.451C97.8819 49.4589 98.0236 48.5461 98.307 47.7124C98.5905 46.8704 99.0031 46.141 99.545 45.5241C100.087 44.9072 100.754 44.4278 101.546 44.086C102.338 43.7359 103.246 43.5608 104.272 43.5608C105.297 43.5608 106.21 43.7359 107.01 44.086C107.811 44.4278 108.482 44.9072 109.024 45.5241C109.574 46.141 109.991 46.8704 110.274 47.7124C110.558 48.5461 110.699 49.4589 110.699 50.451V50.7136C110.699 51.6973 110.558 52.6101 110.274 53.4521C109.991 54.2858 109.574 55.0152 109.024 55.6405C108.482 56.2574 107.815 56.7367 107.023 57.0785C106.231 57.4203 105.322 57.5912 104.297 57.5912C103.271 57.5912 102.359 57.4203 101.558 57.0785C100.766 56.7367 100.095 56.2574 99.545 55.6405C99.0031 55.0152 98.5905 54.2858 98.307 53.4521C98.0236 52.6101 97.8819 51.6973 97.8819 50.7136ZM101.483 50.451V50.7136C101.483 51.2805 101.533 51.8098 101.633 52.3017C101.733 52.7936 101.892 53.2271 102.108 53.6022C102.334 53.969 102.625 54.2566 102.984 54.465C103.342 54.6734 103.78 54.7777 104.297 54.7777C104.797 54.7777 105.226 54.6734 105.585 54.465C105.943 54.2566 106.231 53.969 106.448 53.6022C106.664 53.2271 106.823 52.7936 106.923 52.3017C107.031 51.8098 107.085 51.2805 107.085 50.7136V50.451C107.085 49.9008 107.031 49.3839 106.923 48.9004C106.823 48.4085 106.66 47.975 106.435 47.5999C106.218 47.2164 105.931 46.9163 105.572 46.6995C105.214 46.4828 104.78 46.3744 104.272 46.3744C103.763 46.3744 103.33 46.4828 102.971 46.6995C102.621 46.9163 102.334 47.2164 102.108 47.5999C101.892 47.975 101.733 48.4085 101.633 48.9004C101.533 49.3839 101.483 49.9008 101.483 50.451Z" fill="black"/>
<path d="M121.816 43.8109V46.637H115.164V43.8109H121.816ZM124.455 43.8109V57.3411H120.853V43.8109H124.455ZM114.263 43.8109H117.802L117.439 50.6385C117.389 51.6139 117.285 52.4726 117.127 53.2145C116.968 53.9565 116.756 54.5901 116.489 55.1153C116.231 55.6405 115.918 56.0698 115.551 56.4033C115.193 56.7284 114.772 56.966 114.288 57.1161C113.813 57.2661 113.288 57.3411 112.713 57.3411H111.612L111.575 54.5025L112.037 54.4525C112.304 54.4275 112.538 54.3525 112.738 54.2274C112.946 54.0941 113.121 53.9065 113.263 53.6647C113.413 53.4146 113.538 53.102 113.638 52.7269C113.738 52.3434 113.817 51.8932 113.876 51.3763C113.942 50.8595 113.988 50.2634 114.013 49.5881L114.263 43.8109Z" fill="black"/>
<path d="M129.732 47.825H133.658C134.892 47.825 135.942 48.0292 136.809 48.4377C137.685 48.8378 138.352 49.3964 138.81 50.1133C139.277 50.8303 139.511 51.6598 139.511 52.6018C139.511 53.2854 139.377 53.919 139.11 54.5025C138.852 55.0778 138.473 55.578 137.972 56.0031C137.472 56.4283 136.859 56.7576 136.134 56.991C135.409 57.2244 134.584 57.3411 133.658 57.3411H127.481V43.8109H131.095V54.5401H133.658C134.2 54.5401 134.634 54.4525 134.959 54.2775C135.292 54.0941 135.534 53.8565 135.684 53.5647C135.842 53.2729 135.922 52.9561 135.922 52.6143C135.922 52.2558 135.842 51.9307 135.684 51.6389C135.534 51.3388 135.292 51.0971 134.959 50.9137C134.634 50.7302 134.2 50.6385 133.658 50.6385H129.732V47.825Z" fill="black"/>
<path d="M147.576 50.8886H144.9V49.2755H146.813C147.264 49.2755 147.622 49.213 147.889 49.0879C148.164 48.9629 148.36 48.7878 148.476 48.5627C148.602 48.3293 148.664 48.0667 148.664 47.7749C148.664 47.5165 148.61 47.2706 148.502 47.0371C148.401 46.7954 148.218 46.5995 147.951 46.4494C147.693 46.291 147.326 46.2118 146.851 46.2118C146.459 46.2118 146.109 46.2702 145.8 46.3869C145.5 46.5036 145.263 46.6745 145.088 46.8996C144.921 47.1163 144.838 47.3789 144.838 47.6874H141.224C141.224 46.8287 141.47 46.0951 141.961 45.4865C142.453 44.8696 143.112 44.3986 143.937 44.0735C144.763 43.74 145.667 43.5733 146.651 43.5733C147.509 43.5733 148.285 43.6608 148.977 43.8359C149.669 44.0026 150.261 44.2527 150.752 44.5862C151.244 44.9197 151.619 45.3323 151.878 45.8242C152.145 46.3077 152.278 46.8704 152.278 47.5123C152.278 47.9708 152.17 48.4043 151.953 48.8128C151.736 49.2213 151.423 49.584 151.015 49.9008C150.606 50.2092 150.11 50.451 149.527 50.626C148.952 50.8011 148.301 50.8886 147.576 50.8886ZM144.9 49.9883H147.576C148.385 49.9883 149.093 50.0675 149.702 50.2259C150.319 50.3759 150.836 50.601 151.253 50.9011C151.669 51.2013 151.982 51.5722 152.19 52.0141C152.407 52.4476 152.516 52.9478 152.516 53.5147C152.516 54.1566 152.374 54.7318 152.09 55.2403C151.807 55.7405 151.403 56.1657 150.877 56.5158C150.352 56.866 149.731 57.1327 149.014 57.3161C148.297 57.4995 147.509 57.5912 146.651 57.5912C145.734 57.5912 144.842 57.4412 143.975 57.1411C143.108 56.841 142.395 56.3783 141.836 55.753C141.286 55.1278 141.011 54.3233 141.011 53.3396H144.625C144.625 53.623 144.708 53.8898 144.875 54.1399C145.042 54.39 145.292 54.5901 145.625 54.7401C145.959 54.8819 146.372 54.9527 146.863 54.9527C147.355 54.9527 147.751 54.8735 148.051 54.7151C148.351 54.5567 148.568 54.3483 148.702 54.0899C148.843 53.8231 148.914 53.548 148.914 53.2646C148.914 52.8644 148.835 52.5393 148.677 52.2892C148.527 52.0391 148.293 51.8557 147.976 51.739C147.668 51.6223 147.28 51.5639 146.813 51.5639H144.9V49.9883Z" fill="black"/>
<path d="M154.154 50.7136V50.451C154.154 49.4589 154.295 48.5461 154.579 47.7124C154.862 46.8704 155.275 46.141 155.817 45.5241C156.359 44.9072 157.026 44.4278 157.818 44.086C158.61 43.7359 159.518 43.5608 160.544 43.5608C161.569 43.5608 162.482 43.7359 163.282 44.086C164.083 44.4278 164.754 44.9072 165.296 45.5241C165.846 46.141 166.263 46.8704 166.546 47.7124C166.829 48.5461 166.971 49.4589 166.971 50.451V50.7136C166.971 51.6973 166.829 52.6101 166.546 53.4521C166.263 54.2858 165.846 55.0152 165.296 55.6405C164.754 56.2574 164.087 56.7367 163.295 57.0785C162.503 57.4203 161.594 57.5912 160.569 57.5912C159.543 57.5912 158.63 57.4203 157.83 57.0785C157.038 56.7367 156.367 56.2574 155.817 55.6405C155.275 55.0152 154.862 54.2858 154.579 53.4521C154.295 52.6101 154.154 51.6973 154.154 50.7136ZM157.755 50.451V50.7136C157.755 51.2805 157.805 51.8098 157.905 52.3017C158.005 52.7936 158.164 53.2271 158.38 53.6022C158.605 53.969 158.897 54.2566 159.256 54.465C159.614 54.6734 160.052 54.7777 160.569 54.7777C161.069 54.7777 161.498 54.6734 161.857 54.465C162.215 54.2566 162.503 53.969 162.72 53.6022C162.936 53.2271 163.095 52.7936 163.195 52.3017C163.303 51.8098 163.357 51.2805 163.357 50.7136V50.451C163.357 49.9008 163.303 49.3839 163.195 48.9004C163.095 48.4085 162.932 47.975 162.707 47.5999C162.49 47.2164 162.203 46.9163 161.844 46.6995C161.486 46.4828 161.052 46.3744 160.544 46.3744C160.035 46.3744 159.602 46.4828 159.243 46.6995C158.893 46.9163 158.605 47.2164 158.38 47.5999C158.164 47.975 158.005 48.4085 157.905 48.9004C157.805 49.3839 157.755 49.9008 157.755 50.451Z" fill="black"/>
<path d="M175.925 51.689H171.686L171.66 49.3255H175.162C175.629 49.3255 176.008 49.2797 176.3 49.188C176.592 49.0879 176.804 48.9421 176.938 48.7503C177.079 48.5502 177.15 48.3085 177.15 48.025C177.15 47.7749 177.104 47.5624 177.013 47.3873C176.929 47.2039 176.8 47.0538 176.625 46.9371C176.45 46.8204 176.229 46.737 175.962 46.687C175.704 46.6287 175.399 46.5995 175.049 46.5995H173.024V57.3411H169.422V43.8109H175.049C175.933 43.8109 176.725 43.8901 177.425 44.0485C178.126 44.1985 178.722 44.4278 179.213 44.7363C179.714 45.0447 180.093 45.4365 180.351 45.9117C180.618 46.3786 180.752 46.9329 180.752 47.5749C180.752 47.9917 180.656 48.3835 180.464 48.7503C180.281 49.1171 180.005 49.4422 179.639 49.7257C179.272 50.0091 178.817 50.2426 178.276 50.426C177.742 50.601 177.125 50.7094 176.425 50.7511L175.925 51.689ZM175.925 57.3411H170.798L172.036 54.5526H175.925C176.366 54.5526 176.729 54.4984 177.013 54.39C177.296 54.2816 177.504 54.1232 177.638 53.9148C177.78 53.6981 177.85 53.4396 177.85 53.1395C177.85 52.8477 177.788 52.5935 177.663 52.3767C177.538 52.16 177.334 51.9932 177.05 51.8765C176.775 51.7515 176.4 51.689 175.925 51.689H172.561L172.586 49.3255H176.412L177.288 50.2759C178.238 50.3343 179.022 50.5135 179.639 50.8136C180.255 51.1137 180.71 51.4972 181.002 51.9641C181.302 52.4226 181.452 52.9269 181.452 53.4771C181.452 54.1191 181.331 54.6818 181.089 55.1653C180.847 55.6488 180.489 56.0531 180.014 56.3783C179.547 56.6951 178.972 56.9368 178.288 57.1036C177.604 57.262 176.817 57.3411 175.925 57.3411Z" fill="black"/>
<path d="M190.968 54.29V48.2626C190.968 47.8291 190.897 47.4581 190.755 47.1497C190.614 46.8329 190.393 46.587 190.093 46.4119C189.801 46.2368 189.422 46.1493 188.955 46.1493C188.555 46.1493 188.209 46.2202 187.917 46.3619C187.625 46.4953 187.4 46.6912 187.242 46.9496C187.083 47.1997 187.004 47.4957 187.004 47.8375H183.403C183.403 47.2622 183.536 46.7162 183.803 46.1993C184.069 45.6825 184.457 45.2281 184.966 44.8363C185.474 44.4361 186.079 44.1235 186.779 43.8984C187.487 43.6733 188.279 43.5608 189.155 43.5608C190.205 43.5608 191.139 43.7359 191.956 44.086C192.773 44.4361 193.415 44.9613 193.882 45.6616C194.357 46.3619 194.594 47.2372 194.594 48.2876V54.0774C194.594 54.8193 194.64 55.4279 194.732 55.9031C194.824 56.3699 194.957 56.7784 195.132 57.1286V57.3411H191.493C191.318 56.9743 191.185 56.5158 191.093 55.9656C191.01 55.4071 190.968 54.8485 190.968 54.29ZM191.443 49.1005L191.468 51.1387H189.455C188.98 51.1387 188.567 51.1929 188.217 51.3013C187.867 51.4097 187.579 51.5639 187.354 51.764C187.129 51.9557 186.962 52.1808 186.854 52.4392C186.754 52.6977 186.704 52.9811 186.704 53.2896C186.704 53.598 186.775 53.8773 186.916 54.1274C187.058 54.3692 187.262 54.5609 187.529 54.7026C187.796 54.836 188.109 54.9027 188.467 54.9027C189.009 54.9027 189.48 54.7943 189.88 54.5776C190.28 54.3608 190.589 54.0941 190.805 53.7773C191.031 53.4605 191.147 53.1604 191.156 52.8769L192.106 54.4025C191.973 54.7443 191.789 55.0986 191.556 55.4654C191.331 55.8322 191.043 56.1782 190.693 56.5033C190.343 56.8201 189.922 57.0827 189.43 57.2911C188.938 57.4912 188.354 57.5912 187.679 57.5912C186.821 57.5912 186.041 57.4203 185.341 57.0785C184.649 56.7284 184.099 56.2491 183.69 55.6405C183.29 55.0236 183.09 54.3233 183.09 53.5397C183.09 52.8311 183.223 52.2017 183.49 51.6514C183.757 51.1012 184.149 50.6385 184.666 50.2634C185.191 49.8799 185.845 49.5923 186.629 49.4006C187.412 49.2005 188.321 49.1005 189.355 49.1005H191.443Z" fill="black"/>
<path d="M204.061 43.8109V57.3411H200.447V43.8109H204.061ZM208.412 43.8109V46.5995H196.158V43.8109H208.412Z" fill="black"/>
<path d="M212.739 47.825H216.665C217.899 47.825 218.95 48.0292 219.817 48.4377C220.692 48.8378 221.359 49.3964 221.817 50.1133C222.284 50.8303 222.518 51.6598 222.518 52.6018C222.518 53.2854 222.384 53.919 222.118 54.5025C221.859 55.0778 221.48 55.578 220.98 56.0031C220.479 56.4283 219.867 56.7576 219.141 56.991C218.416 57.2244 217.591 57.3411 216.665 57.3411H210.488V43.8109H214.102V54.5401H216.665C217.207 54.5401 217.641 54.4525 217.966 54.2775C218.299 54.0941 218.541 53.8565 218.691 53.5647C218.85 53.2729 218.929 52.9561 218.929 52.6143C218.929 52.2558 218.85 51.9307 218.691 51.6389C218.541 51.3388 218.299 51.0971 217.966 50.9137C217.641 50.7302 217.207 50.6385 216.665 50.6385H212.739V47.825Z" fill="black"/>
<path d="M238.011 40.7722H242.063C243.147 40.7722 244.147 40.9515 245.064 41.3099C245.981 41.6601 246.777 42.1686 247.452 42.8355C248.136 43.4941 248.665 44.2902 249.041 45.2239C249.416 46.1493 249.603 47.183 249.603 48.3251C249.603 49.4422 249.416 50.4593 249.041 51.3763C248.665 52.285 248.136 53.0645 247.452 53.7147C246.777 54.365 245.981 54.8652 245.064 55.2153C244.147 55.5655 243.147 55.7405 242.063 55.7405H238.011C236.919 55.7405 235.915 55.5655 234.998 55.2153C234.081 54.8652 233.28 54.3692 232.597 53.7272C231.913 53.077 231.38 52.2975 230.996 51.3888C230.621 50.4802 230.433 49.4673 230.433 48.3502C230.433 47.208 230.621 46.1743 230.996 45.249C231.38 44.3153 231.913 43.5149 232.597 42.848C233.28 42.1811 234.081 41.6684 234.998 41.3099C235.915 40.9515 236.919 40.7722 238.011 40.7722ZM238.011 43.7734C237.211 43.7734 236.507 43.9484 235.898 44.2986C235.289 44.6487 234.818 45.1656 234.485 45.8492C234.151 46.5244 233.985 47.3581 233.985 48.3502C233.985 49.0671 234.081 49.7007 234.272 50.2509C234.472 50.7928 234.752 51.2471 235.11 51.6139C235.469 51.9807 235.894 52.26 236.386 52.4518C236.877 52.6435 237.419 52.7394 238.011 52.7394H242.088C242.88 52.7394 243.572 52.5685 244.164 52.2267C244.764 51.8849 245.231 51.3847 245.564 50.7261C245.898 50.0675 246.064 49.2672 246.064 48.3251C246.064 47.5832 245.969 46.9288 245.777 46.3619C245.585 45.795 245.314 45.3198 244.964 44.9363C244.614 44.5529 244.193 44.2652 243.701 44.0735C243.217 43.8734 242.68 43.7734 242.088 43.7734H238.011ZM241.838 38.3838V58.0914H238.236V38.3838H241.838Z" fill="black"/>
<path d="M255.431 52.3142L259.97 43.8109H263.571V57.3411H259.97V48.8253L255.431 57.3411H251.829V43.8109H255.431V52.3142Z" fill="black"/>
<path d="M273.237 43.8109V57.3411H269.624V43.8109H273.237ZM277.589 43.8109V46.5995H265.334V43.8109H277.589Z" fill="black"/>
<path d="M278.427 50.7136V50.451C278.427 49.4589 278.569 48.5461 278.852 47.7124C279.136 46.8704 279.548 46.141 280.09 45.5241C280.632 44.9072 281.299 44.4278 282.091 44.086C282.883 43.7359 283.792 43.5608 284.817 43.5608C285.842 43.5608 286.755 43.7359 287.555 44.086C288.356 44.4278 289.027 44.9072 289.569 45.5241C290.119 46.141 290.536 46.8704 290.819 47.7124C291.103 48.5461 291.244 49.4589 291.244 50.451V50.7136C291.244 51.6973 291.103 52.6101 290.819 53.4521C290.536 54.2858 290.119 55.0152 289.569 55.6405C289.027 56.2574 288.36 56.7367 287.568 57.0785C286.776 57.4203 285.867 57.5912 284.842 57.5912C283.817 57.5912 282.904 57.4203 282.103 57.0785C281.311 56.7367 280.64 56.2574 280.09 55.6405C279.548 55.0152 279.136 54.2858 278.852 53.4521C278.569 52.6101 278.427 51.6973 278.427 50.7136ZM282.028 50.451V50.7136C282.028 51.2805 282.078 51.8098 282.178 52.3017C282.278 52.7936 282.437 53.2271 282.654 53.6022C282.879 53.969 283.17 54.2566 283.529 54.465C283.887 54.6734 284.325 54.7777 284.842 54.7777C285.342 54.7777 285.771 54.6734 286.13 54.465C286.488 54.2566 286.776 53.969 286.993 53.6022C287.21 53.2271 287.368 52.7936 287.468 52.3017C287.576 51.8098 287.631 51.2805 287.631 50.7136V50.451C287.631 49.9008 287.576 49.3839 287.468 48.9004C287.368 48.4085 287.205 47.975 286.98 47.5999C286.764 47.2164 286.476 46.9163 286.117 46.6995C285.759 46.4828 285.325 46.3744 284.817 46.3744C284.308 46.3744 283.875 46.4828 283.516 46.6995C283.166 46.9163 282.879 47.2164 282.654 47.5999C282.437 47.975 282.278 48.4085 282.178 48.9004C282.078 49.3839 282.028 49.9008 282.028 50.451Z" fill="black"/>
<path d="M301.686 53.202L305.237 43.8109H308.176L302.899 57.3411H300.473L295.221 43.8109H298.16L301.686 53.202ZM297.297 43.8109V57.3411H293.695V43.8109H297.297ZM306.163 57.3411V43.8109H309.764V57.3411H306.163Z" fill="black"/>
<path d="M316.929 55.8156L320.518 43.8109H324.382L318.943 59.3794C318.826 59.7212 318.668 60.088 318.467 60.4799C318.276 60.8717 318.013 61.2427 317.68 61.5928C317.355 61.9513 316.942 62.2431 316.442 62.4681C315.95 62.6932 315.345 62.8058 314.628 62.8058C314.287 62.8058 314.007 62.7849 313.791 62.7432C313.574 62.7016 313.315 62.6432 313.015 62.5682V59.9297C313.107 59.9297 313.203 59.9297 313.303 59.9297C313.403 59.938 313.499 59.9422 313.591 59.9422C314.066 59.9422 314.453 59.888 314.754 59.7796C315.054 59.6712 315.295 59.5045 315.479 59.2794C315.662 59.0627 315.808 58.7792 315.916 58.4291L316.929 55.8156ZM315.429 43.8109L318.367 53.6147L318.88 57.4287L316.429 57.6913L311.565 43.8109H315.429Z" fill="black"/>
<path d="M325.808 57.3411V43.8109H329.409V54.5276H333.936V43.8109H337.55V57.3411H325.808ZM339.576 54.5401L339.338 61.3552H335.987V57.3411H334.474V54.5401H339.576Z" fill="black"/>
<path d="M344.99 52.3142L349.53 43.8109H353.131V57.3411H349.53V48.8253L344.99 57.3411H341.389V43.8109H344.99V52.3142Z" fill="black"/>
<path d="M365.011 43.8109V46.637H358.358V43.8109H365.011ZM367.649 43.8109V57.3411H364.048V43.8109H367.649ZM357.458 43.8109H360.996L360.634 50.6385C360.584 51.6139 360.48 52.4726 360.321 53.2145C360.163 53.9565 359.95 54.5901 359.683 55.1153C359.425 55.6405 359.112 56.0698 358.746 56.4033C358.387 56.7284 357.966 56.966 357.483 57.1161C357.007 57.2661 356.482 57.3411 355.907 57.3411H354.807L354.769 54.5025L355.232 54.4525C355.499 54.4275 355.732 54.3525 355.932 54.2274C356.14 54.0941 356.316 53.9065 356.457 53.6647C356.607 53.4146 356.732 53.102 356.832 52.7269C356.932 52.3434 357.012 51.8932 357.07 51.3763C357.137 50.8595 357.183 50.2634 357.208 49.5881L357.458 43.8109Z" fill="black"/>
<path d="M395.56 46.5495V49.4756H386.056V46.5495H395.56ZM387.169 39.1341V57.3411H383.418V39.1341H387.169ZM398.236 39.1341V57.3411H394.497V39.1341H398.236Z" fill="black"/>
<path d="M400.699 50.7136V50.451C400.699 49.4589 400.841 48.5461 401.125 47.7124C401.408 46.8704 401.821 46.141 402.363 45.5241C402.904 44.9072 403.571 44.4278 404.363 44.086C405.155 43.7359 406.064 43.5608 407.089 43.5608C408.115 43.5608 409.028 43.7359 409.828 44.086C410.628 44.4278 411.299 44.9072 411.841 45.5241C412.391 46.141 412.808 46.8704 413.092 47.7124C413.375 48.5461 413.517 49.4589 413.517 50.451V50.7136C413.517 51.6973 413.375 52.6101 413.092 53.4521C412.808 54.2858 412.391 55.0152 411.841 55.6405C411.299 56.2574 410.632 56.7367 409.84 57.0785C409.048 57.4203 408.14 57.5912 407.114 57.5912C406.089 57.5912 405.176 57.4203 404.376 57.0785C403.584 56.7367 402.913 56.2574 402.363 55.6405C401.821 55.0152 401.408 54.2858 401.125 53.4521C400.841 52.6101 400.699 51.6973 400.699 50.7136ZM404.301 50.451V50.7136C404.301 51.2805 404.351 51.8098 404.451 52.3017C404.551 52.7936 404.709 53.2271 404.926 53.6022C405.151 53.969 405.443 54.2566 405.801 54.465C406.16 54.6734 406.598 54.7777 407.114 54.7777C407.615 54.7777 408.044 54.6734 408.402 54.465C408.761 54.2566 409.048 53.969 409.265 53.6022C409.482 53.2271 409.64 52.7936 409.74 52.3017C409.849 51.8098 409.903 51.2805 409.903 50.7136V50.451C409.903 49.9008 409.849 49.3839 409.74 48.9004C409.64 48.4085 409.478 47.975 409.253 47.5999C409.036 47.2164 408.748 46.9163 408.39 46.6995C408.031 46.4828 407.598 46.3744 407.089 46.3744C406.581 46.3744 406.147 46.4828 405.789 46.6995C405.439 46.9163 405.151 47.2164 404.926 47.5999C404.709 47.975 404.551 48.4085 404.451 48.9004C404.351 49.3839 404.301 49.9008 404.301 50.451Z" fill="black"/>
<path d="M419.332 46.4119V62.5432H415.73V43.8109H419.069L419.332 46.4119ZM427.897 50.426V50.6886C427.897 51.6723 427.781 52.5851 427.547 53.4271C427.322 54.2691 426.989 55.0027 426.547 55.628C426.105 56.2449 425.555 56.7284 424.896 57.0785C424.246 57.4203 423.496 57.5912 422.645 57.5912C421.82 57.5912 421.103 57.4245 420.495 57.0911C419.886 56.7576 419.373 56.2907 418.956 55.6905C418.548 55.0819 418.219 54.3775 417.969 53.5772C417.719 52.7769 417.527 51.9182 417.393 51.0012V50.3134C417.527 49.3297 417.719 48.4294 417.969 47.6124C418.219 46.7871 418.548 46.0743 418.956 45.474C419.373 44.8655 419.882 44.3945 420.482 44.061C421.091 43.7275 421.803 43.5608 422.62 43.5608C423.479 43.5608 424.234 43.7234 424.884 44.0485C425.542 44.3736 426.093 44.8405 426.534 45.449C426.985 46.0576 427.322 46.7829 427.547 47.6249C427.781 48.4669 427.897 49.4006 427.897 50.426ZM424.284 50.6886V50.426C424.284 49.8507 424.234 49.3214 424.134 48.8378C424.042 48.346 423.892 47.9167 423.683 47.5498C423.483 47.183 423.216 46.8996 422.883 46.6995C422.558 46.4911 422.162 46.3869 421.695 46.3869C421.203 46.3869 420.782 46.4661 420.432 46.6245C420.09 46.7829 419.811 47.0121 419.594 47.3123C419.377 47.6124 419.215 47.9708 419.107 48.3877C418.998 48.8045 418.931 49.2755 418.906 49.8007V51.5389C418.948 52.1558 419.065 52.7102 419.257 53.202C419.448 53.6856 419.744 54.069 420.144 54.3525C420.545 54.6359 421.07 54.7777 421.72 54.7777C422.195 54.7777 422.595 54.6734 422.921 54.465C423.246 54.2483 423.508 53.9523 423.708 53.5772C423.917 53.202 424.063 52.7685 424.146 52.2767C424.238 51.7848 424.284 51.2555 424.284 50.6886Z" fill="black"/>
<path d="M438.364 53.202L441.915 43.8109H444.854L439.577 57.3411H437.151L431.899 43.8109H434.838L438.364 53.202ZM433.975 43.8109V57.3411H430.373V43.8109H433.975ZM442.841 57.3411V43.8109H446.442V57.3411H442.841Z" fill="black"/>
</g>
<mask id="mask1_2597_60332" style="mask-type:alpha" maskUnits="userSpaceOnUse" x="52" y="62" width="225" height="39">
<rect x="52" y="62.5371" width="225.002" height="38.4149" fill="#D9D9D9"/>
</mask>
<g mask="url(#mask1_2597_60332)">
<path d="M-115.438 83.7849L-110.898 75.2816H-107.297V88.8119H-110.898V80.296L-115.438 88.8119H-119.039V75.2816H-115.438V83.7849Z" fill="black"/>
<path d="M-98.9313 86.2484C-98.4894 86.2484 -98.0976 86.165 -97.7558 85.9983C-97.414 85.8232 -97.1472 85.5814 -96.9555 85.273C-96.7554 84.9562 -96.6512 84.5852 -96.6429 84.16H-93.2541C-93.2624 85.1104 -93.5167 85.9566 -94.0168 86.6985C-94.517 87.4322 -95.1881 88.0115 -96.0301 88.4367C-96.8721 88.8535 -97.8142 89.0619 -98.8562 89.0619C-99.9066 89.0619 -100.824 88.8869 -101.607 88.5367C-102.383 88.1866 -103.029 87.7031 -103.546 87.0862C-104.062 86.4609 -104.45 85.7357 -104.708 84.9103C-104.967 84.0767 -105.096 83.1847 -105.096 82.2343V81.8717C-105.096 80.913 -104.967 80.0209 -104.708 79.1956C-104.45 78.362 -104.062 77.6367 -103.546 77.0198C-103.029 76.3945 -102.383 75.9068 -101.607 75.5567C-100.832 75.2066 -99.9233 75.0315 -98.8812 75.0315C-97.7725 75.0315 -96.8013 75.2441 -95.9676 75.6692C-95.1256 76.0944 -94.467 76.703 -93.9918 77.495C-93.5083 78.2786 -93.2624 79.2081 -93.2541 80.2835H-96.6429C-96.6512 79.8334 -96.7471 79.4249 -96.9305 79.0581C-97.1055 78.6913 -97.364 78.3995 -97.7058 78.1827C-98.0392 77.9576 -98.4519 77.8451 -98.9438 77.8451C-99.469 77.8451 -99.8983 77.9576 -100.232 78.1827C-100.565 78.3995 -100.824 78.6996 -101.007 79.0831C-101.19 79.4582 -101.32 79.8876 -101.395 80.3711C-101.461 80.8463 -101.495 81.3465 -101.495 81.8717V82.2343C-101.495 82.7595 -101.461 83.2639 -101.395 83.7474C-101.328 84.2309 -101.203 84.6602 -101.02 85.0354C-100.828 85.4105 -100.565 85.7065 -100.232 85.9232C-99.8983 86.14 -99.4648 86.2484 -98.9313 86.2484Z" fill="black"/>
<path d="M-82.0622 75.2816V78.1077H-88.6148V75.2816H-82.0622ZM-87.5768 75.2816V88.8119H-91.1782V75.2816H-87.5768ZM-79.4362 75.2816V88.8119H-83.0501V75.2816H-79.4362Z" fill="black"/>
<path d="M-77.2353 82.1843V81.9217C-77.2353 80.9296 -77.0936 80.0168 -76.8102 79.1831C-76.5267 78.3411 -76.1141 77.6117 -75.5722 76.9948C-75.0303 76.3779 -74.3634 75.8985 -73.5714 75.5567C-72.7794 75.2066 -71.8708 75.0315 -70.8454 75.0315C-69.82 75.0315 -68.9071 75.2066 -68.1068 75.5567C-67.3065 75.8985 -66.6354 76.3779 -66.0935 76.9948C-65.5433 77.6117 -65.1265 78.3411 -64.843 79.1831C-64.5596 80.0168 -64.4179 80.9296 -64.4179 81.9217V82.1843C-64.4179 83.168 -64.5596 84.0808 -64.843 84.9228C-65.1265 85.7565 -65.5433 86.4859 -66.0935 87.1112C-66.6354 87.7281 -67.3023 88.2075 -68.0943 88.5493C-68.8863 88.8911 -69.7949 89.0619 -70.8203 89.0619C-71.8457 89.0619 -72.7586 88.8911 -73.5589 88.5493C-74.3509 88.2075 -75.022 87.7281 -75.5722 87.1112C-76.1141 86.4859 -76.5267 85.7565 -76.8102 84.9228C-77.0936 84.0808 -77.2353 83.168 -77.2353 82.1843ZM-73.6339 81.9217V82.1843C-73.6339 82.7512 -73.5839 83.2805 -73.4839 83.7724C-73.3838 84.2643 -73.2254 84.6978 -73.0087 85.0729C-72.7836 85.4397 -72.4918 85.7273 -72.1334 85.9357C-71.7749 86.1442 -71.3372 86.2484 -70.8203 86.2484C-70.3201 86.2484 -69.8908 86.1442 -69.5323 85.9357C-69.1739 85.7273 -68.8863 85.4397 -68.6695 85.0729C-68.4528 84.6978 -68.2944 84.2643 -68.1943 83.7724C-68.0859 83.2805 -68.0318 82.7512 -68.0318 82.1843V81.9217C-68.0318 81.3715 -68.0859 80.8546 -68.1943 80.3711C-68.2944 79.8792 -68.4569 79.4457 -68.682 79.0706C-68.8988 78.6871 -69.1864 78.387 -69.5448 78.1702C-69.9033 77.9535 -70.3368 77.8451 -70.8454 77.8451C-71.3539 77.8451 -71.7874 77.9535 -72.1459 78.1702C-72.496 78.387 -72.7836 78.6871 -73.0087 79.0706C-73.2254 79.4457 -73.3838 79.8792 -73.4839 80.3711C-73.5839 80.8546 -73.6339 81.3715 -73.6339 81.9217Z" fill="black"/>
<path d="M-53.301 75.2816V78.1077H-59.9536V75.2816H-53.301ZM-50.6625 75.2816V88.8119H-54.2639V75.2816H-50.6625ZM-60.854 75.2816H-57.3151L-57.6777 82.1093C-57.7278 83.0846 -57.832 83.9433 -57.9904 84.6853C-58.1488 85.4272 -58.3613 86.0608 -58.6281 86.586C-58.8865 87.1112 -59.1992 87.5405 -59.566 87.874C-59.9244 88.1991 -60.3454 88.4367 -60.829 88.5868C-61.3041 88.7368 -61.8294 88.8119 -62.4046 88.8119H-63.505L-63.5425 85.9733L-63.0798 85.9232C-62.8131 85.8982 -62.5796 85.8232 -62.3796 85.6981C-62.1712 85.5648 -61.9961 85.3772 -61.8544 85.1354C-61.7043 84.8853 -61.5793 84.5727 -61.4792 84.1976C-61.3792 83.8141 -61.3 83.3639 -61.2416 82.847C-61.1749 82.3302 -61.1291 81.7341 -61.1041 81.0588L-60.854 75.2816Z" fill="black"/>
<path d="M-45.3855 79.2957H-41.4589C-40.2251 79.2957 -39.1747 79.4999 -38.3077 79.9084C-37.4324 80.3086 -36.7655 80.8671 -36.3069 81.584C-35.8401 82.301 -35.6067 83.1305 -35.6067 84.0725C-35.6067 84.7561 -35.7401 85.3897 -36.0068 85.9733C-36.2653 86.5485 -36.6446 87.0487 -37.1448 87.4738C-37.645 87.899 -38.2577 88.2283 -38.983 88.4617C-39.7083 88.6951 -40.5336 88.8119 -41.4589 88.8119H-47.6363V75.2816H-44.0224V86.0108H-41.4589C-40.9171 86.0108 -40.4836 85.9232 -40.1584 85.7482C-39.825 85.5648 -39.5832 85.3272 -39.4332 85.0354C-39.2748 84.7436 -39.1956 84.4268 -39.1956 84.085C-39.1956 83.7265 -39.2748 83.4014 -39.4332 83.1096C-39.5832 82.8095 -39.825 82.5678 -40.1584 82.3844C-40.4836 82.201 -40.9171 82.1093 -41.4589 82.1093H-45.3855V79.2957Z" fill="black"/>
<path d="M-27.541 82.3593H-30.2171V80.7462H-28.3038C-27.8537 80.7462 -27.4952 80.6837 -27.2284 80.5586C-26.9533 80.4336 -26.7574 80.2585 -26.6407 80.0334C-26.5156 79.8 -26.4531 79.5374 -26.4531 79.2456C-26.4531 78.9872 -26.5073 78.7413 -26.6157 78.5079C-26.7157 78.2661 -26.8991 78.0702 -27.1659 77.9201C-27.4243 77.7617 -27.7911 77.6825 -28.2663 77.6825C-28.6581 77.6825 -29.0083 77.7409 -29.3167 77.8576C-29.6168 77.9743 -29.8544 78.1452 -30.0295 78.3703C-30.1962 78.587 -30.2796 78.8497 -30.2796 79.1581H-33.8935C-33.8935 78.2994 -33.6476 77.5658 -33.1557 76.9572C-32.6639 76.3403 -32.0053 75.8693 -31.18 75.5442C-30.3546 75.2107 -29.4501 75.044 -28.4664 75.044C-27.6077 75.044 -26.8324 75.1315 -26.1405 75.3066C-25.4486 75.4733 -24.8567 75.7234 -24.3648 76.0569C-23.873 76.3904 -23.4978 76.803 -23.2394 77.2949C-22.9726 77.7784 -22.8392 78.3411 -22.8392 78.983C-22.8392 79.4415 -22.9476 79.875 -23.1643 80.2835C-23.3811 80.692 -23.6937 81.0547 -24.1022 81.3715C-24.5107 81.6799 -25.0067 81.9217 -25.5903 82.0967C-26.1655 82.2718 -26.8158 82.3593 -27.541 82.3593ZM-30.2171 81.459H-27.541C-26.7324 81.459 -26.0238 81.5382 -25.4152 81.6966C-24.7983 81.8466 -24.2814 82.0717 -23.8646 82.3719C-23.4478 82.672 -23.1352 83.0429 -22.9268 83.4848C-22.71 83.9183 -22.6016 84.4185 -22.6016 84.9854C-22.6016 85.6273 -22.7433 86.2025 -23.0268 86.711C-23.3102 87.2112 -23.7146 87.6364 -24.2398 87.9865C-24.765 88.3367 -25.386 88.6034 -26.103 88.7868C-26.8199 88.9702 -27.6077 89.0619 -28.4664 89.0619C-29.3834 89.0619 -30.2754 88.9119 -31.1424 88.6118C-32.0094 88.3117 -32.7222 87.849 -33.2808 87.2237C-33.831 86.5985 -34.1061 85.794 -34.1061 84.8103H-30.4922C-30.4922 85.0937 -30.4088 85.3605 -30.2421 85.6106C-30.0754 85.8607 -29.8253 86.0608 -29.4918 86.2108C-29.1583 86.3526 -28.7457 86.4234 -28.2538 86.4234C-27.762 86.4234 -27.366 86.3442 -27.0659 86.1858C-26.7657 86.0274 -26.549 85.819 -26.4156 85.5606C-26.2739 85.2938 -26.203 85.0187 -26.203 84.7353C-26.203 84.3351 -26.2822 84.01 -26.4406 83.7599C-26.5907 83.5098 -26.8241 83.3264 -27.1409 83.2097C-27.4493 83.093 -27.837 83.0346 -28.3038 83.0346H-30.2171V81.459Z" fill="black"/>
<path d="M-20.9635 82.1843V81.9217C-20.9635 80.9296 -20.8218 80.0168 -20.5383 79.1831C-20.2549 78.3411 -19.8422 77.6117 -19.3003 76.9948C-18.7585 76.3779 -18.0915 75.8985 -17.2996 75.5567C-16.5076 75.2066 -15.5989 75.0315 -14.5735 75.0315C-13.5481 75.0315 -12.6353 75.2066 -11.8349 75.5567C-11.0346 75.8985 -10.3635 76.3779 -9.82166 76.9948C-9.27145 77.6117 -8.85462 78.3411 -8.57118 79.1831C-8.28773 80.0168 -8.14601 80.9296 -8.14601 81.9217V82.1843C-8.14601 83.168 -8.28773 84.0808 -8.57118 84.9228C-8.85462 85.7565 -9.27145 86.4859 -9.82166 87.1112C-10.3635 87.7281 -11.0305 88.2075 -11.8224 88.5493C-12.6144 88.8911 -13.5231 89.0619 -14.5485 89.0619C-15.5739 89.0619 -16.4868 88.8911 -17.2871 88.5493C-18.079 88.2075 -18.7501 87.7281 -19.3003 87.1112C-19.8422 86.4859 -20.2549 85.7565 -20.5383 84.9228C-20.8218 84.0808 -20.9635 83.168 -20.9635 82.1843ZM-17.3621 81.9217V82.1843C-17.3621 82.7512 -17.3121 83.2805 -17.212 83.7724C-17.112 84.2643 -16.9536 84.6978 -16.7368 85.0729C-16.5118 85.4397 -16.22 85.7273 -15.8615 85.9357C-15.503 86.1442 -15.0654 86.2484 -14.5485 86.2484C-14.0483 86.2484 -13.619 86.1442 -13.2605 85.9357C-12.902 85.7273 -12.6144 85.4397 -12.3977 85.0729C-12.1809 84.6978 -12.0225 84.2643 -11.9225 83.7724C-11.8141 83.2805 -11.7599 82.7512 -11.7599 82.1843V81.9217C-11.7599 81.3715 -11.8141 80.8546 -11.9225 80.3711C-12.0225 79.8792 -12.1851 79.4457 -12.4102 79.0706C-12.6269 78.6871 -12.9145 78.387 -13.273 78.1702C-13.6315 77.9535 -14.065 77.8451 -14.5735 77.8451C-15.082 77.8451 -15.5155 77.9535 -15.874 78.1702C-16.2241 78.387 -16.5118 78.6871 -16.7368 79.0706C-16.9536 79.4457 -17.112 79.8792 -17.212 80.3711C-17.3121 80.8546 -17.3621 81.3715 -17.3621 81.9217Z" fill="black"/>
<path d="M0.807463 83.1597H-3.43168L-3.45669 80.7962H0.0446666C0.511515 80.7962 0.890828 80.7504 1.18261 80.6587C1.47439 80.5586 1.68697 80.4128 1.82036 80.221C1.96208 80.0209 2.03294 79.7792 2.03294 79.4957C2.03294 79.2456 1.98709 79.0331 1.89539 78.858C1.81202 78.6746 1.6828 78.5245 1.50773 78.4078C1.33267 78.2911 1.11175 78.2077 0.844977 78.1577C0.586544 78.0994 0.282259 78.0702 -0.0678771 78.0702H-2.09366V88.8119H-5.69506V75.2816H-0.0678771C0.815799 75.2816 1.60777 75.3608 2.30805 75.5192C3.00832 75.6692 3.60438 75.8985 4.09624 76.207C4.59643 76.5154 4.97575 76.9072 5.23418 77.3824C5.50095 77.8493 5.63434 78.4036 5.63434 79.0456C5.63434 79.4624 5.53847 79.8542 5.34672 80.221C5.16332 80.5878 4.88821 80.913 4.5214 81.1964C4.1546 81.4798 3.70025 81.7133 3.15838 81.8967C2.62483 82.0717 2.00793 82.1801 1.30766 82.2218L0.807463 83.1597ZM0.807463 88.8119H-4.31953L-3.08155 86.0233H0.807463C1.2493 86.0233 1.61194 85.9691 1.89539 85.8607C2.17883 85.7523 2.38724 85.5939 2.52063 85.3855C2.66235 85.1688 2.73321 84.9103 2.73321 84.6102C2.73321 84.3184 2.67069 84.0642 2.54564 83.8474C2.42059 83.6307 2.21634 83.4639 1.9329 83.3472C1.65779 83.2222 1.28265 83.1597 0.807463 83.1597H-2.55634L-2.53133 80.7962H1.29515L2.17049 81.7466C3.12086 81.805 3.9045 81.9842 4.5214 82.2843C5.13831 82.5844 5.59265 82.9679 5.88443 83.4348C6.18455 83.8933 6.33461 84.3976 6.33461 84.9479C6.33461 85.5898 6.21373 86.1525 5.97197 86.636C5.73021 87.1195 5.37173 87.5239 4.89655 87.849C4.4297 88.1658 3.85448 88.4075 3.17088 88.5743C2.48728 88.7327 1.69948 88.8119 0.807463 88.8119Z" fill="black"/>
<path d="M15.8508 85.7607V79.7333C15.8508 79.2998 15.7799 78.9288 15.6382 78.6204C15.4965 78.3036 15.2756 78.0577 14.9755 77.8826C14.6837 77.7075 14.3044 77.62 13.8375 77.62C13.4374 77.62 13.0914 77.6909 12.7996 77.8326C12.5078 77.966 12.2828 78.1619 12.1244 78.4203C11.966 78.6704 11.8868 78.9664 11.8868 79.3082H8.28537C8.28537 78.7329 8.41875 78.1869 8.68552 77.67C8.95229 77.1532 9.33994 76.6988 9.84847 76.307C10.357 75.9068 10.9614 75.5942 11.6617 75.3691C12.3703 75.144 13.1623 75.0315 14.0376 75.0315C15.088 75.0315 16.0217 75.2066 16.8387 75.5567C17.6557 75.9068 18.2976 76.432 18.7644 77.1323C19.2396 77.8326 19.4772 78.7079 19.4772 79.7583V85.5481C19.4772 86.29 19.5231 86.8986 19.6148 87.3738C19.7065 87.8406 19.8399 88.2491 20.0149 88.5993V88.8119H16.376C16.2009 88.445 16.0676 87.9865 15.9759 87.4363C15.8925 86.8778 15.8508 86.3192 15.8508 85.7607ZM16.326 80.5712L16.351 82.6094H14.3377C13.8625 82.6094 13.4499 82.6636 13.0997 82.772C12.7496 82.8804 12.462 83.0346 12.2369 83.2347C12.0118 83.4264 11.8451 83.6515 11.7367 83.9099C11.6367 84.1684 11.5866 84.4518 11.5866 84.7603C11.5866 85.0687 11.6575 85.348 11.7992 85.5981C11.941 85.8399 12.1452 86.0316 12.412 86.1733C12.6787 86.3067 12.9914 86.3734 13.3498 86.3734C13.8917 86.3734 14.3627 86.265 14.7629 86.0483C15.163 85.8315 15.4715 85.5648 15.6882 85.248C15.9133 84.9312 16.03 84.6311 16.0384 84.3476L16.9887 85.8732C16.8554 86.215 16.672 86.5693 16.4385 86.9361C16.2134 87.3029 15.9258 87.6489 15.5757 87.974C15.2256 88.2908 14.8046 88.5534 14.3127 88.7618C13.8208 88.9619 13.2373 89.0619 12.562 89.0619C11.7034 89.0619 10.9239 88.8911 10.2236 88.5493C9.53168 88.1991 8.98147 87.7198 8.57298 87.1112C8.17282 86.4943 7.97274 85.794 7.97274 85.0104C7.97274 84.3018 8.10613 83.6724 8.3729 83.1221C8.63967 82.5719 9.03149 82.1093 9.54836 81.7341C10.0736 81.3506 10.728 81.063 11.5116 80.8713C12.2953 80.6712 13.2039 80.5712 14.2377 80.5712H16.326Z" fill="black"/>
<path d="M28.9434 75.2816V88.8119H25.3295V75.2816H28.9434ZM33.2951 75.2816V78.0702H21.0403V75.2816H33.2951Z" fill="black"/>
<path d="M37.6218 79.2957H41.5483C42.7821 79.2957 43.8325 79.4999 44.6995 79.9084C45.5748 80.3086 46.2418 80.8671 46.7003 81.584C47.1671 82.301 47.4006 83.1305 47.4006 84.0725C47.4006 84.7561 47.2672 85.3897 47.0004 85.9733C46.742 86.5485 46.3626 87.0487 45.8625 87.4738C45.3623 87.899 44.7495 88.2283 44.0242 88.4617C43.299 88.6951 42.4736 88.8119 41.5483 88.8119H35.3709V75.2816H38.9848V86.0108H41.5483C42.0902 86.0108 42.5237 85.9232 42.8488 85.7482C43.1822 85.5648 43.424 85.3272 43.5741 85.0354C43.7325 84.7436 43.8117 84.4268 43.8117 84.085C43.8117 83.7265 43.7325 83.4014 43.5741 83.1096C43.424 82.8095 43.1822 82.5678 42.8488 82.3844C42.5237 82.201 42.0902 82.1093 41.5483 82.1093H37.6218V79.2957Z" fill="black"/>
<path d="M62.8941 72.2429H66.9456C68.0294 72.2429 69.0298 72.4222 69.9468 72.7806C70.8638 73.1308 71.66 73.6393 72.3352 74.3062C73.0188 74.9648 73.5482 75.761 73.9233 76.6946C74.2985 77.62 74.4861 78.6537 74.4861 79.7959C74.4861 80.913 74.2985 81.93 73.9233 82.847C73.5482 83.7557 73.0188 84.5352 72.3352 85.1854C71.66 85.8357 70.8638 86.3359 69.9468 86.686C69.0298 87.0362 68.0294 87.2112 66.9456 87.2112H62.8941C61.802 87.2112 60.7974 87.0362 59.8804 86.686C58.9634 86.3359 58.1631 85.8399 57.4795 85.1979C56.7959 84.5477 56.2623 83.7682 55.8788 82.8595C55.5037 81.9509 55.3161 80.938 55.3161 79.8209C55.3161 78.6788 55.5037 77.645 55.8788 76.7197C56.2623 75.786 56.7959 74.9857 57.4795 74.3187C58.1631 73.6518 58.9634 73.1391 59.8804 72.7806C60.7974 72.4222 61.802 72.2429 62.8941 72.2429ZM62.8941 75.2441C62.0938 75.2441 61.3893 75.4192 60.7807 75.7693C60.1722 76.1194 59.7012 76.6363 59.3677 77.3199C59.0342 77.9952 58.8675 78.8288 58.8675 79.8209C58.8675 80.5378 58.9634 81.1714 59.1551 81.7216C59.3552 82.2635 59.6345 82.7178 59.9929 83.0846C60.3514 83.4514 60.7766 83.7307 61.2684 83.9225C61.7603 84.1142 62.3022 84.2101 62.8941 84.2101H66.9706C67.7626 84.2101 68.4546 84.0392 69.0465 83.6974C69.6467 83.3556 70.1135 82.8554 70.447 82.1968C70.7805 81.5382 70.9472 80.7379 70.9472 79.7959C70.9472 79.0539 70.8513 78.3995 70.6596 77.8326C70.4678 77.2657 70.1969 76.7905 69.8468 76.407C69.4966 76.0236 69.0756 75.7359 68.5838 75.5442C68.1003 75.3441 67.5625 75.2441 66.9706 75.2441H62.8941ZM66.7206 69.8545V89.5621H63.1192V69.8545H66.7206Z" fill="black"/>
<path d="M80.3133 83.7849L84.8526 75.2816H88.454V88.8119H84.8526V80.296L80.3133 88.8119H76.7119V75.2816H80.3133V83.7849Z" fill="black"/>
<path d="M98.1202 75.2816V88.8119H94.5063V75.2816H98.1202ZM102.472 75.2816V78.0702H90.2172V75.2816H102.472Z" fill="black"/>
<path d="M103.31 82.1843V81.9217C103.31 80.9296 103.451 80.0168 103.735 79.1831C104.018 78.3411 104.431 77.6117 104.973 76.9948C105.515 76.3779 106.182 75.8985 106.974 75.5567C107.766 75.2066 108.674 75.0315 109.7 75.0315C110.725 75.0315 111.638 75.2066 112.438 75.5567C113.239 75.8985 113.91 76.3779 114.452 76.9948C115.002 77.6117 115.419 78.3411 115.702 79.1831C115.986 80.0168 116.127 80.9296 116.127 81.9217V82.1843C116.127 83.168 115.986 84.0808 115.702 84.9228C115.419 85.7565 115.002 86.4859 114.452 87.1112C113.91 87.7281 113.243 88.2075 112.451 88.5493C111.659 88.8911 110.75 89.0619 109.725 89.0619C108.699 89.0619 107.786 88.8911 106.986 88.5493C106.194 88.2075 105.523 87.7281 104.973 87.1112C104.431 86.4859 104.018 85.7565 103.735 84.9228C103.451 84.0808 103.31 83.168 103.31 82.1843ZM106.911 81.9217V82.1843C106.911 82.7512 106.961 83.2805 107.061 83.7724C107.161 84.2643 107.32 84.6978 107.536 85.0729C107.761 85.4397 108.053 85.7273 108.412 85.9357C108.77 86.1442 109.208 86.2484 109.725 86.2484C110.225 86.2484 110.654 86.1442 111.013 85.9357C111.371 85.7273 111.659 85.4397 111.876 85.0729C112.092 84.6978 112.251 84.2643 112.351 83.7724C112.459 83.2805 112.513 82.7512 112.513 82.1843V81.9217C112.513 81.3715 112.459 80.8546 112.351 80.3711C112.251 79.8792 112.088 79.4457 111.863 79.0706C111.646 78.6871 111.359 78.387 111 78.1702C110.642 77.9535 110.208 77.8451 109.7 77.8451C109.191 77.8451 108.758 77.9535 108.399 78.1702C108.049 78.387 107.761 78.6871 107.536 79.0706C107.32 79.4457 107.161 79.8792 107.061 80.3711C106.961 80.8546 106.911 81.3715 106.911 81.9217Z" fill="black"/>
<path d="M126.569 84.6727L130.12 75.2816H133.059L127.782 88.8119H125.356L120.104 75.2816H123.042L126.569 84.6727ZM122.18 75.2816V88.8119H118.578V75.2816H122.18ZM131.046 88.8119V75.2816H134.647V88.8119H131.046Z" fill="black"/>
<path d="M141.812 87.2863L145.401 75.2816H149.265L143.825 90.8501C143.709 91.1919 143.55 91.5588 143.35 91.9506C143.159 92.3424 142.896 92.7134 142.562 93.0635C142.237 93.422 141.825 93.7138 141.325 93.9388C140.833 94.1639 140.228 94.2765 139.511 94.2765C139.17 94.2765 138.89 94.2556 138.673 94.214C138.457 94.1723 138.198 94.1139 137.898 94.0389V91.4004C137.99 91.4004 138.086 91.4004 138.186 91.4004C138.286 91.4087 138.382 91.4129 138.473 91.4129C138.949 91.4129 139.336 91.3587 139.636 91.2503C139.936 91.1419 140.178 90.9752 140.362 90.7501C140.545 90.5334 140.691 90.2499 140.799 89.8998L141.812 87.2863ZM140.312 75.2816L143.25 85.0854L143.763 88.8994L141.312 89.162L136.448 75.2816H140.312Z" fill="black"/>
<path d="M150.691 88.8119V75.2816H154.292V85.9983H158.819V75.2816H162.433V88.8119H150.691ZM164.458 86.0108L164.221 92.8259H160.87V88.8119H159.357V86.0108H164.458Z" fill="black"/>
<path d="M169.873 83.7849L174.412 75.2816H178.014V88.8119H174.412V80.296L169.873 88.8119H166.272V75.2816H169.873V83.7849Z" fill="black"/>
<path d="M189.893 75.2816V78.1077H183.241V75.2816H189.893ZM192.532 75.2816V88.8119H188.93V75.2816H192.532ZM182.34 75.2816H185.879L185.517 82.1093C185.467 83.0846 185.362 83.9433 185.204 84.6853C185.046 85.4272 184.833 86.0608 184.566 86.586C184.308 87.1112 183.995 87.5405 183.628 87.874C183.27 88.1991 182.849 88.4367 182.365 88.5868C181.89 88.7368 181.365 88.8119 180.79 88.8119H179.689L179.652 85.9733L180.115 85.9232C180.381 85.8982 180.615 85.8232 180.815 85.6981C181.023 85.5648 181.198 85.3772 181.34 85.1354C181.49 84.8853 181.615 84.5727 181.715 84.1976C181.815 83.8141 181.894 83.3639 181.953 82.847C182.019 82.3302 182.065 81.7341 182.09 81.0588L182.34 75.2816Z" fill="black"/>
<path d="M220.443 78.0202V80.9463H210.939V78.0202H220.443ZM212.052 70.6048V88.8119H208.301V70.6048H212.052ZM223.119 70.6048V88.8119H219.38V70.6048H223.119Z" fill="black"/>
<path d="M225.582 82.1843V81.9217C225.582 80.9296 225.724 80.0168 226.007 79.1831C226.291 78.3411 226.703 77.6117 227.245 76.9948C227.787 76.3779 228.454 75.8985 229.246 75.5567C230.038 75.2066 230.947 75.0315 231.972 75.0315C232.998 75.0315 233.91 75.2066 234.711 75.5567C235.511 75.8985 236.182 76.3779 236.724 76.9948C237.274 77.6117 237.691 78.3411 237.975 79.1831C238.258 80.0168 238.4 80.9296 238.4 81.9217V82.1843C238.4 83.168 238.258 84.0808 237.975 84.9228C237.691 85.7565 237.274 86.4859 236.724 87.1112C236.182 87.7281 235.515 88.2075 234.723 88.5493C233.931 88.8911 233.023 89.0619 231.997 89.0619C230.972 89.0619 230.059 88.8911 229.259 88.5493C228.467 88.2075 227.796 87.7281 227.245 87.1112C226.703 86.4859 226.291 85.7565 226.007 84.9228C225.724 84.0808 225.582 83.168 225.582 82.1843ZM229.184 81.9217V82.1843C229.184 82.7512 229.234 83.2805 229.334 83.7724C229.434 84.2643 229.592 84.6978 229.809 85.0729C230.034 85.4397 230.326 85.7273 230.684 85.9357C231.043 86.1442 231.48 86.2484 231.997 86.2484C232.497 86.2484 232.927 86.1442 233.285 85.9357C233.644 85.7273 233.931 85.4397 234.148 85.0729C234.365 84.6978 234.523 84.2643 234.623 83.7724C234.732 83.2805 234.786 82.7512 234.786 82.1843V81.9217C234.786 81.3715 234.732 80.8546 234.623 80.3711C234.523 79.8792 234.361 79.4457 234.136 79.0706C233.919 78.6871 233.631 78.387 233.273 78.1702C232.914 77.9535 232.481 77.8451 231.972 77.8451C231.464 77.8451 231.03 77.9535 230.672 78.1702C230.322 78.387 230.034 78.6871 229.809 79.0706C229.592 79.4457 229.434 79.8792 229.334 80.3711C229.234 80.8546 229.184 81.3715 229.184 81.9217Z" fill="black"/>
<path d="M244.214 77.8826V94.0139H240.613V75.2816H243.952L244.214 77.8826ZM252.78 81.8967V82.1593C252.78 83.143 252.664 84.0558 252.43 84.8978C252.205 85.7398 251.872 86.4734 251.43 87.0987C250.988 87.7156 250.438 88.1991 249.779 88.5493C249.129 88.8911 248.379 89.0619 247.528 89.0619C246.703 89.0619 245.986 88.8952 245.377 88.5618C244.769 88.2283 244.256 87.7614 243.839 87.1612C243.431 86.5526 243.102 85.8482 242.851 85.0479C242.601 84.2476 242.41 83.3889 242.276 82.4719V81.7841C242.41 80.8004 242.601 79.9001 242.851 79.0831C243.102 78.2578 243.431 77.545 243.839 76.9447C244.256 76.3362 244.765 75.8652 245.365 75.5317C245.973 75.1982 246.686 75.0315 247.503 75.0315C248.362 75.0315 249.116 75.1941 249.767 75.5192C250.425 75.8443 250.975 76.3112 251.417 76.9197C251.867 77.5283 252.205 78.2536 252.43 79.0956C252.664 79.9376 252.78 80.8713 252.78 81.8967ZM249.166 82.1593V81.8967C249.166 81.3214 249.116 80.7921 249.016 80.3086C248.925 79.8167 248.775 79.3874 248.566 79.0206C248.366 78.6537 248.099 78.3703 247.766 78.1702C247.441 77.9618 247.045 77.8576 246.578 77.8576C246.086 77.8576 245.665 77.9368 245.315 78.0952C244.973 78.2536 244.694 78.4828 244.477 78.783C244.26 79.0831 244.098 79.4415 243.989 79.8584C243.881 80.2752 243.814 80.7462 243.789 81.2714V83.0096C243.831 83.6265 243.948 84.1809 244.139 84.6727C244.331 85.1563 244.627 85.5397 245.027 85.8232C245.427 86.1066 245.953 86.2484 246.603 86.2484C247.078 86.2484 247.478 86.1442 247.803 85.9357C248.128 85.719 248.391 85.423 248.591 85.0479C248.8 84.6727 248.945 84.2392 249.029 83.7474C249.121 83.2555 249.166 82.7262 249.166 82.1593Z" fill="black"/>
<path d="M263.247 84.6727L266.798 75.2816H269.737L264.46 88.8119H262.034L256.782 75.2816H259.72L263.247 84.6727ZM258.858 75.2816V88.8119H255.256V75.2816H258.858ZM267.724 88.8119V75.2816H271.325V88.8119H267.724Z" fill="black"/>
</g>
</svg>
