<svg width="102" height="102" viewBox="0 0 102 102" fill="none" xmlns="http://www.w3.org/2000/svg">
<path d="M81.792 1.15625H20.2065C9.68512 1.15625 1.15588 9.68549 1.15588 20.2068V81.7924C1.15588 92.3137 9.68512 100.843 20.2065 100.843H81.792C92.3134 100.843 100.843 92.3137 100.843 81.7924V20.2068C100.843 9.68549 92.3134 1.15625 81.792 1.15625Z" fill="white"/>
<path d="M81.7928 102H20.2072C9.06037 102 0 92.9396 0 81.7928V20.2072C0 9.06037 9.06037 0 20.2072 0H81.7928C92.9396 0 102 9.06037 102 20.2072V81.7928C102 92.9396 92.9396 102 81.7928 102V102ZM20.2072 2.31329C10.3417 2.31329 2.31329 10.3417 2.31329 20.2072V81.7928C2.31329 91.6583 10.3417 99.6867 20.2072 99.6867H81.7928C91.6583 99.6867 99.6867 91.6583 99.6867 81.7928V20.2072C99.6867 10.3417 91.6583 2.31329 81.7928 2.31329H20.2072V2.31329Z" fill="#ED1C24"/>
<path d="M29.9366 69.4975C30.2427 69.6222 30.5489 69.8263 30.8551 70.0985L30.2994 70.7448C30.0726 70.552 29.8572 70.4046 29.6304 70.3139C29.4036 70.2232 29.1655 70.1778 28.9047 70.1778C28.3037 70.1778 27.8274 70.4387 27.4645 70.9489C27.1017 71.4592 26.9316 72.287 26.9316 73.4323C26.9316 74.5776 27.113 75.36 27.4645 75.893C27.8161 76.426 28.3037 76.6868 28.9047 76.6868C29.2108 76.6868 29.4603 76.6301 29.6758 76.528C29.8912 76.426 30.1293 76.2672 30.3788 76.0518L30.9231 76.6868C30.3448 77.2765 29.6531 77.5826 28.8366 77.5826C28.247 77.5826 27.714 77.4239 27.2604 77.1177C26.7955 76.8115 26.444 76.3466 26.1832 75.7229C25.9223 75.0992 25.7976 74.3395 25.7976 73.4323C25.7976 72.5251 25.9337 71.7767 26.1945 71.1644C26.4553 70.552 26.8182 70.0871 27.2831 69.7696C27.7367 69.4634 28.2583 69.3047 28.8366 69.3047C29.2562 69.3047 29.6191 69.3727 29.9252 69.4975H29.9366Z" fill="#231F20"/>
<path d="M36.7181 76.5932V79.1673H35.9584L35.7996 77.421H32.2617L32.1029 79.1673H31.3431V76.5932H31.7173C31.8761 76.4572 32.0122 76.3211 32.1029 76.1623C32.1936 76.0036 32.2843 75.7428 32.3524 75.3686C32.4204 74.9944 32.4884 74.4727 32.5338 73.781L32.6926 71.3203H36.1738V76.5932H36.7181V76.5932ZM35.1533 72.1141H33.5997L33.509 73.679C33.475 74.3253 33.407 74.8356 33.3389 75.2098C33.2595 75.584 33.1575 75.8675 33.0441 76.0716C32.9193 76.2757 32.7606 76.4458 32.5678 76.6046H35.1646V72.1254L35.1533 72.1141Z" fill="#231F20"/>
<path d="M42.5467 74.736H38.9974C39.0315 75.4504 39.1675 75.9607 39.4283 76.2669C39.6778 76.5844 40.0293 76.7318 40.4716 76.7318C40.7551 76.7318 40.9932 76.6865 41.22 76.6071C41.4355 76.5277 41.6736 76.3803 41.9117 76.1875L42.3766 76.7999C41.8097 77.3101 41.152 77.5596 40.4262 77.5596C39.6325 77.5596 39.0201 77.2875 38.5779 76.7318C38.147 76.1762 37.9202 75.4051 37.9202 74.4072C37.9202 73.4093 38.1243 72.6155 38.5438 72.0372C38.9634 71.4589 39.5417 71.1641 40.2788 71.1641C41.0159 71.1641 41.5715 71.4249 41.9684 71.9465C42.3653 72.4681 42.5581 73.2165 42.5581 74.1804C42.5581 74.3392 42.5581 74.5206 42.5354 74.7247L42.5467 74.736ZM41.5602 73.8742C41.5602 72.6042 41.1406 71.9578 40.3015 71.9578C39.9159 71.9578 39.6098 72.1166 39.383 72.4341C39.1562 72.7516 39.0315 73.2732 38.9974 73.9876H41.5602V73.8629V73.8742Z" fill="#231F20"/>
<path d="M48.216 71.3317V77.421H47.1727V72.1481H45.5058L45.3471 74.382C45.2904 75.1871 45.211 75.7768 45.1203 76.1623C45.0295 76.5479 44.8935 76.8314 44.7007 77.0355C44.5079 77.2283 44.2018 77.4097 43.7822 77.5458L43.5327 76.7407C43.7482 76.6499 43.9069 76.5252 44.009 76.3891C44.111 76.2417 44.1791 76.0263 44.2244 75.7314C44.2698 75.4366 44.3151 74.9603 44.3605 74.28L44.5646 71.3203H48.216V71.3317Z" fill="#231F20"/>
<path d="M54.204 76.5852C54.2721 76.7099 54.3854 76.8006 54.5329 76.8573L54.3174 77.5604C54.0112 77.515 53.7844 77.4243 53.6144 77.2769C53.4443 77.1408 53.3195 76.9254 53.2515 76.6419C52.8546 77.2542 52.3103 77.5717 51.5959 77.5717C51.0516 77.5717 50.632 77.4016 50.3145 77.0728C49.997 76.7326 49.8383 76.2903 49.8383 75.7233C49.8383 75.077 50.0537 74.578 50.4733 74.2379C50.8928 73.8977 51.5052 73.7276 52.2876 73.7276H53.0701V73.206C53.0701 72.7751 52.9793 72.4689 52.8092 72.2874C52.6391 72.0947 52.3557 72.004 51.9588 72.004C51.5279 72.004 51.0403 72.106 50.4733 72.3328L50.2238 71.6071C50.9042 71.3349 51.5392 71.1875 52.1175 71.1875C53.4329 71.1875 54.102 71.8452 54.102 73.1719V76.0409C54.102 76.2903 54.136 76.4718 54.204 76.5965V76.5852ZM53.0701 75.8368V74.3966H52.401C51.3918 74.3966 50.8928 74.8162 50.8928 75.6553C50.8928 76.0182 50.9722 76.2903 51.131 76.4944C51.2897 76.6872 51.5279 76.7893 51.8227 76.7893C52.367 76.7893 52.7752 76.4718 53.0587 75.8368H53.0701Z" fill="#231F20"/>
<path d="M59.4544 77.4175V74.7073H57.2432V77.4175H56.2V71.3281H57.2432V73.8909H59.4544V71.3281H60.4977V77.4175H59.4544Z" fill="#231F20"/>
<path d="M66.5303 72.0075C66.9612 72.5518 67.1766 73.3456 67.1766 74.3661C67.1766 75.3867 66.9612 76.1351 66.5189 76.7134C66.0767 77.2918 65.4757 77.5752 64.7046 77.5752C63.9335 77.5752 63.3211 77.2918 62.8789 76.7248C62.4366 76.1578 62.2212 75.3754 62.2212 74.3775C62.2212 73.3796 62.4366 72.5858 62.8789 72.0188C63.3211 71.4632 63.9335 71.1797 64.7046 71.1797C65.4757 71.1797 66.088 71.4518 66.5189 72.0075H66.5303ZM63.6727 72.5971C63.4345 72.9827 63.3098 73.5723 63.3098 74.3888C63.3098 75.9763 63.7747 76.7588 64.7046 76.7588C65.6344 76.7588 66.0993 75.965 66.0993 74.3775C66.0993 73.561 65.986 72.9714 65.7478 72.5971C65.521 72.2229 65.1695 72.0302 64.7159 72.0302C64.2623 72.0302 63.9108 72.2229 63.6727 72.6085V72.5971Z" fill="#231F20"/>
<path d="M76.1693 75.5986C76.1693 76.211 75.9652 76.6645 75.5456 76.9707C75.126 77.2769 74.559 77.4243 73.8333 77.4243H71.8489V71.3916C72.5746 71.2555 73.1983 71.1875 73.7199 71.1875C74.4003 71.1875 74.9333 71.3349 75.3075 71.6297C75.693 71.9246 75.8858 72.3215 75.8858 72.8317C75.8858 73.5121 75.5116 73.943 74.7518 74.1131C75.693 74.2265 76.1693 74.7141 76.1693 75.5986V75.5986ZM72.8921 72.004V73.8296H73.8787C74.5477 73.8296 74.8766 73.5121 74.8766 72.8884C74.8766 72.5596 74.7858 72.3215 74.6044 72.174C74.423 72.0153 74.1281 71.9473 73.7313 71.9473C73.4704 71.9473 73.187 71.9699 72.8921 72.004V72.004ZM75.1034 75.5759C75.1034 75.2017 75.0013 74.9296 74.8085 74.7708C74.6157 74.6121 74.3209 74.5327 73.9127 74.5327H72.8808V76.6645H73.822C74.6724 76.6645 75.092 76.3017 75.092 75.5759H75.1034Z" fill="#231F20"/>
<path d="M14.1855 87.914C14.1855 88.6738 13.936 89.2408 13.4257 89.6036C12.9154 89.9778 12.2124 90.1593 11.3165 90.1593H9.27539V82.1875H10.999C11.9175 82.1875 12.6206 82.3576 13.1195 82.6978C13.6185 83.038 13.8566 83.5369 13.8566 84.1946C13.8566 84.6709 13.7319 85.0564 13.4711 85.3513C13.2102 85.6461 12.8701 85.8502 12.4505 85.9523C13.6071 86.1564 14.1855 86.8141 14.1855 87.9254V87.914ZM10.3527 83.0153V85.5894H11.3505C11.7928 85.5894 12.1443 85.476 12.3938 85.2492C12.6433 85.0224 12.768 84.7049 12.768 84.2967C12.768 83.8431 12.6319 83.5256 12.3598 83.3215C12.0876 83.1173 11.6681 83.0153 11.1011 83.0153H10.3527V83.0153ZM12.6206 88.9913C12.9268 88.7758 13.0742 88.4016 13.0742 87.8913C13.0742 86.8934 12.5299 86.3832 11.4413 86.3832H10.3527V89.3088H11.3279C11.8948 89.3088 12.3258 89.1954 12.6206 88.9799V88.9913Z" fill="#231F20"/>
<path d="M20.0255 87.486H16.4762C16.5102 88.2004 16.6463 88.7107 16.9071 89.0169C17.1566 89.3344 17.5081 89.4818 17.9503 89.4818C18.2338 89.4818 18.472 89.4365 18.6988 89.3571C18.9142 89.2777 19.1523 89.1303 19.3905 88.9375L19.8554 89.5499C19.2884 90.0601 18.6307 90.3096 17.905 90.3096C17.1112 90.3096 16.4989 90.0375 16.0566 89.4818C15.6257 88.9262 15.3989 88.1551 15.3989 87.1572C15.3989 86.1593 15.603 85.3655 16.0226 84.7872C16.4422 84.2089 17.0205 83.9141 17.7576 83.9141C18.4946 83.9141 19.0503 84.1749 19.4472 84.6965C19.8441 85.2181 20.0368 85.9665 20.0368 86.9304C20.0368 87.0892 20.0368 87.2706 20.0142 87.4747L20.0255 87.486ZM19.0389 86.6242C19.0389 85.3542 18.6194 84.7078 17.7802 84.7078C17.3947 84.7078 17.0885 84.8666 16.8617 85.1841C16.6349 85.5016 16.5102 86.0232 16.4762 86.7376H19.0389V86.6129V86.6242Z" fill="#231F20"/>
<path d="M25.6962 84.0738V90.1632H24.653V84.8903H22.986L22.8273 87.1242C22.7706 87.9293 22.6912 88.519 22.6005 88.9045C22.5098 89.2901 22.3737 89.5736 22.1809 89.7777C21.9881 89.9705 21.682 90.1519 21.2624 90.288L21.0129 89.4828C21.2284 89.3921 21.3871 89.2674 21.4892 89.1313C21.5913 88.9839 21.6593 88.7684 21.7047 88.4736C21.75 88.1788 21.7954 87.7025 21.8407 87.0221L22.0448 84.0625H25.6962V84.0738Z" fill="#231F20"/>
<path d="M32.1254 90.1675H31.1275V87.0831C31.1275 86.4028 31.1842 85.7791 31.2863 85.2007L28.905 90.1675H27.7823V84.0781H28.7689V87.0831C28.7689 87.7295 28.7235 88.3758 28.6328 89.0449L30.9915 84.0895H32.1254V90.1788V90.1675Z" fill="#231F20"/>
<path d="M38.4299 84.0703L36.8083 86.8825L38.6227 90.1597H37.5114L35.9465 87.3248H35.2661V90.1597H34.2229V84.0703H35.2661V86.5764H35.9692L37.398 84.0703H38.4299Z" fill="#231F20"/>
<path d="M43.7033 84.7497C44.1343 85.294 44.3497 86.0877 44.3497 87.1083C44.3497 88.1289 44.1343 88.8773 43.692 89.4556C43.2498 90.0339 42.6488 90.3174 41.8777 90.3174C41.1066 90.3174 40.4942 90.0339 40.052 89.467C39.6211 88.9 39.3943 88.1175 39.3943 87.1197C39.3943 86.1218 39.6097 85.3166 40.052 84.761C40.4942 84.2054 41.1066 83.9219 41.8777 83.9219C42.6488 83.9219 43.2611 84.194 43.692 84.7497H43.7033ZM40.8458 85.3393C40.6076 85.7249 40.4829 86.3145 40.4829 87.131C40.4829 88.7185 40.9478 89.501 41.8777 89.501C42.8075 89.501 43.2724 88.7072 43.2724 87.1197C43.2724 86.3032 43.159 85.7135 42.9209 85.3393C42.6941 84.9651 42.3426 84.7723 41.889 84.7723C41.4354 84.7723 41.0839 84.9651 40.8458 85.3507V85.3393Z" fill="#231F20"/>
<path d="M50.0306 85.194C50.4048 85.6816 50.5862 86.3733 50.5862 87.2578C50.5862 88.267 50.3708 89.0267 49.9399 89.5484C49.509 90.07 48.9193 90.3195 48.1596 90.3195C47.3998 90.3195 46.7988 90.036 46.3566 89.469C45.9256 88.902 45.6989 88.0175 45.6989 86.8042C45.6989 85.897 45.7556 85.1713 45.8803 84.6043C46.005 84.0486 46.2205 83.5837 46.5153 83.2322C46.8215 82.8807 47.2524 82.5858 47.808 82.359C48.2276 82.2003 48.5678 82.0642 48.7946 81.9508C49.0327 81.8374 49.2708 81.7013 49.5316 81.5312L49.9626 82.223C49.5883 82.4951 49.0214 82.7899 48.2616 83.0961C47.9101 83.2435 47.6379 83.4023 47.4338 83.5724C47.2297 83.7425 47.0709 83.992 46.9576 84.2981C46.8328 84.6156 46.7534 85.0465 46.7081 85.6022C46.9122 85.2507 47.1617 84.9672 47.4565 84.7517C47.7627 84.5476 48.1142 84.4342 48.5224 84.4342C49.1348 84.4342 49.6337 84.6837 50.0079 85.1713L50.0306 85.194ZM49.1348 89.0267C49.3616 88.7206 49.4863 88.1423 49.4863 87.3145C49.4863 86.5887 49.3842 86.0671 49.1915 85.7609C48.9987 85.4548 48.7039 85.296 48.3183 85.296C48.0008 85.296 47.706 85.3981 47.4452 85.6022C47.1843 85.8063 46.9689 86.1011 46.7988 86.498V87.167C46.7988 88.7206 47.2524 89.4917 48.1596 89.4917C48.5791 89.4917 48.8966 89.3329 49.1348 89.0267Z" fill="#231F20"/>
<path d="M56.4373 84.7497C56.7775 85.294 56.9363 86.0764 56.9363 87.097C56.9363 88.1175 56.7435 88.866 56.3693 89.4443C55.9951 90.0226 55.4734 90.3174 54.8044 90.3174C54.2034 90.3174 53.7158 90.0793 53.3416 89.5917V92.4833L52.2983 92.608V84.0693H53.2169L53.2735 84.8971C53.6931 84.2507 54.2374 83.9219 54.9291 83.9219C55.6209 83.9219 56.0971 84.194 56.426 84.7497H56.4373ZM55.8476 87.1083C55.8476 86.2805 55.7456 85.6795 55.5528 85.3053C55.36 84.9311 55.0539 84.7497 54.657 84.7497C54.3848 84.7497 54.1467 84.829 53.9426 84.9878C53.7385 85.1466 53.5344 85.3733 53.3529 85.6455V88.7299C53.6704 89.2288 54.0787 89.4783 54.5663 89.4783C55.4281 89.4783 55.8476 88.6845 55.8476 87.1083V87.1083Z" fill="#231F20"/>
<path d="M63.0377 90.1675H62.0398V87.0831C62.0398 86.4028 62.0965 85.7791 62.1985 85.2007L59.8172 90.1675H58.6946V84.0781H59.6811V87.0831C59.6811 87.7295 59.6358 88.3758 59.5451 89.0449L61.9037 84.0895H63.0377V90.1788V90.1675Z" fill="#231F20"/>
<path d="M68.8888 84.0703L68.764 84.9095H67.0744V90.171H66.0312V84.9095H64.2622V84.0703H68.9001H68.8888Z" fill="#231F20"/>
<path d="M73.5605 89.3273C73.6285 89.4521 73.7419 89.5428 73.8893 89.5995L73.6739 90.3026C73.3677 90.2572 73.1409 90.1665 72.9708 90.0191C72.8007 89.883 72.676 89.6675 72.6079 89.384C72.211 89.9964 71.6667 90.3139 70.9523 90.3139C70.408 90.3139 69.9885 90.1438 69.671 89.815C69.3535 89.4861 69.1947 89.0325 69.1947 88.4655C69.1947 87.8192 69.4102 87.3202 69.8297 86.98C70.2493 86.6399 70.8616 86.4698 71.6441 86.4698H72.4265V85.9481C72.4265 85.5172 72.3358 85.2111 72.1657 85.0296C71.9956 84.8369 71.7121 84.7461 71.3152 84.7461C70.8956 84.7461 70.3967 84.8482 69.8297 85.075L69.5802 84.3492C70.2606 84.0771 70.8956 83.9297 71.474 83.9297C72.7894 83.9297 73.4584 84.5874 73.4584 85.9141V88.783C73.4584 89.0325 73.4924 89.214 73.5605 89.3387V89.3273ZM72.4265 88.5789V87.1388H71.7575C70.7482 87.1388 70.2493 87.5584 70.2493 88.3975C70.2493 88.7604 70.3287 89.0325 70.4874 89.2366C70.6462 89.4294 70.8843 89.5315 71.1791 89.5315C71.7234 89.5315 72.1317 89.214 72.4152 88.5789H72.4265Z" fill="#231F20"/>
<path d="M78.7995 90.1675V87.4573H76.5883V90.1675H75.545V84.0781H76.5883V86.6409H78.7995V84.0781H79.8428V90.1675H78.7995Z" fill="#231F20"/>
<path d="M86.2835 90.1675H85.2856V87.0831C85.2856 86.4028 85.3423 85.7791 85.4444 85.2007L83.0631 90.1675H81.9404V84.0781H82.927V87.0831C82.927 87.7295 82.8816 88.3758 82.7909 89.0449L85.1495 84.0895H86.2835V90.1788V90.1675Z" fill="#231F20"/>
<path d="M92.7234 90.1675H91.7256V87.0831C91.7256 86.4028 91.7823 85.7791 91.8843 85.2007L89.503 90.1675H88.3804V84.0781H89.3669V87.0831C89.3669 87.7295 89.3216 88.3758 89.2308 89.0449L91.5895 84.0895H92.7234V90.1788V90.1675Z" fill="#231F20"/>
<path d="M96.3306 31.8706H55.3492V10.0078H46.2434V31.8706H5.28467V42.802H46.2434V64.6648H55.3492V42.802H96.3306" fill="#ED1C24"/>
<path d="M65.9744 46.4421H72.7555L96.3192 60.5826V64.6535L65.9744 46.4421ZM35.6295 28.2306H28.8371L5.28467 14.0787V10.0078L35.6295 28.2306ZM35.6295 46.4421H42.422L12.0658 64.6648H5.28467L35.6295 46.4534V46.4421ZM65.9744 28.2306H59.1933L89.5381 10.0078H96.3192L65.9744 28.2306Z" fill="#ED1C24"/>
<path d="M5.28467 46.4421V58.5528L25.4465 46.4421H5.28467ZM96.3192 46.4421V58.5528L76.146 46.4421H96.3192ZM5.28467 28.2306V16.1199L25.4465 28.2193H5.28467V28.2306ZM96.3306 28.2306V16.1199L76.1574 28.2193H96.3306V28.2306ZM43.2157 64.6648V48.0069L15.4677 64.6648H43.2157ZM58.3995 64.6648V48.0069L86.1589 64.6648H58.3995ZM43.2157 10.0078V26.6657L15.4563 10.0078H43.2044H43.2157ZM58.3995 10.0078V26.6657L86.1589 10.0078H58.3995Z" fill="#0057A8"/>
</svg>
