<svg width="162" height="219" viewBox="0 0 162 219" fill="none" xmlns="http://www.w3.org/2000/svg">
<path d="M54.4204 15.6151C54.2693 16.2157 54.0189 16.7609 53.6721 17.266C52.8884 18.4122 52.0608 19.5349 51.3944 20.754C50.9016 21.6658 50.2341 22.4888 49.9473 23.5256C49.872 23.7997 49.6017 23.8427 49.4113 23.861C48.6845 23.9331 48.3716 24.4061 48.1928 25.0742C47.9709 25.8908 47.6974 26.6957 47.4909 27.5148C47.2985 28.2739 46.7628 28.8336 46.5283 29.5794C46.0856 30.9673 45.7262 32.3768 45.4242 33.8022C45.4007 33.9211 45.5071 34.1003 45.2963 34.1431C44.5974 34.2885 44.5079 34.9563 44.2452 35.4881C43.481 37.022 43.6886 38.7164 43.5838 40.3569C43.5089 41.4967 43.4936 42.6364 43.4235 43.7753C43.3991 44.1395 43.4402 44.4816 43.4888 44.838C43.541 45.2146 43.7093 45.6018 43.0519 45.6459C42.704 45.6714 42.5388 46.165 42.5705 46.5661C42.7534 48.8178 43.1942 51.013 43.8398 53.1873C44.2472 54.5541 44.4627 55.9863 44.7622 57.388C44.1768 58.1703 44.8725 58.7034 45.1526 59.3001C45.4552 59.9398 45.8421 60.5227 46.2617 61.0946C47.2107 62.3805 48.0559 63.7527 48.9923 65.0513C49.4278 65.6568 49.9124 66.2589 50.4803 66.7157C50.8856 67.0398 51.068 67.3671 51.0481 67.84C51.0359 68.2177 51.1444 68.5478 51.2953 68.8651C52.4872 71.2915 54.1773 73.2536 56.2845 74.8546C56.9336 75.3491 57.5818 75.8386 58.0258 76.6304C58.9326 78.2367 60.4001 79.1173 62.0325 79.7807C63.4661 80.3597 64.7358 81.2442 65.8508 82.3753C67.69 84.2275 68.901 86.4263 69.5408 89.0137C69.7562 89.8879 70.3047 90.6819 70.3902 91.6628C69.8934 91.5218 69.5483 91.1453 69.1301 90.9434C67.5441 90.1778 65.9138 89.4983 64.3455 88.6931C63.706 88.3638 63.0776 87.9855 62.5082 87.4925C61.3122 86.4644 60.0297 85.5352 58.8668 84.47C57.7572 83.4526 56.8563 82.1582 55.6654 81.27C54.3831 80.3147 53.5328 78.886 52.1811 78.0422C51.9751 77.9172 51.7899 77.6582 51.5451 77.8165C51.2519 78.0096 51.5796 78.2328 51.5982 78.4485C51.6432 78.8682 52.0596 79.1434 52.0979 79.6372C51.4623 79.2185 51.1471 78.5915 50.756 78.0406C50.0571 77.0439 49.1122 76.3101 48.2849 75.4562C48.1511 75.3184 47.9347 74.9398 47.6667 75.1909C47.4627 75.3837 47.4332 75.6915 47.5705 76.0164C47.9981 77.051 48.5623 77.9883 49.2278 78.8814C50.3849 80.4431 51.6423 81.8722 53.4765 82.6927C53.2602 82.7886 52.952 82.7861 53.0181 82.9621C53.2909 83.6853 52.6809 83.4655 52.4604 83.51C51.2485 83.7572 50.0387 83.9885 48.894 84.4741C48.617 84.5912 48.461 84.5512 48.3219 84.2162C47.6496 82.5889 46.4258 81.3207 45.5998 79.7782C45.1526 78.9401 44.1435 78.5984 43.3359 78.1061C42.1002 77.3563 40.912 76.4833 39.4278 76.3723C38.1047 76.2743 36.7782 76.2969 35.4518 76.3194C33.6307 76.3519 31.8531 76.6844 30.1043 77.0951C27.5602 77.6945 25.117 78.5262 23.047 80.3658C21.8213 81.4551 20.4447 82.394 19.4592 83.717C18.2502 85.3457 16.9468 86.9182 16.1821 88.8954C15.6137 90.3579 15.0645 91.8169 14.831 93.3761C14.6801 94.3677 14.6768 95.3801 15.0241 96.382C15.22 96.9521 15.2577 97.5816 15.3803 98.1856C15.8485 100.423 17.2024 102.059 18.7516 103.509C19.5143 104.223 20.5065 104.693 21.4509 105.145C22.0105 105.416 21.9683 105.653 21.7099 106.069C20.8374 107.497 19.9992 108.95 19.0877 110.354C18.5498 111.18 18.5489 112.15 18.328 113.055C18.0495 114.195 17.7969 115.34 17.4983 116.478C17.0639 118.136 17.114 119.837 17.81 121.486C18.5405 123.218 19.4229 124.855 20.5956 126.309C22.3494 128.49 24.3919 130.201 27.0873 130.952C29.7099 131.684 32.239 131.39 34.7588 130.57C35.5522 130.314 36.3455 130.058 37.2027 129.686C37.0718 130.763 36.9363 131.757 36.6275 132.699C36.2389 133.889 36.1718 135.101 36.3062 136.328C36.3677 136.896 36.293 137.452 36.3755 138.026C36.8035 141.069 38.6276 143.143 40.7041 145.072C42.204 146.469 43.9527 147.45 45.8467 147.994C48.6921 148.807 51.5431 148.731 54.2613 147.465C56.1365 146.593 58.0507 145.746 59.7134 144.491C61.7045 142.988 63.7263 141.491 65.1673 139.326C65.8878 138.243 66.7511 137.265 67.3279 136.072C68.2011 134.258 68.6848 132.321 68.9774 130.313C69.2052 128.75 68.9839 127.23 68.659 125.713C68.4998 124.959 68.6125 124.198 68.4861 123.433C68.0916 121.053 67.1107 118.974 65.7069 117.086C64.9638 116.092 64.279 115.036 63.3215 114.231C63.0419 113.999 63.2188 113.822 63.3268 113.62C64.8537 110.767 66.3815 107.918 68.0866 105.174C69.0665 103.596 69.9691 101.975 71.0842 100.488C71.7535 99.5918 72.5109 98.7998 73.3775 98.1186C73.7817 97.7963 74.1817 97.7563 74.6835 98.0371C76.8369 99.2283 78.9373 100.512 81.0347 101.807C82.5801 102.763 84.1567 103.671 85.6726 104.684C87.927 106.191 90.1509 107.75 92.4073 109.241C95.5901 111.333 98.6426 113.642 101.879 115.647C102.761 116.194 103.658 116.717 104.544 117.258C104.784 117.403 105.091 117.598 105.108 117.856C105.124 118.145 104.732 118.116 104.523 118.226C103.405 118.832 102.297 119.468 101.102 119.921C100.767 120.048 100.619 120.08 100.384 119.736C99.9071 119.039 99.2285 118.518 98.6176 117.959C97.8699 117.274 97.2808 116.419 96.4077 115.866C93.8094 114.211 91.0607 113.663 88.1851 114.604C86.1346 115.271 84.1521 116.209 82.4858 117.611C80.5169 119.266 78.6066 120.999 76.8448 122.924C75.4614 124.438 74.4559 126.234 73.0936 127.754C72.3979 128.53 71.9098 129.525 71.6828 130.618C71.3642 132.146 70.9729 133.655 70.7166 135.197C70.2792 137.841 71.086 140.195 72.5005 142.394C73.9142 144.588 75.8518 146.074 78.118 147.146C79.2774 147.69 80.5371 147.544 81.895 147.865C81.1687 148.135 80.5117 147.986 79.9241 148.227C79.6143 148.355 79.2745 148.426 78.9497 148.525C78.5729 148.639 78.3665 148.791 78.5354 149.209C78.6586 149.511 78.511 149.574 78.2827 149.63C75.6642 150.258 73.0899 151.051 70.4586 151.634C69.6758 151.81 68.9038 152.13 68.1916 152.508C67.6292 152.806 67.967 153.226 68.3299 153.563C67.0334 154.226 65.7404 154.827 64.5085 155.547C63.2138 156.305 61.9857 157.186 60.7144 157.991C59.8843 158.515 59.0298 158.985 58.1865 159.49C58.0115 159.594 57.7053 159.576 57.7359 159.915C57.7656 160.248 58.0263 160.29 58.2675 160.362C58.4407 160.415 58.6108 160.478 58.913 160.586C58.1364 161.131 57.4194 161.593 56.7487 162.119C55.5032 163.097 54.2823 164.102 53.0624 165.112C52.7938 165.332 52.5339 165.546 52.2388 165.729C52.0328 165.854 51.7712 165.974 51.8249 166.303C51.8934 166.687 52.2245 166.539 52.4389 166.6C52.5853 166.642 52.7498 166.618 52.9341 166.622C52.9239 166.842 52.8045 166.952 52.6835 167.026C50.5241 168.391 48.642 170.171 46.4949 171.55C45.5457 172.157 44.4901 172.585 43.4675 173.06C42.6922 173.417 41.9899 173.933 41.1406 174.126C40.9788 174.165 40.8396 174.248 40.8687 174.467C40.8978 174.686 40.969 174.835 41.2069 174.943C42.543 175.561 43.9159 176.077 45.3168 176.5C47.1273 177.049 48.9437 177.575 50.8144 177.904C52.4598 178.195 54.1079 178.334 55.7645 178.493C56.2393 178.538 56.8778 178.305 56.9509 179.189C56.9626 179.338 57.2173 179.402 57.395 179.48C58.9904 180.186 60.6317 180.092 62.2841 179.949C62.709 179.909 63.1303 179.85 63.5583 179.8C63.6016 179.792 63.6834 179.778 63.6918 179.797C64.1579 180.741 65.0739 180.588 65.8088 180.645C66.6147 180.71 67.4428 180.928 68.2515 180.757C69.295 180.54 70.343 180.682 71.3909 180.74C72.1481 180.783 72.8846 180.625 73.6211 180.468C73.908 180.407 74.2075 180.332 74.4992 180.353C75.2016 180.395 75.287 180.651 74.9386 181.287C74.0092 182.98 72.8901 184.557 72.2049 186.395C72.0165 186.897 71.9141 187.354 72.4042 187.736C72.5945 187.884 72.6176 188.042 72.5484 188.294C71.9181 190.607 71.3873 192.95 70.6679 195.237C70.3736 196.176 70.44 196.242 71.3695 196.332C71.6371 196.357 71.6536 196.506 71.656 196.714C71.6462 198.525 71.4478 200.282 70.5934 201.894C70.3479 202.355 70.0184 202.93 70.9665 203.069C71.3135 203.122 71.0738 203.42 71.0593 203.589C70.8509 205.707 69.8863 207.538 69.0968 209.431C68.7558 210.247 68.3175 211.019 67.9336 211.818C67.8105 212.074 67.5572 212.38 68.0109 212.586C68.3128 212.72 68.5178 212.924 68.8539 212.441C69.5464 211.452 70.5633 210.807 71.5771 210.172C72.5233 209.576 73.5834 209.257 74.5482 208.709C75.108 208.396 75.5041 207.861 76.1017 207.593C76.4831 207.421 76.6623 207.451 76.6955 207.889C76.7288 208.326 76.9769 208.297 77.2677 208.23C79.0315 207.848 80.6423 207.164 81.9667 205.849C82.1901 205.627 82.4951 205.499 82.7745 205.34C83.022 205.197 83.0078 205.424 83.0694 205.574C83.3339 206.195 83.6427 206.312 84.2433 206.033C85.3112 205.535 86.4102 205.099 87.433 204.515C88.338 203.994 89.1546 203.311 90.0079 202.695C90.3111 202.474 90.5668 202.293 90.9636 202.598C91.3091 202.865 91.6934 202.598 91.9726 202.381C92.7275 201.798 93.438 201.161 94.1731 200.55C95.2408 199.661 96.3606 198.841 97.3015 197.713C97.4602 198.186 97.3647 198.542 97.2654 198.904C97.2091 199.117 97.2091 199.367 97.4084 199.483C97.642 199.624 97.8014 199.46 97.9708 199.268C99.3996 197.647 100.619 195.855 101.793 194.029C102.419 193.057 103.238 192.223 103.638 191.093C103.678 190.981 103.843 190.822 103.93 190.837C104.717 190.963 105.067 190.337 105.41 189.838C106.743 187.901 107.724 185.749 108.669 183.583C108.838 183.194 108.995 182.879 109.474 182.866C109.869 182.853 110.148 182.553 110.322 182.22C110.998 180.915 111.601 179.562 112.098 178.169C112.313 177.568 112.696 177.014 112.655 176.281C112.843 176.503 112.873 176.863 113.2 176.836C113.484 176.812 113.538 176.505 113.662 176.305C114.281 175.324 114.361 174.157 114.525 173.043C114.779 171.35 115.155 169.671 115.154 167.935C115.152 167.842 115.144 167.713 115.195 167.662C116.322 166.439 116.211 164.842 116.308 163.323C116.39 162.004 116.183 160.644 116.434 159.352C117.098 155.943 115.17 152.48 114.271 150.971C116.973 151.319 119.691 148.712 121.568 147.043C123.089 145.687 124.513 144.234 126.242 143.159C127.489 142.384 128.696 141.715 129.494 140.457C129.955 140.338 130.305 140.547 130.791 141.102C132.287 142.812 133.578 144.683 134.915 146.526C135.548 147.404 136.281 148.207 136.879 149.107C138.416 151.409 140.241 153.488 141.557 155.971C142.2 157.181 142.946 158.331 143.436 159.631C143.586 160.026 143.812 160.403 143.777 160.853C143.697 161.821 144.841 163.005 146.082 162.611C147.515 162.158 148.747 161.297 149.528 159.943C149.983 159.152 149.924 158.156 149.994 157.236C150.005 157.078 149.874 156.84 149.742 156.744C148.708 156.01 148.265 154.833 147.657 153.788C146.698 152.139 145.654 150.547 144.606 148.955C143.79 147.719 142.974 146.482 142.072 145.318C140.669 143.519 139.244 141.739 137.705 140.063C137.187 139.498 136.761 138.833 136.298 138.217C135.207 136.774 134.014 135.427 132.737 134.168C132.436 133.873 132.441 133.648 132.553 133.33C133.227 131.458 134.069 129.66 134.744 127.793C135.691 125.173 136.853 122.666 138.111 120.225C139.68 117.187 140.736 113.922 142.11 110.798C143.185 108.359 144.102 105.843 145.084 103.358C145.162 103.157 145.393 102.891 145.108 102.744C144.808 102.589 144.632 102.886 144.529 103.144C143.114 106.677 141.309 110.007 139.756 113.465C138.395 116.498 136.7 119.329 135.327 122.348C134.186 124.857 132.805 127.251 131.583 129.727C131.339 130.219 130.954 130.627 130.702 131.131C130.595 131.343 130.382 131.595 130.062 131.245C129.185 130.28 128.279 129.346 127.372 128.408C126.691 127.705 126.151 126.878 125.508 126.137C124.339 124.791 122.975 123.679 121.754 122.4C120.753 121.352 119.603 120.499 118.502 119.584C117.604 118.837 116.67 118.137 115.753 117.42C115.465 117.194 115.231 116.829 114.743 116.963C114.501 117.027 114.453 116.645 114.398 116.446C114.149 115.578 113.933 114.703 113.703 113.827C113.319 112.372 113.191 110.872 112.866 109.407C112.694 108.64 112.51 107.885 112.406 107.106C112.227 105.714 112.306 104.375 112.77 103.052C112.909 102.657 112.987 102.147 112.987 101.761C112.983 100.036 113.787 98.6149 114.416 97.1573C115.363 94.9495 116.83 93.1286 118.775 91.7809C119.446 91.317 120.01 90.7471 120.523 90.1134C121.008 89.5211 121.26 88.7356 121.04 88.0603C120.74 87.1543 121.302 86.689 121.674 86.2108C122.378 85.3135 123.236 84.5557 124.04 83.75C124.895 82.8885 125.476 81.2204 124.698 80.0031C124.554 79.7785 124.565 79.6461 124.661 79.4309C125.202 78.2079 125.768 77.0068 126.535 75.9104C127.105 75.0944 127.214 74.1206 126.97 73.1107C126.957 73.04 126.948 72.9321 126.91 72.9128C125.69 72.3113 126.713 71.5606 126.837 70.9702C127.085 69.7473 127.661 68.6329 128.251 67.5421C128.639 66.8211 128.601 66.0509 128.349 65.277C128.344 65.2517 128.349 65.2197 128.336 65.2063C127.408 64.5373 128.065 63.7683 128.244 63.1002C128.66 61.5345 128.755 59.9218 128.997 58.3297C129.092 57.7183 128.192 56.4862 127.563 56.4367C126.672 56.3712 126.797 55.7336 126.938 55.2704C127.367 53.864 127.052 52.486 126.866 51.1059C126.782 50.469 126.273 50.5911 125.898 50.663C125.336 50.7633 125.114 50.6881 125.111 49.9793C125.104 48.3222 124.621 46.6977 124.616 45.0246C124.613 44.5661 124.331 44.3765 123.919 44.6272C123.382 44.9525 123.279 44.7362 123.176 44.16C122.837 42.2022 122.857 40.2272 122.77 38.2611C122.756 37.961 122.835 37.5663 122.558 37.407C122.188 37.1966 122.063 37.6934 121.754 37.8528C121.434 37.0598 121.232 36.2352 121.103 35.3978C120.873 33.942 120.799 32.4638 120.449 31.0294C120.382 30.765 120.46 30.3964 120.142 30.281C119.817 30.1615 119.703 30.5521 119.447 30.7282C118.724 28.8752 118.329 26.99 118.341 25.0219C118.347 23.8056 118.145 22.616 117.875 21.4335C117.831 21.2431 117.829 21.0088 117.527 20.9844C117.285 20.9649 117.202 21.1152 117.101 21.2689C116.12 22.7317 115.083 24.1526 114.185 25.6632C113.169 27.3673 111.784 28.7925 110.92 30.5998C110.874 30.7019 110.895 30.8493 110.721 30.7083C110.314 30.374 110.056 30.6808 109.794 30.9412C108.686 32.0512 108.05 33.4372 107.637 34.9657C107.518 35.4145 107.389 35.8599 107.246 36.3652C106.878 35.6904 106.615 35.9457 106.28 36.3496C105.034 37.8284 104.756 39.7502 104.174 41.5229C104.045 41.916 103.808 42.2556 103.72 42.6832C103.636 43.0998 103.372 42.7609 103.233 42.624C102.926 42.3189 102.749 42.1366 102.435 42.6879C101.299 44.6949 100.277 46.7335 100.076 49.1161C99.9262 49.1115 99.9052 49.0214 99.8562 48.9415C99.7366 48.7438 99.6278 48.4398 99.3734 48.5164C99.1189 48.5931 98.9775 48.8582 98.8963 49.1543C98.6636 49.9936 98.5939 50.8561 98.4935 51.7136C98.3181 53.2364 98.2079 54.7632 98.0695 56.3263C97.8653 56.2115 97.7493 55.8671 97.4603 55.9446C97.1761 56.0214 97.0756 56.3209 96.9327 56.5497C96.5401 57.1882 96.6533 57.9346 96.6239 58.6334C96.5627 60.1567 96.6177 61.6906 96.7408 63.2175C96.766 63.5259 96.8261 63.8907 96.347 64.0439C96.0646 64.1307 95.9051 64.5451 95.9212 64.8864C95.9977 66.7084 96.0943 68.5321 96.2102 70.3524C96.2455 70.9406 96.3395 71.5236 96.447 72.099C96.5101 72.4528 96.4781 72.7193 96.2642 73.0233C96.0269 73.3629 95.966 73.8014 95.9963 74.2497C96.0981 75.7126 96.4754 77.1056 96.9586 78.4797C97.3898 79.7014 97.8916 80.8741 97.7472 82.2922C97.5461 84.2837 98.6919 85.8944 99.63 87.5368C100.387 88.8621 101.091 90.2178 101.826 91.5575C102.349 92.5176 103.105 93.3009 103.701 94.1959C104.596 95.5435 105.365 96.9867 106.208 98.3749C106.806 99.3634 107.503 100.293 108.024 101.321C108.615 102.493 109.025 103.761 109.562 104.964C110.421 106.886 110.47 109 110.995 111.003C111.341 112.302 111.653 113.608 111.975 114.912C112.026 115.116 112.045 115.332 112.099 115.661C111.404 115.133 110.808 114.661 110.188 114.218C108.856 113.261 107.333 112.625 106.027 111.648C104.149 110.246 102.133 109.104 100.17 107.868C99.1579 107.23 98.0057 106.893 96.9642 106.285C93.3114 104.146 89.6145 102.093 85.9361 100.006C82.9533 98.3105 80.0597 96.448 77.0149 94.8785C76.1014 94.4051 75.2235 93.8523 74.3426 93.3104C73.8296 92.9951 73.212 93.0113 72.7075 92.6318C72.4838 92.4631 72.2923 92.3355 72.2821 92.0557C72.1778 89.8266 71.5881 87.6319 71.7577 85.38C71.8407 84.2857 72.1465 83.2716 72.7103 82.3681C72.8502 82.1502 73.1194 81.9614 73.3699 81.8907C74.9954 81.4289 76.253 80.24 77.7516 79.5401C79.1585 78.8826 80.3592 77.9594 81.4186 76.8006C81.7426 76.4456 82.0554 76.0561 82.082 75.5924C82.1609 74.1964 83.2755 73.5701 84.0097 72.7039C85.0887 71.4321 86.0751 70.1142 86.8303 68.6133C86.9985 68.2756 87.2792 67.8449 86.8364 67.4493C86.6644 67.2922 86.8013 67.1687 86.8732 67.0151C87.7003 65.1936 88.9198 63.6517 89.9671 61.9788C90.3224 61.4096 90.5078 60.6673 90.3011 59.9532C90.1978 59.5961 90.2498 59.3313 90.3735 59.0224C91.1408 57.1438 91.9349 55.2761 92.6382 53.3724C93.0538 52.2502 93.5602 51.1638 93.7828 49.9612C93.9333 49.1626 93.8864 49.0666 93.0772 49.1222C93.1939 47.855 93.6763 46.6895 93.9049 45.4649C94.2235 43.7706 94.6898 42.0969 94.6346 40.3388C94.6233 39.9967 94.7632 39.445 94.052 39.577C93.8018 39.6216 93.8864 39.2884 93.9027 39.129C94.1668 36.7665 94.4107 34.4023 94.7217 32.0522C94.847 31.112 94.8446 30.179 94.7279 29.2454C94.69 28.9497 94.5295 28.6341 94.2129 28.5288C93.9068 28.4269 93.7946 28.7442 93.5609 28.9371C93.3109 28.2307 93.2368 27.5085 93.1931 26.8175C93.055 24.6779 92.7709 22.5538 92.4915 20.4289C92.4405 20.0312 92.3212 19.6405 92.2452 19.242C92.1867 18.9135 91.9946 18.7548 91.7137 18.8778C91.2716 19.0714 91.2596 18.7814 91.2555 18.4797C91.2429 15.9578 91.2304 13.436 91.4885 10.9285C91.5548 10.27 91.5234 9.59241 91.6147 8.93469C91.6843 8.40599 91.7531 7.87224 92.2139 7.47722C92.6232 7.12787 92.3106 6.68293 92.1498 6.31002C92.0732 6.13072 91.9192 6.24161 91.8256 6.35736C90.635 7.81072 89.0867 8.81676 87.6784 9.996C86.2227 11.215 84.6638 12.3011 83.2573 13.5739C82.475 14.2818 81.9028 15.2495 81.2578 16.1154C81.1417 16.2717 81.0833 16.5011 80.8722 16.3197C80.454 15.9509 80.122 16.2604 79.9297 16.5189C78.7782 18.08 77.231 19.2319 76.0416 20.7476C75.1915 21.8274 74.4577 22.9751 73.8554 24.2193C73.7934 24.3451 73.7849 24.4926 73.6421 24.5546C71.9341 25.3335 70.9979 26.8772 70.1272 28.4821C69.1672 30.2542 68.7318 32.2405 68.1283 34.2307C67.6723 33.6497 67.3502 33.8479 67.0737 34.33C66.8129 34.7885 66.5529 35.252 66.2409 35.8135C65.8223 34.9128 65.7176 34.0189 65.3825 33.1972C64.8927 31.9807 64.1746 30.904 63.4941 29.8154C62.9663 28.9708 62.9004 27.9603 62.4312 27.1105C62.2686 26.8109 62.1409 26.4008 61.6954 26.7983C61.5878 26.8905 61.5779 26.8349 61.3557 26.5355C60.2675 25.0814 59.8969 23.2805 59.1477 21.667C58.9482 21.2436 58.815 20.8866 58.3222 20.6563C57.7101 20.3691 57.4237 19.6535 57.0889 19.0561C56.4246 17.8915 56.2596 16.5754 56.0329 15.2756C55.9942 15.0582 56.0862 14.9062 56.1554 14.7374C56.2644 14.4573 56.2443 14.2053 55.9656 14.062C55.6258 13.8827 55.5075 14.2219 55.4092 14.4219C55.3039 14.6389 55.3188 14.9178 55.2781 15.191C55.0132 15.1809 54.9072 14.7252 54.6182 14.8862C54.3427 15.0396 54.5098 15.3645 54.4493 15.6099L54.4204 15.6151ZM65.5025 37.4365C65.4063 37.6206 65.3223 37.8181 65.248 38.0138C64.5005 40.0036 64.4764 42.1252 64.3183 44.2186C64.2999 44.4774 64.344 44.8085 64.0655 44.8894C63.8294 44.9576 63.8127 44.5851 63.6449 44.4794C63.3924 44.3158 63.3976 43.7881 63.0461 43.8769C62.6656 43.9707 62.6168 44.4488 62.4573 44.7797C62.4209 44.854 62.4561 44.9676 62.4434 45.0638C62.3292 45.955 62.4372 46.8954 62.2562 47.7464C61.8591 49.5851 62.2306 51.3911 62.2965 53.2098C62.3156 53.7905 62.738 54.3775 61.9855 54.835C61.5686 55.0866 61.742 55.6971 61.6751 56.1576C61.2681 58.8324 61.3413 61.4999 61.9438 64.1565C62.0132 64.4623 62.2122 64.8545 61.973 65.1005C61.2244 65.8858 61.3973 66.8562 61.6109 67.7204C62.0656 69.5481 62.8067 71.283 63.629 72.9722C64.0603 73.8601 64.4326 74.7794 64.8798 75.7844C64.605 75.6352 64.5124 75.5057 64.4219 75.3602C63.7793 74.3169 63.0777 73.3051 62.4844 72.2322C61.7144 70.8362 60.7976 69.5081 60.3484 67.9349C59.4694 64.8687 58.5287 61.8186 57.7865 58.7123C57.7288 58.4723 57.7827 58.301 57.8724 58.1077C58.5214 56.6518 58.8818 55.0804 59.2418 53.5351C59.8587 50.8959 60.598 48.3026 61.3832 45.7168C62.0695 43.4668 62.5221 41.1593 62.8541 38.8159C61.5298 45.1744 59.3973 51.2597 57.6262 57.4788C57.2089 56.1399 56.9008 54.8285 56.6136 53.5237C56.3713 52.4144 55.9217 51.368 55.7668 50.2483C55.6729 49.5819 55.1573 49.001 55.4967 48.2313C56.0453 46.9914 56.5385 45.7197 56.9247 44.4045C57.7641 41.5378 58.6562 38.6879 59.7615 35.9199C60.2008 34.8194 60.5638 33.6805 60.9601 32.5616C60.9066 32.5398 60.8531 32.5181 60.7996 32.4963C58.6256 37.3739 57.3546 42.6382 55.2942 47.652C54.8369 46.4506 54.7918 45.3061 54.7262 44.1861C54.5993 42.081 54.5818 39.9772 54.5289 37.8693C54.5218 37.4951 54.4509 37.0697 54.5881 36.7532C55.0635 35.688 55.3907 34.571 55.7438 33.4599C56.6012 30.7778 57.474 28.0981 57.8071 25.2592C57.8734 24.6841 57.9698 24.0829 57.5938 23.3937C57.4443 27.7645 56.0344 31.6089 54.5852 35.4551C54.4957 35.0643 54.4254 34.6701 54.4406 34.2814C54.5045 32.4396 54.5742 30.6019 54.6832 28.7624C54.7183 28.1512 54.538 27.474 54.8248 26.9379C55.6317 25.4487 56.189 23.8683 56.6108 22.2234C56.8242 21.3874 56.8355 20.9213 56.6263 20.4996C56.3692 22.4281 55.8479 24.2107 54.8599 25.8261C54.8838 23.1465 55.6544 20.5894 55.8644 17.9236C56.4725 18.8843 56.8673 19.9299 57.562 20.7918C58.4924 21.9454 59.1395 23.2642 59.681 24.6593C60.0193 25.5272 60.5255 26.334 61.0194 27.1274C61.6037 28.0663 62.3429 28.8993 62.8063 29.9119C63.0029 30.3462 63.243 30.7467 63.5006 31.1337C64.4054 32.5056 65.1056 33.9558 65.2423 35.642C65.2636 35.8729 65.3228 36.1492 65.461 36.3123C65.7935 36.7015 65.6906 37.0432 65.4941 37.4172L65.5025 37.4365ZM73.6233 81.0007C72.9509 81.0996 72.4195 81.3769 72.0061 81.9825C71.711 82.4158 71.664 82.9874 71.2946 83.3661C70.6223 81.9892 70.5857 80.5303 70.5211 79.0815C70.5149 78.8793 70.4858 78.5768 70.6653 78.4978C71.3285 78.2076 71.814 77.6726 72.3987 77.2763C74.8547 75.5974 77.4379 74.1306 79.7157 72.1758C81.4512 70.6879 83.2057 69.2227 84.637 67.3927C84.7579 67.2356 85.0024 67.1033 84.8248 66.7752C82.7544 69.058 80.5123 71.0743 78.1131 72.9047C75.6963 74.7486 73.0497 76.2216 70.5455 77.9925C70.3928 77.7485 70.4091 77.5057 70.3974 77.2731C70.2932 75.6854 70.4079 74.1005 70.369 72.5168C70.3235 70.6736 70.7326 68.8745 70.7051 67.0489C70.6779 65.364 71.4354 64.3216 72.6556 63.4523C73.6831 62.7268 74.7066 62.0073 75.783 61.3618C78.0528 60.0029 80.1841 58.4236 82.322 56.8536C84.6623 55.138 87.1388 53.6015 89.1673 51.446C90.0776 50.4807 90.9307 49.4734 91.6927 48.3728C91.289 48.6429 90.9233 48.9584 90.5993 49.3134C89.8464 50.1308 89.1807 51.0473 88.3644 51.7873C85.5689 54.3193 82.3682 56.2769 79.3469 58.4894C77.5549 59.7996 75.6274 60.8784 73.7713 62.0801C72.8627 62.6644 72.0476 63.3833 71.1104 64.0301C71.1162 63.784 71.0961 63.6155 71.1229 63.4595C71.4736 61.1649 71.8299 58.8746 72.1758 56.5809C72.1999 56.4097 72.1825 56.2564 72.3906 56.1984C73.62 55.8542 74.6441 55.0824 75.7046 54.4032C77.6379 53.1617 79.6043 51.9664 81.4177 50.5533C84.5773 48.0867 87.636 45.4713 90.3137 42.4178C90.4578 42.2513 90.7044 42.1031 90.5824 41.7806C89.8738 42.5119 89.175 43.2153 88.4952 43.9414C86.4278 46.1298 84.0556 47.945 81.7535 49.8468C80.5849 50.8112 79.2466 51.5191 78.0101 52.3809C76.5162 53.4137 75.0043 54.4289 73.4199 55.3162C73.0854 55.5009 72.7332 55.6419 72.2975 55.6205C72.5648 53.805 72.9159 52.0423 73.3043 50.2938C73.5364 49.2564 73.7944 48.2247 74.0897 47.2073C74.6634 45.2172 75.6261 43.3768 76.1148 41.355C76.3902 40.2264 76.8184 39.3417 77.9197 38.7804C78.9167 38.2742 79.7412 37.4128 80.6634 36.7374C83.7998 34.4471 86.6846 31.8313 89.5827 29.234C90.2164 28.6674 90.7973 28.0267 91.186 27.2273C89.1282 29.4975 86.7202 31.3347 84.4259 33.3081C82.1451 35.2739 77.8197 38.4697 77.0516 38.617C77.2358 37.9792 77.3701 37.3399 77.6767 36.7481C78.5995 34.9618 79.3923 33.1152 80.1242 31.2325C80.3836 30.5709 80.606 29.7855 81.206 29.3917C83.8859 27.6313 86.3934 25.6564 88.5863 23.2526C89.0387 22.7548 89.4854 22.0859 89.4867 21.6476C87.1311 24.5028 84.4926 26.8295 81.2874 28.6784C82.3943 25.6129 84.2452 23.2126 85.5631 20.4954C86.1555 19.279 86.9121 18.1481 87.4883 16.9242C88.2062 15.4091 88.7819 13.8202 89.4788 12.2983C89.8859 11.407 90.2731 10.488 91.0688 9.63172C90.9773 10.7067 90.8679 11.5971 90.8286 12.4907C90.7672 13.9566 90.7653 15.4224 90.7143 16.8917C90.6677 18.2455 91.1108 19.5902 90.8317 20.9489C90.8215 21.0029 90.8989 21.4376 91.1897 21.4536C91.5256 21.472 91.48 21.188 91.5182 20.957C91.5625 20.704 91.5199 20.4091 91.7996 20.1402C91.9899 21.4309 92.2464 22.6473 92.3299 23.8684C92.4614 25.8319 92.9535 27.7572 92.9331 29.7321C92.9324 30.0347 93.1549 30.2246 93.3353 30.3176C93.51 30.4064 93.5398 30.0725 93.6631 29.9567C93.769 29.8544 93.8268 29.6772 94.0178 29.6901C94.1572 29.9155 94.1478 30.1415 94.1517 30.3859C94.154 31.6527 93.9014 32.8816 93.7868 34.1328C93.6022 36.1057 93.4119 38.0744 93.2322 40.0464C93.2044 40.3642 93.3787 40.7295 93.6386 40.6832C94.0523 40.6095 93.9588 40.8087 93.9828 41.0547C94.0412 41.7171 93.8152 42.3154 93.7194 42.9478C93.3971 45.0391 92.8565 47.0755 92.3772 49.1218C92.2236 49.7645 92.4488 50.1364 93.135 50.1705C92.6944 51.3755 92.2923 52.5736 91.8244 53.7365C91.0074 55.7543 90.369 57.855 89.2923 59.7522C89.2471 59.8333 89.1689 59.8681 89.2465 59.969C90.0314 61.0025 89.3687 61.8246 88.8272 62.5469C87.5803 64.2137 86.6918 66.1087 85.6012 67.8728C85.4045 68.1894 85.4873 68.7379 85.5628 68.7714C86.0201 68.9976 85.7584 69.2841 85.6402 69.4564C84.4991 71.1043 83.2649 72.675 81.7781 73.9986C81.5597 74.194 81.3492 74.3775 81.4808 74.7817C81.6271 75.2406 81.4592 75.719 81.1644 76.0428C80.459 76.8203 79.7185 77.5677 78.8493 78.1502C77.3499 79.1527 75.6297 79.7513 74.2076 80.8809C74.0167 81.0349 73.8233 80.9807 73.6339 81.004L73.6233 81.0007ZM115.706 29.2097C115.141 31.7771 114.585 34.3429 113.973 36.8978C113.687 38.1065 113.412 39.3186 113.277 40.5681C113.123 41.988 112.816 43.383 112.729 44.817C111.923 42.8328 111.489 40.7303 110.52 38.8325C111.085 40.8335 111.669 42.826 112.068 44.8722C112.094 45.0187 112.133 45.2934 112.296 45.2853C112.846 45.2499 112.671 45.6357 112.643 45.8962C112.509 47.2343 112.427 48.584 112.186 49.9046C111.91 51.4243 111.934 52.9794 111.664 54.4982L111.658 54.4679C111.562 56.0132 111.481 57.566 111.359 59.1105C111.211 60.9569 111.027 62.7941 110.848 64.7661C108.763 60.0894 107.295 55.3341 106.296 50.4223C106.319 51.0544 106.399 51.6711 106.527 52.2743C107.067 54.8063 107.631 57.329 108.503 59.7707C109.049 61.3057 109.559 62.8575 110.13 64.3882C110.433 65.1998 111.009 65.9212 110.904 66.9204C110.715 68.7272 110.693 70.5564 110.513 72.3615C110.417 73.3277 110.398 74.3325 109.973 75.2374C110.129 75.4704 110.067 75.7369 110.052 75.9848C109.993 76.8818 109.915 77.7822 109.846 78.6759C109.677 80.9016 109.408 83.1242 109.433 85.3569C109.459 87.6158 109.293 89.8617 109.324 92.1248C109.363 94.7097 109.331 97.2916 109.563 99.8735C109.634 100.633 109.806 101.379 109.844 102.228C109.592 101.96 109.382 101.674 109.337 101.504C109.188 100.947 108.604 101.093 108.379 100.695C107.64 99.3871 106.709 98.2073 105.991 96.8752C105.067 95.1779 104.024 93.5543 102.826 92.0416C102.159 91.2007 101.91 90.051 101.303 89.1787C100.275 87.7034 99.3628 86.1764 98.6872 84.5028C98.3951 83.783 98.0968 82.9444 98.4001 82.2228C98.5948 81.7553 98.5867 81.4594 98.4623 81.0122C98.1613 79.9081 97.6528 78.8932 97.3343 77.8026C96.9762 76.5731 96.5778 75.3403 96.7604 74.0249C96.7764 73.8916 96.8483 73.6546 96.8733 73.6553C97.8587 73.8083 97.2244 73.1182 97.1781 72.8866C96.716 70.4605 96.6902 68.0035 96.576 65.5519C96.5611 65.1896 96.6204 64.8817 97.068 65.2765C97.2857 65.4672 97.455 65.3588 97.4395 65.0487C97.3826 64.0053 97.321 62.9629 97.2593 61.9204C97.1725 60.4861 97.1251 59.05 97.3185 57.6283C97.3523 57.372 97.3936 57.0465 97.6414 56.9606C97.9307 56.8569 97.964 57.2108 98.0944 57.3857C98.2258 57.5657 98.4125 57.6941 98.6311 57.6395C98.7968 57.5943 98.7385 57.4065 98.7383 57.2658C98.6781 55.1175 98.9662 53.001 99.1986 50.8787C99.2384 50.517 99.1805 49.9693 99.517 49.852C99.8208 49.7457 100.011 50.2281 100.205 50.5116C100.319 50.6739 100.557 50.8139 100.73 50.6946C100.919 50.5616 100.793 50.3547 100.654 50.2127C100.544 50.0967 100.543 49.9559 100.567 49.8109C100.686 49.1118 100.783 48.406 100.917 47.7093C101.174 46.3338 101.947 45.2105 102.528 43.9907C102.875 43.2614 102.871 43.2674 103.424 43.8363C103.631 44.0498 103.913 44.3802 104.061 43.8428C104.505 42.2096 105.214 40.6751 105.615 39.0236C105.792 38.2931 106.12 37.6245 106.736 37.1549C106.952 37.4711 107.119 37.796 107.493 37.9483C107.637 37.4741 107.806 37.0269 107.912 36.5385C108.269 34.8635 108.808 33.2604 109.896 31.9296C110.063 31.7226 110.24 31.4666 110.471 31.8427C110.815 32.4072 110.993 32.0105 111.114 31.7177C111.505 30.7927 112 29.9171 112.571 29.1374C114.135 26.9968 115.457 24.6648 117.106 22.6082C117.366 23.146 117.365 23.7824 117.03 24.9112C116.601 26.3488 116.041 27.7471 115.716 29.208L115.706 29.2097ZM110.632 103.057C110.203 101.095 110.104 99.0939 109.923 97.1027C109.869 96.4918 109.998 96.0202 110.446 95.664C110.829 95.3611 111.1 94.9582 111.407 94.5906C112.567 93.2157 113.763 91.8812 114.87 90.4584C116.458 88.4181 118.322 86.6778 120.191 84.9366C121.021 84.1629 121.882 83.4202 122.421 82.349C117.834 86.3109 113.779 90.7989 109.912 95.733C109.708 94.085 109.75 92.7059 109.802 91.3251C109.851 90.0387 109.991 88.7622 109.875 87.4738C109.844 87.1038 109.973 86.768 110.196 86.4883C112.284 83.832 114.683 81.527 117.309 79.4633C118.389 78.6137 119.473 77.7583 120.402 76.7322C121.355 75.6757 122.305 74.6252 123.356 73.6712C123.904 73.1773 124.469 72.6699 124.776 71.9424C124.16 72.4432 123.573 72.9651 123.017 73.5231C120.891 75.6594 118.809 77.8505 116.415 79.6801C114.632 81.0408 113.071 82.6748 111.502 84.2895C110.995 84.8128 110.542 85.394 109.921 86.1149C109.969 84.7973 109.987 83.699 110.051 82.6081C110.123 81.3958 110.225 80.1885 110.328 78.9812C110.413 77.9543 110.248 76.8363 111.212 76.1169C111.261 76.0822 111.269 75.992 111.303 75.9287C111.949 74.6768 112.786 73.5524 113.7 72.5289C115.555 70.4565 117.49 68.469 119.671 66.7556C121.244 65.5211 122.612 64.036 124.021 62.6064C124.504 62.1135 124.932 61.5627 125.401 61.0201C125.214 61.0013 125.116 61.0083 125 61.1385C122.6 63.8818 119.779 66.1315 117.103 68.5536C115.751 69.7749 114.442 71.0617 113.253 72.4678C112.319 73.5782 111.431 74.7272 110.6 75.9393C110.656 75.1679 110.711 74.4175 110.903 73.6845C111.297 72.1906 111.29 70.6481 111.379 69.1146C111.425 68.3399 111.221 67.5002 111.681 66.8236C112.377 65.7974 113.117 64.7997 113.888 63.8331C115.736 61.5273 117.657 59.2971 119.836 57.3131C121.241 56.0353 122.546 54.6397 123.982 53.393C124.416 53.0132 125.004 52.6895 125.102 51.9053C120.285 56.3829 115.459 60.7527 111.616 66.2094C111.445 65.9165 111.464 65.6889 111.462 65.4546C111.478 63.2875 111.904 61.1672 111.996 59.0075C112.018 58.4351 112.003 57.8224 112.373 57.3079C113.66 55.5298 115.045 53.8331 116.338 52.0591C118.028 49.7344 119.875 47.5331 121.652 45.2764C121.765 45.131 121.992 45.0124 121.827 44.7237C118.46 48.4527 115.64 52.658 112.378 56.4726C112.122 56.148 112.218 55.9067 112.237 55.6791C112.432 53.4853 112.575 51.2799 112.871 49.0993C112.972 48.3564 112.868 47.5771 113.589 46.8593C114.727 45.723 115.537 44.2227 116.506 42.8923C117.554 41.4486 118.487 39.9109 119.632 38.5386C119.816 38.318 120.183 38.2318 120.145 37.7641C117.563 40.3832 115.763 43.6245 113.38 46.4638C112.954 44.078 116.209 28.2439 117.573 25.4246C117.696 26.1693 117.805 26.8382 117.914 27.5021C118.124 28.8205 118.743 30.04 118.841 31.3681C118.872 31.7903 119.142 31.7785 119.317 31.9508C119.631 32.265 119.602 31.681 119.818 31.7259C120.199 32.9149 120.086 34.1762 120.443 35.3694C120.731 36.3455 121.024 37.3518 121.063 38.3514C121.086 38.9211 121.378 39.0879 121.662 39.1469C122.002 39.2167 122.046 39.3236 122.082 39.6354C122.292 41.4857 122.199 43.3588 122.678 45.1822C122.804 45.6657 123.252 45.8152 123.49 45.6737C123.908 45.4272 123.853 45.7291 123.877 45.9229C124.065 47.4226 124.389 48.9085 124.403 50.434C124.411 51.3713 124.73 51.6013 125.643 51.4283C126.028 51.3597 126.148 51.479 126.25 51.8571C126.65 53.3192 126.396 54.7621 126.113 56.1579C125.967 56.8723 126.375 56.8727 126.664 57.1028C126.739 57.1624 126.888 57.1047 126.998 57.1111C127.88 57.1573 128.202 57.4859 128.194 58.3895C128.189 59.8139 127.92 61.1971 127.593 62.5694C127.409 63.348 127.162 64.1065 126.957 64.8783C126.784 65.5506 126.969 65.8097 127.618 65.7984C127.801 65.797 127.769 65.9489 127.807 66.0255C127.934 66.2897 127.807 66.5261 127.727 66.775C127.486 67.4855 127.082 68.1104 126.809 68.8108C126.41 69.8311 126.189 70.9292 125.615 71.8867C125.37 72.2954 125.112 72.8837 125.729 73.2535C126.545 73.734 126.584 73.873 126.261 74.786C125.992 75.5378 125.392 76.0411 125.083 76.7585C124.691 77.6784 124.324 78.6253 123.808 79.463C123.477 80.0017 123.714 80.387 124.011 80.5741C124.379 80.8006 124.396 81.0374 124.382 81.3788C124.358 82.2175 123.856 82.7711 123.346 83.3104C122.16 84.5649 120.931 85.7747 120.008 87.2795C119.749 87.6959 119.915 88.1775 120.15 88.2189C120.581 88.2935 120.351 88.5378 120.354 88.6676C120.356 88.9803 120.188 89.2395 120.02 89.4938C119.47 90.3324 118.612 90.7876 117.896 91.4211C116.28 92.8564 114.787 94.4472 113.958 96.5662C113.399 98.0008 112.704 99.3919 112.466 100.952C112.273 102.238 111.779 102.811 110.61 103.045L110.632 103.057ZM114.537 118.288C114.719 118.61 114.891 118.96 114.882 119.358C114.879 119.51 114.972 119.723 114.743 119.774C114.585 119.808 114.413 119.76 114.308 119.617C114.21 119.488 114.152 119.327 114.085 119.177C113.24 117.273 112.593 115.318 112.19 113.251C111.919 111.866 111.502 110.501 111.242 109.102C111.101 108.335 111.054 107.545 110.765 106.814C110.503 106.152 110.458 105.534 110.562 104.811C110.681 103.977 111.079 103.671 111.927 103.583C111.386 105.035 111.548 106.498 111.874 107.853C112.412 110.067 112.618 112.335 113.243 114.534C113.605 115.815 113.876 117.112 114.537 118.283L114.537 118.288ZM139.067 116.451C139.437 115.77 139.53 114.929 140.132 114.379C139.752 115.057 139.762 115.952 139.067 116.451ZM131.957 133.16C131.686 133.198 131.388 132.865 131.295 132.621C131.194 132.363 130.716 132.213 130.956 131.889C132.297 130.054 133.12 127.905 134.201 125.918C135.174 124.133 136.166 122.35 136.934 120.445C137.507 119.034 138.486 117.869 139.059 116.463C139.1 116.664 139.12 116.833 139.016 117.055C137.622 120.015 136.206 122.964 134.894 125.961C133.962 128.088 133.194 130.296 132.343 132.46C132.241 132.718 132.205 133.132 131.958 133.165L131.957 133.16ZM145.869 159.025C146.535 158.468 147.137 157.641 148.107 157.317C148.73 157.107 149.238 157.366 149.282 157.978C149.319 158.52 149.306 159.085 148.991 159.548C148.205 160.71 147.155 161.528 145.856 161.958C145.463 162.091 145.029 161.97 144.744 161.598C144.441 161.204 144.627 160.826 144.849 160.484C145.153 160.018 145.486 159.573 145.869 159.025V159.025ZM114.06 150.347C113.998 150.332 113.95 150.345 113.904 150.364C113.867 150.292 113.836 150.235 113.832 150.21C113.819 150.223 113.811 150.094 113.813 149.994C113.878 150.051 113.963 150.082 114.066 150.048C115.492 149.58 116.342 149.643 117.558 148.639C118.735 147.662 119.866 146.631 121.049 145.664C123.194 143.911 125.853 142.868 127.599 140.659C127.615 140.635 127.621 140.613 127.632 140.591C127.923 140.554 128.104 140.538 128.095 140.544C128.173 140.51 128.25 140.47 128.306 140.449C128.479 140.387 128.665 140.37 128.846 140.385C127.892 141.691 126.376 142.295 125.075 143.21C124.079 143.915 123.177 144.759 122.277 145.592C121.097 146.683 119.894 147.706 118.59 148.632C117.228 149.6 115.816 150.727 114.06 150.347V150.347ZM99.3682 137.549C100.942 135.068 102.636 132.654 103.01 129.458C103.307 126.944 102.978 124.708 101.793 122.546C101.581 122.161 101.637 122.005 101.954 121.834C103.513 120.972 105.136 120.355 106.881 119.95C107.986 119.69 108.777 120.201 109.508 120.681C112.206 122.448 114.639 124.622 117.108 126.722C118.799 128.162 120.463 129.644 122.134 131.109C123.857 132.617 125.182 134.477 126.775 136.091C127.103 136.424 127.341 136.846 127.606 137.242C127.959 137.779 127.863 138.103 127.282 138.269C126.328 138.544 125.349 138.729 124.407 139.043C122.021 139.833 119.792 141.007 117.549 142.126C117.402 142.22 117.258 142.33 117.115 142.449C116.943 142.626 116.54 143.01 116.515 143.036C116.398 143.161 115.219 144.649 114.982 144.936C114.096 146.007 113.419 147.222 112.612 148.352C112.27 148.83 109.472 147.78 108.375 148.142C106.828 148.653 105.133 148.501 103.51 148.644C102.831 148.708 102.151 149.183 101.507 148.912C100.224 148.369 98.8773 148.166 97.5491 147.844C95.3123 147.299 93.08 146.612 90.7675 146.701C89.8212 146.739 88.7323 146.646 88.1583 147.771C88.1249 147.834 87.9994 147.883 87.9149 147.882C87.1289 147.845 86.3395 148.095 85.3586 147.8C87.4282 147.38 89.7422 146.352 91.7378 144.958C93.1544 143.965 94.6323 143.066 95.7619 141.66C96.908 140.235 98.4061 139.087 99.374 137.553L99.3682 137.549ZM97.3215 152.25C97.3084 151.898 96.9631 152.189 96.7667 152.146C96.7303 152.136 96.7021 152.089 96.6717 152.058C97.0307 151.175 97.1648 151.12 97.499 150.962C98.5236 150.471 99.6402 150.246 100.747 149.992C103.337 149.4 105.979 149.211 108.617 148.944C109.617 148.844 110.597 148.659 111.676 149.228C110.2 150.278 109.18 151.654 108.123 152.995C107.102 154.288 105.823 155.329 104.76 156.578C103.782 157.722 102.689 158.438 101.188 158.68C97.7424 159.236 94.5974 160.699 91.5084 162.308C89.4552 163.378 87.2886 164.202 85.254 165.321C85.1409 165.383 85.0359 165.49 84.8907 165.344C84.7028 165.153 84.874 165.055 84.9609 164.93C85.0196 164.841 85.083 164.752 85.1504 164.656C83.9895 164.159 84.1978 163.434 84.9122 162.873C85.4529 162.454 85.9466 161.964 86.4976 161.574C87.7304 160.692 88.8136 159.638 89.9574 158.647C90.2621 158.379 90.4063 158.046 90.007 157.7C89.4671 157.233 89.8052 156.818 90.1799 156.636C91.2019 156.131 92.1174 155.446 93.1346 154.941C94.4164 154.306 95.6879 153.642 96.9698 153.006C97.2894 152.85 97.3479 152.454 97.3425 152.257L97.3215 152.25ZM128.229 138.565C128.453 138.457 128.704 138.418 128.813 138.81C128.904 139.149 128.926 139.416 128.55 139.535C128.118 139.669 127.688 139.793 127.253 139.917C126.109 140.236 124.895 140.082 123.758 140.415C121.862 140.977 120.177 141.992 118.744 143.369C116.895 145.143 114.967 146.858 113.567 149.084C113.373 149.39 113.211 149.179 113.056 149.112C112.807 149 112.96 148.853 113.068 148.735C113.176 148.616 113.281 148.509 113.363 148.359C114.367 146.636 115.516 145.034 116.853 143.815C117.392 143.218 117.765 142.667 118.395 142.471C119.03 142.275 119.611 141.968 120.192 141.661C121.612 140.907 123.027 140.159 124.585 139.736C125.816 139.402 127.069 139.132 128.229 138.565ZM119.55 143.548C120.643 142.576 121.909 141.908 123.269 141.436C124.2 141.113 125.698 140.857 126.777 140.701C125.087 142.551 122.666 143.567 120.73 145.153C119.617 146.066 118.548 147.033 117.446 147.954C116.681 148.591 116.197 148.97 115.182 149.203C114.805 149.291 114.439 149.325 114.07 149.427C114.343 149.008 114.76 148.428 114.975 148.155C116.344 146.451 117.935 144.989 119.551 143.553L119.55 143.548ZM78.7896 199.609C79.9851 197.738 80.9654 195.717 82.1429 193.828C83.1892 192.15 84.1564 190.418 85.1523 188.708C85.6424 187.864 85.9256 186.891 86.3823 186.027C87.278 184.339 88.2861 182.726 89.1475 181.013C89.9135 179.489 90.7617 178.008 91.6621 176.57C92.2875 175.567 92.7834 174.477 93.4317 173.491C94.9894 171.117 96.3977 168.628 98.1268 166.38C98.8924 165.383 99.3826 164.206 100.12 163.162C100.369 163.503 100.31 163.869 100.322 164.211C100.36 165.706 100.388 167.203 100.422 168.699C100.49 171.982 100.108 175.185 99.2401 178.338C98.6995 180.291 98.0536 182.211 97.6766 184.218C97.2306 186.618 96.7539 189.013 95.687 191.216C95.4794 191.639 95.0884 191.98 95.0726 192.504C95.2208 192.556 95.2374 192.454 95.2834 192.378C96.3839 190.67 97.1055 188.758 97.4738 186.757C98.1234 183.215 99.2628 179.831 100.087 176.351C100.349 175.257 100.581 174.136 100.653 173.007C100.777 170.972 100.779 168.922 100.732 166.875C100.702 165.593 100.796 164.309 100.698 163.033C100.652 162.441 100.828 162.066 101.153 161.69C102.358 160.286 103.455 158.781 104.809 157.523C104.933 157.407 104.999 157.14 105.216 157.216C105.428 157.288 105.364 157.544 105.405 157.719C105.7 159.065 105.589 160.425 105.618 161.786C105.672 164.676 105.467 167.539 105.008 170.369C104.712 172.19 104.251 173.977 103.8 175.763C103.194 178.155 102.847 180.637 101.483 182.736C101.456 182.778 101.464 182.849 101.44 183.02C102.083 182.421 102.445 181.751 102.696 181.018C103.63 178.343 104.11 175.525 104.879 172.791C105.43 170.815 105.657 168.772 105.821 166.709C105.966 164.905 105.972 163.1 106.057 161.296C106.124 159.829 106.12 158.333 105.691 156.897C105.617 156.654 105.705 156.534 105.828 156.413C106.855 155.406 107.918 154.435 108.855 153.23C109.392 155.189 109.876 157.069 110.266 158.976C110.961 162.346 111.137 165.647 109.846 168.907C109.411 170.002 109.017 171.162 108.918 172.389C109.53 170.726 110.107 169.059 110.613 167.357C111.103 165.705 111.183 164.038 111.011 162.348C110.722 159.505 110.158 156.7 109.405 153.951C109.133 152.951 109.331 152.363 109.984 151.741C110.617 151.138 111.109 150.393 111.785 149.839C112.348 149.374 112.821 149.577 112.955 150.278C113.028 150.656 113.201 151.016 113.593 151.155C113.806 151.232 113.933 151.36 114.035 151.571C114.612 152.746 115.055 153.982 115.39 155.247C115.733 156.557 115.768 157.896 115.777 159.256C115.783 160.657 115.764 162.053 115.729 163.447C115.708 164.415 115.554 165.361 115.203 166.289C114.969 166.091 114.873 165.691 114.61 165.831C114.393 165.948 114.492 166.311 114.523 166.567C114.612 167.317 114.646 168.067 114.643 168.829C114.63 169.953 114.347 171.01 114.167 172.09C113.978 173.203 113.849 174.348 113.35 175.532C113.025 174.599 112.837 174.966 112.643 175.433C111.911 177.175 111.178 178.917 110.424 180.647C110.259 181.026 110.131 181.451 109.803 181.728C109.669 181.841 109.565 182.01 109.37 181.753C109.019 181.284 108.754 181.305 108.651 181.84C108.366 183.33 107.69 184.639 107.009 185.939C106.338 187.217 105.732 188.555 104.723 189.606C104.609 189.72 104.509 189.994 104.306 189.717C103.89 189.165 103.804 189.629 103.622 189.917C102.961 190.973 102.434 192.11 101.711 193.126C101.045 194.063 100.327 194.968 99.7248 195.962C99.3184 196.634 98.8374 197.278 98.1483 197.813C98.1896 197.32 98.1946 196.902 97.8022 196.706C97.3716 196.491 97.1604 196.894 96.9144 197.157C96.5721 197.52 96.2487 197.906 95.8694 198.229C94.4416 199.438 92.9958 200.629 91.5168 201.858C91.3317 201.515 91.6081 201.2 91.3047 201.03C91.1274 200.926 90.9959 201.08 90.8786 201.173C89.3338 202.367 87.7551 203.508 86.0276 204.4C85.3223 204.761 84.6269 205.177 83.7954 205.33C83.8455 204.914 83.8967 204.561 83.9286 204.211C83.9407 204.084 84.0195 203.913 83.8698 203.825C83.7249 203.736 83.6052 203.873 83.4987 203.944C82.8701 204.4 82.2574 204.89 81.6165 205.332C80.4372 206.153 79.2708 207.018 77.8029 207.222C77.6625 207.242 77.5112 207.451 77.3805 207.136C77.0322 206.295 77.0129 206.299 76.2352 206.782C75.9672 206.949 75.6821 207.104 75.4405 207.309C74.4007 208.188 73.1193 208.547 71.8935 209.078C72.6442 208.444 73.0889 207.541 73.8367 206.917C74.757 206.148 75.2818 205.053 75.934 204.061C76.903 202.59 77.8482 201.097 78.7953 199.614L78.7896 199.609ZM75.4071 178.038C75.9473 177.337 76.7473 176.923 77.2248 176.175C78.2109 174.633 79.4252 173.285 80.5037 171.815C80.8268 171.372 80.801 171.032 80.3377 170.745C79.6675 170.327 79.6237 170.22 80.1777 169.652C81.9296 167.838 83.838 166.262 86.148 165.24C88.7708 164.079 91.3675 162.855 93.9567 161.616C96.1296 160.577 98.3506 159.696 100.732 159.355C101.26 159.282 101.749 158.986 102.366 159.08C102.277 159.247 102.227 159.386 102.145 159.484C100.729 161.145 99.6048 163.029 98.4355 164.881C98.2652 165.151 98.0841 165.527 97.8345 165.603C96.461 166.03 95.1807 166.702 93.8201 167.174C91.4154 167.999 89.1892 169.24 86.9276 170.394C85.1808 171.29 83.5365 172.37 81.8772 173.422C81.1903 173.857 80.4597 174.243 79.9101 174.92C85.3137 171.422 90.9333 168.413 97.1056 166.583C97.077 166.645 97.0481 166.734 97.0012 166.805C95.9281 168.472 94.8598 170.138 93.7647 171.794C93.5145 172.172 93.3375 172.683 92.8741 172.813C91.2459 173.26 89.725 173.974 88.2294 174.746C86.2023 175.796 84.2242 176.925 82.308 178.18C80.1509 179.586 78.0825 181.128 75.9886 182.638C75.6147 182.908 75.2655 183.205 74.904 183.489C76.0917 182.854 77.2141 182.133 78.2686 181.309C79.7863 180.131 81.4134 179.121 83.0195 178.105C84.6479 177.074 86.3264 176.102 88.0885 175.293C89.5387 174.628 90.9904 173.999 92.5777 173.518C92.414 173.881 92.3047 174.187 92.1507 174.465C91.1052 176.315 90.0444 178.162 88.9932 180.008C88.8756 180.211 88.7405 180.345 88.5249 180.472C87.317 181.188 86.0064 181.661 84.7249 182.187C81.4691 183.528 78.5772 185.436 76.0187 187.905C75.8409 188.078 75.6839 188.283 75.4965 188.457C75.3227 188.624 75.101 188.773 75.0811 189.079C78.785 185.321 83.2678 183.036 88.1532 181.451C88.1298 181.57 88.1333 181.673 88.0873 181.749C86.8839 183.716 85.9581 185.847 84.8816 187.885C83.7344 190.056 82.4537 192.146 81.1997 194.247C80.6296 195.198 80.1431 196.229 79.2029 196.887C78.1688 197.603 77.0437 198.142 75.9796 198.801C74.6746 199.613 73.4358 200.517 72.3604 201.642C73.4979 200.949 74.5722 200.152 75.7115 199.47C76.8324 198.795 78.0192 198.24 79.1768 197.632C76.2625 202.422 73.4703 207.285 68.9388 210.856C69.0354 210.646 69.0757 210.566 69.1064 210.488C70.0871 208.107 71.2445 205.799 71.6163 203.177C71.673 202.771 71.861 202.377 71.3715 202.11C71.1731 201.999 71.3325 201.835 71.3719 201.75C71.9039 200.696 72.225 199.601 72.2404 198.378C72.2509 197.573 72.3611 196.771 72.3063 195.962C72.277 195.518 72.1213 195.202 71.6202 195.51C71.5177 195.576 71.4175 195.599 71.2988 195.489C71.3827 195.208 71.4697 194.917 71.5519 194.626C72.2382 192.292 72.5092 189.829 73.5265 187.598C73.6724 187.275 73.5884 186.748 73.3111 186.724C72.5849 186.661 73.0493 186.286 73.0894 186.065C73.2131 185.422 73.5889 184.912 73.9198 184.373C74.4944 183.447 75.029 182.491 75.5246 181.511C75.6534 181.258 75.5049 180.899 75.8862 180.727C76.1711 180.598 76.041 179.98 75.7355 179.825C74.8621 179.381 74.7871 178.821 75.4034 178.018L75.4071 178.038ZM43.4631 174.985C48.8514 175.386 53.8501 173.405 59.1888 172.553C56.8972 174.207 54.5956 175.499 52.1463 176.519C54.5154 175.941 56.6096 174.738 58.6915 173.523C59.0464 173.313 59.4572 173.084 59.5505 172.66C59.6216 172.335 59.7699 172.303 60.0053 172.204C62.448 171.174 65.0895 170.787 67.5154 169.635C69.3415 168.767 71.1987 167.878 73.1501 167.295C73.843 167.088 74.4599 166.65 75.2854 166.518C73.8044 168.655 72.4158 170.696 70.8329 172.595C69.2383 174.511 67.2752 175.92 65.3484 177.421C65.8865 176.986 66.5184 176.743 67.0826 176.371C69.5089 174.776 71.3198 172.513 73.1307 170.251C74.2389 168.864 75.0903 167.262 76.461 166.095C77.8365 164.927 79.4956 164.459 81.2406 163.637C80.5524 165.319 79.7852 166.697 78.92 167.999C77.5533 170.052 76.3896 172.241 75.0514 174.315C73.9431 176.035 72.9545 177.786 71.0339 178.681C71.4597 178.814 71.4606 178.819 71.7063 178.666C72.8489 177.946 73.7318 176.939 74.4493 175.783C75.6758 173.807 76.9234 171.838 78.0928 169.82C79.2935 167.755 80.9576 165.977 81.6312 163.573C81.6532 163.501 81.7413 163.438 81.8138 163.399C82.5503 162.992 83.2803 162.575 84.1677 162.485C84.1012 162.668 84.0867 162.838 83.9983 162.927C83.4241 163.493 83.4035 164.102 83.8498 164.768C84.0461 165.062 83.81 165.213 83.6584 165.365C83.0508 165.995 82.4366 166.616 81.7475 167.15C80.6969 167.969 79.7317 168.876 79.0169 170.046C78.7936 170.41 78.8095 170.61 79.1583 170.923C79.9098 171.603 80.0128 171.345 79.2277 172.288C79.1371 172.393 79.0712 172.524 78.9864 172.633C77.9961 173.957 77.1263 175.4 75.8721 176.469C74.9971 177.214 74.4625 178.086 74.3076 179.251C74.2784 179.449 74.2903 179.739 73.9921 179.708C73.1738 179.63 72.3614 180.448 71.5301 179.683C71.4589 179.617 71.2643 179.668 71.1353 179.696C69.7514 179.953 68.3506 180.088 66.9466 180.01C66.3699 179.977 65.745 180.036 65.1496 179.704C65.2324 179.611 65.2649 179.543 65.3151 179.518C65.4889 179.435 65.6561 179.343 65.5774 179.096C65.4738 178.765 65.287 179.054 65.1393 179.033C64.7279 178.981 64.3277 179.047 63.9211 179.078C62.2765 179.21 60.6354 179.611 58.9828 179.113C58.6575 179.015 58.0741 179.14 58.2574 178.413C58.2905 178.293 58.1447 178.199 58.0395 178.165C57.5611 178.016 57.1254 177.744 56.604 177.743C54.8081 177.75 53.0376 177.482 51.2695 177.171C50.2652 176.995 49.2528 176.858 48.2548 176.634C47.6188 176.492 47.0545 176.139 46.3767 176.04C45.3681 175.897 44.4102 175.452 43.4535 174.986L43.4631 174.985ZM88.2744 148.673C88.5712 148.667 88.8445 148.697 88.857 148.293C88.8794 147.611 89.3915 147.504 89.8465 147.439C90.6747 147.322 91.5194 147.354 92.3463 147.51C94.2061 147.861 96.0668 148.218 97.9083 148.662C98.5728 148.825 99.3107 148.787 99.94 149.254C99.6314 149.445 99.3499 149.537 99.0381 149.597C97.8685 149.832 96.7579 150.202 96.1568 151.425C96.0102 151.717 95.7931 151.975 95.8128 152.336C95.8209 152.549 95.7444 152.677 95.5493 152.78C94.8623 153.132 94.1913 153.517 93.5119 153.883C92.04 154.678 90.5173 155.382 89.3365 156.416C85.7481 154.193 82.0929 152.262 77.9981 151.292C78.0188 151.492 78.072 151.54 78.1655 151.591C78.9926 152.054 79.8962 152.305 80.7669 152.65C83.0695 153.564 85.2626 154.728 87.4133 155.987C87.9226 156.282 88.3961 156.766 89.0901 156.705C89.02 157.036 88.8443 157.359 89.0874 157.665C89.4121 158.066 89.2361 158.332 88.9416 158.63C88.0347 159.558 86.9379 160.228 85.9838 161.087C85.7062 161.339 85.3733 161.394 85.0094 161.469C84.1343 161.656 83.2769 161.887 82.4618 162.356C81.0705 163.156 79.5518 163.688 78.0631 164.276L78.0871 164.272C77.6405 164.691 77.0697 164.886 76.5398 165.116C73.5022 166.429 70.4262 167.666 67.398 169.004C64.5204 170.267 61.4939 171.057 58.5148 171.974C56.1525 172.702 53.6541 173.002 51.2356 173.61C48.4319 174.313 45.5457 174.358 42.532 174.217C42.8207 174.082 43.0195 174 43.2108 173.903C44.3467 173.341 45.541 172.883 46.5934 172.158C47.5305 171.511 48.3932 170.753 49.3163 170.082C50.7314 169.053 52.1796 168.07 53.589 167.037C54.2516 166.548 54.1994 166.172 53.4453 165.785C53.6372 165.636 53.8297 165.518 53.9957 165.363C55.1658 164.268 56.3358 163.173 57.6799 162.303C58.4048 161.829 59.1287 161.351 59.8319 160.84C60.1565 160.599 60.1247 160.282 59.7964 160.027C59.6812 159.938 59.4674 159.992 59.4311 159.732C60.7454 158.862 62.1157 158.055 63.3753 157.1C64.915 155.934 66.6533 155.186 68.3336 154.308C68.8786 154.023 69.8358 153.962 69.5351 152.832C69.4864 152.642 69.7607 152.593 69.8858 152.571C71.0511 152.368 72.1575 151.947 73.3015 151.681C75.2409 151.225 77.1013 150.466 79.0746 150.146C79.4172 150.09 79.798 149.72 79.6699 149.503C79.376 149.023 79.7927 149.105 79.9293 149.008C80.1714 148.834 80.4649 148.782 80.7641 148.734C83.2607 148.341 85.777 148.727 88.2828 148.693L88.2744 148.673ZM76.8867 145.446C77.0492 145.271 77.2567 145.265 77.407 145.301C78.3187 145.514 79.2047 145.304 80.0915 145.182C80.9687 145.063 81.8646 144.825 82.5996 144.381C84.0147 143.518 85.315 142.458 86.5139 141.274C87.5273 140.275 88.4613 139.164 89.5589 138.275C90.8871 137.204 92.077 135.97 93.123 134.652C95.0142 132.255 97.0912 129.981 98.5724 127.261C99.2986 125.932 100.191 124.641 100.308 123.014C100.326 122.781 100.379 122.746 100.615 122.704C101.067 122.623 101.247 122.909 101.395 123.211C101.635 123.695 101.841 124.206 102.026 124.716C102.385 125.7 102.648 126.701 102.636 127.778C102.618 129.877 102.03 131.787 101.024 133.551C100.151 135.089 99.404 136.719 98.1397 137.982C97.5586 138.565 96.9735 139.154 96.458 139.799C95.3546 141.185 94.1502 142.422 92.6301 143.308C91.3354 144.065 90.3132 145.238 88.8664 145.783C87.2941 146.376 85.7504 147.074 84.0471 147.043C82.6425 147.017 81.2358 146.84 79.8367 146.678C78.7626 146.556 77.7875 146.099 76.8858 145.441L76.8867 145.446ZM99.6796 122.944C99.7421 123.016 99.6639 123.218 99.644 123.357C99.5069 124.398 98.9753 125.259 98.4906 126.133C97.3524 128.187 95.9383 130.03 94.5193 131.873C93.2739 133.493 92.0322 135.133 90.5346 136.479C88.6342 138.184 86.8703 140.042 84.9814 141.756C82.4343 144.066 79.5767 144.94 76.2688 144.179C75.5285 144.009 74.6944 143.98 74.138 143.198C73.3218 142.045 72.5599 140.861 71.9393 139.579C71.4283 138.523 71.2714 137.419 71.2975 136.257C71.3265 134.943 71.6591 133.689 71.9208 132.427C72.1457 131.35 72.26 130.208 72.8493 129.253C74.0662 127.279 75.5667 125.53 76.9225 123.667C78.1387 121.995 79.7692 120.781 81.2386 119.388C81.9096 118.752 82.5335 118.046 83.3885 117.607C84.6165 116.976 85.8003 116.264 87.0481 115.661C88.492 114.961 89.974 114.697 91.463 114.89C93.7087 115.178 95.9052 115.804 97.5511 117.685C98.2161 118.38 98.8636 119.089 99.5451 119.765C99.9248 120.141 100.286 120.468 99.6516 120.92C99.577 120.975 99.5405 121.133 99.5459 121.246C99.5575 121.813 99.2193 122.395 99.6796 122.944V122.944ZM107.626 118.252C108.382 118.18 109.076 117.697 109.882 117.934C110.327 118.063 110.753 118.17 110.97 118.689C111.074 118.937 111.113 119.159 110.965 119.357C110.782 119.609 110.574 119.365 110.421 119.287C109.631 118.891 108.822 118.837 107.961 118.907C107.188 118.972 106.528 119.366 105.775 119.484C103.854 119.79 102.259 120.841 100.768 122.061C100.482 122.295 100.357 122.202 100.26 121.964C100.137 121.668 100.176 121.358 100.457 121.068C100.559 120.998 100.695 120.87 100.857 120.804C101.885 120.386 102.893 119.915 103.853 119.342C105.016 118.65 106.303 118.379 107.626 118.252V118.252ZM62.5876 113.679C62.3576 113.558 61.9652 113.362 62.1434 112.913C62.2057 112.761 62.2632 112.61 62.3254 112.458C62.6537 111.654 63.1585 110.949 63.5154 110.165C64.6154 107.758 66.0901 105.587 67.3017 103.248C68.3551 101.22 70.0683 99.7461 71.1709 98.1051C71.8925 97.335 72.3639 96.693 73.006 96.2292C73.2791 96.0345 73.4782 96.0929 73.4504 96.4107C73.4142 96.7927 73.3573 97.3087 73.1139 97.5033C72.4372 98.0515 71.8747 98.6837 71.326 99.3656C70.3535 100.566 69.3779 101.778 68.6417 103.135C67.6591 104.947 66.3584 106.535 65.4597 108.4C64.6701 110.043 63.7871 111.635 62.9585 113.253C62.8631 113.442 62.8883 113.834 62.5915 113.673L62.5876 113.679ZM48.7563 94.4542C49.1519 93.6379 49.2605 92.659 49.5464 91.7841C50.0168 90.3287 49.7817 88.926 49.5172 87.4973C49.4929 87.3608 49.4496 87.2016 49.3546 87.1143C49.176 86.9479 48.9331 86.6992 49.0282 86.5362C49.1545 86.3259 49.4787 86.2786 49.7545 86.266C50.6115 86.228 51.4989 86.3045 52.3232 86.1107C53.7571 85.7717 54.6343 86.7105 55.3822 87.6203C55.9795 88.3535 56.6491 88.9069 57.3805 89.418C59.2217 90.6961 61.2853 91.5226 63.2487 92.5391C64.8293 93.3578 66.4231 94.195 68.0705 94.8871C68.3065 94.9858 68.5197 95.0678 68.6463 95.3321C68.2024 95.5155 67.7399 95.4832 67.3017 95.5873C65.1918 96.0885 63.2868 97.1268 61.3175 97.9992C60.2083 98.4889 59.2092 99.2615 58.0823 99.7074C55.7726 100.62 53.6874 101.956 51.5213 103.145C51.3541 103.238 51.1553 103.403 51.0748 103.147C50.9306 102.672 50.5502 102.515 50.2318 102.233C48.8083 100.959 47.4423 99.6166 46.0918 98.3344C47.4516 97.4402 48.0603 95.8976 48.7533 94.4651L48.7563 94.4542ZM69.7907 95.6809C70.4249 95.3958 71.0228 95.3518 71.6432 95.2674C71.9827 95.2225 72.3378 95.3209 72.3819 95.8189C71.1518 96.2154 69.8263 96.1596 68.6357 96.7212C68.0447 96.9986 67.42 97.1985 66.8149 97.4524C65.5681 97.9771 64.2562 98.3882 63.092 99.0702C61.4336 100.044 59.6947 100.844 58.0111 101.759C56.31 102.688 54.483 103.384 52.8219 104.426C51.7731 105.087 52.1184 104.963 51.5286 103.994C51.3525 103.702 51.5026 103.68 51.6818 103.628C52.338 103.438 52.8734 102.988 53.4743 102.682C55.0481 101.875 56.6184 101.048 58.2268 100.323C59.9549 99.5458 61.4888 98.3755 63.3089 97.7799C64.6547 97.3367 65.8836 96.5441 67.3159 96.3357C68.1673 96.2101 69.0511 96.0161 69.7955 95.6801L69.7907 95.6809ZM67.6564 101.506C66.8641 102.575 66.4493 103.87 65.7517 104.969C64.2234 107.369 62.8927 109.875 61.7021 112.47C61.641 112.601 61.591 112.766 61.4169 112.625C60.7234 112.076 59.8799 112.107 59.096 111.886C57.373 111.411 55.6421 111.365 53.9133 111.637C53.3245 111.731 53.2565 111.629 53.3746 111.065C53.803 109.012 53.5155 107.092 52.2027 105.381C53.4325 104.76 54.5361 103.933 55.8091 103.471C56.8488 103.093 57.8463 102.618 58.7781 102.024C59.9006 101.303 61.1438 100.841 62.2963 100.177C63.6741 99.3837 65.1844 98.8329 66.6533 98.2165C68.1221 97.6002 69.5891 96.9737 71.1983 96.8381C71.2428 96.8928 71.2921 96.9466 71.3366 97.0012C70.5752 97.8827 69.813 98.7591 69.0573 99.6447C68.552 100.235 68.1218 100.886 67.6573 101.511L67.6564 101.506ZM37.8364 129.286C38.5964 128.927 39.2553 128.418 39.9288 127.907C41.7193 126.561 43.505 125.215 44.9573 123.475C45.8338 122.432 46.8195 121.5 47.7736 120.559C48.9473 119.4 49.882 118.071 50.8711 116.768C51.7071 115.665 52.1224 114.318 52.7371 113.087C52.9495 112.664 53.1511 112.346 53.6854 112.392C54.0231 112.42 54.3606 112.308 54.701 112.268C56.4665 112.063 58.1831 112.503 59.913 112.794C60.2811 112.854 60.6268 113.095 60.9813 113.245C61.5346 113.481 61.6009 113.964 61.9262 114.23C61.6883 114.538 63.3338 116.445 63.7089 117.38C64.0866 118.33 64.0968 119.334 64.339 120.303C64.6694 121.6 64.7277 122.93 64.536 124.278C64.33 125.712 63.8665 127.067 63.6165 128.478C63.1455 131.128 61.8272 133.314 60.4307 135.45C59.8371 136.354 58.9303 137.032 58.1768 137.818C56.2421 139.832 54.0269 141.441 51.6172 142.768C50.1432 143.578 48.6281 144.297 46.956 144.553C45.6178 144.76 44.2896 144.689 43.0304 144.058C42.3268 143.704 41.6819 143.261 41.1914 142.43C41.1439 143.362 41.6543 144.303 42.3449 144.613C43.0088 144.912 43.6974 145.154 44.3832 145.382C45.0011 145.59 45.6504 145.583 46.2702 145.468C47.7552 145.193 49.1875 144.818 50.5785 144.126C53.3277 142.755 55.8574 141.1 58.0385 138.88C59.2952 137.603 60.677 136.47 61.5579 134.811C62.1786 133.642 62.9662 132.573 63.4191 131.298C63.9665 129.746 64.178 128.091 64.6509 126.511C64.8809 125.739 65.0131 124.949 65.1435 124.149C65.3962 122.586 65.0451 121.09 64.8086 119.567C64.5669 117.988 64.3993 116.407 63.1378 115.234C63.1998 115.192 63.2674 115.154 63.3294 115.111C63.8413 115.755 64.3406 116.412 64.8661 117.049C66.1795 118.624 67.0712 120.452 67.7966 122.378C68.1196 123.243 67.8866 124.192 68.0761 125.06C68.7494 128.143 68.4293 131.11 67.5092 134.053C66.8826 136.053 65.6378 137.62 64.4189 139.193C62.9133 141.136 61.0136 142.621 59.0315 144.007C57.9587 144.756 56.7726 145.26 55.6528 145.913C52.0404 148.012 48.2577 148.263 44.413 146.524C42.431 145.625 40.7759 144.194 39.3065 142.495C38.2805 141.306 37.4699 140.017 37.1816 138.483C36.8453 136.707 36.8359 134.899 37.1527 133.111C37.35 132.017 37.6738 130.937 37.5692 129.793C37.5452 129.547 37.618 129.398 37.8373 129.291L37.8364 129.286ZM21.5835 126.17C22.1112 126.373 22.4305 126.493 22.7459 126.62C23.7523 127.03 24.7582 126.741 25.7644 126.676C27.6259 126.564 29.4636 126.346 31.1292 125.413C31.626 125.136 32.0817 124.768 32.5963 124.536C33.6805 124.045 34.6366 123.338 35.6436 122.72C36.6195 122.124 37.5252 121.384 38.4116 120.647C39.7567 119.531 41.3398 118.832 42.7228 117.761C44.9732 116.015 47.0895 114.157 48.7557 111.779C49.7921 110.296 50.9229 108.868 51.2277 106.958C51.2599 106.748 51.2775 106.485 51.4781 106.329C51.674 106.649 52.0942 106.443 52.3268 106.829C53.0389 108.012 52.8813 109.244 52.7417 110.495C52.6453 111.346 52.1114 112.724 51.9216 113.108C51.4799 114 51.1326 114.948 50.6461 115.812C49.7803 117.333 48.6435 118.615 47.4229 119.844C45.5162 121.764 43.7603 123.834 41.6952 125.59C39.2032 127.708 36.5451 129.423 33.3435 130.15C31.7788 130.507 30.1949 130.617 28.6349 130.415C26.8975 130.193 25.2534 129.464 23.7976 128.398C23.015 127.823 22.2845 127.15 21.5883 126.169L21.5835 126.17ZM25.969 102.056C27.3361 100.702 28.7402 99.3875 30.5796 98.7051C32.3254 98.055 34.0534 97.4446 35.9446 97.2484C37.8608 97.0529 39.7391 96.8955 41.656 97.2892C42.9493 97.5542 44.0991 98.1003 45.2407 98.7677C46.4385 99.4721 47.2468 100.637 48.3637 101.445C49.0294 101.92 49.6628 102.522 50.1323 103.262C50.3199 103.563 50.5266 104.11 50.7031 104.292C50.7295 104.496 50.7436 104.687 50.7808 104.868C51.1812 106.669 50.5634 108.244 49.6473 109.622C48.5349 111.291 47.3108 112.892 45.8541 114.272C44.9033 115.177 43.9498 116.067 42.8977 116.849C41.6393 117.782 34.6386 122.764 32.2292 124.064C31.1922 124.624 30.1916 125.277 29.0121 125.456C26.8418 125.786 24.676 126.307 22.4509 125.661C21.6757 125.434 20.7015 125.232 20.6248 125.136C19.7281 123.976 19.1484 122.645 18.5419 121.304C17.7624 119.576 17.6765 117.896 18.2676 116.143C18.4099 115.716 18.4777 115.261 18.5933 114.823C18.8934 113.721 18.888 112.549 19.303 111.479C19.8883 109.971 20.9084 108.731 21.6205 107.295C21.9274 106.677 22.314 106.061 22.77 105.5C23.7612 104.264 24.8651 103.16 25.9748 102.06L25.969 102.056ZM16.6622 99.3339C17.7293 99.8895 18.822 100.06 19.8357 99.9261C21.3688 99.7259 22.8767 99.3007 24.3906 98.9371C26.2713 98.4872 28.0262 97.7208 29.8306 97.0654C30.8895 96.6838 31.8959 96.1185 32.9767 95.832C34.9967 95.3 36.6227 94.0611 38.2105 92.8029C39.1673 92.0431 40.1532 91.3355 41.1382 90.6228C42.7867 89.4268 44.5835 88.4495 45.9873 86.9112C46.1449 86.7371 46.307 86.6717 46.5864 86.7627C46.9451 86.8813 47.3567 86.9071 47.7365 86.8654C48.3308 86.8013 48.8257 87.099 48.9196 87.7654C49.1237 89.1893 49.3582 90.5608 48.9374 92.0438C48.3802 94.0153 47.5711 95.771 46.3122 97.3147C46.0268 97.6629 45.5512 98.0031 45.2476 97.7756C44.6965 97.3576 44.0798 97.2119 43.4886 97.0148C42.294 96.6071 41.0681 96.2467 39.7997 96.2328C38.0685 96.2128 36.3532 96.3933 34.6547 96.696C32.0372 97.1624 29.6168 98.0944 27.5201 99.8396C25.821 101.253 24.231 102.778 22.7736 104.461C22.5146 104.763 22.272 104.738 21.9893 104.601C19.6706 103.512 17.6029 102.134 16.6565 99.3297L16.6622 99.3339ZM46.5959 83.7519C46.0858 84.26 45.8991 85.0234 45.7729 85.6248C45.5176 86.8385 44.6348 87.5121 43.8847 88.0108C42.2209 89.1208 40.591 90.2822 38.9422 91.4209C37.5984 92.3488 36.4253 93.5382 34.9417 94.2668C33.8057 94.829 32.5827 95.1252 31.4401 95.6782C30.0687 96.3398 28.6101 96.8188 27.1993 97.3988C26.3858 97.7367 25.4906 97.7554 24.6834 98.0453C23.5262 98.4601 22.3374 98.698 21.1504 98.9461C20.8154 99.0162 20.5378 99.2691 20.1496 99.2079C19.4998 99.0994 18.8418 99.0289 18.1815 99.0006C17.5058 98.9697 17.3509 97.85 16.5359 98.1517C16.5119 98.156 16.431 98.0087 16.3733 97.9356C15.5809 96.9712 15.4796 95.7064 15.4895 94.6198C15.5188 91.9706 16.3966 89.5143 17.7147 87.2716C18.5712 85.81 19.5762 84.4575 20.7136 83.2066C21.1211 82.8471 21.5287 82.4877 21.9296 82.119C23.2916 80.875 24.7008 79.7008 26.3498 78.8698C26.8463 78.6196 27.4147 78.6331 27.8961 78.4377C29.4284 77.8153 31.0445 77.5794 32.6393 77.2796C33.8732 77.0441 35.1476 76.9525 36.4067 76.942C37.611 76.9307 38.8467 76.8722 40.0244 77.2412C41.4491 77.6861 42.6303 78.6595 43.8886 79.4522C44.4367 79.7978 44.9267 80.2632 45.2901 80.8817C45.7364 81.6313 46.0724 82.458 46.7046 83.0807C46.9761 83.3504 46.7592 83.582 46.5902 83.7477L46.5959 83.7519ZM53.2223 84.0522C54.5688 84.1981 56.0249 84.0116 57.0241 85.3564C57.077 85.4304 57.2108 85.6517 57.352 85.8872C56.7783 85.6766 56.1878 85.5106 55.5969 85.3708C54.282 85.068 52.9711 85.3172 51.678 85.4434C50.4042 85.5661 49.1 85.4908 47.8769 86.1208C47.0315 86.5582 46.5417 86.0666 46.6503 85.0877C46.6717 84.9014 46.6795 84.7227 46.6396 84.5264C46.5705 84.1945 46.8042 83.9182 47.0331 83.8096C47.4088 83.6332 47.399 84.1355 47.5785 84.3069C47.8196 84.5456 47.5739 84.6989 47.3567 84.7897C47.2554 84.8339 47.111 84.8596 47.184 85.0187C47.2805 85.2257 47.4751 85.2589 47.6561 85.2162C48.254 85.0888 48.8416 84.9319 49.4337 84.8003C50.6884 84.5141 51.8863 83.9095 53.2118 84.0488L53.2223 84.0522ZM53.1955 81.924C51.1333 80.6591 49.7021 78.8125 48.7272 76.5456C50.3109 78.2451 51.545 80.2676 53.1955 81.924V81.924ZM58.3014 84.8628C55.9222 83.5189 53.9497 81.727 52.6757 79.1744C54.5811 81.0356 56.6538 82.721 58.3014 84.8628ZM70.5568 92.5144C70.5568 92.5144 70.5683 92.5228 70.574 92.527C71.3062 92.6521 71.9165 93.0961 72.5879 93.4093C72.5885 93.3571 72.5852 93.3107 72.5849 93.2534C72.8579 93.4759 73.2546 93.473 73.4614 93.6031C74.7122 94.3815 76.0977 94.8855 77.3292 95.6674C79.3319 96.9324 81.436 97.9863 83.4426 99.2454C86.5454 101.196 89.7827 102.898 92.9718 104.692C94.8588 105.753 96.7743 106.752 98.6426 107.848C99.3074 108.236 100.05 108.39 100.696 108.812C103.39 110.559 106.081 112.317 108.795 114.034C109.852 114.701 110.878 115.415 111.876 116.165C112.862 116.907 112.765 118.343 113.638 119.173C113.817 119.345 113.569 119.509 113.583 119.699C113.605 119.935 113.744 120.046 113.907 120.127C114.178 120.256 114.457 120.373 114.741 120.463C115.495 120.709 115.831 120.368 115.612 119.557C115.458 118.969 115.252 118.395 115.033 117.699C116.788 118.742 118.085 120.201 119.561 121.408C121.195 122.744 122.675 124.285 124.212 125.748C125.755 127.22 126.958 129.039 128.565 130.453C129.054 130.882 129.522 131.336 129.921 131.875C130.645 132.872 131.467 133.811 132.302 134.679C133.271 135.69 134.165 136.777 135.134 137.783C136.12 138.807 136.849 140.054 137.755 141.154C139.855 143.716 142.264 146.009 143.894 148.999C144.595 150.287 145.591 151.419 146.319 152.718C146.828 153.623 147.4 154.491 147.927 155.388C148.096 155.671 148.351 156.012 148.316 156.289C148.274 156.641 147.784 156.478 147.517 156.655C147.256 156.832 146.98 156.986 146.723 157.183C145.782 157.924 145.023 158.842 144.246 160.002C143.746 158.198 142.777 156.827 141.967 155.376C141.353 154.27 140.583 153.26 139.853 152.227C138.948 150.939 138.022 149.67 137.091 148.402C135.976 146.884 134.818 145.401 133.725 143.864C132.752 142.499 131.881 141.007 130.505 140.058C129.764 139.548 129.484 138.868 129.223 138.101C129.193 138.013 129.138 137.928 129.117 137.838C129.07 137.602 128.883 137.557 128.757 137.657C128.373 137.981 128.355 137.713 128.269 137.4C128.187 137.107 128.055 136.812 127.883 136.572C126.987 135.329 126.029 134.133 124.975 133.038C124.031 132.059 123.087 131.08 122.075 130.165C120.672 128.892 119.282 127.586 117.792 126.438C115.542 124.706 113.36 122.879 111.109 121.141C110.609 120.756 110.16 120.299 109.649 119.91C110.19 120.247 110.849 120.239 111.362 120.611C111.527 120.728 111.672 120.707 111.794 120.581C111.886 120.487 112.009 120.313 111.89 120.204C111.437 119.805 111.706 119.366 111.747 118.926C111.771 118.645 111.744 118.353 111.538 118.113C110.856 117.327 109.728 116.788 108.71 117.235C108.25 117.437 107.737 117.456 107.258 117.583C106.252 117.845 105.461 117.585 104.804 116.737C104.681 116.576 104.476 116.483 104.304 116.357C103.053 115.464 101.635 114.892 100.395 113.977C98.5929 112.639 96.7291 111.402 94.8567 110.171C93.4902 109.272 92.1706 108.303 90.7963 107.416C88.6692 106.038 86.635 104.512 84.4705 103.203C83.5027 102.619 82.5998 101.899 81.6113 101.366C80.4795 100.754 79.3587 100.119 78.2886 99.4077C77.2691 98.7289 76.2087 98.0991 75.1049 97.6439C74.3222 97.3192 73.9187 97.0887 74.1355 96.1322C74.2276 95.7299 73.9797 95.0909 73.4432 95.2282C73.1341 95.3041 72.9031 95.2619 72.6969 95.163C72.5074 95.1863 72.3027 95.1238 72.165 94.9084C72.0414 94.7166 71.8635 94.5814 71.6599 94.4978C71.6503 94.4995 71.6455 94.5003 71.6358 94.502C71.4317 94.5541 71.2248 94.5909 71.0227 94.627C71.0139 94.6337 71.0206 94.643 71.0118 94.6498C70.8981 94.7639 69.4661 95.0295 69.3452 94.9363C67.7322 93.6853 65.807 93.1053 64.048 92.1776C62.3875 91.3001 60.6766 90.5307 58.9835 89.7216C57.2685 88.9008 55.9602 87.4651 54.5394 86.039C55.4358 86.2496 56.2862 86.2023 57.0382 86.6889C57.3079 86.8651 57.6862 86.8707 57.8225 86.5492C58.0355 86.0731 57.9737 85.4479 58.1881 85.5088C58.4542 85.5813 58.7549 85.8198 58.9732 85.6244C59.08 85.5272 59.0262 85.3646 59.222 85.5436C60.08 86.319 61.0306 86.9735 61.9151 87.7025C62.6532 88.3063 63.3916 88.8839 64.2287 89.3189C66.3255 90.4158 68.4964 91.3432 70.5499 92.5313L70.5568 92.5144ZM70.1532 85.1236C69.8804 84.4004 69.8291 83.695 69.0149 83.1935C68.2675 82.7322 67.9999 81.6482 67.5274 80.8354C67.1339 80.1597 67.0936 79.3482 66.7735 78.6386C66.2259 77.4324 65.5343 76.3092 65.0361 75.0734C64.1757 72.9477 63.1821 70.8823 62.4231 68.7125C62.1593 67.9564 62.1619 67.1633 62.2584 66.3117C62.4508 66.6111 62.6299 66.8921 62.9673 66.6964C63.1607 66.5837 63.1169 66.3933 63.0366 66.1938C62.728 65.4092 62.6468 64.5632 62.3797 63.7607C62.0996 62.9136 62.2048 61.9718 62.0836 61.0964C61.8654 59.4821 62.1046 57.9271 62.2758 56.353C62.3235 55.896 62.5231 55.9856 62.7724 56.1863C62.8704 56.2627 62.7867 56.6009 63.0703 56.4096C63.2562 56.2826 63.2701 56.0819 63.2127 55.8992C62.9777 55.1379 63.0005 54.3464 62.857 53.5689C62.6051 52.2109 62.5465 50.8237 62.6828 49.4435C62.7944 48.2867 62.9309 47.1307 63.0482 45.9781C63.0774 45.6965 62.9768 45.2712 63.2216 45.1963C63.5368 45.0984 63.6422 45.5229 63.8015 45.7761C63.877 45.893 63.9795 45.9947 64.082 46.0964C64.196 46.2065 64.3213 46.2415 64.4353 46.1012C64.5163 45.9981 64.6865 45.8948 64.5461 45.7477C64.3023 45.4939 64.4768 45.2751 64.5316 45.0254C64.6755 44.3844 64.8041 43.7409 64.859 43.074C64.967 41.7301 65.0341 40.3518 65.4955 39.0962C65.9706 37.8068 66.6389 36.5978 67.2277 35.3612C67.3932 35.0084 67.546 34.7517 67.8369 35.3256C68.0443 35.7372 68.3198 35.7507 68.4612 35.2353C68.5485 34.9172 68.6578 34.6109 68.7402 34.2938C69.3941 31.7783 70.0482 29.2367 71.7159 27.229C72.1816 26.6662 72.4826 25.5696 73.6138 25.8999C73.6922 25.9224 73.8348 25.8032 73.9281 25.6301C74.4191 24.7082 74.7574 23.7092 75.3458 22.8325C76.4757 21.15 77.9339 19.8055 79.2716 18.3415C79.5546 18.0356 79.7487 17.6203 80.137 17.4311C80.3258 17.6269 80.1453 17.9512 80.3969 18.0263C80.6649 18.1089 80.7918 17.8464 80.9341 17.6698C81.092 17.4695 81.2548 17.2684 81.3899 17.0514C82.5328 15.1633 84.0521 13.6878 85.7806 12.3837C86.9269 11.5171 88.1044 10.6867 89.1809 9.70739C89.5993 9.32515 89.9446 8.78381 90.6095 8.67054C88.862 11.2609 88.0231 14.3257 86.6324 17.108C86.465 15.9175 86.4057 14.7495 86.0437 13.6093C85.835 13.7195 85.8445 13.8847 85.8854 14.0026C86.0906 14.6805 86.0411 15.3777 86.0752 16.0704C86.1174 16.8087 86.0627 17.6163 85.8422 18.2449C85.3766 19.5326 84.672 20.7324 83.9897 21.9179C82.7526 24.0575 81.5347 26.1937 80.619 28.5211C79.8637 30.4393 78.9508 32.2812 78.1306 34.1692C77.4229 35.7973 76.6761 37.401 76.1803 39.1321C75.8817 40.1866 75.6463 41.2612 75.249 42.2915C74.6953 43.7252 74.068 45.1356 73.7205 46.6682C73.5393 47.4619 73.217 48.2442 73.0646 49.1996C71.891 44.3971 71.2332 39.6747 70.5994 34.9481C70.3712 35.6459 70.5554 36.3171 70.631 36.992C70.8734 39.16 71.0869 41.3331 71.4553 43.4839C71.8065 45.5386 72.3319 47.5675 72.5187 49.6463C72.5406 49.9084 72.8073 50.0121 72.7227 50.3453C72.2238 52.3377 71.9367 54.3758 71.6956 56.4214C71.6371 56.9011 71.5384 57.3777 71.4453 57.9418C70.1577 56.539 69.5417 54.8652 69.1016 53.1757C68.4831 50.8192 68.1151 48.392 67.4581 46.0423C67.4028 45.8436 67.4309 45.583 67.1097 45.4525C67.1675 46.5009 67.5022 47.4321 67.704 48.3974C68.0993 50.3087 68.3742 52.2415 68.9369 54.1177C69.3184 55.3952 69.8032 56.6387 70.5258 57.7406C71.1134 58.6424 71.3062 59.4738 71.0918 60.555C70.7976 62.052 70.5771 63.5724 70.4074 65.0993C70.3037 66.0774 70.4002 67.0928 70.0962 68.0335C69.4167 67.8417 68.9853 67.371 68.7052 66.7743C68.1741 65.6329 67.703 64.4653 67.4005 63.2415C67.0998 62.0278 66.8018 60.8293 66.2795 59.6812C65.8059 58.6391 65.5746 57.4809 65.1639 56.4015C64.7456 55.3079 64.5934 54.1199 64.0112 53.0816C64.392 55.1623 64.8912 57.2115 65.6238 59.1774C66.1647 60.6247 66.671 62.0729 67.0943 63.5568C67.5203 65.0558 67.8777 66.588 68.8528 67.8535C69.0524 68.11 69.2502 68.3564 69.5464 68.4027C70.0985 68.492 70.0969 68.873 70.0622 69.2912C70.0055 69.948 69.8892 70.6049 69.893 71.2666C69.8919 73.0712 69.6662 74.8689 69.8244 76.6764C69.8352 76.8205 69.8616 77.0244 69.6589 77.1127C69.1541 76.7593 68.7853 76.2775 68.4486 75.7534C67.9668 74.9996 67.5911 74.2009 67.2398 73.3717C66.9576 72.7075 66.5973 72.0781 66.3412 71.3937C65.7883 69.9068 65.2634 68.4097 64.6738 66.9399C64.4854 66.4676 64.229 65.9761 63.766 65.6623C63.5961 65.9064 63.7413 66.0526 63.8209 66.2209C64.1545 66.9229 64.5738 67.6044 64.7898 68.3429C65.4691 70.6782 66.41 72.8938 67.5025 75.0406C68.06 76.1355 68.5634 77.3444 69.8244 77.8185C70.0538 77.908 69.9966 78.1164 69.9732 78.2353C69.8434 78.8164 70.0231 79.3789 70.0933 79.9401C70.2259 80.9907 70.197 82.0545 70.6526 83.0789C70.9099 83.6589 71.1229 84.4084 71.0737 84.9961C70.9521 86.5144 71.1845 87.9854 71.3657 89.4759C71.4227 89.9351 71.5765 90.4083 71.3608 90.8692C71.2647 90.3857 71.0982 89.9251 71.0397 89.4297C70.8744 87.9729 70.6899 86.5195 70.158 85.1227L70.1532 85.1236ZM55.3577 15.7766C55.1299 19.7076 54.1581 23.5314 54.0665 27.4746C53.9737 31.439 53.7657 35.3978 53.9721 39.4809C53.2788 38.9056 52.6763 38.4498 52.0447 38.0252C50.9575 37.3011 49.9509 36.5 49.2632 35.2875C48.7685 34.4057 48.4924 33.4692 48.1983 32.5151C48.1171 33.6195 48.3477 34.6632 48.8743 35.6123C49.651 37.0176 50.908 37.9148 52.1485 38.8307C53.1253 39.5484 54.044 40.3859 54.0431 41.7733C54.0419 43.7448 54.2071 45.7023 54.5761 47.6339C55.1914 50.8359 56.1871 53.9439 56.8418 57.144C57.3982 59.8767 58.173 62.5808 58.9923 65.2561C59.5998 67.2443 60.0203 69.2972 61.2281 71.0324C61.3943 71.2687 61.5208 71.533 61.7204 71.8729C60.6063 71.6386 59.6547 71.3128 58.7325 70.8461C57.2358 70.0802 56.0709 68.7806 54.5781 68.0089C53.8718 67.6393 53.1794 67.236 52.48 66.8495C52.4418 66.9137 52.4036 66.9779 52.3654 67.0421C52.7626 67.3207 53.1597 67.5993 53.5617 67.8771C54.6086 68.598 55.6524 69.3298 56.712 70.038C57.9516 70.8653 59.0564 71.967 60.592 72.1992C60.6994 72.2165 60.8651 72.2548 60.8987 72.3322C61.3062 73.2818 61.5891 72.5013 61.9479 72.2026C62.4373 73.8625 63.7779 74.9221 64.44 76.4365C62.6917 76.1535 60.912 76.5019 59.3182 75.4978C59.2655 75.8149 59.4197 75.9282 59.5526 75.9776C61.1983 76.5761 62.8144 77.3155 64.6145 77.026C64.6578 77.0182 64.7513 77.0694 64.7634 77.1089C65.0043 77.7648 65.7115 78.056 65.9492 78.6655C66.3576 79.7036 66.744 80.7299 67.39 81.6525C67.9152 82.3986 68.2746 83.2733 68.8045 84.0184C69.6877 85.2691 70.0475 86.6757 70.1671 88.1824C69.845 87.3219 69.4648 86.4979 69.0383 85.6925C67.8105 83.3716 66.3304 81.2781 63.9969 80.0512C63.0874 79.5719 62.1328 79.1735 61.1817 78.7954C60.2565 78.4232 59.5296 77.7704 59.1097 76.8909C58.7377 76.1124 58.1683 75.6193 57.576 75.1095C57.3298 74.8978 57.0387 74.7411 56.7877 74.5303C55.6116 73.53 54.5152 72.4477 53.5268 71.247C52.8225 70.3869 52.2246 69.4556 51.9564 68.3405C51.9197 68.1906 51.8085 68.0122 51.9619 67.8701C52.3978 67.4743 52.4221 67.3605 51.9501 67.0796C51.1606 66.6049 50.5876 65.9247 49.9948 65.2168C48.4331 63.3621 47.2414 61.2434 45.914 59.227C45.846 59.1244 45.5162 59.0006 45.866 58.8184C46.2651 58.6064 46.0086 58.4488 45.7957 58.3407C45.3643 58.1203 45.1217 57.8454 45.09 57.2774C45.0019 55.8642 44.5946 54.4974 44.3084 53.1143C44.02 51.7471 43.5546 50.4168 43.4272 49.0054C43.3831 48.5073 43.4485 48.0107 43.3296 47.5104C43.0953 46.53 43.2147 46.42 44.1766 46.6085C44.2667 46.1387 44.2136 45.6736 44.1587 45.1984C44.0789 44.4721 44.052 43.7363 44.076 43.0071C44.1238 41.7157 44.2974 40.4332 44.2866 39.147C44.2791 37.9071 44.4752 36.7509 45.0114 35.6645C45.1501 35.3843 45.1701 34.9113 45.7055 35.2696C45.8913 35.393 46.0367 35.122 46.0469 34.9011C46.0527 34.7384 45.9704 34.5549 46.0095 34.4123C46.5233 32.532 46.7569 30.5556 47.6992 28.8231C47.9044 28.4424 48.1327 28.0523 48.2165 27.6306C48.3745 26.8462 48.5813 26.0845 48.8714 25.3444C49.1239 24.6997 49.3868 24.5589 49.8684 25.0051C50.3016 25.4024 50.3134 25.0509 50.3826 24.7987C50.8345 23.1276 51.7289 21.7113 52.6557 20.3102C53.613 18.8567 54.7828 17.5374 55.3538 15.7825L55.3577 15.7766Z" fill="#B3D736"/>
<path d="M88.886 197.931C89.53 197.226 89.9512 196.359 90.3511 195.51C91.0898 193.945 91.7226 192.314 92.255 190.65C93.0279 188.217 93.477 185.723 93.7712 183.167C94.1042 180.245 94.2043 177.296 94.6141 174.386C94.6852 173.893 94.7698 173.393 94.9242 172.923C95.0208 172.629 94.8997 172.478 94.7111 172.423C94.4174 172.335 94.4702 172.659 94.4455 172.799C94.1786 174.338 94.024 175.894 93.9201 177.456C93.6945 180.87 93.5378 184.309 92.7496 187.631C92.205 189.923 91.4986 192.172 90.5207 194.317C89.9746 195.515 89.2547 196.629 88.8956 197.929L88.886 197.931Z" fill="#B3D736"/>
<path d="M81.5859 204.159C82.1258 203.818 82.4417 203.251 82.7437 202.717C83.6598 201.088 84.2275 199.287 84.9136 197.538C86.0817 194.566 86.7282 191.452 87.4246 188.339C87.4966 188.019 87.6106 187.712 87.7247 187.405C87.7981 187.204 87.8189 186.986 87.6481 186.892C87.422 186.765 87.3642 187.026 87.2923 187.179C86.9126 187.946 86.7996 188.816 86.6632 189.638C86.1752 192.666 85.2903 195.557 84.2388 198.404C83.5852 200.168 82.9508 201.929 81.9021 203.483C81.7722 203.673 81.6356 203.853 81.5047 204.038C81.5047 204.038 81.5312 204.075 81.5889 204.148L81.5859 204.159Z" fill="#B3D736"/>
<path d="M90.951 54.4345C89.8678 55.9887 88.6886 57.2835 87.4857 58.5565C86.1204 60.0045 84.5534 61.2121 83.081 62.5331C81.4757 63.9717 79.6501 65.0376 77.8347 66.1329C76.1403 67.1546 74.4834 68.2478 72.8953 69.4486C72.3575 69.8573 71.7509 70.1584 71.1866 70.5301C71.0173 70.6385 70.8789 70.8092 70.7418 70.9588C70.5872 71.122 70.5784 71.2956 70.7648 71.4502C70.9446 71.5954 71.0586 71.4552 71.1723 71.341C72.589 69.9308 74.2928 68.9336 75.9305 67.8438C77.5197 66.7888 79.2012 65.8894 80.7839 64.8251C82.2378 63.8463 83.5444 62.6539 84.8832 61.5027C87.0223 59.6613 88.9486 57.6283 90.5695 55.2743C90.716 55.0657 91.0408 54.9661 90.951 54.4345V54.4345Z" fill="#B3D736"/>
<path d="M92.2687 33.4441C91.606 34.4331 90.8855 35.349 90.031 36.1532C88.2831 37.7945 86.3576 39.1911 84.432 40.5877C82.8184 41.7566 81.0316 42.6226 79.372 43.7006C77.9747 44.6067 76.7387 45.75 75.3414 46.6561C75.2126 46.7416 75.1188 46.8835 75.0156 47.001C74.889 47.1539 74.7906 47.354 74.9559 47.5018C75.1174 47.6556 75.2822 47.5219 75.426 47.3816C77.7361 45.1342 80.4528 43.4975 83.1179 41.7658C85.9523 39.9256 88.7729 38.0358 91.1047 35.4925C91.6368 34.9126 92.1416 34.2907 92.2726 33.4382L92.2687 33.4441Z" fill="#B3D736"/>
<path d="M89.3052 17.0655C88.6825 17.8335 87.9537 18.4797 87.261 19.1612C86.9355 19.4799 86.5929 19.7861 86.2855 20.1225C86.1863 20.234 85.9342 20.352 86.1227 20.5739C86.298 20.7774 86.4766 20.6934 86.6391 20.5184C87.2626 19.8388 87.9051 19.182 88.5163 18.489C88.8677 18.0926 89.1667 17.6534 89.4934 17.2301C89.4288 17.1738 89.3641 17.1176 89.2995 17.0613L89.3052 17.0655Z" fill="#B3D736"/>
<path d="M119.319 32.1022C118.753 32.9645 118.321 33.6881 117.826 34.3656C116.888 35.6488 115.921 36.9059 114.964 38.1664C114.779 38.4131 114.627 38.6698 114.64 38.9959C114.647 39.1198 114.64 39.3036 114.827 39.3224C114.968 39.3338 115.123 39.2853 115.173 39.1461C115.667 37.6552 116.735 36.5731 117.605 35.3542C118.475 34.1352 119.157 33.002 119.316 32.1132L119.319 32.1022Z" fill="#B3D736"/>
<path d="M108.774 94.1105C105.664 88.1928 102.718 82.1887 99.2881 76.4531C102.344 82.4013 105.246 88.4343 108.486 94.2766C108.581 94.2232 108.68 94.1639 108.774 94.1105V94.1105Z" fill="#B3D736"/>
<path d="M109.965 75.2493C109.967 73.7573 109.222 72.4978 108.7 71.1879C107.367 67.8583 105.849 64.6035 104.727 61.1789C104.257 59.7398 103.701 58.3423 103.18 56.9279C103.112 56.7368 102.991 56.5601 102.773 56.4268C102.965 56.9715 103.134 57.5307 103.353 58.0652C104.039 59.7371 104.406 61.5179 105.062 63.1949C106.063 65.7492 107.125 68.2822 108.103 70.8458C108.659 72.2905 109.395 73.6925 109.453 75.2988C109.46 75.4489 109.497 75.63 109.64 75.6514C109.951 75.7002 109.798 75.3155 109.969 75.2122L109.974 75.2425L109.965 75.2493Z" fill="#B3D736"/>
<path d="M101.304 69.4346C101.245 70.0239 101.589 70.4216 101.795 70.8803C102.569 72.6042 103.135 74.4172 104.038 76.0817C105.219 78.2544 106.401 80.4271 107.596 82.5923C108.02 83.3563 108.447 84.1094 108.645 84.9711C108.685 85.1412 108.729 85.2481 108.882 85.2417C109.079 85.2327 109.14 85.0758 109.132 84.8895C109.112 84.528 108.994 84.1996 108.814 83.8824C107.971 82.4419 107.069 81.0278 106.3 79.5584C105.021 77.1163 103.604 74.7352 102.619 72.1312C102.269 71.1975 101.747 70.3309 101.304 69.4346V69.4346Z" fill="#B3D736"/>
<path d="M111.665 54.4992C111.325 54.0956 111.203 53.5801 111.048 53.1018C110.365 50.9394 109.662 48.7804 109.093 46.5872C108.887 45.7947 108.686 44.9701 108.597 44.141C108.564 43.8444 108.512 43.5513 108.319 43.304C108.232 44.4565 108.612 45.5309 108.832 46.6285C109.369 49.2811 110.313 51.8195 110.974 54.4397C111.028 54.6596 111.03 55.0085 111.27 55.044C111.616 55.0918 111.457 54.6144 111.659 54.4688L111.665 54.4992Z" fill="#B3D736"/>
<path d="M112.194 32.8756C112.379 34.6366 113.241 36.2456 113.171 38.0782C113.577 37.9641 113.66 37.6469 113.628 37.3554C113.439 35.7671 112.749 34.3464 112.199 32.8747L112.194 32.8756Z" fill="#B3D736"/>
<path d="M75.6958 26.8584C75.2001 27.4474 75.1903 28.2001 75.1474 28.9066C75.0316 30.9872 74.8958 33.0661 75.0007 35.1595C75.0746 36.7161 75.3328 38.2763 75.1492 39.8371C75.1257 40.0394 75.1217 40.2122 75.4098 40.213C75.6931 40.2147 75.6916 40.0116 75.6899 39.8346C75.6682 38.905 75.7051 37.9701 75.5767 37.0543C75.2687 34.9084 75.2432 32.7591 75.3664 30.6094C75.4368 29.3609 75.4363 28.1041 75.7007 26.8576L75.6958 26.8584Z" fill="#B3D736"/>
<path d="M79.9531 21.3287C79.65 22.4413 79.5008 23.5266 79.3911 24.61C79.1764 26.776 79.1286 28.9592 78.5975 31.0773C78.5391 31.3068 78.6061 31.4878 78.819 31.5124C79.0521 31.5387 79.0912 31.3127 79.1108 31.1162C79.2535 29.6879 79.4767 28.2662 79.5147 26.8357C79.5566 25.149 79.8343 23.5037 80.0402 21.8451C80.0558 21.738 80.1214 21.6324 80.0757 21.5154C80.0589 21.4767 80.0276 21.4405 79.9483 21.3295L79.9531 21.3287Z" fill="#B3D736"/>
<path d="M83.982 16.6955C83.4555 17.4464 83.4802 18.365 83.2839 19.2136C82.9784 20.5353 82.8959 21.9111 82.4763 23.2062C82.4225 23.3775 82.4269 23.4862 82.577 23.5481C82.7433 23.6176 82.8092 23.4859 82.8808 23.3584C83.1642 22.8594 83.1586 22.2711 83.2351 21.7255C83.4515 20.1537 83.7204 18.5986 83.9933 17.0376C84.0129 16.9246 83.9922 16.8084 83.9916 16.6937L83.982 16.6955Z" fill="#B3D736"/>
<path d="M67.7067 155.275C69.9528 155.928 72.183 156.381 74.3865 156.989C76.8521 157.676 79.167 158.771 81.5553 159.665C82.4273 159.989 83.2375 160.497 84.0698 160.932C84.234 161.018 84.4044 161.139 84.5822 161.05C84.7783 160.952 84.9768 160.813 84.6644 160.592C83.9693 160.09 83.2291 159.669 82.4395 159.361C80.8164 158.722 79.2204 157.984 77.567 157.481C76.3603 157.117 75.1811 156.629 73.9434 156.369C72.2631 156.022 70.5895 155.601 68.9113 155.237C68.5348 155.159 68.1329 154.964 67.7124 155.279L67.7067 155.275Z" fill="#B3D736"/>
<path d="M78.0604 164.262C78.4181 163.901 78.259 163.788 77.8467 163.731C75.8537 163.44 73.8655 162.98 71.8655 162.873C69.4845 162.744 67.1617 162.162 64.7934 162.021C64.708 162.015 64.6214 162.031 64.3916 162.051C65.112 162.611 65.8571 162.53 66.5373 162.67C69.2186 163.23 71.9644 163.205 74.6496 163.759C75.7934 163.993 76.9258 164.219 78.0893 164.256L78.0652 164.261L78.0604 164.262Z" fill="#B3D736"/>
<path d="M84.6987 149.086C87.1886 150.243 89.6649 151.408 92.1599 152.539C92.7378 152.801 93.3681 152.939 93.9706 153.144C94.1132 153.192 94.2761 153.382 94.3739 153.151C94.4509 152.97 94.2456 152.876 94.1355 152.76C93.7712 152.387 93.2573 152.4 92.8246 152.201C90.8991 151.314 88.9221 150.555 87.0402 149.55C86.481 149.253 85.8381 149.128 85.2385 148.912C84.9947 148.825 84.7932 148.808 84.7026 149.08L84.6987 149.086Z" fill="#B3D736"/>
<path d="M55.5554 165.54C56.4033 165.785 57.2372 165.756 58.0633 165.656C59.7942 165.452 61.5399 165.386 63.2592 165.674C64.7946 165.932 66.2703 166.524 67.675 167.275C68.2123 167.56 68.7728 167.836 69.5123 167.751C69.0632 167.07 68.3728 166.984 67.8141 166.719C65.1327 165.434 62.2983 165.157 59.4051 165.302C58.2338 165.359 57.058 165.559 55.8766 165.336C55.7587 165.316 55.6511 165.324 55.5554 165.54V165.54Z" fill="#B3D736"/>
<path d="M51.6004 169.389C52.3122 169.455 53.0029 169.515 53.6909 169.559C55.6139 169.68 57.4168 170.465 59.3112 170.732C59.7953 170.802 60.2587 170.84 60.7134 170.633C60.837 170.575 60.9847 170.512 60.9177 170.331C60.8693 170.199 60.7463 170.205 60.629 170.216C59.0773 170.367 57.6437 169.705 56.1477 169.444C54.8205 169.212 53.4923 169.057 52.1525 169.228C51.9631 169.251 51.7844 169.335 51.6013 169.394L51.6004 169.389Z" fill="#B3D736"/>
<path d="M48.4495 171.989C49.7254 172.184 50.9667 172.38 52.2052 172.561C52.6022 172.615 53.2592 172.681 53.2749 172.323C53.2913 171.913 52.6567 172.058 52.3028 172.022C51.1547 171.903 50.0015 171.811 48.8468 171.85C48.7133 171.853 48.5786 171.794 48.4543 171.988L48.4495 171.989Z" fill="#B3D736"/>
<path d="M47.7083 53.3017C47.816 54.2682 48.2855 55.0085 48.7754 55.7243C49.7779 57.1988 51.0092 58.4813 52.3113 59.6313C53.412 60.5981 54.6191 61.4938 55.9778 62.0704C56.4556 62.2721 56.9779 62.3616 57.4587 62.5523C57.7846 62.6819 57.9561 62.5575 58.0142 62.2708C58.0831 61.9612 57.8275 61.9755 57.6245 61.923C55.7314 61.4677 53.9893 60.5786 52.5646 59.2419C50.7485 57.5474 48.9185 55.8031 47.8751 53.4023C47.8592 53.3687 47.8018 53.3528 47.7017 53.2924L47.7083 53.3017Z" fill="#B3D736"/>
<path d="M46.9613 43.1242C48.132 45.4866 49.2821 47.8735 51.0793 49.7958C51.9375 50.7119 53.0383 51.3449 54.1357 51.9316C54.2731 52.0062 54.4427 52.0386 54.597 52.0685C54.7771 52.1042 54.9791 52.1516 55.0171 51.8632C55.0436 51.6499 55.0903 51.4382 54.7839 51.3624C54.4354 51.2733 54.0773 51.1859 53.7556 51.0242C52.1794 50.2307 50.9484 49.0055 49.9236 47.5454C49.0736 46.341 48.5303 44.9359 47.6077 43.7704C47.4156 43.5282 47.1962 43.3275 46.9653 43.1183L46.9613 43.1242Z" fill="#B3D736"/>
<path d="M50.7492 25.5211C50.3581 26.2792 50.7603 26.8646 51.0509 27.4647C51.4858 28.3728 51.9556 29.2539 52.5423 30.0672C52.6614 30.2337 52.8228 30.5544 53.0547 30.3514C53.2099 30.2194 53.1585 29.9313 52.9902 29.711C52.7064 29.3443 52.4518 28.9464 52.1942 28.5595C51.5762 27.6266 50.763 26.7963 50.755 25.5253L50.7492 25.5211Z" fill="#B3D736"/>
<path d="M73.9445 196.739C74.608 196.34 75.0135 195.913 75.3943 195.459C77.2605 193.228 79.458 191.407 81.8392 189.81C82.6552 189.263 83.4231 188.641 84.206 188.048C84.298 187.979 84.3816 187.891 84.4442 187.797C84.5194 187.689 84.6457 187.563 84.5408 187.42C84.3962 187.221 84.2753 187.378 84.1436 187.475C83.3375 188.077 82.5438 188.693 81.7179 189.268C79.549 190.776 77.6691 192.623 75.8468 194.544C75.2245 195.202 74.6514 195.915 73.9445 196.739V196.739Z" fill="#B3D736"/>
<path d="M59.1409 177.411C60.3878 176.97 61.3494 176.293 62.3034 175.601C63.8106 174.503 65.0307 173.076 66.3559 171.765C66.6591 171.461 66.8695 171.053 67.1224 170.69C67.225 170.542 67.278 170.365 67.122 170.242C66.9308 170.088 66.8561 170.31 66.7626 170.426C66.0815 171.256 65.4261 172.119 64.7041 172.915C63.1397 174.638 61.3909 176.108 59.3266 177.143C59.2899 177.16 59.2748 177.215 59.1409 177.411V177.411Z" fill="#B3D736"/>
<path d="M92.2178 157.902C93.7514 157.091 95.3056 156.481 96.8457 155.846C98.7931 155.046 100.796 154.391 102.808 153.788C104.284 153.347 105.792 153.063 107.304 152.773C107.396 152.756 107.479 152.721 107.57 152.704C107.791 152.665 107.868 152.511 107.854 152.294C107.832 151.948 107.585 152.092 107.445 152.117C106.43 152.324 105.41 152.505 104.412 152.787C102.131 153.439 99.8518 154.106 97.6582 155.029C95.9539 155.745 94.2018 156.359 92.6095 157.342C92.4131 157.465 92.2116 157.533 92.2178 157.902V157.902Z" fill="#B3D736"/>
</svg>
