<?xml version="1.0" encoding="utf-8"?>
<!-- Generator: Adobe Illustrator 27.2.0, SVG Export Plug-In . SVG Version: 6.00 Build 0)  -->
<svg version="1.1" id="Слой_1" xmlns="http://www.w3.org/2000/svg" xmlns:xlink="http://www.w3.org/1999/xlink" x="0px" y="0px"
	 viewBox="0 0 102.5 116.3" style="enable-background:new 0 0 102.5 116.3;" xml:space="preserve">
<style type="text/css">
	.st0{fill:#00953B;}
	.st1{fill:#FFFFFF;}
</style>
<g>
	<path d="M84.2,14.5C75.3,5.6,63.4,0.7,50.8,0.7S26.3,5.6,17.4,14.5C8.5,23.4,3.6,35.3,3.6,47.9c0,12.6,4.9,24.5,13.8,33.4
		s20.8,13.8,33.4,13.8s24.5-4.9,33.4-13.8S98,60.5,98,47.9C98.1,35.3,93.1,23.5,84.2,14.5z M95.2,47.9c0,11.8-4.6,23-13,31.3
		c-8.4,8.4-19.5,13-31.3,13s-23-4.6-31.3-13c-8.4-8.4-13-19.5-13-31.3c0-11.8,4.6-23,13-31.3c8.4-8.4,19.5-13,31.3-13
		s23,4.6,31.3,13C90.5,25,95.2,36.1,95.2,47.9z"/>
	<g>
		<g>
			<path d="M28.2,71.6c-0.3,0-0.6,0-0.9-0.1s-0.5-0.2-0.7-0.3l-0.1,0.3h-0.4L26,69.8h0.3c0,0.1,0.1,0.3,0.2,0.5s0.2,0.3,0.4,0.5
				c0.1,0.1,0.3,0.3,0.5,0.3c0.2,0.1,0.4,0.1,0.6,0.1c0.3,0,0.5-0.1,0.6-0.2s0.2-0.3,0.2-0.5c0-0.1,0-0.2-0.1-0.3s-0.1-0.1-0.3-0.2
				c-0.1-0.1-0.2-0.1-0.4-0.2c-0.1,0-0.3-0.1-0.5-0.2s-0.4-0.1-0.5-0.2s-0.3-0.2-0.5-0.3c-0.1-0.1-0.2-0.3-0.3-0.4
				c-0.1-0.2-0.1-0.4-0.1-0.6c0-0.4,0.2-0.8,0.5-1c0.4-0.3,0.8-0.4,1.4-0.4c0.3,0,0.5,0,0.8,0.1c0.2,0.1,0.4,0.1,0.6,0.2l0.1-0.3
				h0.3l0.1,1.6h-0.3c-0.1-0.3-0.3-0.6-0.5-0.8c-0.3-0.2-0.5-0.3-0.8-0.3c-0.2,0-0.4,0-0.6,0.1c-0.1,0.1-0.2,0.2-0.2,0.4
				c0,0.2,0.1,0.4,0.3,0.5c0.2,0.1,0.5,0.2,0.8,0.3c0.5,0.1,0.9,0.3,1.2,0.6c0.3,0.2,0.4,0.6,0.4,0.9c0,0.5-0.2,0.9-0.6,1.2
				C29.4,71.4,28.9,71.6,28.2,71.6z"/>
			<path d="M33.8,71.4h-2.9v-0.3c0.1,0,0.2,0,0.2,0c0.1,0,0.1,0,0.2,0s0.2-0.1,0.2-0.2s0.1-0.2,0.1-0.3v-2.7c0-0.1,0-0.2-0.1-0.3
				c0-0.1-0.1-0.1-0.2-0.2c-0.1,0-0.1-0.1-0.2-0.1s-0.2-0.1-0.3-0.1v-0.3l2.2-0.1l0.1,0.1v3.6c0,0.1,0,0.2,0.1,0.3
				c0,0.1,0.1,0.1,0.2,0.2c0.1,0,0.1,0.1,0.2,0.1s0.1,0,0.2,0L33.8,71.4L33.8,71.4z M33.1,65.2c0,0.2-0.1,0.4-0.3,0.6
				C32.6,66,32.4,66,32.2,66s-0.5-0.1-0.6-0.2c-0.2-0.2-0.3-0.4-0.3-0.6s0.1-0.4,0.3-0.6c0.2-0.2,0.4-0.2,0.6-0.2s0.5,0.1,0.6,0.2
				C33.1,64.7,33.1,64.9,33.1,65.2z"/>
			<path d="M40.3,71.4h-2.8v-0.3c0.1,0,0.1,0,0.2,0s0.1,0,0.2,0S38,71,38,71c0-0.1,0-0.2,0-0.3v-2.1c0-0.3-0.1-0.5-0.2-0.7
				s-0.3-0.2-0.5-0.2c-0.1,0-0.2,0-0.3,0.1c-0.1,0-0.2,0.1-0.3,0.2c-0.1,0.1-0.2,0.1-0.2,0.2c-0.1,0.1-0.1,0.1-0.1,0.2v2.5
				c0,0.1,0,0.2,0,0.3c0,0.1,0.1,0.1,0.2,0.2c0,0,0.1,0.1,0.2,0.1s0.1,0,0.2,0v0.3h-2.8v-0.3c0.1,0,0.2,0,0.2,0c0.1,0,0.1,0,0.2,0
				s0.2-0.1,0.2-0.2s0.1-0.2,0.1-0.3v-2.7c0-0.1,0-0.2-0.1-0.3c0-0.1-0.1-0.2-0.2-0.2s-0.1-0.1-0.2-0.1s-0.2,0-0.3-0.1v-0.3l2.2-0.1
				l0.1,0.1V68l0,0c0.1-0.1,0.2-0.2,0.3-0.3s0.2-0.2,0.3-0.3c0.1-0.1,0.3-0.1,0.4-0.2c0.2-0.1,0.4-0.1,0.6-0.1
				c0.5,0,0.9,0.1,1.1,0.4s0.4,0.7,0.4,1.1v2.2c0,0.1,0,0.2,0.1,0.3c0,0.1,0.1,0.1,0.2,0.2c0,0,0.1,0,0.2,0.1
				C40.1,71.4,40.2,71.4,40.3,71.4L40.3,71.4L40.3,71.4z"/>
			<path d="M43.3,71.6c-0.4,0-0.8-0.1-1.1-0.2c-0.3-0.1-0.6-0.3-0.8-0.5c-0.2-0.2-0.4-0.5-0.5-0.8s-0.2-0.6-0.2-1
				c0-0.3,0.1-0.6,0.2-0.9s0.3-0.5,0.5-0.8c0.2-0.2,0.5-0.4,0.8-0.5s0.7-0.2,1.1-0.2c0.6,0,1,0.1,1.3,0.3c0.3,0.2,0.5,0.5,0.5,0.9
				c0,0.2-0.1,0.4-0.2,0.5s-0.3,0.2-0.6,0.2c-0.2,0-0.4-0.1-0.6-0.2s-0.2-0.3-0.2-0.4s0-0.3,0.1-0.4c0-0.1,0.1-0.3,0.1-0.3
				c0-0.1-0.1-0.1-0.1-0.1c-0.1,0-0.1,0-0.2,0s-0.3,0-0.4,0.1s-0.2,0.2-0.3,0.3c-0.1,0.2-0.2,0.4-0.2,0.6c-0.1,0.3-0.1,0.6-0.1,0.9
				c0,0.5,0.1,1,0.4,1.3s0.6,0.5,0.9,0.5s0.6-0.1,0.8-0.2c0.2-0.2,0.4-0.4,0.5-0.6l0.3,0.2c-0.1,0.2-0.2,0.4-0.3,0.5
				c-0.1,0.2-0.3,0.3-0.5,0.4s-0.4,0.2-0.6,0.3C43.8,71.5,43.6,71.6,43.3,71.6z"/>
			<path d="M50.6,70.3c-0.1,0.2-0.2,0.3-0.4,0.5c-0.2,0.2-0.3,0.3-0.5,0.4s-0.4,0.2-0.6,0.3c-0.2,0.1-0.4,0.1-0.7,0.1
				c-0.5,0-0.8-0.1-1.2-0.2c-0.3-0.1-0.6-0.3-0.8-0.5c-0.2-0.2-0.4-0.5-0.5-0.8s-0.2-0.6-0.2-1c0-0.3,0.1-0.6,0.2-0.9
				s0.3-0.5,0.5-0.8c0.2-0.2,0.5-0.4,0.8-0.5s0.7-0.2,1.1-0.2s0.8,0.1,1.1,0.2c0.3,0.1,0.5,0.2,0.7,0.4c0.2,0.2,0.3,0.4,0.4,0.6
				s0.1,0.5,0.1,0.7v0.3h-3.1c0,0.6,0.1,1.1,0.4,1.4c0.2,0.3,0.6,0.5,1.1,0.5c0.3,0,0.5-0.1,0.8-0.2c0.2-0.2,0.4-0.4,0.6-0.6
				L50.6,70.3z M48.9,68.6c0-0.2,0-0.4,0-0.6s0-0.3-0.1-0.5c-0.1-0.1-0.1-0.3-0.2-0.3c-0.1-0.1-0.2-0.1-0.3-0.1
				c-0.2,0-0.4,0.1-0.6,0.4c-0.1,0.2-0.2,0.6-0.2,1.1H48.9z"/>
			<path d="M57.5,71.4h-3.8v-0.3c0.1,0,0.2,0,0.4,0c0.2,0,0.3,0,0.4-0.1c0.1,0,0.2-0.1,0.2-0.2c0.1-0.1,0.1-0.2,0.1-0.3v-2.9h-1.2
				v-0.4h0.3c0.3,0,0.5,0,0.7-0.1s0.4-0.1,0.5-0.2s0.2-0.2,0.3-0.3c0.1-0.1,0.2-0.2,0.2-0.2h0.8c0,0.2,0,0.4,0,0.7
				c0,0.3,0,0.5,0,0.7v2.7c0,0.1,0,0.2,0.1,0.3c0,0.1,0.1,0.1,0.2,0.2c0.1,0,0.2,0.1,0.4,0.1c0.2,0,0.3,0,0.4,0.1V71.4z"/>
			<path d="M63.4,69.1c0,1.1-0.4,2-1.1,2.7c-0.8,0.7-1.8,1.1-3.1,1.3l-0.1-0.5l0.5-0.1c0.4-0.1,0.7-0.2,0.9-0.4
				c0.2-0.2,0.5-0.4,0.6-0.6c0.2-0.2,0.3-0.5,0.4-0.7c0.1-0.3,0.1-0.5,0.2-0.8c-0.3,0.2-0.5,0.4-0.8,0.5s-0.5,0.1-0.8,0.1
				s-0.5-0.1-0.7-0.2S59,70.2,58.8,70c-0.2-0.2-0.3-0.4-0.4-0.7c-0.1-0.3-0.1-0.5-0.1-0.8c0-0.6,0.2-1.2,0.7-1.6s1.1-0.6,1.9-0.6
				s1.4,0.2,1.9,0.7C63.1,67.6,63.4,68.3,63.4,69.1z M61.7,69.4c0,0,0-0.1,0-0.2s0-0.1,0-0.2c0-0.7-0.1-1.3-0.3-1.7
				c-0.2-0.4-0.4-0.6-0.7-0.6c-0.3,0-0.5,0.1-0.7,0.4s-0.3,0.7-0.3,1.3c0,0.5,0.1,0.9,0.3,1.2c0.2,0.3,0.4,0.4,0.7,0.4
				c0.2,0,0.3,0,0.5-0.1c0.1-0.1,0.3-0.2,0.4-0.4c0,0,0,0,0-0.1C61.7,69.5,61.7,69.4,61.7,69.4z"/>
			<path d="M69.4,69.1c0,1.1-0.4,2-1.1,2.7c-0.8,0.7-1.8,1.1-3.1,1.3l-0.1-0.5l0.5-0.1c0.4-0.1,0.7-0.2,0.9-0.4
				c0.2-0.2,0.5-0.4,0.6-0.6c0.2-0.2,0.3-0.5,0.4-0.7c0.1-0.3,0.1-0.5,0.2-0.8c-0.3,0.2-0.5,0.4-0.8,0.5s-0.5,0.1-0.8,0.1
				s-0.5-0.1-0.7-0.2S65,70.2,64.8,70c-0.2-0.2-0.3-0.4-0.4-0.7c-0.1-0.3-0.1-0.5-0.1-0.8c0-0.6,0.2-1.2,0.7-1.6s1.1-0.6,1.9-0.6
				s1.4,0.2,1.9,0.7C69.2,67.6,69.4,68.3,69.4,69.1z M67.8,69.4c0,0,0-0.1,0-0.2s0-0.1,0-0.2c0-0.7-0.1-1.3-0.3-1.7
				c-0.2-0.4-0.4-0.6-0.7-0.6c-0.3,0-0.5,0.1-0.7,0.4s-0.3,0.7-0.3,1.3c0,0.5,0.1,0.9,0.3,1.2c0.2,0.3,0.4,0.4,0.7,0.4
				c0.2,0,0.3,0,0.5-0.1c0.1-0.1,0.3-0.2,0.4-0.4c0,0,0,0,0-0.1C67.8,69.5,67.8,69.4,67.8,69.4z"/>
			<path d="M74.3,69.3c0.2,0.2,0.4,0.4,0.6,0.6c0.2,0.3,0.2,0.6,0.2,1c0,0.7-0.3,1.2-0.8,1.6s-1.2,0.6-2,0.6c-0.6,0-1.1-0.1-1.6-0.4
				c-0.4-0.3-0.6-0.6-0.6-1c0-0.2,0.1-0.4,0.2-0.5s0.3-0.2,0.6-0.2c0.2,0,0.4,0.1,0.6,0.2s0.2,0.3,0.2,0.5s0,0.3-0.1,0.5
				s-0.1,0.3-0.1,0.4c0.1,0,0.2,0,0.3,0.1c0.1,0,0.2,0,0.3,0c0.2,0,0.3,0,0.5-0.1s0.3-0.2,0.4-0.3c0.1-0.2,0.2-0.4,0.3-0.6
				c0.1-0.2,0.1-0.5,0.1-0.8c0-0.4-0.1-0.8-0.3-1.1c-0.2-0.3-0.5-0.4-0.9-0.4c-0.3,0-0.5,0.1-0.7,0.2s-0.4,0.3-0.5,0.5L70.6,70
				l0.4-3.4h3.9v1.3h-3.5l-0.2,1.5c0.2-0.1,0.4-0.2,0.6-0.3s0.6-0.1,0.9-0.1s0.5,0,0.8,0.1C73.8,69,74.1,69.1,74.3,69.3z"/>
		</g>
	</g>
	<g>
		<g>
			<g>
				<polygon points="24.7,77.5 22.9,76.8 21.3,78 21.4,76.1 19.8,75 21.6,74.4 22.2,72.6 23.3,74.1 25.2,74.1 24.1,75.7 				"/>
				<polygon points="19.9,71.7 18.1,71.1 16.6,72.2 16.6,70.3 15.1,69.2 16.9,68.6 17.5,66.8 18.5,68.4 20.5,68.4 19.3,69.9 				"/>
				<polygon points="16.4,65.4 14.6,64.7 13.1,65.9 13.1,64 11.6,62.9 13.4,62.3 14,60.5 15.1,62 17,62 15.8,63.6 				"/>
				<polygon points="14.2,58.6 12.4,58 10.8,59.2 10.9,57.3 9.3,56.1 11.1,55.6 11.7,53.8 12.8,55.3 14.7,55.3 13.6,56.8 				"/>
				<polygon points="13.2,51.7 11.4,51.1 9.8,52.2 9.9,50.3 8.3,49.2 10.1,48.7 10.7,46.9 11.8,48.4 13.7,48.4 12.6,49.9 				"/>
				<polygon points="13.4,44.8 11.6,44.2 10.1,45.3 10.1,43.4 8.6,42.3 10.4,41.7 11,39.9 12,41.5 13.9,41.5 12.8,43 				"/>
				<polygon points="14.9,38 13.1,37.3 11.5,38.5 11.6,36.6 10,35.5 11.9,34.9 12.4,33.1 13.5,34.7 15.4,34.6 14.3,36.2 				"/>
				<polygon points="17.6,31.5 15.8,30.8 14.2,32 14.3,30.1 12.7,29 14.6,28.4 15.1,26.6 16.2,28.1 18.1,28.1 17,29.7 				"/>
				<polygon points="21.5,25.4 19.7,24.8 18.2,25.9 18.2,24 16.7,22.9 18.5,22.4 19.1,20.6 20.1,22.1 22,22.1 20.9,23.6 				"/>
				<polygon points="26.6,20.1 24.8,19.5 23.3,20.6 23.3,18.7 21.8,17.6 23.6,17 24.2,15.2 25.2,16.8 27.2,16.8 26,18.3 				"/>
				<polygon points="32.5,15.9 30.7,15.3 29.2,16.4 29.2,14.5 27.6,13.4 29.5,12.8 30,11 31.1,12.6 33,12.6 31.9,14.1 				"/>
				<polygon points="38.9,12.9 37.1,12.3 35.6,13.4 35.6,11.5 34.1,10.4 35.9,9.9 36.5,8.1 37.5,9.6 39.4,9.6 38.3,11.1 				"/>
				<polygon points="45.7,11.2 43.9,10.6 42.3,11.7 42.4,9.8 40.8,8.7 42.7,8.1 43.2,6.3 44.3,7.9 46.2,7.9 45.1,9.4 				"/>
				<polygon points="52.6,10.7 50.8,10.1 49.3,11.2 49.3,9.3 47.8,8.2 49.6,7.6 50.2,5.8 51.3,7.4 53.2,7.4 52,8.9 				"/>
				<polygon points="59.6,11.4 57.8,10.8 56.3,11.9 56.3,10 54.7,8.9 56.6,8.4 57.1,6.5 58.2,8.1 60.1,8.1 59,9.6 				"/>
				<polygon points="66.4,13.4 64.6,12.7 63,13.9 63.1,12 61.5,10.9 63.4,10.3 63.9,8.5 65,10 66.9,10 65.8,11.6 				"/>
				<polygon points="72.8,16.5 71,15.9 69.5,17 69.5,15.1 68,14 69.8,13.5 70.4,11.7 71.5,13.2 73.4,13.2 72.2,14.7 				"/>
				<polygon points="78.8,20.9 77,20.3 75.4,21.4 75.5,19.5 73.9,18.4 75.7,17.9 76.3,16 77.4,17.6 79.3,17.6 78.2,19.1 				"/>
				<polygon points="83.9,26.4 82.1,25.8 80.6,26.9 80.6,25 79.1,23.9 80.9,23.4 81.5,21.5 82.5,23.1 84.4,23.1 83.3,24.6 				"/>
				<polygon points="87.8,32.6 86,31.9 84.5,33.1 84.5,31.2 83,30.1 84.8,29.5 85.4,27.7 86.5,29.3 88.4,29.2 87.2,30.8 				"/>
				<polygon points="90.5,39.2 88.7,38.5 87.2,39.7 87.2,37.8 85.7,36.7 87.5,36.1 88.1,34.3 89.2,35.9 91.1,35.8 89.9,37.4 				"/>
				<polygon points="91.9,46 90.1,45.4 88.6,46.5 88.7,44.6 87.1,43.5 88.9,43 89.5,41.2 90.6,42.7 92.5,42.7 91.3,44.2 				"/>
				<polygon points="92.1,53 90.3,52.4 88.8,53.5 88.8,51.6 87.3,50.5 89.1,49.9 89.7,48.1 90.8,49.7 92.7,49.7 91.5,51.2 				"/>
				<polygon points="91.1,59.9 89.3,59.2 87.8,60.4 87.8,58.5 86.2,57.4 88.1,56.8 88.6,55 89.7,56.6 91.6,56.5 90.5,58.1 				"/>
				<polygon points="88.8,66.5 87,65.9 85.5,67 85.5,65.1 84,64 85.8,63.5 86.4,61.6 87.5,63.2 89.4,63.2 88.2,64.7 				"/>
				<polygon points="85.3,72.7 83.5,72.1 82,73.2 82,71.3 80.5,70.2 82.3,69.7 82.9,67.9 84,69.4 85.9,69.4 84.7,70.9 				"/>
				<polygon points="80.6,78.3 78.8,77.7 77.3,78.9 77.3,77 75.8,75.8 77.6,75.3 78.1,73.5 79.2,75 81.1,75 80,76.5 				"/>
			</g>
		</g>
	</g>
	<path d="M70.1,41.8c-2.2-2.1-5.3-3.2-9.1-3.2c-0.5,0-0.9,0-1.2,0c-0.3,0-0.6,0-0.8,0v-6.5h11.5v-5.3H52.9v17.6
		c1.3-0.1,2.5-0.3,3.6-0.3c1.1-0.1,2-0.1,2.7-0.1c2.8,0,4.8,0.5,6.1,1.5c1.3,1,1.9,2.6,1.9,4.8c0,2.1-0.5,3.7-1.6,4.9
		c-1,1.2-2.5,1.8-4.3,1.8c-1.6,0-2.8-0.5-3.7-1.4c-0.8-0.9-1.3-2.3-1.3-4h-4.9h-0.8h-0.2h-4.6v5H35.2l9-8.8c2.8-2.8,4.7-5,5.7-6.7
		c0.9-1.7,1.4-3.4,1.4-5.2c0-2.9-1-5.2-3-6.9s-4.7-2.6-8.1-2.6c-3.9,0-6.8,1-8.7,3.2c-1.9,2.1-2.9,5.3-2.9,9.6c0,0.5,0,0.8,0,1
		s0,0.4,0,0.7h5.9v-1c0-3,0.4-5.1,1.3-6.4c0.9-1.2,2.3-1.9,4.3-1.9c1.6,0,2.8,0.4,3.7,1.1c0.9,0.7,1.3,1.8,1.3,3.1
		c0,1.1-0.4,2.4-1.2,3.7c-0.8,1.4-2.1,3-3.9,5L28.3,57v4.8h23.4v-4.4c0.5,0.8,1,1.6,1.7,2.2c2,1.9,4.8,2.9,8.3,2.9
		c3.6,0,6.4-1.1,8.6-3.3c2.2-2.2,3.2-5.1,3.2-8.6C73.4,46.8,72.3,43.9,70.1,41.8z"/>
	<path class="st0" d="M101.3,72.2c0,0-0.5,1.7-2.5,3.2c-1.5,1-3.5,0.9-4.4,0.9h-87c-3.8,0-6.9,3.2-6.9,7v11.2c0,3.9,3.1,7,6.9,7h87
		c3.8,0,6.9-3.2,6.9-7V72.2z"/>
	<g>
		<g>
			<path class="st1" d="M94.2,83.1h0.2c0.1,0,0.3,0,0.3,0.2s-0.1,0.2-0.2,0.2h-0.3V83.1z M94.2,83.8h0.2l0.4,0.7h0.4l-0.4-0.7
				c0.2,0,0.4-0.1,0.4-0.4c0-0.4-0.3-0.5-0.7-0.5h-0.6v1.6h0.4L94.2,83.8L94.2,83.8z M96.1,83.7c0-0.9-0.7-1.5-1.6-1.5
				c-0.8,0-1.5,0.5-1.5,1.5c0,0.9,0.7,1.5,1.5,1.5S96.1,84.6,96.1,83.7z M95.6,83.7c0,0.7-0.5,1.1-1.1,1.1s-1.1-0.5-1.1-1.1
				c0-0.7,0.5-1.1,1.1-1.1C95.1,82.5,95.6,83,95.6,83.7z"/>
		</g>
		<g>
			<g>
				<path class="st1" d="M28.1,93.8c0.6,0.7,1.6,1,3,1.1c0,0,1.8,0,2.8-0.9c0.5-0.5,0.8-1.1,0.8-2v-3.8c0-1-0.3-1.7-0.8-2.3
					c-0.6-0.6-1.5-0.9-2.7-0.9l0,0c-1.9,0-3,1-3.3,2.8c0,0.1,0,0.2,0.1,0.3c0.1,0.1,0.2,0.1,0.3,0.1H30c0.2,0,0.3-0.1,0.3-0.3
					c0-0.8,0.3-1.2,1-1.2c0.6,0,0.9,0.3,0.9,0.8c0,0.6-0.2,0.8-0.9,1.1l0,0c0,0-0.2,0.1-1.5,0.8c-1.1,0.6-2.1,1.2-2.1,2.6
					C27.5,93.2,28.1,93.8,28.1,93.8z M30,92.2c0-0.5,0.1-1.1,0.7-1.5l1-0.6c0.1-0.1,0.1-0.1,0.2,0c0.1,0,0.1,0.1,0.1,0.2v1.4
					c0,1-0.3,1.5-1.1,1.5C30.3,93.1,30,92.9,30,92.2z"/>
			</g>
			<g>
				<path class="st1" d="M54.7,93.8c0.6,0.7,1.6,1,3,1.1c0,0,1.8,0,2.8-0.9c0.5-0.5,0.8-1.1,0.8-2v-3.8c0-1-0.3-1.7-0.8-2.3
					C59.9,85.3,59,85,57.7,85l0,0c-1.9,0-3,1-3.3,2.8c0,0.1,0,0.2,0.1,0.3c0.1,0.1,0.2,0.1,0.3,0.1h1.7c0.2,0,0.3-0.1,0.3-0.3
					c0-0.8,0.3-1.2,1-1.2c0.6,0,0.9,0.3,0.9,0.8c0,0.6-0.2,0.8-0.9,1.1l0,0c0,0-0.2,0.1-1.5,0.8c-1,0.6-2.1,1.2-2.1,2.6
					C54.1,93.2,54.7,93.8,54.7,93.8z M56.7,92.2c0-0.5,0.1-1.1,0.7-1.5l1-0.6c0.1-0.1,0.1-0.1,0.2,0c0.1,0,0.1,0.1,0.1,0.2v1.4
					c0,1-0.3,1.5-1,1.5C57,93.1,56.7,92.9,56.7,92.2z"/>
			</g>
			<g>
				<path class="st1" d="M82.4,86.1c-0.6-0.7-1.6-1-3-1.1c0,0-1.8,0-2.8,1c-0.5,0.5-0.8,1.1-0.8,2v3.8c0,1,0.3,1.7,0.8,2.3
					c0.6,0.6,1.5,0.9,2.8,0.9l0,0c1.9,0,3-1,3.3-2.8c0-0.1,0-0.2-0.1-0.3c-0.1-0.1-0.2-0.1-0.3-0.1h-1.7c-0.2,0-0.3,0.1-0.3,0.3
					c0,0.8-0.3,1.2-1,1.2c-0.6,0-0.9-0.3-0.9-0.8c0-0.6,0.2-0.8,0.9-1.1l0,0c0,0,0.2-0.1,1.5-0.8c1.1-0.6,2.1-1.2,2.1-2.6
					C83,86.7,82.4,86.1,82.4,86.1z M80.5,87.7c0,0.5-0.1,1.1-0.7,1.5l-1,0.6c-0.1,0.1-0.2,0.1-0.2,0c-0.1,0-0.1-0.1-0.1-0.2v-1.4
					c0-1,0.3-1.5,1-1.5C80.2,86.8,80.5,87,80.5,87.7z"/>
			</g>
			<path class="st1" d="M10.4,82.1L10.4,82.1H9.7c0.1,0.2,0.3,0.5,0.3,1.4V94c0,0.4,0.3,0.7,0.7,0.7h1.9h0.7
				c-0.1-0.2-0.3-0.6-0.3-1.4v-3.5h1.5c1.7,0,3.8-0.7,3.8-3.8c0-2.6-1.2-3.8-3.8-3.8h-4.1V82.1z M12.9,84.6c0-0.2,0.1-0.3,0.3-0.3
				h0.3c0.8,0,1.6,0.2,1.6,1.6c0,1.5-1,1.7-1.6,1.7h-0.3c-0.2,0-0.3-0.1-0.3-0.3l0,0V84.6z"/>
			<path class="st1" d="M40.6,85c-1.6-0.7-2.2,1.6-2.2,1.6v-0.9c0-0.3-0.2-0.5-0.5-0.5h-1.2c0,0-0.9,0-1.1,0
				c0.1,0.2,0.3,0.5,0.3,1.3v7.3c0,0.4,0.3,0.7,0.7,0.7h1.5h0.7c-0.1-0.2-0.3-0.6-0.3-1.4v-3.4c0-1.3,0.4-1.8,1.6-1.9
				c0.3,0,0.4-0.1,0.4-0.4V85H40.6z"/>
			<path class="st1" d="M19.8,82.1c0,0-0.7,0-0.8,0c0.1,0.2,0.3,0.6,0.3,1.4v10.4c0,0.4,0.3,0.7,0.7,0.7h1.3c0.4,0,0.7-0.3,0.7-0.7
				V88c0-0.6,0.3-0.9,0.8-0.9s0.8,0.3,0.8,0.9v5.9c0,0.4,0.3,0.7,0.7,0.7h1.5c0,0,0.7,0,0.8,0c-0.1-0.2-0.3-0.6-0.3-1.4v-6.1
				c0-1.5-1.1-2.1-2.1-2.1c-0.6,0-1.4,0.2-2,0.9L22.1,86v-3.2c0-0.4-0.3-0.7-0.7-0.7L19.8,82.1L19.8,82.1z"/>
			<path class="st1" d="M48.5,86.2l-0.1,0.1v-0.1c-0.2-0.7-1-1.2-1.8-1.2c-0.9,0-1.7,0.5-2.2,1.2l-0.1,0.2v-0.7
				c0-0.3-0.2-0.5-0.5-0.5c0,0-2,0-2.3,0c0.1,0.2,0.3,0.6,0.3,1.4v7.2c0,0.4,0.3,0.7,0.7,0.7h1.3c0.4,0,0.7-0.3,0.7-0.7v-5.9
				c0-0.6,0.3-0.9,0.8-0.9s0.8,0.3,0.8,0.9v5.9c0,0.4,0.3,0.7,0.7,0.7h1.3c0.4,0,0.7-0.3,0.7-0.7v-5.9c0-0.6,0.3-0.9,0.8-0.9
				s0.8,0.3,0.8,0.9v5.9c0,0.4,0.3,0.7,0.7,0.7h1.5h0.7c-0.1-0.2-0.3-0.6-0.3-1.4V87c0-1.4-1.1-2.1-2.3-2.1
				C49.9,85,48.9,85.3,48.5,86.2z"/>
			<path class="st1" d="M68.6,90.4l-0.5-3.3l-0.9-4.4c-0.1-0.4-0.3-0.7-0.7-0.7h-3.3h-0.7c0.1,0.2,0.3,0.6,0.3,1.4v10.4
				c0,0.4,0.3,0.7,0.7,0.7H65c0.4,0,0.7-0.3,0.7-0.7v-3.7c0-1.7-0.1-4.7-0.2-5.5l2,9.3c0.1,0.5,0.4,0.6,0.7,0.6h1
				c0.3,0,0.6-0.1,0.7-0.6l2-9.3c-0.1,1.1-0.2,4.3-0.2,5.5v3.7c0,0.4,0.3,0.7,0.7,0.7h1.8h0.7c-0.1-0.2-0.3-0.6-0.3-1.4V82.7
				c0-0.3-0.3-0.6-0.6-0.6h-3.1c-0.3,0-0.5,0.2-0.6,0.6c0,0,0,0.1-0.9,4.5L68.6,90.4z"/>
			<path class="st1" d="M89,82.1L89,82.1h-0.7c0.1,0.2,0.3,0.6,0.3,1.4v2.7L88.5,86c-0.4-0.7-1.1-1.1-2.1-1.1
				c-1.1,0-2.2,0.8-2.2,2.5v4.2c0,2.3,1.1,3.1,2.2,3.1s1.9-0.5,2.4-1.3l0.1-0.2v0.5c0,0.4,0.3,0.7,0.7,0.7h1.2h0.7
				c-0.1-0.2-0.3-0.5-0.3-1.3V82.5c0-0.3-0.3-0.6-0.6-0.6H89V82.1z M86.8,91.7v-3.4c0-1,0.5-1.2,0.9-1.2s0.9,0.2,0.9,1.2v3.4
				c0,0.8-0.3,1.2-0.9,1.2C87,92.9,86.8,92.5,86.8,91.7z"/>
		</g>
	</g>
	<g>
		<g>
			<path d="M4.7,109.1c0.5,0.4,0.8,1,0.8,1.9s-0.3,1.5-0.8,2c-0.5,0.4-1.2,0.7-2.1,0.7H0v-8h4.6l-0.2,1.4H1.7v1.4h0.8
				C3.5,108.5,4.2,108.7,4.7,109.1z M3.6,111c0-0.8-0.4-1.2-1.3-1.2H1.7v2.4h0.7C3.2,112.2,3.6,111.8,3.6,111z"/>
			<path d="M10.5,108.2c0.5,0.6,0.7,1.4,0.7,2.4c0,0.7-0.1,1.2-0.3,1.7c-0.2,0.5-0.5,0.9-1,1.1c-0.4,0.3-0.9,0.4-1.5,0.4
				c-0.9,0-1.5-0.3-2-0.9s-0.7-1.4-0.7-2.4c0-0.7,0.1-1.2,0.3-1.7c0.2-0.5,0.5-0.9,1-1.1c0.4-0.3,0.9-0.4,1.5-0.4
				C9.4,107.3,10.1,107.6,10.5,108.2z M7.7,109.1c-0.2,0.3-0.3,0.8-0.3,1.4c0,0.7,0.1,1.2,0.3,1.5c0.2,0.3,0.4,0.5,0.8,0.5
				c0.3,0,0.6-0.2,0.8-0.5c0.2-0.3,0.3-0.8,0.3-1.4c0-0.7-0.1-1.2-0.3-1.5c-0.2-0.3-0.4-0.5-0.8-0.5C8.2,108.6,7.9,108.8,7.7,109.1z
				"/>
			<path d="M16.8,107.5v6.1h-1.7v-4.8H14l-0.1,1.3c-0.1,0.9-0.2,1.6-0.3,2s-0.3,0.8-0.5,1c-0.3,0.3-0.6,0.4-1.2,0.6l-0.4-1.3
				c0.2-0.1,0.4-0.2,0.5-0.4c0.1-0.1,0.2-0.3,0.2-0.6s0.1-0.8,0.1-1.4l0.2-2.5L16.8,107.5L16.8,107.5z"/>
			<path d="M22.8,111.1h-3.5c0.1,0.5,0.2,0.9,0.4,1.1s0.5,0.3,0.9,0.3c0.2,0,0.4,0,0.7-0.1c0.2-0.1,0.4-0.2,0.7-0.4l0.7,1
				c-0.7,0.6-1.4,0.8-2.2,0.8c-0.9,0-1.6-0.3-2.1-0.9s-0.7-1.4-0.7-2.3c0-0.6,0.1-1.2,0.3-1.7c0.2-0.5,0.5-0.9,0.9-1.2
				c0.4-0.3,0.9-0.4,1.4-0.4c0.8,0,1.5,0.3,1.9,0.8c0.5,0.6,0.7,1.3,0.7,2.3C22.8,110.7,22.8,110.9,22.8,111.1z M21.1,109.9
				c0-0.9-0.3-1.4-0.9-1.4c-0.3,0-0.5,0.1-0.7,0.3c-0.2,0.2-0.3,0.6-0.3,1.1H21.1L21.1,109.9z"/>
			<path d="M28.4,111.1h-3.5c0.1,0.5,0.2,0.9,0.4,1.1s0.5,0.3,0.9,0.3c0.2,0,0.4,0,0.7-0.1c0.2-0.1,0.4-0.2,0.7-0.4l0.7,1
				c-0.7,0.6-1.4,0.8-2.2,0.8c-0.9,0-1.6-0.3-2.1-0.9s-0.7-1.4-0.7-2.3c0-0.6,0.1-1.2,0.3-1.7c0.2-0.5,0.5-0.9,0.9-1.2
				c0.4-0.3,0.9-0.4,1.4-0.4c0.8,0,1.5,0.3,1.9,0.8c0.5,0.6,0.7,1.3,0.7,2.3C28.4,110.7,28.4,110.9,28.4,111.1z M26.8,109.9
				c0-0.9-0.3-1.4-0.9-1.4c-0.3,0-0.5,0.1-0.7,0.3c-0.2,0.2-0.3,0.6-0.3,1.1H26.8L26.8,109.9z"/>
			<path d="M34.6,106c0.4,0.2,0.7,0.5,0.9,0.8c0.2,0.3,0.3,0.7,0.3,1.1s-0.1,0.8-0.2,1.2s-0.4,0.8-0.8,1.3s-1,1.1-1.7,1.8h3
				l-0.2,1.4h-4.7v-1.3c0.9-0.9,1.5-1.6,1.9-2.1s0.7-0.9,0.8-1.2c0.2-0.3,0.2-0.6,0.2-1c0-0.3-0.1-0.6-0.3-0.7
				c-0.2-0.2-0.4-0.3-0.7-0.3c-0.3,0-0.5,0.1-0.7,0.2s-0.4,0.3-0.6,0.6l-1-0.8c0.3-0.4,0.7-0.8,1.1-1s0.9-0.4,1.4-0.4
				C33.8,105.7,34.2,105.8,34.6,106z"/>
			<path d="M40.8,107.1h-2.6v1.6c0.3-0.2,0.7-0.3,1.1-0.3s0.8,0.1,1.1,0.3c0.3,0.2,0.6,0.5,0.7,0.9s0.3,0.8,0.3,1.4
				c0,0.5-0.1,1-0.3,1.4c-0.2,0.4-0.6,0.7-1,1s-0.9,0.3-1.5,0.3c-1,0-1.8-0.4-2.4-1.2l0.9-0.9c0.4,0.5,0.9,0.7,1.4,0.7
				c0.4,0,0.7-0.1,0.9-0.4c0.2-0.2,0.3-0.6,0.3-1c0-0.9-0.3-1.3-1-1.3c-0.1,0-0.3,0-0.4,0.1c-0.1,0-0.3,0.1-0.4,0.2h-1.1v-4.2h4.4
				L40.8,107.1z"/>
			<path d="M49.1,107.5v6.1h-1.7v-4.8h-1.1l-0.1,1.3c-0.1,0.9-0.2,1.6-0.3,2c-0.1,0.4-0.3,0.8-0.5,1c-0.3,0.3-0.6,0.4-1.2,0.6
				l-0.4-1.3c0.2-0.1,0.4-0.2,0.5-0.4c0.1-0.1,0.2-0.3,0.2-0.6s0.1-0.8,0.1-1.4l0.2-2.5L49.1,107.5L49.1,107.5z"/>
			<path d="M55.1,111.1h-3.5c0.1,0.5,0.2,0.9,0.4,1.1s0.5,0.3,0.9,0.3c0.2,0,0.4,0,0.7-0.1c0.2-0.1,0.4-0.2,0.7-0.4l0.7,1
				c-0.7,0.6-1.4,0.8-2.2,0.8c-0.9,0-1.6-0.3-2.1-0.9s-0.7-1.4-0.7-2.3c0-0.6,0.1-1.2,0.3-1.7c0.2-0.5,0.5-0.9,0.9-1.2
				c0.4-0.3,0.9-0.4,1.4-0.4c0.8,0,1.5,0.3,1.9,0.8c0.5,0.6,0.7,1.3,0.7,2.3C55.1,110.7,55.1,110.9,55.1,111.1z M53.4,109.9
				c0-0.9-0.3-1.4-0.9-1.4c-0.3,0-0.5,0.1-0.7,0.3c-0.2,0.2-0.3,0.6-0.3,1.1H53.4L53.4,109.9z"/>
			<path d="M60.2,107.5l-0.2,1.3h-1.5v4.8h-1.7v-4.8h-1.7v-1.3H60.2z"/>
			<path d="M68,112.3v3.2h-1.2l-0.2-1.9h-3.1l-0.2,1.9h-1.2v-3.2h0.4c0.1-0.1,0.2-0.2,0.3-0.4c0.1-0.2,0.2-0.4,0.2-0.8
				c0.1-0.4,0.1-0.9,0.2-1.5l0.2-2.1h4v4.8H68z M65.8,108.7h-1l-0.1,0.7c0,0.6-0.1,1.1-0.2,1.5s-0.2,0.7-0.3,0.9
				c-0.1,0.2-0.3,0.4-0.5,0.5h2v-3.6H65.8z"/>
			<path d="M73,108.2c0.5,0.6,0.7,1.4,0.7,2.4c0,0.7-0.1,1.2-0.3,1.7s-0.5,0.9-1,1.1c-0.4,0.3-0.9,0.4-1.5,0.4c-0.9,0-1.5-0.3-2-0.9
				s-0.7-1.4-0.7-2.4c0-0.7,0.1-1.2,0.3-1.7c0.2-0.5,0.5-0.9,1-1.1c0.4-0.3,0.9-0.4,1.5-0.4C71.8,107.3,72.5,107.6,73,108.2z
				 M70.2,109.1c-0.2,0.3-0.3,0.8-0.3,1.4c0,0.7,0.1,1.2,0.3,1.5c0.2,0.3,0.4,0.5,0.8,0.5c0.3,0,0.6-0.2,0.8-0.5
				c0.2-0.3,0.3-0.8,0.3-1.4c0-0.7-0.1-1.2-0.3-1.5c-0.2-0.3-0.4-0.5-0.8-0.5S70.3,108.8,70.2,109.1z"/>
			<path d="M79.4,111.8c0,0.6-0.2,1.1-0.7,1.4s-1.1,0.5-1.9,0.5h-2.4v-6c0.8-0.2,1.6-0.3,2.2-0.3c0.8,0,1.4,0.1,1.8,0.4
				s0.6,0.7,0.6,1.2c0,0.3-0.1,0.6-0.3,0.8c-0.2,0.2-0.5,0.4-0.9,0.4C78.9,110.4,79.4,110.9,79.4,111.8z M76.1,108.5v1.4h0.6
				c0.2,0,0.4-0.1,0.5-0.2s0.2-0.3,0.2-0.5c0-0.5-0.3-0.7-0.8-0.7C76.4,108.5,76.3,108.5,76.1,108.5z M77.7,111.6
				c0-0.3-0.1-0.4-0.2-0.6c-0.1-0.1-0.3-0.2-0.6-0.2h-0.7v1.6h0.7C77.4,112.4,77.7,112.1,77.7,111.6z"/>
			<path d="M85,111.1h-3.5c0.1,0.5,0.2,0.9,0.4,1.1s0.5,0.3,0.9,0.3c0.2,0,0.4,0,0.7-0.1c0.2-0.1,0.4-0.2,0.7-0.4l0.7,1
				c-0.7,0.6-1.4,0.8-2.2,0.8c-0.9,0-1.6-0.3-2.1-0.9s-0.7-1.4-0.7-2.3c0-0.6,0.1-1.2,0.3-1.7c0.2-0.5,0.5-0.9,0.9-1.2
				c0.4-0.3,0.9-0.4,1.4-0.4c0.8,0,1.5,0.3,1.9,0.8c0.5,0.6,0.7,1.3,0.7,2.3C85.1,110.7,85.1,110.9,85,111.1z M83.4,109.9
				c0-0.9-0.3-1.4-0.9-1.4c-0.3,0-0.5,0.1-0.7,0.3c-0.2,0.2-0.3,0.6-0.3,1.1H83.4L83.4,109.9z"/>
			<path d="M90.6,108.2c0.3,0.6,0.5,1.4,0.5,2.4c0,0.6-0.1,1.2-0.3,1.7s-0.4,0.9-0.8,1.2s-0.7,0.4-1.2,0.4c-0.6,0-1-0.2-1.4-0.6v2.8
				l-1.7,0.2v-8.8h1.5l0.1,0.7c0.2-0.3,0.5-0.5,0.8-0.7s0.6-0.2,0.9-0.2C89.7,107.3,90.2,107.6,90.6,108.2z M89.3,110.6
				c0-0.7-0.1-1.2-0.2-1.5s-0.4-0.4-0.7-0.4c-0.2,0-0.4,0.1-0.5,0.2c-0.2,0.1-0.3,0.3-0.4,0.5v2.6c0.2,0.4,0.5,0.5,0.9,0.5
				C89,112.5,89.3,111.8,89.3,110.6z"/>
			<path d="M96.9,113.6h-1.6v-2.2c0-0.4,0-0.8,0.1-1.2c0-0.4,0.1-0.7,0.2-1l-1.9,4.4H92v-6.1h1.6v2.2c0,0.4,0,0.8-0.1,1.2
				c0,0.4-0.1,0.7-0.2,1l1.9-4.4h1.7V113.6z"/>
			<path d="M102.5,107.5v6.1h-1.7v-2.1h-0.7l-1,2.1h-1.8l1.3-2.5c-0.3-0.2-0.5-0.4-0.6-0.6c-0.2-0.3-0.2-0.6-0.2-0.9
				c0-0.7,0.2-1.1,0.7-1.5c0.5-0.3,1.1-0.5,2-0.5h2V107.5z M100.8,110.4v-1.7h-0.5c-0.3,0-0.5,0.1-0.7,0.2s-0.2,0.4-0.2,0.6
				c0,0.3,0.1,0.5,0.2,0.7s0.4,0.2,0.7,0.2L100.8,110.4L100.8,110.4z"/>
		</g>
	</g>
	<g>
		<g>
			<path d="M36.1,22.1l-1-1.8c-0.2-0.4-0.5-0.5-0.8-0.4c-0.1,0.1-0.2,0.2-0.3,0.3c-0.1,0.1-0.1,0.3-0.2,0.6l1,1.9
				c0.1,0.3,0.3,0.4,0.4,0.5s0.3,0.1,0.4,0l0.1,0.1l-2,1.1l-0.1-0.1c0.2-0.1,0.2-0.2,0.3-0.3c0-0.1-0.1-0.3-0.2-0.6l-1.2-2.1
				c-0.2-0.4-0.5-0.4-0.8-0.3l-0.1-0.1l1.6-0.9l0.2,0.4c0.1-0.3,0.3-0.5,0.4-0.7c0.2-0.2,0.4-0.4,0.7-0.5c0.2-0.1,0.4-0.1,0.6-0.1
				s0.5,0.1,0.7,0.3c0.1-0.3,0.2-0.5,0.3-0.8c0.2-0.3,0.4-0.5,0.7-0.6c0.3-0.2,0.6-0.2,0.9-0.1c0.3,0.1,0.5,0.4,0.8,0.9l0.8,1.5
				c0.1,0.3,0.3,0.4,0.4,0.5s0.3,0.1,0.4,0l0.1,0.1l-2,1.1l-0.1-0.1c0.2-0.1,0.2-0.2,0.3-0.3c0-0.1-0.1-0.3-0.2-0.6l-1-1.8
				c-0.2-0.4-0.5-0.5-0.8-0.4c-0.1,0.1-0.2,0.2-0.3,0.3c-0.1,0.1-0.1,0.3-0.2,0.6l1,1.9c0.1,0.3,0.3,0.4,0.4,0.5s0.3,0.1,0.4,0
				l0.1,0.1l-2,1.1l-0.1-0.1c0.2-0.1,0.2-0.2,0.3-0.3C36.3,22.6,36.3,22.4,36.1,22.1z"/>
			<path d="M42.5,20.5c-0.6,0.2-1.1,0.1-1.6-0.1c-0.5-0.3-0.8-0.7-1-1.3s-0.2-1.2,0.1-1.7c0.3-0.5,0.7-0.8,1.3-1
				c0.6-0.2,1.1-0.1,1.6,0.1c0.5,0.3,0.8,0.7,1,1.3s0.2,1.2-0.1,1.7C43.5,20,43.1,20.3,42.5,20.5z M41.3,16.7
				c-0.2,0.1-0.4,0.3-0.4,0.6s0.1,0.8,0.2,1.3c0.2,0.6,0.4,1,0.6,1.3s0.4,0.4,0.6,0.3c0.2-0.1,0.4-0.3,0.4-0.6s-0.1-0.8-0.2-1.4
				c-0.2-0.6-0.4-1-0.5-1.2C41.7,16.7,41.5,16.6,41.3,16.7z"/>
			<path d="M43.8,15.7l1.8-0.3l0.2,0.9c0.1-0.4,0.3-0.7,0.5-0.9s0.4-0.3,0.7-0.4c0.2,0,0.3,0,0.5,0.1s0.2,0.2,0.2,0.4
				c0,0.1,0,0.3-0.1,0.4c-0.1,0.1-0.2,0.2-0.4,0.2c-0.1,0-0.2,0-0.3-0.1c-0.2-0.1-0.4-0.2-0.4-0.2c-0.2,0-0.3,0.2-0.4,0.5
				s-0.2,0.7-0.1,1l0.2,1c0,0.3,0.1,0.5,0.2,0.6s0.2,0.1,0.4,0.1v0.2l-2.3,0.4v-0.2c0.2,0,0.3-0.1,0.4-0.2c0.1-0.1,0.1-0.3,0-0.6
				l-0.4-2.4c-0.1-0.4-0.3-0.6-0.6-0.5H43.8z"/>
			<path d="M51.9,16.9L49.5,17c0,0.4,0.1,0.8,0.3,1.1c0.2,0.4,0.6,0.6,1,0.6c0.2,0,0.3-0.1,0.5-0.1s0.3-0.2,0.4-0.4l0.2,0.1
				c-0.2,0.3-0.4,0.5-0.6,0.7c-0.3,0.2-0.7,0.3-1.1,0.3c-0.7,0-1.2-0.2-1.5-0.6c-0.3-0.4-0.5-0.9-0.5-1.5s0.2-1.1,0.5-1.5
				c0.4-0.4,0.8-0.6,1.4-0.7c0.6,0,1,0.1,1.4,0.5C51.8,15.8,52,16.3,51.9,16.9L51.9,16.9z M49.5,16.6h1.2c0-0.9-0.2-1.3-0.6-1.3
				c-0.2,0-0.4,0.1-0.5,0.3S49.5,16.1,49.5,16.6z"/>
			<path d="M56.7,15.5l1,0.2L57.6,16l-1-0.2l-0.5,3c0,0.2,0,0.4,0.2,0.4s0.4,0,0.5-0.1v0.3c-0.2,0.1-0.4,0.2-0.6,0.3
				c-0.2,0-0.4,0-0.7,0c-0.3,0-0.5-0.2-0.6-0.3c-0.1-0.2-0.2-0.5-0.1-0.9l0.5-2.8l-0.6-0.1v-0.2c0.4-0.1,0.8-0.3,1.1-0.5
				c0.3-0.2,0.6-0.5,0.8-0.9h0.2L56.7,15.5z"/>
			<path d="M60.6,14.4l-0.7,2.3c0.3-0.1,0.5-0.2,0.7-0.2s0.5,0,0.8,0.1c0.4,0.1,0.6,0.3,0.7,0.6s0.1,0.6,0,1l-0.6,1.9
				c-0.1,0.3-0.1,0.5-0.1,0.6s0.1,0.2,0.3,0.3v0.2l-2.2-0.7v-0.2c0.2,0.1,0.3,0,0.4,0c0.1-0.1,0.2-0.3,0.3-0.6l0.6-2
				c0.1-0.2,0.1-0.3,0-0.5c0-0.1-0.1-0.2-0.3-0.3c-0.3-0.1-0.6,0-0.9,0.3l-0.6,2c-0.1,0.3-0.1,0.5-0.1,0.6s0.1,0.2,0.3,0.3v0.2
				L57,19.6v-0.2c0.2,0.1,0.3,0,0.4,0c0.1-0.1,0.2-0.3,0.3-0.6l1.3-4.2c0.1-0.4,0-0.6-0.3-0.7v-0.2L60.6,14.4z"/>
			<path d="M65,19.8l0.3-0.7c0.1-0.1,0-0.2,0-0.4s-0.2-0.2-0.3-0.3c-0.2-0.1-0.3-0.1-0.4-0.2c-0.1,0-0.2,0-0.2,0.1
				c0,0,0,0.1,0.1,0.3c0,0.1,0,0.2,0,0.3c-0.1,0.1-0.2,0.2-0.3,0.3c-0.1,0-0.3,0-0.4-0.1c-0.4-0.2-0.5-0.5-0.3-0.8
				c0.1-0.3,0.4-0.4,0.8-0.4s0.8,0.1,1.3,0.3s0.8,0.5,0.9,0.8c0.2,0.3,0.2,0.7,0,1l-1,2c0,0.1,0,0.1,0,0.2c0,0.1,0.1,0.1,0.1,0.2
				c0.1,0,0.1,0.1,0.2,0.1s0.1,0,0.2,0l-0.1,0.2c-0.2,0.1-0.4,0.1-0.6,0.1s-0.4-0.1-0.6-0.2c-0.2-0.1-0.3-0.2-0.4-0.4
				s-0.1-0.3,0-0.5c-0.3,0.1-0.5,0.2-0.7,0.2c-0.3,0-0.5-0.1-0.9-0.3c-0.3-0.1-0.4-0.3-0.5-0.5s-0.1-0.4,0-0.6
				c0.2-0.3,0.5-0.6,0.9-0.7C63.4,19.7,64.1,19.7,65,19.8z M64.3,21.4l0.6-1.2c-0.3,0-0.6,0-0.9,0.1s-0.4,0.3-0.6,0.5
				c-0.1,0.1-0.1,0.2-0.1,0.3s0.1,0.2,0.2,0.3c0.1,0,0.2,0.1,0.3,0.1C64.1,21.5,64.2,21.4,64.3,21.4z"/>
			<path d="M67.9,19.6l1.5,1.1l-0.3,0.4c0.3,0,0.6,0,0.8,0c0.2,0.1,0.5,0.2,0.8,0.4s0.5,0.5,0.5,0.8s-0.1,0.7-0.5,1.1l-1,1.4
				c-0.2,0.2-0.3,0.4-0.3,0.6c0,0.1,0.1,0.3,0.2,0.4l-0.1,0.1l-1.9-1.3l0.1-0.1c0.2,0.1,0.3,0.1,0.4,0.1s0.3-0.2,0.4-0.4l1.2-1.6
				c0.3-0.4,0.3-0.7,0-0.9c-0.1-0.1-0.2-0.1-0.4-0.1c-0.1,0-0.4,0-0.6,0.1l-1.2,1.8c-0.2,0.2-0.3,0.4-0.3,0.6s0.1,0.3,0.2,0.4
				l-0.1,0.1l-1.9-1.3l0.1-0.1c0.2,0.1,0.3,0.1,0.4,0.1s0.3-0.2,0.4-0.4l1.4-2c0.2-0.3,0.2-0.6-0.1-0.8L67.9,19.6z"/>
		</g>
	</g>
</g>
</svg>
