<svg width="609" height="62" viewBox="0 0 609 62" fill="none" xmlns="http://www.w3.org/2000/svg">
<path d="M0 14C0 8.47715 4.47715 4 10 4H567C572.523 4 577 8.47715 577 14V49C577 54.5228 572.523 59 567 59H9.99999C4.47714 59 0 54.5228 0 49V14Z" fill="#FF0000"/>
<path fill-rule="evenodd" clip-rule="evenodd" d="M567 7H10C6.13401 7 3 10.134 3 14V49C3 52.866 6.134 56 9.99999 56H567C570.866 56 574 52.866 574 49V14C574 10.134 570.866 7 567 7ZM10 4C4.47715 4 0 8.47715 0 14V49C0 54.5228 4.47714 59 9.99999 59H567C572.523 59 577 54.5228 577 49V14C577 8.47715 572.523 4 567 4H10Z" fill="white"/>
<path d="M39.7139 24.29V26.9292H32.3579V40.6416H29V24.29H39.7139ZM31.2012 30.2534H35.0195C36.3073 30.2534 37.4154 30.4668 38.3438 30.8936C39.2721 31.3203 39.9871 31.9193 40.4888 32.6904C40.9904 33.4616 41.2412 34.36 41.2412 35.3857C41.2412 36.1644 41.099 36.8757 40.8145 37.5195C40.5299 38.1559 40.1144 38.71 39.5679 39.1816C39.0288 39.6458 38.3774 40.0052 37.6138 40.2598C36.8501 40.5143 35.9854 40.6416 35.0195 40.6416H29V24.29H32.3804V38.0137H35.0195C35.6634 38.0137 36.195 37.8939 36.6143 37.6543C37.0335 37.4147 37.348 37.0965 37.5576 36.6997C37.7747 36.2954 37.8833 35.8499 37.8833 35.3633C37.8833 34.8991 37.7747 34.4798 37.5576 34.1055C37.348 33.7236 37.0335 33.4242 36.6143 33.207C36.195 32.9899 35.6634 32.8813 35.0195 32.8813H31.2012V30.2534Z" fill="white"/>
<path d="M54.4146 38.0137V40.6416H45.7109V38.0137H54.4146ZM46.8115 24.29V40.6416H43.4424V24.29H46.8115ZM53.2803 30.9497V33.5103H45.7109V30.9497H53.2803ZM54.4033 24.29V26.9292H45.7109V24.29H54.4033Z" fill="white"/>
<path d="M62.4893 32.8027H59.9512V31.0171H61.9727C62.5641 31.0171 63.0433 30.9272 63.4102 30.7476C63.777 30.5604 64.0465 30.2983 64.2188 29.9614C64.391 29.6245 64.4771 29.2277 64.4771 28.771C64.4771 28.3966 64.3797 28.0522 64.1851 27.7378C63.9979 27.4233 63.7059 27.1725 63.3091 26.9854C62.9123 26.7907 62.4069 26.6934 61.793 26.6934C61.3288 26.6934 60.9058 26.7757 60.5239 26.9404C60.1421 27.1051 59.8389 27.3372 59.6143 27.6367C59.3896 27.9287 59.2773 28.2843 59.2773 28.7036H55.9194C55.9194 27.9849 56.0729 27.341 56.3799 26.772C56.6943 26.1955 57.1211 25.7088 57.6602 25.312C58.2067 24.9077 58.8356 24.6007 59.5469 24.3911C60.2581 24.1815 61.0068 24.0767 61.793 24.0767C62.7139 24.0767 63.5449 24.1777 64.2861 24.3799C65.0273 24.5745 65.6637 24.8665 66.1953 25.2559C66.7269 25.6452 67.1349 26.1281 67.4194 26.7046C67.7039 27.2811 67.8462 27.9512 67.8462 28.7148C67.8462 29.2764 67.7189 29.8042 67.4644 30.2983C67.2098 30.7925 66.8467 31.2267 66.375 31.6011C65.9033 31.9754 65.3381 32.2712 64.6792 32.4883C64.0203 32.6979 63.2904 32.8027 62.4893 32.8027ZM59.9512 31.8257H62.4893C63.3802 31.8257 64.1701 31.9193 64.8589 32.1064C65.5552 32.2936 66.1429 32.5669 66.6221 32.9263C67.1087 33.2856 67.4756 33.7311 67.7227 34.2627C67.9772 34.7868 68.1045 35.3895 68.1045 36.0708C68.1045 36.8345 67.9473 37.512 67.6328 38.1035C67.3258 38.695 66.8879 39.1966 66.3188 39.6084C65.7573 40.0202 65.091 40.3309 64.3198 40.5405C63.5562 40.7502 62.7139 40.855 61.793 40.855C61.0592 40.855 60.3293 40.7651 59.603 40.5854C58.8768 40.3983 58.2179 40.1138 57.6265 39.7319C57.035 39.3501 56.5633 38.8597 56.2114 38.2607C55.8595 37.6618 55.6836 36.943 55.6836 36.1045H59.064C59.064 36.5013 59.18 36.8644 59.4121 37.1938C59.6442 37.5158 59.9661 37.7741 60.3779 37.9688C60.7897 38.1559 61.2614 38.2495 61.793 38.2495C62.4144 38.2495 62.9422 38.1522 63.3765 37.9575C63.8182 37.7629 64.1514 37.4971 64.376 37.1602C64.6081 36.8158 64.7241 36.4377 64.7241 36.0259C64.7241 35.5841 64.6642 35.2098 64.5444 34.9028C64.4246 34.5959 64.2487 34.3451 64.0166 34.1504C63.7845 33.9482 63.4963 33.8022 63.1519 33.7124C62.8149 33.6226 62.4219 33.5776 61.9727 33.5776H59.9512V31.8257Z" fill="white"/>
<path d="M89.6445 24.29V40.6416H86.2754V26.9292H79.7056V40.6416H76.3364V24.29H89.6445Z" fill="white"/>
<path d="M106.019 32.084V32.8589C106.019 34.1017 105.85 35.2173 105.513 36.2056C105.176 37.1938 104.701 38.0361 104.087 38.7324C103.473 39.4212 102.739 39.9491 101.886 40.3159C101.04 40.6828 100.1 40.8662 99.0669 40.8662C98.0412 40.8662 97.1016 40.6828 96.248 40.3159C95.402 39.9491 94.6683 39.4212 94.0469 38.7324C93.4255 38.0361 92.9425 37.1938 92.5981 36.2056C92.2612 35.2173 92.0928 34.1017 92.0928 32.8589V32.084C92.0928 30.8337 92.2612 29.7181 92.5981 28.7373C92.9351 27.749 93.4105 26.9067 94.0244 26.2104C94.6458 25.5142 95.3796 24.9826 96.2256 24.6157C97.0791 24.2489 98.0187 24.0654 99.0444 24.0654C100.078 24.0654 101.017 24.2489 101.863 24.6157C102.717 24.9826 103.451 25.5142 104.064 26.2104C104.686 26.9067 105.165 27.749 105.502 28.7373C105.846 29.7181 106.019 30.8337 106.019 32.084ZM102.616 32.8589V32.0615C102.616 31.193 102.537 30.4294 102.38 29.7705C102.223 29.1117 101.991 28.5576 101.684 28.1084C101.377 27.6592 101.002 27.3223 100.561 27.0977C100.119 26.8656 99.6134 26.7495 99.0444 26.7495C98.4754 26.7495 97.9701 26.8656 97.5283 27.0977C97.0941 27.3223 96.7235 27.6592 96.4165 28.1084C96.117 28.5576 95.8887 29.1117 95.7314 29.7705C95.5742 30.4294 95.4956 31.193 95.4956 32.0615V32.8589C95.4956 33.7199 95.5742 34.4836 95.7314 35.1499C95.8887 35.8088 96.1208 36.3665 96.4277 36.8232C96.7347 37.2725 97.109 37.6131 97.5508 37.8452C97.9925 38.0773 98.4979 38.1934 99.0669 38.1934C99.6359 38.1934 100.141 38.0773 100.583 37.8452C101.025 37.6131 101.395 37.2725 101.695 36.8232C101.994 36.3665 102.223 35.8088 102.38 35.1499C102.537 34.4836 102.616 33.7199 102.616 32.8589Z" fill="white"/>
<path d="M119.136 24.29V26.9292H111.78V40.6416H108.422V24.29H119.136ZM110.623 30.2534H114.441C115.729 30.2534 116.837 30.4668 117.766 30.8936C118.694 31.3203 119.409 31.9193 119.911 32.6904C120.412 33.4616 120.663 34.36 120.663 35.3857C120.663 36.1644 120.521 36.8757 120.236 37.5195C119.952 38.1559 119.536 38.71 118.99 39.1816C118.451 39.6458 117.799 40.0052 117.036 40.2598C116.272 40.5143 115.407 40.6416 114.441 40.6416H108.422V24.29H111.802V38.0137H114.441C115.085 38.0137 115.617 37.8939 116.036 37.6543C116.455 37.4147 116.77 37.0965 116.979 36.6997C117.197 36.2954 117.305 35.8499 117.305 35.3633C117.305 34.8991 117.197 34.4798 116.979 34.1055C116.77 33.7236 116.455 33.4242 116.036 33.207C115.617 32.9899 115.085 32.8813 114.441 32.8813H110.623V30.2534Z" fill="white"/>
<path d="M136.296 32.084V32.8589C136.296 34.1017 136.127 35.2173 135.791 36.2056C135.454 37.1938 134.978 38.0361 134.364 38.7324C133.75 39.4212 133.017 39.9491 132.163 40.3159C131.317 40.6828 130.377 40.8662 129.344 40.8662C128.319 40.8662 127.379 40.6828 126.525 40.3159C125.679 39.9491 124.946 39.4212 124.324 38.7324C123.703 38.0361 123.22 37.1938 122.875 36.2056C122.539 35.2173 122.37 34.1017 122.37 32.8589V32.084C122.37 30.8337 122.539 29.7181 122.875 28.7373C123.212 27.749 123.688 26.9067 124.302 26.2104C124.923 25.5142 125.657 24.9826 126.503 24.6157C127.356 24.2489 128.296 24.0654 129.322 24.0654C130.355 24.0654 131.295 24.2489 132.141 24.6157C132.994 24.9826 133.728 25.5142 134.342 26.2104C134.963 26.9067 135.442 27.749 135.779 28.7373C136.124 29.7181 136.296 30.8337 136.296 32.084ZM132.893 32.8589V32.0615C132.893 31.193 132.814 30.4294 132.657 29.7705C132.5 29.1117 132.268 28.5576 131.961 28.1084C131.654 27.6592 131.28 27.3223 130.838 27.0977C130.396 26.8656 129.891 26.7495 129.322 26.7495C128.753 26.7495 128.247 26.8656 127.806 27.0977C127.371 27.3223 127.001 27.6592 126.694 28.1084C126.394 28.5576 126.166 29.1117 126.009 29.7705C125.852 30.4294 125.773 31.193 125.773 32.0615V32.8589C125.773 33.7199 125.852 34.4836 126.009 35.1499C126.166 35.8088 126.398 36.3665 126.705 36.8232C127.012 37.2725 127.386 37.6131 127.828 37.8452C128.27 38.0773 128.775 38.1934 129.344 38.1934C129.913 38.1934 130.419 38.0773 130.86 37.8452C131.302 37.6131 131.673 37.2725 131.972 36.8232C132.272 36.3665 132.5 35.8088 132.657 35.1499C132.814 34.4836 132.893 33.7199 132.893 32.8589Z" fill="white"/>
<path d="M138.823 24.29H142.203V29.3101C142.203 30.0288 142.312 30.5903 142.529 30.9946C142.753 31.3989 143.09 31.6834 143.54 31.8481C143.996 32.0054 144.562 32.084 145.235 32.084C145.49 32.084 145.789 32.0728 146.134 32.0503C146.486 32.0278 146.845 31.9941 147.212 31.9492C147.579 31.8968 147.931 31.8407 148.268 31.7808C148.604 31.7134 148.885 31.6385 149.11 31.5562V34.1841C148.885 34.259 148.604 34.3301 148.268 34.3975C147.931 34.4648 147.579 34.5247 147.212 34.5771C146.845 34.6221 146.486 34.6558 146.134 34.6782C145.789 34.7007 145.49 34.7119 145.235 34.7119C143.933 34.7119 142.802 34.5247 141.844 34.1504C140.885 33.776 140.14 33.1921 139.609 32.3984C139.085 31.5973 138.823 30.5679 138.823 29.3101V24.29ZM148.402 24.29H151.771V40.6416H148.402V24.29Z" fill="white"/>
<path d="M165.596 30.9497V33.5776H157.061V30.9497H165.596ZM158.061 24.29V40.6416H154.691V24.29H158.061ZM168 24.29V40.6416H164.642V24.29H168Z" fill="white"/>
<path d="M173.154 30.2534H176.973C178.253 30.2534 179.357 30.4668 180.286 30.8936C181.222 31.3203 181.937 31.9193 182.431 32.6904C182.932 33.4616 183.183 34.36 183.183 35.3857C183.183 36.1644 183.041 36.8757 182.756 37.5195C182.472 38.1559 182.06 38.71 181.521 39.1816C180.982 39.6458 180.331 40.0052 179.567 40.2598C178.803 40.5143 177.938 40.6416 176.973 40.6416H170.953V24.29H174.333V38.0137H176.973C177.609 38.0137 178.137 37.8939 178.556 37.6543C178.983 37.4147 179.301 37.0965 179.511 36.6997C179.72 36.2954 179.825 35.8499 179.825 35.3633C179.825 34.8991 179.72 34.4798 179.511 34.1055C179.301 33.7236 178.983 33.4242 178.556 33.207C178.137 32.9899 177.609 32.8813 176.973 32.8813H173.154V30.2534ZM187.99 24.29V40.6416H184.632V24.29H187.99Z" fill="white"/>
<path d="M193.897 24.29L196.974 29.9951L200.051 24.29H203.903L199.153 32.3984L204.027 40.6416H200.141L196.974 34.8242L193.807 40.6416H189.899L194.784 32.3984L190.022 24.29H193.897Z" fill="white"/>
<path d="M224.421 38.0137V40.6416H212.641V38.0137H224.421ZM213.64 38.0137V44.6509H210.473L210.293 38.0137H213.64ZM226.847 38.0137L226.555 44.6621H223.467V38.0137H226.847ZM222.568 24.29V26.9292H214.696V24.29H222.568ZM224.972 24.29V40.6416H221.614V24.29H224.972ZM214.28 24.29H217.649L217.211 30.9497C217.144 32.0503 217.024 33.0236 216.852 33.8696C216.687 34.7082 216.485 35.4456 216.246 36.082C216.014 36.7184 215.755 37.2762 215.471 37.7554C215.186 38.2271 214.887 38.6388 214.572 38.9907C214.258 39.3351 213.94 39.6421 213.618 39.9116C213.296 40.1737 212.981 40.417 212.674 40.6416H210.743V38.0137H211.495C211.712 37.834 211.941 37.5869 212.18 37.2725C212.427 36.958 212.659 36.535 212.876 36.0034C213.101 35.4644 213.296 34.783 213.46 33.9595C213.633 33.1359 213.76 32.1326 213.842 30.9497L214.28 24.29Z" fill="white"/>
<path d="M239.56 38.0137V40.6416H230.856V38.0137H239.56ZM231.957 24.29V40.6416H228.588V24.29H231.957ZM238.426 30.9497V33.5103H230.856V30.9497H238.426ZM239.549 24.29V26.9292H230.856V24.29H239.549Z" fill="white"/>
<path d="M244.771 35.3408L251.341 24.29H254.71V40.6416H251.341V29.5908L244.771 40.6416H241.402V24.29H244.771V35.3408ZM249.69 20H251.992C251.992 20.6439 251.831 21.2166 251.509 21.7183C251.195 22.2124 250.746 22.6017 250.162 22.8862C249.578 23.1632 248.889 23.3018 248.095 23.3018C246.89 23.3018 245.935 22.9948 245.231 22.3809C244.535 21.7669 244.187 20.9733 244.187 20H246.478C246.478 20.3893 246.598 20.7375 246.837 21.0444C247.084 21.3514 247.504 21.5049 248.095 21.5049C248.679 21.5049 249.091 21.3514 249.331 21.0444C249.57 20.7375 249.69 20.3893 249.69 20Z" fill="white"/>
<path d="M267.108 35.2173H270.466C270.399 36.3179 270.096 37.2949 269.557 38.1484C269.025 39.002 268.28 39.6683 267.322 40.1475C266.371 40.6266 265.225 40.8662 263.885 40.8662C262.837 40.8662 261.897 40.6865 261.066 40.3271C260.235 39.9603 259.524 39.4362 258.933 38.7549C258.349 38.0736 257.903 37.25 257.596 36.2842C257.289 35.3184 257.136 34.2365 257.136 33.0386V31.9043C257.136 30.7064 257.293 29.6245 257.607 28.6587C257.929 27.6854 258.386 26.8581 258.978 26.1768C259.576 25.4954 260.292 24.9714 261.123 24.6045C261.954 24.2376 262.882 24.0542 263.908 24.0542C265.27 24.0542 266.42 24.3013 267.355 24.7954C268.299 25.2896 269.029 25.9709 269.545 26.8394C270.069 27.7078 270.384 28.6961 270.489 29.8042H267.12C267.082 29.1453 266.951 28.5876 266.727 28.1309C266.502 27.6667 266.161 27.3185 265.705 27.0864C265.255 26.8468 264.656 26.7271 263.908 26.7271C263.346 26.7271 262.856 26.8319 262.437 27.0415C262.017 27.2511 261.665 27.5693 261.381 27.9961C261.096 28.4229 260.883 28.9619 260.741 29.6133C260.606 30.2572 260.539 31.0133 260.539 31.8818V33.0386C260.539 33.8846 260.602 34.6296 260.729 35.2734C260.857 35.9098 261.051 36.4489 261.313 36.8906C261.583 37.3249 261.927 37.6543 262.347 37.8789C262.773 38.096 263.286 38.2046 263.885 38.2046C264.589 38.2046 265.169 38.0923 265.626 37.8677C266.083 37.6431 266.431 37.3099 266.67 36.8682C266.917 36.4264 267.063 35.8761 267.108 35.2173Z" fill="white"/>
<path d="M279.653 24.29V40.6416H276.295V24.29H279.653ZM284.684 24.29V26.9292H271.342V24.29H284.684Z" fill="white"/>
<path d="M293.006 33.4653H288.806L288.783 31.1519H292.31C292.931 31.1519 293.44 31.0732 293.837 30.916C294.234 30.7513 294.529 30.5155 294.724 30.2085C294.926 29.894 295.027 29.5122 295.027 29.063C295.027 28.5539 294.93 28.1421 294.735 27.8276C294.548 27.5132 294.252 27.2848 293.848 27.1426C293.451 27.0003 292.938 26.9292 292.31 26.9292H289.974V40.6416H286.604V24.29H292.31C293.26 24.29 294.11 24.3799 294.859 24.5596C295.615 24.7393 296.255 25.0125 296.779 25.3794C297.303 25.7463 297.704 26.2104 297.981 26.772C298.258 27.326 298.396 27.9849 298.396 28.7485C298.396 29.4224 298.243 30.0438 297.936 30.6128C297.637 31.1818 297.161 31.646 296.51 32.0054C295.866 32.3647 295.024 32.5632 293.983 32.6006L293.006 33.4653ZM292.86 40.6416H287.885L289.199 38.0137H292.86C293.451 38.0137 293.934 37.9201 294.309 37.7329C294.683 37.5382 294.96 37.2762 295.14 36.9468C295.319 36.6174 295.409 36.2393 295.409 35.8125C295.409 35.3333 295.327 34.9178 295.162 34.5659C295.005 34.214 294.75 33.9445 294.398 33.7573C294.047 33.5627 293.582 33.4653 293.006 33.4653H289.76L289.783 31.1519H293.826L294.601 32.0615C295.596 32.0465 296.397 32.2225 297.004 32.5894C297.618 32.9487 298.063 33.4167 298.34 33.9932C298.625 34.5697 298.767 35.1873 298.767 35.8462C298.767 36.8944 298.539 37.7778 298.082 38.4966C297.625 39.2078 296.955 39.7432 296.072 40.1025C295.196 40.4619 294.125 40.6416 292.86 40.6416Z" fill="white"/>
<path d="M304.54 35.3408L311.109 24.29H314.479V40.6416H311.109V29.5908L304.54 40.6416H301.17V24.29H304.54V35.3408Z" fill="white"/>
<path d="M320.644 35.3408L327.214 24.29H330.583V40.6416H327.214V29.5908L320.644 40.6416H317.275V24.29H320.644V35.3408ZM325.563 20H327.865C327.865 20.6439 327.704 21.2166 327.382 21.7183C327.068 22.2124 326.619 22.6017 326.035 22.8862C325.451 23.1632 324.762 23.3018 323.968 23.3018C322.763 23.3018 321.808 22.9948 321.104 22.3809C320.408 21.7669 320.06 20.9733 320.06 20H322.351C322.351 20.3893 322.471 20.7375 322.71 21.0444C322.958 21.3514 323.377 21.5049 323.968 21.5049C324.552 21.5049 324.964 21.3514 325.204 21.0444C325.443 20.7375 325.563 20.3893 325.563 20Z" fill="white"/>
<path d="M342.476 35.3408L349.046 24.29H352.415V40.6416H349.046V29.5908L342.476 40.6416H339.107V24.29H342.476V35.3408Z" fill="white"/>
<path d="M374.382 24.29V40.6416H371.013V26.9292H364.443V40.6416H361.074V24.29H374.382Z" fill="white"/>
<path d="M383.692 34.813H379.525V32.1851H383.692C384.336 32.1851 384.86 32.0802 385.264 31.8706C385.668 31.6535 385.964 31.354 386.151 30.9722C386.339 30.5903 386.432 30.1598 386.432 29.6807C386.432 29.194 386.339 28.741 386.151 28.3218C385.964 27.9025 385.668 27.5656 385.264 27.311C384.86 27.0565 384.336 26.9292 383.692 26.9292H380.693V40.6416H377.324V24.29H383.692C384.972 24.29 386.069 24.5221 386.982 24.9863C387.903 25.443 388.607 26.0757 389.094 26.8843C389.58 27.6929 389.824 28.6175 389.824 29.6582C389.824 30.7139 389.58 31.6273 389.094 32.3984C388.607 33.1696 387.903 33.7648 386.982 34.1841C386.069 34.6034 384.972 34.813 383.692 34.813Z" fill="white"/>
<path d="M395.394 35.3408L401.964 24.29H405.333V40.6416H401.964V29.5908L395.394 40.6416H392.025V24.29H395.394V35.3408Z" fill="white"/>
<path d="M414.654 33.4653H410.454L410.432 31.1519H413.958C414.579 31.1519 415.089 31.0732 415.485 30.916C415.882 30.7513 416.178 30.5155 416.373 30.2085C416.575 29.894 416.676 29.5122 416.676 29.063C416.676 28.5539 416.578 28.1421 416.384 27.8276C416.197 27.5132 415.901 27.2848 415.497 27.1426C415.1 27.0003 414.587 26.9292 413.958 26.9292H411.622V40.6416H408.253V24.29H413.958C414.909 24.29 415.759 24.3799 416.507 24.5596C417.264 24.7393 417.904 25.0125 418.428 25.3794C418.952 25.7463 419.352 26.2104 419.629 26.772C419.906 27.326 420.045 27.9849 420.045 28.7485C420.045 29.4224 419.891 30.0438 419.584 30.6128C419.285 31.1818 418.81 31.646 418.158 32.0054C417.514 32.3647 416.672 32.5632 415.631 32.6006L414.654 33.4653ZM414.508 40.6416H409.533L410.847 38.0137H414.508C415.1 38.0137 415.583 37.9201 415.957 37.7329C416.331 37.5382 416.608 37.2762 416.788 36.9468C416.968 36.6174 417.058 36.2393 417.058 35.8125C417.058 35.3333 416.975 34.9178 416.811 34.5659C416.653 34.214 416.399 33.9445 416.047 33.7573C415.695 33.5627 415.231 33.4653 414.654 33.4653H411.409L411.431 31.1519H415.474L416.249 32.0615C417.245 32.0465 418.046 32.2225 418.652 32.5894C419.266 32.9487 419.712 33.4167 419.989 33.9932C420.273 34.5697 420.416 35.1873 420.416 35.8462C420.416 36.8944 420.187 37.7778 419.73 38.4966C419.274 39.2078 418.604 39.7432 417.72 40.1025C416.844 40.4619 415.774 40.6416 414.508 40.6416Z" fill="white"/>
<path d="M425.166 30.2534H428.984C430.265 30.2534 431.369 30.4668 432.297 30.8936C433.233 31.3203 433.948 31.9193 434.442 32.6904C434.944 33.4616 435.195 34.36 435.195 35.3857C435.195 36.1644 435.053 36.8757 434.768 37.5195C434.484 38.1559 434.072 38.71 433.533 39.1816C432.994 39.6458 432.342 40.0052 431.579 40.2598C430.815 40.5143 429.95 40.6416 428.984 40.6416H422.965V24.29H426.345V38.0137H428.984C429.621 38.0137 430.149 37.8939 430.568 37.6543C430.995 37.4147 431.313 37.0965 431.522 36.6997C431.732 36.2954 431.837 35.8499 431.837 35.3633C431.837 34.8991 431.732 34.4798 431.522 34.1055C431.313 33.7236 430.995 33.4242 430.568 33.207C430.149 32.9899 429.621 32.8813 428.984 32.8813H425.166V30.2534ZM440.001 24.29V40.6416H436.644V24.29H440.001Z" fill="white"/>
<path d="M446.313 24.29V40.6416H442.944V24.29H446.313ZM455.949 24.29L449.682 33.8921H445.561L445.134 30.8936H447.885L451.861 24.29H455.949ZM452.479 40.6416L447.896 33.3306L450.232 30.9272L456.477 40.6416H452.479Z" fill="white"/>
<path d="M464.45 27.0864L460.003 40.6416H456.42L462.496 24.29H464.776L464.45 27.0864ZM468.145 40.6416L463.687 27.0864L463.327 24.29H465.629L471.739 40.6416H468.145ZM467.943 34.5547V37.1938H459.307V34.5547H467.943Z" fill="white"/>
<path d="M484.16 30.9497V33.5776H475.625V30.9497H484.16ZM476.624 24.29V40.6416H473.255V24.29H476.624ZM486.563 24.29V40.6416H483.205V24.29H486.563Z" fill="white"/>
<path d="M492.74 35.3408L499.31 24.29H502.679V40.6416H499.31V29.5908L492.74 40.6416H489.371V24.29H492.74V35.3408Z" fill="white"/>
<path d="M514.291 34.7007H509.844L508.709 34.229C507.429 33.8247 506.448 33.2183 505.767 32.4097C505.093 31.6011 504.756 30.5716 504.756 29.3213C504.756 28.2207 505 27.2998 505.486 26.5586C505.98 25.8099 506.677 25.2446 507.575 24.8628C508.481 24.481 509.556 24.29 510.798 24.29H516.503V40.6416H513.123V26.9292H510.798C509.877 26.9292 509.2 27.1576 508.766 27.6143C508.331 28.071 508.114 28.7186 508.114 29.5571C508.114 30.1711 508.215 30.6764 508.417 31.0732C508.62 31.4626 508.915 31.7546 509.305 31.9492C509.694 32.1364 510.184 32.23 510.776 32.23H514.28L514.291 34.7007ZM511.045 33.3418L507.418 40.6416H503.768L507.407 33.3418H511.045Z" fill="white"/>
<path d="M542.457 11.2902C542.665 11.7461 542.914 12.2021 543.247 12.6166L555.632 34.0052L568.184 55.6839C568.184 55.7254 568.225 55.7668 568.225 55.8083L568.308 55.9741C568.35 56.0155 568.391 56.057 568.391 56.1399C568.475 56.2642 568.558 56.3886 568.682 56.513C568.724 56.5544 568.724 56.5958 568.766 56.6373C569.846 58.0466 571.592 59 573.504 59C575.54 59 577.327 57.9637 578.408 56.43C578.449 56.3886 578.491 56.3057 578.491 56.2642C578.532 56.2228 578.574 56.1399 578.616 56.0984L578.823 55.7668L591.458 33.9637L603.968 12.3679L604.425 11.5803C604.799 10.7927 605.007 9.92228 605.007 8.96891C605.007 5.65285 602.306 3 599.022 3H573.545H548.026C544.701 3 542 5.6943 542 8.96891C542 9.79793 542.166 10.5855 542.457 11.2902Z" fill="#FF0000"/>
<path fill-rule="evenodd" clip-rule="evenodd" d="M539.705 12.485L539.684 12.435C539.247 11.3754 539 10.1994 539 8.96891C539 4.01645 543.066 0 548.026 0H599.022C603.941 0 608.007 3.97493 608.007 8.96891C608.007 10.3729 607.698 11.6825 607.135 12.8674L607.082 12.9793L606.564 13.8716L606.563 13.874L594.054 35.4675L581.393 57.3159L581.092 57.7959C581.019 57.9295 580.92 58.0899 580.789 58.2581C579.18 60.4761 576.54 62 573.504 62C570.628 62 568.051 60.5926 566.439 58.5327C566.422 58.5125 566.406 58.4921 566.39 58.4718C566.356 58.4286 566.325 58.3864 566.296 58.3457C566.104 58.1181 565.973 57.9215 565.911 57.8282C565.906 57.8204 565.902 57.8134 565.897 57.8071L565.896 57.8055L565.845 57.7542L565.793 57.6516L565.391 57.0502V56.8498L565.387 56.8415L553.036 35.5085L540.751 14.2923C540.292 13.68 539.968 13.0619 539.727 12.5343L539.705 12.485ZM543.247 12.6166L568.184 55.6839C568.184 55.7047 568.194 55.7254 568.204 55.7461C568.215 55.7668 568.225 55.7876 568.225 55.8083L568.308 55.9741C568.35 56.0155 568.391 56.057 568.391 56.1399C568.475 56.2642 568.558 56.3886 568.682 56.513C568.703 56.5337 568.714 56.5544 568.724 56.5751C568.734 56.5958 568.745 56.6166 568.766 56.6373C569.846 58.0466 571.592 59 573.504 59C575.54 59 577.327 57.9637 578.408 56.43C578.449 56.3886 578.491 56.3057 578.491 56.2642C578.512 56.2435 578.532 56.2124 578.553 56.1813C578.574 56.1503 578.595 56.1192 578.616 56.0984L578.823 55.7668L604.425 11.5803C604.799 10.7927 605.007 9.92228 605.007 8.96891C605.007 5.65285 602.306 3 599.022 3H548.026C544.701 3 542 5.6943 542 8.96891C542 9.79793 542.166 10.5855 542.457 11.2902C542.665 11.7461 542.914 12.2021 543.247 12.6166ZM566.19 58.0982C566.211 58.1189 566.195 58.1055 566.157 58.0653L566.19 58.0982ZM566.042 57.9197L566.045 57.9255C566.041 57.918 566.04 57.9151 566.042 57.9197Z" fill="white"/>
<path d="M569.847 41.3864C569.847 40.1843 570.179 39.231 570.844 38.6092C571.509 37.9874 572.465 37.6558 573.712 37.6558C574.917 37.6558 575.873 37.9874 576.538 38.6092C577.203 39.231 577.536 40.1843 577.536 41.345C577.536 42.5056 577.203 43.4175 576.538 44.0807C575.873 44.7439 574.917 45.0755 573.754 45.0755C572.507 45.0755 571.593 44.7439 570.928 44.1222C570.221 43.4589 569.847 42.547 569.847 41.3864ZM576.414 33.9253H571.052L569.93 12.5781H577.494L576.414 33.9253Z" fill="white"/>
</svg>
