<svg width="412" height="79" viewBox="0 0 412 79" fill="none" xmlns="http://www.w3.org/2000/svg">
<path d="M24.6279 11.4531V47H17.3037V11.4531H24.6279ZM45.5752 11.4531L31.9521 32.3271H22.9922L22.0645 25.8086H28.0459L36.6885 11.4531H45.5752ZM38.0312 47L28.0703 31.1064L33.1484 25.8818L46.7227 47H38.0312ZM63.4219 41.043V29.2754C63.4219 28.429 63.2835 27.7048 63.0068 27.1025C62.7301 26.484 62.2988 26.0039 61.7129 25.6621C61.1432 25.3203 60.4027 25.1494 59.4912 25.1494C58.71 25.1494 58.0345 25.2878 57.4648 25.5645C56.8952 25.8249 56.4557 26.2074 56.1465 26.7119C55.8372 27.2002 55.6826 27.778 55.6826 28.4453H48.6514C48.6514 27.3223 48.9118 26.2562 49.4326 25.2471C49.9535 24.238 50.7103 23.3509 51.7031 22.5859C52.696 21.8047 53.876 21.1943 55.2432 20.7549C56.6266 20.3154 58.1729 20.0957 59.8818 20.0957C61.9326 20.0957 63.7555 20.4375 65.3506 21.1211C66.9456 21.8047 68.1989 22.8301 69.1104 24.1973C70.0381 25.5645 70.502 27.2734 70.502 29.3242V40.6279C70.502 42.0765 70.5915 43.2646 70.7705 44.1924C70.9495 45.1038 71.21 45.9014 71.5518 46.585V47H64.4473C64.1055 46.2839 63.8451 45.3887 63.666 44.3145C63.5033 43.224 63.4219 42.1335 63.4219 41.043ZM64.3496 30.9111L64.3984 34.8906H60.4678C59.54 34.8906 58.7344 34.9964 58.0508 35.208C57.3672 35.4196 56.8057 35.7207 56.3662 36.1113C55.9268 36.4857 55.6012 36.9251 55.3896 37.4297C55.1943 37.9342 55.0967 38.4876 55.0967 39.0898C55.0967 39.6921 55.235 40.2373 55.5117 40.7256C55.7884 41.1976 56.1872 41.5719 56.708 41.8486C57.2288 42.109 57.8392 42.2393 58.5391 42.2393C59.597 42.2393 60.5166 42.0277 61.2979 41.6045C62.0791 41.1813 62.6813 40.6605 63.1045 40.042C63.5439 39.4235 63.7718 38.8376 63.7881 38.2842L65.6436 41.2627C65.3831 41.93 65.0251 42.6217 64.5693 43.3379C64.1299 44.054 63.5684 44.7295 62.8848 45.3643C62.2012 45.9827 61.3792 46.4954 60.4189 46.9023C59.4587 47.293 58.3193 47.4883 57.001 47.4883C55.3245 47.4883 53.8027 47.1546 52.4355 46.4873C51.0846 45.8037 50.0104 44.8678 49.2129 43.6797C48.4316 42.4753 48.041 41.1081 48.041 39.5781C48.041 38.1947 48.3014 36.9658 48.8223 35.8916C49.3431 34.8174 50.1081 33.9141 51.1172 33.1816C52.1426 32.4329 53.4202 31.8714 54.9502 31.4971C56.4801 31.1064 58.2542 30.9111 60.2725 30.9111H64.3496ZM83.417 20.584V47H76.3857V20.584H83.417ZM100.58 20.584L89.2031 37.1123H82.1719L81.3174 30.6182H85.9805L91.6689 20.584H100.58ZM91.9863 47L85.4922 35.8428L91.6201 32.4492L101.41 47H91.9863ZM134.271 20.584V26.1016H121.479V20.584H134.271ZM123.505 20.584V47H116.474V20.584H123.505ZM139.398 20.584V47H132.343V20.584H139.398ZM151.85 25.6621V57.1562H144.818V20.584H151.337L151.85 25.6621ZM168.573 33.499V34.0117C168.573 35.9323 168.345 37.7145 167.89 39.3584C167.45 41.0023 166.799 42.4346 165.937 43.6553C165.074 44.8597 164 45.8037 162.714 46.4873C161.444 47.1546 159.979 47.4883 158.319 47.4883C156.708 47.4883 155.308 47.1628 154.12 46.5117C152.932 45.8607 151.931 44.9492 151.117 43.7773C150.32 42.5892 149.677 41.2139 149.188 39.6514C148.7 38.0889 148.326 36.4124 148.065 34.6221V33.2793C148.326 31.3587 148.7 29.6009 149.188 28.0059C149.677 26.3945 150.32 25.0029 151.117 23.8311C151.931 22.6429 152.924 21.7233 154.096 21.0723C155.284 20.4212 156.675 20.0957 158.271 20.0957C159.947 20.0957 161.42 20.4131 162.689 21.0479C163.975 21.6826 165.049 22.5941 165.912 23.7822C166.791 24.9704 167.45 26.3864 167.89 28.0303C168.345 29.6742 168.573 31.4971 168.573 33.499ZM161.518 34.0117V33.499C161.518 32.376 161.42 31.3424 161.225 30.3984C161.046 29.4382 160.753 28.5999 160.346 27.8838C159.955 27.1676 159.434 26.6143 158.783 26.2236C158.148 25.8167 157.375 25.6133 156.464 25.6133C155.504 25.6133 154.682 25.7679 153.998 26.0771C153.331 26.3864 152.785 26.834 152.362 27.4199C151.939 28.0059 151.622 28.7057 151.41 29.5195C151.199 30.3333 151.068 31.2529 151.02 32.2783V35.6719C151.101 36.8763 151.329 37.9587 151.703 38.9189C152.077 39.863 152.655 40.6117 153.437 41.165C154.218 41.7184 155.243 41.9951 156.513 41.9951C157.44 41.9951 158.222 41.7917 158.856 41.3848C159.491 40.9616 160.004 40.3838 160.395 39.6514C160.801 38.9189 161.086 38.0726 161.249 37.1123C161.428 36.152 161.518 35.1185 161.518 34.0117ZM179.95 37.1855L188.812 20.584H195.844V47H188.812V30.374L179.95 47H172.919V20.584H179.95V37.1855ZM219.354 31.2529V36.7217H205.927V31.2529H219.354ZM208.271 20.584V47H201.239V20.584H208.271ZM224.115 20.584V47H217.06V20.584H224.115ZM236.591 37.1855L245.453 20.584H252.484V47H245.453V30.374L236.591 47H229.56V20.584H236.591V37.1855ZM273.969 38.9189L280.902 20.584H286.64L276.337 47H271.601L261.347 20.584H267.084L273.969 38.9189ZM265.399 20.584V47H258.368V20.584H265.399ZM282.709 47V20.584H289.74V47H282.709ZM310.15 41.043V29.2754C310.15 28.429 310.012 27.7048 309.735 27.1025C309.459 26.484 309.027 26.0039 308.441 25.6621C307.872 25.3203 307.131 25.1494 306.22 25.1494C305.438 25.1494 304.763 25.2878 304.193 25.5645C303.624 25.8249 303.184 26.2074 302.875 26.7119C302.566 27.2002 302.411 27.778 302.411 28.4453H295.38C295.38 27.3223 295.64 26.2562 296.161 25.2471C296.682 24.238 297.439 23.3509 298.432 22.5859C299.424 21.8047 300.604 21.1943 301.972 20.7549C303.355 20.3154 304.901 20.0957 306.61 20.0957C308.661 20.0957 310.484 20.4375 312.079 21.1211C313.674 21.8047 314.927 22.8301 315.839 24.1973C316.767 25.5645 317.23 27.2734 317.23 29.3242V40.6279C317.23 42.0765 317.32 43.2646 317.499 44.1924C317.678 45.1038 317.938 45.9014 318.28 46.585V47H311.176C310.834 46.2839 310.574 45.3887 310.395 44.3145C310.232 43.224 310.15 42.1335 310.15 41.043ZM311.078 30.9111L311.127 34.8906H307.196C306.269 34.8906 305.463 34.9964 304.779 35.208C304.096 35.4196 303.534 35.7207 303.095 36.1113C302.655 36.4857 302.33 36.9251 302.118 37.4297C301.923 37.9342 301.825 38.4876 301.825 39.0898C301.825 39.6921 301.964 40.2373 302.24 40.7256C302.517 41.1976 302.916 41.5719 303.437 41.8486C303.957 42.109 304.568 42.2393 305.268 42.2393C306.326 42.2393 307.245 42.0277 308.026 41.6045C308.808 41.1813 309.41 40.6605 309.833 40.042C310.272 39.4235 310.5 38.8376 310.517 38.2842L312.372 41.2627C312.112 41.93 311.754 42.6217 311.298 43.3379C310.858 44.054 310.297 44.7295 309.613 45.3643C308.93 45.9827 308.108 46.4954 307.147 46.9023C306.187 47.293 305.048 47.4883 303.729 47.4883C302.053 47.4883 300.531 47.1546 299.164 46.4873C297.813 45.8037 296.739 44.8678 295.941 43.6797C295.16 42.4753 294.77 41.1081 294.77 39.5781C294.77 38.1947 295.03 36.9658 295.551 35.8916C296.072 34.8174 296.837 33.9141 297.846 33.1816C298.871 32.4329 300.149 31.8714 301.679 31.4971C303.209 31.1064 304.983 30.9111 307.001 30.9111H311.078ZM335.712 20.584V47H328.656V20.584H335.712ZM344.208 20.584V26.0283H320.282V20.584H344.208ZM352.655 28.4209H360.321C362.73 28.4209 364.781 28.8197 366.474 29.6172C368.183 30.3984 369.485 31.4889 370.38 32.8887C371.291 34.2884 371.747 35.9079 371.747 37.7471C371.747 39.0817 371.487 40.3187 370.966 41.458C370.461 42.5811 369.721 43.5576 368.744 44.3877C367.768 45.2178 366.571 45.8607 365.155 46.3164C363.739 46.7721 362.128 47 360.321 47H348.261V20.584H355.316V41.5312H360.321C361.379 41.5312 362.226 41.3604 362.86 41.0186C363.511 40.6605 363.983 40.1966 364.276 39.627C364.586 39.0573 364.74 38.4388 364.74 37.7715C364.74 37.0716 364.586 36.4368 364.276 35.8672C363.983 35.2812 363.511 34.8092 362.86 34.4512C362.226 34.0931 361.379 33.9141 360.321 33.9141H352.655V28.4209ZM387.714 36.1357H381.488C381.505 34.6709 381.618 33.4095 381.83 32.3516C382.058 31.2773 382.44 30.3089 382.978 29.4463C383.531 28.5837 384.263 27.7292 385.175 26.8828C385.94 26.1992 386.607 25.5482 387.177 24.9297C387.746 24.3112 388.194 23.6764 388.52 23.0254C388.845 22.3581 389.008 21.6175 389.008 20.8037C389.008 19.8597 388.861 19.0785 388.568 18.46C388.292 17.8252 387.868 17.3451 387.299 17.0195C386.745 16.694 386.046 16.5312 385.199 16.5312C384.499 16.5312 383.848 16.6859 383.246 16.9951C382.644 17.2881 382.147 17.7438 381.757 18.3623C381.382 18.9808 381.187 19.7946 381.171 20.8037H374.091C374.14 18.5739 374.652 16.7347 375.629 15.2861C376.622 13.8213 377.948 12.7389 379.608 12.0391C381.269 11.3229 383.132 10.9648 385.199 10.9648C387.478 10.9648 389.431 11.3392 391.059 12.0879C392.686 12.8203 393.931 13.9027 394.794 15.335C395.657 16.751 396.088 18.4762 396.088 20.5107C396.088 21.9268 395.811 23.1882 395.258 24.2949C394.704 25.3854 393.98 26.4027 393.085 27.3467C392.19 28.2907 391.205 29.2673 390.131 30.2764C389.203 31.1064 388.568 31.9772 388.227 32.8887C387.901 33.8001 387.73 34.8825 387.714 36.1357ZM380.756 43.6797C380.756 42.638 381.114 41.7754 381.83 41.0918C382.546 40.3919 383.507 40.042 384.711 40.042C385.899 40.042 386.851 40.3919 387.567 41.0918C388.3 41.7754 388.666 42.638 388.666 43.6797C388.666 44.6888 388.3 45.5433 387.567 46.2432C386.851 46.943 385.899 47.293 384.711 47.293C383.507 47.293 382.546 46.943 381.83 46.2432C381.114 45.5433 380.756 44.6888 380.756 43.6797Z" fill="white"/>
<path d="M24.6279 11.4531H34.6279C34.6279 5.93028 30.1508 1.45312 24.6279 1.45312V11.4531ZM24.6279 47V57C30.1508 57 34.6279 52.5228 34.6279 47H24.6279ZM17.3037 47H7.30371C7.30371 52.5228 11.7809 57 17.3037 57L17.3037 47ZM17.3037 11.4531V1.45312C11.7809 1.45312 7.30371 5.93028 7.30371 11.4531H17.3037ZM45.5752 11.4531L53.9495 16.9185C55.9556 13.8448 56.1165 9.91909 54.3688 6.69149C52.621 3.46389 49.2456 1.45312 45.5752 1.45312V11.4531ZM31.9521 32.3271V42.3271C35.3304 42.3271 38.4802 40.6215 40.3265 37.7925L31.9521 32.3271ZM22.9922 32.3271L13.092 33.7362C13.7934 38.665 18.0137 42.3271 22.9922 42.3271V32.3271ZM22.0645 25.8086V15.8086C19.1665 15.8086 16.411 17.0658 14.5116 19.2546C12.6123 21.4434 11.7559 24.3485 12.1642 27.2176L22.0645 25.8086ZM28.0459 25.8086V35.8086C31.5532 35.8086 34.8041 33.9712 36.6131 30.9664L28.0459 25.8086ZM36.6885 11.4531V1.45312C33.1812 1.45312 29.9303 3.29055 28.1213 6.29532L36.6885 11.4531ZM38.0312 47L29.5579 52.3105C31.3865 55.2283 34.5878 57 38.0312 57V47ZM28.0703 31.1064L20.8994 24.1366C17.6877 27.441 17.1498 32.5123 19.5969 36.417L28.0703 31.1064ZM33.1484 25.8818L41.5605 20.4748C39.9113 17.9089 37.1812 16.2361 34.1463 15.9317C31.1114 15.6274 28.1035 16.7248 25.9776 18.912L33.1484 25.8818ZM46.7227 47V57C50.3806 57 53.7467 55.0027 55.4996 51.7921C57.2526 48.5815 57.1126 44.67 55.1348 41.5929L46.7227 47ZM14.6279 11.4531V47H34.6279V11.4531H14.6279ZM24.6279 37H17.3037V57H24.6279V37ZM27.3037 47V11.4531H7.30371V47H27.3037ZM17.3037 21.4531H24.6279V1.45312H17.3037V21.4531ZM37.2008 5.98776L23.5778 26.8618L40.3265 37.7925L53.9495 16.9185L37.2008 5.98776ZM31.9521 22.3271H22.9922V42.3271H31.9521V22.3271ZM32.8924 30.9181L31.9647 24.3996L12.1642 27.2176L13.092 33.7362L32.8924 30.9181ZM22.0645 35.8086H28.0459V15.8086H22.0645V35.8086ZM36.6131 30.9664L45.2557 16.6109L28.1213 6.29532L19.4787 20.6508L36.6131 30.9664ZM36.6885 21.4531H45.5752V1.45312H36.6885V21.4531ZM46.5046 41.6895L36.5437 25.7959L19.5969 36.417L29.5579 52.3105L46.5046 41.6895ZM35.2412 38.0763L40.3193 32.8517L25.9776 18.912L20.8994 24.1366L35.2412 38.0763ZM24.7363 31.2889L38.3106 52.4071L55.1348 41.5929L41.5605 20.4748L24.7363 31.2889ZM46.7227 37H38.0312V57H46.7227V37ZM63.0068 27.1025L53.8787 31.1862C53.8923 31.2167 53.9061 31.2472 53.9201 31.2775L63.0068 27.1025ZM61.7129 25.6621L56.5679 34.237C56.6032 34.2582 56.6386 34.2792 56.6742 34.2999L61.7129 25.6621ZM57.4648 25.5645L61.6224 34.6592C61.6933 34.6268 61.7638 34.5936 61.8339 34.5595L57.4648 25.5645ZM56.1465 26.7119L64.5947 32.0624C64.6209 32.021 64.6469 31.9794 64.6725 31.9375L56.1465 26.7119ZM55.6826 28.4453V38.4453C61.2055 38.4453 65.6826 33.9682 65.6826 28.4453L55.6826 28.4453ZM48.6514 28.4453H38.6514C38.6514 33.9682 43.1285 38.4453 48.6514 38.4453V28.4453ZM49.4326 25.2471L40.5464 20.6606L49.4326 25.2471ZM51.7031 22.5859L57.8065 30.5073C57.8335 30.4866 57.8603 30.4657 57.887 30.4446L51.7031 22.5859ZM55.2432 20.7549L52.2158 11.2242C52.2049 11.2276 52.194 11.2311 52.1831 11.2346L55.2432 20.7549ZM69.1104 24.1973L60.7898 29.7443C60.805 29.767 60.8203 29.7897 60.8356 29.8123L69.1104 24.1973ZM70.7705 44.1924L60.9517 46.0872C60.9538 46.0981 60.9559 46.109 60.958 46.1198L70.7705 44.1924ZM71.5518 46.585H81.5518C81.5518 45.0325 81.1903 43.5014 80.496 42.1128L71.5518 46.585ZM71.5518 47V57C77.0746 57 81.5518 52.5228 81.5518 47H71.5518ZM64.4473 47L55.4225 51.3073C57.0824 54.7854 60.5934 57 64.4473 57V47ZM63.666 44.3145L53.7756 45.7906C53.7839 45.8466 53.7928 45.9026 53.8021 45.9584L63.666 44.3145ZM64.3496 30.9111L74.3489 30.7884C74.2817 25.3139 69.8246 20.9111 64.3496 20.9111V30.9111ZM64.3984 34.8906V44.8906C67.0719 44.8906 69.634 43.8201 71.5128 41.9182C73.3915 40.0162 74.4305 37.4412 74.3977 34.7679L64.3984 34.8906ZM56.3662 36.1113L62.8509 43.7238C62.9044 43.6782 62.9573 43.6321 63.0098 43.5854L56.3662 36.1113ZM55.3896 37.4297L46.1677 33.5624C46.1319 33.6477 46.0974 33.7335 46.064 33.8197L55.3896 37.4297ZM55.5117 40.7256L46.8115 45.6557C46.8356 45.6982 46.86 45.7406 46.8847 45.7828L55.5117 40.7256ZM56.708 41.8486L52.0165 50.6798C52.0891 50.7184 52.1623 50.7561 52.2359 50.7929L56.708 41.8486ZM63.1045 40.042L54.9527 34.2499C54.9185 34.298 54.8847 34.3464 54.8514 34.3952L63.1045 40.042ZM63.7881 38.2842L72.2759 32.9967C69.9444 29.2541 65.4368 27.4803 61.18 28.6303C56.9232 29.7803 53.922 33.5827 53.7924 37.9902L63.7881 38.2842ZM65.6436 41.2627L74.9593 44.8981C76.106 41.9597 75.7991 38.6525 74.1313 35.9752L65.6436 41.2627ZM64.5693 43.3379L56.1327 37.9691C56.1035 38.0151 56.0746 38.0613 56.0461 38.1077L64.5693 43.3379ZM62.8848 45.3643L69.5939 52.7796C69.6259 52.7507 69.6577 52.7215 69.6893 52.6922L62.8848 45.3643ZM60.4189 46.9023L64.1869 56.1653C64.2316 56.1471 64.2761 56.1287 64.3204 56.1099L60.4189 46.9023ZM52.4355 46.4873L47.9205 55.41C47.9632 55.4316 48.0061 55.4529 48.0492 55.474L52.4355 46.4873ZM49.2129 43.6797L40.8233 49.1216C40.8518 49.1656 40.8807 49.2094 40.9099 49.2529L49.2129 43.6797ZM51.1172 33.1816L56.9911 41.2746C56.9988 41.2691 57.0065 41.2635 57.0141 41.2579L51.1172 33.1816ZM54.9502 31.4971L57.3269 41.2105C57.3593 41.2026 57.3917 41.1945 57.424 41.1862L54.9502 31.4971ZM73.4219 41.043V29.2754H53.4219V41.043H73.4219ZM73.4219 29.2754C73.4219 27.373 73.1144 25.1492 72.0936 22.9275L53.9201 31.2775C53.4527 30.2603 53.4219 29.485 53.4219 29.2754H73.4219ZM72.135 23.0189C71.0036 20.4899 69.1409 18.4181 66.7516 17.0243L56.6742 34.2999C55.4567 33.5897 54.4567 32.4782 53.8787 31.1862L72.135 23.0189ZM66.8578 17.0872C64.2595 15.5282 61.5676 15.1494 59.4912 15.1494V35.1494C59.2377 35.1494 58.0269 35.1124 56.5679 34.237L66.8578 17.0872ZM59.4912 15.1494C57.5426 15.1494 55.3075 15.4951 53.0958 16.5694L61.8339 34.5595C60.7615 35.0804 59.8774 35.1494 59.4912 35.1494V15.1494ZM53.3072 16.4697C51.0405 17.5059 49.031 19.1849 47.6205 21.4863L64.6725 31.9375C63.8805 33.2298 62.7499 34.1438 61.6224 34.6592L53.3072 16.4697ZM47.6983 21.3614C46.2264 23.6854 45.6826 26.1827 45.6826 28.4453H65.6826C65.6826 29.3733 65.4481 30.715 64.5947 32.0624L47.6983 21.3614ZM55.6826 18.4453H48.6514V38.4453H55.6826V18.4453ZM58.6514 28.4453C58.6514 28.6646 58.625 28.9147 58.561 29.1764C58.4972 29.4377 58.4083 29.66 58.3188 29.8335L40.5464 20.6606C39.3022 23.0713 38.6514 25.708 38.6514 28.4453H58.6514ZM58.3188 29.8335C58.2181 30.0287 58.1043 30.1912 57.9982 30.3156C57.8941 30.4376 57.819 30.4978 57.8065 30.5073L45.5997 14.6645C43.5677 16.2302 41.8063 18.2196 40.5464 20.6606L58.3188 29.8335ZM57.887 30.4446C57.8271 30.4918 57.9148 30.4 58.3033 30.2752L52.1831 11.2346C49.8372 11.9886 47.5648 13.1176 45.5192 14.7272L57.887 30.4446ZM58.2706 30.2856C58.5193 30.2066 59.0228 30.0957 59.8818 30.0957V10.0957C57.3229 10.0957 54.734 10.4242 52.2158 11.2242L58.2706 30.2856ZM59.8818 30.0957C60.8208 30.0957 61.2661 30.2503 61.4114 30.3125L69.2898 11.9296C66.245 10.6247 63.0445 10.0957 59.8818 10.0957V30.0957ZM61.4114 30.3125C61.4133 30.3133 61.3862 30.3018 61.3378 30.2728C61.289 30.2435 61.2256 30.2007 61.1544 30.1424C61.0019 30.0176 60.8762 29.8738 60.7898 29.7443L77.4309 18.6503C75.3816 15.5764 72.5627 13.3323 69.2898 11.9296L61.4114 30.3125ZM60.8356 29.8123C60.635 29.5167 60.5403 29.2603 60.5032 29.1239C60.4703 29.0024 60.502 29.0474 60.502 29.3242H80.502C80.502 25.7571 79.682 21.9671 77.3851 18.5823L60.8356 29.8123ZM60.502 29.3242V40.6279H80.502V29.3242H60.502ZM60.502 40.6279C60.502 42.4146 60.6064 44.2983 60.9517 46.0872L80.5893 42.2975C80.59 42.3011 80.5833 42.2667 80.5734 42.1886C80.5636 42.1111 80.5519 42.0009 80.5408 41.8542C80.5184 41.5564 80.502 41.1528 80.502 40.6279H60.502ZM60.958 46.1198C61.2747 47.7322 61.7876 49.4172 62.6075 51.0571L80.496 42.1128C80.5661 42.2529 80.5978 42.3445 80.6062 42.3701C80.6144 42.3953 80.6025 42.3643 80.583 42.2649L60.958 46.1198ZM61.5518 46.585V47H81.5518V46.585H61.5518ZM71.5518 37H64.4473V57H71.5518V37ZM73.4721 42.6927C73.5224 42.7982 73.5548 42.8787 73.5734 42.9285C73.592 42.9783 73.5989 43.0029 73.5976 42.9982C73.5962 42.9936 73.588 42.9648 73.5755 42.9087C73.563 42.8528 73.5472 42.7741 73.53 42.6705L53.8021 45.9584C54.0821 47.6383 54.5595 49.4992 55.4225 51.3073L73.4721 42.6927ZM73.5565 42.8383C73.4658 42.231 73.4219 41.6339 73.4219 41.043H53.4219C53.4219 42.633 53.5407 44.2169 53.7756 45.7906L73.5565 42.8383ZM54.3504 31.0338L54.3992 35.0133L74.3977 34.7679L74.3489 30.7884L54.3504 31.0338ZM64.3984 24.8906H60.4678V44.8906H64.3984V24.8906ZM60.4678 24.8906C58.8178 24.8906 56.9704 25.0743 55.0939 25.6551L61.0076 44.7609C60.7422 44.843 60.5539 44.8738 60.4697 44.8849C60.3854 44.8959 60.3796 44.8906 60.4678 44.8906V24.8906ZM55.0939 25.6551C53.3369 26.199 51.4341 27.1159 49.7226 28.6372L63.0098 43.5854C62.1772 44.3255 61.3975 44.6402 61.0076 44.7609L55.0939 25.6551ZM49.8815 28.4989C48.3163 29.8322 47.019 31.5324 46.1677 33.5624L64.6116 41.297C64.1835 42.3178 63.5372 43.1391 62.8509 43.7238L49.8815 28.4989ZM46.064 33.8197C45.3753 35.5987 45.0967 37.3922 45.0967 39.0898H65.0967C65.0967 39.5831 65.0133 40.2698 64.7153 41.0396L46.064 33.8197ZM45.0967 39.0898C45.0967 41.2898 45.6208 43.5545 46.8115 45.6557L64.2119 35.7955C64.8492 36.9201 65.0967 38.0943 65.0967 39.0898H45.0967ZM46.8847 45.7828C48.1714 47.9777 49.9921 49.6043 52.0165 50.6798L61.3996 33.0175C62.3823 33.5396 63.4054 34.4175 64.1387 35.6684L46.8847 45.7828ZM52.2359 50.7929C54.3983 51.8741 56.5968 52.2393 58.5391 52.2393V32.2393C59.0816 32.2393 60.0594 32.344 61.1801 32.9044L52.2359 50.7929ZM58.5391 52.2393C60.9437 52.2393 63.5618 51.751 66.0607 50.3974L56.535 32.8116C57.4714 32.3043 58.2503 32.2393 58.5391 32.2393V52.2393ZM66.0607 50.3974C67.9807 49.3574 69.8852 47.8408 71.3576 45.6888L54.8514 34.3952C55.4775 33.4801 56.1775 33.0052 56.535 32.8116L66.0607 50.3974ZM71.2563 45.8341C72.4285 44.1843 73.6916 41.7133 73.7838 38.5782L53.7924 37.9902C53.8521 35.9618 54.6594 34.6627 54.9527 34.2499L71.2563 45.8341ZM55.3003 43.5717L57.1558 46.5502L74.1313 35.9752L72.2759 32.9967L55.3003 43.5717ZM56.3278 37.6273C56.342 37.5908 56.3018 37.7035 56.1327 37.9691L73.006 48.7066C73.7483 47.54 74.4243 46.2692 74.9593 44.8981L56.3278 37.6273ZM56.0461 38.1077C56.0871 38.0409 56.1181 38.0017 56.1288 37.9889C56.1391 37.9765 56.1265 37.9934 56.0803 38.0363L69.6893 52.6922C70.966 51.5066 72.1291 50.1381 73.0926 48.5681L56.0461 38.1077ZM56.1756 37.9489C56.4223 37.7257 56.5818 37.6676 56.5175 37.6948L64.3204 56.1099C66.1766 55.3233 67.9801 54.2398 69.5939 52.7796L56.1756 37.9489ZM56.651 37.6394C56.9116 37.5334 57.0924 37.4962 57.1546 37.4856C57.2143 37.4753 57.1711 37.4883 57.001 37.4883V57.4883C59.2744 57.4883 61.7533 57.1552 64.1869 56.1653L56.651 37.6394ZM57.001 37.4883C56.8287 37.4883 56.7504 37.4715 56.7439 37.4701C56.7395 37.4691 56.7471 37.4705 56.7638 37.4763C56.7806 37.4821 56.8007 37.4903 56.8219 37.5006L48.0492 55.474C50.9169 56.8737 53.9614 57.4883 57.001 57.4883V37.4883ZM56.9506 37.5646C56.9683 37.5736 57.0602 37.6236 57.1856 37.7328C57.3132 37.844 57.4276 37.975 57.5159 38.1065L40.9099 49.2529C42.7181 51.9467 45.1327 53.9993 47.9205 55.41L56.9506 37.5646ZM57.6025 38.2378C57.7466 38.4599 57.8693 38.724 57.9492 39.0038C58.0278 39.2787 58.041 39.4842 58.041 39.5781H38.041C38.041 42.9065 38.9209 46.1887 40.8233 49.1216L57.6025 38.2378ZM58.041 39.5781C58.041 39.5137 58.047 39.5602 58.0191 39.6921C57.9901 39.8285 57.9312 40.0258 57.8204 40.2543L39.8241 31.5289C38.5468 34.1633 38.041 36.923 38.041 39.5781H58.041ZM57.8204 40.2543C57.7182 40.4652 57.5819 40.6773 57.4179 40.871C57.2552 41.063 57.1011 41.1949 56.9911 41.2746L45.2432 25.0886C42.9628 26.7438 41.0957 28.9062 39.8241 31.5289L57.8204 40.2543ZM57.0141 41.2579C56.7637 41.4408 56.7705 41.3467 57.3269 41.2105L52.5735 21.7836C50.0699 22.3962 47.5215 23.4251 45.2202 25.1054L57.0141 41.2579ZM57.424 41.1862C57.958 41.0499 58.8699 40.9111 60.2725 40.9111V20.9111C57.6386 20.9111 55.0022 21.163 52.4764 21.8079L57.424 41.1862ZM60.2725 40.9111H64.3496V20.9111H60.2725V40.9111ZM83.417 20.584H93.417C93.417 15.0611 88.9398 10.584 83.417 10.584V20.584ZM83.417 47V57C88.9398 57 93.417 52.5228 93.417 47H83.417ZM76.3857 47H66.3857C66.3857 52.5228 70.8629 57 76.3857 57V47ZM76.3857 20.584V10.584C70.8629 10.584 66.3857 15.0611 66.3857 20.584L76.3857 20.584ZM100.58 20.584L108.817 26.2539C110.923 23.1941 111.16 19.219 109.432 15.931C107.703 12.643 104.295 10.584 100.58 10.584V20.584ZM89.2031 37.1123V47.1123C92.4941 47.1123 95.5744 45.4931 97.4403 42.7822L89.2031 37.1123ZM82.1719 37.1123L72.2573 38.4168C72.912 43.3925 77.1533 47.1123 82.1719 47.1123V37.1123ZM81.3174 30.6182V20.6182C78.4378 20.6182 75.698 21.8595 73.7992 24.0244C71.9005 26.1894 71.0272 29.0677 71.4028 31.9227L81.3174 30.6182ZM85.9805 30.6182V40.6182C89.5812 40.6182 92.904 38.6823 94.6798 35.5499L85.9805 30.6182ZM91.6689 20.584V10.584C88.0682 10.584 84.7454 12.5198 82.9696 15.6523L91.6689 20.584ZM91.9863 47L83.3437 52.0305C85.1346 55.1073 88.4263 57 91.9863 57V47ZM85.4922 35.8428L80.6476 27.0946C78.295 28.3975 76.5663 30.5929 75.8517 33.1854C75.1371 35.778 75.4968 38.5491 76.8496 40.8733L85.4922 35.8428ZM91.6201 32.4492L99.917 26.8669C97.0209 22.5625 91.314 21.1877 86.7755 23.7011L91.6201 32.4492ZM101.41 47V57C105.106 57 108.5 54.9618 110.237 51.6998C111.974 48.4379 111.77 44.4839 109.707 41.4177L101.41 47ZM73.417 20.584V47H93.417V20.584H73.417ZM83.417 37H76.3857V57H83.417V37ZM86.3857 47V20.584H66.3857V47H86.3857ZM76.3857 30.584H83.417V10.584H76.3857V30.584ZM92.3429 14.914L80.9659 31.4424L97.4403 42.7822L108.817 26.2539L92.3429 14.914ZM89.2031 27.1123H82.1719V47.1123H89.2031V27.1123ZM92.0864 35.8078L91.2319 29.3136L71.4028 31.9227L72.2573 38.4168L92.0864 35.8078ZM81.3174 40.6182H85.9805V20.6182H81.3174V40.6182ZM94.6798 35.5499L100.368 25.5157L82.9696 15.6523L77.2812 25.6864L94.6798 35.5499ZM91.6689 30.584H100.58V10.584H91.6689V30.584ZM100.629 41.9695L94.1348 30.8123L76.8496 40.8733L83.3437 52.0305L100.629 41.9695ZM90.3368 44.5909L96.4647 41.1974L86.7755 23.7011L80.6476 27.0946L90.3368 44.5909ZM83.3232 38.0315L93.1133 52.5823L109.707 41.4177L99.917 26.8669L83.3232 38.0315ZM101.41 37H91.9863V57H101.41V37ZM134.271 20.584H144.271C144.271 15.0611 139.794 10.584 134.271 10.584V20.584ZM134.271 26.1016V36.1016C139.794 36.1016 144.271 31.6244 144.271 26.1016L134.271 26.1016ZM121.479 26.1016H111.479C111.479 31.6244 115.956 36.1016 121.479 36.1016V26.1016ZM121.479 20.584V10.584C115.956 10.584 111.479 15.0611 111.479 20.584L121.479 20.584ZM123.505 20.584H133.505C133.505 15.0611 129.028 10.584 123.505 10.584V20.584ZM123.505 47V57C129.028 57 133.505 52.5228 133.505 47H123.505ZM116.474 47H106.474C106.474 52.5228 110.951 57 116.474 57V47ZM116.474 20.584V10.584C110.951 10.584 106.474 15.0611 106.474 20.584L116.474 20.584ZM139.398 20.584H149.398C149.398 15.0611 144.921 10.584 139.398 10.584V20.584ZM139.398 47V57C144.921 57 149.398 52.5228 149.398 47H139.398ZM132.343 47H122.343C122.343 52.5228 126.82 57 132.343 57V47ZM132.343 20.584V10.584C126.82 10.584 122.343 15.0611 122.343 20.584L132.343 20.584ZM124.271 20.584V26.1016H144.271V20.584H124.271ZM134.271 16.1016H121.479V36.1016H134.271V16.1016ZM131.479 26.1016V20.584H111.479V26.1016H131.479ZM121.479 30.584H134.271V10.584H121.479V30.584ZM113.505 20.584V47H133.505V20.584H113.505ZM123.505 37H116.474V57H123.505V37ZM126.474 47V20.584H106.474V47H126.474ZM116.474 30.584H123.505V10.584H116.474V30.584ZM129.398 20.584V47H149.398V20.584H129.398ZM139.398 37H132.343V57H139.398V37ZM142.343 47V20.584H122.343V47H142.343ZM132.343 30.584H139.398V10.584H132.343V30.584ZM151.85 25.6621H161.85C161.85 25.3266 161.833 24.9914 161.799 24.6576L151.85 25.6621ZM151.85 57.1562V67.1562C157.372 67.1562 161.85 62.6791 161.85 57.1562H151.85ZM144.818 57.1562H134.818C134.818 62.6791 139.296 67.1562 144.818 67.1562V57.1562ZM144.818 20.584V10.584C139.296 10.584 134.818 15.0611 134.818 20.584L144.818 20.584ZM151.337 20.584L161.286 19.5795C160.771 14.4716 156.471 10.584 151.337 10.584V20.584ZM167.89 39.3584L158.253 36.6869C158.245 36.7165 158.237 36.7461 158.229 36.7758L167.89 39.3584ZM165.937 43.6553L174.066 49.478C174.079 49.4609 174.091 49.4436 174.103 49.4264L165.937 43.6553ZM162.714 46.4873L167.367 55.3389C167.381 55.3317 167.394 55.3244 167.408 55.317L162.714 46.4873ZM151.117 43.7773L142.814 49.3506C142.844 49.3944 142.873 49.438 142.903 49.4813L151.117 43.7773ZM148.065 34.6221H138.065C138.065 35.1038 138.1 35.5848 138.17 36.0615L148.065 34.6221ZM148.065 33.2793L138.156 31.9357C138.096 32.381 138.065 32.8299 138.065 33.2793H148.065ZM149.188 28.0059L158.75 30.933C158.753 30.924 158.756 30.915 158.759 30.9059L149.188 28.0059ZM151.117 23.8311L142.867 18.1802C142.861 18.1884 142.856 18.1966 142.85 18.2048L151.117 23.8311ZM154.096 21.0723L149.29 12.3025C149.273 12.3119 149.256 12.3212 149.239 12.3307L154.096 21.0723ZM162.689 21.0479L158.217 29.9921C158.232 29.9997 158.248 30.0072 158.263 30.0147L162.689 21.0479ZM165.912 23.7822L157.82 29.6574C157.837 29.6814 157.855 29.7054 157.873 29.7292L165.912 23.7822ZM167.89 28.0303L158.229 30.6129C158.237 30.6425 158.245 30.6722 158.253 30.7018L167.89 28.0303ZM161.225 30.3984L151.394 32.2313C151.406 32.2958 151.419 32.3602 151.432 32.4245L161.225 30.3984ZM160.346 27.8838L151.567 32.6723C151.594 32.7231 151.623 32.7736 151.651 32.8239L160.346 27.8838ZM158.783 26.2236L153.387 34.6424C153.47 34.6957 153.554 34.7478 153.638 34.7986L158.783 26.2236ZM153.998 26.0771L149.876 16.9661C149.849 16.9786 149.821 16.9913 149.793 17.004L153.998 26.0771ZM151.02 32.2783L141.031 31.8027C141.023 31.9611 141.02 32.1197 141.02 32.2783H151.02ZM151.02 35.6719H141.02C141.02 35.8968 141.027 36.1216 141.042 36.346L151.02 35.6719ZM151.703 38.9189L142.386 42.551C142.393 42.5691 142.4 42.5872 142.407 42.6052L151.703 38.9189ZM153.437 41.165L147.656 49.3253L153.437 41.165ZM158.856 41.3848L164.253 49.8036C164.304 49.7712 164.354 49.7385 164.403 49.7053L158.856 41.3848ZM160.395 39.6514L151.653 34.7949C151.625 34.8449 151.598 34.8951 151.571 34.9455L160.395 39.6514ZM161.249 37.1123L151.418 35.2795C151.408 35.3333 151.399 35.3872 151.39 35.4412L161.249 37.1123ZM141.85 25.6621V57.1562H161.85V25.6621H141.85ZM151.85 47.1562H144.818V67.1562H151.85V47.1562ZM154.818 57.1562V20.584H134.818V57.1562H154.818ZM144.818 30.584H151.337V10.584H144.818V30.584ZM141.387 21.5885L141.9 26.6666L161.799 24.6576L161.286 19.5795L141.387 21.5885ZM158.573 33.499V34.0117H178.573V33.499H158.573ZM158.573 34.0117C158.573 35.141 158.44 36.0144 158.253 36.6869L177.526 42.0299C178.251 39.4147 178.573 36.7235 178.573 34.0117H158.573ZM158.229 36.7758C158.053 37.4332 157.862 37.7535 157.77 37.8842L174.103 49.4264C175.736 47.1157 176.847 44.5713 177.55 41.941L158.229 36.7758ZM157.807 37.8325C157.803 37.8376 157.827 37.8036 157.883 37.755C157.939 37.7058 157.991 37.6731 158.02 37.6576L167.408 55.317C170.08 53.8965 172.322 51.9138 174.066 49.478L157.807 37.8325ZM158.061 37.6357C158.23 37.5468 158.369 37.5045 158.442 37.4878C158.51 37.4723 158.479 37.4883 158.319 37.4883V57.4883C161.344 57.4883 164.451 56.8714 167.367 55.3389L158.061 37.6357ZM158.319 37.4883C158.186 37.4883 158.2 37.4747 158.326 37.5041C158.459 37.5351 158.674 37.6041 158.925 37.742L149.315 55.2815C152.232 56.8797 155.346 57.4883 158.319 57.4883V37.4883ZM158.925 37.742C159.026 37.7968 159.125 37.8679 159.211 37.9459C159.295 38.0225 159.332 38.0753 159.331 38.0734L142.903 49.4813C144.552 51.8559 146.696 53.8467 149.315 55.2815L158.925 37.742ZM159.42 38.2041C159.23 37.9206 158.975 37.4419 158.733 36.6686L139.644 42.6341C140.379 44.9858 141.41 47.2578 142.814 49.3506L159.42 38.2041ZM158.733 36.6686C158.418 35.6599 158.153 34.5039 157.961 33.1827L138.17 36.0615C138.498 38.3209 138.982 40.5179 139.644 42.6341L158.733 36.6686ZM158.065 34.6221V33.2793H138.065V34.6221H158.065ZM157.975 34.6229C158.174 33.155 158.444 31.9355 158.75 30.933L139.626 25.0787C138.957 27.2663 138.478 29.5625 138.156 31.9357L157.975 34.6229ZM158.759 30.9059C159.007 30.0875 159.252 29.6517 159.384 29.4573L142.85 18.2048C141.387 20.3541 140.347 22.7016 139.618 25.1058L158.759 30.9059ZM159.367 29.4819C159.38 29.463 159.351 29.5093 159.267 29.5867C159.182 29.6661 159.073 29.7466 158.952 29.8138L149.239 12.3307C146.612 13.79 144.491 15.8097 142.867 18.1802L159.367 29.4819ZM158.901 29.842C158.658 29.9753 158.446 30.0447 158.308 30.077C158.177 30.1077 158.152 30.0957 158.271 30.0957V10.0957C155.294 10.0957 152.193 10.7121 149.29 12.3025L158.901 29.842ZM158.271 30.0957C158.479 30.0957 158.554 30.1154 158.526 30.1094C158.512 30.1063 158.475 30.0974 158.419 30.0781C158.364 30.0588 158.295 30.0308 158.217 29.9921L167.162 12.1036C164.273 10.6595 161.22 10.0957 158.271 10.0957V30.0957ZM158.263 30.0147C158.186 29.9766 158.087 29.9154 157.99 29.8326C157.893 29.7505 157.838 29.682 157.82 29.6574L174.004 17.9071C172.212 15.439 169.892 13.4515 167.116 12.081L158.263 30.0147ZM157.873 29.7292C157.9 29.7669 158.065 30.0008 158.229 30.6129L177.55 25.4477C176.835 22.772 175.682 20.1739 173.952 17.8352L157.873 29.7292ZM158.253 30.7018C158.43 31.3404 158.573 32.2479 158.573 33.499H178.573C178.573 30.7462 178.261 28.0079 177.526 25.3588L158.253 30.7018ZM171.518 34.0117V33.499H151.518V34.0117H171.518ZM171.518 33.499C171.518 31.8039 171.371 30.0814 171.017 28.3724L151.432 32.4245C151.469 32.6035 151.518 32.9481 151.518 33.499H171.518ZM171.055 28.5656C170.71 26.7114 170.087 24.7859 169.04 22.9437L151.651 32.8239C151.418 32.414 151.382 32.1649 151.394 32.2313L171.055 28.5656ZM169.125 23.0953C167.947 20.9364 166.22 19.0235 163.928 17.6487L153.638 34.7986C152.649 34.205 151.963 33.3988 151.567 32.6723L169.125 23.0953ZM164.18 17.8048C161.626 16.1677 158.885 15.6133 156.464 15.6133V35.6133C155.865 35.6133 154.671 35.4658 153.387 34.6424L164.18 17.8048ZM156.464 15.6133C154.465 15.6133 152.164 15.9313 149.876 16.9661L158.12 35.1882C157.199 35.6045 156.542 35.6133 156.464 35.6133V15.6133ZM149.793 17.004C147.6 18.0206 145.7 19.5643 144.256 21.565L160.469 33.2748C159.871 34.1036 159.062 34.7521 158.203 35.1503L149.793 17.004ZM144.256 21.565C142.998 23.3067 142.205 25.1818 141.732 27.0032L161.088 32.0359C161.038 32.2296 160.881 32.705 160.469 33.2748L144.256 21.565ZM141.732 27.0032C141.314 28.6119 141.106 30.2332 141.031 31.8027L161.008 32.754C161.031 32.2727 161.083 32.0548 161.088 32.0359L141.732 27.0032ZM141.02 32.2783V35.6719H161.02V32.2783H141.02ZM141.042 36.346C141.181 38.3951 141.586 40.4981 142.386 42.551L161.02 35.2869C161.072 35.4193 161.021 35.3575 160.997 34.9977L141.042 36.346ZM142.407 42.6052C143.45 45.2348 145.197 47.5832 147.656 49.3253L159.217 33.0048C159.626 33.2947 160.009 33.6577 160.334 34.0789C160.656 34.4964 160.867 34.9003 160.999 35.2327L142.407 42.6052ZM147.656 49.3253C150.601 51.4108 153.84 51.9951 156.513 51.9951V31.9951C156.647 31.9951 157.835 32.026 159.217 33.0048L147.656 49.3253ZM156.513 51.9951C158.911 51.9951 161.672 51.458 164.253 49.8036L153.46 32.966C154.771 32.1253 155.969 31.9951 156.513 31.9951V51.9951ZM164.403 49.7053C166.531 48.287 168.121 46.4152 169.218 44.3572L151.571 34.9455C151.887 34.3524 152.452 33.6362 153.309 33.0643L164.403 49.7053ZM169.136 44.5078C170.175 42.6382 170.786 40.6831 171.108 38.7834L151.39 35.4412C151.386 35.4621 151.428 35.1997 151.653 34.7949L169.136 44.5078ZM171.08 38.9451C171.385 37.3069 171.518 35.6538 171.518 34.0117H151.518C151.518 34.5832 151.471 34.9971 151.418 35.2795L171.08 38.9451ZM179.95 37.1855H169.95C169.95 41.7735 173.072 45.7729 177.523 46.8865C181.974 48.0001 186.611 45.9422 188.772 41.8948L179.95 37.1855ZM188.812 20.584V10.584C185.121 10.584 181.729 12.618 179.991 15.8747L188.812 20.584ZM195.844 20.584H205.844C205.844 15.0611 201.367 10.584 195.844 10.584V20.584ZM195.844 47V57C201.367 57 205.844 52.5228 205.844 47H195.844ZM188.812 47H178.812C178.812 52.5228 183.29 57 188.812 57V47ZM188.812 30.374H198.812C198.812 25.7849 195.689 21.7848 191.237 20.6723C186.785 19.5598 182.147 21.6205 179.988 25.6702L188.812 30.374ZM179.95 47V57C183.644 57 187.037 54.9636 188.775 51.7039L179.95 47ZM172.919 47H162.919C162.919 52.5228 167.396 57 172.919 57V47ZM172.919 20.584V10.584C167.396 10.584 162.919 15.0611 162.919 20.584L172.919 20.584ZM179.95 20.584H189.95C189.95 15.0611 185.473 10.584 179.95 10.584V20.584ZM188.772 41.8948L197.634 25.2932L179.991 15.8747L171.128 32.4763L188.772 41.8948ZM188.812 30.584H195.844V10.584H188.812V30.584ZM185.844 20.584V47H205.844V20.584H185.844ZM195.844 37H188.812V57H195.844V37ZM198.812 47V30.374H178.812V47H198.812ZM179.988 25.6702L171.126 42.2961L188.775 51.7039L197.637 35.0779L179.988 25.6702ZM179.95 37H172.919V57H179.95V37ZM182.919 47V20.584H162.919V47H182.919ZM172.919 30.584H179.95V10.584H172.919V30.584ZM169.95 20.584V37.1855H189.95V20.584H169.95ZM219.354 31.2529H229.354C229.354 25.7301 224.877 21.2529 219.354 21.2529V31.2529ZM219.354 36.7217V46.7217C224.877 46.7217 229.354 42.2445 229.354 36.7217H219.354ZM205.927 36.7217H195.927C195.927 42.2445 200.404 46.7217 205.927 46.7217V36.7217ZM205.927 31.2529V21.2529C200.404 21.2529 195.927 25.7301 195.927 31.2529H205.927ZM208.271 20.584H218.271C218.271 15.0611 213.793 10.584 208.271 10.584V20.584ZM208.271 47V57C213.793 57 218.271 52.5228 218.271 47H208.271ZM201.239 47H191.239C191.239 52.5228 195.716 57 201.239 57V47ZM201.239 20.584V10.584C195.716 10.584 191.239 15.0611 191.239 20.584L201.239 20.584ZM224.115 20.584H234.115C234.115 15.0611 229.638 10.584 224.115 10.584V20.584ZM224.115 47V57C229.638 57 234.115 52.5228 234.115 47H224.115ZM217.06 47H207.06C207.06 52.5228 211.537 57 217.06 57V47ZM217.06 20.584V10.584C211.537 10.584 207.06 15.0611 207.06 20.584L217.06 20.584ZM209.354 31.2529V36.7217H229.354V31.2529H209.354ZM219.354 26.7217H205.927V46.7217H219.354V26.7217ZM215.927 36.7217V31.2529H195.927V36.7217H215.927ZM205.927 41.2529H219.354V21.2529H205.927V41.2529ZM198.271 20.584V47H218.271V20.584H198.271ZM208.271 37H201.239V57H208.271V37ZM211.239 47V20.584H191.239V47H211.239ZM201.239 30.584H208.271V10.584H201.239V30.584ZM214.115 20.584V47H234.115V20.584H214.115ZM224.115 37H217.06V57H224.115V37ZM227.06 47V20.584H207.06V47H227.06ZM217.06 30.584H224.115V10.584H217.06V30.584ZM236.591 37.1855H226.591C226.591 41.7735 229.713 45.7729 234.164 46.8865C238.614 48.0001 243.252 45.9422 245.413 41.8948L236.591 37.1855ZM245.453 20.584V10.584C241.761 10.584 238.37 12.618 236.631 15.8747L245.453 20.584ZM252.484 20.584H262.484C262.484 15.0611 258.007 10.584 252.484 10.584V20.584ZM252.484 47V57C258.007 57 262.484 52.5228 262.484 47H252.484ZM245.453 47H235.453C235.453 52.5228 239.93 57 245.453 57V47ZM245.453 30.374H255.453C255.453 25.7849 252.33 21.7848 247.877 20.6723C243.425 19.5598 238.787 21.6205 236.629 25.6702L245.453 30.374ZM236.591 47V57C240.285 57 243.678 54.9636 245.415 51.7039L236.591 47ZM229.56 47H219.56C219.56 52.5228 224.037 57 229.56 57V47ZM229.56 20.584V10.584C224.037 10.584 219.56 15.0611 219.56 20.584L229.56 20.584ZM236.591 20.584H246.591C246.591 15.0611 242.114 10.584 236.591 10.584V20.584ZM245.413 41.8948L254.275 25.2932L236.631 15.8747L227.769 32.4763L245.413 41.8948ZM245.453 30.584H252.484V10.584H245.453V30.584ZM242.484 20.584V47H262.484V20.584H242.484ZM252.484 37H245.453V57H252.484V37ZM255.453 47V30.374H235.453V47H255.453ZM236.629 25.6702L227.766 42.2961L245.415 51.7039L254.278 35.0779L236.629 25.6702ZM236.591 37H229.56V57H236.591V37ZM239.56 47V20.584H219.56V47H239.56ZM229.56 30.584H236.591V10.584H229.56V30.584ZM226.591 20.584V37.1855H246.591V20.584H226.591ZM273.969 38.9189L264.607 42.4343C266.07 46.3312 269.795 48.9141 273.957 48.9189C278.12 48.9238 281.85 46.3496 283.322 42.4561L273.969 38.9189ZM280.902 20.584V10.584C276.744 10.584 273.02 13.1573 271.549 17.0468L280.902 20.584ZM286.64 20.584L295.956 24.2176C297.156 21.1404 296.76 17.6691 294.896 14.942C293.033 12.2149 289.943 10.584 286.64 10.584V20.584ZM276.337 47V57C280.457 57 284.156 54.4725 285.653 50.6336L276.337 47ZM271.601 47L262.278 50.6186C263.771 54.4654 267.474 57 271.601 57V47ZM261.347 20.584V10.584C258.047 10.584 254.959 12.2122 253.095 14.9354C251.231 17.6586 250.83 21.1262 252.024 24.2026L261.347 20.584ZM267.084 20.584L276.446 17.0687C274.981 13.1678 271.251 10.584 267.084 10.584V20.584ZM265.399 20.584H275.399C275.399 15.0611 270.922 10.584 265.399 10.584V20.584ZM265.399 47V57C270.922 57 275.399 52.5228 275.399 47H265.399ZM258.368 47H248.368C248.368 52.5228 252.845 57 258.368 57V47ZM258.368 20.584V10.584C252.845 10.584 248.368 15.0611 248.368 20.584L258.368 20.584ZM282.709 47H272.709C272.709 52.5228 277.186 57 282.709 57V47ZM282.709 20.584V10.584C277.186 10.584 272.709 15.0611 272.709 20.584L282.709 20.584ZM289.74 20.584H299.74C299.74 15.0611 295.263 10.584 289.74 10.584V20.584ZM289.74 47V57C295.263 57 299.74 52.5228 299.74 47H289.74ZM283.322 42.4561L290.256 24.1211L271.549 17.0468L264.615 35.3818L283.322 42.4561ZM280.902 30.584H286.64V10.584H280.902V30.584ZM277.323 16.9504L267.02 43.3664L285.653 50.6336L295.956 24.2176L277.323 16.9504ZM276.337 37H271.601V57H276.337V37ZM280.923 43.3814L270.669 16.9653L252.024 24.2026L262.278 50.6186L280.923 43.3814ZM261.347 30.584H267.084V10.584H261.347V30.584ZM257.722 24.0993L264.607 42.4343L283.331 35.4036L276.446 17.0687L257.722 24.0993ZM255.399 20.584V47H275.399V20.584H255.399ZM265.399 37H258.368V57H265.399V37ZM268.368 47V20.584H248.368V47H268.368ZM258.368 30.584H265.399V10.584H258.368V30.584ZM292.709 47V20.584H272.709V47H292.709ZM282.709 30.584H289.74V10.584H282.709V30.584ZM279.74 20.584V47H299.74V20.584H279.74ZM289.74 37H282.709V57H289.74V37ZM309.735 27.1025L300.607 31.1862C300.621 31.2167 300.635 31.2472 300.649 31.2775L309.735 27.1025ZM308.441 25.6621L303.296 34.237C303.332 34.2582 303.367 34.2792 303.403 34.2999L308.441 25.6621ZM304.193 25.5645L308.351 34.6592C308.422 34.6268 308.492 34.5936 308.562 34.5595L304.193 25.5645ZM302.875 26.7119L311.323 32.0624C311.349 32.021 311.375 31.9794 311.401 31.9375L302.875 26.7119ZM302.411 28.4453V38.4453C307.934 38.4453 312.411 33.9682 312.411 28.4453L302.411 28.4453ZM295.38 28.4453H285.38C285.38 33.9682 289.857 38.4453 295.38 38.4453V28.4453ZM296.161 25.2471L287.275 20.6606L296.161 25.2471ZM298.432 22.5859L304.535 30.5073C304.562 30.4866 304.589 30.4657 304.616 30.4446L298.432 22.5859ZM301.972 20.7549L298.944 11.2242C298.933 11.2276 298.922 11.2311 298.912 11.2346L301.972 20.7549ZM315.839 24.1973L307.518 29.7443C307.534 29.767 307.549 29.7897 307.564 29.8123L315.839 24.1973ZM317.499 44.1924L307.68 46.0872C307.682 46.0981 307.684 46.109 307.687 46.1198L317.499 44.1924ZM318.28 46.585H328.28C328.28 45.0325 327.919 43.5014 327.225 42.1128L318.28 46.585ZM318.28 47V57C323.803 57 328.28 52.5228 328.28 47H318.28ZM311.176 47L302.151 51.3073C303.811 54.7854 307.322 57 311.176 57V47ZM310.395 44.3145L300.504 45.7906C300.512 45.8466 300.521 45.9026 300.531 45.9584L310.395 44.3145ZM311.078 30.9111L321.077 30.7884C321.01 25.3139 316.553 20.9111 311.078 20.9111V30.9111ZM311.127 34.8906V44.8906C313.8 44.8906 316.362 43.8201 318.241 41.9182C320.12 40.0162 321.159 37.4412 321.126 34.7679L311.127 34.8906ZM303.095 36.1113L309.579 43.7238C309.633 43.6782 309.686 43.6321 309.738 43.5854L303.095 36.1113ZM302.118 37.4297L292.896 33.5624C292.86 33.6477 292.826 33.7335 292.792 33.8197L302.118 37.4297ZM302.24 40.7256L293.54 45.6557C293.564 45.6982 293.589 45.7406 293.613 45.7828L302.24 40.7256ZM303.437 41.8486L298.745 50.6798C298.818 50.7184 298.891 50.7561 298.964 50.7929L303.437 41.8486ZM309.833 40.042L301.681 34.2499C301.647 34.298 301.613 34.3464 301.58 34.3952L309.833 40.042ZM310.517 38.2842L319.004 32.9967C316.673 29.2541 312.165 27.4803 307.909 28.6303C303.652 29.7803 300.651 33.5827 300.521 37.9902L310.517 38.2842ZM312.372 41.2627L321.688 44.8981C322.835 41.9597 322.528 38.6525 320.86 35.9752L312.372 41.2627ZM311.298 43.3379L302.861 37.9691C302.832 38.0151 302.803 38.0613 302.775 38.1077L311.298 43.3379ZM309.613 45.3643L316.322 52.7796C316.354 52.7507 316.386 52.7215 316.418 52.6922L309.613 45.3643ZM307.147 46.9023L310.915 56.1653C310.96 56.1471 311.005 56.1287 311.049 56.1099L307.147 46.9023ZM299.164 46.4873L294.649 55.41C294.692 55.4316 294.735 55.4529 294.778 55.474L299.164 46.4873ZM295.941 43.6797L287.552 49.1216C287.58 49.1656 287.609 49.2094 287.638 49.2529L295.941 43.6797ZM297.846 33.1816L303.72 41.2746C303.727 41.2691 303.735 41.2635 303.743 41.2579L297.846 33.1816ZM301.679 31.4971L304.055 41.2105C304.088 41.2026 304.12 41.1945 304.153 41.1862L301.679 31.4971ZM320.15 41.043V29.2754H300.15V41.043H320.15ZM320.15 29.2754C320.15 27.373 319.843 25.1492 318.822 22.9275L300.649 31.2775C300.181 30.2603 300.15 29.485 300.15 29.2754H320.15ZM318.864 23.0189C317.732 20.4899 315.869 18.4181 313.48 17.0243L303.403 34.2999C302.185 33.5897 301.185 32.4782 300.607 31.1862L318.864 23.0189ZM313.586 17.0872C310.988 15.5282 308.296 15.1494 306.22 15.1494V35.1494C305.966 35.1494 304.755 35.1124 303.296 34.237L313.586 17.0872ZM306.22 15.1494C304.271 15.1494 302.036 15.4951 299.824 16.5694L308.562 34.5595C307.49 35.0804 306.606 35.1494 306.22 35.1494V15.1494ZM300.036 16.4697C297.769 17.5059 295.759 19.1849 294.349 21.4863L311.401 31.9375C310.609 33.2298 309.478 34.1438 308.351 34.6592L300.036 16.4697ZM294.427 21.3614C292.955 23.6854 292.411 26.1827 292.411 28.4453H312.411C312.411 29.3733 312.177 30.715 311.323 32.0624L294.427 21.3614ZM302.411 18.4453H295.38V38.4453H302.411V18.4453ZM305.38 28.4453C305.38 28.6646 305.353 28.9147 305.29 29.1764C305.226 29.4377 305.137 29.66 305.047 29.8335L287.275 20.6606C286.031 23.0713 285.38 25.708 285.38 28.4453H305.38ZM305.047 29.8335C304.947 30.0287 304.833 30.1912 304.727 30.3156C304.623 30.4376 304.547 30.4978 304.535 30.5073L292.328 14.6645C290.296 16.2302 288.535 18.2196 287.275 20.6606L305.047 29.8335ZM304.616 30.4446C304.556 30.4918 304.643 30.4 305.032 30.2752L298.912 11.2346C296.566 11.9886 294.293 13.1176 292.248 14.7272L304.616 30.4446ZM304.999 30.2856C305.248 30.2066 305.751 30.0957 306.61 30.0957V10.0957C304.051 10.0957 301.462 10.4242 298.944 11.2242L304.999 30.2856ZM306.61 30.0957C307.549 30.0957 307.995 30.2503 308.14 30.3125L316.018 11.9296C312.973 10.6247 309.773 10.0957 306.61 10.0957V30.0957ZM308.14 30.3125C308.142 30.3133 308.115 30.3018 308.066 30.2728C308.017 30.2435 307.954 30.2007 307.883 30.1424C307.73 30.0176 307.605 29.8738 307.518 29.7443L324.159 18.6503C322.11 15.5764 319.291 13.3323 316.018 11.9296L308.14 30.3125ZM307.564 29.8123C307.364 29.5167 307.269 29.2603 307.232 29.1239C307.199 29.0024 307.23 29.0474 307.23 29.3242H327.23C327.23 25.7571 326.411 21.9671 324.114 18.5823L307.564 29.8123ZM307.23 29.3242V40.6279H327.23V29.3242H307.23ZM307.23 40.6279C307.23 42.4146 307.335 44.2983 307.68 46.0872L327.318 42.2975C327.319 42.3011 327.312 42.2667 327.302 42.1886C327.292 42.1111 327.28 42.0009 327.269 41.8542C327.247 41.5564 327.23 41.1528 327.23 40.6279H307.23ZM307.687 46.1198C308.003 47.7322 308.516 49.4172 309.336 51.0571L327.225 42.1128C327.295 42.2529 327.326 42.3445 327.335 42.3701C327.343 42.3953 327.331 42.3643 327.312 42.2649L307.687 46.1198ZM308.28 46.585V47H328.28V46.585H308.28ZM318.28 37H311.176V57H318.28V37ZM320.201 42.6927C320.251 42.7982 320.283 42.8787 320.302 42.9285C320.32 42.9783 320.327 43.0029 320.326 42.9982C320.325 42.9936 320.317 42.9648 320.304 42.9087C320.292 42.8528 320.276 42.7741 320.258 42.6705L300.531 45.9584C300.811 47.6383 301.288 49.4992 302.151 51.3073L320.201 42.6927ZM320.285 42.8383C320.194 42.231 320.15 41.6339 320.15 41.043H300.15C300.15 42.633 300.269 44.2169 300.504 45.7906L320.285 42.8383ZM301.079 31.0338L301.128 35.0133L321.126 34.7679L321.077 30.7884L301.079 31.0338ZM311.127 24.8906H307.196V44.8906H311.127V24.8906ZM307.196 24.8906C305.546 24.8906 303.699 25.0743 301.822 25.6551L307.736 44.7609C307.471 44.843 307.282 44.8738 307.198 44.8849C307.114 44.8959 307.108 44.8906 307.196 44.8906V24.8906ZM301.822 25.6551C300.065 26.199 298.163 27.1159 296.451 28.6372L309.738 43.5854C308.906 44.3255 308.126 44.6402 307.736 44.7609L301.822 25.6551ZM296.61 28.4989C295.045 29.8322 293.748 31.5324 292.896 33.5624L311.34 41.297C310.912 42.3178 310.266 43.1391 309.579 43.7238L296.61 28.4989ZM292.792 33.8197C292.104 35.5987 291.825 37.3922 291.825 39.0898H311.825C311.825 39.5831 311.742 40.2698 311.444 41.0396L292.792 33.8197ZM291.825 39.0898C291.825 41.2898 292.349 43.5545 293.54 45.6557L310.94 35.7955C311.578 36.9201 311.825 38.0943 311.825 39.0898H291.825ZM293.613 45.7828C294.9 47.9777 296.721 49.6043 298.745 50.6798L308.128 33.0175C309.111 33.5396 310.134 34.4175 310.867 35.6684L293.613 45.7828ZM298.964 50.7929C301.127 51.8741 303.325 52.2393 305.268 52.2393V32.2393C305.81 32.2393 306.788 32.344 307.909 32.9044L298.964 50.7929ZM305.268 52.2393C307.672 52.2393 310.29 51.751 312.789 50.3974L303.264 32.8116C304.2 32.3043 304.979 32.2393 305.268 32.2393V52.2393ZM312.789 50.3974C314.709 49.3574 316.614 47.8408 318.086 45.6888L301.58 34.3952C302.206 33.4801 302.906 33.0052 303.264 32.8116L312.789 50.3974ZM317.985 45.8341C319.157 44.1843 320.42 41.7133 320.512 38.5782L300.521 37.9902C300.581 35.9618 301.388 34.6627 301.681 34.2499L317.985 45.8341ZM302.029 43.5717L303.884 46.5502L320.86 35.9752L319.004 32.9967L302.029 43.5717ZM303.056 37.6273C303.071 37.5908 303.03 37.7035 302.861 37.9691L319.734 48.7066C320.477 47.54 321.153 46.2692 321.688 44.8981L303.056 37.6273ZM302.775 38.1077C302.816 38.0409 302.847 38.0017 302.857 37.9889C302.868 37.9765 302.855 37.9934 302.809 38.0363L316.418 52.6922C317.695 51.5066 318.858 50.1381 319.821 48.5681L302.775 38.1077ZM302.904 37.9489C303.151 37.7257 303.31 37.6676 303.246 37.6948L311.049 56.1099C312.905 55.3233 314.709 54.2398 316.322 52.7796L302.904 37.9489ZM303.379 37.6394C303.64 37.5334 303.821 37.4962 303.883 37.4856C303.943 37.4753 303.9 37.4883 303.729 37.4883V57.4883C306.003 57.4883 308.482 57.1552 310.915 56.1653L303.379 37.6394ZM303.729 37.4883C303.557 37.4883 303.479 37.4715 303.472 37.4701C303.468 37.4691 303.476 37.4705 303.492 37.4763C303.509 37.4821 303.529 37.4903 303.55 37.5006L294.778 55.474C297.645 56.8737 300.69 57.4883 303.729 57.4883V37.4883ZM303.679 37.5646C303.697 37.5736 303.789 37.6236 303.914 37.7328C304.042 37.844 304.156 37.975 304.244 38.1065L287.638 49.2529C289.447 51.9467 291.861 53.9993 294.649 55.41L303.679 37.5646ZM304.331 38.2378C304.475 38.4599 304.598 38.724 304.678 39.0038C304.756 39.2787 304.77 39.4842 304.77 39.5781H284.77C284.77 42.9065 285.649 46.1887 287.552 49.1216L304.331 38.2378ZM304.77 39.5781C304.77 39.5137 304.776 39.5602 304.748 39.6921C304.719 39.8285 304.66 40.0258 304.549 40.2543L286.553 31.5289C285.275 34.1633 284.77 36.923 284.77 39.5781H304.77ZM304.549 40.2543C304.447 40.4652 304.31 40.6773 304.146 40.871C303.984 41.063 303.83 41.1949 303.72 41.2746L291.972 25.0886C289.691 26.7438 287.824 28.9062 286.553 31.5289L304.549 40.2543ZM303.743 41.2579C303.492 41.4408 303.499 41.3467 304.055 41.2105L299.302 21.7836C296.798 22.3962 294.25 23.4251 291.949 25.1054L303.743 41.2579ZM304.153 41.1862C304.687 41.0499 305.598 40.9111 307.001 40.9111V20.9111C304.367 20.9111 301.731 21.163 299.205 21.8079L304.153 41.1862ZM307.001 40.9111H311.078V20.9111H307.001V40.9111ZM335.712 20.584H345.712C345.712 15.0611 341.235 10.584 335.712 10.584V20.584ZM335.712 47V57C341.235 57 345.712 52.5228 345.712 47H335.712ZM328.656 47H318.656C318.656 52.5228 323.133 57 328.656 57V47ZM328.656 20.584V10.584C323.133 10.584 318.656 15.0611 318.656 20.584L328.656 20.584ZM344.208 20.584H354.208C354.208 15.0611 349.731 10.584 344.208 10.584V20.584ZM344.208 26.0283V36.0283C349.731 36.0283 354.208 31.5512 354.208 26.0283L344.208 26.0283ZM320.282 26.0283H310.282C310.282 31.5512 314.759 36.0283 320.282 36.0283V26.0283ZM320.282 20.584V10.584C314.759 10.584 310.282 15.0611 310.282 20.584L320.282 20.584ZM325.712 20.584V47H345.712V20.584H325.712ZM335.712 37H328.656V57H335.712V37ZM338.656 47V20.584H318.656V47H338.656ZM328.656 30.584H335.712V10.584H328.656V30.584ZM334.208 20.584V26.0283H354.208V20.584H334.208ZM344.208 16.0283H320.282V36.0283H344.208V16.0283ZM330.282 26.0283V20.584H310.282V26.0283H330.282ZM320.282 30.584H344.208V10.584H320.282V30.584ZM352.655 28.4209V18.4209C347.132 18.4209 342.655 22.8981 342.655 28.4209L352.655 28.4209ZM366.474 29.6172L362.211 38.6634C362.246 38.6798 362.281 38.696 362.316 38.7119L366.474 29.6172ZM370.38 32.8887L361.955 38.2764C361.97 38.2995 361.985 38.3225 362 38.3454L370.38 32.8887ZM370.966 41.458L361.871 37.3004C361.862 37.3202 361.853 37.34 361.844 37.3599L370.966 41.458ZM348.261 47H338.261C338.261 52.5228 342.738 57 348.261 57V47ZM348.261 20.584V10.584C342.738 10.584 338.261 15.0611 338.261 20.584L348.261 20.584ZM355.316 20.584H365.316C365.316 15.0611 360.839 10.584 355.316 10.584V20.584ZM355.316 41.5312H345.316C345.316 47.0541 349.794 51.5312 355.316 51.5312V41.5312ZM362.86 41.0186L367.601 49.8233C367.627 49.8092 367.654 49.795 367.68 49.7807L362.86 41.0186ZM364.276 39.627L355.488 34.856C355.452 34.9215 355.418 34.9873 355.383 35.0535L364.276 39.627ZM364.276 35.8672L355.332 40.3393C355.382 40.4398 355.434 40.5394 355.488 40.6381L364.276 35.8672ZM362.86 34.4512L357.947 43.161C357.978 43.1786 358.01 43.196 358.041 43.2133L362.86 34.4512ZM352.655 33.9141H342.655C342.655 39.4369 347.132 43.9141 352.655 43.9141V33.9141ZM352.655 38.4209H360.321V18.4209H352.655V38.4209ZM360.321 38.4209C361.665 38.4209 362.177 38.6473 362.211 38.6634L370.736 20.571C367.384 18.992 363.796 18.4209 360.321 18.4209V38.4209ZM362.316 38.7119C362.441 38.7691 362.416 38.775 362.311 38.6875C362.2 38.5942 362.068 38.4527 361.955 38.2764L378.804 27.5009C376.742 24.2754 373.854 21.9955 370.631 20.5224L362.316 38.7119ZM362 38.3454C361.9 38.1914 361.823 38.0188 361.779 37.8619C361.737 37.7122 361.747 37.6587 361.747 37.7471H381.747C381.747 34.1739 380.834 30.6177 378.76 27.4319L362 38.3454ZM361.747 37.7471C361.747 37.7605 361.746 37.7112 361.766 37.6157C361.787 37.5182 361.822 37.4084 361.871 37.3004L380.061 45.6156C381.216 43.0872 381.747 40.4209 381.747 37.7471H361.747ZM361.844 37.3599C361.9 37.2349 361.975 37.1072 362.064 36.9903C362.152 36.8746 362.228 36.8018 362.268 36.7683L375.221 52.0071C377.282 50.255 378.949 48.0909 380.088 45.5562L361.844 37.3599ZM362.268 36.7683C362.348 36.7003 362.394 36.6765 362.381 36.6839C362.364 36.6926 362.277 36.7377 362.092 36.7973L368.219 55.8356C370.688 55.041 373.095 53.8141 375.221 52.0071L362.268 36.7683ZM362.092 36.7973C361.851 36.8746 361.303 37 360.321 37V57C362.953 57 365.627 56.6697 368.219 55.8356L362.092 36.7973ZM360.321 37H348.261V57H360.321V37ZM358.261 47V20.584H338.261V47H358.261ZM348.261 30.584H355.316V10.584H348.261V30.584ZM345.316 20.584V41.5312H365.316V20.584H345.316ZM355.316 51.5312H360.321V31.5312H355.316V51.5312ZM360.321 51.5312C362.316 51.5312 364.987 51.2312 367.601 49.8233L358.119 32.2138C358.82 31.8367 359.413 31.673 359.77 31.6009C359.953 31.564 360.093 31.5472 360.181 31.5392C360.27 31.5313 360.318 31.5312 360.321 31.5312V51.5312ZM367.68 49.7807C369.789 48.6206 371.827 46.8107 373.169 44.2004L355.383 35.0535C356.14 33.5825 357.234 32.7003 358.041 32.2564L367.68 49.7807ZM373.065 44.3979C374.193 42.3194 374.74 40.054 374.74 37.7715H354.74C354.74 36.8236 354.978 35.7952 355.488 34.856L373.065 44.3979ZM374.74 37.7715C374.74 35.5417 374.232 33.2459 373.065 31.0963L355.488 40.6381C354.939 39.6278 354.74 38.6015 354.74 37.7715H374.74ZM373.221 31.3951C371.901 28.7565 369.862 26.8893 367.68 25.689L358.041 43.2133C357.161 42.7292 356.065 41.806 355.332 40.3393L373.221 31.3951ZM367.774 25.7414C365.113 24.2404 362.373 23.9141 360.321 23.9141V43.9141C360.302 43.9141 360.068 43.9139 359.68 43.8318C359.287 43.7487 358.665 43.566 357.947 43.161L367.774 25.7414ZM360.321 23.9141H352.655V43.9141H360.321V23.9141ZM362.655 33.9141V28.4209H342.655V33.9141H362.655ZM387.714 36.1357V46.1357C393.186 46.1357 397.642 41.7373 397.713 36.2656L387.714 36.1357ZM381.488 36.1357L371.489 36.0246C371.459 38.6959 372.5 41.268 374.378 43.1674C376.256 45.0669 378.817 46.1357 381.488 46.1357V36.1357ZM381.83 32.3516L372.048 30.2765C372.04 30.3144 372.032 30.3524 372.024 30.3904L381.83 32.3516ZM382.978 29.4463L374.561 24.0467C374.536 24.0846 374.512 24.1226 374.489 24.1607L382.978 29.4463ZM385.175 26.8828L378.511 19.4263C378.464 19.4687 378.417 19.5116 378.37 19.5549L385.175 26.8828ZM388.52 23.0254L397.464 27.4975C397.478 27.4683 397.493 27.439 397.507 27.4096L388.52 23.0254ZM388.568 18.46L379.401 22.4558C379.443 22.5515 379.486 22.6465 379.531 22.7408L388.568 18.46ZM387.299 17.0195L382.229 25.6389C382.265 25.6601 382.301 25.6812 382.337 25.702L387.299 17.0195ZM383.246 16.9951L387.621 25.9875C387.686 25.9559 387.75 25.9237 387.814 25.8908L383.246 16.9951ZM381.757 18.3623L373.302 13.0224C373.268 13.076 373.235 13.13 373.202 13.1843L381.757 18.3623ZM381.171 20.8037V30.8037C386.631 30.8037 391.082 26.4242 391.17 20.965L381.171 20.8037ZM374.091 20.8037L364.093 20.5848C364.034 23.2743 365.062 25.874 366.943 27.7969C368.824 29.7199 371.401 30.8037 374.091 30.8037V20.8037ZM375.629 15.2861L367.351 9.67562C367.346 9.68247 367.342 9.68934 367.337 9.69621L375.629 15.2861ZM379.608 12.0391L383.493 21.2537C383.518 21.243 383.544 21.2321 383.569 21.2212L379.608 12.0391ZM391.059 12.0879L386.88 21.1728C386.905 21.1843 386.93 21.1958 386.955 21.2071L391.059 12.0879ZM394.794 15.335L386.228 20.4942C386.236 20.5087 386.245 20.5231 386.254 20.5375L394.794 15.335ZM395.258 24.2949L404.175 28.8202C404.184 28.8025 404.193 28.7848 404.202 28.7671L395.258 24.2949ZM390.131 30.2764L396.799 37.7288C396.859 37.6749 396.919 37.6202 396.978 37.5648L390.131 30.2764ZM388.227 32.8887L378.863 29.3774C378.845 29.4266 378.827 29.4759 378.809 29.5253L388.227 32.8887ZM381.83 41.0918L388.735 48.3254C388.763 48.2983 388.791 48.2711 388.819 48.2437L381.83 41.0918ZM387.567 41.0918L380.578 48.2437C380.633 48.2972 380.688 48.3501 380.744 48.4023L387.567 41.0918ZM387.567 46.2432L380.659 39.0133C380.632 39.0391 380.605 39.0651 380.578 39.0913L387.567 46.2432ZM387.714 26.1357H381.488V46.1357H387.714V26.1357ZM391.488 36.2468C391.499 35.1992 391.581 34.5893 391.636 34.3127L372.024 30.3904C371.656 32.2297 371.51 34.1426 371.489 36.0246L391.488 36.2468ZM391.612 34.4266C391.617 34.4052 391.613 34.4314 391.589 34.493C391.564 34.5557 391.524 34.6389 391.467 34.7319L374.489 24.1607C373.289 26.0869 372.497 28.157 372.048 30.2765L391.612 34.4266ZM391.394 34.8458C391.409 34.8229 391.558 34.6019 391.979 34.2107L378.37 19.5549C376.969 20.8565 375.653 22.3444 374.561 24.0467L391.394 34.8458ZM391.838 34.3394C392.794 33.4849 393.702 32.6063 394.532 31.7044L379.821 18.1549C379.513 18.4901 379.085 18.9136 378.511 19.4263L391.838 34.3394ZM394.532 31.7044C395.641 30.501 396.66 29.1049 397.464 27.4975L379.575 18.5533C379.728 18.248 379.852 18.1214 379.821 18.1549L394.532 31.7044ZM397.507 27.4096C398.561 25.2496 399.008 22.9887 399.008 20.8037H379.008C379.008 20.2463 379.129 19.4665 379.532 18.6412L397.507 27.4096ZM399.008 20.8037C399.008 18.9078 398.725 16.543 397.606 14.1791L379.531 22.7408C378.997 21.6139 379.008 20.8116 379.008 20.8037H399.008ZM397.735 14.4641C396.649 11.9717 394.807 9.79263 392.26 8.3371L382.337 25.702C380.93 24.8975 379.934 23.6787 379.401 22.4558L397.735 14.4641ZM392.369 8.40019C389.864 6.92691 387.277 6.53125 385.199 6.53125V26.5312C384.814 26.5312 383.626 26.4611 382.229 25.6389L392.369 8.40019ZM385.199 6.53125C382.966 6.53125 380.742 7.03945 378.678 8.09945L387.814 25.8908C386.954 26.3323 386.033 26.5312 385.199 26.5312V6.53125ZM378.871 8.00277C376.443 9.18433 374.591 10.9809 373.302 13.0224L390.212 23.7022C389.704 24.5067 388.845 25.3918 387.621 25.9875L378.871 8.00277ZM373.202 13.1843C371.618 15.8017 371.206 18.5302 371.172 20.6424L391.17 20.965C391.168 21.059 391.147 22.1599 390.312 23.5403L373.202 13.1843ZM381.171 10.8037H374.091V30.8037H381.171V10.8037ZM384.088 21.0226C384.098 20.6059 384.146 20.4319 384.145 20.4372C384.143 20.4421 384.129 20.4907 384.093 20.5719C384.055 20.6541 384 20.759 383.921 20.8761L367.337 9.69621C365.029 13.1205 364.173 16.9637 364.093 20.5848L384.088 21.0226ZM383.907 20.8966C383.877 20.9407 383.804 21.0307 383.69 21.1238C383.638 21.1666 383.589 21.1995 383.55 21.223C383.511 21.2462 383.49 21.255 383.493 21.2537L375.724 2.82441C372.316 4.26113 369.45 6.57938 367.351 9.67562L383.907 20.8966ZM383.569 21.2212C383.812 21.1165 384.3 20.9648 385.199 20.9648V0.964844C381.964 0.964844 378.725 1.5293 375.647 2.85695L383.569 21.2212ZM385.199 20.9648C386.414 20.9648 386.868 21.1675 386.88 21.1728L395.238 3.00299C391.994 1.51088 388.542 0.964844 385.199 0.964844V20.9648ZM386.955 21.2071C386.956 21.2075 386.923 21.1929 386.867 21.1571C386.81 21.121 386.735 21.0682 386.653 20.9961C386.475 20.8418 386.329 20.6618 386.228 20.4942L403.36 10.1757C401.375 6.88002 398.514 4.47681 395.162 2.96868L386.955 21.2071ZM386.254 20.5375C386.192 20.4353 386.146 20.3415 386.114 20.2637C386.082 20.1864 386.068 20.1346 386.063 20.1163C386.054 20.0815 386.088 20.1963 386.088 20.5107H406.088C406.088 17.0571 405.347 13.4367 403.334 10.1324L386.254 20.5375ZM386.088 20.5107C386.088 20.5667 386.083 20.5131 386.113 20.3762C386.144 20.2346 386.205 20.0405 386.314 19.8228L404.202 28.7671C405.544 26.0836 406.088 23.2542 406.088 20.5107H386.088ZM386.34 19.7696C386.251 19.9455 386.102 20.1779 385.829 20.4658L400.341 34.2276C401.859 32.6275 403.158 30.8253 404.175 28.8202L386.34 19.7696ZM385.829 20.4658C385.082 21.2531 384.236 22.0937 383.284 22.9879L396.978 37.5648C398.174 36.4408 399.297 35.3283 400.341 34.2276L385.829 20.4658ZM383.463 22.824C381.658 24.4387 379.908 26.591 378.863 29.3774L397.59 36.3999C397.229 37.3635 396.748 37.7742 396.799 37.7288L383.463 22.824ZM378.809 29.5253C378.022 31.7301 377.741 33.9579 377.715 36.0059L397.713 36.2656C397.714 36.1602 397.719 36.0813 397.723 36.0267C397.727 35.9721 397.732 35.9453 397.732 35.9437C397.732 35.9421 397.728 35.9688 397.715 36.0203C397.702 36.072 397.68 36.1507 397.644 36.252L378.809 29.5253ZM390.756 43.6797C390.756 44.3229 390.641 45.1687 390.26 46.0852C389.875 47.0129 389.32 47.7666 388.735 48.3254L374.925 33.8582C372.12 36.5363 370.756 40.0649 370.756 43.6797H390.756ZM388.819 48.2437C388.14 48.9073 387.337 49.3991 386.511 49.7001C385.718 49.9892 385.073 50.042 384.711 50.042V30.042C381.459 30.042 377.794 31.0543 374.841 33.9399L388.819 48.2437ZM384.711 50.042C384.326 50.042 383.667 49.9847 382.867 49.6906C382.036 49.3854 381.243 48.8931 380.578 48.2437L394.557 33.9399C391.63 31.0794 387.99 30.042 384.711 30.042V50.042ZM380.744 48.4023C380.159 47.8561 379.587 47.1038 379.186 46.1592C378.789 45.2235 378.666 44.3515 378.666 43.6797H398.666C398.666 39.9904 397.238 36.4392 394.391 33.7812L380.744 48.4023ZM378.666 43.6797C378.666 42.9468 378.805 42.0588 379.2 41.1382C379.594 40.2184 380.138 39.5108 380.659 39.0133L394.476 53.4731C397.174 50.8948 398.666 47.4318 398.666 43.6797H378.666ZM380.578 39.0913C381.243 38.4419 382.036 37.9495 382.867 37.6444C383.667 37.3503 384.326 37.293 384.711 37.293V57.293C387.99 57.293 391.63 56.2555 394.557 53.395L380.578 39.0913ZM384.711 37.293C385.073 37.293 385.718 37.3458 386.511 37.6349C387.337 37.9358 388.14 38.4277 388.819 39.0913L374.841 53.395C377.794 56.2807 381.459 57.293 384.711 57.293V37.293ZM388.819 39.0913C389.34 39.6003 389.869 40.3088 390.247 41.2125C390.625 42.1146 390.756 42.9764 390.756 43.6797H370.756C370.756 47.3572 372.182 50.7972 374.841 53.395L388.819 39.0913Z" fill="white"/>
<path d="M24.6279 11.4531V47H17.3037V11.4531H24.6279ZM45.5752 11.4531L31.9521 32.3271H22.9922L22.0645 25.8086H28.0459L36.6885 11.4531H45.5752ZM38.0312 47L28.0703 31.1064L33.1484 25.8818L46.7227 47H38.0312ZM63.4219 41.043V29.2754C63.4219 28.429 63.2835 27.7048 63.0068 27.1025C62.7301 26.484 62.2988 26.0039 61.7129 25.6621C61.1432 25.3203 60.4027 25.1494 59.4912 25.1494C58.71 25.1494 58.0345 25.2878 57.4648 25.5645C56.8952 25.8249 56.4557 26.2074 56.1465 26.7119C55.8372 27.2002 55.6826 27.778 55.6826 28.4453H48.6514C48.6514 27.3223 48.9118 26.2562 49.4326 25.2471C49.9535 24.238 50.7103 23.3509 51.7031 22.5859C52.696 21.8047 53.876 21.1943 55.2432 20.7549C56.6266 20.3154 58.1729 20.0957 59.8818 20.0957C61.9326 20.0957 63.7555 20.4375 65.3506 21.1211C66.9456 21.8047 68.1989 22.8301 69.1104 24.1973C70.0381 25.5645 70.502 27.2734 70.502 29.3242V40.6279C70.502 42.0765 70.5915 43.2646 70.7705 44.1924C70.9495 45.1038 71.21 45.9014 71.5518 46.585V47H64.4473C64.1055 46.2839 63.8451 45.3887 63.666 44.3145C63.5033 43.224 63.4219 42.1335 63.4219 41.043ZM64.3496 30.9111L64.3984 34.8906H60.4678C59.54 34.8906 58.7344 34.9964 58.0508 35.208C57.3672 35.4196 56.8057 35.7207 56.3662 36.1113C55.9268 36.4857 55.6012 36.9251 55.3896 37.4297C55.1943 37.9342 55.0967 38.4876 55.0967 39.0898C55.0967 39.6921 55.235 40.2373 55.5117 40.7256C55.7884 41.1976 56.1872 41.5719 56.708 41.8486C57.2288 42.109 57.8392 42.2393 58.5391 42.2393C59.597 42.2393 60.5166 42.0277 61.2979 41.6045C62.0791 41.1813 62.6813 40.6605 63.1045 40.042C63.5439 39.4235 63.7718 38.8376 63.7881 38.2842L65.6436 41.2627C65.3831 41.93 65.0251 42.6217 64.5693 43.3379C64.1299 44.054 63.5684 44.7295 62.8848 45.3643C62.2012 45.9827 61.3792 46.4954 60.4189 46.9023C59.4587 47.293 58.3193 47.4883 57.001 47.4883C55.3245 47.4883 53.8027 47.1546 52.4355 46.4873C51.0846 45.8037 50.0104 44.8678 49.2129 43.6797C48.4316 42.4753 48.041 41.1081 48.041 39.5781C48.041 38.1947 48.3014 36.9658 48.8223 35.8916C49.3431 34.8174 50.1081 33.9141 51.1172 33.1816C52.1426 32.4329 53.4202 31.8714 54.9502 31.4971C56.4801 31.1064 58.2542 30.9111 60.2725 30.9111H64.3496ZM83.417 20.584V47H76.3857V20.584H83.417ZM100.58 20.584L89.2031 37.1123H82.1719L81.3174 30.6182H85.9805L91.6689 20.584H100.58ZM91.9863 47L85.4922 35.8428L91.6201 32.4492L101.41 47H91.9863ZM134.271 20.584V26.1016H121.479V20.584H134.271ZM123.505 20.584V47H116.474V20.584H123.505ZM139.398 20.584V47H132.343V20.584H139.398ZM151.85 25.6621V57.1562H144.818V20.584H151.337L151.85 25.6621ZM168.573 33.499V34.0117C168.573 35.9323 168.345 37.7145 167.89 39.3584C167.45 41.0023 166.799 42.4346 165.937 43.6553C165.074 44.8597 164 45.8037 162.714 46.4873C161.444 47.1546 159.979 47.4883 158.319 47.4883C156.708 47.4883 155.308 47.1628 154.12 46.5117C152.932 45.8607 151.931 44.9492 151.117 43.7773C150.32 42.5892 149.677 41.2139 149.188 39.6514C148.7 38.0889 148.326 36.4124 148.065 34.6221V33.2793C148.326 31.3587 148.7 29.6009 149.188 28.0059C149.677 26.3945 150.32 25.0029 151.117 23.8311C151.931 22.6429 152.924 21.7233 154.096 21.0723C155.284 20.4212 156.675 20.0957 158.271 20.0957C159.947 20.0957 161.42 20.4131 162.689 21.0479C163.975 21.6826 165.049 22.5941 165.912 23.7822C166.791 24.9704 167.45 26.3864 167.89 28.0303C168.345 29.6742 168.573 31.4971 168.573 33.499ZM161.518 34.0117V33.499C161.518 32.376 161.42 31.3424 161.225 30.3984C161.046 29.4382 160.753 28.5999 160.346 27.8838C159.955 27.1676 159.434 26.6143 158.783 26.2236C158.148 25.8167 157.375 25.6133 156.464 25.6133C155.504 25.6133 154.682 25.7679 153.998 26.0771C153.331 26.3864 152.785 26.834 152.362 27.4199C151.939 28.0059 151.622 28.7057 151.41 29.5195C151.199 30.3333 151.068 31.2529 151.02 32.2783V35.6719C151.101 36.8763 151.329 37.9587 151.703 38.9189C152.077 39.863 152.655 40.6117 153.437 41.165C154.218 41.7184 155.243 41.9951 156.513 41.9951C157.44 41.9951 158.222 41.7917 158.856 41.3848C159.491 40.9616 160.004 40.3838 160.395 39.6514C160.801 38.9189 161.086 38.0726 161.249 37.1123C161.428 36.152 161.518 35.1185 161.518 34.0117ZM179.95 37.1855L188.812 20.584H195.844V47H188.812V30.374L179.95 47H172.919V20.584H179.95V37.1855ZM219.354 31.2529V36.7217H205.927V31.2529H219.354ZM208.271 20.584V47H201.239V20.584H208.271ZM224.115 20.584V47H217.06V20.584H224.115ZM236.591 37.1855L245.453 20.584H252.484V47H245.453V30.374L236.591 47H229.56V20.584H236.591V37.1855ZM273.969 38.9189L280.902 20.584H286.64L276.337 47H271.601L261.347 20.584H267.084L273.969 38.9189ZM265.399 20.584V47H258.368V20.584H265.399ZM282.709 47V20.584H289.74V47H282.709ZM310.15 41.043V29.2754C310.15 28.429 310.012 27.7048 309.735 27.1025C309.459 26.484 309.027 26.0039 308.441 25.6621C307.872 25.3203 307.131 25.1494 306.22 25.1494C305.438 25.1494 304.763 25.2878 304.193 25.5645C303.624 25.8249 303.184 26.2074 302.875 26.7119C302.566 27.2002 302.411 27.778 302.411 28.4453H295.38C295.38 27.3223 295.64 26.2562 296.161 25.2471C296.682 24.238 297.439 23.3509 298.432 22.5859C299.424 21.8047 300.604 21.1943 301.972 20.7549C303.355 20.3154 304.901 20.0957 306.61 20.0957C308.661 20.0957 310.484 20.4375 312.079 21.1211C313.674 21.8047 314.927 22.8301 315.839 24.1973C316.767 25.5645 317.23 27.2734 317.23 29.3242V40.6279C317.23 42.0765 317.32 43.2646 317.499 44.1924C317.678 45.1038 317.938 45.9014 318.28 46.585V47H311.176C310.834 46.2839 310.574 45.3887 310.395 44.3145C310.232 43.224 310.15 42.1335 310.15 41.043ZM311.078 30.9111L311.127 34.8906H307.196C306.269 34.8906 305.463 34.9964 304.779 35.208C304.096 35.4196 303.534 35.7207 303.095 36.1113C302.655 36.4857 302.33 36.9251 302.118 37.4297C301.923 37.9342 301.825 38.4876 301.825 39.0898C301.825 39.6921 301.964 40.2373 302.24 40.7256C302.517 41.1976 302.916 41.5719 303.437 41.8486C303.957 42.109 304.568 42.2393 305.268 42.2393C306.326 42.2393 307.245 42.0277 308.026 41.6045C308.808 41.1813 309.41 40.6605 309.833 40.042C310.272 39.4235 310.5 38.8376 310.517 38.2842L312.372 41.2627C312.112 41.93 311.754 42.6217 311.298 43.3379C310.858 44.054 310.297 44.7295 309.613 45.3643C308.93 45.9827 308.108 46.4954 307.147 46.9023C306.187 47.293 305.048 47.4883 303.729 47.4883C302.053 47.4883 300.531 47.1546 299.164 46.4873C297.813 45.8037 296.739 44.8678 295.941 43.6797C295.16 42.4753 294.77 41.1081 294.77 39.5781C294.77 38.1947 295.03 36.9658 295.551 35.8916C296.072 34.8174 296.837 33.9141 297.846 33.1816C298.871 32.4329 300.149 31.8714 301.679 31.4971C303.209 31.1064 304.983 30.9111 307.001 30.9111H311.078ZM335.712 20.584V47H328.656V20.584H335.712ZM344.208 20.584V26.0283H320.282V20.584H344.208ZM352.655 28.4209H360.321C362.73 28.4209 364.781 28.8197 366.474 29.6172C368.183 30.3984 369.485 31.4889 370.38 32.8887C371.291 34.2884 371.747 35.9079 371.747 37.7471C371.747 39.0817 371.487 40.3187 370.966 41.458C370.461 42.5811 369.721 43.5576 368.744 44.3877C367.768 45.2178 366.571 45.8607 365.155 46.3164C363.739 46.7721 362.128 47 360.321 47H348.261V20.584H355.316V41.5312H360.321C361.379 41.5312 362.226 41.3604 362.86 41.0186C363.511 40.6605 363.983 40.1966 364.276 39.627C364.586 39.0573 364.74 38.4388 364.74 37.7715C364.74 37.0716 364.586 36.4368 364.276 35.8672C363.983 35.2812 363.511 34.8092 362.86 34.4512C362.226 34.0931 361.379 33.9141 360.321 33.9141H352.655V28.4209ZM387.714 36.1357H381.488C381.505 34.6709 381.618 33.4095 381.83 32.3516C382.058 31.2773 382.44 30.3089 382.978 29.4463C383.531 28.5837 384.263 27.7292 385.175 26.8828C385.94 26.1992 386.607 25.5482 387.177 24.9297C387.746 24.3112 388.194 23.6764 388.52 23.0254C388.845 22.3581 389.008 21.6175 389.008 20.8037C389.008 19.8597 388.861 19.0785 388.568 18.46C388.292 17.8252 387.868 17.3451 387.299 17.0195C386.745 16.694 386.046 16.5312 385.199 16.5312C384.499 16.5312 383.848 16.6859 383.246 16.9951C382.644 17.2881 382.147 17.7438 381.757 18.3623C381.382 18.9808 381.187 19.7946 381.171 20.8037H374.091C374.14 18.5739 374.652 16.7347 375.629 15.2861C376.622 13.8213 377.948 12.7389 379.608 12.0391C381.269 11.3229 383.132 10.9648 385.199 10.9648C387.478 10.9648 389.431 11.3392 391.059 12.0879C392.686 12.8203 393.931 13.9027 394.794 15.335C395.657 16.751 396.088 18.4762 396.088 20.5107C396.088 21.9268 395.811 23.1882 395.258 24.2949C394.704 25.3854 393.98 26.4027 393.085 27.3467C392.19 28.2907 391.205 29.2673 390.131 30.2764C389.203 31.1064 388.568 31.9772 388.227 32.8887C387.901 33.8001 387.73 34.8825 387.714 36.1357ZM380.756 43.6797C380.756 42.638 381.114 41.7754 381.83 41.0918C382.546 40.3919 383.507 40.042 384.711 40.042C385.899 40.042 386.851 40.3919 387.567 41.0918C388.3 41.7754 388.666 42.638 388.666 43.6797C388.666 44.6888 388.3 45.5433 387.567 46.2432C386.851 46.943 385.899 47.293 384.711 47.293C383.507 47.293 382.546 46.943 381.83 46.2432C381.114 45.5433 380.756 44.6888 380.756 43.6797Z" fill="#0A7325"/>
</svg>
