<svg width="111" height="79" viewBox="0 0 111 79" fill="none" xmlns="http://www.w3.org/2000/svg">
<g clip-path="url(#clip0_2410_41985)">
<path d="M109.831 0.672852H0.046875V55.4276H109.831V0.672852Z" fill="white"/>
<path d="M109.807 22.5844H60.4065V0.672852H49.4232V22.5844H0.046875V33.5161H49.4232V55.4276H60.4065V33.5161H109.807" fill="#ED1C24"/>
<path d="M73.2202 37.168H81.4095L109.831 51.3433V55.4276M36.6336 18.9325H28.4443L0.046875 4.75724V0.672852L36.6336 18.9325ZM36.6336 37.1921H44.8228L8.21204 55.4517H0.046875L36.6336 37.1921ZM73.2202 18.9325H65.031L101.642 0.672852H109.831L73.2443 18.9325H73.2202Z" fill="#ED1C24"/>
<path d="M0.046875 37.168V49.3011L24.3738 37.168M109.831 37.168V49.3011L85.5041 37.168H109.831ZM0.046875 18.9325V6.79943L24.3738 18.9325H0.046875ZM109.831 18.9325V6.79943L85.5041 18.9325H109.831ZM45.7863 55.4276V38.7297L12.3308 55.4276H45.7863ZM64.0916 55.4276V38.7297L97.5712 55.4276H64.0916ZM45.7622 0.672852V17.3708L12.3067 0.672852H45.7622ZM64.0676 0.672852V17.3708L97.5471 0.672852H64.0676Z" fill="#0057A8"/>
<path d="M11.2241 72.7989C11.1277 70.997 11.0073 68.8347 11.0314 67.249H10.9832C10.5497 68.7626 9.99571 70.3723 9.34538 72.1502L7.05721 78.397H5.80474L3.70925 72.2704C3.1071 70.4684 2.57721 68.7866 2.21592 67.273H2.16774C2.11957 68.8827 2.02323 71.0451 1.92688 72.9671L1.58968 78.4931H0L0.891183 65.6152H3.01075L5.22667 71.8379C5.75656 73.4236 6.2142 74.8411 6.52732 76.1626H6.57549C6.88861 74.8652 7.37033 73.4476 7.92431 71.8379L10.2125 65.6152H12.3321L13.1269 78.4931H11.489L11.1759 72.847L11.2241 72.7989Z" fill="#231F20"/>
<path d="M20.1856 78.4447L20.0411 77.2674H19.9929C19.4871 77.9882 18.4755 78.6369 17.1507 78.6369C15.272 78.6369 14.3086 77.3155 14.3086 75.97C14.3086 73.7356 16.3077 72.5103 19.8725 72.5343V72.3421C19.8725 71.5733 19.6557 70.2038 17.7529 70.2038C16.8858 70.2038 15.9946 70.4681 15.3443 70.9006L14.9589 69.7954C15.7297 69.2909 16.8376 68.9785 17.9938 68.9785C20.8359 68.9785 21.5103 70.9006 21.5103 72.7506V76.2103C21.5103 77.0031 21.5585 77.796 21.6548 78.4207H20.1133L20.1856 78.4447ZM19.9447 73.7356C18.1142 73.6876 16.0187 74.0239 16.0187 75.8259C16.0187 76.907 16.7413 77.4356 17.6084 77.4356C18.8127 77.4356 19.5834 76.6668 19.8484 75.8979C19.8966 75.7298 19.9447 75.5376 19.9447 75.3694V73.7596V73.7356Z" fill="#231F20"/>
<path d="M31.5037 64.8941V76.0661C31.5037 76.883 31.5037 77.82 31.5759 78.4447H30.0585L29.9862 76.835H29.9381C29.4323 77.8681 28.3002 78.6609 26.7828 78.6609C24.5428 78.6609 22.8086 76.7629 22.8086 73.9519C22.8086 70.8766 24.7114 68.9785 26.9755 68.9785C28.3966 68.9785 29.36 69.6513 29.7695 70.3961H29.8176V64.8701H31.5037V64.8941ZM29.8176 72.9668C29.8176 72.7506 29.8176 72.4623 29.7454 72.2701C29.5045 71.2129 28.5892 70.324 27.3127 70.324C25.5785 70.324 24.5428 71.8616 24.5428 73.9038C24.5428 75.7778 25.4581 77.3155 27.2886 77.3155C28.4206 77.3155 29.4563 76.5707 29.7695 75.3213C29.8176 75.0811 29.8417 74.8649 29.8417 74.6006V72.9908L29.8176 72.9668Z" fill="#231F20"/>
<path d="M34.492 74.12C34.5402 76.4025 35.9854 77.3395 37.6714 77.3395C38.8757 77.3395 39.5983 77.1233 40.2486 76.859L40.5376 78.0603C39.9355 78.3245 38.9239 78.6369 37.4546 78.6369C34.6125 78.6369 32.9023 76.7629 32.9023 73.9759C32.9023 71.1889 34.5402 68.9785 37.2378 68.9785C40.2727 68.9785 41.0675 71.6454 41.0675 73.3272C41.0675 73.6635 41.0193 73.9278 41.0193 74.12H34.5161H34.492ZM39.4297 72.9187C39.4297 71.8376 38.9961 70.1798 37.0933 70.1798C35.3832 70.1798 34.6365 71.7415 34.5161 72.9187H39.4297Z" fill="#231F20"/>
<path d="M47.5681 66.6001C47.5681 67.1767 47.1587 67.6332 46.4843 67.6332C45.8821 67.6332 45.4727 67.1767 45.4727 66.6001C45.4727 66.0235 45.9062 65.543 46.5324 65.543C47.1587 65.543 47.5681 65.9995 47.5681 66.6001ZM45.6894 78.4448V69.1949H47.3755V78.4448H45.6894Z" fill="#231F20"/>
<path d="M49.4004 71.6938C49.4004 70.7328 49.4004 69.964 49.3281 69.1951H50.8215L50.9178 70.7328H50.966C51.4236 69.8438 52.5075 69.0029 54.0249 69.0029C55.3015 69.0029 57.3006 69.7718 57.3006 72.9432V78.4691H55.6146V73.1354C55.6146 71.6458 55.0606 70.3964 53.4709 70.3964C52.363 70.3964 51.4959 71.1893 51.2068 72.1023C51.1346 72.3185 51.0864 72.6068 51.0864 72.8951V78.4451H49.4004V71.6938Z" fill="#231F20"/>
<path d="M64.5986 66.5518V69.2186H67.0072V70.492H64.5986V75.4894C64.5986 76.6426 64.9358 77.2913 65.8511 77.2913C66.2847 77.2913 66.6219 77.2432 66.8386 77.1712L66.9109 78.4445C66.5978 78.5887 66.0679 78.6608 65.4176 78.6608C64.6227 78.6608 63.9965 78.4205 63.6111 77.964C63.1294 77.4595 62.9608 76.6426 62.9608 75.5614V70.516H61.5156V69.2426H62.9608V67.0323L64.5986 66.5998V66.5518Z" fill="#231F20"/>
<path d="M68.1413 64.8945H69.8273V70.6607H69.8755C70.1404 70.1802 70.574 69.7718 71.0798 69.4835C71.5856 69.1951 72.1636 69.0029 72.7899 69.0029C74.0423 69.0029 76.0174 69.7718 76.0174 72.9672V78.4691H74.3314V73.1594C74.3314 71.6698 73.7774 70.4205 72.1877 70.4205C71.1039 70.4205 70.2368 71.1893 69.9236 72.1023C69.8273 72.3425 69.8032 72.5828 69.8032 72.8951V78.4691H68.1172V64.9186L68.1413 64.8945Z" fill="#231F20"/>
<path d="M78.953 74.12C79.0011 76.4025 80.4463 77.3395 82.1323 77.3395C83.3366 77.3395 84.0592 77.1233 84.7095 76.859L84.9986 78.0603C84.3964 78.3245 83.3848 78.6369 81.9155 78.6369C79.0734 78.6369 77.3633 76.7629 77.3633 73.9759C77.3633 71.1889 79.0011 68.9785 81.6988 68.9785C84.7336 68.9785 85.5284 71.6454 85.5284 73.3272C85.5284 73.6635 85.4803 73.9278 85.4803 74.12H78.9771H78.953ZM83.8906 72.9187C83.8906 71.8376 83.4571 70.1798 81.5543 70.1798C79.8441 70.1798 79.0975 71.7415 78.9771 72.9187H83.8906Z" fill="#231F20"/>
<path d="M91.8657 65.567V73.1832C91.8657 76.0663 93.1423 77.2916 94.8765 77.2916C96.7793 77.2916 98.0076 76.0182 98.0076 73.1832V65.567H99.6937V73.063C99.6937 77.0273 97.5982 78.637 94.8042 78.637C92.1547 78.637 90.1797 77.1234 90.1797 73.1351V65.543H91.8657V65.567Z" fill="#231F20"/>
<path d="M101.836 65.567H103.498V71.7656H103.546C103.883 71.2611 104.245 70.8046 104.558 70.3962L108.508 65.567H110.579L105.906 71.0209L110.94 78.4208H108.965L104.726 72.102L103.498 73.5195V78.4208H101.836V65.543V65.567Z" fill="#231F20"/>
</g>
<defs>
<clipPath id="clip0_2410_41985">
<rect width="110.94" height="77.9877" fill="white" transform="translate(0 0.672852)"/>
</clipPath>
</defs>
</svg>
