<svg width="87" height="100" viewBox="0 0 87 100" fill="none" xmlns="http://www.w3.org/2000/svg">
<path d="M84.6493 34.2648C78.3229 10.3413 54.116 -3.93262 30.4453 2.21532L33.6622 14.3508C53.285 9.05823 73.4172 20.8462 78.6982 40.7067C83.9524 60.5672 72.3181 80.9623 52.722 86.2816L53.5531 89.4358C77.0897 82.8067 91.0026 58.215 84.6493 34.2648Z" fill="#231F20"/>
<path d="M7.58181 59.9787C2.3008 40.1449 13.9619 19.7231 33.5579 14.4038L32.7269 11.2764C9.16343 17.9054 -4.74948 42.5239 1.60382 66.4474C7.95711 90.3976 32.164 104.645 55.8347 98.4968L52.6178 86.3346C32.995 91.6272 12.836 79.8392 7.60861 60.0054L7.58181 59.9787Z" fill="#231F20"/>
<path d="M27.0179 40.8652L28.9212 48.0556L27.42 48.4566C25.5167 44.9817 23.3185 43.565 20.477 44.3402C14.5526 45.944 16.724 55.0589 17.4746 57.9458C19.2438 64.6818 23.1041 69.119 27.3128 67.9696C29.8595 67.3013 30.6637 64.1472 30.0203 61.688L29.1089 58.2666L26.5354 58.9615L25.9456 56.7697L32.3525 55.0055L35.623 67.3281L34.3631 67.6756L32.2453 65.3233C31.7628 66.6598 31.1462 67.5152 30.3956 68.2636C29.3769 69.1992 28.5727 69.7071 27.4468 70.0011C20.2089 71.9524 14.7402 65.5639 12.7565 58.1596C10.2634 48.7774 15.4372 43.565 19.0562 42.576C21.2008 41.9879 23.6938 42.1483 25.5703 43.1106L25.6775 41.2662L27.0447 40.892L27.0179 40.8652Z" fill="#231F20"/>
<path d="M48.7898 34.9593L54.6337 33.3555L55.2235 35.6008L53.1325 36.1889L59.0569 58.5353L61.1479 57.9472L61.7376 60.1925L53.8027 62.3309L53.2129 60.0856L55.3039 59.5243L50.2373 40.3855L48.9506 61.0746L46.9401 61.636L35.5202 44.395L40.5868 63.5338L42.6777 62.9725L43.2675 65.2178L37.6112 66.7682L37.0214 64.5228L39.1124 63.9615L33.188 41.6151L31.097 42.2031L30.4805 39.9578L36.1636 38.4075L47.369 55.3544L48.7361 35.0127L48.7898 34.9593Z" fill="#231F20"/>
<path d="M63.4243 33.4072C64.6038 32.9528 68.196 32.0707 69.6972 37.7108C71.386 44.0458 68.3568 45.4625 66.6948 45.7031L63.4243 33.4072ZM67.2309 47.7078C73.5306 46.2911 74.8978 42.148 73.5306 36.9356C71.4396 29.0769 66.0514 30.2798 63.6388 30.9213L56.9102 32.7657L57.4999 35.011L59.6177 34.4497L65.5421 56.7693L63.4243 57.3574L64.0141 59.576L72.1366 57.4109L71.5201 55.1655L69.3755 55.7536L67.2577 47.7346L67.2309 47.7078Z" fill="#231F20"/>
<path d="M12.4569 37.3394L13.0735 37.58L13.2879 37.0454C13.7436 37.2592 13.7972 37.6601 13.69 37.9274C13.3951 38.6224 12.5105 38.2749 12.296 38.168C12.1084 38.1146 11.197 37.7136 11.4918 36.9919C11.6527 36.5642 12.0816 36.6711 12.2424 36.6979L12.5105 36.0296C11.8939 35.896 11.1702 35.9762 10.8485 36.7246C10.3927 37.9007 11.3578 38.5422 12.028 38.8095C12.6445 39.0768 13.8509 39.3709 14.3334 38.2215C14.4942 37.8473 14.4674 37.5532 14.1994 37.2325L14.5478 37.3661L14.7623 36.9117L12.9394 36.1633L12.4837 37.2859L12.4569 37.3394Z" fill="#231F20"/>
<path d="M13.7702 36.0018C12.8319 35.5474 12.7783 34.8792 13.0464 34.3446C13.368 33.7832 13.9846 33.5427 14.8156 33.9703C15.6735 34.398 15.8343 35.0395 15.5394 35.6276C15.2445 36.2157 14.628 36.4295 13.7702 35.9751V36.0018ZM14.5208 34.5584C13.7702 34.1575 13.5825 34.4515 13.5289 34.5851C13.4753 34.7188 13.3412 35.0395 14.0918 35.4138C14.3867 35.5742 14.8961 35.788 15.1105 35.387C15.2982 34.9861 14.8424 34.7188 14.5476 34.5584H14.5208Z" fill="#231F20"/>
<path d="M16.8018 33.4093C17.1503 32.8747 17.0431 32.2064 16.2121 31.6986C15.4078 31.1907 14.7645 31.3778 14.416 31.9124C14.1211 32.3935 14.1211 33.0885 14.9789 33.6231C15.8099 34.1043 16.4265 33.9439 16.775 33.4093H16.8018ZM16.3729 33.142C16.1316 33.5162 15.6491 33.2756 15.3542 33.0885C14.6572 32.6341 14.7913 32.3134 14.8717 32.2064C14.9521 32.0728 15.1666 31.8322 15.8636 32.2599C16.1584 32.4203 16.5874 32.741 16.3729 33.142Z" fill="#231F20"/>
<path d="M18.8101 30.3904L15.9149 28.252L15.5664 28.7598L16.5583 29.4815C16.2902 29.4548 16.0221 29.6152 15.8881 29.7756C15.5128 30.23 15.7809 30.8715 16.4242 31.3794C17.0676 31.8605 17.7646 31.9407 18.1131 31.4596C18.2739 31.2457 18.2739 31.0586 18.1399 30.7111L18.3812 30.8982L18.7565 30.4171L18.8101 30.3904ZM17.4161 30.0696C17.9254 30.4438 17.979 30.7913 17.8182 30.9784C17.6574 31.1923 17.2821 31.1655 16.8531 30.818C16.4778 30.5507 16.2098 30.2033 16.4242 29.936C16.6119 29.6954 16.9604 29.7221 17.4161 30.0696Z" fill="#231F20"/>
<path d="M20.7411 28.1974L21.0628 27.8767L19.7225 25.5779L21.5454 27.3688L22.0011 26.8876L19.4544 24.375L18.7842 25.0433L20.071 27.2619L17.846 26.0055L17.1758 26.7005L19.7493 29.2132L20.205 28.732L18.3821 26.9411L20.6875 28.2241L20.7411 28.1974Z" fill="#231F20"/>
<path d="M21.869 24.7507C21.6009 24.4567 21.8154 24.2428 21.869 24.1894C21.9226 24.1359 22.1103 23.9755 22.3515 24.2428C22.3515 24.2428 22.3783 24.2696 22.4052 24.2963C22.566 24.5101 22.4051 24.5636 22.0835 24.9111C21.8422 25.2319 21.6277 25.5794 22.003 26.0338C22.1371 26.1941 22.5392 26.5684 23.0485 26.1674C23.2362 26.007 23.397 25.7397 23.3434 25.4457L23.5579 25.6061L24.0404 25.1784C24.0404 25.1784 23.7991 25.0715 23.6115 24.8309L22.8609 23.8954C22.6732 23.6815 22.2175 23.1736 21.5205 23.7617C21.3329 23.8954 20.7967 24.4032 21.3597 25.0982L21.8154 24.724L21.869 24.7507ZM22.8341 24.8309C23.1825 25.2319 23.0217 25.5259 22.8877 25.6328C22.8073 25.713 22.6196 25.7932 22.4588 25.6328C22.2711 25.3922 22.4051 25.2051 22.5124 25.0982C22.6732 24.9111 22.6464 24.9378 22.7268 24.724L22.8341 24.8576V24.8309Z" fill="#231F20"/>
<path d="M23.5887 22.7183C23.5887 22.3975 23.7227 22.1035 23.9372 21.9698C24.1784 21.8094 24.5805 21.6491 25.1435 22.451L26.0817 23.7875L25.5724 24.135L24.6878 22.9054C24.5537 22.6915 24.2857 22.3708 24.0176 22.5579C23.6959 22.7985 24.0176 23.2796 24.098 23.3865L24.9558 24.5894L24.4465 24.9369L22.9453 22.7985L23.4278 22.451L23.6155 22.7183H23.5887Z" fill="#231F20"/>
<path d="M27.6806 22.7985L28.2167 22.4778L26.9032 20.2324L26.3938 20.5532L27.1176 21.8095C27.198 21.9699 27.4661 22.451 27.1176 22.6381C26.93 22.7451 26.7423 22.6649 26.4743 22.2372L25.7237 20.9274L25.1875 21.2482L26.0185 22.6649C26.1794 22.9322 26.5815 23.5737 27.1712 23.2262C27.3589 23.1193 27.5197 22.9054 27.5465 22.5045L27.7074 22.7718L27.6806 22.7985Z" fill="#231F20"/>
<path d="M28.8874 19.83L28.4853 20.0439L29.4235 21.915L28.8606 22.1823L27.9223 20.3112L27.6006 20.4716L27.3594 19.9904L27.7079 19.83L27.5738 19.5093C27.3326 19.0549 27.5202 18.7608 27.9491 18.5737C28.0832 18.5203 28.2172 18.4668 28.2708 18.4668L28.4853 18.9479C28.4853 18.9479 28.3512 19.0014 28.2708 19.0281C28.0832 19.1351 28.1636 19.3222 28.1904 19.4024L28.2708 19.5895L28.6997 19.3756L28.941 19.83H28.8874Z" fill="#231F20"/>
<path d="M29.4572 19.8841C29.1355 19.0287 29.8056 18.7347 29.9933 18.6545C30.8511 18.307 31.146 18.895 31.2532 19.1891L31.7089 20.285C31.8162 20.5523 31.8966 20.686 32.0038 20.686V20.7394L31.4409 20.98L31.28 20.7662C31.2264 21.0602 31.012 21.2473 30.7975 21.3542C30.1809 21.6215 29.9397 21.1404 29.8593 20.9533C29.618 20.3919 29.9397 20.1246 30.2346 19.9108C30.6367 19.6435 30.7975 19.6168 30.7171 19.4029C30.7171 19.4029 30.6903 19.3495 30.6903 19.3227C30.5562 19.002 30.315 19.1089 30.2614 19.1356C30.1541 19.1623 29.9129 19.3227 30.0737 19.6702L29.5108 19.8841H29.4572ZM30.8779 19.8841C30.7171 20.0444 30.7439 20.0444 30.5562 20.1781C30.449 20.2583 30.2614 20.3919 30.3418 20.6592C30.449 20.8998 30.6635 20.8731 30.7707 20.8196C30.9047 20.7662 31.1192 20.5256 30.9316 20.0444L30.8779 19.8841Z" fill="#231F20"/>
<path d="M34.0101 19.0277C34.1174 19.4019 34.1174 20.1236 33.3668 20.3909C32.7234 20.578 32.1605 20.2573 31.8924 19.4019C31.7047 18.7871 31.6779 17.9852 32.5358 17.6912C33.2059 17.4773 33.5812 17.9317 33.7689 18.3862L33.2059 18.5733C33.0183 18.199 32.8574 18.1723 32.6698 18.2258C32.5358 18.2792 32.2409 18.4129 32.4821 19.1613C32.7502 19.99 33.0987 19.9365 33.2059 19.9098C33.5276 19.8029 33.474 19.4019 33.4204 19.2415L34.0101 19.0544V19.0277Z" fill="#231F20"/>
<path d="M33.6596 17.4536L34.0349 17.3467L33.8205 16.5715L34.437 16.4111L34.6247 17.1596L35.0536 17.0259L35.1876 17.5071L34.7319 17.6407L35.0536 18.8436C35.0804 19.004 35.1072 19.1911 35.3753 19.1376C35.4557 19.1109 35.5361 19.0574 35.5629 19.0307L35.697 19.5386C35.5361 19.6188 35.3485 19.6989 35.2144 19.7257C34.8123 19.8326 34.6247 19.6455 34.4906 19.1376L34.1422 17.7744L33.7669 17.8813L33.6328 17.3734L33.6596 17.4536Z" fill="#231F20"/>
<path d="M37.3078 18.921C37.1469 19.2685 36.9593 19.4021 36.718 19.4556C36.0747 19.5892 35.887 18.8408 35.8334 18.5468L35.5117 16.9429L36.1015 16.836L36.3963 18.3062C36.5036 18.8141 36.6376 18.9477 36.8789 18.8942C37.2542 18.8141 37.2006 18.3062 37.147 18.0923L36.8521 16.6756L37.4686 16.542L37.9512 19.1081L37.3614 19.2417L37.281 18.921H37.3078Z" fill="#231F20"/>
<path d="M39.5843 16.6772C39.5843 16.6772 39.4771 16.6772 39.4235 16.6772C39.075 16.7306 38.8337 16.9712 38.9409 17.88L39.075 18.9225L38.4584 19.0027L38.1367 16.4099L38.7533 16.3297L38.8069 16.7574C38.9141 16.3297 39.1822 16.1693 39.4503 16.1426H39.5307L39.5843 16.6505V16.6772Z" fill="#231F20"/>
<path d="M39.8828 15.2331L40.4994 15.1797L40.553 15.7678L39.9364 15.8212V15.2064L39.8828 15.2331ZM40.5262 16.142L40.7406 18.7615L40.1241 18.815L39.9096 16.2222L40.5262 16.1687V16.142Z" fill="#231F20"/>
<path d="M41.8085 16.0906H41.2188L41.2724 18.7101H41.8889L41.8621 17.24C41.8621 17.133 41.8621 16.5183 42.2642 16.5183C42.5859 16.5183 42.6127 16.9192 42.6127 17.1865V18.7101H43.2829V17.0796C43.2025 16.0906 42.8004 16.0371 42.5323 16.0371C42.2642 16.0371 41.9962 16.1708 41.8085 16.4648V16.144V16.0906Z" fill="#231F20"/>
<path d="M44.4091 18.8947C44.4091 18.8947 44.4895 19.1888 44.7844 19.2155C45.1597 19.2155 45.2133 18.8146 45.2401 18.6274V18.3601C45.0525 18.574 44.8648 18.6542 44.5967 18.6542C44.1142 18.6542 43.6853 18.2265 43.7389 17.3444C43.7925 16.4623 44.1946 15.9812 44.7576 16.0079C44.9184 16.0079 45.1865 16.0346 45.3473 16.4356V16.1148L45.9639 16.1415L45.8299 18.5205C45.7495 19.6432 45.1329 19.7501 44.704 19.7234C44.3019 19.7234 43.8193 19.5897 43.7657 18.868H44.3823L44.4091 18.8947ZM45.3473 17.3979C45.3742 16.89 45.2133 16.5692 44.9184 16.5425C44.5163 16.5158 44.4091 17.0771 44.4091 17.3177C44.4091 17.6117 44.4091 18.1196 44.838 18.1463C45.0257 18.1463 45.3205 18.0928 45.3473 17.3979Z" fill="#231F20"/>
<path d="M49.3163 15.6328C49.8792 15.7397 50.3082 16.0872 50.1473 16.9693C49.9329 18.092 49.2091 18.0385 48.8606 17.985L48.244 17.8514L48.0296 19.081L47.3594 18.9741L48.0027 15.4189L49.3163 15.6595V15.6328ZM48.3512 17.1564L48.8874 17.2366C49.2091 17.2901 49.3967 17.1831 49.4503 16.8089C49.5576 16.3278 49.2091 16.301 49.0482 16.2743L48.5389 16.1674L48.3512 17.1297V17.1564Z" fill="#231F20"/>
<path d="M52.0004 17.6902C52.0004 17.6902 51.8932 17.6902 51.8396 17.6368C51.4911 17.5566 51.1694 17.6902 50.9281 18.5723L50.6601 19.6148L50.0703 19.4544L50.7137 16.915L51.3034 17.0754L51.1962 17.4764C51.4643 17.1022 51.7592 17.1022 52.0272 17.1556H52.1076L51.9736 17.6635L52.0004 17.6902Z" fill="#231F20"/>
<path d="M52.3188 18.2263C52.6136 17.3709 53.3106 17.558 53.5251 17.6382C54.4097 17.9055 54.2221 18.5737 54.1148 18.841L53.7395 19.9904C53.6323 20.2577 53.6055 20.4181 53.6859 20.4983V20.5518L53.0694 20.3379V20.0706C52.8281 20.2577 52.56 20.2577 52.3188 20.1776C51.7022 19.9637 51.8094 19.4291 51.863 19.242C52.0507 18.6539 52.4796 18.6539 52.8549 18.7074C53.3106 18.7609 53.4447 18.8678 53.5519 18.6272C53.5519 18.5737 53.5519 18.5737 53.5519 18.547C53.6591 18.2263 53.4178 18.1193 53.3374 18.1193C53.2302 18.0926 52.9621 18.0391 52.8281 18.3866L52.2919 18.1995L52.3188 18.2263ZM53.391 19.1351C53.1766 19.1618 53.2034 19.1618 52.9621 19.1351C52.8281 19.1351 52.5868 19.0816 52.5064 19.3756C52.426 19.6162 52.6136 19.7231 52.7209 19.7499C52.8549 19.8033 53.1766 19.7499 53.3642 19.2687L53.4179 19.1083L53.391 19.1351Z" fill="#231F20"/>
<path d="M56.3093 20.5264C56.1217 20.8739 55.666 21.4352 54.9422 21.1412C54.3256 20.8739 54.1112 20.2591 54.4865 19.4305C54.7277 18.8424 55.2371 18.2009 56.0681 18.5484C56.7115 18.8157 56.7115 19.4038 56.5506 19.8582L55.9877 19.6176C56.0949 19.2166 55.9877 19.083 55.8268 19.0295C55.7196 18.9761 55.3979 18.8691 55.0762 19.5909C54.7545 20.3928 55.0494 20.5799 55.1566 20.6333C55.4515 20.767 55.666 20.4462 55.7464 20.2858L56.3093 20.5264Z" fill="#231F20"/>
<path d="M57.0341 19.6437L57.3826 19.8308L56.766 21.0871C56.5515 21.595 56.5515 21.8355 56.9268 22.0227C57.0609 22.0761 57.2485 22.1296 57.4094 22.183L57.6506 21.7019C57.6506 21.7019 57.5434 21.7019 57.463 21.6484C57.2217 21.5415 57.3289 21.3811 57.4094 21.2208L57.9723 20.0981L58.3744 20.2852L58.5889 19.8041L58.1868 19.6169L58.5353 18.8952L57.9723 18.6279L57.6238 19.3496L57.2753 19.1625L57.0341 19.6169V19.6437Z" fill="#231F20"/>
<path d="M58.9162 20.0175L57.6562 22.3163L58.1924 22.6103L59.4523 20.3115L58.9162 20.0175ZM59.1038 19.6967L59.64 19.9907L59.9617 19.4561L59.4255 19.1621L59.1307 19.6967H59.1038Z" fill="#231F20"/>
<path d="M60.3889 22.7463C60.2817 22.9066 60.0404 23.1739 59.7723 23.0136C59.6383 22.9334 59.397 22.7195 59.8528 21.9711C60.2549 21.3028 60.5766 21.4365 60.6838 21.5167C60.8446 21.5969 60.925 21.784 60.7374 22.1582L61.2467 22.479C61.4612 22.0513 61.5684 21.4632 60.9787 21.089C60.2013 20.6078 59.5847 21.1424 59.263 21.677C58.7805 22.4522 58.8877 23.0937 59.4507 23.468C60.1208 23.8689 60.657 23.4145 60.8982 23.067L60.3621 22.7463H60.3889Z" fill="#231F20"/>
<path d="M62.3197 24.376C62.1589 24.5364 61.9444 24.5097 61.7836 24.4027C61.4619 24.1622 61.6495 23.7612 61.7836 23.5474L63.0703 24.4829L63.1507 24.376C63.3384 24.1087 63.955 23.1464 63.1507 22.5851C62.6146 22.1841 61.9176 22.3178 61.3815 23.0395C60.6041 24.1087 61.2206 24.67 61.4351 24.8304C61.7568 25.0443 62.2393 25.2581 62.8023 24.777L62.3197 24.4027V24.376ZM62.0785 23.1999C62.2393 22.9861 62.561 22.7722 62.8559 22.9861C62.9631 23.093 63.1507 23.3068 62.829 23.7612L62.1053 23.1999H62.0785Z" fill="#231F20"/>
<path d="M63.6551 25.3646C63.4943 25.5784 63.5211 25.7655 63.7088 25.9259C63.816 26.0328 64.0036 26.0863 64.1377 25.9259C64.3253 25.6853 64.1377 25.4982 63.95 25.2576C63.7624 25.0171 63.4943 24.6428 63.95 24.1617C64.1109 23.9746 64.5398 23.6004 65.2099 24.1617C65.7729 24.6428 65.5853 25.124 65.3708 25.3913L64.9419 25.0171C65.1295 24.7498 64.9419 24.6428 64.8883 24.5627C64.8079 24.5092 64.5934 24.3755 64.4593 24.5092C64.2717 24.7498 64.4594 24.9636 64.6202 25.1507C64.8615 25.4448 65.1295 25.7922 64.7006 26.2734C64.4326 26.5674 64.0036 26.8347 63.3603 26.3001C62.8777 25.8992 62.8241 25.3646 63.1994 24.9101L63.6819 25.3378L63.6551 25.3646Z" fill="#231F20"/>
<path d="M33.6035 75.6694L32.5312 75.9634L31.1641 70.8312L34.1933 70.0293L34.4614 71.0183L32.5044 71.5529L33.5767 75.6961L33.6035 75.6694Z" fill="#231F20"/>
<path d="M36.6083 69.3633L39.6911 74.0143L38.5384 74.3351L38.0023 73.453L36.367 73.9074L36.3134 74.9499L35.1875 75.2706L35.536 69.684L36.6083 69.39V69.3633ZM37.5197 72.6511L36.4206 70.8602L36.3402 72.9719L37.5197 72.6511Z" fill="#231F20"/>
<path d="M40.8717 68.2131C41.8099 67.9726 42.6945 68.133 43.0162 69.416C43.4451 71.0198 42.2925 71.4208 41.7295 71.5811L40.7108 71.8484L41.1933 73.6126L40.1211 73.9067L38.7539 68.8012L40.8717 68.2131ZM40.4696 70.8594L41.3006 70.6456C41.8099 70.5119 42.0244 70.2179 41.8903 69.7368C41.7027 69.0418 41.1934 69.2022 40.9521 69.2824L40.1211 69.5229L40.4964 70.8862L40.4696 70.8594Z" fill="#231F20"/>
<path d="M45.346 67.0117L48.402 71.6628L47.2493 71.9835L46.7132 71.1014L45.078 71.5558V72.5983L43.8984 72.9191L44.2469 67.3325L45.346 67.0384V67.0117ZM46.2575 70.2995L45.1584 68.5086L45.078 70.6203L46.2575 70.2995Z" fill="#231F20"/>
<path d="M49.8736 71.2627L48.8013 71.5567L47.4609 66.4513L48.5332 66.1573L49.0425 68.0818L50.6778 67.6541L50.1685 65.7296L51.2407 65.4355L52.6079 70.541L51.5356 70.835L50.9727 68.6432L49.3106 69.0708L49.8736 71.2627Z" fill="#231F20"/>
<path d="M53.4907 65.8623L54.5898 69.9788L55.6621 69.6848L54.563 65.5683L55.9301 65.1941L55.6621 64.2051L51.8555 65.2476L52.1235 66.2366L53.4907 65.8623Z" fill="#231F20"/>
<path d="M59.1525 63.2706L60.2247 62.9766L61.5651 68.1088L60.4928 68.4028L59.5814 65.0615L58.6431 68.8839L57.5708 69.178L56.2305 64.0725L57.3028 63.7785L58.1874 67.093L59.1256 63.2973L59.1525 63.2706Z" fill="#231F20"/>
<path d="M64.1352 65.5141L63.7062 67.5188L62.4195 67.8663L63.0092 65.7279C62.4731 65.8081 61.6689 65.5943 61.4008 64.4449C60.9987 62.9747 62.071 62.4936 62.5803 62.3599L64.8858 61.7451L66.2261 66.8506L65.1538 67.1446L64.6713 65.3804L64.1084 65.5408L64.1352 65.5141ZM63.0897 63.2687C62.5267 63.4291 62.4731 63.8301 62.5535 64.1241C62.634 64.4181 62.8484 64.7656 63.4918 64.6052L64.43 64.3379L64.0815 62.9747L63.0897 63.242V63.2687Z" fill="#231F20"/>
<path d="M35.5333 77.4891L36.7933 77.1416L35.587 80.0017L38.2677 82.2471L36.9541 82.5946L34.6755 80.5363L35.3457 83.049L34.2734 83.343L32.9062 78.2375L33.9785 77.9435L34.5415 80.0819L35.5333 77.4891Z" fill="#231F20"/>
<path d="M38.4774 76.7146L38.1289 82.2744L39.2816 81.9804V80.9647L40.9437 80.537L41.4798 81.3923L42.6057 81.0983L39.5497 76.4473L38.4506 76.7413L38.4774 76.7146ZM39.3084 80.0291L39.3888 77.9174L40.4879 79.7083L39.3084 80.0291Z" fill="#231F20"/>
<path d="M42.29 75.6729L42.6116 76.9025C42.7457 77.3836 42.9601 77.7311 43.6303 77.544C43.818 77.4905 44.1396 77.3836 44.3541 77.3034L43.818 75.2452L44.8903 74.9512L46.2306 80.0834L45.1583 80.3774L44.5954 78.2924C44.3005 78.3994 43.8984 78.533 43.5767 78.6399C42.2631 79.0142 41.8342 78.4796 41.593 77.5173L41.1641 75.9669L42.2363 75.6729H42.29Z" fill="#231F20"/>
<path d="M49.7402 75.8324L49.9815 76.7679L47.7565 77.3827L48.0782 78.5321L50.6516 77.8371L50.9197 78.8262L47.274 79.8152L45.9336 74.683L49.5257 73.7207L49.7938 74.7097L47.274 75.378L47.542 76.4204L49.767 75.8324H49.7402Z" fill="#231F20"/>
<path d="M55.1585 75.7237C55.2925 76.5256 55.2121 77.8087 53.6037 78.2363C52.451 78.5571 51.2178 78.2363 50.6817 76.2316C49.9579 73.5318 51.7004 72.9705 52.1293 72.8368C53.7377 72.4092 54.4347 73.4249 54.676 74.1734L53.6305 74.4407C53.3088 73.6388 52.6922 73.7457 52.4242 73.8259C52.1829 73.9061 51.3519 74.1734 51.8076 75.8841C52.0489 76.8464 52.6386 77.4344 53.3624 77.2206C54.0594 77.0335 54.1398 76.4187 54.0594 76.0177L55.1317 75.7237H55.1585Z" fill="#231F20"/>
<path d="M54.8384 73.3205L54.5703 72.3315L58.3769 71.2891L58.645 72.2781L57.2778 72.6256L58.3769 76.742L57.3046 77.036L56.2056 72.9196L54.8384 73.2671V73.3205Z" fill="#231F20"/>
<path d="M61.2429 70.5395C62.4492 70.2188 62.8513 70.887 62.9854 71.4484C63.1194 72.0364 62.905 72.4374 62.5029 72.7314C62.8782 72.7314 63.5751 72.8383 63.8164 73.7739C64.1381 75.0035 63.2803 75.4579 62.4492 75.6984L60.2779 76.2598L58.9375 71.1543L61.2161 70.5395H61.2429ZM60.5727 72.8918L61.5646 72.6245C61.9935 72.4908 62.0203 72.1433 61.9667 71.9562C61.9131 71.7157 61.7523 71.4751 61.2697 71.6087L60.3315 71.8493L60.5996 72.865L60.5727 72.8918ZM61.1357 75.0035L62.2348 74.6827C62.4224 74.6292 62.7977 74.4154 62.6637 73.961C62.5297 73.4798 62.1812 73.4531 61.7791 73.56L60.7872 73.8273L61.1089 75.0035H61.1357Z" fill="#231F20"/>
<path d="M64.8368 69.5512L64.4883 75.1378L65.6142 74.8171V73.8013L67.303 73.3469L67.8392 74.2023L68.9919 73.8815L65.9359 69.2305L64.8368 69.5245V69.5512ZM65.6678 72.8658L65.7482 70.7274L66.8473 72.545L65.6678 72.8658Z" fill="#231F20"/>
</svg>
