<svg width="68" height="96" viewBox="0 0 68 96" fill="none" xmlns="http://www.w3.org/2000/svg">
<g clip-path="url(#clip0_2406_41958)">
<path d="M26.7563 59.8828L25.2912 55.2793L23.7476 59.8565L18.9336 59.8302L22.7796 62.7238L21.2621 67.301L25.1866 64.5389L29.0849 67.4063L27.672 62.7764L31.5703 59.9617L26.7563 59.8828Z" fill="#231F20"/>
<path d="M44.4673 59.8828L43.0021 55.2793L41.4324 59.8565L36.6445 59.8302L40.4905 62.7238L38.973 67.301L42.8975 64.5389L46.7696 67.4063L45.3568 62.7764L49.2551 59.9617L44.4673 59.8828Z" fill="#231F20"/>
<path d="M53.7024 0.984375H14.9027C7.10607 0.984375 0.800781 7.35037 0.800781 15.1632V81.2433C0.800781 89.0824 7.10607 95.4221 14.9027 95.4221H53.7286C61.499 95.4221 67.8305 89.0561 67.8305 81.2433V15.1632C67.8043 7.35037 61.499 0.984375 53.7024 0.984375ZM65.8683 81.2696C65.8683 88.0565 60.4263 93.5281 53.7024 93.5281H14.9027C8.17876 93.5281 2.73685 88.0302 2.73685 81.2696V15.1632C2.73685 8.3763 8.17876 2.9047 14.9027 2.9047H53.7286C60.4525 2.9047 65.8944 8.4026 65.8944 15.1632V81.2433L65.8683 81.2696Z" fill="#231F20"/>
<path d="M34.2894 52.7805C46.5598 52.7805 56.5018 42.7843 56.5018 30.4469C56.5018 18.1095 46.5598 8.13965 34.2894 8.13965C32.5626 8.13965 30.8882 8.35009 29.2661 8.71838V23.1602C29.2661 23.1602 31.987 19.5563 36.9842 19.3985C44.9116 19.1355 48.993 24.0809 49.6471 31.1309C50.5889 41.0482 44.1528 46.7828 37.1411 46.7828C33.583 46.7828 29.0829 45.4938 26.9637 41.9952L24.9492 46.0462H18.4346V14.795C14.5101 18.8198 12.0508 24.3703 12.0508 30.4732C12.0508 42.8106 21.9927 52.8068 34.2632 52.8068L34.2894 52.7805Z" fill="#231F20"/>
<path d="M33.218 41.4168C37.2733 41.4168 38.5553 38.0234 38.3983 32.7096C38.2937 29.1846 38.0582 25.0283 33.6366 25.0283C31.0727 25.0283 29.2151 27.0539 29.2151 27.0539C29.2151 27.0539 29.2151 30.2106 29.2151 30.8156V35.156C29.2151 35.7611 29.2151 36.787 29.2151 36.787C29.2151 36.787 29.1104 41.3905 33.1919 41.3905L33.218 41.4168Z" fill="#231F20"/>
<path d="M7.75839 72.1944C7.10431 72.1944 6.60721 72.4575 6.31942 72.8521V70.1426H4.85429V75.6142C4.85429 76.1403 4.85429 76.719 4.82812 77.0347H6.08395L6.13628 76.377C6.4764 76.9295 6.99966 77.1399 7.54908 77.1399C8.62177 77.1399 9.72061 76.2981 9.72061 74.5882C9.72061 73.1414 8.90956 72.1944 7.75839 72.1944ZM7.20896 75.9825C6.79035 75.9825 6.45023 75.6931 6.34558 75.2722C6.34558 75.1933 6.31942 75.1144 6.31942 75.0091V74.2989C6.31942 74.2989 6.31942 74.1147 6.34558 74.0358C6.45023 73.6149 6.81652 73.2993 7.20896 73.2993C7.8892 73.2993 8.22932 73.878 8.22932 74.6146C8.22932 75.4563 7.83687 75.9561 7.20896 75.9561V75.9825Z" fill="#231F20"/>
<path d="M14.5872 76.8505L14.4041 75.8508C14.0117 75.9824 13.5931 76.035 13.096 76.035C12.4157 76.035 11.814 75.7456 11.7616 75.1406H14.7966C14.7966 75.1406 14.8489 74.7986 14.8489 74.5619C14.8489 73.3781 14.2733 72.1943 12.7558 72.1943C11.1076 72.1943 10.375 73.5359 10.375 74.7197C10.375 76.1928 11.2907 77.1398 12.8867 77.1398C13.5146 77.1398 14.1163 77.0346 14.5872 76.8505ZM12.6512 73.1677C13.3314 73.1677 13.4884 73.7727 13.4884 74.141H11.7616C11.7878 73.7464 12.0494 73.1677 12.6773 73.1677H12.6512Z" fill="#231F20"/>
<path d="M16.994 76.1138C16.5492 76.1138 15.9998 75.9296 15.7382 75.7455L15.4766 76.7977C15.8428 76.9819 16.3923 77.1397 16.994 77.1397C18.3545 77.1397 19.0347 76.4821 19.0347 75.5877C19.0347 74.8774 18.6423 74.4302 17.7527 74.1145C17.1772 73.9041 16.994 73.7989 16.994 73.5621C16.994 73.3254 17.2033 73.1675 17.5434 73.1675C17.9359 73.1675 18.3545 73.3254 18.5638 73.4306L18.8254 72.4047C18.5376 72.2468 18.0405 72.1416 17.4911 72.1416C16.3138 72.1416 15.5812 72.7992 15.5812 73.6936C15.5812 74.2461 15.9475 74.7722 16.9155 75.1142C17.465 75.2983 17.6219 75.4035 17.6219 75.6666C17.6219 75.9296 17.4388 76.0612 16.994 76.0612V76.1138Z" fill="#231F20"/>
<path d="M22.5951 75.9036C22.4381 75.9299 22.3596 75.9299 22.1503 75.9299C21.7055 75.9299 21.5747 75.6669 21.5747 75.0881V73.3783H22.6212V72.2997H21.5747V71.0107L20.1357 71.4053V72.2997H19.5078V73.3783H20.1357V75.3249C20.1357 75.9825 20.2665 76.456 20.5543 76.7454C20.7898 76.9821 21.1822 77.1663 21.6532 77.1663C22.0718 77.1663 22.4119 77.1137 22.6212 77.0348V75.9299L22.5951 75.9036Z" fill="#231F20"/>
<path d="M28.98 76.9293L28.7968 75.8245C28.5875 75.9297 28.2997 75.9823 27.9596 75.9823C27.2532 75.9823 26.6776 75.5351 26.6776 74.6407C26.6776 73.8515 27.1747 73.2991 27.9334 73.2991C28.3259 73.2991 28.5875 73.378 28.7445 73.457L28.98 72.3521C28.666 72.2469 28.2474 72.168 27.8549 72.168C26.102 72.168 25.1602 73.2991 25.1602 74.6933C25.1602 76.1928 26.1282 77.1398 27.6718 77.1398C28.2212 77.1398 28.7183 77.0345 28.98 76.9293Z" fill="#231F20"/>
<path d="M31.9101 72.1943C30.3926 72.1943 29.3984 73.1677 29.3984 74.7197C29.3984 76.2717 30.4711 77.1661 31.8316 77.1661C33.0874 77.1661 34.3171 76.377 34.3171 74.6408C34.3171 73.2203 33.3491 72.2206 31.9101 72.2206V72.1943ZM31.8839 76.0876C31.256 76.0876 30.9159 75.4826 30.9159 74.6671C30.9159 73.9568 31.1775 73.2466 31.8839 73.2466C32.538 73.2466 32.8258 73.9568 32.8258 74.6671C32.8258 75.5089 32.4595 76.0876 31.8839 76.0876Z" fill="#231F20"/>
<path d="M37.4032 73.378C37.8741 73.378 38.0834 73.7989 38.0834 74.3777V77.0345H39.5224V74.2461C39.5224 74.2461 39.5224 73.9831 39.5747 73.8778C39.6794 73.5885 39.9148 73.3517 40.255 73.3517C40.7259 73.3517 40.9614 73.7463 40.9614 74.4303V77.0082H42.4003V74.2198C42.4003 72.7993 41.7201 72.168 40.8044 72.168C40.4643 72.168 40.1765 72.2469 39.9148 72.4047C39.7055 72.5362 39.4701 72.7204 39.3131 72.9835C39.1038 72.4836 38.6328 72.168 38.0311 72.168C37.22 72.168 36.8014 72.6152 36.5921 72.9045H36.566L36.4875 72.2732H35.2578C35.2578 72.6941 35.284 73.1939 35.284 73.7989V77.0345H36.7229V74.2724C36.7229 74.2724 36.7229 74.0094 36.7753 73.9041C36.8538 73.6674 37.0892 73.378 37.4555 73.378H37.4032Z" fill="#231F20"/>
<path d="M46.4303 72.1943C45.75 72.1943 45.2006 72.4574 44.8605 72.9572L44.782 72.2996H43.5C43.5 72.7468 43.5262 73.2729 43.5262 73.9042V78.9812H44.9913V76.6137C45.2006 76.9294 45.6454 77.1661 46.221 77.1661C47.2675 77.1661 48.3663 76.3506 48.3663 74.6145C48.3663 73.0887 47.4506 72.1943 46.4041 72.1943H46.4303ZM45.8808 76.0087C45.4622 76.0087 45.1221 75.7193 45.0175 75.2984C45.0175 75.2195 44.9913 75.1143 44.9913 74.9827V74.3251C44.9913 74.3251 44.9913 74.141 45.0175 74.062C45.1221 73.6148 45.4884 73.3255 45.907 73.3255C46.5611 73.3255 46.9012 73.9042 46.9012 74.6671C46.9012 75.4826 46.5349 76.0087 45.8808 76.0087Z" fill="#231F20"/>
<path d="M53.2579 75.9034V74.2462C53.2579 73.1413 52.7608 72.1943 51.1911 72.1943C50.3277 72.1943 49.6736 72.4311 49.3596 72.6152L49.6213 73.5622C49.9352 73.3781 50.4323 73.194 50.9294 73.194C51.662 73.194 51.7928 73.5622 51.7928 73.799V73.8779C50.1184 73.8779 49.0195 74.4566 49.0195 75.693C49.0195 76.4559 49.5951 77.1398 50.537 77.1398C51.0864 77.1398 51.5835 76.9294 51.8975 76.5611H51.9236L52.0021 77.0346H53.3364C53.2841 76.7715 53.2579 76.3243 53.2579 75.8771V75.9034ZM51.819 75.3247C51.819 75.3247 51.819 75.5089 51.7928 75.5878C51.6882 75.8771 51.4004 76.1402 51.0341 76.1402C50.694 76.1402 50.4585 75.9561 50.4585 75.5878C50.4585 75.0091 51.0602 74.8249 51.819 74.8512V75.3773V75.3247Z" fill="#231F20"/>
<path d="M57.2072 72.1943C56.4223 72.1943 55.9514 72.6415 55.7421 72.9572H55.7159L55.6375 72.2996H54.3555C54.3555 72.7205 54.3816 73.2203 54.3816 73.8253V77.0609H55.8468V74.3251C55.8468 74.1936 55.8468 74.062 55.8991 73.9568C56.0037 73.6938 56.2392 73.4044 56.6317 73.4044C57.1549 73.4044 57.3642 73.8253 57.3642 74.4303V77.0609H58.8294V74.2462C58.8294 72.852 58.0968 72.1943 57.1288 72.1943H57.2072Z" fill="#231F20"/>
<path d="M61.969 75.509H61.9429C61.8906 75.246 61.7859 74.904 61.7074 74.6146L61.001 72.2734H59.3789L61.1057 76.6139C61.1057 76.6139 61.1842 76.798 61.1842 76.8506C61.1842 76.9296 61.158 77.0085 61.1057 77.0611C60.9487 77.2978 60.7132 77.5346 60.5039 77.6661C60.2946 77.7976 60.0591 77.8766 59.876 77.9292L60.19 79.1919C60.5562 79.1392 61.1057 78.9814 61.6028 78.5342C62.126 78.0607 62.597 77.2978 63.251 75.4301L64.3499 72.2997H62.7801L62.2045 74.641C62.126 74.904 62.0475 75.2723 61.9952 75.5354L61.969 75.509Z" fill="#231F20"/>
<path d="M11.7617 86.82L13.1222 85.5573C13.3053 85.3995 13.4623 85.2417 13.6193 85.0838C13.7763 84.926 13.9333 84.7419 14.0641 84.5577C14.1426 84.4525 14.1949 84.3473 14.221 84.2683C14.2472 84.1894 14.2734 84.0842 14.2734 83.979C14.2734 83.7685 14.221 83.6107 14.0902 83.4792C13.9856 83.3476 13.8286 83.295 13.6455 83.295C13.253 83.295 13.0175 83.5581 12.9914 84.0579H11.8402C11.8402 83.5581 11.9972 83.1635 12.3111 82.9004C12.6251 82.6374 13.0699 82.5059 13.6455 82.5059C13.9071 82.5059 14.1687 82.5322 14.378 82.6111C14.5873 82.69 14.7966 82.7689 14.9536 82.9004C15.1106 83.032 15.2414 83.1898 15.3199 83.3476C15.3984 83.5055 15.4507 83.7159 15.4507 83.9527C15.4507 84.2157 15.3722 84.5051 15.2152 84.7682C15.0583 85.0575 14.7966 85.3732 14.4303 85.7415C14.1949 85.9782 13.9594 86.1887 13.6978 86.4254C13.4362 86.6622 13.2007 86.8463 12.9391 87.0568L15.4769 87.0041V87.8985H11.7617V86.82Z" fill="#231F20"/>
<path d="M16.0781 85.2943C16.0781 84.8471 16.1305 84.4525 16.2089 84.1105C16.2874 83.7685 16.4182 83.4792 16.5752 83.2424C16.7322 83.0057 16.9153 82.8215 17.1508 82.69C17.3863 82.5585 17.6479 82.5059 17.9357 82.5059C18.302 82.5059 18.5898 82.5848 18.8514 82.7426C19.113 82.9004 19.27 83.1109 19.427 83.3476C19.5578 83.6107 19.6625 83.8738 19.7148 84.1894C19.7671 84.5051 19.7933 84.7945 19.7933 85.1101C19.7933 85.4258 19.7933 85.7678 19.7148 86.0834C19.6625 86.4254 19.584 86.7148 19.427 87.0041C19.2962 87.2935 19.113 87.504 18.8514 87.6881C18.5898 87.8722 18.2758 87.9512 17.8834 87.9512C17.5171 87.9512 17.2293 87.8722 16.9938 87.6881C16.7584 87.5303 16.5752 87.2935 16.4444 87.0304C16.3136 86.7674 16.2089 86.478 16.1566 86.1624C16.1043 85.8467 16.0781 85.531 16.0781 85.2417V85.2943ZM18.6421 85.3469C18.6421 85.3469 18.6421 85.1627 18.6421 85.0312C18.6421 84.8997 18.6421 84.7682 18.6421 84.6366C18.6421 84.5051 18.6159 84.3473 18.5898 84.1894C18.5636 84.0316 18.5113 83.9001 18.459 83.7948C18.4066 83.6896 18.3543 83.5844 18.2497 83.5055C18.1712 83.4266 18.0665 83.4003 17.9357 83.4003C17.8049 83.4003 17.7264 83.4266 17.6479 83.5055C17.5694 83.5844 17.4909 83.6633 17.4386 83.7948C17.3863 83.9264 17.334 84.0579 17.3078 84.1894C17.2816 84.3473 17.2555 84.4788 17.2555 84.6366C17.2555 84.7945 17.2555 84.926 17.2555 85.0312C17.2555 85.1627 17.2555 85.268 17.2555 85.3206C17.2555 86.478 17.4909 87.0831 17.9619 87.0831C18.1973 87.0831 18.3805 86.9252 18.4851 86.6359C18.5898 86.3465 18.6683 85.8993 18.6683 85.3206L18.6421 85.3469Z" fill="#231F20"/>
<path d="M20.7086 83.3741C20.7086 83.3741 20.8656 83.2952 20.944 83.2689C21.0225 83.2425 21.0749 83.1899 21.1272 83.1636C21.1795 83.1373 21.258 83.111 21.3103 83.0584C21.3627 83.0321 21.4411 82.9795 21.5196 82.9269C21.572 82.9006 21.6243 82.848 21.6766 82.8217C21.7289 82.7953 21.7813 82.769 21.8074 82.7427C21.8597 82.7427 21.8859 82.6901 21.9382 82.6638C21.9906 82.6375 22.0429 82.5849 22.0952 82.5586H23.0632V87.8724H21.9121V83.7424C21.9121 83.7424 21.7813 83.8476 21.7289 83.8739C21.6766 83.9002 21.5981 83.9528 21.4935 84.0054C21.3365 84.1106 21.2057 84.1632 21.101 84.2159C20.9964 84.2685 20.8917 84.3211 20.7347 84.3737H20.6562V83.3478L20.7086 83.3741Z" fill="#231F20"/>
<path d="M24.4766 82.585H28.0609V83.532L26.2556 87.8987H24.9998L26.9359 83.4794H24.5027V82.585H24.4766Z" fill="#231F20"/>
<path d="M30.3112 86.873L29.4216 88.7408H28.6367L29.1861 86.873H30.3112Z" fill="#231F20"/>
<path d="M32.8242 86.82L34.1847 85.5573C34.3678 85.3995 34.5248 85.2417 34.6818 85.0838C34.8388 84.926 34.9958 84.7419 35.1266 84.5577C35.2051 84.4525 35.2574 84.3473 35.2835 84.2683C35.3097 84.1894 35.3359 84.0842 35.3359 83.979C35.3359 83.7685 35.2835 83.6107 35.1527 83.4792C35.0481 83.3476 34.8911 83.295 34.708 83.295C34.3155 83.295 34.08 83.5581 34.0539 84.0579H32.9027C32.9027 83.5581 33.0597 83.1635 33.3736 82.9004C33.6876 82.6374 34.1324 82.5059 34.708 82.5059C34.9696 82.5059 35.2312 82.5322 35.4405 82.6111C35.6498 82.69 35.8591 82.7689 36.0161 82.9004C36.1731 83.032 36.3039 83.1898 36.3824 83.3476C36.4609 83.5055 36.5132 83.7159 36.5132 83.9527C36.5132 84.2157 36.4347 84.5051 36.2777 84.7682C36.1208 85.0575 35.8591 85.3732 35.4928 85.7415C35.2574 85.9782 35.0219 86.1887 34.7603 86.4254C34.4987 86.6622 34.2632 86.8463 34.0016 87.0568L36.5394 87.0041V87.8985H32.8242V86.82Z" fill="#231F20"/>
<path d="M37.1133 85.2943C37.1133 84.8471 37.1656 84.4525 37.2441 84.1105C37.3226 83.7685 37.4534 83.4792 37.6104 83.2424C37.7674 83.0057 37.9505 82.8215 38.186 82.69C38.4214 82.5585 38.6831 82.5059 38.9709 82.5059C39.3371 82.5059 39.6249 82.5848 39.8866 82.7426C40.1482 82.9004 40.3052 83.1109 40.4621 83.3476C40.593 83.6107 40.6976 83.8738 40.7499 84.1894C40.8023 84.5051 40.8284 84.7945 40.8284 85.1101C40.8284 85.4258 40.8284 85.7678 40.7499 86.0834C40.6976 86.4254 40.6191 86.7148 40.4621 87.0041C40.3313 87.2935 40.1482 87.504 39.8866 87.6881C39.6249 87.8722 39.311 87.9512 38.9185 87.9512C38.5522 87.9512 38.2645 87.8722 38.029 87.6881C37.7935 87.5303 37.6104 87.2935 37.4796 87.0304C37.3487 86.7674 37.2441 86.478 37.1918 86.1624C37.1394 85.8467 37.1133 85.531 37.1133 85.2417V85.2943ZM39.6773 85.3469C39.6773 85.3469 39.6773 85.1627 39.6773 85.0312C39.6773 84.8997 39.6773 84.7682 39.6773 84.6366C39.6773 84.5051 39.6511 84.3473 39.6249 84.1894C39.5988 84.0316 39.5464 83.9001 39.4941 83.7948C39.4418 83.6896 39.3895 83.5844 39.2848 83.5055C39.2063 83.4266 39.1017 83.4003 38.9709 83.4003C38.84 83.4003 38.7616 83.4266 38.6831 83.5055C38.6046 83.5844 38.5261 83.6633 38.4738 83.7948C38.4214 83.9264 38.3691 84.0579 38.3429 84.1894C38.3168 84.3473 38.2906 84.4788 38.2906 84.6366C38.2906 84.7945 38.2906 84.926 38.2906 85.0312C38.2906 85.1627 38.2906 85.268 38.2906 85.3206C38.2906 86.478 38.5261 87.0831 38.997 87.0831C39.2325 87.0831 39.4156 86.9252 39.5203 86.6359C39.6249 86.3465 39.7034 85.8993 39.7034 85.3206L39.6773 85.3469Z" fill="#231F20"/>
<path d="M41.7711 83.3741C41.7711 83.3741 41.9281 83.2952 42.0065 83.2689C42.085 83.2425 42.1374 83.1899 42.1897 83.1636C42.242 83.1373 42.3205 83.111 42.3728 83.0584C42.4252 83.0321 42.5036 82.9795 42.5821 82.9269C42.6345 82.9006 42.6868 82.848 42.7391 82.8217C42.7914 82.7953 42.8438 82.769 42.8699 82.7427C42.9222 82.7427 42.9484 82.6901 43.0007 82.6638C43.0531 82.6375 43.1054 82.5849 43.1577 82.5586H44.1257V87.8724H42.9746V83.7424C42.9746 83.7424 42.8438 83.8476 42.7914 83.8739C42.7391 83.9002 42.6606 83.9528 42.556 84.0054C42.399 84.1106 42.2682 84.1632 42.1635 84.2159C42.0589 84.2685 41.9542 84.3211 41.7972 84.3737H41.7188V83.3478L41.7711 83.3741Z" fill="#231F20"/>
<path d="M46.5844 85.1101C46.4536 85.0575 46.3228 85.0048 46.192 84.9522C46.0611 84.8996 45.9565 84.8207 45.878 84.7155C45.7733 84.6366 45.721 84.505 45.6687 84.3998C45.6164 84.2683 45.5902 84.1368 45.5902 83.9789C45.5902 83.7422 45.6425 83.5054 45.7472 83.3213C45.8518 83.1371 46.0088 82.9793 46.1658 82.8478C46.3489 82.7162 46.5321 82.6373 46.7414 82.5584C46.9507 82.5058 47.1862 82.4795 47.3955 82.4795C47.6571 82.4795 47.8926 82.5058 48.128 82.5847C48.3373 82.6636 48.5466 82.7425 48.7036 82.8741C48.8606 83.0056 48.9914 83.1634 49.0699 83.3213C49.1484 83.5054 49.2007 83.6896 49.2007 83.9C49.2007 84.0578 49.2007 84.1894 49.1222 84.3209C49.0699 84.4524 48.9914 84.5576 48.9129 84.6629C48.8083 84.7681 48.7036 84.847 48.5728 84.9259C48.442 85.0048 48.3112 85.0312 48.1542 85.0575C48.4681 85.1364 48.7559 85.2942 48.9391 85.531C49.1222 85.7677 49.2269 86.0571 49.2269 86.3991C49.2269 86.6358 49.1745 86.8462 49.0961 87.0304C48.9914 87.2145 48.8606 87.3724 48.7036 87.5302C48.5205 87.6617 48.3373 87.767 48.1019 87.8459C47.8664 87.9248 47.6048 87.9511 47.317 87.9511C47.0553 87.9511 46.8199 87.8985 46.5844 87.8459C46.3751 87.767 46.1658 87.6617 46.0088 87.5302C45.8518 87.3987 45.721 87.2408 45.6425 87.0304C45.564 86.8462 45.5117 86.6358 45.5117 86.4254C45.5117 86.1097 45.6164 85.8466 45.7995 85.6099C45.9827 85.3731 46.2443 85.2153 46.6106 85.1101H46.5844ZM47.3955 87.1619C47.6048 87.1619 47.7879 87.083 47.9449 86.9515C48.0757 86.7936 48.1542 86.6095 48.1542 86.3727C48.1542 86.136 48.0757 85.9519 47.9449 85.8203C47.8141 85.6888 47.6309 85.6099 47.3955 85.6099C47.16 85.6099 47.003 85.6888 46.846 85.8203C46.6891 85.9519 46.6367 86.1623 46.6367 86.3727C46.6367 86.5832 46.7152 86.7936 46.846 86.9515C46.9768 87.1093 47.16 87.1619 47.3955 87.1619ZM47.3955 84.6629C47.6048 84.6629 47.7879 84.6103 47.9187 84.4787C48.0495 84.3472 48.128 84.1894 48.128 83.9789C48.128 83.7685 48.0757 83.6369 47.9187 83.5054C47.7879 83.3739 47.6309 83.3213 47.4216 83.3213C47.2123 83.3213 47.0553 83.3739 46.9245 83.5054C46.7937 83.6369 46.7414 83.7948 46.7414 83.9789C46.7414 84.1631 46.7937 84.3472 46.9245 84.4787C47.0553 84.6103 47.2123 84.6629 47.4216 84.6629H47.3955Z" fill="#231F20"/>
</g>
<defs>
<clipPath id="clip0_2406_41958">
<rect width="67.0035" height="94.464" fill="white" transform="translate(0.800781 0.984375)"/>
</clipPath>
</defs>
</svg>
