<svg width="73" height="95" viewBox="0 0 73 95" fill="none" xmlns="http://www.w3.org/2000/svg">
<g clip-path="url(#clip0_2406_41953)">
<path d="M58.6733 31.6579L63.0338 18.8926L59.6715 20.5806L59.619 22.2422C59.619 21.8993 58.8046 20.607 57.6226 20.607C56.6244 20.607 55.7838 21.6883 55.7838 23.2972C55.7838 24.906 56.1778 25.9082 56.9133 25.9082C57.5963 25.9082 57.6751 25.0379 57.4912 24.4576C57.3862 24.1675 57.4912 23.5873 57.9378 23.5873C58.3844 23.5873 58.5157 24.0356 58.5157 24.5631C58.5157 25.1697 57.9378 26.6467 56.2566 26.6467C54.2602 26.6467 54.1026 24.1675 54.1026 23.7719C54.1026 23.3763 54.2865 22.4532 54.2865 22.4532H55.3372L55.5999 20.9762H54.6017L55.1008 17.8376H53.4459L52.9468 20.9762H52.0537L51.9224 22.4532H52.7892C52.7892 23.8774 52.0012 26.6203 49.8997 26.6203C48.8752 26.6203 48.1397 26.0401 48.1397 24.906C48.1397 24.2994 48.5863 23.5609 48.9278 23.5609C49.2693 23.5609 49.3743 23.851 49.3743 24.1675C49.3743 24.8796 48.9803 25.2752 48.9803 25.4862C48.9803 25.8819 49.2693 25.9874 49.7684 25.9874C50.8191 25.9874 51.4758 23.8246 51.4758 22.5587C51.4758 21.7411 51.4233 20.5806 50.031 20.5806C49.4531 20.5806 48.4549 21.4246 48.4549 21.4246C48.4549 21.4246 48.56 20.3432 48.6914 18.9981L47.0627 17.3629L45.4341 18.9981C45.5654 20.3696 45.6705 21.4246 45.6705 21.4246C45.6705 21.4246 44.646 20.5806 44.0681 20.5806C42.6759 20.5806 42.6496 21.7411 42.6496 22.5587C42.6496 23.8246 43.3064 25.9874 44.3571 25.9874C44.8562 25.9874 45.1451 25.8819 45.1451 25.4862C45.1451 25.2752 44.7248 24.8796 44.7248 24.1675C44.7248 23.851 44.8562 23.5609 45.1714 23.5609C45.4866 23.5609 45.9595 24.2994 45.9595 24.906C45.9595 26.0401 45.1977 26.6203 44.1995 26.6203C42.098 26.6203 41.31 23.8774 41.31 22.4532H42.1768L42.0455 20.9762H41.1524L40.6533 17.8376H38.9984L39.4975 20.9762H38.4993L38.7619 22.4532H39.8127C39.8127 22.4532 39.9703 23.4027 39.9703 23.7719C39.9703 24.1411 39.8127 26.6467 37.8163 26.6467C36.1351 26.6467 35.5572 25.1697 35.5572 24.5631C35.5572 24.0093 35.7148 23.5873 36.1351 23.5873C36.5554 23.5873 36.6867 24.1675 36.5817 24.4576C36.3978 25.0642 36.4766 25.9082 37.1596 25.9082C37.9214 25.9082 38.3154 24.8269 38.3154 23.2972C38.3154 21.7674 37.4748 20.607 36.4503 20.607C35.242 20.607 34.4539 21.8993 34.4539 22.2422L34.4014 20.5806L31.0391 18.8926L35.3996 31.6579H58.6208H58.6733ZM48.7964 17.7585C48.9803 15.8859 49.1642 13.8815 49.1642 13.4331C51.791 13.7232 55.6262 14.6991 59.0673 17.6003L59.6715 18.2069V19.5256L62.5873 18.0486C56.9396 11.5078 49.3218 11.0858 47.0627 11.0858C44.8036 11.0858 37.2121 11.5078 31.5382 18.0486L34.4539 19.5256V18.2069L35.0581 17.6003C38.4993 14.6727 42.3344 13.7232 44.9613 13.4331C44.9613 13.8815 45.1451 15.8859 45.3027 17.7585L47.0364 16.0178L48.7702 17.7585H48.7964ZM31.5119 13.9079C32.011 13.4595 32.7465 13.5122 33.1931 14.0133C33.6134 14.4881 33.5608 15.2529 33.088 15.6749C32.6152 16.0969 31.8534 16.0442 31.4331 15.5694C31.0128 15.0947 31.0653 14.3298 31.5382 13.9079M34.0862 11.9561C34.6378 11.5869 35.3733 11.7451 35.7411 12.299C36.0826 12.8265 35.925 13.565 35.3996 13.9342C34.8742 14.2771 34.1387 14.1452 33.771 13.5914C33.4295 13.0639 33.5608 12.3254 34.1125 11.9825M36.8969 10.4264C37.5011 10.1363 38.2103 10.4 38.473 10.9803C38.7357 11.5605 38.473 12.2726 37.8951 12.5364C37.3172 12.8001 36.6079 12.5364 36.3453 11.9561C36.0826 11.3759 36.3453 10.6638 36.8969 10.4M39.8652 9.26595C40.4956 9.05495 41.1524 9.39782 41.3625 10.0572C41.5464 10.6638 41.2049 11.3495 40.5745 11.5342C39.944 11.7188 39.2873 11.3759 39.1034 10.7429C38.9195 10.1363 39.261 9.45057 39.8652 9.26595ZM42.9386 8.52746C43.5953 8.42196 44.1995 8.84396 44.3046 9.50332C44.4096 10.1363 43.9631 10.7429 43.3326 10.8484C42.7022 10.9539 42.098 10.5319 41.9667 9.87256C41.8616 9.23957 42.2819 8.63296 42.9123 8.52746M47.7194 5.41528V4.17568H49.0854V2.93608H47.7194V1.01074H46.4848V2.93608H45.1189V4.17568H46.4848V5.41528C45.4078 5.67902 44.6198 6.65488 44.6198 7.81535C44.6198 9.18682 45.723 10.2946 47.089 10.2946C48.4549 10.2946 49.5582 9.18682 49.5582 7.81535C49.5582 6.65488 48.7702 5.67902 47.6932 5.41528M62.7186 15.5694C62.2983 16.0706 61.5365 16.0969 61.0637 15.6749C60.5909 15.2529 60.5384 14.4881 60.9586 14.0133C61.4052 13.5122 62.1407 13.4595 62.6398 13.9079C63.1126 14.3298 63.1652 15.0683 62.7186 15.5694ZM60.407 13.5914C60.0655 14.1452 59.33 14.3035 58.7784 13.9342C58.2267 13.5914 58.0691 12.8529 58.4369 12.299C58.8046 11.7451 59.5139 11.5869 60.0918 11.9561C60.6172 12.299 60.7748 13.0375 60.407 13.565M57.8327 11.9298C57.57 12.51 56.8608 12.7737 56.2829 12.51C55.705 12.2463 55.4423 11.5342 55.705 10.9539C55.9939 10.3473 56.6769 10.1099 57.2811 10.4C57.859 10.6638 58.0954 11.3759 57.8327 11.9561M55.0746 10.7165C54.8907 11.3495 54.234 11.6924 53.6035 11.5078C52.9731 11.3232 52.6316 10.6638 52.8155 10.0308C52.9994 9.39782 53.6561 9.05495 54.3128 9.23957C54.9169 9.42419 55.2584 10.0836 55.0746 10.7165ZM52.185 9.87256C52.08 10.5319 51.4758 10.9539 50.8454 10.8484C50.2149 10.7429 49.7684 10.1363 49.8734 9.50332C49.9785 8.84396 50.5827 8.42196 51.2394 8.52746C51.8435 8.63296 52.2901 9.26595 52.185 9.87256Z" fill="black"/>
<path d="M45.1748 94.3502H40.1838V94.1919H39.2119V94.0601H38.3713V93.9282H37.8197V93.7963H37.268V93.6644H36.8477V93.5326H36.2961V93.4007H36.0334V93.2688H35.6131V93.1369H35.3242V92.9787H34.9039V92.8468H34.6149V92.715H34.3522V92.5567H34.0633V92.4248H33.7743V92.293H33.643V92.1347H33.354V92.0028H33.0914V91.871H32.96V91.7127H32.6973V91.5808H32.5397V91.449H32.277V91.2907H32.1457V91.1589H32.0144V91.027H31.883V90.8687H31.5941V90.7369H31.4627V90.605H31.3051V90.4467H31.1738V90.3149H31.0424V90.183H30.9111V90.0511H30.7797V89.9193H30.6484V89.7874H30.4908V89.6555H30.3595V89.5236H30.2281V89.3918H30.0705V89.2335H29.9392V88.9698H29.8078V88.8115H29.6765V88.6797H29.5451V88.5478H29.4138V88.2577H29.2562V88.1258H29.1248V87.8357H28.9935V87.7038H28.8359V87.4137H28.7046V87.2818H28.5732V86.9917H28.4156V86.7016H28.2843V86.4378H28.1529V86.1477H27.9953V85.8576H27.864V85.5939H27.7326V85.3037H27.6013V85.0136H27.4699V84.5916H27.3386V84.3279H27.181V83.9059H27.0497V83.4839H26.9183V82.9036H26.7607V82.4817H26.6294V81.9278H26.498V81.2157H26.3667V80.3717H26.2353V79.3959H26.104V74.9386H25.6837V74.8067H25.1321V74.6484H24.7118V74.5166H24.2915V74.3847H23.7398V74.2265H23.3196V74.0946H22.8993V73.9627H22.6103V73.8308H22.3476V73.699H22.19V73.5671H22.0587V73.0132H22.19V72.7495H22.3476V72.5912H22.6103V72.4594H23.0306V72.3275H22.3476V72.1692H21.113V72.0374H20.2724V71.9055H19.7208V71.7473H19.1692V71.6154H18.3286V71.4835H17.7769V71.3516H17.0677V71.2198H16.3585V71.0879H15.9382V70.9296H15.5179V70.7978H15.0976V70.6659H14.6773V70.5077H14.4146V70.3758H13.9943V70.2439H13.863V70.112H13.4427V69.9802H13.18V69.8483H13.0224V69.7164H12.7597V69.5845H12.497V69.4527H12.2081V69.2944H11.9454V69.1626H11.6564V69.0307H11.5251V68.8988H11.2361V68.7669H10.9472V68.6351H10.8158V68.4768H10.5269V68.345H10.3956V68.2131H10.1066V68.0548H9.97526V67.923H9.68631V67.7911H9.55497V67.6592H9.42363V67.5273H9.29229V67.3955H9.16095V67.2636H9.0296V67.1317H8.87199V66.9999H8.74065V66.7097H8.60931V66.024H8.87199V65.8921H9.0296V65.7603H10.0015V65.8921H11.2624V66.024H11.9454V66.1559H12.497V66.2877H13.0487V66.4196H13.6266V66.5779H14.1782V66.7097H14.8874V66.8416H15.728V66.9999H16.411V67.1317H17.2516V67.2636H18.0922V67.3955H18.6438V67.5273H19.4844V67.3955H19.0641V67.2636H18.7751V67.1317H18.4862V66.9999H18.0659V66.8416H17.8032V66.7097H17.3829V66.5779H17.094V66.4196H16.805V66.2877H16.3847V66.1559H16.122V66.024H15.7017V65.8921H15.4128V65.7603H14.9925V65.602H14.7036V65.4701H14.4409V65.3383H14.1519V65.18H13.863V65.0481H13.6003V64.9163H13.3113V64.758H13.0224V64.6261H12.891V64.4943H12.6021V64.336H12.3394V64.2042H12.0505V64.0723H11.9191V63.914H11.6302V63.7822H11.3412V63.6503H11.0785V63.5184H10.9472V63.3866H10.6845V63.2547H10.3956V63.0964H10.2642V62.9646H9.97526V62.8327H9.84392V62.6744H9.55497V62.5426H9.26602V62.4107H9.13468V62.2788H8.84573V62.147H8.71439V62.0151H8.42543V61.8832H8.29409V61.7513H8.16275V61.6195H7.8738V61.4612H7.74246V61.3293H7.58485V61.1975H7.32217V61.0392H7.16456V60.9074H7.03321V60.7755H6.90187V60.6436H6.61292V60.5117H6.48158V60.3799H6.35024V60.2216H6.2189V60.0897H6.08756V59.9579H5.95621V59.7996H5.82487V59.6678H5.69353V59.5359H5.53592V59.3776H5.40458V59.2458H5.27324V59.1139H5.11563V58.9556H4.98429V58.8238H4.69534V58.5337H4.564V58.4018H4.43265V58.2699H4.27504V58.1117H4.1437V57.9798H4.01236V57.8479H3.85475V57.6897H3.72341V57.4259H3.59207V57.2677H3.43446V57.0039H3.30312V56.7138H3.17178V56.4237H3.04043V56.16H2.90909V55.8698H2.77775V55.5797H2.64641V55.1577H2.51507V54.6039H2.64641V54.3137H2.77775V54.1819H3.46073V54.3137H3.74968V54.472H3.88102V54.6039H4.16997V54.7357H4.45892V54.894H4.72161V55.0258H4.85295V55.1577H5.11563V55.2896H5.37831V55.4215H5.66726V55.5533H5.7986V55.6852H6.06129V55.8171H6.32397V55.949H6.61292V56.1072H6.74426V56.2391H7.03321V56.3709H7.32217V56.5292H7.45351V56.6611H7.74246V56.7929H7.8738V56.9512H8.16275V57.0831H8.29409V57.2149H8.55678V57.3732H8.81946V57.505H8.97707V57.6369H9.23975V57.7952H9.5287V57.927H9.81765V58.0589H10.0803V58.2172H10.3693V58.349H10.6582V58.4809H10.9209V58.6128H11.2099V58.7446H11.4988V58.8765H11.7615V59.0348H12.0505V59.1666H12.3394V59.2985H12.4707V59.4568H12.7334V59.5886H12.9961V59.7205H13.2851V59.8787H13.574V60.0106H13.8367V60.1425H14.1257V60.3007H14.4146V60.4326H14.6773V60.5645H14.9662V60.6964H15.2552V60.8282H15.5179V60.9601H15.8068V60.8282H15.6755V60.6964H15.3865V60.5645H15.2552V60.4326H14.9662V60.3007H14.8349V60.1425H14.5459V60.0106H14.4146V59.8787H14.1257V59.7205H13.9943V59.5886H13.863V59.4568H13.6003V59.2985H13.4427V59.1666H13.18V59.0348H13.0224V58.8765H12.891V58.7446H12.6021V58.6128H12.4707V58.4809H12.1818V58.349H12.0505V58.2172H11.9191V58.0589H11.7878V57.927H11.5251V57.7952H11.3675V57.6369H11.2361V57.505H11.1048V57.3732H10.8158V57.2149H10.6845V57.0831H10.5532V56.9512H10.4218V56.7929H10.1329V56.6611H10.0015V56.5292H9.87019V56.3709H9.71258V56.2391H9.58124V56.1072H9.29229V55.949H9.16095V55.8171H9.0296V55.6852H8.87199V55.5533H8.74065V55.4215H8.60931V55.2896H8.4517V55.1577H8.32036V55.0258H8.03141V54.894H7.90007V54.7357H7.76873V54.6039H7.61112V54.472H7.47978V54.3137H7.34843V54.1819H7.19082V54.05H7.05948V53.8917H6.92814V53.7599H6.77053V53.628H6.63919V53.4961H6.50785V53.2324H6.37651V53.1005H6.24517V52.9686H6.11382V52.8368H5.98248V52.7049H5.85114V52.573H5.7198V52.4412H5.56219V52.3093H5.43085V52.0455H5.29951V51.9137H5.1419V51.7818H5.01056V51.6499H4.87922V51.518H4.74787V51.2543H4.61653V51.0961H4.48519V50.9642H4.32758V50.8323H4.19624V50.5422H4.0649V50.4103H3.90729V50.1202H3.77595V49.9883H3.6446V49.6982H3.487V49.5663H3.35565V49.2762H3.22431V48.9861H3.09297V48.8542H2.96163V48.5641H2.83029V48.3004H2.69895V48.1421H2.56761V47.8784H2.43626V47.5883H2.30492V47.2981H2.17358V47.0344H2.04224V46.7443H1.88463V46.4541H1.75329V46.0322H1.62195V45.7684H1.49061V45.3464H1.35926V44.9244H1.22792V44.3706H1.07031V42.9727H1.22792V42.8408H2.06851V42.9727H2.33119V43.1046H2.62014V43.2365H2.75148V43.3683H3.01417V43.5002H3.14551V43.6585H3.27685V43.7903H3.40819V43.9222H3.67087V44.0541H3.80222V44.1859H3.93356V44.3178H4.09117V44.4761H4.22251V44.6079H4.35385V44.7398H4.51146V44.8717H4.6428V45.0036H4.77414V45.1354H4.90548V45.2937H5.03682V45.4255H5.16817V45.5574H5.32578V45.6893H5.45712V45.8212H5.58846V45.953H5.74607V46.1113H5.87741V46.2432H6.00875V46.375H6.14009V46.5333H6.27143V46.6651H6.40278V46.797H6.53412V46.9553H6.66546V47.0871H6.7968V47.219H6.95441V47.3773H7.08575V47.5091H7.21709V47.641H7.3747V47.7729H7.50604V47.9047H7.63739V48.0366H7.79499V48.1949H7.92634V48.3267H8.05768V48.4586H8.21529V48.6169H8.34663V48.7487H8.60931V48.8806H8.74065V49.0388H8.87199V49.1707H9.0296V49.3026H9.16095V49.4345H9.29229V49.5663H9.42363V49.6982H9.55497V49.8301H9.68631V49.962H9.84392V50.0938H9.97526V50.2521H10.2642V50.3839H10.3956V50.5158H10.5269V50.6741H10.6582V50.8059H10.7896V51.0961H10.9209V51.2279H11.0523V51.3598H11.1836V51.4917H11.3149V51.6235H11.4726V51.7554H11.7352V51.8873H11.8666V52.0192H11.9979V52.151H12.1293V52.2829H12.2869V52.4148H12.4182V52.5466H12.5496V52.6785H12.8385V52.5466H12.7072V52.4148H12.5758V52.151H12.4445V52.0192H12.3131V51.8873H12.1555V51.7554H12.0242V51.6235H11.8928V51.4917H11.7615V51.2016H11.6302V51.0697H11.4988V50.9114H11.3412V50.7796H11.2099V50.6477H11.0785V50.3576H10.9472V50.2257H10.8158V50.0675H10.6845V49.9356H10.5532V49.6455H10.4218V49.5136H10.2905V49.3817H10.1329V49.2498H10.0015V48.9861H9.87019V48.8278H9.71258V48.696H9.58124V48.5641H9.4499V48.274H9.31856V48.1421H9.18721V47.9839H9.05587V47.7201H8.89826V47.5883H8.76692V47.4564H8.63558V47.1663H8.47797V47.0344H8.34663V46.7443H8.21529V46.6124H8.05768V46.3223H7.92634V46.1904H7.79499V45.9003H7.63739V45.6365H7.50604V45.5047H7.3747V45.2409H7.21709V44.9508H7.08575V44.8189H6.95441V44.5288H6.7968V44.2387H6.66546V44.1068H6.53412V43.8167H6.40278V43.553H6.27143V43.3947H6.14009V43.131H6.00875V42.8672H5.87741V42.7353H5.74607V42.4452H5.58846V42.1551H5.45712V41.8914H5.32578V41.6012H5.16817V41.3375H5.03682V41.0738H4.90548V40.9155H4.77414V40.6518H4.6428V40.2298H4.51146V39.9397H4.35385V39.5177H4.22251V39.2275H4.09117V38.8056H3.93356V38.5418H3.80222V38.1198H3.67087V37.8297H3.51326V37.4077H3.38192V36.9857H3.25058V36.5637H3.11924V36.1417H2.9879V35.7197H2.85656V35.2978H2.72521V34.7439H2.59387V34.0318H2.46253V33.1878H2.33119V32.3438H2.19985V30.3921H2.33119V29.4162H2.46253V29.1261H2.59387V28.8624H2.72521V28.7041H2.9879V28.5723H3.27685V28.7041H3.53953V28.8624H3.69714V28.9943H3.82848V29.1261H3.95982V29.2844H4.11743V29.4162H4.24878V29.5481H4.38012V29.7064H4.53773V29.8382H4.66907V29.9701H4.80041V30.2602H4.93175V30.3921H5.06309V30.5504H5.19443V30.8141H5.35204V30.9723H5.48339V31.2361H5.61473V31.5262H5.77234V31.79H5.90368V32.0537H6.03502V32.3438H6.16636V32.6339H6.2977V32.8977H6.42904V33.1878H6.56039V33.4779H6.69173V33.7417H6.82307V34.0318H6.98068V34.3219H7.11202V34.5856H7.24336V34.8758H7.40097V35.1659H7.53231V35.4296H7.66365V35.7197H7.82126V35.9835H7.95261V36.1154H8.08395V36.4055H8.24156V36.6692H8.3729V36.9593H8.50424V37.2231H8.66185V37.355H8.79319V37.6451H8.92453V37.9088H9.08214V38.0671H9.21348V38.3308H9.34482V38.6209H9.47617V38.7528H9.60751V39.0429H9.73885V39.1748H9.89646V39.4649H10.0278V39.755H10.1591V39.8869H10.3168V40.177H10.4481V40.3089H10.5794V40.599H10.7108V40.8628H10.8421V41.021H10.9735V41.2848H11.1048V41.5485H11.2361V41.6804H11.3675V41.9705H11.5251V42.1024H11.6564V42.3925H11.7878V42.5244H11.9191V42.8145H12.0505V42.9463H12.1818V43.2365H12.3394V43.5266H12.4707V43.6585H12.6021V43.9486H12.7334V44.0804H12.8648V44.3706H12.9961V44.5024H13.1537V44.6343H13.2851V44.9244H13.4164V45.0563H13.574V45.2146H13.7054V45.4783H13.8367V45.6102H13.968V45.8739H14.0994V46.0322H14.2307V46.2959H14.3883V46.4541H14.5197V46.7179H14.651V46.8761H14.8086V47.008H14.94V47.2981H15.0713V47.43H15.2289V47.7201H15.3603V47.852H15.4916V47.9839H15.6492V48.274H15.7806V48.4059H15.9119V48.5641H16.0695V48.8278H16.2008V48.9861H16.3322V49.118H16.4898V49.2498H16.6211V49.5136H16.7525V49.6455H16.9101V49.7773H17.0414V49.9092H17.1728V50.1993H17.3041V50.3312H17.4355V50.4631H17.5668V50.6213H17.7244V50.7532H17.8558V50.8851H17.9871V51.1752H18.1447V51.307H18.276V51.4389H18.4074V51.5708H18.565V51.7027H18.6963V51.8345H18.8277V52.0983H18.959V52.2302H19.0904V52.362H19.2217V52.4939H19.3793V52.6258H19.5107V52.7576H19.642V53.0214H19.7996V53.1533H19.9309V53.2851H20.0623V53.417H20.1936V53.5489H20.325V53.6807H20.4563V53.839H20.6139V53.9709H20.7453V54.1027H20.8766V54.261H21.0342V54.3929H21.1656V54.5247H21.2969V54.683H21.4545V54.8149H21.5858V54.9467H21.7172V55.0786H21.8485V55.2105H21.9799V55.3423H22.1112V55.4742H22.2688V55.6061H22.4002V55.738H22.5315V55.8962H22.6891V56.0281H22.8205V56.16H22.9518V56.3182H23.0831V56.4501H23.2145V56.5819H23.3458V56.7402H23.4772V56.8721H23.7398V57.0039H23.8975V57.1622H24.0288V57.2941H24.1601V57.4259H24.3177V57.5842H24.4491V57.716H24.738V57.8479H24.8694V58.0062H25.0007V58.138H25.1583V58.2699H25.421V58.4018H25.5786V58.5337H25.71V58.6655H25.8413V58.8238H26.1303V58.9556H26.2616V59.0875H26.3929V59.2458H26.6556V59.3776H26.8132V59.5095H26.9446V59.6678H27.2335V59.7996H27.3649V59.9315H27.6276V60.0897H27.7589V60.2216H28.0478V60.3535H28.1792V60.4854H28.4681V60.6172H28.5995V60.7491H28.8884V60.9074H29.1511V61.0392H29.3087V61.1711H29.5714V61.3293H29.8604V61.4612H30.1493V61.3293H30.2807V61.0392H30.412V60.9074H30.5696V60.6172H30.7009V60.3271H30.8323V60.0634H30.9636V59.7733H31.095V59.6414H31.2263V59.3513H31.3839V59.0611H31.5153V58.9293H31.6466V58.6392H31.8042V58.5073H31.9356V58.2172H32.0669V58.0853H32.1982V57.7952H32.3296V57.5314H32.4609V57.3732H32.6185V57.1094H32.7499V56.9512H32.8812V56.8193H33.0126V56.5292H33.1439V56.3973H33.2752V56.1072H33.4328V55.9753H33.5642V55.8435H33.6955V55.5533H33.8269V55.4215H33.9582V55.2896H34.0896V55.0258H34.2209V54.894H34.3522V54.7621H34.4836V54.472H34.6412V54.3401H34.7725V54.2082H34.9039V54.05H35.0352V53.7862H35.1666V53.628H35.2979V53.4961H35.4292V53.3643H35.5606V53.0741H35.6919V52.9423H35.8233V52.8104H35.9546V52.6785H36.0859V52.5466H36.2436V52.4148H36.3749V52.151H36.5062V52.0192H36.6638V51.8873H36.7952V51.7554H36.9265V51.6235H37.0841V51.4917H37.2155V51.3598H37.3468V51.2279H37.4782V51.0961H37.6095V50.9642H37.7408V50.8059H37.8985V50.6741H38.0298V50.5422H38.1611V50.3839H38.3187V50.2521H38.4501V50.1202H38.5814V49.962H38.7128V49.8301H38.8441V49.6982H38.9755V49.5663H39.1068V49.4345H39.2381V49.3026H39.3695V49.1707H39.5271V49.0388H39.6584V48.907H39.7898V48.7487H39.9211V48.6169H40.0525V48.485H40.1838V48.3267H40.3151V48.1949H40.4465V48.063H40.7354V47.9047H40.8668V47.7729H40.9981V47.641H41.1557V47.5091H41.2871V47.3773H41.4184V47.2454H41.7074V47.0871H41.8387V46.9553H41.97V46.8234H42.1014V46.6651H42.2327V46.5333H42.5217V46.4014H42.653V46.2432H42.8106V46.1113H43.0733V45.9794H43.2047V45.8212H43.336V45.6893H43.4673V45.5574H43.7563V45.4255H43.8876V45.2937H44.1766V45.1618H44.3079V45.0036H44.4393V44.8717H44.7019V44.7398H44.8596V44.6079H45.1222V44.4761H45.2536V44.3442H45.5163V44.1859H45.6476V44.0541H45.9103V43.9222H46.0679V43.7903H46.3306V43.6585H46.4619V43.5266H46.7246V43.3683H47.0136V43.2365H47.1449V43.1046H47.4338V42.9727H47.7228V42.8408H47.8541V42.709H48.1431V42.5771H48.4058V42.4452H48.6947V42.3134H48.9837V42.1551H49.2464V42.0232H49.5353V41.8914H49.8243V41.7595H50.0869V41.6276H50.3759V41.4957H50.6648V41.3639H50.9275V41.232H51.2165V41.1001H51.6368V40.9419H51.9257V40.81H52.1884V40.6781H52.6087V40.5199H52.8977V40.388H53.3179V40.2562H53.7382V40.0979H54.1585V39.966H54.5788V39.8342H54.9991V39.7023H55.5508V39.5704H55.971V39.4385H56.5227V39.2803H57.2319V39.1484H57.9149V39.0166H58.7555V38.8583H59.7274V38.7264H64.2981V38.8583H65.1387V39.0166H65.8217V39.1484H66.242V39.2803H66.6622V39.4385H67.0825V39.5704H67.5028V39.7023H67.7918V39.8342H68.0807V39.966H68.3434V40.0979H68.501V40.2562H68.7637V40.388H69.0264V40.5199H69.1577V40.6781H69.2891V40.81H69.5518V40.9419H69.6831V41.1001H69.8144V41.232H69.9458V41.3639H70.1034V41.4957H70.2347V41.6276H70.3661V41.9177H70.4974V42.0496H70.6288V42.1815H70.7601V42.4716H70.9177V42.7617H71.049V43.0255H71.1804V43.3156H71.3117V43.6057H71.4431V43.8695H71.5744V44.2914H71.732V44.8453H71.8634V45.6893H71.9947V48.6169H71.8634V49.5927H71.732V50.1466H71.5744V50.7268H71.4431V51.1488H71.3117V51.5708H71.1804V51.9928H71.049V52.2565H70.9177V52.5203H70.7601V52.9423H70.6288V53.206H70.4974V53.4698H70.3661V53.7599H70.2347V53.8917H70.1034V54.1819H69.9458V54.472H69.8144V54.7357H69.6831V54.894H69.5518V55.1577H69.4204V55.4478H69.2891V55.738H69.1577V55.8698H69.0264V56.16H68.895V56.2918H68.7637V56.5819H68.6061V56.7138H68.4747V57.0039H68.3171V57.1358H68.1858V57.4259H68.0545V57.5578H67.8969V57.6897H67.7655V57.9798H67.6342V58.1117H67.5028V58.2699H67.3715V58.4018H67.2401V58.6919H67.1088V58.8238H66.9775V58.9556H66.8461V59.1139H66.6885V59.2458H66.5572V59.3776H66.4258V59.6678H66.2682V59.7996H66.1369V59.9579H66.0055V60.0897H65.8479V60.2216H65.7166V60.3799H65.5852V60.5117H65.4276V60.6436H65.2963V60.7755H65.1649V60.9074H65.0073V61.0392H64.876V61.1975H64.7447V61.3293H64.587V61.4612H64.3244V61.6195H64.193V61.7513H64.0617V61.8832H63.9303V62.0151H63.7727V62.147H63.6414V62.2788H63.51V62.4107H63.2211V62.5426H63.0897V62.6744H62.9321V62.8327H62.8008V62.9646H62.5118V63.0964H62.3805V63.2547H62.2492V63.3866H62.0916V63.5184H61.8289V63.6503H61.6975V63.7822H61.5662V63.914H61.2772V64.0723H61.1459V64.2042H60.8569V64.336H60.7256V64.4943H60.5943V64.6261H60.3053V64.758H60.174V64.9163H59.885V65.0481H59.7537V65.18H59.4647V65.3383H59.3334V65.4701H59.0444V65.602H58.7818V65.7603H58.6504V65.8921H58.3615V66.024H58.2301V66.1559H57.9412V66.2877H57.6785V66.4196H57.5471V66.5779H57.2845V66.7097H56.9955V66.8416H56.7066V66.9999H56.4439V67.1317H56.3125V67.2636H56.0498V67.3955H55.7609V67.5273H55.4719V67.6592H55.183V67.7911H54.9203V67.923H54.6576V68.0548H54.3687V68.2131H54.106V68.345H53.817V68.4768H53.5281V68.6351H53.2654V68.7669H52.9765V68.8988H52.6875V69.0307H52.4248V69.1626H52.0045V69.2944H51.7156V69.4527H51.4529V69.5845H51.1902V69.7164H50.7699V69.8483H50.481V69.9802H50.0607V70.112H49.7717V70.2439H49.3514V70.3758H49.0888V70.5077H48.6685V70.6659H48.3795V70.7978H47.9592V70.9296H47.5389V71.0879H47.25V71.2198H46.8297V71.3516H46.4094V71.4835H45.9891V71.6154H45.5688V71.7473H45.1485V71.9055H44.7282V72.0374H44.3079V72.1692H43.7563V72.3275H43.336V72.4594H42.9157V72.5912H42.3641V72.7495H41.9438V72.8814H41.3921V73.0132H40.8405V73.1715H40.2889V73.3033H39.7372V73.4352H39.1856V73.5935H38.634V73.7253H37.9247V73.8572H37.3731V73.9891H36.8215V74.4111H36.6901V75.3869H36.5588V79.5805H36.6901V80.4245H36.8215V80.9783H36.9791V81.5586H37.1104V81.9805H37.2417V82.2443H37.3731V82.6663H37.5044V82.93H37.6358V83.2201H37.7934V83.5103H37.9247V83.6421H38.0561V83.9323H38.2137V84.0641H38.345V84.3543H38.4764V84.4861H38.6077V84.7762H38.739V84.9081H38.8704V85.04H39.0017V85.1982H39.1331V85.3301H39.2644V85.462H39.422V85.6202H39.5534V85.7521H39.6847V85.884H39.816V86.0422H39.9474V86.1741H40.0787V86.306H40.3414V86.4378H40.4727V86.5697H40.7617V86.7016H40.893V86.8334H41.182V86.9653H41.3133V87.0972H41.6023V87.2554H41.8912V87.3873H42.1539V87.5192H42.4429V87.6774H42.7318V87.8093H43.1521V87.9412H43.5724V88.073H43.9927V88.2049H44.5443V88.3368H45.2536V88.4687H46.0942V88.6005H49.6929V88.4687H50.6648V88.3368H51.3478V88.2049H51.9257V88.073H52.346V87.9412H52.7663V87.8093H53.1866V87.6774H53.6069V87.5192H54.0272V87.3873H54.2899V87.2554H54.5788V87.0972H54.9991V86.9653H55.2618V86.8334H55.5245V86.7016H55.8134V86.5697H56.1024V86.4378H56.2337V86.306H56.4964V86.1741H56.7854V86.0422H57.048V85.884H57.2057V85.7521H57.4683V85.6202H57.731V85.462H57.8624V85.3301H58.1513V85.1982H58.2827V85.04H58.5716V84.9081H58.7029V84.7762H58.9656V84.618H59.097V84.4861H59.3859V84.3543H59.5173V84.196H59.6486V84.0641H59.9113V83.9323H60.0689V83.8004H60.2002V83.6685H60.4892V83.5366H60.6205V83.3784H60.7519V83.2465H61.0408V83.1146H61.1722V82.9564H61.3298V82.8245H61.5925V82.6927H61.7238V82.5344H61.8551V82.4025H61.9865V82.2443H62.2754V82.1124H62.4068V81.9805H62.5644V81.8223H62.6957V81.6904H62.9847V81.5586H63.116V81.4003H63.2474V81.2684H63.3787V81.1366H63.51V80.9783H63.799V80.8464H63.9303V80.7146H64.0617V80.5563H64.193V80.4245H64.3244V80.2926H64.6133V80.1343H64.7447V80.0025H64.876V79.8706H65.0336V79.7387H65.1649V79.6068H65.4539V79.475H65.5852V79.3167H66.0055V79.475H66.1369V79.6068H66.2945V79.7387H66.4258V79.8706H66.5572V80.0025H66.7148V80.1343H66.8461V80.2926H66.9775V80.4245H67.1088V80.5563H67.2401V80.9783H67.1088V81.1366H66.9775V81.4003H66.8461V81.5586H66.7148V81.6904H66.5572V81.8223H66.4258V81.9805H66.2945V82.1124H66.1369V82.2443H66.0055V82.4025H65.8742V82.5344H65.7166V82.8245H65.5852V82.9564H65.4539V83.1146H65.2963V83.2465H65.1649V83.3784H65.0336V83.5366H64.7709V83.6685H64.6396V83.8004H64.482V83.9323H64.3506V84.0641H64.2193V84.196H64.0879V84.3543H63.9566V84.4861H63.8253V84.618H63.6677V84.7762H63.5363V84.9081H63.405V85.04H63.2736V85.1982H63.0109V85.3301H62.8533V85.462H62.722V85.6202H62.5907V85.7521H62.433V85.884H62.1704V86.0422H62.0128V86.1741H61.8814V86.306H61.7501V86.4378H61.6187V86.5697H61.356V86.7016H61.1984V86.8334H61.0671V86.9653H60.7781V87.0972H60.6468V87.2554H60.5155V87.3873H60.3578V87.5192H60.0952V87.6774H59.9376V87.8093H59.6749V87.9412H59.5435V88.073H59.4122V88.2049H59.1232V88.3368H58.9919V88.4687H58.7292V88.6005H58.5979V88.7324H58.3089V88.8907H58.1776V89.0225H57.8886V89.1544H57.7573V89.3127H57.4946V89.4445H57.3633V89.5764H57.0743V89.7083H56.8116V89.8401H56.654V89.972H56.3913V90.1039H56.1024V90.2358H55.971V90.3676H55.6821V90.5259H55.3931V90.6577H55.1042V90.7896H54.8415V90.9479H54.5788V91.0797H54.2899V91.2116H54.0272V91.3699H53.7382V91.5017H53.4493V91.6336H53.1866V91.7918H52.8977V91.9237H52.6087V92.0556H52.346V92.2138H51.9257V92.3457H51.6368V92.4776H51.2165V92.6358H50.9275V92.7677H50.5072V92.8996H50.0869V93.0578H49.6667V93.1897H49.2464V93.3216H48.8261V93.4534H48.2744V93.5853H47.8541V93.7172H47.1449V93.8491H46.5933V93.9809H45.7527V94.1128H44.7808V94.271L45.1748 94.3502ZM31.1738 73.9891V73.8572H32.4347V73.7253H33.1439V73.5935H33.9845V73.4352H34.6675V73.3033H35.2191V73.1715H35.7707V73.0132H36.4537V72.8814H36.874V72.7495H37.2943V72.5912H37.7146V72.4594H38.1349V72.3275H38.5552V72.1692H38.9755V72.0374H39.3958V71.9055H39.816V71.7473H40.0787V71.6154H40.499V71.4835H40.7617V71.3516H41.0507V71.2198H41.4709V71.0879H41.7336V70.9296H42.0226V70.7978H42.4429V70.6659H42.7318V70.5077H43.1521V70.3758H43.4148V70.2439H43.7038V70.112H44.124V69.9802H44.413V69.8483H44.6757V69.7164H44.9384V69.5845H45.0697V69.4527H45.49V69.2944H45.7527V69.1626H46.0416V69.0307H46.3043V68.8988H46.5933V68.7669H46.7246V68.6351H46.9873V68.4768H47.2762V68.345H47.5389V68.2131H47.8279V68.0548H47.9592V67.923H48.2482V67.7911H48.3795V67.6592H48.6685V67.5273H48.9574V67.3955H49.0888V67.2636H49.3777V67.1317H49.509V66.9999H49.798V66.8416H50.0869V66.7097H50.2183V66.5779H50.481V66.4196H50.6386V66.2877H50.7699V66.1559H51.0589V66.024H51.1902V65.8921H51.4792V65.7603H51.6105V65.602H51.8732V65.4701H52.0045V65.3383H52.1359V65.18H52.4248V65.0481H52.7138V65.18H52.8451V65.4701H52.7138V65.602H52.5562V65.7603H52.4248V65.8921H52.2935V66.024H52.0045V66.1559H51.8732V66.2877H51.7418V66.4196H51.6105V66.5779H51.4792V66.7097H51.1902V66.8416H51.0589V66.9999H50.9013V67.1317H50.7699V67.2636H50.6386V67.3955H50.481V67.5273H50.2183V67.6592H50.0869V67.7911H49.9556V67.923H49.6667V68.0548H49.5353V68.2131H49.404V68.345H49.2464V68.4768H48.9837V68.6351H48.8261V68.7669H48.5634V68.8988H48.4058V69.0307H48.1431V69.1626H48.0118V69.2944H47.7491V69.4527H47.5915V69.5845H47.4601V69.7164H47.5915V69.5845H47.8804V69.4527H48.1694V69.2944H48.432V69.1626H48.721V69.0307H48.8523V68.8988H49.1413V68.7669H49.4302V68.6351H49.6929V68.4768H49.8243V68.345H50.1132V68.2131H50.4022V68.0548H50.5335V67.923H50.8225V67.7911H50.9538V67.6592H51.2428V67.5273H51.3741V67.3955H51.663V67.2636H51.9257V67.1317H52.0571V66.9999H52.1884V66.8416H52.4774V66.7097H52.6087V66.5779H52.8977V66.4196H53.029V66.2877H53.3179V66.1559H53.4493V66.024H53.6069V65.8921H53.8696V65.7603H54.0272V65.602H54.1585V65.4701H54.4475V65.3383H54.5788V65.18H54.7102V65.0481H54.9991V64.9163H55.1305V64.758H55.2618V64.6261H55.5245V64.4943H55.6821V64.336H55.8134V64.2042H55.9448V64.0723H56.2337V63.914H56.3913V63.7822H56.5227V63.6503H56.654V63.5184H56.7854V63.3866H57.048V63.2547H57.2057V63.0964H57.337V62.9646H57.4683V62.8327H57.6259V62.6744H57.7573V62.5426H58.0462V62.4107H58.1776V62.2788H58.3089V62.147H58.4403V62.0151H58.5716V61.8832H58.7029V61.7513H58.8343V61.6195H58.9656V61.4612H59.097V61.3293H59.3597V61.1975H59.491V61.0392H59.6223V60.9074H59.7537V60.7755H59.885V60.6436H60.0164V60.5117H60.1477V60.3799H60.279V60.2216H60.4367V60.0897H60.568V59.9579H60.6993V59.6678H60.8569V59.5359H60.9883V59.3776H61.1196V59.2458H61.251V59.1139H61.3823V58.9556H61.5137V58.8238H61.6713V58.5337H61.8026V58.4018H61.9339V58.2699H62.0653V58.1117H62.1966V57.9798H62.328V57.6897H62.4856V57.5578H62.328V57.6897H62.1966V57.8479H62.0653V57.9798H61.9339V58.1117H61.8026V58.2699H61.6713V58.4018H61.4086V58.5337H61.2772V58.6655H61.1459V58.7974H61.0146V58.9293H60.8832V59.0875H60.5943V59.2194H60.4629V59.3513H60.3053V59.5095H60.174V59.6414H59.885V59.7733H59.7537V59.9315H59.4647V60.0634H59.3334V60.1952H59.202V60.3535H58.9131V60.4854H58.7818V60.6172H58.4928V60.7491H58.3615V60.881H58.0988V61.0129H57.9674V61.1711H57.6785V61.303H57.3895V61.4348H57.2582V61.5931H56.9692V61.725H56.8379V61.8568H56.5752V61.9887H56.3125V62.1206H56.0236V62.2524H55.866V62.3843H55.6033V62.5162H55.3406V62.6481H55.0517V62.8063H54.789V62.9382H54.5V63.0701H54.2111V63.2283H53.9484V63.3602H53.6594V63.4921H53.3705V63.6239H53.1078V63.7558H52.6875V63.8877H52.3986V64.0459H52.1096V64.1778H51.6893V64.3097H51.4266V64.4679H51.0063V64.5998H50.586V64.7316H50.2971V64.8899H49.8768V65.0218H49.4565V65.1536H48.9049V65.3119H48.4846V65.4438H47.9329V65.5756H47.3813V65.7339H46.6983V65.8658H46.0154V65.9976H45.201V66.1295H44.0978V66.2614H39.816V66.1295H38.7128V65.9976H37.8722V65.8658H37.1629V65.7339H36.6113V65.5756H36.191V65.4438H35.6394V65.3119H35.2191V65.1536H34.7988V65.0218H34.3785V64.8899H33.9582V64.7316H33.5379V64.5998H33.1176V64.4679H32.6973V64.3097H32.277V64.1778H31.9881V64.0459H31.5678V63.8877H31.2788V63.7558H31.0162V63.6239H30.7535V63.4921H30.4645V63.3602H30.2018V63.2283H29.9129V63.0701H29.6239V62.9382H29.3613V62.8063H29.0723V62.6481H28.7834V62.5162H28.652V62.3843H28.3631V62.2524H28.1004V62.1206H27.9428V61.9887H27.6801V61.8568H27.5487V61.725H27.2861V61.5931H26.9971V61.4348H26.8658V61.303H26.5768V61.1711H26.4455V61.0129H26.1565V60.881H26.0252V60.7491H25.8676V60.6172H25.6049V60.4854H25.4473V60.3535H25.3159V60.1952H25.027V60.0634H24.8957V59.9315H24.7643V59.7733H24.633V59.6414H24.5016V59.5095H24.2127V59.3513H24.0813V59.2194H23.95V59.0875H23.7924V58.9293H23.5297V58.7974H23.3984V58.6655H23.267V58.5337H23.1357V58.4018H23.0043V58.2699H22.873V58.1117H22.7417V57.9798H22.584V57.8479H22.4527V57.6897H22.3214V57.5578H22.1637V57.4259H22.0324V57.2677H21.9011V57.1358H21.7697V57.0039H21.6384V56.8457H21.507V56.7138H21.3494V56.5819H21.2181V56.4237H21.0868V56.2918H20.9291V56.16H20.7978V56.0017H20.6665V55.8698H20.5088V55.738H20.3775V55.6061H20.2462V55.4742H20.1148V55.3423H19.9835V55.2105H19.8521V55.0786H19.6945V54.9467H19.5632V54.7885H19.4318V54.6566H19.2742V54.5247H19.1429V54.3665H19.0116V54.2346H18.8802V54.1027H18.7489V53.9445H18.6175V53.8126H18.4599V53.5225H18.3286V53.3906H18.1972V53.2588H18.0396V53.1269H17.9083V52.995H17.7769V52.8631H17.6193V52.7313H17.488V52.4675H17.3567V52.3357H17.2253V52.2038H17.094V52.0719H16.9626V51.7818H16.805V51.6499H16.6737V51.518H16.5423V51.3862H16.3847V51.0961H16.2534V50.9642H16.122V50.8323H15.9644V50.6741H15.8331V50.4103H15.7017V50.2521H15.5441V50.1202H15.4128V49.8301H15.2815V49.6982H15.1238V49.4345H14.9925V49.3026H14.8612V49.1707H14.7036V48.8806H14.5722V48.7487H14.4409V48.5905H14.2833V48.3267H14.1519V48.1685H14.0206V48.0366H13.8892V47.7465H13.7579V47.6146H13.6266V47.4827H13.4689V47.1926H13.3376V47.0608H13.2063V46.9025H13.0487V46.6388H12.9173V46.4805H12.786V46.2168H12.6546V46.0585H12.5233V45.9267H12.3919V45.6365H12.2343V45.5047H12.103V45.2146H11.9717V45.0827H11.8403V44.7926H11.709V44.6607H11.5776V44.3706H11.42V44.1068H11.2887V43.9749H11.1573V43.7112H11.026V43.553H10.8947V43.2892H10.7633V43.0255H10.632V42.8936H10.5006V42.6035H10.3693V42.3134H10.2117V42.1815H10.0803V41.8914H9.949V41.7595H9.79138V41.4957H9.66004V41.232H9.5287V41.0738H9.39736V40.81H9.26602V40.5199H9.13468V40.2298H8.97707V40.0979H8.84573V39.8342H8.71439V39.5704H8.55678V39.4122H8.42543V39.1484H8.29409V38.8583H8.13648V38.7264H8.00514V38.4363H7.8738V38.3044H7.71619V38.0143H7.58485V37.7242H7.45351V37.4605H7.2959V37.1967H7.16456V37.0648H7.03321V36.7747H6.87561V36.4846H6.74426V36.2209H6.61292V35.9571H6.48158V35.667H6.35024V35.4033H6.2189V35.1131H6.08756V34.823H5.95621V34.5593H5.82487V34.2691H5.66726V33.979H5.53592V33.7153H5.40458V33.4252H5.24697V33.135H5.11563V32.8713H4.98429V32.5812H4.85295V32.4493H4.72161V32.7131H4.85295V33.135H4.98429V33.557H5.11563V33.8472H5.24697V34.1373H5.40458V34.5593H5.53592V34.823H5.66726V35.245H5.82487V35.5351H5.95621V35.9571H6.08756V36.2209H6.2189V36.6429H6.35024V36.9066H6.48158V37.3286H6.61292V37.6187H6.74426V37.9088H6.87561V38.0407H7.03321V38.3308H7.16456V38.5946H7.2959V38.8847H7.45351V39.1748H7.58485V39.4385H7.71619V39.7287H7.8738V39.8605H8.00514V40.1243H8.13648V40.4144H8.29409V40.6781H8.42543V40.9683H8.55678V41.2584H8.71439V41.3903H8.84573V41.6804H8.97707V41.9441H9.13468V42.2342H9.26602V42.5244H9.39736V42.6562H9.5287V42.9463H9.66004V43.2101H9.79138V43.5002H9.949V43.6321H10.0803V43.9222H10.2117V44.2123H10.3693V44.3442H10.5006V44.6343H10.632V44.8981H10.7633V45.0299H10.8947V45.2937H11.026V45.4519H11.1573V45.7157H11.2887V45.8475H11.42V46.1113H11.5776V46.2695H11.709V46.5333H11.8403V46.6915H11.9717V46.9553H12.103V47.1135H12.2343V47.2454H12.3919V47.5355H12.5233V47.6674H12.6546V47.9575H12.786V48.0894H12.9173V48.2212H13.0487V48.5114H13.2063V48.6432H13.3376V48.8015H13.4689V48.9333H13.6266V49.2235H13.7579V49.3553H13.8892V49.6455H14.0206V49.7773H14.1519V49.9092H14.2833V50.0411H14.4409V50.3048H14.5722V50.4631H14.7036V50.5949H14.8612V50.7268H14.9925V50.8851H15.1238V51.1488H15.2815V51.307H15.4128V51.4389H15.5441V51.5708H15.7017V51.7027H15.8331V51.9664H15.9644V52.0983H16.122V52.2302H16.2534V52.362H16.3847V52.6258H16.5423V52.7576H16.6737V52.8895H16.805V53.0214H16.9626V53.1533H17.094V53.2851H17.2253V53.417H17.3567V53.5489H17.488V53.6807H17.6193V53.8126H17.7769V54.1027H17.9083V54.2346H18.0396V54.3665H18.1972V54.5247H18.4599V54.6566H18.6175V54.7885H18.7489V54.9467H18.8802V55.0786H19.0116V55.2105H19.1429V55.3423H19.2742V55.4742H19.4318V55.6061H19.5632V55.738H19.6945V55.8698H19.8521V56.0017H19.9835V56.16H20.1148V56.2918H20.2462V56.4237H20.3775V56.5819H20.5088V56.7138H20.6665V56.8457H20.7978V57.1358H20.9291V57.4259H21.0868V57.6897H20.6665V57.5578H20.3775V57.4259H20.2462V57.2677H20.1148V57.1358H19.9835V57.0039H19.6945V56.8457H19.5632V56.7138H19.4318V56.5819H19.2742V56.4237H19.0116V56.2918H18.8802V56.16H18.7489V56.0017H18.6175V55.738H18.4599V55.6061H18.3286V55.4742H18.1972V55.3423H18.0396V55.2105H17.9083V55.0786H17.7769V54.9467H17.6193V54.7885H17.488V54.6566H17.3567V54.5247H17.2253V54.3665H17.094V54.2346H16.9626V54.1027H16.805V53.9445H16.6737V53.8126H16.5423V53.6807H16.3847V53.5489H16.2534V53.417H16.122V53.2851H15.9644V53.1533H15.8331V52.8895H15.7017V52.7576H15.5441V52.6258H15.4128V52.4939H15.2815V52.362H15.1238V52.2302H14.9925V52.0983H14.8612V51.9664H14.7036V51.8345H14.5722V51.7027H14.4409V51.5708H14.2833V51.307H14.1519V51.1488H14.0206V51.0169H13.8892V50.8851H13.7579V50.5949H13.6266V50.4631H13.4689V50.3048H13.3376V50.1729H13.2063V50.0411H13.0487V49.9092H12.9173V49.6455H12.786V49.5136H12.6546V49.3817H12.5233V49.2498H12.3919V48.9597H12.2343V48.8278H12.103V48.6696H11.9717V48.4059H11.8403V48.2476H11.709V48.1157H11.5776V47.8256H11.42V47.6937H11.2887V47.4036H11.1573V47.2718H11.026V47.1399H10.8947V46.8498H10.7633V46.7179H10.632V46.4278H10.5006V46.2959H10.3693V46.1377H10.2117V45.8739H10.0803V45.742H9.949V45.4783H9.79138V45.1882H9.66004V45.0563H9.5287V44.7662H9.39736V44.6343H9.26602V44.3442H9.13468V44.0541H8.97707V43.9222H8.84573V43.6321H8.71439V43.3683H8.55678V43.1046H8.42543V42.9727H8.29409V42.6826H8.13648V42.5507H8.00514V42.2606H7.8738V41.9705H7.71619V41.8386H7.58485V41.5749H7.45351V41.3111H7.2959V41.021H7.16456V40.8891H7.03321V40.599H6.87561V40.3089H6.74426V40.0452H6.61292V39.755H6.48158V39.4649H6.35024V39.333H6.2189V39.0429H6.08756V38.7792H5.95621V38.4891H5.82487V38.1989H5.66726V37.9352H5.53592V37.6451H5.40458V37.355H5.24697V37.0912H5.11563V36.8011H4.98429V36.511H4.85295V36.2472H4.72161V35.8252H4.59026V35.5351H4.43265V35.1131H4.30131V34.823H4.16997V34.401H4.01236V33.979H3.88102V33.7153H3.74968V33.2933H3.59207V33.8472H3.74968V34.401H3.88102V34.823H4.01236V35.4033H4.16997V35.8252H4.30131V36.2472H4.43265V36.6692H4.59026V37.0912H4.72161V37.5132H4.85295V37.9352H4.98429V38.3572H5.11563V38.7792H5.24697V39.2012H5.40458V39.4649H5.53592V39.755H5.66726V40.177H5.82487V40.4671H5.95621V40.7309H6.08756V41.021H6.2189V41.3111H6.35024V41.5749H6.48158V41.8386H6.61292V41.9705H6.74426V42.2606H6.87561V42.5507H7.03321V42.8145H7.16456V43.1046H7.2959V43.3683H7.45351V43.6321H7.58485V43.7903H7.71619V44.0541H7.8738V44.3442H8.00514V44.4761H8.13648V44.7662H8.29409V44.8981H8.42543V45.1882H8.55678V45.4783H8.71439V45.6102H8.84573V45.8739H8.97707V46.0058H9.13468V46.2959H9.26602V46.5596H9.39736V46.7179H9.5287V46.9816H9.66004V47.1399H9.79138V47.4036H9.949V47.5619H10.0803V47.6937H10.2117V47.9839H10.3693V48.1157H10.5006V48.2476H10.632V48.5377H10.7633V48.6696H10.8947V48.8278H11.026V48.9597H11.1573V49.2498H11.2887V49.3817H11.42V49.5136H11.5776V49.6455H11.709V49.7773H11.8403V50.0675H11.9717V50.1993H12.103V50.3312H12.2343V50.4894H12.3919V50.6213H12.5233V50.7532H12.6546V51.0433H12.786V51.1752H12.9173V51.3334H13.0487V51.4653H13.2063V51.5972H13.3376V51.729H13.4689V51.8609H13.6266V51.9928H13.7579V52.1247H13.8892V52.2565H14.0206V52.3884H14.1519V52.6521H14.2833V52.784H14.4409V52.9159H14.5722V53.0478H14.7036V53.1796H14.8612V53.3115H14.9925V53.4434H15.1238V53.5753H15.2815V53.7071H15.4128V53.839H15.5441V53.9709H15.7017V54.1291H15.8331V54.261H15.9644V54.3929H16.122V54.5511H16.2534V54.683H16.3847V54.8149H16.5423V54.9731H16.6737V55.105H16.805V55.2368H16.9626V55.3687H17.094V55.5006H17.2253V55.6325H17.3567V55.7643H17.488V55.8962H17.7769V56.0281H17.9083V56.1863H18.0396V56.3182H18.1972V56.4501H18.3286V56.6083H18.4599V56.7402H18.6175V56.8721H18.7489V57.0303H18.8802V57.1622H19.0116V57.2941H19.1429V57.4523H19.2742V57.5842H19.4318V57.716H19.6945V57.8743H19.8521V58.0062H19.9835V58.138H20.1148V58.2963H20.2462V58.4282H20.5088V58.56H20.6665V58.6919H20.7978V58.8238H20.9291V58.9556H21.1918V59.1139H21.3232V59.2458H21.4808V59.3776H21.6121V59.5359H21.9011V59.6678H22.0324V59.7996H22.1637V59.9579H22.4527V60.0897H22.584V60.2216H22.873V60.3799H23.0043V60.5117H23.2933V60.6436H23.4246V60.7755H23.556V60.9074H23.8187V61.0392H23.9763V61.1975H24.2389V61.3293H24.5279V61.4612H24.6592V61.6195H24.7906V61.7513H25.0533V61.8832H25.2109V62.0151H25.4736V62.147H25.7625V62.2788H25.8938V62.4107H26.1828V62.5426H26.4718V62.6744H26.7344V62.8327H26.892V62.9646H27.1547V63.0964H27.4437V63.2547H27.7064V63.3866H27.969V63.5184H28.258V63.6503H28.5469V63.7822H28.8096V63.914H29.0986V64.0723H29.3875V64.2042H29.6502V64.336H29.9392V64.4943H30.4908V64.6261H30.7797V64.758H30.9111V64.9163H31.3314V65.0481H31.6203V65.4701H30.7797V65.3383H30.4908V65.18H30.0705V65.0481H29.6502V64.9163H29.2299V64.758H28.9672V64.6261H28.5469V64.4943H28.258V64.336H27.8377V64.2042H27.4174V64.0723H27.1285V63.914H26.8658V63.7822H26.4455V63.6503H26.1565V63.5184H25.8676V63.3866H25.6049V63.2547H25.3159V63.0964H25.027V62.9646H24.8957V62.8327H24.6067V62.6744H24.344V62.5426H24.1864V62.4107H23.9237V62.2788H23.6348V62.147H23.3721V62.0151H23.0831V61.8832H22.9518V61.7513H22.6891V61.6195H22.4264V61.4612H22.2951V61.3293H22.0061V61.1975H21.8748V61.0392H21.5858V60.9074H21.2969V60.7755H21.1656V60.6436H20.9029V60.5117H20.7715V60.3799H20.6402V60.2216H20.3512V60.0897H20.2199V59.9579H20.0886V59.7996H19.8259V59.6678H19.6683V59.5359H19.5369V59.3776H19.248V59.2458H19.1166V59.1139H18.8539V58.9556H18.7226V58.8238H18.5913V58.6919H18.3023V58.56H18.171V58.4282H18.0134V58.2963H17.7507V58.138H17.5931V58.0062H17.4617V57.8743H17.1728V57.716H17.0414V57.5842H16.9101V57.4523H16.6211V57.2941H16.4898V57.1622H16.3322V57.0303H16.0695V56.8721H15.9119V56.7402H15.7806V56.6083H15.4916V56.4501H15.3603V56.3182H15.2289V56.1863H15.0713V56.0281H14.94V55.8962H14.651V55.7643H14.5197V55.6325H14.3883V55.5006H14.2307V55.3687H14.0994V55.2368H13.8104V55.105H13.6791V54.9731H13.5478V54.8149H13.3901V54.683H13.2588V54.5511H13.1275V54.3929H12.9698V54.261H12.7072V54.1291H12.5758V53.9709H12.4445V53.839H12.3131V53.7071H12.1555V53.5753H12.0242V53.4434H11.8928V53.3115H11.7615V53.1796H11.4988V53.0478H11.3412V52.9159H11.2099V52.784H11.0785V52.6521H10.9472V52.5203H10.8158V52.3884H10.6845V52.2565H10.5532V52.1247H10.4218V51.9928H10.1329V51.8609H10.0015V51.729H9.87019V51.5972H9.71258V51.4653H9.58124V51.3334H9.4499V51.1752H9.31856V51.0433H9.18721V50.9114H9.05587V50.7532H8.89826V50.6213H8.76692V50.4894H8.63558V50.3312H8.47797V50.1993H8.34663V50.0675H8.21529V49.9356H8.05768V49.8037H7.92634V49.6718H7.79499V49.54H7.63739V49.4081H7.50604V49.2762H7.21709V49.118H7.08575V48.9861H6.95441V48.8542H6.7968V48.696H6.66546V48.5641H6.53412V48.4322H6.40278V48.274H6.27143V48.1421H6.14009V48.0102H6.00875V47.8784H5.87741V47.7465H5.74607V47.6146H5.58846V47.4564H5.45712V47.3245H5.32578V47.1926H5.16817V47.0344H4.90548V46.9025H4.77414V46.7706H4.6428V46.6124H4.51146V46.9025H4.6428V47.0344H4.77414V47.3245H4.90548V47.4564H5.03682V47.6146H5.16817V47.7465H5.32578V48.0366H5.45712V48.1685H5.58846V48.3004H5.74607V48.4586H5.87741V48.5905H6.00875V48.7224H6.14009V49.0125H6.27143V49.1443H6.40278V49.3026H6.53412V49.4345H6.66546V49.5663H6.7968V49.6982H6.95441V49.8301H7.08575V49.962H7.21709V50.2521H7.3747V50.3839H7.50604V50.5422H7.63739V50.6741H7.79499V50.8059H7.92634V50.9642H8.05768V51.0961H8.21529V51.2279H8.34663V51.3862H8.47797V51.518H8.63558V51.6499H8.76692V51.7818H8.89826V51.9137H9.05587V52.0455H9.18721V52.1774H9.31856V52.3093H9.4499V52.4412H9.58124V52.573H9.71258V52.7049H9.87019V52.8368H10.1329V52.9686H10.2905V53.1005H10.4218V53.2324H10.5532V53.3643H10.6845V53.4961H10.8158V53.628H10.9472V53.7599H11.0785V53.8917H11.2099V54.0236H11.4988V54.1819H11.6302V54.3137H11.7615V54.4456H11.8928V54.6039H12.0242V54.7357H12.1555V54.8676H12.4445V55.0258H12.5758V55.1577H12.7072V55.2896H12.8385V55.4215H13.1275V55.5533H13.2588V55.6852H13.3901V55.8171H13.5478V55.949H13.6791V56.0808H13.9418V56.2391H14.0731V56.3709H14.2045V56.5028H14.4934V56.6611H14.6248V56.7929H14.7824V56.9248H15.045V57.0831H15.2027V57.2149H15.334V57.3468H15.6229V57.505H15.7543V57.6369H15.8856V57.7688H16.1746V57.927H16.3059V58.0589H16.5949V58.1908H16.7262V58.349H16.8838V58.4809H17.1465V58.6128H17.2778V58.7446H17.4092V58.8765H17.6981V59.0084H17.8295V59.1666H18.1184V59.2985H18.2498V59.4304H18.5387V59.5886H18.6701V59.7205H18.8014V59.8524H19.0641V60.0106H19.1954V60.1425H19.4844V60.2744H19.6157V60.4326H19.9047V60.5645H20.1674V60.6964H20.2987V60.8282H20.43V60.9601H20.719V61.092H20.8503V61.2502H21.0079V61.3821H21.2706V61.514H21.4282V61.6722H21.6909V61.8041H21.9799V61.936H22.2688V62.0678H22.4002V62.1997H22.6628V62.3316H22.7942V62.4634H23.0831V62.5953H23.2145V62.7272H23.3458V62.8854H23.4772V63.0173H23.6085V63.1492H22.7679V63.0173H22.479V62.8854H22.2163V62.7272H21.9273V62.5953H21.6384V62.4634H21.507V62.3316H21.2181V62.1997H20.9554V62.0678H20.6665V61.936H20.3775V61.8041H20.2462V61.6722H19.9572V61.514H19.6945V61.3821H19.5369V61.2502H19.2742V61.092H18.9853V60.9601H18.8539V60.8282H18.565V60.6964H18.4337V60.5645H18.1447V60.4326H18.0134V60.2744H17.7244V60.1425H17.5931V60.0106H17.3041V59.8524H17.1728V59.7205H17.0414V59.5886H16.7788V59.4304H16.6211V59.2985H16.3585V59.1666H16.2008V59.0084H15.9382V58.8765H15.6492V58.7446H15.5179V58.6128H15.2289V58.4809H15.0976V58.349H14.94V58.1908H14.8086V58.0589H14.5197V57.927H14.3883V57.7688H14.257V57.6369H14.0994V57.505H13.8367V57.3468H13.7054V57.2149H13.574V57.0831H13.2851V56.9248H13.1537V56.7929H13.0224V56.6611H12.8648V56.5028H12.6021V56.3709H12.4707V56.2391H12.3394V56.0808H12.0505V55.949H11.9191V55.8171H11.7878V55.6852H11.6564V55.5533H11.3938V55.4215H11.2361V55.2896H11.1048V55.1577H10.9735V55.0258H10.6845V54.8676H10.5532V54.7357H10.4218V54.6039H10.2905V54.4456H10.1591V54.3137H9.87019V54.1819H9.73885V54.0236H9.58124V53.8917H9.4499V53.7599H9.31856V53.628H9.18721V53.4961H8.92453V53.3643H8.76692V53.2324H8.63558V53.1005H8.50424V52.9686H8.34663V52.8368H8.21529V52.7049H8.08395V52.573H7.92634V52.4412H7.79499V52.3093H7.50604V52.1774H7.3747V52.0455H7.24336V51.9137H7.08575V51.7818H6.95441V51.6499H6.82307V51.518H6.66546V51.3862H6.53412V51.2279H6.40278V51.0961H6.27143V50.9642H6.14009V50.8059H6.00875V50.6741H5.87741V50.3839H5.74607V50.2521H5.61473V50.1202H5.45712V49.9883H5.32578V49.8565H5.19443V49.7246H5.03682V49.4345H4.90548V49.3026H4.77414V49.1443H4.6428V49.0125H4.51146V48.8806H4.38012V48.5905H4.22251V48.4586H4.09117V48.3004H3.95982V48.1685H3.80222V47.8784H3.67087V47.7465H3.53953V47.6146H3.38192V47.8784H3.53953V48.0102H3.67087V48.274H3.80222V48.4322H3.95982V48.696H4.09117V48.8542H4.22251V49.118H4.38012V49.2762H4.51146V49.54H4.6428V49.6718H4.77414V49.9356H4.90548V50.0675H5.03682V50.1993H5.19443V50.4894H5.32578V50.6213H5.45712V50.7532H5.61473V50.9114H5.74607V51.1752H5.87741V51.3334H6.00875V51.4653H6.14009V51.5972H6.27143V51.729H6.40278V51.8609H6.53412V51.9928H6.66546V52.1247H6.82307V52.2565H6.95441V52.3884H7.08575V52.5203H7.24336V52.6521H7.3747V52.784H7.50604V52.9159H7.66365V53.0478H7.79499V53.1796H8.08395V53.3115H8.21529V53.4434H8.34663V53.5753H8.50424V53.7071H8.63558V53.839H8.76692V53.9709H8.92453V54.1291H9.05587V54.261H9.18721V54.3929H9.47617V54.5511H9.60751V54.683H9.76512V54.8149H9.89646V54.9731H10.0278V55.105H10.1854V55.2368H10.4481V55.3687H10.5794V55.5006H10.7108V55.6325H10.8421V55.7643H10.9735V55.8962H11.2361V56.0281H11.3938V56.1863H11.5251V56.3182H11.6564V56.4501H11.9454V56.6083H12.0767V56.7402H12.2343V56.8721H12.3657V57.0303H12.497V57.1622H12.786V57.2941H12.9173V57.4523H13.0749V57.5842H13.2063V57.716H13.4952V57.8743H13.6266V58.0062H13.8892V58.138H14.0206V58.2963H14.1519V58.4282H14.4409V58.56H14.5722V58.6919H14.8612V58.8238H14.9925V58.9556H15.1501V59.1139H15.4128V59.2458H15.5704V59.3776H15.8331V59.5359H15.9907V59.6678H16.122V59.7996H16.411V59.9579H16.5423V60.0897H16.8313V60.2216H16.9626V60.3799H17.2516V60.5117H17.3829V60.6436H17.6719V60.7755H17.8032V60.9074H18.0922V61.0392H18.2235V61.1975H18.5125V61.3293H18.7751V61.4612H18.9065V61.6195H19.1692V61.7513H19.3268V61.8832H19.5895V62.0151H19.7471V62.147H20.0098V62.2788H20.1411V62.4107H20.4038V62.5426H20.5614V62.6744H20.8241V62.8327H21.0868V62.9646H21.3757V63.0964H21.507V63.2547H21.796V63.3866H22.0587V63.5184H22.3476V63.6503H22.6103V63.7822H22.873V63.914H23.1619V64.0723H23.4509V64.2042H23.8712V64.336H24.1339V64.4943H24.4228V64.6261H24.8431V64.758H25.1058V64.9163H25.3685V65.0481H25.7888V65.18H26.2091V65.3383H26.6294V65.4701H27.0497V65.602H27.4699V65.7603H27.7589V65.8921H28.1792V66.024H28.5995V66.1559H29.1511V66.2877H29.5714V66.4196H30.123V66.5779H30.6747V66.7097H31.2263V66.8416H31.7779V66.9999H32.1982V67.1317H32.4609V67.2636H32.6185V67.5537H32.3296V67.6856H31.5153V67.5537H30.806V67.4218H30.123V67.29H29.5714V67.1581H29.0198V67.0262H28.4681V66.868H28.0478V66.7361H27.4699V66.6042H27.0497V66.446H26.6294V66.3141H26.2091V66.1822H25.6574V66.0504H25.2371V65.9185H24.8168V65.7866H24.3966V65.6284H23.8449V65.4965H23.4246V65.3646H23.0043V65.2064H22.584V65.0745H22.1637V64.9426H21.6121V64.7844H21.3494V64.6525H20.9291V64.5207H20.5088V64.3624H20.2199V64.2305H19.7996V64.0987H19.5107V63.9404H19.248V63.8085H18.8277V63.6767H18.5387V63.5448H18.1184V63.4129H17.6981V63.2811H17.4092V63.1228H16.9889V62.9909H16.7262V62.8591H16.4373V62.7008H16.017V62.5689H15.728V62.4371H15.4653V62.3052H15.1764V62.1733H14.8874V62.0415H14.6248V61.9096H14.3358V61.7777H14.0468V61.6458H13.7842V61.4876H13.3639V61.3557H13.0749V61.2238H12.786V61.0656H12.6546V60.9337H12.3657V60.8019H12.103V60.67H11.814V60.5381H11.5251V60.4062H11.2624V60.248H10.9735V60.1161H10.8421V59.9842H10.5532V59.826H10.2642V59.6941H10.0015V59.5623H9.84392V59.404H9.58124V59.2721H9.29229V59.1403H9.00334V58.982H8.87199V58.8501H8.58304V58.7183H8.32036V58.5864H8.16275V58.4545H7.90007V58.3227H7.61112V58.4545H7.74246V58.5864H7.90007V58.7183H8.03141V58.8501H8.29409V58.982H8.42543V59.1403H8.55678V59.2721H8.84573V59.404H8.97707V59.5623H9.10841V59.6941H9.37109V59.826H9.5287V59.9842H9.79138V60.1161H9.949V60.248H10.2117V60.4062H10.343V60.5381H10.6057V60.67H10.737V60.8019H10.9997V60.9337H11.2887V61.0656H11.5776V61.2238H11.8403V61.3557H11.9979V61.4876H12.2606V61.6458H12.5496V61.7777H12.8385V61.9096H13.1012V62.0415H13.3901V62.1733H13.6528V62.3052H13.9155V62.4371H14.2045V62.5689H14.4934V62.7008H14.7561V62.8591H15.045V62.9909H15.4653V63.1228H15.7543V63.2811H16.017V63.4129H16.3059V63.5448H16.5949V63.6767H17.0152V63.8085H17.2778V63.9404H17.5668V64.0987H17.9871V64.2305H18.276V64.3624H18.6963V64.5207H18.959V64.6525H19.3793V64.7844H19.6683V64.9426H20.0886V65.0745H20.3775V65.2064H20.7978V65.3646H21.2181V65.4965H21.6384V65.6284H22.0587V65.7866H22.479V65.9185H22.8993V66.0504H23.3196V66.1822H23.7398V66.3141H24.1601V66.446H24.5804V66.6042H25.1321V66.7361H25.5524V66.868H26.104V67.0262H26.6556V67.1581H27.0759V67.29H27.3386V67.4218H27.4699V67.8438H26.787V67.712H26.0777V67.5801H25.5261V67.4482H24.9745V67.3163H24.4228V67.1845H24.0025V67.0526H23.4509V66.8944H23.0306V66.7625H22.479V66.6306H22.0587V66.4724H21.507V66.3405H21.0868V66.2086H20.6665V66.0767H20.2462V65.9449H19.8259V65.813H19.5632V65.6548H19.1429V65.5229H18.8539V65.391H18.4337V65.2328H18.1447V65.1009H17.882V64.969H17.4617V64.8108H17.1728V64.6789H16.7525V64.547H16.4635V64.3888H16.2008V64.2569H15.7806V64.125H15.4916V63.9668H15.0713V63.8349H14.7824V63.703H14.5197V63.5712H14.2307V63.4393H13.9418V63.3074H13.5215V63.1492H13.2588V63.0173H12.9698V62.8854H12.6809V62.7272H12.4182V62.5953H12.1555V62.4634H11.8666V62.3316H11.6039V62.1997H11.3149V62.0678H11.026V61.936H10.7633V61.8041H10.632V61.6722H10.3693V61.514H10.0803V61.3821H9.949V61.2502H9.66004V61.092H9.37109V60.9601H9.23975V60.8282H8.9508V60.6964H8.81946V60.5645H8.53051V60.4326H8.39917V60.2744H8.11021V60.1425H7.97887V60.0106H7.68992V59.8524H7.55858V59.7205H7.26963V59.5886H7.13829V59.4304H6.84934V59.2985H6.718V59.1666H6.42904V59.2985H6.58665V59.4304H6.718V59.5886H6.84934V59.7205H7.00695V59.8524H7.13829V60.0106H7.42724V60.1425H7.55858V60.2744H7.68992V60.4326H7.84753V60.5645H8.11021V60.6964H8.26782V60.8282H8.39917V60.9601H8.68812V61.092H8.81946V61.2502H9.10841V61.3821H9.23975V61.514H9.37109V61.6722H9.66004V61.8041H9.949V61.936H10.0803V62.0678H10.3693V62.1997H10.5006V62.3316H10.7896V62.4634H11.0523V62.5953H11.2099V62.7272H11.4726V62.8854H11.7615V63.0173H12.0505V63.1492H12.1818V63.3074H12.4445V63.4393H12.7072V63.5712H12.9961V63.703H13.2851V63.8349H13.5478V63.9668H13.8367V64.125H14.1257V64.2569H14.3883V64.3888H14.6773V64.547H15.0976V64.6789H15.3865V64.8108H15.6492V64.969H15.9382V65.1009H16.2271V65.2328H16.6474V65.391H16.9101V65.5229H17.199V65.6548H17.6193V65.813H18.0396V65.9449H18.4599V66.0767H18.7489V66.2086H19.1692V66.3405H19.5895V66.4724H20.0098V66.6306H20.43V66.7625H20.6927V66.8944H21.113V67.0526H21.5333V67.1845H22.0849V67.3163H22.5052V67.4482H23.0569V67.5801H23.4772V67.712H23.8975V67.8438H24.3177V67.9757H24.8694V68.1076H25.5786V68.2658H26.4192V68.3977H27.2598V68.5296H28.9147V68.6878H33.9057V68.5296H35.1666V68.3977H36.1385V68.2658H37.2417V68.6878H36.9528V68.8197H36.5325V68.9516H35.7182V69.0834H34.8776V69.2153H34.1946V69.3472H33.354V69.5054H30.9899V69.6373H27.6538V69.5054H25.4473V69.3472H24.0551V69.2153H22.4002V69.0834H21.4282V68.9516H20.4563V68.8197H19.4844V68.6878H18.6701V68.5296H17.9871V68.3977H17.3041V68.2658H16.5949V68.1076H15.9119V67.9757H15.0713V67.8438H14.3621V67.712H13.8104V67.5801H13.2588V67.4482H12.7072V67.5801H12.9961V67.712H13.2588V67.8438H13.6791V67.9757H14.0994V68.1076H14.5197V68.2658H14.94V68.3977H15.3603V68.5296H15.9382V68.6878H16.4898V68.8197H17.0414V68.9516H17.7507V69.0834H18.4337V69.2153H19.2742V69.3472H20.1148V69.5054H21.2181V69.6373H22.4527V69.7692H24.1076V69.901H26.0515V70.0329H31.0424V70.1648H31.3314V70.2967H31.4627V70.4285H31.3314V70.5604H31.0424V70.7187H28.8359V70.8505H28.1529V70.7187H28.0216V70.8505H26.3667V70.7187H24.4228V70.5604H22.8993V70.4285H21.507V70.2967H20.4038V70.1648H19.5632V70.0329H18.7489V69.901H17.9083V69.7692H17.2253V69.6373H16.5161V69.5054H15.9644V69.3472H15.2552V69.2153H14.8349V69.0834H14.2833V68.9516H13.7316V68.8197H13.18V68.6878H12.6284V68.8197H12.891V68.9516H13.18V69.0834H13.6003V69.2153H13.863V69.3472H14.2833V69.5054H14.7036V69.6373H15.1238V69.7692H15.5441V69.901H15.9644V70.0329H16.5161V70.1648H17.0677V70.2967H17.6193V70.4285H18.3023V70.5604H18.8539V70.7187H19.5369V70.8505H20.3775V70.9824H21.0868V71.1406H23.7136V71.2725H29.4138V71.1406H30.9374V70.9824H32.0406V70.8505H33.0126V70.7187H33.6955V70.5604H34.5098V70.4285H35.2191V70.2967H36.0597V70.1648H36.7427V70.0329H37.4256V69.901H38.1086V69.7692H38.6602V69.6373H39.2119V69.5054H39.6322V69.3472H40.1838V69.2153H40.6041V69.0834H41.1557V68.9516H41.865V69.3736H41.576V69.5318H41.1557V69.6637H40.893V69.7955H40.4727V69.9274H39.9211V70.0593H39.5008V70.1912H39.2381V70.323H38.6865V70.4549H38.2662V70.5868H37.7146V70.745H37.2943V70.8769H36.7427V71.0088H36.191V71.167H35.7707V71.2989H35.2191V71.4308H34.6675V71.5626H34.1158V71.6945H33.5642V71.8264H32.8812V71.9846H32.0406V72.1165H30.9374V72.2484H29.6765V72.4066H28.0216V72.5385H26.0777V72.6704H25.2371V72.8286H24.9482V72.9605H29.2562V72.8286H30.5171V72.6704H31.6203V72.5385H32.5923V72.4066H33.5642V72.2484H34.4048V72.1165H35.6657V72.4066H35.3767V72.5385H35.114V72.6704H34.5624V72.8286H34.0107V72.9605H33.3015V73.0924H32.6185V73.2506H31.5153V73.3825H30.5433V73.5143H29.2825V73.6726H27.6276V73.8045H25.9727V73.9363H27.2073V74.0682H31.0687L31.1738 73.9891ZM12.7334 68.3977H12.4707V68.5559H12.7334V68.3977ZM19.7996 67.4218H19.642V67.5537H19.7996V67.4218ZM42.942 64.9163V64.7844H44.8858V64.6261H45.8578V64.4943H46.6983V64.3624H47.25V64.2042H47.8016V64.0723H48.3532V63.9404H48.9311V63.7822H49.3514V63.6503H49.7455V63.5184H50.0344V63.3866H50.4547V63.2547H50.7437V63.1228H51.1639V62.9646H51.4529V62.8327H51.7156V62.7008H51.9783V62.5426H52.2672V62.4107H52.5299V62.2788H52.8188V62.147H53.1078V62.0151H53.3705V61.8832H53.5281V61.7513H53.7908V61.6195H54.0797V61.4876H54.2111V61.3293H54.5V61.1975H54.6314V61.0656H54.9203V60.9074H55.0517V60.7755H55.3406V60.6436H55.4719V60.5117H55.7609V60.3799H55.8922V60.248H56.0498V60.0897H56.3388V59.9579H56.4701V59.826H56.6015V59.6678H56.7328V59.5359H56.9955V59.404H57.1531V59.2458H57.2845V59.1139H57.4158V58.982H57.5734V58.8238H57.7048V58.6919H57.9937V58.56H58.125V58.4282H58.2564V58.2963H58.3877V58.1644H58.5191V58.0062H58.6504V57.8743H58.7818V57.7424H58.9131V57.5842H59.0444V57.4523H59.202V57.3204H59.3334V57.1622H59.4647V57.0303H59.5961V56.8984H59.7274V56.6083H59.8588V56.4764H59.9901V56.3182H60.1214V56.1863H60.2528V56.0544H60.4104V55.7643H60.5417V55.6325H60.6731V55.5006H60.8307V55.2368H60.962V55.105H61.0934V54.9731H61.2247V54.683H61.356V54.5511H61.4874V54.261H61.645V54.1291H61.7763V53.839H61.9077V53.5753H62.039V53.4434H62.1704V53.1796H62.3017V52.9159H62.4593V52.6258H62.5907V52.362H62.722V52.0719H62.8796V51.8082H63.0109V51.3862H63.1423V51.1224H63.2999V50.7004H63.4312V50.2784H63.5626V49.8565H63.6939V49.3026H63.8253V48.6169H63.9566V47.5091H64.1142V46.1113H63.9566V45.1354H63.8253V44.5816H63.6939V44.2914H63.5626V43.8695H63.4312V43.6057H63.2999V43.4475H63.1423V43.1837H63.0109V43.0518H62.8796V42.92H62.722V42.7881H62.5907V42.6562H62.4593V42.5244H62.3017V42.3925H62.1704V42.2342H61.8814V42.1024H61.6187V41.9705H61.1984V41.8386H60.6468V41.7067H58.9919V41.8386H58.3089V41.9705H57.7573V42.1024H57.337V42.2342H56.9167V42.3925H56.4964V42.5244H56.2337V42.6562H55.9448V42.7881H55.6558V42.92H55.3669V43.0518H55.1042V43.1837H54.9728V43.3156H54.7102V43.4475H54.4212V43.6057H54.2899V43.7376H54.0009V43.8695H53.8696V44.0013H53.5806V44.1332H53.4493V44.2651H53.2917V44.4233H53.029V44.5552H52.8714V44.6871H52.74V44.8189H52.4511V44.9508H52.3197V45.0827H52.1884V45.2409H52.0308V45.3728H51.8995V45.5047H51.7681V45.6365H51.5054V45.7684H51.3741V45.9003H51.2165V46.0585H51.0851V46.1904H50.9538V46.3223H50.7962V46.4805H50.6648V46.6124H50.5335V46.7443H50.3759V46.9025H50.2446V47.0344H50.1132V47.1663H49.9819V47.3245H49.8505V47.4564H49.7192V47.5883H49.5878V47.7201H49.4565V47.852H49.3252V48.1421H49.1676V48.274H49.0362V48.4059H48.9049V48.5641H48.7473V48.696H48.6159V48.8278H48.4846V48.9861H48.327V49.2498H48.1956V49.3817H48.0643V49.5136H47.9329V49.6455H47.8016V49.9356H47.6703V50.0675H47.5127V50.2257H47.3813V50.3576H47.25V50.6477H47.0924V50.7796H46.961V50.9114H46.8297V51.2016H46.6983V51.3334H46.567V51.6235H46.4357V51.7554H46.278V51.8873H46.1467V52.151H46.0154V52.2829H45.884V52.5466H45.7527V52.6785H45.6213V52.9423H45.49V53.0741H45.3587V53.3379H45.2273V53.4698H45.0697V53.7335H44.9384V53.8917H44.807V54.1555H44.6757V54.4456H44.5443V54.5775H44.413V54.8676H44.2554V55.1577H44.124V55.2896H43.9927V55.5797H43.8351V55.8435H43.7038V56.1336H43.5724V56.2654H43.4411V56.5556H43.3097V56.8457H43.1784V57.1094H43.0208V57.3995H42.8894V57.6897H42.7581V57.9534H42.6005V58.2435H42.4691V58.5337H42.3378V58.7974H42.2065V59.0875H42.0751V59.3776H41.9438V59.6414H41.7862V59.9315H41.6548V60.3535H41.5235V60.6436H41.3659V60.9074H41.2345V61.3293H41.1032V61.6195H40.9456V61.9096H40.8142V62.3316H40.6829V62.7536H40.5516V63.0173H40.4202V63.4393H40.2889V63.8613H40.1575V64.1514H40.0262V64.5734H39.8948V64.8635H41.8124V64.9954H43.0733L42.942 64.9163ZM16.3322 61.0129H16.2008V61.1447H16.3322V61.0129ZM16.0695 60.8546H15.9119V61.0129H16.0695V60.8546ZM13.4164 53.0478H13.2851V53.1796H13.4164V53.0478ZM13.2851 52.9159H13.1537V53.0478H13.2851V52.9159ZM13.1537 52.784H12.9961V52.9159H13.1537V52.784ZM12.9961 52.6521H12.8648V52.784H12.9961V52.6521ZM3.43446 32.3966H3.30312V32.6867H3.43446V32.3966ZM3.43446 47.0344H3.30312V47.1926H3.43446V47.0344ZM3.30312 46.7706H3.17178V46.9025H3.30312V46.7706ZM4.40639 46.0585H4.24878V46.1904H4.40639V46.0585ZM4.24878 45.9267H4.11743V46.0585H4.24878V45.9267ZM6.74426 58.7446H6.61292V58.9029H6.74426V58.7446ZM6.61292 58.6128H6.48158V58.7446H6.61292V58.6128ZM7.8738 58.0589V57.9007H7.74246V57.7688H7.45351V57.9007H7.58485V58.0589H7.8738ZM7.45351 57.6369H7.32217V57.7688H7.45351V57.6369ZM7.32217 57.4787H7.16456V57.6369H7.32217V57.4787Z" fill="black"/>
</g>
<defs>
<clipPath id="clip0_2406_41953">
<rect width="71.3972" height="93.3656" fill="white" transform="translate(0.9375 0.984375)"/>
</clipPath>
</defs>
</svg>
