<svg width="253" height="255" viewBox="0 0 253 255" fill="none" xmlns="http://www.w3.org/2000/svg">
<path d="M126.424 255C196.246 255 252.848 197.916 252.848 127.5C252.848 57.0837 196.246 0 126.424 0C56.6019 0 0 57.0837 0 127.5C0 197.916 56.6019 255 126.424 255Z" fill="url(#paint0_linear_1537_40795)"/>
<path opacity="0.45" d="M29.3127 137.015C29.3127 94.3009 53.4454 57.2386 88.8045 38.6803C89.0135 38.5564 89.1374 38.3164 89.1374 38.0609C89.1374 37.6661 88.82 37.3486 88.4251 37.3486C88.2935 37.3486 88.1696 37.3718 88.069 37.4338C46.9806 53.7003 17.9238 93.7822 17.9238 140.662C17.9238 201.957 67.6138 251.647 128.917 251.647C131.96 251.647 134.972 251.508 137.96 251.268C138.479 250.161 139.029 249.069 139.602 247.993C78.6234 247.614 29.3127 198.079 29.3127 137.015Z" fill="url(#paint1_radial_1537_40795)"/>
<path opacity="0.45" d="M251.689 131.409C251.689 63.3006 196.479 8.09033 128.362 8.09033C109.765 8.09033 92.1359 12.217 76.3262 19.5876C88.6596 15.4455 101.868 13.2002 115.603 13.2002C183.712 13.2002 238.93 68.4105 238.93 136.519C238.93 164.43 229.654 190.166 214.023 210.83C216.524 211.217 218.978 211.736 221.386 212.378C240.261 190.708 251.689 162.394 251.689 131.409Z" fill="url(#paint2_radial_1537_40795)"/>
<path d="M206.958 186.728C206.64 189.864 204.016 192.798 201.097 193.278L65.6608 215.445C62.742 215.925 60.6361 213.78 60.9535 210.644L62.2929 197.537C62.6104 194.401 65.235 191.467 68.1539 190.987L203.59 168.821C206.509 168.341 208.614 170.485 208.297 173.621L206.958 186.728Z" fill="url(#paint3_linear_1537_40795)"/>
<path d="M200.883 105.403C200.403 105.481 200.016 105.148 200.016 104.668V104.66C200.016 103.228 201.177 101.889 202.61 101.664L206.945 100.998C207.425 100.921 207.812 101.254 207.812 101.734V101.741C207.812 103.174 206.651 104.513 205.219 104.738L200.883 105.403ZM190.222 118.503C193.946 114.516 195.913 109.213 195.913 103.181C195.913 97.8315 194.263 93.4881 191.136 90.6235C187.992 87.7433 183.656 86.6284 178.601 87.4104C173.646 88.1769 169.163 90.6544 165.965 94.4017C162.582 98.3658 160.793 103.468 160.793 109.166C160.793 120.021 167.885 126.509 178.036 124.945C182.689 124.225 187.017 121.933 190.222 118.503ZM187.83 104.637C187.83 111.83 183.827 117.667 178.314 118.519C172.802 119.371 168.799 114.826 168.799 107.718C168.799 101.54 171.788 94.843 178.454 93.8133C185.871 92.6674 187.83 100.394 187.83 104.637ZM95.8202 112.464C95.8202 125.301 88.3179 134.654 75.698 137.627V137.929C75.6206 140.244 72.6088 142.582 68.8925 143.186C68.428 143.248 68.0486 142.923 68.0486 142.458V138.804C61.4212 139.222 47.9961 137.882 47.9961 120.137C47.9961 104.838 58.2779 96.9102 68.188 94.4791V94.4714C68.188 92.1255 71.192 89.7408 74.9083 89.1447C75.3806 89.075 75.7677 89.4002 75.7677 89.8725V93.2945C85.6159 92.4816 95.8202 97.0883 95.8202 112.464ZM68.1183 100.665C62.1335 102.307 56.0713 107.78 56.0713 118.596C56.0713 127.438 60.5541 132.625 68.1183 132.633V100.665ZM87.745 113.641C87.745 100.719 79.933 99.3026 75.698 99.4884V131.48C79.9485 130.225 87.745 126.207 87.745 113.641ZM130.057 127.57V96.8095C130.057 96.3373 129.67 96.0043 129.197 96.0818L129.011 96.1127C123.437 97.0031 120.17 99.5735 118.838 102.005L110.523 117.056C108.905 120.129 107.821 122.359 106.597 124.968C106.721 121.91 106.768 118.999 106.768 114.818V100.417C106.768 99.9452 106.381 99.6123 105.908 99.6897L105.846 99.6974C102.223 100.255 99.2191 102.639 99.1881 105.009V135.753C99.1881 136.233 99.5752 136.558 100.048 136.481C105.699 135.606 108.92 133.028 110.267 130.581C111.351 128.599 112.427 126.61 113.48 124.659C115.277 121.337 116.972 118.201 118.583 115.321C120.108 112.418 121.308 110.033 122.655 107.207C122.485 110.823 122.407 113.455 122.407 117.69V132.161C122.407 132.633 122.794 132.966 123.267 132.889L123.445 132.858C127.037 132.285 130.018 129.916 130.057 127.57ZM160.979 91.119L136.963 94.8275C134.617 95.1992 132.697 98.0638 132.658 101.052V101.292C132.658 101.765 133.045 102.098 133.517 102.02L143.319 100.51V128.878C143.319 129.35 143.706 129.676 144.179 129.606L144.519 129.552C148.158 128.987 151.17 126.586 151.178 124.21V99.2948L157.573 98.3115C159.919 97.909 161.831 95.0133 161.839 92.0171V91.8467C161.839 91.3667 161.452 91.0415 160.979 91.119ZM90.2303 173.45C92.8239 173.048 95.1312 171.298 95.015 169.525L93.5595 149.054C93.5208 148.52 93.0717 148.172 92.5297 148.249L88.6741 148.845C86.963 149.132 86.1423 150.766 85.492 152.554L85.1436 153.537C85.1359 153.553 85.1281 153.568 85.1281 153.592L82.759 160.374C82.2015 162.023 81.5589 163.943 81.017 165.608C80.8234 165.058 80.6221 164.508 80.4286 163.974C80.2195 163.393 80.0259 162.851 79.8556 162.371L75.7135 151.524C75.5664 151.137 75.1793 150.92 74.738 150.99L71.5094 151.486C69.7906 151.749 68.5596 153.893 68.3816 156.17H68.3738L66.9182 175.928C66.895 176.214 66.9957 176.485 67.1892 176.664C67.3828 176.842 67.6615 176.919 67.948 176.88L68.1106 176.857C70.7352 176.439 72.8101 174.681 72.9108 172.916L73.3598 164.291C73.4063 163.478 73.4527 162.635 73.4914 161.775C73.7315 162.511 73.9637 163.207 74.1805 163.842L78.2297 174.465C78.3768 174.852 78.7639 175.069 79.2053 174.999L79.3446 174.976V174.968C81.9383 174.565 83.5487 172.622 84.1294 171.097L87.5669 161.543C87.8999 160.567 88.1941 159.716 88.4573 158.941C88.4883 159.46 88.5192 159.971 88.5502 160.467L88.6276 161.822L89.1464 172.614C89.1696 173.164 89.6264 173.528 90.1761 173.435L90.2303 173.45ZM108.99 173.675C110.531 170.841 111.94 167.272 113.597 162.642L119.814 145.447C119.937 145.114 119.891 144.758 119.697 144.51C119.504 144.262 119.186 144.138 118.846 144.192L117.46 144.409C114.835 144.819 113.202 146.631 112.652 148.35H112.644L108.974 159.778C108.789 160.358 108.61 160.947 108.44 161.52C108.27 161.009 108.084 160.498 107.906 160.01L102.92 147.32C102.773 146.941 102.386 146.732 101.952 146.794L101.557 146.856C99.3894 147.196 96.6332 149.147 97.1596 150.657L104.886 168.72C105.057 169.153 105.095 169.332 105.103 169.393C105.072 169.525 104.941 169.843 104.863 170.021C103.779 172.63 102.153 174.287 101.658 174.759C100.752 175.665 99.823 176.292 99.1494 176.687C98.6771 176.981 98.3519 177.5 98.3519 178.057C98.3519 178.816 98.9713 179.335 99.7301 179.218L99.8849 179.195C101.24 178.994 106.203 178.754 108.99 173.675ZM141.391 172.808C143.822 172.39 145.371 170.857 145.572 169.246L145.766 160.815C145.773 160.536 145.673 160.289 145.479 160.118C145.286 159.948 145.03 159.878 144.751 159.909L143.412 160.087V141.428C143.412 140.855 142.948 140.468 142.382 140.553L142.073 140.6C139.464 141.003 137.296 142.768 137.249 144.487V160.877L128.818 162.178V143.681C128.818 143.108 128.353 142.721 127.788 142.807L127.478 142.853C124.869 143.256 122.709 145.021 122.655 146.74V167.404C122.655 167.977 123.12 168.364 123.685 168.279L140.091 165.747L140.253 171.964C140.269 172.521 140.725 172.901 141.283 172.808H141.391ZM166.399 161.698C169.039 161.287 171.222 159.538 171.222 157.749V137.139C171.222 136.566 170.758 136.179 170.193 136.264L167.653 136.659C165.029 137.062 163.705 139.005 162.837 140.584L157.34 150.533C156.675 151.795 156.148 152.848 155.645 153.87C155.676 152.484 155.691 150.998 155.691 149.132V139.531C155.691 138.959 155.227 138.571 154.662 138.657L154.499 138.68C151.882 139.098 149.722 140.886 149.722 142.613V163.231C149.722 163.804 150.187 164.191 150.752 164.105L153.206 163.726C155.676 163.347 157.054 161.473 157.867 160.064C158.618 158.686 159.369 157.3 160.104 155.937C161.304 153.723 162.435 151.633 163.511 149.705C164.161 148.466 164.727 147.367 165.284 146.236C165.23 147.754 165.207 149.209 165.207 151.191V160.838C165.207 161.411 165.671 161.798 166.236 161.713L166.399 161.698ZM195.371 132.378L183.347 134.236C180.714 134.646 178.523 136.442 178.523 138.177V145.09C178.523 147.514 178.461 149.38 178.221 150.843C177.47 155.628 176.232 156.65 174.737 158.299C174.358 158.717 174.172 159.282 174.327 159.793C174.544 160.49 175.31 160.784 176.038 160.451L176.193 160.381C177.486 159.793 182.154 158.074 183.734 152.678H183.742C184.33 150.332 184.5 147.498 184.5 144.169V139.415L190.245 138.525V156.975C190.245 157.548 190.71 157.935 191.275 157.85L191.6 157.803C194.194 157.393 196.354 155.635 196.4 153.924V133.245C196.408 132.687 195.943 132.292 195.371 132.378Z" fill="#0C7315"/>
<path d="M198.729 103.314C198.249 103.391 197.862 103.058 197.862 102.578V102.57C197.862 101.138 199.023 99.7987 200.455 99.5741L204.791 98.9083C205.271 98.8309 205.658 99.1638 205.658 99.6438V99.6516C205.658 101.084 204.497 102.423 203.064 102.648L198.729 103.314ZM188.068 116.414C191.792 112.426 193.758 107.123 193.758 101.092C193.758 95.7417 192.109 91.3983 188.981 88.5336C185.838 85.6535 181.502 84.5386 176.446 85.3206C171.491 86.0871 167.009 88.5646 163.811 92.3119C160.428 96.2759 158.639 101.378 158.639 107.076C158.639 117.931 165.731 124.419 175.881 122.855C180.534 122.135 184.862 119.851 188.068 116.414ZM185.675 102.547C185.675 109.74 181.673 115.577 176.16 116.429C170.647 117.281 166.645 112.736 166.645 105.629C166.645 99.4503 169.633 92.7532 176.299 91.7234C183.716 90.5776 185.675 98.3044 185.675 102.547ZM93.6659 110.382C93.6659 123.219 86.1636 132.572 73.5437 135.545V135.847C73.4663 138.162 70.4545 140.5 66.7382 141.104C66.2737 141.166 65.8943 140.841 65.8943 140.376V136.722C59.2669 137.14 45.8418 135.8 45.8418 118.055C45.8418 102.756 56.1236 94.8281 66.0337 92.397V92.3893C66.0337 90.0434 69.0377 87.6587 72.754 87.0626C73.2263 86.9929 73.6134 87.3181 73.6134 87.7904V91.2125C83.4616 90.3995 93.6659 94.9984 93.6659 110.382ZM65.964 98.5831C59.9792 100.224 53.917 105.698 53.917 116.514C53.917 125.356 58.3998 130.543 65.964 130.551V98.5831ZM85.5907 111.551C85.5907 98.6296 77.7787 97.2127 73.5437 97.3985V129.39C77.7942 128.143 85.5907 124.117 85.5907 111.551ZM127.902 125.48V94.7197C127.902 94.2474 127.515 93.9145 127.043 93.9919L126.857 94.0229C121.283 94.9133 118.015 97.4837 116.684 99.9148L108.369 114.966C106.75 118.039 105.666 120.269 104.443 122.878C104.567 119.82 104.614 116.909 104.614 112.728V98.3276C104.614 97.8553 104.226 97.5224 103.754 97.5999L103.692 97.6076C100.069 98.165 97.0648 100.55 97.0338 102.919V133.663C97.0338 134.143 97.4209 134.469 97.8932 134.391C103.545 133.516 106.766 130.938 108.113 128.492C109.197 126.51 110.273 124.52 111.326 122.569C113.122 119.247 114.818 116.112 116.428 113.232C117.953 110.328 119.154 107.944 120.501 105.118C120.33 108.733 120.253 111.366 120.253 115.601V130.071C120.253 130.543 120.64 130.876 121.112 130.799L121.29 130.768C124.883 130.195 127.864 127.833 127.902 125.48ZM158.817 89.0291L134.801 92.7377C132.455 93.1093 130.535 95.974 130.496 98.9625V99.2025C130.496 99.6748 130.883 100.008 131.355 99.9303L141.157 98.4205V126.788C141.157 127.261 141.544 127.586 142.017 127.516L142.357 127.462C145.996 126.897 149.008 124.497 149.016 122.12V97.205L155.411 96.2217C157.757 95.8191 159.669 92.9235 159.677 89.9272V89.7569C159.684 89.2846 159.297 88.9517 158.817 89.0291ZM88.076 171.368C90.6696 170.966 92.9769 169.216 92.8607 167.443L91.4052 146.972C91.3665 146.438 90.9174 146.09 90.3754 146.167L86.5198 146.763C84.8087 147.05 83.988 148.683 83.3377 150.472L82.9893 151.455C82.9816 151.471 82.9738 151.486 82.9738 151.509L80.6047 158.292C80.0472 159.941 79.4046 161.861 78.8627 163.525C78.6691 162.976 78.4678 162.426 78.2743 161.892C78.0652 161.311 77.8716 160.769 77.7013 160.289L73.5592 149.442C73.4121 149.055 73.025 148.838 72.5837 148.908L69.3551 149.403C67.6363 149.667 66.4053 151.811 66.2272 154.088H66.2195L64.7872 173.854C64.764 174.14 64.8646 174.411 65.0582 174.589C65.2517 174.767 65.5304 174.845 65.8169 174.806L65.9795 174.783C68.6041 174.365 70.6791 172.607 70.7797 170.842L71.2288 162.217C71.2752 161.404 71.3217 160.56 71.3604 159.701C71.6004 160.436 71.8327 161.133 72.0494 161.768L76.0987 172.39C76.2458 172.777 76.6329 172.994 77.0742 172.925L77.2135 172.901V172.894C79.8072 172.491 81.4176 170.548 81.9983 169.022L85.4359 159.468C85.7688 158.493 86.063 157.641 86.3262 156.867C86.3572 157.386 86.3882 157.897 86.4191 158.392L86.4966 159.747L87.0153 170.54C87.0385 171.09 87.4953 171.454 88.045 171.361L88.076 171.368ZM106.836 171.585C108.376 168.751 109.785 165.182 111.442 160.552L117.659 143.357C117.783 143.024 117.737 142.668 117.543 142.42C117.35 142.172 117.032 142.048 116.691 142.103L115.306 142.319C112.681 142.73 111.047 144.541 110.498 146.26H110.49L106.82 157.688C106.634 158.268 106.456 158.857 106.286 159.43C106.116 158.919 105.93 158.408 105.752 157.92L100.766 145.23C100.618 144.851 100.231 144.642 99.7978 144.704L99.4029 144.766C97.2351 145.107 94.4789 147.058 95.0053 148.567L102.732 166.63C102.902 167.064 102.941 167.242 102.949 167.304C102.918 167.435 102.786 167.753 102.709 167.931C101.625 170.54 99.9991 172.197 99.5036 172.669C98.5978 173.575 97.6687 174.202 96.9951 174.597C96.5228 174.891 96.1976 175.41 96.1976 175.967C96.1976 176.726 96.817 177.245 97.5758 177.129L97.7306 177.105C99.0855 176.904 104.048 176.664 106.836 171.585ZM139.237 170.718C141.668 170.3 143.217 168.767 143.418 167.157L143.611 158.725C143.619 158.447 143.519 158.199 143.325 158.028C143.131 157.858 142.876 157.781 142.597 157.819L141.258 157.997V139.339C141.258 138.766 140.793 138.378 140.228 138.464L139.918 138.51C137.309 138.913 135.141 140.678 135.095 142.397V158.787L126.664 160.088V141.592C126.664 141.019 126.199 140.631 125.634 140.717L125.324 140.763C122.715 141.166 120.555 142.931 120.501 144.65V165.314C120.501 165.887 120.965 166.274 121.53 166.189L137.936 163.657L138.099 169.874C138.114 170.432 138.571 170.811 139.129 170.718H139.237ZM164.245 159.608C166.885 159.197 169.068 157.448 169.068 155.659V135.049C169.068 134.476 168.604 134.089 168.038 134.174L165.499 134.569C162.874 134.972 161.55 136.915 160.683 138.495L155.186 148.443C154.52 149.705 153.994 150.758 153.491 151.78C153.522 150.395 153.537 148.908 153.537 147.042V137.442C153.537 136.869 153.072 136.482 152.507 136.567L152.345 136.59C149.728 137.008 147.568 138.797 147.568 140.523V161.141C147.568 161.714 148.032 162.101 148.597 162.016L151.052 161.636C153.522 161.257 154.9 159.383 155.713 157.974C156.464 156.596 157.215 155.21 157.95 153.848C159.15 151.633 160.281 149.543 161.357 147.615C162.007 146.376 162.572 145.277 163.13 144.146C163.076 145.664 163.052 147.119 163.052 149.102V158.748C163.052 159.321 163.517 159.708 164.082 159.623L164.245 159.608ZM193.216 130.296L181.192 132.154C178.56 132.564 176.369 134.36 176.369 136.094V143.008C176.369 145.432 176.307 147.298 176.067 148.761C175.316 153.546 174.077 154.568 172.583 156.217C172.204 156.635 172.018 157.2 172.173 157.711C172.39 158.408 173.156 158.702 173.884 158.369L174.039 158.299C175.332 157.711 180 155.992 181.58 150.596H181.587C182.176 148.25 182.346 145.416 182.346 142.087V137.333L188.091 136.443V154.893C188.091 155.466 188.555 155.853 189.121 155.768L189.446 155.721C192.039 155.311 194.2 153.553 194.246 151.842V131.17C194.254 130.597 193.789 130.203 193.216 130.296Z" fill="white"/>
<path d="M200.305 101.657L204.029 101.084C203.836 101.534 203.418 101.897 202.922 101.975L199.198 102.548C199.392 102.091 199.81 101.735 200.305 101.657ZM169.204 115.965C166.959 113.867 165.604 110.422 165.604 106.132C165.604 102.579 166.518 99.1334 168.167 96.4391C170.157 93.1951 173.091 91.1821 176.637 90.6401C179.161 90.253 181.337 90.7407 183.079 92.0492C181.236 90.3072 178.813 89.6181 175.948 90.0594C172.402 90.6091 169.468 92.6144 167.478 95.8584C165.821 98.5527 164.915 101.998 164.915 105.552C164.915 110.259 166.541 113.96 169.204 115.965ZM188.305 89.9123C188.088 89.711 187.863 89.5252 187.631 89.3471C190.503 91.9873 192.021 96.021 192.021 101.007C192.021 106.643 190.209 111.567 186.779 115.245C183.83 118.404 179.835 120.518 175.522 121.183C171.279 121.842 167.586 121.013 164.776 118.799C164.784 118.807 164.784 118.807 164.791 118.814C167.671 121.454 171.62 122.469 176.211 121.764C180.524 121.098 184.519 118.992 187.468 115.826C190.898 112.148 192.71 107.224 192.71 101.588C192.71 96.5939 191.185 92.5524 188.305 89.9123ZM57.2432 129.081C54.425 126.479 52.8766 122.345 52.8766 117.01C52.8766 111.676 54.2624 107.178 56.9955 103.639C59.9221 99.8534 63.5842 98.2198 66.1314 97.523C66.1856 97.5075 66.2398 97.492 66.2939 97.4843C66.4952 97.4533 66.6811 97.4688 66.8669 97.523C66.7895 97.3604 66.6733 97.2133 66.5185 97.1049C66.263 96.9191 65.9378 96.8494 65.6049 96.8959C65.5507 96.9036 65.4965 96.9191 65.4423 96.9346C62.8951 97.6314 59.233 99.265 56.3064 103.051C53.5734 106.589 52.1875 111.087 52.1875 116.422C52.1875 122.182 53.9915 126.533 57.2432 129.081ZM72.6194 130.435C72.542 130.273 72.4955 130.087 72.4955 129.894V97.9024C72.4955 97.5075 72.6658 97.1126 72.9523 96.8029C73.2078 96.5397 73.533 96.3617 73.8736 96.3075C73.9278 96.2997 73.9743 96.292 74.0285 96.292C76.0802 96.1991 79.5255 96.47 82.3979 98.6921C79.4094 95.9281 75.5615 95.6107 73.3394 95.7113C73.2852 95.7113 73.2388 95.719 73.1846 95.7268C72.8439 95.781 72.5188 95.9513 72.2633 96.2223C71.9691 96.5242 71.8065 96.9268 71.8065 97.3217V129.313C71.8065 129.715 71.9768 130.064 72.2787 130.281C72.3871 130.35 72.5033 130.404 72.6194 130.435ZM86.7646 96.1913C90.1944 99.296 91.9364 104.034 91.9364 110.298C91.9364 116.244 90.2176 121.532 86.9659 125.597C83.7218 129.646 78.9216 132.518 73.0762 133.896C72.3639 134.067 71.8142 134.748 71.8142 135.468V135.739C71.76 136.9 70.0799 138.425 67.6024 139.153V139.912C70.4516 139.293 72.4413 137.589 72.4955 136.32V136.049C72.4955 135.329 73.0452 134.647 73.7653 134.477C79.603 133.099 84.4109 130.234 87.6472 126.177C90.8989 122.12 92.6177 116.825 92.6177 110.878C92.6177 104.212 90.6512 99.2728 86.7646 96.1913ZM71.8839 88.9833V91.1124C71.8839 91.6698 72.2168 92.0956 72.6968 92.2428C72.6194 92.0802 72.5729 91.9021 72.5729 91.6931V88.8052C72.3329 88.8594 72.1084 88.9213 71.8839 88.9833ZM65.6591 135.027C61.7879 135.274 56.4613 134.864 52.474 131.721C56.5232 135.398 62.2525 135.871 66.3482 135.607C66.503 135.6 66.6501 135.615 66.7895 135.661C66.5882 135.251 66.1701 134.996 65.6591 135.027ZM102.876 112.628C102.876 116.925 102.83 119.759 102.706 122.724C102.683 123.297 103.016 123.762 103.519 123.916C103.434 123.738 103.387 123.537 103.395 123.313C103.519 120.347 103.565 117.521 103.565 113.217V99.3424C103.325 99.3889 103.101 99.4508 102.876 99.5127V112.628ZM120.498 103.43C120.382 103.415 120.258 103.423 120.142 103.438C119.638 103.516 119.158 103.872 118.918 104.375C117.602 107.123 116.433 109.454 114.885 112.411C113.259 115.307 111.571 118.435 109.782 121.749C108.822 123.522 107.707 125.581 106.608 127.602C106.6 127.617 106.585 127.64 106.577 127.664C105.965 128.786 104.007 131.372 98.7419 132.487V133.207C104.525 132.177 106.624 129.413 107.266 128.244C107.282 128.221 107.289 128.206 107.297 128.182C108.397 126.162 109.511 124.102 110.471 122.329C112.26 119.016 113.948 115.888 115.574 112.992C117.13 110.035 118.299 107.704 119.607 104.956C119.847 104.452 120.327 104.096 120.831 104.019C120.947 104.003 121.071 103.996 121.187 104.011C121.256 104.019 121.326 104.034 121.388 104.057C121.233 103.717 120.908 103.477 120.498 103.43ZM126.173 95.8739V125.38C126.142 126.588 124.454 128.182 121.961 128.872V129.623C124.826 129.057 126.823 127.284 126.862 125.968V95.7423C126.63 95.7732 126.397 95.8197 126.173 95.8739ZM140.806 96.741L132.312 98.0495C132.266 98.2817 132.235 98.514 132.22 98.754L141.487 97.3217C141.688 97.2907 141.882 97.3062 142.052 97.3604C141.843 96.9191 141.363 96.6559 140.806 96.741ZM157.847 90.8956C157.506 92.7305 156.345 94.3177 155.052 94.55L148.672 95.5332C147.913 95.6494 147.294 96.3616 147.294 97.1204V122.027C147.294 122.685 146.806 123.444 145.954 124.125C145.126 124.791 144.034 125.302 142.873 125.597V126.332C144.29 126.084 145.652 125.496 146.643 124.706C147.495 124.025 147.983 123.266 147.983 122.608V97.7011C147.983 96.9423 148.602 96.23 149.361 96.1139L155.741 95.1306C157.196 94.8751 158.489 92.8931 158.628 90.7794L157.847 90.8956ZM76.0492 160.646C76.2196 161.126 76.4131 161.668 76.6222 162.241L76.6376 162.287C76.8235 162.798 77.017 163.332 77.2028 163.859C77.3267 164.215 77.6054 164.455 77.9461 164.556C77.9306 164.517 77.9074 164.478 77.8919 164.44C77.7061 163.905 77.5125 163.371 77.3267 162.868L77.3112 162.821C77.1022 162.241 76.9086 161.707 76.7383 161.227L72.6813 150.612L72.24 150.682L76.0492 160.646ZM71.0013 158.029C70.9471 158.037 70.8851 158.052 70.8309 158.068C70.1651 158.253 69.6618 158.881 69.6231 159.554C69.5767 160.406 69.538 161.25 69.4915 162.063L69.0425 170.641C69.0425 170.657 69.0425 170.664 69.0425 170.68C69.0038 171.423 68.0205 172.383 66.5804 172.871L66.5262 173.653C68.3689 173.289 69.6928 172.128 69.7393 171.261C69.7393 171.245 69.7393 171.23 69.7393 171.222L70.1806 162.643C70.227 161.83 70.2735 160.987 70.3122 160.135C70.3432 159.461 70.8542 158.834 71.52 158.648C71.5742 158.633 71.6361 158.617 71.6903 158.61C71.8839 158.579 72.0774 158.594 72.2555 158.648C72.031 158.192 71.5432 157.944 71.0013 158.029ZM90.3957 147.879L89.7531 147.979L91.1312 167.444C91.1467 167.653 91.0461 167.885 90.8293 168.14C90.4422 168.613 89.6524 169.147 88.6459 169.472L88.6846 170.231C90.0086 169.96 91.046 169.302 91.5183 168.729C91.7274 168.473 91.828 168.233 91.8203 168.032L90.3957 147.879ZM86.1452 155.18C86.0832 155.18 86.0136 155.188 85.9516 155.195C85.3787 155.28 84.8522 155.729 84.6509 156.318C84.4032 157.053 84.1167 157.897 83.776 158.896L80.3462 168.419C79.9591 169.426 78.9681 170.664 77.3732 171.106L77.6364 171.787C79.4791 171.462 80.6172 170.091 81.0353 169L84.4651 159.477C84.8135 158.478 85.1 157.634 85.34 156.899C85.5335 156.31 86.06 155.869 86.6407 155.776C86.7026 155.768 86.7723 155.76 86.8343 155.76C86.9659 155.76 87.0897 155.784 87.2059 155.815C87.0201 155.428 86.6252 155.18 86.1452 155.18ZM104.1 158.292C104.27 158.765 104.448 159.26 104.618 159.763C104.742 160.127 105.021 160.375 105.362 160.476C105.338 160.437 105.323 160.39 105.307 160.344C105.137 159.841 104.959 159.345 104.789 158.873L99.8877 146.408L99.7329 146.431C99.64 146.447 99.5471 146.462 99.4542 146.485L104.1 158.292ZM115.643 143.984C115.62 143.984 115.597 143.992 115.574 144L109.806 159.972C107.932 165.198 106.624 168.334 105.3 170.765C104.022 173.095 102.048 174.528 99.2838 175.139C98.8503 175.472 98.3935 175.774 97.9212 176.053L98.076 176.022C98.1922 176.007 98.3315 175.983 98.4941 175.968C98.6877 175.945 98.9045 175.914 99.16 175.875C102.358 175.379 104.595 173.901 105.996 171.346C107.32 168.915 108.629 165.779 110.502 160.553L116.541 143.845L115.643 143.984ZM124.934 142.599V160.019C124.934 160.576 125.267 161.002 125.747 161.149C125.67 160.987 125.623 160.801 125.623 160.607V142.451C125.383 142.482 125.151 142.537 124.934 142.599ZM139.528 140.338V157.921C139.528 158.478 139.861 158.912 140.341 159.051C140.264 158.888 140.217 158.703 140.217 158.501V140.183C139.977 140.229 139.745 140.276 139.528 140.338ZM141.859 159.639L141.688 166.964C141.557 167.73 140.829 168.419 139.791 168.806L139.815 169.588C141.193 169.279 142.223 168.466 142.377 167.544L142.563 159.546L141.859 159.639ZM137.593 162.001L122.216 164.37V165.059L138.282 162.581C138.483 162.55 138.677 162.566 138.847 162.62C138.638 162.171 138.15 161.908 137.593 162.001ZM152.497 138.302C152.257 138.348 152.024 138.41 151.808 138.48V146.973C151.808 148.893 151.792 150.349 151.761 151.673C151.746 152.238 152.079 152.695 152.574 152.842C152.489 152.671 152.442 152.47 152.45 152.261C152.481 150.929 152.497 149.481 152.497 147.561V138.302ZM163.134 142.482C163.018 142.467 162.894 142.475 162.778 142.49C162.283 142.568 161.811 142.908 161.563 143.404C161.029 144.48 160.471 145.564 159.821 146.818C158.745 148.746 157.614 150.829 156.43 153.027L156.414 153.051C155.71 154.351 154.959 155.745 154.192 157.154C153.193 158.888 152.117 159.756 150.708 159.98L149.291 160.197V160.886L151.397 160.561C152.806 160.344 153.882 159.469 154.881 157.735C155.648 156.326 156.406 154.932 157.103 153.639L157.119 153.616C158.311 151.409 159.434 149.334 160.51 147.407C161.168 146.16 161.718 145.076 162.252 143.992C162.5 143.497 162.972 143.156 163.467 143.079C163.591 143.063 163.707 143.055 163.831 143.071C163.901 143.079 163.971 143.094 164.033 143.11C163.862 142.769 163.545 142.529 163.134 142.482ZM167.339 136.002V155.582C167.339 156.31 166.286 157.278 164.76 157.743V158.493C166.642 158.145 168.028 156.999 168.028 156.171V135.894L167.339 136.002ZM187.739 134.771L181.995 135.661C181.236 135.778 180.617 136.49 180.617 137.249V142.002C180.617 145.595 180.408 148.072 179.935 150.016C179.928 150.039 179.92 150.07 179.912 150.093C179.006 153.206 176.908 154.87 175.236 155.807C174.895 156.233 174.547 156.612 174.19 156.999C174.082 157.115 173.981 157.232 173.873 157.348C173.865 157.363 173.858 157.371 173.85 157.379L173.989 157.317C174.074 157.278 174.175 157.231 174.291 157.185C175.801 156.527 179.347 154.979 180.609 150.674C180.617 150.643 180.624 150.62 180.632 150.596C181.104 148.653 181.313 146.168 181.313 142.583V137.829C181.313 137.071 181.933 136.358 182.692 136.242L188.436 135.352C188.638 135.321 188.831 135.336 189.001 135.391C188.769 134.949 188.297 134.686 187.739 134.771ZM192.516 132.116V151.734C192.486 152.377 191.44 153.43 189.799 153.895V154.63C191.835 154.305 193.167 153.051 193.206 152.315V132.007L192.516 132.116Z" fill="#007D43"/>
<path d="M114.995 190.329L114.956 193.999L118.618 193.395L118.657 189.725L121.049 189.33L120.949 198.946L118.556 199.341L118.595 195.292L114.933 195.896L114.894 199.945L112.502 200.34L112.603 190.724L114.995 190.329Z" fill="#067611"/>
<path d="M132.569 192.125C132.531 195.656 130.061 197.645 127.645 198.04C124.974 198.482 122.915 196.972 122.946 193.875C122.977 190.716 125.044 188.44 127.908 187.967C130.727 187.503 132.6 189.206 132.569 192.125ZM125.415 193.41C125.4 195.268 126.298 196.515 127.738 196.275C129.101 196.05 130.069 194.548 130.092 192.597C130.107 191.095 129.465 189.47 127.823 189.74C126.135 190.019 125.431 191.808 125.415 193.41Z" fill="#067611"/>
<path d="M134.554 190.276C134.569 189.014 134.538 187.992 134.507 187.094L136.613 186.745L136.714 188.208L136.753 188.201C137.465 187.001 138.58 186.203 140.02 185.963C142.203 185.599 143.992 187.194 143.961 190.198C143.922 193.675 141.746 195.711 139.586 196.067C138.402 196.26 137.411 195.912 136.931 195.223L136.892 195.231L136.838 200.209L134.445 200.604L134.554 190.276ZM136.923 192.273C136.923 192.513 136.938 192.722 136.977 192.931C137.217 193.876 138.053 194.449 139.083 194.278C140.6 194.023 141.514 192.598 141.53 190.702C141.545 189.006 140.74 187.759 139.207 188.015C138.216 188.178 137.287 189.06 137.023 190.167C136.985 190.369 136.938 190.593 136.938 190.794L136.923 192.273Z" fill="#067611"/>
<path d="M146.149 185.166L149.169 184.662L150.469 188.626C150.655 189.207 150.98 190.237 151.182 191.011L151.22 191.003C151.422 190.283 151.847 188.952 152.165 187.93L153.45 183.95L156.47 183.447L156.996 192.954L154.759 193.326L154.627 189.168C154.596 188.247 154.534 186.939 154.526 185.793L154.464 185.8C154.139 186.962 153.977 187.496 153.458 189.099L151.894 193.674L150.16 193.961L148.82 189.966C148.557 189.106 148.224 187.759 148 186.908L147.922 186.923C147.891 188.115 147.837 189.424 147.767 190.361L147.527 194.518L145.367 194.874L146.149 185.166Z" fill="#067611"/>
<path d="M114.083 189.632L114.044 193.302L117.706 192.698L117.745 189.028L120.137 188.633L120.037 198.249L117.644 198.644L117.683 194.595L114.021 195.199L113.982 199.248L111.59 199.643L111.69 190.027L114.083 189.632Z" fill="white"/>
<path d="M131.657 191.429C131.618 194.959 129.149 196.949 126.733 197.344C124.062 197.785 122.003 196.275 122.034 193.179C122.065 190.02 124.132 187.743 126.996 187.271C129.822 186.807 131.688 188.51 131.657 191.429ZM124.511 192.714C124.496 194.572 125.394 195.819 126.834 195.579C128.196 195.354 129.164 193.852 129.187 191.901C129.203 190.399 128.56 188.773 126.919 189.044C125.223 189.323 124.527 191.111 124.511 192.714Z" fill="white"/>
<path d="M133.64 189.585C133.655 188.323 133.624 187.301 133.593 186.403L135.699 186.055L135.8 187.518L135.838 187.51C136.551 186.31 137.666 185.513 139.106 185.273C141.289 184.909 143.077 186.504 143.047 189.508C143.008 192.984 140.832 195.02 138.672 195.377C137.488 195.57 136.497 195.222 136.017 194.533L135.978 194.54L135.924 199.519L133.531 199.913L133.64 189.585ZM136.009 191.575C136.009 191.815 136.024 192.024 136.063 192.233C136.303 193.178 137.139 193.751 138.169 193.58C139.686 193.325 140.6 191.9 140.615 190.003C140.631 188.308 139.826 187.061 138.293 187.317C137.302 187.479 136.373 188.362 136.109 189.469C136.071 189.67 136.024 189.895 136.024 190.096L136.009 191.575Z" fill="white"/>
<path d="M145.245 184.468L148.264 183.965L149.565 187.929C149.751 188.509 150.076 189.539 150.277 190.313L150.316 190.306C150.517 189.585 150.943 188.254 151.261 187.232L152.546 183.252L155.565 182.749L156.092 192.257L153.854 192.628L153.723 188.471C153.692 187.549 153.63 186.241 153.622 185.095L153.56 185.103C153.235 186.264 153.072 186.798 152.554 188.401L150.99 192.977L149.255 193.263L147.916 189.268C147.653 188.409 147.32 187.062 147.095 186.21L147.018 186.225C146.987 187.418 146.933 188.726 146.863 189.663L146.623 193.82L144.463 194.177L145.245 184.468Z" fill="white"/>
<defs>
<linearGradient id="paint0_linear_1537_40795" x1="126.428" y1="-0.00178073" x2="126.428" y2="255.002" gradientUnits="userSpaceOnUse">
<stop offset="0.1524" stop-color="#0B7425"/>
<stop offset="1" stop-color="#52B121"/>
</linearGradient>
<radialGradient id="paint1_radial_1537_40795" cx="0" cy="0" r="1" gradientUnits="userSpaceOnUse" gradientTransform="translate(-514.448 2049.78) scale(172.213 172.213)">
<stop offset="0.1524" stop-color="#FFF8A5"/>
<stop offset="1" stop-color="#7DC242"/>
</radialGradient>
<radialGradient id="paint2_radial_1537_40795" cx="0" cy="0" r="1" gradientUnits="userSpaceOnUse" gradientTransform="translate(164.012 128.213) scale(105.162 105.162)">
<stop offset="0.1524" stop-color="#FFF8A5"/>
<stop offset="1" stop-color="#7DC242"/>
</radialGradient>
<linearGradient id="paint3_linear_1537_40795" x1="60.9284" y1="192.132" x2="208.326" y2="192.132" gradientUnits="userSpaceOnUse">
<stop offset="0.0286" stop-color="#B0FE30"/>
<stop offset="0.5" stop-color="#68DE13"/>
<stop offset="1" stop-color="#AFFE30"/>
</linearGradient>
</defs>
</svg>
