<svg width="163" height="94" viewBox="0 0 163 94" fill="none" xmlns="http://www.w3.org/2000/svg">
    <path d="M155.206 18.6011C154.72 18.6794 154.328 18.3424 154.328 17.8564V17.8485C154.328 16.3984 155.504 15.0422 156.954 14.8149L161.344 14.1408C161.83 14.0624 162.222 14.3995 162.222 14.8855V14.8933C162.222 16.3435 161.046 17.6996 159.596 17.9269L155.206 18.6011ZM144.412 31.8643C148.183 27.8274 150.174 22.4578 150.174 16.3513C150.174 10.9347 148.504 6.53713 145.337 3.63677C142.155 0.720727 137.765 -0.408058 132.646 0.383663C127.629 1.15971 123.091 3.66812 119.853 7.46211C116.428 11.4756 114.617 16.6414 114.617 22.4107C114.617 33.4008 121.797 39.9697 132.074 38.3862C136.785 37.6572 141.167 35.3448 144.412 31.8643ZM141.99 17.825C141.99 25.1073 137.937 31.0177 132.356 31.88C126.775 32.7423 122.722 28.1409 122.722 20.9449C122.722 14.6895 125.748 7.90892 132.497 6.86635C140.007 5.70621 141.99 13.5294 141.99 17.825ZM48.8334 25.7579C48.8334 38.7547 41.2376 48.2239 28.4604 51.234V51.5398C28.382 53.8836 25.3327 56.2509 21.5701 56.8623C21.0997 56.925 20.7156 56.5958 20.7156 56.1255V52.4256C14.0056 52.8489 0.413086 51.4927 0.413086 33.5262C0.413086 18.0367 10.823 10.0097 20.8567 7.54835V7.5405C20.8567 5.16534 23.8982 2.75098 27.6608 2.1474C28.139 2.07685 28.5309 2.40608 28.5309 2.88425V6.34901C38.5019 5.52594 48.8334 10.1822 48.8334 25.7579ZM20.7862 13.8116C14.7268 15.4734 8.58898 21.0154 8.58898 31.9663C8.58898 40.9182 13.1276 46.1702 20.7862 46.178V13.8116ZM40.6576 26.9416C40.6576 13.8586 32.7482 12.4241 28.4604 12.6122V45.0022C32.7639 43.7402 40.6576 39.664 40.6576 26.9416ZM83.4967 41.0436V9.89999C83.4967 9.42183 83.1047 9.08476 82.6266 9.16314L82.4385 9.19448C76.7945 10.0959 73.4865 12.6984 72.1382 15.1598L63.7194 30.3985C62.0811 33.5105 60.9836 35.7681 59.7451 38.4098C59.8705 35.3134 59.9175 32.366 59.9175 28.1331V13.5529C59.9175 13.0747 59.5256 12.7376 59.0474 12.816L58.9847 12.8239C55.3161 13.3883 52.2747 15.8026 52.2433 18.2013V49.3292C52.2433 49.8152 52.6353 50.1445 53.1134 50.0661C58.8358 49.1803 62.0967 46.57 63.4607 44.0929C64.5581 42.0862 65.6477 40.0716 66.7138 38.0962C68.5324 34.7334 70.2491 31.5586 71.8796 28.6426C73.4238 25.703 74.6388 23.2887 76.0028 20.4275C75.8303 24.0882 75.7519 26.7534 75.7519 31.0413V45.692C75.7519 46.1702 76.1439 46.5072 76.622 46.4289L76.8023 46.3975C80.4396 45.8174 83.4575 43.4266 83.4967 41.0436ZM114.797 4.13846L90.4811 7.89324C88.1059 8.2695 86.1619 11.1699 86.1227 14.1957V14.4387C86.1227 14.9168 86.5146 15.2539 86.9928 15.1755L96.9167 13.6469V42.3684C96.9167 42.8465 97.3087 43.1758 97.7868 43.1052L98.1318 43.0503C101.816 42.4781 104.865 40.0481 104.873 37.6415V12.4162L111.348 11.4207C113.723 11.0131 115.659 8.08139 115.667 5.04777V4.87531C115.675 4.39714 115.283 4.06007 114.797 4.13846ZM43.1738 87.5042C45.7998 87.0966 48.1358 85.325 48.0182 83.5299L46.5445 62.8041C46.5053 62.2632 46.0507 61.9105 45.5019 61.9889L41.5982 62.5925C39.8658 62.8825 39.0349 64.5365 38.3765 66.3473L38.0237 67.3428C38.0159 67.3585 38.008 67.3742 38.008 67.3977L35.6094 74.2645C35.045 75.9342 34.3943 77.8782 33.8456 79.5635C33.6497 79.007 33.4459 78.4504 33.2499 77.9095C33.0382 77.3216 32.8423 76.7729 32.6698 76.2869L28.476 65.3047C28.3271 64.9128 27.9352 64.6933 27.4884 64.7638L24.2196 65.2655C22.4793 65.532 21.233 67.7034 21.0527 70.008H21.0449L19.5947 90.0205C19.5711 90.3105 19.6731 90.5849 19.869 90.7652C20.065 90.9455 20.3472 91.0239 20.6372 90.9847L20.8018 90.9612C23.4592 90.5379 25.56 88.7584 25.6619 86.9712L26.1166 78.2387C26.1636 77.4157 26.2106 76.5612 26.2498 75.6911C26.4928 76.4358 26.728 77.1413 26.9475 77.7841L31.0472 88.539C31.1961 88.9309 31.588 89.1504 32.0349 89.0798L32.176 89.0564V89.0485C34.802 88.6409 36.4324 86.6733 37.0204 85.1291L40.5008 75.456C40.8379 74.4683 41.1357 73.606 41.4023 72.8222C41.4336 73.3474 41.465 73.8647 41.4963 74.3664L41.5747 75.7382L42.0999 86.6655C42.1234 87.222 42.5859 87.5905 43.1425 87.4964L43.1738 87.5042ZM62.1673 87.7237C63.7272 84.8547 65.1539 81.241 66.8314 76.5534L73.1259 59.1434C73.2514 58.8063 73.2043 58.4458 73.0084 58.1949C72.8124 57.9441 72.491 57.8187 72.1461 57.8735L70.7429 58.093C68.0856 58.5085 66.4316 60.3427 65.875 62.083H65.8672L62.1516 73.6531C61.9635 74.241 61.7832 74.8367 61.6107 75.4168C61.4383 74.8994 61.2501 74.3821 61.0698 73.8882L56.0216 61.0404C55.8727 60.6563 55.4808 60.4446 55.0418 60.5074L54.642 60.5701C52.4471 60.915 49.6565 62.8903 50.1896 64.4189L58.0127 82.7069C58.1852 83.1459 58.2244 83.3261 58.2322 83.3889C58.2008 83.5221 58.0676 83.8435 57.9892 84.0238C56.8918 86.6655 55.2456 88.343 54.7439 88.8211C53.8268 89.7383 52.8861 90.3733 52.2041 90.773C51.726 91.0709 51.3967 91.5961 51.3967 92.1605C51.3967 92.9287 52.0238 93.4539 52.7921 93.3363L52.9488 93.3128C54.3206 93.109 59.3453 92.866 62.1673 87.7237ZM94.9727 86.8458C97.4341 86.4225 99.0019 84.8704 99.2057 83.2399L99.4016 74.7035C99.4095 74.4213 99.3076 74.1704 99.1116 73.998C98.9156 73.8255 98.657 73.7471 98.3748 73.7863L97.0186 73.9666V55.0751C97.0186 54.495 96.5483 54.1031 95.9761 54.1893L95.6625 54.2363C93.0209 54.6439 90.826 56.4312 90.7789 58.1714V74.7662L82.2425 76.0831V57.3562C82.2425 56.7761 81.7721 56.3841 81.1999 56.4704L80.8864 56.5174C78.2447 56.925 76.0576 58.7123 76.0028 60.4525V81.3743C76.0028 81.9543 76.4731 82.3463 77.0453 82.2601L93.6558 79.6968L93.8204 85.9913C93.8361 86.5557 94.2986 86.9399 94.863 86.8458H94.9727ZM120.292 75.5971C122.965 75.1816 125.176 73.4101 125.176 71.5993V50.7324C125.176 50.1523 124.705 49.7604 124.133 49.8466L121.562 50.2464C118.905 50.654 117.564 52.6215 116.686 54.2206L111.121 64.2935C110.447 65.5712 109.913 66.6373 109.404 67.672C109.435 66.2689 109.451 64.7638 109.451 62.8747V53.1546C109.451 52.5745 108.981 52.1825 108.408 52.2688L108.244 52.2923C105.594 52.7156 103.407 54.5263 103.407 56.2744V77.1492C103.407 77.7293 103.878 78.1212 104.45 78.035L106.935 77.6508C109.435 77.2667 110.831 75.3698 111.654 73.9431C112.414 72.5478 113.174 71.1446 113.919 69.765C115.134 67.5231 116.279 65.4066 117.368 63.4548C118.027 62.2005 118.599 61.0874 119.163 59.943C119.108 61.4794 119.085 62.9531 119.085 64.9598V74.727C119.085 75.307 119.555 75.699 120.127 75.6128L120.292 75.5971ZM149.625 45.9193L137.451 47.8006C134.786 48.2161 132.568 50.0347 132.568 51.7906V58.7907C132.568 61.2442 132.505 63.1334 132.262 64.6149C131.502 69.4593 130.247 70.494 128.734 72.1637C128.35 72.587 128.162 73.1592 128.319 73.6766C128.539 74.3821 129.315 74.6799 130.051 74.3429L130.208 74.2723C131.517 73.6766 136.244 71.9364 137.843 66.4727H137.851C138.447 64.0976 138.619 61.2285 138.619 57.8578V53.0448L144.436 52.1434V70.8233C144.436 71.4033 144.906 71.7953 145.478 71.7091L145.807 71.662C148.433 71.2466 150.62 69.4671 150.667 67.7348V46.8051C150.675 46.225 150.205 45.8253 149.625 45.9193Z" fill="white"/>
    <path d="M156.805 16.9236L160.576 16.3435C160.38 16.7982 159.956 17.1666 159.455 17.245L155.684 17.825C155.88 17.3625 156.304 17.002 156.805 16.9236ZM125.317 31.4097C123.043 29.2854 121.672 25.7971 121.672 21.4544C121.672 17.8564 122.597 14.3681 124.266 11.6402C126.281 8.35575 129.252 6.31764 132.842 5.76893C135.397 5.37699 137.6 5.87084 139.364 7.1956C137.498 5.43186 135.045 4.7342 132.144 5.18102C128.554 5.73757 125.583 7.76784 123.569 11.0523C121.891 13.7802 120.974 17.2685 120.974 20.8665C120.974 25.6325 122.62 29.3794 125.317 31.4097ZM144.655 5.03208C144.436 4.82827 144.208 4.64015 143.973 4.45986C146.881 7.13289 148.418 11.2169 148.418 16.2651C148.418 21.9718 146.583 26.9572 143.111 30.6807C140.124 33.8789 136.079 36.0189 131.713 36.6931C127.417 37.3594 123.678 36.5206 120.833 34.2787C120.841 34.2865 120.841 34.2865 120.849 34.2944C123.765 36.9674 127.762 37.9943 132.411 37.281C136.777 36.6068 140.822 34.4747 143.808 31.2686C147.281 27.5452 149.115 22.5597 149.115 16.853C149.115 11.797 147.571 7.70511 144.655 5.03208ZM11.9596 44.6886C9.10624 42.0548 7.53847 37.8689 7.53847 32.4679C7.53847 27.067 8.94163 22.5126 11.7087 18.9303C14.6718 15.0971 18.3796 13.4431 20.9585 12.7376C21.0134 12.722 21.0683 12.7063 21.1231 12.6984C21.327 12.6671 21.5151 12.6828 21.7032 12.7376C21.6248 12.573 21.5073 12.4241 21.3505 12.3143C21.0918 12.1262 20.7626 12.0557 20.4255 12.1027C20.3706 12.1105 20.3158 12.1262 20.2609 12.1419C17.6819 12.8474 13.9741 14.5014 11.0111 18.3345C8.24397 21.9169 6.84082 26.4713 6.84082 31.8722C6.84082 37.7043 8.66726 42.1097 11.9596 44.6886ZM27.5275 46.0604C27.4491 45.8958 27.402 45.7077 27.402 45.5117V13.1217C27.402 12.722 27.5745 12.3222 27.8645 12.0086C28.1232 11.7421 28.4524 11.5618 28.7973 11.5069C28.8522 11.4991 28.8993 11.4913 28.9541 11.4913C31.0314 11.3972 34.5197 11.6716 37.4279 13.9213C34.4021 11.1228 30.5062 10.8015 28.2565 10.9034C28.2016 10.9034 28.1546 10.9112 28.0997 10.919C27.7548 10.9739 27.4256 11.1463 27.1669 11.4207C26.869 11.7264 26.7044 12.134 26.7044 12.5338V44.9238C26.7044 45.3314 26.8768 45.6842 27.1825 45.9037C27.2923 45.9742 27.4099 46.0291 27.5275 46.0604ZM41.849 11.3894C45.3216 14.5327 47.0853 19.3301 47.0853 25.6717C47.0853 31.6919 45.3451 37.0458 42.0528 41.1612C38.7683 45.2609 33.9082 48.1691 27.9899 49.5644C27.2688 49.7368 26.7122 50.4266 26.7122 51.1557V51.43C26.6573 52.6058 24.9563 54.1501 22.4479 54.8869V55.6552C25.3326 55.028 27.3472 53.3035 27.402 52.0179V51.7436C27.402 51.0146 27.9586 50.3247 28.6876 50.1523C34.5981 48.757 39.466 45.8566 42.7426 41.7491C46.0349 37.6415 47.7751 32.2798 47.7751 26.2596C47.7751 19.5104 45.7841 14.5092 41.849 11.3894ZM26.7828 4.09143V6.24711C26.7828 6.8115 27.1198 7.24263 27.6058 7.39157C27.5275 7.22695 27.4804 7.04667 27.4804 6.83502V3.91113C27.2374 3.966 27.0101 4.02872 26.7828 4.09143ZM20.4804 50.7089C16.561 50.9597 11.1679 50.5442 7.13086 47.3617C11.2306 51.0851 17.0313 51.5633 21.178 51.2968C21.3348 51.2889 21.4837 51.3046 21.6248 51.3516C21.421 50.9362 20.9977 50.6775 20.4804 50.7089ZM58.1616 28.0312C58.1616 32.3817 58.1145 35.2507 57.9891 38.253C57.9656 38.833 58.3026 39.3034 58.8122 39.4602C58.7259 39.2799 58.6789 39.0761 58.6867 38.8487C58.8122 35.8465 58.8592 32.9853 58.8592 28.6269V14.5798C58.6162 14.6268 58.3889 14.6895 58.1616 14.7522V28.0312ZM76.0027 18.7187C75.8851 18.703 75.7597 18.7108 75.6421 18.7265C75.1326 18.8049 74.6466 19.1655 74.4036 19.675C73.071 22.4578 71.8873 24.8172 70.3195 27.8117C68.6734 30.7434 66.9645 33.9103 65.1538 37.2653C64.1818 39.0604 63.053 41.1455 61.9398 43.1914C61.932 43.2071 61.9163 43.2306 61.9085 43.2541C61.2892 44.3908 59.306 47.0089 53.9756 48.1377V48.8667C59.8312 47.8242 61.9555 45.0257 62.6061 43.8421C62.6218 43.8185 62.6297 43.8029 62.6375 43.7794C63.7506 41.7334 64.8794 39.6483 65.8514 37.8532C67.6622 34.4982 69.3711 31.3313 71.0172 28.3996C72.5928 25.4052 73.7765 23.0457 75.1012 20.2629C75.3442 19.7534 75.8302 19.3928 76.3398 19.3144C76.4574 19.2987 76.5828 19.2909 76.7003 19.3066C76.7709 19.3144 76.8414 19.3301 76.9041 19.3536C76.7474 19.0087 76.4181 18.7657 76.0027 18.7187ZM81.7485 11.068V40.9417C81.7172 42.1645 80.0083 43.7793 77.4842 44.477V45.2374C80.3846 44.6651 82.407 42.87 82.4462 41.5374V10.9347C82.211 10.9661 81.9759 11.0131 81.7485 11.068ZM96.5639 11.9459L87.9647 13.2707C87.9177 13.5058 87.8863 13.741 87.8707 13.984L97.2537 12.5338C97.4575 12.5025 97.6535 12.5181 97.8259 12.573C97.6143 12.1262 97.1283 11.8597 96.5639 11.9459ZM113.817 6.02762C113.472 7.88542 112.296 9.49238 110.987 9.72754L104.528 10.7231C103.76 10.8406 103.133 11.5618 103.133 12.33V37.5475C103.133 38.2138 102.639 38.982 101.777 39.6718C100.938 40.3459 99.8327 40.8633 98.6569 41.1612V41.9059C100.091 41.655 101.471 41.0593 102.474 40.2597C103.337 39.5699 103.83 38.8017 103.83 38.1354V12.9179C103.83 12.1497 104.458 11.4286 105.226 11.311L111.685 10.3155C113.159 10.0568 114.468 8.05002 114.609 5.91002L113.817 6.02762ZM31 76.6475C31.1725 77.1335 31.3685 77.6822 31.5801 78.2623L31.5958 78.3093C31.7839 78.8267 31.9799 79.3675 32.168 79.9006C32.2935 80.2612 32.5757 80.5042 32.9206 80.6061C32.9049 80.5669 32.8814 80.5277 32.8657 80.4885C32.6776 79.9476 32.4816 79.4068 32.2935 78.8972L32.2778 78.8502C32.0661 78.2623 31.8702 77.7214 31.6977 77.2354L27.5902 66.4884L27.1434 66.5589L31 76.6475ZM25.8891 73.998C25.8343 74.0058 25.7716 74.0215 25.7167 74.0372C25.0425 74.2253 24.533 74.8602 24.4938 75.5422C24.4468 76.4045 24.4076 77.2589 24.3606 78.082L23.9059 86.7674C23.9059 86.7831 23.9059 86.7909 23.9059 86.8066C23.8667 87.5591 22.8712 88.5311 21.4132 89.025L21.3583 89.8167C23.2239 89.4483 24.5644 88.2725 24.6114 87.3945C24.6114 87.3789 24.6114 87.3631 24.6114 87.3553L25.0582 78.6699C25.1053 77.8468 25.1523 76.9924 25.1915 76.1301C25.2229 75.4481 25.7402 74.8132 26.4144 74.6251C26.4692 74.6094 26.5319 74.5937 26.5868 74.5859C26.7828 74.5545 26.9787 74.5702 27.159 74.6251C26.9317 74.1626 26.4379 73.9118 25.8891 73.998ZM45.5254 63.7213L44.8748 63.8232L46.2701 83.53C46.2857 83.7416 46.1838 83.9768 45.9644 84.2355C45.5724 84.7136 44.7729 85.2545 43.7538 85.5837L43.793 86.352C45.1334 86.0776 46.1838 85.4113 46.662 84.8312C46.8736 84.5725 46.9756 84.3295 46.9677 84.1257L45.5254 63.7213ZM41.2219 71.1133C41.1592 71.1133 41.0886 71.1211 41.0259 71.129C40.4458 71.2152 39.9128 71.6698 39.709 72.2656C39.4581 73.0103 39.1681 73.8647 38.8232 74.8759L35.3506 84.5176C34.9587 85.5367 33.9553 86.7909 32.3405 87.2377L32.607 87.9276C34.4727 87.5983 35.6249 86.2108 36.0482 85.1056L39.5209 75.4638C39.8736 74.4526 40.1636 73.5982 40.4066 72.8535C40.6026 72.2577 41.1356 71.811 41.7236 71.7169C41.7863 71.7091 41.8568 71.7012 41.9195 71.7012C42.0528 71.7012 42.1782 71.7247 42.2958 71.7561C42.1076 71.3641 41.7079 71.1133 41.2219 71.1133ZM59.4001 74.2645C59.5725 74.7427 59.7528 75.2443 59.9253 75.7539C60.0507 76.1223 60.3329 76.3731 60.6778 76.475C60.6543 76.4358 60.6386 76.3888 60.6229 76.3418C60.4505 75.8323 60.2702 75.3306 60.0977 74.8524L55.1358 62.2319L54.979 62.2554C54.8849 62.2711 54.7909 62.2868 54.6968 62.3103L59.4001 74.2645ZM71.0878 59.7784C71.0642 59.7784 71.0407 59.7862 71.0172 59.794L65.1773 75.9655C63.2803 81.2567 61.9555 84.4314 60.6151 86.8928C59.3217 89.2523 57.3228 90.7025 54.5243 91.3217C54.0854 91.6588 53.6229 91.9645 53.1447 92.2467L53.3015 92.2154C53.4191 92.1997 53.5602 92.1762 53.7248 92.1605C53.9208 92.137 54.1402 92.1056 54.3989 92.0664C57.6363 91.5648 59.9018 90.0676 61.3206 87.4807C62.661 85.0194 63.9858 81.8446 65.8828 76.5534L71.9971 59.6373L71.0878 59.7784ZM80.4943 58.3752V76.0126C80.4943 76.577 80.8314 77.0081 81.3174 77.157C81.239 76.9924 81.192 76.8043 81.192 76.6083V58.2263C80.949 58.2576 80.7138 58.3125 80.4943 58.3752ZM95.2705 56.0863V73.8882C95.2705 74.4526 95.6076 74.8916 96.0936 75.0327C96.0152 74.8681 95.9681 74.6799 95.9681 74.4761V55.9295C95.7251 55.9766 95.49 56.0236 95.2705 56.0863ZM97.63 75.6285L97.4575 83.0439C97.3242 83.82 96.5874 84.5176 95.537 84.9096L95.5605 85.7013C96.9558 85.3878 97.9984 84.5647 98.1552 83.6319L98.3433 75.5344L97.63 75.6285ZM93.3108 78.0193L77.7429 80.418V81.1156L94.0084 78.6072C94.2122 78.5758 94.4082 78.5915 94.5807 78.6464C94.369 78.1917 93.8752 77.9252 93.3108 78.0193ZM108.401 54.0247C108.158 54.0717 107.922 54.1344 107.703 54.205V62.8041C107.703 64.7481 107.687 66.2219 107.656 67.5623C107.64 68.1345 107.977 68.597 108.479 68.746C108.393 68.5735 108.346 68.3697 108.353 68.1581C108.385 66.8098 108.401 65.3439 108.401 63.3999V54.0247ZM119.171 58.2576C119.053 58.2419 118.928 58.2498 118.81 58.2655C118.309 58.3439 117.831 58.6888 117.58 59.1904C117.039 60.28 116.474 61.3775 115.816 62.6474C114.726 64.5993 113.582 66.7079 112.383 68.9341L112.367 68.9576C111.654 70.2745 110.893 71.6855 110.117 73.1122C109.106 74.8681 108.016 75.746 106.59 75.9734L105.155 76.1928V76.8905L107.287 76.5613C108.714 76.3418 109.804 75.456 110.815 73.7001C111.591 72.2734 112.359 70.8625 113.065 69.5534L113.08 69.5298C114.287 67.2958 115.424 65.195 116.514 63.2431C117.18 61.981 117.737 60.8836 118.277 59.7862C118.528 59.2845 119.006 58.9396 119.508 58.8612C119.634 58.8455 119.751 58.8377 119.877 58.8534C119.947 58.8612 120.018 58.8769 120.08 58.8926C119.908 58.5477 119.586 58.3047 119.171 58.2576ZM123.428 51.6965V71.5209C123.428 72.2578 122.361 73.2376 120.817 73.7079V74.4683C122.722 74.1155 124.125 72.9554 124.125 72.1166V51.5868L123.428 51.6965ZM144.083 50.4502L138.266 51.3516C137.498 51.4692 136.871 52.1904 136.871 52.9586V57.7716C136.871 61.4088 136.659 63.9173 136.181 65.8848C136.173 65.9083 136.166 65.9397 136.158 65.9632C135.241 69.1144 133.116 70.7997 131.423 71.7482C131.078 72.1794 130.725 72.5635 130.365 72.9554C130.255 73.073 130.153 73.1906 130.043 73.3082C130.036 73.3238 130.028 73.3317 130.02 73.3395L130.161 73.2768C130.247 73.2376 130.349 73.1906 130.467 73.1435C131.995 72.4772 135.586 70.9095 136.863 66.5511C136.871 66.5197 136.879 66.4962 136.887 66.4727C137.365 64.5052 137.577 61.9889 137.577 58.3595V53.5465C137.577 52.7783 138.204 52.0571 138.972 51.9395L144.788 51.0381C144.992 51.0067 145.188 51.0224 145.361 51.0773C145.125 50.6305 144.647 50.3639 144.083 50.4502ZM148.919 47.7615V67.625C148.888 68.2756 147.83 69.3417 146.168 69.812V70.5567C148.23 70.2275 149.578 68.9576 149.617 68.2129V47.6517L148.919 47.7615Z" fill="#007D43"/>
</svg>
