<svg width="84" height="49" viewBox="0 0 84 49" fill="none" xmlns="http://www.w3.org/2000/svg">
<path d="M80.3563 10.0526C80.1056 10.0896 79.9014 9.91835 79.9014 9.66837C79.9014 8.9138 80.5142 8.21015 81.2662 8.09442L83.5457 7.74722C83.7964 7.71019 84.0007 7.88147 84.0007 8.13145C84.0007 8.88602 83.3878 9.58967 82.6358 9.70541L80.3563 10.0526Z" fill="white"/>
<path d="M75.2327 2.30897C73.58 0.799819 71.3006 0.21653 68.6451 0.628536C66.0407 1.03128 63.6823 2.33211 62.0064 4.2903C60.2283 6.36885 59.2905 9.04457 59.2905 12.0258C59.2905 17.7152 63.0184 21.1177 68.3526 20.2984C70.7992 19.9234 73.074 18.7244 74.7592 16.9236C76.7137 14.8312 77.7489 12.0536 77.7489 8.8918C77.7489 6.08646 76.8808 3.80885 75.2374 2.30897H75.2327ZM68.4965 16.9282C65.5996 17.3727 63.4966 14.9932 63.4966 11.2666C63.4966 8.03076 65.0657 4.52176 68.5708 3.98014C72.4705 3.37833 73.4964 7.42895 73.4964 9.65101C73.4964 13.4192 71.3934 16.4792 68.4965 16.9282Z" fill="white"/>
<path d="M14.5966 3.70545V1.90928C14.5966 1.6593 14.397 1.48802 14.1463 1.52968C12.1918 1.84447 10.6134 3.09438 10.6134 4.32114C5.40455 5.59882 0.000732422 9.75592 0.000732422 17.7738C0.000732422 27.0741 7.05262 27.7777 10.5391 27.5601V29.472C10.5391 29.7174 10.7387 29.8887 10.9801 29.8563C12.9346 29.5415 14.5177 28.3147 14.5595 27.1018V26.9444C21.1889 25.3844 25.135 20.4866 25.135 13.7602C25.135 5.70067 19.7729 3.28881 14.5966 3.70545ZM10.5762 24.3289C6.6023 24.3243 4.24394 21.6069 4.24394 16.973C4.24394 11.3021 7.42866 8.43657 10.5762 7.57552V24.3289ZM14.5595 23.7225V6.9552C16.7832 6.85799 20.8918 7.59867 20.8918 14.3713C20.8918 21.1439 16.7925 23.0651 14.5595 23.7225Z" fill="white"/>
<path d="M43.1348 21.6771V5.55333C43.1348 5.30334 42.9305 5.13206 42.6798 5.1691L42.5824 5.18298C39.653 5.65054 37.9353 6.99766 37.2342 8.27072L32.8657 16.159C32.0161 17.77 31.4451 18.9366 30.7998 20.3022C30.8648 18.7005 30.888 17.1728 30.888 14.9832V7.43744C30.888 7.18746 30.6837 7.01618 30.4331 7.05784H30.4006C28.4972 7.35875 26.9187 8.60865 26.9001 9.84467V25.9592C26.9001 26.2092 27.1044 26.3805 27.3505 26.3388C30.3216 25.8805 32.0115 24.5288 32.7218 23.2464C33.2882 22.2095 33.8545 21.1679 34.4116 20.1402C35.3541 18.3996 36.2454 16.7562 37.095 15.247C37.8981 13.724 38.5295 12.4741 39.2351 10.9974C39.1469 12.8954 39.1052 14.2703 39.1052 16.4923V24.0797C39.1052 24.3297 39.3094 24.501 39.5555 24.4639L39.6483 24.4501C41.5424 24.1492 43.107 22.9085 43.1255 21.6771" fill="white"/>
<path d="M59.3818 2.57193L46.7589 4.51623C45.524 4.71066 44.5166 6.21517 44.4934 7.77987V7.90486C44.4934 8.15484 44.6977 8.32613 44.9437 8.28909L50.0922 7.49749V22.3621C50.0922 22.6121 50.2965 22.7834 50.5425 22.7417L50.7236 22.7139C52.6363 22.4177 54.2194 21.1585 54.224 19.9132V6.85864L57.5851 6.34016C58.82 6.13185 59.8228 4.61344 59.8274 3.04412V2.95616C59.8274 2.70618 59.6232 2.53489 59.3725 2.57656" fill="white"/>
<path d="M22.2008 45.7211C23.561 45.5128 24.7727 44.5916 24.717 43.6657L23.951 32.935C23.9324 32.6527 23.6956 32.4721 23.4078 32.5138L21.3837 32.8239C20.483 32.9767 20.0513 33.8331 19.7078 34.7682L19.5267 35.2867C19.5267 35.2867 19.5221 35.3052 19.5174 35.3145L18.2686 38.8698C17.9761 39.7355 17.6372 40.74 17.354 41.6103C17.2519 41.3233 17.1451 41.0317 17.0476 40.7539C16.9362 40.4484 16.8341 40.166 16.7459 39.916L14.5686 34.2312C14.4896 34.0275 14.2854 33.9164 14.0579 33.9535L12.3634 34.2127C11.4581 34.3516 10.8128 35.4719 10.72 36.6662L9.95396 47.0219C9.94467 47.1747 9.99574 47.3136 10.0979 47.4062C10.2 47.4988 10.3439 47.5404 10.4971 47.5173L10.5807 47.5034C11.9595 47.2858 13.0505 46.36 13.1015 45.4387L13.3383 40.9205C13.3615 40.4947 13.3847 40.0502 13.4079 39.6012C13.5333 39.9854 13.654 40.3558 13.7701 40.6845L15.8963 46.2535C15.9752 46.4572 16.1795 46.5683 16.407 46.5312L16.4812 46.5174C17.8461 46.3044 18.6911 45.2813 18.9928 44.4851L20.7987 39.4808C20.9751 38.9716 21.1283 38.5226 21.263 38.1198C21.2769 38.393 21.2955 38.6615 21.3094 38.9207L21.3512 39.6336L21.6251 45.2906C21.639 45.5776 21.8758 45.7674 22.1683 45.7211H22.1961H22.2008Z" fill="white"/>
<path d="M32.0577 45.8417C32.8655 44.3603 33.6083 42.4855 34.4811 40.0597L37.7447 31.0465C37.8097 30.8706 37.7865 30.6854 37.6844 30.5558C37.5822 30.4262 37.4151 30.3614 37.2387 30.3892L36.5098 30.5003C35.131 30.7178 34.2722 31.6668 33.9843 32.5649L32.0531 38.5552C31.9556 38.8561 31.8627 39.1663 31.7699 39.4718C31.677 39.2033 31.5842 38.9394 31.4913 38.6802L28.8684 32.0279C28.7894 31.8289 28.5852 31.7178 28.3577 31.7502L28.1534 31.7826C27.0114 31.9631 25.5676 32.9862 25.8415 33.7732L29.9036 43.24C29.9918 43.4669 30.015 43.5595 30.0197 43.5919C30.0011 43.6613 29.9315 43.828 29.8943 43.9206C29.3233 45.2862 28.4691 46.1565 28.2091 46.4065C27.731 46.8833 27.2435 47.212 26.8907 47.4157C26.6446 47.5684 26.4729 47.8416 26.4729 48.1332C26.4729 48.5313 26.7978 48.8044 27.1971 48.7443L27.2806 48.7304C27.9909 48.6193 30.6 48.4943 32.0624 45.8324" fill="white"/>
<path d="M49.0901 45.3846C50.3667 45.1671 51.1792 44.3616 51.2859 43.519L51.3881 39.1027C51.3881 38.9592 51.337 38.8249 51.2395 38.737C51.142 38.649 51.0027 38.6074 50.8588 38.6305L50.1532 38.7231V28.9414C50.1532 28.6405 49.9118 28.4368 49.61 28.4831L49.4475 28.5063C48.078 28.7192 46.936 29.6404 46.9127 30.5431V39.1305L42.4838 39.811V30.1173C42.4838 29.8164 42.2424 29.6127 41.9407 29.659L41.7782 29.6821C40.4087 29.8951 39.2713 30.8163 39.2434 31.719V42.5515C39.2434 42.8524 39.4848 43.0561 39.7866 43.0098L48.4123 41.6812L48.4958 44.9402C48.5051 45.2319 48.7419 45.4309 49.039 45.3846L49.0901 45.3754V45.3846Z" fill="white"/>
<path d="M62.233 39.5576C63.6164 39.3447 64.7677 38.4281 64.7677 37.4884V26.6836C64.7677 26.3827 64.5263 26.179 64.2246 26.2253L62.8922 26.429C61.5134 26.6419 60.817 27.6604 60.3621 28.489L57.4745 33.7062C57.1263 34.3682 56.8477 34.9191 56.5831 35.4561C56.6017 34.7293 56.6063 33.947 56.6063 32.9748V27.9428C56.6063 27.6419 56.3649 27.4382 56.0632 27.4845L55.9796 27.4984C54.6054 27.7206 53.468 28.6557 53.468 29.563V40.3678C53.468 40.6687 53.7094 40.8724 54.0112 40.8261L55.3018 40.627C56.597 40.4279 57.3259 39.4465 57.753 38.7105C58.1476 37.9883 58.5422 37.2615 58.9275 36.5486C59.5543 35.3867 60.1485 34.2895 60.7195 33.2803C61.0631 32.6276 61.3602 32.0536 61.6527 31.4657C61.6248 32.2619 61.6109 33.0257 61.6109 34.0627V39.1179C61.6109 39.4188 61.8523 39.6224 62.1541 39.5762L62.2376 39.5623L62.233 39.5576Z" fill="white"/>
<path d="M77.4604 24.1972L71.142 25.1694C69.7585 25.3823 68.6072 26.3267 68.6072 27.2387V30.8634C68.6072 32.1318 68.5747 33.1132 68.4494 33.8771C68.0548 36.3861 67.4048 36.9231 66.6202 37.7842C66.4206 38.0018 66.3231 38.298 66.4067 38.5665C66.5181 38.9322 66.922 39.085 67.3073 38.9137L67.3862 38.8767C68.0687 38.5712 70.5199 37.6685 71.3509 34.84C71.6619 33.6132 71.7502 32.1272 71.7502 30.382V27.8914L74.7724 27.4285V37.099C74.7724 37.4 75.0138 37.6036 75.3156 37.5574L75.4873 37.5296C76.8522 37.3166 77.985 36.3954 78.0128 35.4973V24.6602C78.0128 24.3593 77.7714 24.1556 77.4697 24.2019" fill="white"/>
</svg>
