<svg width="256" height="259" viewBox="0 0 256 259" fill="none" xmlns="http://www.w3.org/2000/svg">
<path d="M128 258.179C198.692 258.179 256 200.384 256 129.09C256 57.7954 198.692 0 128 0C57.3075 0 0 57.7954 0 129.09C0 200.384 57.3075 258.179 128 258.179Z" fill="url(#paint0_linear_1502_40818)"/>
<path opacity="0.45" d="M29.6774 138.724C29.6774 95.4768 54.111 57.9524 89.9108 39.1627C90.1225 39.0373 90.2479 38.7943 90.2479 38.5356C90.2479 38.1358 89.9265 37.8145 89.5267 37.8145C89.3935 37.8145 89.2681 37.838 89.1662 37.9007C47.5656 54.37 18.1465 94.9516 18.1465 142.416C18.1465 204.475 68.456 254.785 130.524 254.785C133.604 254.785 136.654 254.644 139.679 254.401C140.205 253.28 140.761 252.175 141.341 251.085C79.6028 250.701 29.6774 200.548 29.6774 138.724Z" fill="url(#paint1_radial_1502_40818)" fill-opacity="0.7"/>
<path opacity="0.45" d="M254.825 133.048C254.825 64.09 198.926 8.19141 129.96 8.19141C111.131 8.19141 93.2822 12.3695 77.2754 19.8321C89.7626 15.6383 103.136 13.365 117.042 13.365C186 13.365 241.906 69.2636 241.906 138.222C241.906 166.481 232.515 192.537 216.689 213.459C219.221 213.851 221.706 214.376 224.143 215.026C243.254 193.086 254.825 164.419 254.825 133.048Z" fill="url(#paint2_radial_1502_40818)" fill-opacity="0.7"/>
<path d="M209.539 189.056C209.218 192.231 206.56 195.202 203.605 195.688L66.4807 218.13C63.5254 218.616 61.3933 216.445 61.7147 213.27L63.0708 199.999C63.3922 196.824 66.0495 193.853 69.0048 193.367L206.129 170.925C209.084 170.439 211.217 172.61 210.895 175.785L209.539 189.056Z" fill="url(#paint3_linear_1502_40818)" fill-opacity="0.7"/>
<path d="M116.429 192.702L116.39 196.417L120.098 195.806L120.137 192.09L122.559 191.69L122.457 201.426L120.035 201.826L120.074 197.726L116.367 198.338L116.327 202.437L113.905 202.837L114.007 193.101L116.429 192.702Z" fill="#067611"/>
<path d="M134.223 194.52C134.184 198.094 131.684 200.109 129.238 200.509C126.534 200.955 124.448 199.427 124.48 196.291C124.511 193.093 126.604 190.788 129.505 190.31C132.358 189.84 134.255 191.564 134.223 194.52ZM126.98 195.821C126.965 197.702 127.874 198.964 129.332 198.721C130.712 198.494 131.692 196.973 131.715 194.998C131.731 193.477 131.08 191.831 129.418 192.105C127.709 192.388 126.996 194.198 126.98 195.821Z" fill="#067611"/>
<path d="M136.23 192.647C136.246 191.369 136.214 190.335 136.183 189.425L138.315 189.073L138.417 190.554L138.456 190.546C139.177 189.331 140.306 188.524 141.764 188.281C143.975 187.912 145.785 189.527 145.754 192.569C145.715 196.088 143.512 198.15 141.325 198.51C140.126 198.706 139.122 198.354 138.636 197.656L138.597 197.664L138.542 202.704L136.12 203.104L136.23 192.647ZM138.629 194.669C138.629 194.912 138.644 195.124 138.683 195.336C138.926 196.292 139.773 196.872 140.816 196.7C142.352 196.441 143.277 194.999 143.293 193.078C143.308 191.361 142.493 190.099 140.941 190.358C139.938 190.523 138.997 191.416 138.73 192.537C138.691 192.741 138.644 192.968 138.644 193.172L138.629 194.669Z" fill="#067611"/>
<path d="M147.973 187.473L151.031 186.964L152.347 190.977C152.536 191.565 152.865 192.608 153.069 193.391L153.108 193.384C153.312 192.655 153.743 191.306 154.064 190.272L155.365 186.242L158.423 185.733L158.956 195.359L156.69 195.735L156.557 191.526C156.526 190.593 156.463 189.268 156.455 188.108L156.392 188.116C156.063 189.292 155.898 189.833 155.373 191.455L153.79 196.088L152.034 196.378L150.678 192.333C150.411 191.463 150.074 190.099 149.847 189.237L149.768 189.253C149.737 190.46 149.682 191.784 149.612 192.733L149.369 196.942L147.182 197.303L147.973 187.473Z" fill="#067611"/>
<path d="M115.505 191.996L115.465 195.712L119.173 195.1L119.212 191.385L121.635 190.985L121.533 200.721L119.11 201.12L119.15 197.021L115.442 197.632L115.403 201.732L112.98 202.132L113.082 192.396L115.505 191.996Z" fill="white"/>
<path d="M133.299 193.815C133.259 197.39 130.759 199.404 128.313 199.804C125.609 200.251 123.524 198.722 123.555 195.587C123.586 192.388 125.679 190.084 128.58 189.606C131.441 189.135 133.33 190.86 133.299 193.815ZM126.063 195.116C126.048 196.998 126.957 198.26 128.415 198.017C129.795 197.789 130.775 196.269 130.798 194.293C130.814 192.772 130.163 191.126 128.501 191.401C126.785 191.683 126.079 193.494 126.063 195.116Z" fill="white"/>
<path d="M135.305 191.949C135.321 190.672 135.289 189.637 135.258 188.728L137.39 188.375L137.492 189.856L137.531 189.848C138.252 188.633 139.381 187.826 140.839 187.583C143.05 187.215 144.861 188.829 144.829 191.871C144.79 195.39 142.587 197.452 140.4 197.813C139.201 198.009 138.198 197.656 137.712 196.958L137.672 196.966L137.618 202.006L135.195 202.406L135.305 191.949ZM137.704 193.964C137.704 194.207 137.719 194.418 137.759 194.63C138.002 195.586 138.848 196.167 139.891 195.994C141.427 195.735 142.352 194.293 142.368 192.373C142.384 190.656 141.568 189.394 140.016 189.652C139.013 189.817 138.072 190.711 137.806 191.832C137.766 192.035 137.719 192.263 137.719 192.467L137.704 193.964Z" fill="white"/>
<path d="M147.055 186.768L150.113 186.258L151.429 190.272C151.618 190.859 151.947 191.902 152.151 192.686L152.19 192.678C152.394 191.949 152.825 190.601 153.146 189.566L154.447 185.537L157.505 185.027L158.038 194.653L155.772 195.03L155.639 190.82C155.608 189.887 155.545 188.563 155.537 187.403L155.474 187.41C155.145 188.586 154.98 189.127 154.455 190.75L152.872 195.382L151.116 195.672L149.76 191.628C149.493 190.758 149.156 189.394 148.929 188.531L148.85 188.547C148.819 189.754 148.764 191.079 148.694 192.027L148.451 196.237L146.264 196.597L147.055 186.768Z" fill="white"/>
<defs>
<linearGradient id="paint0_linear_1502_40818" x1="128.004" y1="-0.00180293" x2="128.004" y2="258.181" gradientUnits="userSpaceOnUse">
<stop offset="0.1524" stop-color="#0B7425"/>
<stop offset="1" stop-color="#52B121"/>
</linearGradient>
<radialGradient id="paint1_radial_1502_40818" cx="0" cy="0" r="1" gradientUnits="userSpaceOnUse" gradientTransform="translate(-520.863 2075.34) scale(174.36 174.36)">
<stop offset="0.1524" stop-color="#FFF8A5"/>
<stop offset="1" stop-color="#7DC242"/>
</radialGradient>
<radialGradient id="paint2_radial_1502_40818" cx="0" cy="0" r="1" gradientUnits="userSpaceOnUse" gradientTransform="translate(166.055 129.812) scale(106.473 106.473)">
<stop offset="0.1524" stop-color="#FFF8A5"/>
<stop offset="1" stop-color="#7DC242"/>
</radialGradient>
<linearGradient id="paint3_linear_1502_40818" x1="61.6893" y1="194.527" x2="210.925" y2="194.527" gradientUnits="userSpaceOnUse">
<stop offset="0.0286" stop-color="#B0FE30"/>
<stop offset="0.5" stop-color="#68DE13"/>
<stop offset="1" stop-color="#AFFE30"/>
</linearGradient>
</defs>
</svg>
