<svg width="256" height="259" viewBox="0 0 256 259" fill="none" xmlns="http://www.w3.org/2000/svg">
    <path d="M128 258.179C198.692 258.179 256 200.384 256 129.09C256 57.7954 198.692 0 128 0C57.3075 0 0 57.7954 0 129.09C0 200.384 57.3075 258.179 128 258.179Z" fill="url(#paint0_linear_0_1)"/>
    <path opacity="0.45" d="M29.6774 138.724C29.6774 95.4768 54.111 57.9524 89.9108 39.1627C90.1225 39.0373 90.2479 38.7943 90.2479 38.5356C90.2479 38.1358 89.9265 37.8145 89.5267 37.8145C89.3935 37.8145 89.2681 37.838 89.1662 37.9007C47.5656 54.37 18.1465 94.9516 18.1465 142.416C18.1465 204.475 68.456 254.785 130.524 254.785C133.604 254.785 136.654 254.644 139.679 254.401C140.205 253.28 140.761 252.175 141.341 251.085C79.6028 250.701 29.6774 200.548 29.6774 138.724Z" fill="url(#paint1_radial_0_1)"/>
    <path opacity="0.45" d="M254.825 133.048C254.825 64.09 198.926 8.19141 129.96 8.19141C111.131 8.19141 93.2822 12.3695 77.2754 19.8321C89.7626 15.6383 103.136 13.365 117.042 13.365C186 13.365 241.906 69.2636 241.906 138.222C241.906 166.481 232.515 192.537 216.689 213.459C219.221 213.851 221.706 214.376 224.143 215.026C243.254 193.086 254.825 164.419 254.825 133.048Z" fill="url(#paint2_radial_0_1)"/>
    <path d="M209.539 189.056C209.218 192.231 206.56 195.202 203.605 195.688L66.4807 218.13C63.5254 218.616 61.3933 216.445 61.7147 213.27L63.0708 199.999C63.3922 196.824 66.0495 193.853 69.0048 193.367L206.129 170.925C209.084 170.439 211.217 172.61 210.895 175.785L209.539 189.056Z" fill="url(#paint3_linear_0_1)"/>
    <path d="M203.386 106.718C202.9 106.796 202.508 106.459 202.508 105.973V105.965C202.508 104.515 203.684 103.159 205.134 102.932L209.524 102.257C210.01 102.179 210.402 102.516 210.402 103.002V103.01C210.402 104.46 209.226 105.816 207.776 106.044L203.386 106.718ZM192.592 119.981C196.362 115.944 198.353 110.574 198.353 104.468C198.353 99.0514 196.684 94.6538 193.517 91.7535C190.334 88.8374 185.944 87.7086 180.826 88.5004C175.809 89.2764 171.27 91.7848 168.033 95.5788C164.607 99.5923 162.796 104.758 162.796 110.527C162.796 121.517 169.977 128.086 180.253 126.503C184.965 125.774 189.347 123.454 192.592 119.981ZM190.17 105.942C190.17 113.224 186.117 119.134 180.536 119.997C174.954 120.859 170.902 116.258 170.902 109.062C170.902 102.806 173.928 96.0256 180.677 94.9831C188.186 93.8229 190.17 101.646 190.17 105.942ZM97.0131 113.867C97.0131 126.864 89.4173 136.333 76.6401 139.343V139.649C76.5617 141.992 73.5124 144.36 69.7497 144.971C69.2794 145.034 68.8953 144.705 68.8953 144.234V140.534C62.1853 140.958 48.5928 139.602 48.5928 121.635C48.5928 106.146 59.0027 98.1186 69.0364 95.6572V95.6494C69.0364 93.2742 72.0779 90.8598 75.8405 90.2562C76.3187 90.1857 76.7106 90.5149 76.7106 90.9931V94.4578C86.6816 93.6348 97.0131 98.2989 97.0131 113.867ZM68.9658 101.92C62.9064 103.582 56.7687 109.124 56.7687 120.075C56.7687 129.027 61.3073 134.279 68.9658 134.287V101.92ZM88.8372 115.058C88.8372 101.975 80.9279 100.541 76.6401 100.729V133.119C80.9436 131.849 88.8372 127.781 88.8372 115.058ZM131.676 129.16V98.0167C131.676 97.5385 131.284 97.2014 130.806 97.2798L130.618 97.3112C124.974 98.2126 121.666 100.815 120.318 103.277L111.899 118.515C110.261 121.627 109.163 123.885 107.925 126.526C108.05 123.43 108.097 120.483 108.097 116.25V101.67C108.097 101.191 107.705 100.854 107.227 100.933L107.164 100.941C103.496 101.505 100.454 103.919 100.423 106.318V137.446C100.423 137.932 100.815 138.261 101.293 138.183C107.015 137.297 110.276 134.687 111.64 132.21C112.738 130.203 113.827 128.188 114.893 126.213C116.712 122.85 118.429 119.675 120.059 116.759C121.604 113.82 122.819 111.405 124.182 108.544C124.01 112.205 123.932 114.87 123.932 119.158V133.809C123.932 134.287 124.324 134.624 124.802 134.546L124.982 134.514C128.619 133.934 131.637 131.535 131.676 129.16ZM162.985 92.2551L138.669 96.0099C136.293 96.3862 134.349 99.2866 134.31 102.312V102.555C134.31 103.034 134.702 103.371 135.18 103.292L145.104 101.764V130.485C145.104 130.963 145.496 131.292 145.974 131.222L146.319 131.167C150.004 130.595 153.053 128.165 153.061 125.758V100.533L159.536 99.5374C161.911 99.1298 163.847 96.1981 163.855 93.1644V92.992C163.855 92.506 163.463 92.1767 162.985 92.2551ZM91.3535 175.613C93.9795 175.205 96.3155 173.434 96.1979 171.639L94.7242 150.913C94.685 150.372 94.2303 150.019 93.6816 150.098L89.7779 150.701C88.0455 150.991 87.2146 152.645 86.5561 154.456L86.2034 155.452C86.1956 155.467 86.1877 155.483 86.1877 155.507L83.789 162.373C83.2247 164.043 82.574 165.987 82.0253 167.672C81.8293 167.116 81.6255 166.559 81.4296 166.018C81.2179 165.43 81.0219 164.882 80.8495 164.396L76.6557 153.414C76.5068 153.022 76.1149 152.802 75.668 152.873L72.3993 153.374C70.659 153.641 69.4127 155.812 69.2324 158.117H69.2245L67.7508 178.122C67.7273 178.412 67.8292 178.686 68.0252 178.866C68.2212 179.047 68.5034 179.125 68.7934 179.086L68.958 179.062C71.6154 178.639 73.7162 176.859 73.8181 175.072L74.2727 166.34C74.3198 165.517 74.3668 164.662 74.406 163.792C74.649 164.537 74.8842 165.242 75.1037 165.885L79.2033 176.64C79.3523 177.032 79.7442 177.251 80.191 177.181L80.3321 177.157V177.15C82.9581 176.742 84.5886 174.774 85.1765 173.23L88.657 163.557C88.994 162.569 89.2919 161.707 89.5584 160.923C89.5898 161.448 89.6211 161.966 89.6525 162.467L89.7309 163.839L90.2561 174.767C90.2796 175.323 90.7421 175.692 91.2986 175.597L91.3535 175.613ZM110.347 175.84C111.907 172.971 113.334 169.358 115.011 164.67L121.306 147.26C121.431 146.923 121.384 146.562 121.188 146.312C120.992 146.061 120.671 145.935 120.326 145.99L118.923 146.21C116.265 146.625 114.611 148.459 114.055 150.2H114.047L110.331 161.77C110.143 162.358 109.963 162.953 109.79 163.533C109.618 163.016 109.43 162.499 109.25 162.005L104.201 149.157C104.052 148.773 103.66 148.561 103.221 148.624L102.822 148.687C100.627 149.032 97.8362 151.007 98.3692 152.536L106.192 170.824C106.365 171.263 106.404 171.443 106.412 171.506C106.381 171.639 106.247 171.96 106.169 172.14C105.071 174.782 103.425 176.46 102.924 176.938C102.006 177.855 101.066 178.49 100.384 178.89C99.9057 179.188 99.5764 179.713 99.5764 180.277C99.5764 181.045 100.204 181.571 100.972 181.453L101.129 181.43C102.5 181.226 107.525 180.983 110.347 175.84ZM143.152 174.963C145.614 174.539 147.182 172.987 147.385 171.357L147.581 162.82C147.589 162.538 147.487 162.287 147.291 162.115C147.095 161.942 146.837 161.872 146.554 161.903L145.198 162.083V143.192C145.198 142.612 144.728 142.22 144.156 142.306L143.842 142.353C141.201 142.761 139.006 144.548 138.959 146.288V162.883L130.422 164.2V145.473C130.422 144.893 129.952 144.501 129.38 144.587L129.066 144.634C126.424 145.042 124.237 146.829 124.182 148.569V169.491C124.182 170.071 124.653 170.463 125.225 170.377L141.835 167.813L142 174.108C142.016 174.672 142.478 175.057 143.043 174.963H143.152ZM168.472 163.714C171.145 163.298 173.355 161.527 173.355 159.716V138.849C173.355 138.269 172.885 137.877 172.313 137.963L169.742 138.363C167.084 138.771 165.744 140.738 164.866 142.337L159.3 152.41C158.626 153.688 158.093 154.754 157.584 155.789C157.615 154.386 157.631 152.881 157.631 150.991V141.271C157.631 140.691 157.16 140.299 156.588 140.385L156.424 140.409C153.774 140.832 151.587 142.643 151.587 144.391V165.266C151.587 165.846 152.057 166.238 152.63 166.152L155.114 165.768C157.615 165.383 159.01 163.486 159.833 162.06C160.594 160.664 161.354 159.261 162.099 157.882C163.314 155.64 164.458 153.523 165.548 151.571C166.206 150.317 166.779 149.204 167.343 148.06C167.288 149.596 167.265 151.07 167.265 153.076V162.844C167.265 163.424 167.735 163.816 168.307 163.729L168.472 163.714ZM197.805 134.028L185.631 135.909C182.966 136.325 180.747 138.144 180.747 139.899V146.9C180.747 149.353 180.685 151.242 180.442 152.724C179.681 157.568 178.427 158.603 176.914 160.273C176.53 160.696 176.342 161.268 176.499 161.785C176.718 162.491 177.494 162.789 178.231 162.452L178.388 162.381C179.697 161.785 184.424 160.045 186.023 154.582H186.031C186.626 152.206 186.799 149.337 186.799 145.967V141.154L192.615 140.252V158.932C192.615 159.512 193.086 159.904 193.658 159.818L193.987 159.771C196.613 159.355 198.8 157.576 198.847 155.844V134.906C198.855 134.342 198.385 133.942 197.805 134.028Z" fill="#0C7315"/>
    <path d="M116.429 192.702L116.39 196.417L120.098 195.806L120.137 192.09L122.559 191.69L122.457 201.426L120.035 201.826L120.074 197.726L116.367 198.338L116.327 202.437L113.905 202.837L114.007 193.101L116.429 192.702Z" fill="#067611"/>
    <path d="M134.223 194.52C134.184 198.094 131.684 200.109 129.238 200.509C126.534 200.955 124.448 199.427 124.48 196.291C124.511 193.093 126.604 190.788 129.505 190.31C132.358 189.84 134.255 191.564 134.223 194.52ZM126.98 195.821C126.965 197.702 127.874 198.964 129.332 198.721C130.712 198.494 131.692 196.973 131.715 194.998C131.731 193.477 131.08 191.831 129.418 192.105C127.709 192.388 126.996 194.198 126.98 195.821Z" fill="#067611"/>
    <path d="M136.23 192.647C136.246 191.369 136.214 190.335 136.183 189.425L138.315 189.073L138.417 190.554L138.456 190.546C139.177 189.331 140.306 188.524 141.764 188.281C143.975 187.912 145.785 189.527 145.754 192.569C145.715 196.088 143.512 198.15 141.325 198.51C140.126 198.706 139.122 198.354 138.636 197.656L138.597 197.664L138.542 202.704L136.12 203.104L136.23 192.647ZM138.629 194.669C138.629 194.912 138.644 195.124 138.683 195.336C138.926 196.292 139.773 196.872 140.816 196.7C142.352 196.441 143.277 194.999 143.293 193.078C143.308 191.361 142.493 190.099 140.941 190.358C139.938 190.523 138.997 191.416 138.73 192.537C138.691 192.741 138.644 192.968 138.644 193.172L138.629 194.669Z" fill="#067611"/>
    <path d="M147.973 187.473L151.031 186.964L152.347 190.977C152.536 191.565 152.865 192.608 153.069 193.391L153.108 193.384C153.312 192.655 153.743 191.306 154.064 190.272L155.365 186.242L158.423 185.733L158.956 195.359L156.69 195.735L156.557 191.526C156.526 190.593 156.463 189.268 156.455 188.108L156.392 188.116C156.063 189.292 155.898 189.833 155.373 191.455L153.79 196.088L152.034 196.378L150.678 192.333C150.411 191.463 150.074 190.099 149.847 189.237L149.768 189.253C149.737 190.46 149.682 191.784 149.612 192.733L149.369 196.942L147.182 197.303L147.973 187.473Z" fill="#067611"/>
    <path d="M115.505 191.996L115.465 195.712L119.173 195.1L119.212 191.385L121.635 190.985L121.533 200.721L119.11 201.12L119.15 197.021L115.442 197.632L115.403 201.732L112.98 202.132L113.082 192.396L115.505 191.996Z" fill="white"/>
    <path d="M133.299 193.815C133.259 197.39 130.759 199.404 128.313 199.804C125.609 200.251 123.524 198.722 123.555 195.587C123.586 192.388 125.679 190.084 128.58 189.606C131.441 189.135 133.33 190.86 133.299 193.815ZM126.063 195.116C126.048 196.998 126.957 198.26 128.415 198.017C129.795 197.789 130.775 196.269 130.798 194.293C130.814 192.772 130.163 191.126 128.501 191.401C126.785 191.683 126.079 193.494 126.063 195.116Z" fill="white"/>
    <path d="M135.306 191.949C135.322 190.672 135.29 189.637 135.259 188.728L137.391 188.375L137.493 189.856L137.532 189.848C138.253 188.633 139.382 187.826 140.84 187.583C143.051 187.215 144.862 188.829 144.83 191.871C144.791 195.39 142.588 197.452 140.401 197.813C139.202 198.009 138.199 197.656 137.713 196.958L137.673 196.966L137.618 202.006L135.196 202.406L135.306 191.949ZM137.705 193.964C137.705 194.207 137.72 194.418 137.76 194.63C138.003 195.586 138.849 196.167 139.892 195.994C141.428 195.735 142.353 194.293 142.369 192.373C142.384 190.656 141.569 189.394 140.017 189.652C139.014 189.817 138.073 190.711 137.807 191.832C137.767 192.035 137.72 192.263 137.72 192.467L137.705 193.964Z" fill="white"/>
    <path d="M147.056 186.768L150.114 186.258L151.43 190.272C151.619 190.859 151.948 191.902 152.152 192.686L152.191 192.678C152.395 191.949 152.826 190.601 153.147 189.566L154.448 185.537L157.506 185.027L158.039 194.653L155.773 195.03L155.64 190.82C155.609 189.887 155.546 188.563 155.538 187.403L155.475 187.41C155.146 188.586 154.981 189.127 154.456 190.75L152.873 195.382L151.117 195.672L149.761 191.628C149.494 190.758 149.157 189.394 148.93 188.531L148.851 188.547C148.82 189.754 148.765 191.079 148.695 192.027L148.452 196.237L146.265 196.597L147.056 186.768Z" fill="white"/>
    <defs>
        <linearGradient id="paint0_linear_0_1" x1="128.004" y1="-0.00180293" x2="128.004" y2="258.181" gradientUnits="userSpaceOnUse">
            <stop offset="0.1524" stop-color="#0B7425"/>
            <stop offset="1" stop-color="#52B121"/>
        </linearGradient>
        <radialGradient id="paint1_radial_0_1" cx="0" cy="0" r="1" gradientUnits="userSpaceOnUse" gradientTransform="translate(-520.863 2075.34) scale(174.36 174.36)">
            <stop offset="0.1524" stop-color="#FFF8A5"/>
            <stop offset="1" stop-color="#7DC242"/>
        </radialGradient>
        <radialGradient id="paint2_radial_0_1" cx="0" cy="0" r="1" gradientUnits="userSpaceOnUse" gradientTransform="translate(166.055 129.812) scale(106.473 106.473)">
            <stop offset="0.1524" stop-color="#FFF8A5"/>
            <stop offset="1" stop-color="#7DC242"/>
        </radialGradient>
        <linearGradient id="paint3_linear_0_1" x1="61.6893" y1="194.527" x2="210.925" y2="194.527" gradientUnits="userSpaceOnUse">
            <stop offset="0.0286" stop-color="#B0FE30"/>
            <stop offset="0.5" stop-color="#68DE13"/>
            <stop offset="1" stop-color="#AFFE30"/>
        </linearGradient>
    </defs>
</svg>
