<svg width="164" height="96" viewBox="0 0 164 96" fill="none" xmlns="http://www.w3.org/2000/svg">
<path d="M156.973 20.5801C156.487 20.6585 156.095 20.3214 156.095 19.8354V19.8275C156.095 18.3774 157.271 17.0213 158.721 16.7939L163.111 16.1198C163.597 16.0414 163.989 16.3785 163.989 16.8645V16.8723C163.989 18.3225 162.813 19.6786 161.363 19.9059L156.973 20.5801ZM146.179 33.8433C149.949 29.8064 151.94 24.4368 151.94 18.3303C151.94 12.9137 150.271 8.51613 147.104 5.61577C143.921 2.69973 139.531 1.57095 134.413 2.36267C129.396 3.13871 124.857 5.64713 121.62 9.44111C118.194 13.4546 116.383 18.6203 116.383 24.3897C116.383 35.3797 123.564 41.9487 133.84 40.3652C138.552 39.6362 142.933 37.3159 146.179 33.8433ZM143.757 19.804C143.757 27.0863 139.704 32.9967 134.123 33.859C128.541 34.7213 124.489 30.1199 124.489 22.9239C124.489 16.6685 127.514 9.88792 134.264 8.84536C141.773 7.68521 143.757 15.5084 143.757 19.804ZM50.6 27.7291C50.6 40.7258 43.0042 50.1951 30.227 53.2052V53.5109C30.1486 55.8547 27.0993 58.2221 23.3366 58.8335C22.8663 58.8962 22.4822 58.567 22.4822 58.0966V54.3967C15.7722 54.82 2.17969 53.4639 2.17969 35.4973C2.17969 20.0078 12.5896 11.9809 22.6233 9.51948V9.51166C22.6233 7.1365 25.6648 4.72214 29.4274 4.11855C29.9056 4.048 30.2975 4.37724 30.2975 4.8554V8.32015C40.2685 7.49707 50.6 12.1612 50.6 27.7291ZM22.5528 15.7827C16.4934 17.4445 10.3556 22.9866 10.3556 33.9374C10.3556 42.8893 14.8942 48.1413 22.5528 48.1492V15.7827ZM42.4242 28.9205C42.4242 15.8376 34.5148 14.4031 30.227 14.5912V46.9812C34.5305 45.7113 42.4242 41.6429 42.4242 28.9205ZM85.2633 43.0226V11.879C85.2633 11.4008 84.8713 11.0637 84.3932 11.1421L84.2051 11.1735C78.5611 12.0749 75.2531 14.6774 73.9048 17.1388L65.486 32.3775C63.8477 35.4895 62.7502 37.7471 61.5117 40.3887C61.6371 37.2924 61.6841 34.345 61.6841 30.1121V15.5319C61.6841 15.0537 61.2922 14.7166 60.814 14.795L60.7513 14.8029C57.0827 15.3673 54.0413 17.7816 54.0099 20.1803V51.3082C54.0099 51.7942 54.4019 52.1234 54.88 52.0451C60.6024 51.1593 63.8633 48.5489 65.2273 46.0719C66.3247 44.0651 67.4143 42.0506 68.4804 40.0752C70.299 36.7123 72.0157 33.5376 73.6462 30.6216C75.1904 27.682 76.4054 25.2677 77.7694 22.4065C77.5969 26.0672 77.5185 28.7324 77.5185 33.0203V47.671C77.5185 48.1492 77.9105 48.4862 78.3886 48.4079L78.5689 48.3765C82.2062 47.7964 85.2241 45.3978 85.2633 43.0226ZM116.572 6.11744L92.2555 9.87224C89.8804 10.2485 87.9363 13.1489 87.8971 16.1747V16.4177C87.8971 16.8958 88.2891 17.2329 88.7672 17.1545L98.6912 15.6259V44.3474C98.6912 44.8255 99.0831 45.1548 99.5613 45.0842L99.9062 45.0293C103.59 44.4571 106.64 42.0271 106.648 39.6206V14.3952L113.122 13.3997C115.498 12.9921 117.434 10.0604 117.442 7.02675V6.85429C117.442 6.36829 117.05 6.03905 116.572 6.11744ZM44.9404 89.4754C47.5664 89.0678 49.9024 87.2962 49.7848 85.5011L48.3111 64.7753C48.2719 64.2344 47.8173 63.8817 47.2685 63.9601L43.3648 64.5637C41.6324 64.8537 40.8015 66.5077 40.1431 68.3184L39.7903 69.314C39.7825 69.3297 39.7746 69.3453 39.7746 69.3689L37.376 76.2356C36.8116 77.9053 36.1609 79.8493 35.6122 81.5347C35.4163 80.9781 35.2125 80.4216 35.0165 79.8807C34.8048 79.2928 34.6089 78.7441 34.4364 78.258L30.2426 67.2759C30.0937 66.8839 29.7018 66.6644 29.255 66.735L25.9862 67.2367C24.2459 67.5032 22.9996 69.6745 22.8193 71.9792H22.8115L21.3378 91.9838C21.3142 92.2739 21.4161 92.5482 21.6121 92.7285C21.8081 92.9088 22.0903 92.9872 22.3803 92.948L22.5449 92.9245C25.2023 92.5012 27.3031 90.7218 27.405 88.9345L27.8597 80.2021C27.9067 79.379 27.9537 78.5246 27.9929 77.6545C28.2359 78.3992 28.4711 79.1047 28.6906 79.7474L32.7902 90.5023C32.9392 90.8942 33.3311 91.1137 33.7779 91.0432L33.919 91.0197V91.0118C36.545 90.6042 38.1755 88.6367 38.7634 87.0924L42.2439 77.4193C42.581 76.4316 42.8788 75.5693 43.1453 74.7855C43.1767 75.3107 43.208 75.828 43.2394 76.3297L43.3178 77.7015L43.843 88.6288C43.8665 89.1854 44.329 89.5538 44.8856 89.4597L44.9404 89.4754ZM63.9339 89.7027C65.4938 86.8337 66.9205 83.22 68.598 78.5324L74.8925 61.1224C75.018 60.7853 74.9709 60.4247 74.775 60.1739C74.579 59.9231 74.2576 59.7977 73.9127 59.8525L72.5095 60.072C69.8522 60.4874 68.1982 62.3218 67.6416 64.062H67.6338L63.9182 75.6321C63.7301 76.22 63.5498 76.8157 63.3773 77.3958C63.2049 76.8784 63.0167 76.3611 62.8364 75.8672L57.7882 63.0194C57.6393 62.6353 57.2474 62.4236 56.8084 62.4864L56.4086 62.5491C54.2137 62.894 51.4231 64.8693 51.9562 66.3979L59.7793 84.6859C59.9518 85.1249 59.991 85.3051 59.9988 85.3679C59.9674 85.5011 59.8342 85.8225 59.7558 86.0028C58.6584 88.6445 57.0122 90.322 56.5105 90.8002C55.5934 91.7173 54.6527 92.3522 53.9707 92.752C53.4926 93.0499 53.1633 93.5751 53.1633 94.1395C53.1633 94.9077 53.7905 95.4329 54.5587 95.3153L54.7154 95.2918C56.0872 95.088 61.1119 94.845 63.9339 89.7027ZM96.7393 88.8248C99.2007 88.4015 100.768 86.8494 100.972 85.2189L101.168 76.6824C101.176 76.4002 101.074 76.1494 100.878 75.977C100.682 75.8045 100.424 75.734 100.141 75.7653L98.7852 75.9456V57.0541C98.7852 56.474 98.3149 56.082 97.7427 56.1683L97.4291 56.2153C94.7875 56.6229 92.5926 58.4102 92.5455 60.1504V76.7452L84.0091 78.0621V59.3351C84.0091 58.7551 83.5387 58.3632 82.9665 58.4494L82.653 58.4964C80.0113 58.904 77.8242 60.6913 77.7694 62.4315V83.3533C77.7694 83.9333 78.2397 84.3253 78.8119 84.2391L95.4224 81.6758L95.587 87.9704C95.6027 88.5347 96.0652 88.9189 96.6296 88.8248H96.7393ZM122.059 77.5761C124.732 77.1606 126.942 75.3891 126.942 73.5783V52.7114C126.942 52.1313 126.472 51.7393 125.9 51.8256L123.329 52.2254C120.671 52.633 119.331 54.6005 118.453 56.1996L112.887 66.2725C112.213 67.5502 111.68 68.6163 111.171 69.651C111.202 68.2479 111.218 66.7428 111.218 64.8537V55.1335C111.218 54.5535 110.747 54.1616 110.175 54.2478L110.01 54.2713C107.361 54.6946 105.174 56.5054 105.174 58.2534V79.1281C105.174 79.7082 105.644 80.1002 106.216 80.0139L108.701 79.6298C111.202 79.2457 112.597 77.3488 113.42 75.9221C114.181 74.5268 114.941 73.1236 115.686 71.744C116.901 69.5021 118.045 67.3856 119.135 65.4338C119.793 64.1795 120.365 63.0665 120.93 61.922C120.875 63.4584 120.852 64.9321 120.852 66.9388V76.706C120.852 77.2861 121.322 77.678 121.894 77.5918L122.059 77.5761ZM151.392 47.8905L139.218 49.7718C136.553 50.1873 134.334 52.0059 134.334 53.7618V60.7618C134.334 63.2154 134.272 65.1045 134.029 66.586C133.268 71.4304 132.014 72.4652 130.501 74.1348C130.117 74.5581 129.929 75.1303 130.086 75.6477C130.305 76.3532 131.081 76.6511 131.818 76.314L131.975 76.2435C133.284 75.6477 138.011 73.9075 139.61 68.4439H139.618C140.213 66.0687 140.386 63.1997 140.386 59.829V55.016L146.202 54.1145V72.7944C146.202 73.3745 146.673 73.7664 147.245 73.6802L147.574 73.6332C150.2 73.2177 152.387 71.4383 152.434 69.7059V48.7684C152.442 48.204 151.972 47.8043 151.392 47.8905Z" fill="#0C7315"/>
<path d="M154.793 18.4634C154.307 18.5418 153.915 18.2047 153.915 17.7187V17.7108C153.915 16.2607 155.091 14.9046 156.541 14.6772L160.931 14.0031C161.417 13.9247 161.809 14.2618 161.809 14.7478V14.7556C161.809 16.2058 160.633 17.5619 159.183 17.7892L154.793 18.4634ZM143.999 31.7266C147.77 27.6897 149.761 22.3201 149.761 16.2136C149.761 10.797 148.091 6.39943 144.924 3.49907C141.741 0.583032 137.352 -0.545753 132.233 0.245967C127.216 1.02201 122.677 3.53043 119.44 7.32442C116.014 11.3379 114.204 16.5037 114.204 22.273C114.204 33.2631 121.384 39.832 131.661 38.2485C136.372 37.5195 140.754 35.2071 143.999 31.7266ZM141.577 17.6873C141.577 24.9696 137.524 30.88 131.943 31.7423C126.362 32.6046 122.309 28.0032 122.309 20.8072C122.309 14.5518 125.335 7.77122 132.084 6.72866C139.594 5.56851 141.577 13.3917 141.577 17.6873ZM48.4204 25.6202C48.4204 38.617 40.8245 48.0862 28.0473 51.0964V51.4021C27.9689 53.7459 24.9196 56.1132 21.157 56.7246C20.6866 56.7873 20.3025 56.4581 20.3025 55.9878V52.2879C13.5925 52.7112 0 51.355 0 33.3885C0 17.899 10.4099 9.87204 20.4436 7.41065V7.40281C20.4436 5.02765 23.4851 2.61329 27.2477 2.0097C27.7259 1.93915 28.1178 2.26838 28.1178 2.74655V6.21132C38.0888 5.38824 48.4204 10.0445 48.4204 25.6202ZM20.3731 13.6739C14.3137 15.3357 8.17589 20.8777 8.17589 31.8286C8.17589 40.7805 12.7146 46.0325 20.3731 46.0403V13.6739ZM40.2445 26.8039C40.2445 13.7209 32.3351 12.2864 28.0473 12.4745V44.8645C32.3508 43.6025 40.2445 39.5263 40.2445 26.8039ZM83.0836 40.9059V9.7623C83.0836 9.28413 82.6917 8.94706 82.2135 9.02545L82.0254 9.05679C76.3814 9.95825 73.0734 12.5607 71.7252 15.0221L63.3063 30.2608C61.668 33.3728 60.5705 35.6304 59.332 38.2721C59.4574 35.1757 59.5044 32.2283 59.5044 27.9954V13.4152C59.5044 12.937 59.1125 12.6 58.6343 12.6783L58.5716 12.6862C54.9031 13.2506 51.8616 15.6649 51.8302 18.0636V49.1915C51.8302 49.6775 52.2222 50.0068 52.7004 49.9284C58.4227 49.0426 61.6836 46.4323 63.0476 43.9552C64.145 41.9485 65.2346 39.9339 66.3007 37.9585C68.1193 34.5957 69.836 31.4209 71.4665 28.5049C73.0107 25.5653 74.2257 23.151 75.5897 20.2898C75.4172 23.9505 75.3389 26.6158 75.3389 30.9036V45.5543C75.3389 46.0325 75.7308 46.3695 76.209 46.2912L76.3893 46.2598C80.0265 45.6797 83.0444 43.2889 83.0836 40.9059ZM114.384 4.00077L90.068 7.75554C87.6928 8.1318 85.7488 11.0322 85.7096 14.058V14.301C85.7096 14.7791 86.1016 15.1162 86.5797 15.0378L96.5037 13.5093V42.2307C96.5037 42.7088 96.8956 43.0381 97.3738 42.9675L97.7187 42.9126C101.403 42.3404 104.452 39.9104 104.46 37.5039V12.2786L110.935 11.283C113.31 10.8754 115.246 7.94369 115.254 4.91007V4.73762C115.262 4.25945 114.87 3.92238 114.384 4.00077ZM42.7607 87.3665C45.3867 86.9589 47.7227 85.1873 47.6051 83.3923L46.1314 62.6664C46.0922 62.1255 45.6376 61.7728 45.0889 61.8512L41.1851 62.4548C39.4528 62.7448 38.6218 64.3988 37.9634 66.2096L37.6106 67.2051C37.6028 67.2208 37.5949 67.2365 37.5949 67.26L35.1963 74.1268C34.6319 75.7965 33.9813 77.7405 33.4325 79.4258C33.2366 78.8693 33.0328 78.3127 32.8368 77.7718C32.6252 77.1839 32.4292 76.6352 32.2567 76.1492L28.0629 65.167C27.914 64.7751 27.5221 64.5556 27.0753 64.6261L23.8065 65.1278C22.0663 65.3943 20.8199 67.5657 20.6396 69.8703H20.6318L19.1816 89.8828C19.1581 90.1728 19.26 90.4472 19.4559 90.6275C19.6519 90.8078 19.9341 90.8862 20.2241 90.847L20.3888 90.8235C23.0461 90.4002 25.1469 88.6208 25.2488 86.8335L25.7035 78.1011C25.7505 77.278 25.7975 76.4235 25.8367 75.5534C26.0797 76.2981 26.3149 77.0037 26.5344 77.6464L30.6341 88.4013C30.783 88.7932 31.175 89.0127 31.6218 88.9421L31.7629 88.9187V88.9108C34.3889 88.5032 36.0194 86.5356 36.6073 84.9914L40.0877 75.3183C40.4248 74.3306 40.7226 73.4683 40.9892 72.6845C41.0205 73.2097 41.0519 73.727 41.0832 74.2287L41.1616 75.6005L41.6868 86.5278C41.7103 87.0843 42.1728 87.4528 42.7294 87.3587L42.7607 87.3665ZM61.7542 87.586C63.3141 84.717 64.7408 81.1033 66.4183 76.4157L72.7129 59.0057C72.8383 58.6686 72.7912 58.3081 72.5953 58.0572C72.3993 57.8064 72.0779 57.681 71.733 57.7358L70.3298 57.9553C67.6725 58.3708 66.0185 60.2051 65.462 61.9453H65.4541L61.7385 73.5154C61.5504 74.1033 61.3701 74.699 61.1976 75.2791C61.0252 74.7617 60.837 74.2444 60.6568 73.7505L55.6086 60.9027C55.4596 60.5186 55.0677 60.3069 54.6287 60.3697L54.2289 60.4324C52.034 60.7773 49.2434 62.7527 49.7765 64.2812L57.5996 82.5692C57.7721 83.0082 57.8113 83.1884 57.8191 83.2512C57.7878 83.3844 57.6545 83.7058 57.5761 83.8861C56.4787 86.5278 54.8325 88.2053 54.3308 88.6835C53.4137 89.6006 52.473 90.2356 51.7911 90.6354C51.3129 90.9332 50.9837 91.4584 50.9837 92.0228C50.9837 92.791 51.6108 93.3162 52.379 93.1986L52.5357 93.1751C53.9075 92.9713 58.9322 92.7283 61.7542 87.586ZM94.5596 86.7081C97.021 86.2848 98.5888 84.7327 98.7926 83.1022L98.9886 74.5658C98.9964 74.2836 98.8945 74.0327 98.6985 73.8603C98.5026 73.6878 98.2439 73.6094 97.9617 73.6486L96.6055 73.8289V54.9374C96.6055 54.3573 96.1352 53.9654 95.563 54.0516L95.2494 54.0986C92.6078 54.5062 90.4129 56.2935 90.3659 58.0337V74.6285L81.8294 75.9454V57.2185C81.8294 56.6384 81.3591 56.2464 80.7868 56.3327L80.4733 56.3797C77.8316 56.7873 75.6446 58.5746 75.5897 60.3148V81.2366C75.5897 81.8167 76.06 82.2086 76.6323 82.1224L93.2427 79.5591L93.4073 85.8537C93.423 86.418 93.8855 86.8022 94.4499 86.7081H94.5596ZM119.879 75.4594C122.552 75.0439 124.763 73.2724 124.763 71.4616V50.5947C124.763 50.0146 124.292 49.6227 123.72 49.7089L121.149 50.1087C118.492 50.5163 117.151 52.4838 116.273 54.0829L110.708 64.1558C110.033 65.4335 109.5 66.4996 108.991 67.5343C109.022 66.1312 109.038 64.6262 109.038 62.737V53.0169C109.038 52.4368 108.568 52.0449 107.995 52.1311L107.831 52.1546C105.181 52.5779 102.994 54.3886 102.994 56.1367V77.0115C102.994 77.5916 103.465 77.9835 104.037 77.8973L106.522 77.5131C109.022 77.129 110.418 75.2321 111.241 73.8054C112.001 72.4101 112.761 71.0069 113.506 69.6273C114.721 67.3854 115.866 65.2689 116.955 63.3171C117.614 62.0629 118.186 60.9498 118.75 59.8053C118.695 61.3417 118.672 62.8154 118.672 64.8221V74.5893C118.672 75.1694 119.142 75.5613 119.714 75.4751L119.879 75.4594ZM149.212 45.7816L137.038 47.6629C134.373 48.0784 132.155 49.897 132.155 51.6529V58.653C132.155 61.1065 132.092 62.9957 131.849 64.4772C131.089 69.3216 129.834 70.3563 128.321 72.026C127.937 72.4493 127.749 73.0215 127.906 73.5389C128.125 74.2444 128.901 74.5423 129.638 74.2052L129.795 74.1346C131.104 73.5389 135.831 71.7987 137.43 66.335H137.438C138.034 63.9599 138.206 61.0908 138.206 57.7201V52.9071L144.023 52.0057V70.6856C144.023 71.2656 144.493 71.6576 145.065 71.5714L145.394 71.5243C148.02 71.1089 150.207 69.3294 150.254 67.5971V46.6674C150.262 46.0874 149.792 45.6876 149.212 45.7816Z" fill="white"/>
<path d="M156.392 16.7859L160.163 16.2058C159.967 16.6605 159.543 17.0289 159.042 17.1073L155.271 17.6873C155.467 17.2248 155.89 16.8643 156.392 16.7859ZM124.904 31.272C122.63 29.1477 121.259 25.6594 121.259 21.3167C121.259 17.7187 122.184 14.2304 123.853 11.5025C125.868 8.21806 128.839 6.17995 132.429 5.63123C134.984 5.23929 137.187 5.73314 138.951 7.0579C137.085 5.29417 134.632 4.59651 131.731 5.04332C128.141 5.59988 125.17 7.63015 123.156 10.9146C121.478 13.6425 120.561 17.1308 120.561 20.7288C120.561 25.4948 122.207 29.2417 124.904 31.272ZM144.242 4.89438C144.022 4.69057 143.795 4.50246 143.56 4.32216C146.468 6.9952 148.005 11.0792 148.005 16.1274C148.005 21.8341 146.17 26.8195 142.698 30.543C139.711 33.7412 135.666 35.8812 131.3 36.5554C127.004 37.2217 123.265 36.3829 120.42 34.141C120.428 34.1488 120.428 34.1489 120.435 34.1567C123.352 36.8297 127.349 37.8566 131.998 37.1433C136.364 36.4691 140.409 34.337 143.395 31.1309C146.868 27.4075 148.702 22.422 148.702 16.7153C148.702 11.6593 147.158 7.56742 144.242 4.89438ZM11.5465 44.5509C8.69315 41.9171 7.12539 37.7312 7.12539 32.3302C7.12539 26.9293 8.52854 22.3749 11.2956 18.7926C14.2587 14.9594 17.9665 13.3054 20.5454 12.6C20.6003 12.5843 20.6552 12.5686 20.7101 12.5607C20.9139 12.5294 21.102 12.5451 21.2901 12.6C21.2117 12.4353 21.0942 12.2864 20.9374 12.1766C20.6787 11.9885 20.3495 11.918 20.0124 11.965C19.9575 11.9728 19.9027 11.9885 19.8478 12.0042C17.2688 12.7097 13.5611 14.3637 10.598 18.1969C7.83089 21.7792 6.42773 26.3336 6.42773 31.7345C6.42773 37.5666 8.25418 41.972 11.5465 44.5509ZM27.1144 45.9227C27.036 45.7581 26.9889 45.57 26.9889 45.374V12.984C26.9889 12.5843 27.1614 12.1845 27.4514 11.8709C27.7101 11.6044 28.0393 11.4241 28.3843 11.3693C28.4391 11.3614 28.4862 11.3536 28.541 11.3536C30.6183 11.2595 34.1066 11.5339 37.0148 13.7836C33.989 10.9851 30.0931 10.6638 27.8434 10.7657C27.7885 10.7657 27.7415 10.7735 27.6866 10.7813C27.3417 10.8362 27.0125 11.0087 26.7538 11.283C26.4559 11.5887 26.2913 11.9964 26.2913 12.3961V44.7861C26.2913 45.1937 26.4637 45.5465 26.7695 45.766C26.8792 45.8365 26.9968 45.8914 27.1144 45.9227ZM41.4359 11.2517C44.9085 14.395 46.6722 19.1924 46.6722 25.534C46.6722 31.5542 44.932 36.9081 41.6397 41.0235C38.3552 45.1232 33.4952 48.0314 27.5769 49.4267C26.8557 49.5991 26.2991 50.289 26.2991 51.018V51.2923C26.2443 52.4681 24.5433 54.0124 22.0348 54.7492V55.5175C24.9195 54.8904 26.9341 53.1658 26.9889 51.8802V51.6059C26.9889 50.8769 27.5455 50.187 28.2745 50.0146C34.185 48.6193 39.0529 45.7189 42.3295 41.6114C45.6218 37.5038 47.362 32.1421 47.362 26.1219C47.362 19.3727 45.371 14.3715 41.4359 11.2517ZM26.3697 3.95374V6.10941C26.3697 6.67381 26.7068 7.10494 27.1928 7.25387C27.1144 7.08926 27.0673 6.90897 27.0673 6.69732V3.77344C26.8243 3.82831 26.597 3.89103 26.3697 3.95374ZM20.0673 50.5712C16.1479 50.822 10.7548 50.4065 6.71778 47.224C10.8175 50.9474 16.6182 51.4256 20.7649 51.1591C20.9217 51.1512 21.0706 51.1669 21.2117 51.2139C21.0079 50.7985 20.5846 50.5398 20.0673 50.5712ZM57.7485 27.8935C57.7485 32.244 57.7014 35.113 57.576 38.1153C57.5525 38.6954 57.8896 39.1657 58.3991 39.3225C58.3129 39.1422 58.2658 38.9384 58.2737 38.711C58.3991 35.7088 58.4461 32.8476 58.4461 28.4892V14.4421C58.2031 14.4891 57.9758 14.5518 57.7485 14.6145V27.8935ZM75.5896 18.581C75.472 18.5653 75.3466 18.5731 75.229 18.5888C74.7195 18.6672 74.2335 19.0278 73.9905 19.5373C72.6579 22.3201 71.4742 24.6795 69.9065 27.674C68.2603 30.6057 66.5514 33.7726 64.7407 37.1276C63.7687 38.9227 62.6399 41.0078 61.5268 43.0537C61.5189 43.0694 61.5033 43.0929 61.4954 43.1164C60.8762 44.2531 58.8929 46.8712 53.5625 48V48.729C59.4181 47.6865 61.5424 44.888 62.1931 43.7044C62.2087 43.6808 62.2166 43.6652 62.2244 43.6417C63.3375 41.5957 64.4663 39.5106 65.4383 37.7155C67.2491 34.3605 68.958 31.1936 70.6041 28.2619C72.1797 25.2675 73.3634 22.908 74.6881 20.1252C74.9311 19.6157 75.4172 19.2551 75.9267 19.1767C76.0443 19.161 76.1697 19.1532 76.2873 19.1689C76.3578 19.1767 76.4283 19.1924 76.4911 19.2159C76.3343 18.871 76.0051 18.628 75.5896 18.581ZM81.3355 10.9303V40.804C81.3041 42.0268 79.5952 43.6416 77.0711 44.3393V45.0997C79.9715 44.5274 81.9939 42.7323 82.0331 41.3997V10.797C81.7979 10.8284 81.5628 10.8754 81.3355 10.9303ZM96.1508 11.8082L87.5516 13.133C87.5046 13.3681 87.4732 13.6033 87.4576 13.8463L96.8406 12.3961C97.0444 12.3648 97.2404 12.3804 97.4129 12.4353C97.2012 11.9885 96.7152 11.722 96.1508 11.8082ZM113.404 5.88993C113.059 7.74773 111.883 9.35468 110.574 9.58985L104.115 10.5854C103.347 10.703 102.72 11.4241 102.72 12.1923V37.4098C102.72 38.0761 102.226 38.8443 101.364 39.5341C100.525 40.2082 99.4196 40.7256 98.2438 41.0235V41.7682C99.6783 41.5173 101.058 40.9216 102.061 40.122C102.924 39.4322 103.417 38.664 103.417 37.9977V12.7802C103.417 12.012 104.044 11.2909 104.813 11.1733L111.272 10.1778C112.746 9.91908 114.055 7.91232 114.196 5.77233L113.404 5.88993ZM30.587 76.5098C30.7594 76.9958 30.9554 77.5445 31.167 78.1246L31.1827 78.1716C31.3708 78.689 31.5668 79.2298 31.755 79.7629C31.8804 80.1235 32.1626 80.3665 32.5075 80.4684C32.4918 80.4292 32.4683 80.39 32.4526 80.3508C32.2645 79.8099 32.0685 79.2691 31.8804 78.7595L31.8647 78.7125C31.653 78.1246 31.4571 77.5837 31.2846 77.0977L27.1771 66.3507L26.7303 66.4213L30.587 76.5098ZM25.4761 73.8603C25.4212 73.8681 25.3585 73.8838 25.3036 73.8995C24.6295 74.0876 24.1199 74.7225 24.0807 75.4045C24.0337 76.2668 23.9945 77.1212 23.9475 77.9443L23.4928 86.6297C23.4928 86.6454 23.4928 86.6532 23.4928 86.6689C23.4536 87.4214 22.4581 88.3934 21.0001 88.8873L20.9452 89.679C22.8109 89.3106 24.1513 88.1348 24.1983 87.2568C24.1983 87.2412 24.1983 87.2254 24.1983 87.2176L24.6451 78.5322C24.6922 77.7092 24.7392 76.8547 24.7784 75.9924C24.8098 75.3104 25.3271 74.6755 26.0013 74.4874C26.0561 74.4717 26.1189 74.456 26.1737 74.4482C26.3697 74.4168 26.5656 74.4325 26.7459 74.4874C26.5186 74.0249 26.0248 73.7741 25.4761 73.8603ZM45.1123 63.5836L44.4617 63.6855L45.857 83.3923C45.8727 83.6039 45.7708 83.8391 45.5513 84.0978C45.1593 84.5759 44.3598 85.1168 43.3407 85.446L43.3799 86.2143C44.7203 85.9399 45.7707 85.2736 46.2489 84.6935C46.4606 84.4348 46.5625 84.1918 46.5546 83.988L45.1123 63.5836ZM40.8088 70.9756C40.7461 70.9756 40.6755 70.9835 40.6128 70.9913C40.0327 71.0775 39.4997 71.5321 39.2959 72.1279C39.045 72.8726 38.755 73.727 38.4101 74.7382L34.9375 84.38C34.5456 85.399 33.5422 86.6532 31.9274 87.1L32.1939 87.7899C34.0596 87.4606 35.2119 86.0731 35.6352 84.9679L39.1078 75.3261C39.4605 74.3149 39.7505 73.4605 39.9935 72.7158C40.1895 72.12 40.7226 71.6733 41.3105 71.5792C41.3732 71.5714 41.4437 71.5635 41.5064 71.5635C41.6397 71.5635 41.7651 71.587 41.8827 71.6184C41.6946 71.2264 41.2948 70.9756 40.8088 70.9756ZM58.987 74.1268C59.1594 74.605 59.3397 75.1066 59.5122 75.6162C59.6376 75.9846 59.9198 76.2354 60.2647 76.3373C60.2412 76.2981 60.2255 76.2511 60.2098 76.2041C60.0374 75.6946 59.8571 75.1929 59.6847 74.7147L54.7227 62.0942L54.5659 62.1178C54.4718 62.1334 54.3778 62.1491 54.2837 62.1726L58.987 74.1268ZM70.6747 59.6407C70.6511 59.6407 70.6276 59.6485 70.6041 59.6564L64.7642 75.8278C62.8672 81.119 61.5424 84.2937 60.202 86.7551C58.9086 89.1146 56.9097 90.5648 54.1112 91.184C53.6723 91.5211 53.2098 91.8268 52.7316 92.109L52.8884 92.0777C53.006 92.062 53.1471 92.0385 53.3117 92.0228C53.5077 91.9993 53.7271 91.9679 53.9858 91.9287C57.2233 91.4271 59.4887 89.9299 60.9075 87.343C62.2479 84.8817 63.5727 81.7069 65.4697 76.4157L71.584 59.4996L70.6747 59.6407ZM80.0812 58.2375V75.8749C80.0812 76.4393 80.4183 76.8704 80.9043 77.0193C80.8259 76.8547 80.7789 76.6666 80.7789 76.4706V58.0886C80.5359 58.1199 80.3007 58.1748 80.0812 58.2375ZM94.8574 55.9486V73.7505C94.8574 74.3149 95.1945 74.7539 95.6805 74.895C95.6021 74.7304 95.5551 74.5422 95.5551 74.3384V55.7918C95.3121 55.8389 95.0769 55.8859 94.8574 55.9486ZM97.2169 75.4908L97.0444 82.9063C96.9112 83.6823 96.1743 84.38 95.1239 84.7719L95.1474 85.5636C96.5428 85.2501 97.5853 84.427 97.7421 83.4942L97.9302 75.3967L97.2169 75.4908ZM92.8977 77.8816L77.3298 80.2803V80.9779L93.5954 78.4695C93.7992 78.4382 93.9951 78.4538 94.1676 78.5087C93.9559 78.054 93.4621 77.7875 92.8977 77.8816ZM107.987 53.887C107.744 53.934 107.509 53.9967 107.29 54.0673V62.6664C107.29 64.6105 107.274 66.0842 107.243 67.4246C107.227 67.9968 107.564 68.4593 108.066 68.6083C107.98 68.4358 107.933 68.232 107.94 68.0204C107.972 66.6721 107.987 65.2062 107.987 63.2622V53.887ZM118.758 58.1199C118.64 58.1042 118.515 58.1121 118.397 58.1278C117.896 58.2062 117.418 58.5511 117.167 59.0527C116.626 60.1423 116.061 61.2398 115.403 62.5097C114.313 64.4616 113.169 66.5702 111.97 68.7964L111.954 68.8199C111.241 70.1368 110.48 71.5478 109.704 72.9745C108.693 74.7304 107.603 75.6083 106.177 75.8357L104.742 76.0551V76.7528L106.874 76.4236C108.301 76.2041 109.391 75.3183 110.402 73.5624C111.178 72.1357 111.946 70.7248 112.652 69.4157L112.667 69.3921C113.874 67.1581 115.011 65.0573 116.101 63.1054C116.767 61.8434 117.323 60.7459 117.864 59.6485C118.115 59.1468 118.593 58.8019 119.095 58.7235C119.22 58.7079 119.338 58.7 119.463 58.7157C119.534 58.7235 119.605 58.7392 119.667 58.7549C119.495 58.41 119.173 58.167 118.758 58.1199ZM123.014 51.5588V71.3832C123.014 72.1201 121.948 73.0999 120.404 73.5702V74.3306C122.309 73.9778 123.712 72.8177 123.712 71.9789V51.4491L123.014 51.5588ZM143.67 50.3125L137.853 51.2139C137.085 51.3315 136.458 52.0527 136.458 52.8209V57.6339C136.458 61.2711 136.246 63.7796 135.768 65.7471C135.76 65.7706 135.753 65.802 135.745 65.8255C134.828 68.9767 132.703 70.662 131.01 71.6105C130.665 72.0417 130.312 72.4258 129.952 72.8177C129.842 72.9353 129.74 73.0529 129.63 73.1705C129.623 73.1861 129.615 73.194 129.607 73.2018L129.748 73.1391C129.834 73.0999 129.936 73.0529 130.054 73.0058C131.582 72.3395 135.172 70.7718 136.45 66.4134C136.458 66.382 136.466 66.3586 136.474 66.335C136.952 64.3675 137.163 61.8512 137.163 58.2218V53.4088C137.163 52.6406 137.791 51.9194 138.559 51.8018L144.375 50.9004C144.579 50.869 144.775 50.8847 144.947 50.9396C144.712 50.4928 144.234 50.2262 143.67 50.3125ZM148.506 47.6238V67.4873C148.475 68.1379 147.417 69.204 145.755 69.6743V70.419C147.816 70.0898 149.165 68.8199 149.204 68.0752V47.514L148.506 47.6238Z" fill="#007D43"/>
</svg>
