<svg width="370" height="287" viewBox="0 0 370 287" fill="none" xmlns="http://www.w3.org/2000/svg">
<path d="M335.874 97.355C332.217 92.3917 325.164 86.6448 312.625 87.6897C308.184 88.0815 303.874 88.9958 299.433 90.5631C299.172 90.5631 298.911 90.5631 298.65 90.5631C298.78 89.9101 298.911 89.257 298.911 88.604C299.172 85.9917 299.564 83.3795 299.825 80.7672L300.478 75.1509C300.87 71.3632 301.262 67.706 301.784 63.9182C302.437 58.4325 300.87 54.3835 299.172 51.6407C299.433 47.7223 298.388 44.5876 297.474 42.6284C295.907 39.6243 292.25 34.2692 283.76 32.8325H283.499C282.715 32.7019 282.062 32.5713 281.278 32.4407C276.707 31.5264 272.527 32.0488 268.87 33.8774C265.474 33.4856 262.078 34.008 258.813 35.4447C257.376 36.0978 255.939 36.7509 254.503 37.5345C248.103 40.7998 245.49 45.5019 244.315 49.0284C244.184 49.4203 244.054 49.8121 243.923 50.2039C236.217 49.159 228.511 50.4652 220.935 53.9917C220.021 54.3835 219.237 54.7754 218.323 55.2978C215.841 54.6448 213.229 54.3835 210.617 54.7754C208.397 55.0366 206.045 55.4284 203.825 55.8203C201.605 56.2121 199.515 56.9958 197.686 58.0407C195.596 57.6489 193.376 57.5182 190.633 57.7794C188.674 58.0407 186.715 58.4325 184.625 58.6937C182.927 58.955 181.229 59.4774 179.662 60.2611C178.356 60.1305 177.05 60.1305 175.613 60.2611C174.176 60.3917 172.87 60.6529 171.694 60.7836C171.172 60.9142 170.65 60.9141 170.127 61.0448C165.947 61.5672 162.16 63.2652 159.025 66.008C155.89 64.5713 152.364 64.1795 148.445 64.5713C146.617 64.8325 144.658 65.0938 142.96 65.355C137.213 66.3999 132.511 69.5346 129.768 74.106C126.503 71.8856 122.584 70.4489 118.013 69.9264C111.743 69.1427 105.605 69.9264 99.727 72.0162C95.1556 67.3141 88.7556 64.4407 81.7025 64.0489C74.6494 63.657 67.727 64.7019 61.0658 67.3142C48.6576 72.1468 40.429 81.5509 37.8168 93.6978C37.0331 97.0938 36.7719 100.359 36.5107 103.233L36.2494 105.322C35.9882 108.457 35.5964 111.984 35.5964 115.641C35.5964 123.869 39.3841 131.575 45.9147 136.669C42.9107 140.196 41.0821 144.506 40.5596 149.339C40.2984 151.951 40.0372 154.563 39.6454 157.175C39.5148 158.743 39.2535 160.18 39.1229 161.747L38.9923 162.531C38.6005 165.535 38.3392 168.669 37.9474 171.673C37.1637 179.118 40.429 185.78 46.0454 189.698C45.0005 191.657 44.2168 193.877 43.8249 196.229C43.5637 197.535 43.4331 198.971 43.1719 200.278C42.78 202.759 42.3882 205.241 41.8658 207.461C41.7351 207.984 41.7352 208.375 41.6046 208.637C34.2903 213.861 31.8086 223.788 36.1188 232.278C36.7719 233.453 37.4249 234.759 38.078 235.935L38.2086 236.196C43.1719 245.469 53.4903 248.865 63.025 244.163C64.8535 243.249 66.5515 242.335 68.1188 241.29C70.6005 242.073 73.3433 242.335 76.0862 242.073C79.4821 246.384 84.1842 249.518 89.5393 250.955C92.4127 251.608 95.025 252 97.6372 252C101.817 252 105.474 251.216 108.347 250.563C120.625 247.559 129.376 239.461 132.903 228.359C135.776 230.318 140.347 232.147 146.486 231.102L147.009 230.971C148.315 230.71 149.621 230.58 151.058 230.318C154.454 229.796 157.327 228.751 159.809 227.053C162.29 227.706 165.033 228.098 168.298 228.098C173.262 227.967 178.225 227.053 183.319 225.094C183.58 225.094 183.841 225.094 184.103 225.094C193.245 225.355 201.997 223.004 210.878 218.041C210.878 218.041 211.009 218.041 211.009 217.91C215.058 219.216 218.845 219.478 221.719 219.478C228.119 219.478 235.956 217.388 241.833 214.253C243.923 214.775 246.143 215.037 248.494 214.906C251.107 214.645 253.719 214.253 256.331 213.731C264.037 212.033 270.046 206.024 271.874 198.188C272.266 196.62 272.527 195.053 272.527 194.269V194.008C272.658 193.094 272.788 192.31 272.788 191.396C272.788 188.914 272.527 186.824 272.005 184.865C272.005 184.735 272.005 184.735 272.005 184.604C272.135 183.951 272.266 183.298 272.266 182.645L273.18 176.375C273.833 172.326 274.356 168.408 275.009 164.359L275.27 162.661C275.531 161.355 275.662 160.049 275.923 158.743C276.837 158.743 277.752 158.743 278.666 158.612C279.972 158.482 281.278 158.22 282.715 157.959C283.368 157.828 284.152 157.698 284.935 157.567C287.156 157.175 289.376 156.522 291.205 155.477C293.164 155.869 295.384 155.869 297.866 155.608C299.825 155.347 301.654 154.955 303.482 154.694C305.703 154.302 307.793 153.518 309.752 152.604C311.45 152.865 313.278 152.996 315.237 152.735C317.458 152.473 319.417 152.082 321.246 151.82L321.637 151.69C331.041 150.122 337.311 143.331 338.225 133.796C338.356 132.098 338.617 130.53 338.748 128.833C338.878 127.657 339.009 126.351 339.139 125.175C339.401 122.824 339.662 120.473 339.923 118.122L340.184 115.249C340.184 114.596 340.315 113.943 340.315 113.42C340.968 111.069 340.837 104.016 335.874 97.355Z" fill="url(#paint0_linear_2353_41301)"/>
<path d="M159.678 202.106C159.939 199.624 160.331 196.359 160.592 192.963C160.853 190.089 161.245 187.085 161.637 184.212C161.768 182.514 162.421 181.73 164.119 181.469C165.947 181.077 167.776 180.816 169.604 180.555C170.91 180.424 171.433 180.816 171.302 182.253C170.91 186.041 170.519 189.828 170.127 193.616C169.866 195.836 169.604 198.057 169.474 200.147C169.212 202.498 170.649 203.934 173 203.543C174.568 203.281 176.135 202.89 177.702 202.367C177.963 202.236 178.355 201.845 178.355 201.453C178.747 197.273 179.139 193.094 179.531 188.914C179.792 186.171 180.184 183.428 180.445 180.555C180.576 179.379 181.229 178.596 182.404 178.465C184.494 178.073 186.453 177.812 188.543 177.42C189.588 177.289 190.241 177.812 190.11 178.987C189.849 181.73 189.457 184.604 189.196 187.347C188.804 190.612 188.412 193.747 188.151 197.012C187.89 199.494 189.066 200.669 191.547 200.408C192.984 200.277 194.421 199.755 195.857 199.363C196.119 199.232 196.51 198.71 196.51 198.318C197.033 194.138 197.555 189.828 197.947 185.518C198.208 182.906 198.47 180.163 198.861 177.551C198.992 176.245 199.645 175.461 200.951 175.33C202.91 174.938 204.87 174.677 206.829 174.416C208.396 174.285 208.788 174.547 208.527 176.114C208.266 179.118 207.874 182.253 207.612 185.257C207.221 189.436 206.698 193.616 206.176 197.796C206.045 198.841 205.914 200.016 205.784 201.061C205.653 202.367 205 203.412 203.825 203.934C198.078 207.069 192.07 209.028 185.408 208.898C185.147 208.898 184.886 208.898 184.625 208.898C183.057 208.245 181.751 208.636 180.314 209.29C176.657 210.857 173 211.902 169.082 211.902C162.682 212.424 159.547 209.29 159.678 202.106Z" fill="#204721"/>
<path d="M324.771 114.466C324.38 117.731 324.118 120.997 323.726 124.393C323.465 127.266 323.073 130.27 322.682 133.144C322.42 135.233 322.029 135.886 319.939 136.148C318.11 136.409 316.412 136.801 314.584 136.931C313.277 137.062 312.886 136.67 313.016 135.364C313.278 132.099 313.669 128.833 314.061 125.699C314.322 122.825 314.714 120.082 314.975 117.209C315.106 115.119 314.061 113.813 311.971 114.074C310.273 114.205 308.445 114.727 306.747 115.25C306.486 115.25 306.224 115.772 306.224 116.033C305.833 120.082 305.441 124.262 305.049 128.442C304.788 131.184 304.396 133.927 304.135 136.801C303.873 138.368 303.351 139.021 301.784 139.282C300.086 139.544 298.257 139.935 296.559 140.066C294.861 140.327 294.339 139.805 294.6 138.107C295.253 132.621 295.906 127.005 296.429 121.519C296.429 120.997 296.559 120.344 296.559 119.821C296.559 117.862 295.645 116.817 293.686 117.078C291.988 117.209 290.29 117.731 288.722 118.254C288.461 118.384 288.069 118.907 288.069 119.299C287.677 122.172 287.416 125.046 287.155 127.788C286.763 131.837 286.241 135.756 285.849 139.805C285.718 141.111 285.065 141.895 283.629 142.156C281.669 142.417 279.71 142.809 277.751 143.07C276.575 143.201 276.184 142.809 276.184 141.633C276.445 139.021 276.706 136.54 276.967 133.927C277.359 129.617 277.882 125.437 278.404 121.127C278.535 119.429 278.796 117.862 279.057 116.164C279.188 114.858 279.841 113.944 281.016 113.29C285.326 110.809 290.028 109.241 294.992 108.588C297.343 108.197 299.694 108.197 301.914 109.111C302.175 109.242 302.567 109.111 302.828 108.98C306.747 107.152 310.796 105.976 314.975 105.584C318.241 105.323 321.245 105.715 323.335 108.588C324.51 110.156 324.771 112.246 324.771 114.466Z" fill="#204721"/>
<path d="M228.38 123.478C229.033 119.299 226.812 116.425 222.633 116.295C219.759 116.164 217.016 116.556 214.143 116.817C212.706 116.948 212.184 116.686 212.314 115.119C212.445 113.682 212.575 112.246 212.706 110.809C212.837 110.025 213.359 109.241 214.143 109.111C219.237 108.197 224.331 107.282 229.555 108.458C233.735 109.503 235.955 112.507 236.739 116.556C237.392 119.69 237.261 122.956 236.869 126.09C236.478 130.27 235.955 134.45 235.433 138.499C234.78 144.637 231.384 148.817 225.898 151.299C221.718 153.127 217.147 154.041 212.575 153.388C208.004 152.735 205 149.731 205 145.16C205.131 141.241 205.392 137.323 206.306 133.666C207.743 127.788 212.184 124.654 217.8 122.956C220.412 122.172 223.024 121.911 225.637 122.564C226.551 122.695 227.465 123.086 228.38 123.478ZM226.42 134.188C226.682 130.923 225.506 129.617 223.024 129.748C222.371 129.748 221.718 129.878 221.065 130.009C218.584 130.531 216.233 131.576 215.71 134.319C215.188 136.931 214.927 139.674 214.796 142.286C214.665 143.984 215.841 145.029 217.408 145.16C219.237 145.29 220.935 145.029 222.502 144.246C224.331 143.331 225.506 141.895 225.767 139.935C226.029 137.846 226.29 135.625 226.42 134.188Z" fill="#204721"/>
<path d="M109.263 220.131C106.259 220.523 103.516 221.176 100.642 221.437C99.3361 221.568 98.03 221.437 96.7239 221.045C93.4585 220.262 91.2382 217.649 91.1075 214.253C90.9769 211.511 91.2381 208.898 91.4994 206.155C91.8912 202.368 92.2831 198.58 92.6749 194.923C92.8055 193.617 93.4585 192.964 94.7647 192.702C96.7239 192.311 98.8137 192.049 100.773 191.658C101.948 191.527 102.471 192.049 102.34 193.225C102.079 195.968 101.687 198.711 101.426 201.584C101.165 204.327 100.773 206.939 100.512 209.682C100.381 211.641 101.557 212.947 103.516 212.817C105.606 212.686 107.695 212.164 109.655 211.772C109.916 211.772 110.177 211.249 110.308 210.988C110.961 205.633 111.483 200.409 112.136 195.053C112.267 193.878 112.397 192.833 112.528 191.658C112.659 190.482 113.312 189.698 114.487 189.568C116.446 189.176 118.406 188.915 120.365 188.653C121.932 188.523 122.324 188.915 122.193 190.351C121.932 193.094 121.54 195.968 121.279 198.711C120.757 203.021 120.365 207.331 119.842 211.641C119.45 215.298 119.189 219.086 118.406 222.743C116.969 229.796 112.136 233.715 105.475 235.282C102.079 236.196 98.4218 236.719 94.8953 235.804C92.8055 235.282 91.1076 234.107 90.0627 232.278C89.4096 231.102 89.4096 230.188 90.4545 229.404C92.2831 228.098 94.2422 226.923 96.2014 225.747C96.9851 225.355 97.7688 225.617 98.2912 226.27C100.12 228.751 102.601 228.36 105.083 227.576C107.565 226.792 108.871 224.833 109.132 222.351C109.132 221.568 109.263 220.784 109.263 220.131Z" fill="#204721"/>
<path d="M66.0307 127.265C63.0266 127.265 59.8919 126.743 57.2797 124.653C54.6675 122.694 53.3613 119.951 53.3613 116.816C53.3613 113.551 53.7532 110.155 54.0144 106.89C54.2756 104.016 54.5368 101.143 55.1899 98.3997C56.7572 91.216 61.4593 86.6446 68.1205 84.0324C72.4307 82.3344 77.0021 81.5507 81.7042 81.8119C86.5368 82.0732 90.194 84.9466 91.5001 89.6487C92.0226 91.3466 91.6307 92.1303 90.194 92.914C88.3654 93.8283 86.5369 94.7426 84.5777 95.5262C83.2715 96.1793 82.4879 95.7875 82.096 94.4813C81.3124 91.9997 79.4838 90.9548 76.8715 90.9548C74.2593 90.9548 71.7777 91.4773 69.5573 92.7834C66.945 94.2201 65.6389 96.5711 65.2471 99.5752C64.7246 103.755 64.3328 107.934 63.8103 112.114C63.4185 115.51 64.8552 117.6 68.1205 117.992C72.1695 118.383 77.7858 117.077 80.1369 111.983C80.2675 111.722 80.3981 111.461 80.5287 111.2C81.1817 110.155 82.096 109.763 83.2715 110.024C84.9695 110.416 86.6675 110.677 88.3654 110.939C90.194 111.33 90.7164 111.983 89.8022 113.812C87.1899 119.298 82.8797 122.955 77.2634 125.045C73.6062 126.481 69.9491 127.134 66.0307 127.265Z" fill="#204721"/>
<path d="M160.329 95.7879C160.59 95.5266 160.721 95.2654 160.851 95.0042C163.725 90.4328 166.729 85.8613 169.472 81.2899C170.386 79.8532 171.431 78.9389 173.129 78.8083C174.696 78.547 176.394 78.2858 177.962 78.1552C179.268 78.0246 179.66 78.547 179.529 79.8532C179.268 82.596 178.876 85.3389 178.615 88.0818C178.092 92.2613 177.7 96.5715 177.178 100.751C176.917 102.972 176.656 105.323 176.394 107.543C176.264 108.718 175.611 109.372 174.435 109.502C172.607 109.763 170.909 110.155 169.08 110.286C167.643 110.416 167.382 110.155 167.513 108.718C168.035 103.102 168.558 97.4858 170.647 92.1307C170.778 91.7389 170.909 91.3471 170.909 90.8246C170.778 91.0858 170.647 91.347 170.517 91.6083C168.558 96.1797 165.554 100.098 162.811 104.147C162.549 104.539 162.027 105.061 161.505 105.192C160.068 105.584 158.631 105.714 157.194 105.976C156.411 106.106 155.888 105.584 155.366 104.8C153.537 101.404 151.447 98.1389 150.664 94.2205C150.664 94.2205 150.533 94.0899 150.402 93.8287C150.402 94.3511 150.402 94.6123 150.402 94.8736C151.186 99.0532 151.056 103.363 150.402 107.543C150.272 108.588 150.141 109.763 150.011 110.808C149.88 112.506 149.227 113.29 147.529 113.551C145.962 113.812 144.264 114.074 142.696 114.335C141.521 114.465 140.998 114.074 141.129 112.898C141.521 108.98 141.913 105.061 142.435 101.143C142.958 96.9634 143.349 92.6532 143.872 88.4736C144.002 87.4287 144.133 86.3838 144.264 85.3389C144.525 83.7715 145.047 83.2491 146.615 82.8573C148.182 82.596 149.749 82.3348 151.317 82.2042C152.884 82.0736 153.407 82.3348 154.06 83.6409C155.888 87.2981 157.847 90.9552 159.676 94.6124C159.807 95.0042 160.068 95.396 160.329 95.7879Z" fill="#204721"/>
<path d="M81.442 157.959C82.2257 158.22 83.0093 158.482 83.793 159.004C86.0134 160.31 86.6665 162.4 86.4053 164.882C86.0134 168.539 84.1848 171.412 81.0501 173.371C77.6542 175.461 73.8665 176.376 70.0787 177.029C67.5971 177.42 65.246 177.682 62.7644 177.812C61.0665 177.943 59.3685 177.812 57.8012 177.551C56.3644 177.29 55.5807 176.245 55.7114 174.678C55.9726 171.412 56.3644 168.278 56.7563 165.012C57.2787 160.833 57.8011 156.653 58.193 152.604C58.4542 150.253 59.6297 148.555 61.7195 147.51C65.1155 145.682 68.7726 144.767 72.4298 144.245C75.1726 143.722 77.9155 143.592 80.7889 144.245C87.7114 145.812 87.4502 152.996 84.1849 156.261C83.2706 156.522 82.3563 157.176 81.442 157.959ZM65.6379 170.106C67.8583 169.714 69.9481 169.584 71.9073 169.061C73.2134 168.8 74.3889 168.147 75.5644 167.363C76.4787 166.71 77.0012 165.665 76.4787 164.359C76.0869 163.184 75.042 162.922 73.8665 163.053C71.3848 163.184 68.9032 163.576 66.291 163.837C66.1604 166.057 65.8991 167.886 65.6379 170.106ZM66.944 157.567C68.3808 157.306 69.6869 157.306 70.993 156.914C72.4298 156.522 73.8665 156.131 75.1726 155.608C76.2175 155.086 76.74 153.649 76.3481 152.604C76.0869 151.69 75.1726 151.037 73.8665 151.167C71.9073 151.429 70.0787 151.82 68.1195 152.212C67.8583 152.212 67.4665 152.735 67.4665 152.996C67.3359 154.563 67.2052 156 66.944 157.567Z" fill="#204721"/>
<path d="M222.634 203.804C219.238 203.804 216.756 203.412 214.666 201.583C212.185 199.494 211.532 196.62 211.662 193.616C211.923 190.09 212.315 186.563 212.968 183.167C214.144 177.812 217.54 174.286 222.503 172.196C226.683 170.367 230.862 169.453 235.434 170.106C238.96 170.628 241.834 171.935 243.009 175.592C244.054 179.118 242.748 183.298 239.875 185.649C237.132 187.869 233.866 189.045 230.47 189.567C227.858 189.959 225.246 190.22 222.634 190.481C221.719 190.481 221.328 190.873 221.328 191.788C221.328 192.31 221.328 192.702 221.328 193.224C221.328 194.922 222.372 196.098 224.07 196.228C227.597 196.359 230.732 195.445 233.213 192.702C234.781 190.873 235.303 190.743 237.523 191.657C238.307 191.918 239.091 192.179 239.875 192.571C241.442 193.224 241.834 194.008 240.919 195.575C239.613 197.796 237.654 199.494 235.434 200.669C231.646 202.367 226.291 203.804 222.634 203.804ZM222.111 184.212C224.985 183.82 227.858 183.428 230.47 182.906C231.515 182.645 232.56 181.992 233.213 181.077C234.519 179.379 233.605 177.551 231.515 177.29C230.732 177.159 229.948 177.159 229.164 177.29C225.377 177.812 222.503 180.032 222.111 184.212Z" fill="#204721"/>
<path d="M218.586 91.0859C218.848 88.6043 219.109 85.2084 219.631 81.9431C220.546 76.4573 223.68 72.539 228.644 70.188C232.954 68.2288 237.525 67.1839 242.358 67.8369C247.452 68.49 250.325 71.7553 250.064 76.8492C249.933 80.6369 249.411 84.5553 248.758 88.3431C248.105 92.1308 246.015 95.2655 242.75 97.3553C237.787 100.621 232.301 101.927 226.423 101.274C221.199 100.621 218.456 97.3553 218.586 91.0859ZM236.611 75.8043C236.35 75.8043 235.958 75.8043 235.697 75.8043C232.301 76.0655 229.819 77.8941 229.297 80.7676C228.774 83.9023 228.513 87.037 228.252 90.1717C228.121 91.739 229.166 92.9145 230.864 93.0451C232.693 93.1757 234.521 92.9145 236.219 92.1308C238.048 91.2166 239.223 89.7798 239.484 87.8206C239.876 85.2084 240.138 82.4655 240.399 79.8533C240.66 76.8492 239.615 75.6737 236.611 75.8043Z" fill="#204721"/>
<path d="M124.674 98.008C124.412 100.62 124.151 104.277 123.498 107.934C122.845 111.983 120.625 115.118 117.229 117.339C112.265 120.473 106.78 121.779 101.033 121.126C95.8083 120.473 92.9348 117.208 93.1961 111.983C93.3267 108.457 93.7185 105.061 94.3716 101.534C95.1552 96.5712 98.0287 92.9141 102.339 90.5631C106.91 88.212 111.743 87.0365 116.837 87.6896C122.061 88.3426 124.804 91.4774 124.674 98.008ZM106.78 113.159C107.955 112.898 109.261 112.637 110.437 112.245C112.527 111.461 113.833 109.894 114.225 107.543C114.355 107.02 114.355 106.498 114.355 106.106C114.616 103.624 115.008 101.012 115.139 98.5304C115.27 96.9631 114.094 95.9182 112.657 95.7876C110.829 95.6569 109 95.9182 107.302 96.7019C105.343 97.6161 104.167 99.0529 104.037 101.273C103.776 103.886 103.514 106.498 103.123 109.11C102.6 112.245 104.429 113.159 106.78 113.159Z" fill="#204721"/>
<path d="M201.474 135.623C201.213 138.236 200.952 141.893 200.298 145.55C199.515 149.991 197.033 153.517 192.984 155.738C188.282 158.35 183.188 159.525 177.833 158.872C172.739 158.35 169.866 155.085 169.996 149.86C170.127 146.203 170.519 142.546 171.172 138.889C171.956 134.056 174.698 130.53 179.009 128.179C183.58 125.697 188.413 124.521 193.637 125.305C198.992 126.089 201.605 129.223 201.474 135.623ZM183.45 150.774C183.711 150.774 183.972 150.774 184.364 150.774C188.152 150.513 190.503 148.554 191.025 145.158C191.156 144.636 191.156 144.113 191.156 143.591C191.417 141.24 191.809 139.019 191.809 136.668C191.939 134.709 190.894 133.664 188.935 133.534C187.107 133.403 185.409 133.664 183.841 134.448C182.013 135.362 180.968 136.668 180.707 138.758C180.445 141.37 180.184 143.983 179.792 146.595C179.401 149.599 180.445 150.774 183.45 150.774Z" fill="#204721"/>
<path d="M203.564 93.1756C201.474 93.4368 199.385 93.8287 197.425 94.0899C196.511 94.2205 195.466 94.4817 194.552 94.6123C193.899 94.743 193.638 95.0042 193.507 95.6572C193.246 98.6613 192.854 101.665 192.462 104.669C192.332 105.714 191.809 106.498 190.634 106.629C188.544 107.02 186.454 107.412 184.364 107.674C183.319 107.804 182.797 107.282 182.797 106.106C183.189 102.057 183.711 98.0083 184.103 93.9593C184.625 89.6491 185.017 85.3389 185.54 81.0287C185.67 80.245 185.67 79.3307 185.801 78.4164C186.062 76.9797 186.715 76.3266 188.152 76.0654C189.981 75.8041 191.679 75.4123 193.507 75.1511C195.205 74.8899 195.597 75.2817 195.466 76.9797C195.205 79.5919 194.944 82.3348 194.552 84.947C194.552 85.2083 194.552 85.6001 194.552 85.9919C197.817 85.4695 201.083 84.947 204.348 84.4246C204.609 81.8123 205.001 79.0695 205.262 76.4572C205.262 75.9348 205.393 75.4123 205.523 75.0205C205.654 73.845 206.307 73.1919 207.483 72.9307C209.572 72.5388 211.532 72.2776 213.621 71.8858C214.666 71.7552 215.319 72.2776 215.189 73.4531C214.797 76.849 214.405 80.245 214.144 83.6409C213.621 87.9511 213.229 92.2613 212.707 96.5715C212.576 98.0083 212.446 99.445 212.185 100.882C211.923 102.449 211.401 102.972 209.834 103.363C208.005 103.625 206.176 104.016 204.217 104.278C202.781 104.408 202.389 104.016 202.519 102.71C202.911 99.8368 203.172 96.5715 203.564 93.1756Z" fill="#204721"/>
<path d="M250.845 148.033C247.58 147.902 244.706 147.38 242.878 144.898C241.441 142.939 241.049 140.588 241.18 138.237C241.441 134.711 241.963 131.184 242.355 127.657C242.616 124.915 243.008 122.302 243.27 119.56C243.4 118.253 244.184 117.6 245.359 117.47C247.319 117.078 249.408 116.817 251.368 116.425C252.412 116.294 253.066 116.817 252.935 117.992C252.543 121.388 252.151 124.915 251.759 128.311C251.498 130.923 251.237 133.535 250.976 136.147C250.715 138.368 251.89 139.674 254.241 139.413C256.2 139.282 258.029 138.76 259.988 138.237C260.38 138.106 260.641 137.584 260.772 137.192C261.555 130.662 262.208 124.131 262.992 117.47C263.253 114.988 263.645 114.466 265.996 114.074C267.694 113.813 269.392 113.551 271.221 113.29C272.527 113.159 272.919 113.682 272.788 114.857C272.265 119.56 271.743 124.392 271.221 129.094C270.829 132.621 270.437 136.017 270.045 139.543C269.914 140.98 269.392 142.155 267.955 142.939C262.47 145.943 256.723 147.511 250.845 148.033Z" fill="#204721"/>
<path d="M263.514 95.918C262.6 95.7874 261.424 95.7874 260.249 95.5261C256.461 94.6119 254.371 91.7384 254.371 87.4282C254.371 84.6853 254.763 82.0731 255.024 79.3302C255.416 75.6731 255.808 72.1466 256.2 68.4894C256.461 66.1384 256.853 65.6159 259.073 65.0935C260.902 64.8323 262.73 64.4404 264.428 64.3098C265.604 64.1792 265.996 64.7017 265.865 65.8772C265.343 70.5792 264.82 75.2812 264.298 79.9833C264.167 81.42 264.036 82.7262 263.906 84.1629C263.775 86.2527 264.82 87.5588 266.91 87.4282C268.869 87.2976 270.828 86.7752 272.787 86.2527C273.179 86.1221 273.571 85.469 273.702 84.9466C274.485 78.1547 275.269 71.2323 276.053 64.4404C276.183 62.8731 276.836 62.3506 278.404 62.0894C280.232 61.8282 281.93 61.4363 283.759 61.1751C285.326 60.9139 285.849 61.567 285.718 63.1343C285.065 68.7506 284.412 74.367 283.889 80.1139C283.628 82.7262 283.367 85.3384 282.975 87.82C282.845 89.3874 281.93 90.4323 280.624 91.216C276.314 93.567 271.612 95.0037 266.649 95.7874C265.734 95.7874 264.689 95.7874 263.514 95.918Z" fill="#204721"/>
<path d="M76.2169 203.673C74.1271 204.065 72.0373 204.326 70.0781 204.718C69.8169 204.718 69.6863 205.371 69.5557 205.632C68.6414 209.812 67.9883 213.991 66.9434 218.171C65.5067 223.787 61.9801 227.706 56.8863 230.187C55.4495 230.84 54.7965 230.71 54.1434 229.403C53.4904 228.228 52.8373 227.052 52.3148 225.877C51.7924 224.701 51.7924 223.787 52.9679 223.265C57.6699 220.783 58.7148 216.342 59.6291 211.771C60.4128 207.852 60.9353 203.934 61.5883 200.016C61.8495 198.187 62.372 197.665 64.3312 197.273C68.9026 196.489 73.6047 195.836 78.3067 195.052C80.3965 194.791 82.3557 194.399 84.4455 194.008C86.274 193.746 86.7965 194.138 86.6659 195.967C86.2741 199.493 85.8822 203.02 85.4904 206.546C84.968 210.857 84.5761 215.036 84.0537 219.346C83.923 220.652 83.7924 222.089 83.5312 223.395C83.4006 224.44 82.7475 225.224 81.572 225.485C79.4822 225.877 77.523 226.269 75.4332 226.53C74.2577 226.661 73.7353 226.269 73.8659 224.963C73.9965 222.742 74.2577 220.522 74.5189 218.301C75.0414 213.469 75.5639 208.636 76.2169 203.673Z" fill="#204721"/>
<path d="M102.341 148.425C104.169 148.033 105.737 147.51 107.435 147.118C109.916 146.596 112.398 146.596 114.749 147.38C117.884 148.425 119.843 151.037 119.973 154.302C120.365 163.053 115.271 169.323 106.39 171.02C102.602 171.674 98.6836 172.196 94.7653 171.674C94.3734 171.674 93.9816 171.543 93.5898 171.543C90.5857 171.02 90.1939 170.498 90.7163 167.363C91.3694 162.792 91.7612 158.22 92.2836 153.518C92.6755 149.992 93.0673 146.596 93.5898 143.069C93.7204 141.894 94.3734 141.241 95.4183 140.98C97.3775 140.588 99.3367 140.327 101.296 140.065C102.863 139.935 103.255 140.327 102.994 141.894C102.733 144.245 102.602 146.335 102.341 148.425ZM102.602 163.837C103.386 163.706 104.561 163.706 105.867 163.314C108.741 162.661 110.569 160.702 110.7 158.09C110.831 155.869 109.786 154.694 107.696 154.955C105.867 155.086 104.039 155.608 102.21 156C101.949 156 101.557 156.523 101.557 156.784C101.296 158.612 101.035 160.571 100.904 162.4C100.512 163.837 100.512 163.837 102.602 163.837Z" fill="#204721"/>
<path d="M152.233 153.257C150.665 155.608 149.098 157.959 147.531 160.179C144.918 164.097 144.918 164.097 140.216 164.881C139.041 165.012 137.735 165.273 136.559 165.403C135.906 165.403 135.384 165.273 134.73 165.142C134.861 164.62 134.992 163.967 135.253 163.575C138.257 159.526 141.261 155.477 144.135 151.428C144.918 150.383 145.702 149.208 146.616 148.163C144.135 144.506 141.653 140.979 139.302 137.452C139.171 137.191 138.91 136.93 138.779 136.669C138.257 135.624 138.388 134.71 139.694 134.448C141 134.057 142.437 133.795 143.873 133.665C148.575 133.012 147.922 133.012 150.273 136.669C151.188 138.106 152.102 139.412 153.016 140.979C154.714 138.628 156.282 136.408 157.718 134.187C159.024 132.097 160.722 130.922 163.204 130.661C164.771 130.53 166.469 130.138 168.037 129.877C168.559 129.877 169.081 130.008 169.604 130.138C169.473 130.661 169.473 131.314 169.212 131.836C167.906 133.795 166.339 135.755 165.033 137.583C163.073 140.195 161.114 142.808 159.155 145.42C158.763 146.073 158.633 146.465 159.155 147.118C161.506 150.644 163.988 154.171 166.339 157.697C166.6 158.089 166.861 158.35 166.992 158.742C167.514 159.787 167.253 160.571 166.208 160.832C164.771 161.224 163.204 161.485 161.637 161.746C160.984 161.877 160.33 161.877 159.677 162.008C158.241 162.269 157.196 161.746 156.543 160.44C155.106 157.959 153.669 155.738 152.233 153.257Z" fill="#204721"/>
<path d="M143.615 206.025C140.611 206.417 137.738 207.07 134.733 207.201C129.117 207.331 125.982 204.197 125.982 198.58C125.982 195.446 126.505 192.18 126.766 189.046C126.897 187.87 127.811 187.217 128.856 187.086C130.684 186.695 132.644 186.433 134.472 186.172C136.04 185.911 136.562 186.303 136.431 188.001C136.301 190.221 135.909 192.442 135.648 194.531C135.648 195.054 135.517 195.707 135.648 196.229C135.778 197.797 136.693 198.711 138.26 198.45C140.219 198.319 142.178 197.797 144.138 197.405C144.399 197.405 144.66 196.882 144.66 196.621C145.052 193.486 145.444 190.352 145.705 187.217C145.966 184.866 146.358 184.344 148.709 183.952C150.407 183.69 152.235 183.299 153.933 183.168C155.109 183.037 155.631 183.56 155.501 184.735C154.978 190.09 154.325 195.446 153.672 200.801C153.28 204.327 152.889 207.854 152.497 211.38C152.235 213.601 151.713 214.384 149.493 214.646C147.925 214.907 146.358 215.168 144.791 215.429C143.223 215.691 142.701 215.168 142.831 213.601C143.093 210.988 143.354 208.507 143.615 206.025Z" fill="#204721"/>
<path d="M133.948 138.237C133.426 142.417 132.904 147.641 132.381 152.735C131.989 156.262 131.597 159.788 131.206 163.315C130.944 165.797 130.422 166.58 127.81 166.841C126.242 167.103 124.675 167.364 123.108 167.495C121.671 167.625 121.148 167.233 121.279 165.797C122.193 157.699 123.108 149.731 124.022 141.633C124.153 140.458 124.283 139.282 124.414 138.107C124.544 136.931 125.328 136.278 126.373 136.148C128.202 135.756 130.03 135.495 131.859 135.233C133.818 135.103 134.079 135.364 133.948 138.237Z" fill="#204721"/>
<path d="M250.847 185.257C249.019 185.388 248.627 184.996 248.757 183.69C249.019 179.641 249.41 175.592 249.672 171.543C249.933 167.233 250.325 162.923 250.586 158.482C250.847 154.825 251.108 154.433 254.765 153.91C256.202 153.78 257.77 153.388 259.206 153.257C260.512 153.127 260.774 153.519 260.643 154.694C260.382 157.437 259.859 160.18 259.468 162.792C258.553 168.8 257.639 174.678 256.855 180.686C256.725 181.208 256.725 181.861 256.594 182.384C256.333 183.559 255.81 184.343 254.504 184.604C253.067 184.866 251.761 185.127 250.847 185.257Z" fill="#204721"/>
<path d="M269.263 60.7838C266.52 60.6532 264.169 60.2613 262.471 58.3021C262.079 57.9103 261.818 57.5185 261.557 56.996C260.512 55.1675 260.773 54.2532 262.733 53.3389C264.039 52.6858 265.345 52.0328 266.52 51.5103C267.304 51.1185 267.957 51.3797 268.218 52.1634C268.871 54.1226 270.83 54.2532 272.398 53.8613C273.965 53.4695 275.01 52.4246 275.924 51.1185C276.708 49.6817 277.1 49.5511 278.798 49.8123C279.712 49.943 280.757 50.2042 281.671 50.3348C283.369 50.5961 283.63 51.1185 282.847 52.6858C280.626 56.996 276.969 59.3471 272.398 60.392C271.092 60.6532 270.047 60.6532 269.263 60.7838Z" fill="#204721"/>
<path d="M257.113 192.31C256.983 192.964 256.852 194.139 256.591 195.315C256.199 196.882 255.285 198.057 253.718 198.449C251.889 198.841 250.06 199.102 248.101 199.233C246.795 199.364 245.881 198.58 245.881 197.143C245.881 195.837 246.011 194.4 246.142 193.094C246.534 190.874 247.971 189.698 250.06 189.176C251.367 188.915 252.673 188.653 254.109 188.523C256.199 188.392 257.113 189.306 257.113 192.31Z" fill="#204721"/>
<path d="M158.371 200.147C158.632 197.665 159.024 194.4 159.285 191.004C159.547 188.131 159.938 185.126 160.33 182.253C160.461 180.555 161.114 179.771 162.812 179.51C164.641 179.118 166.469 178.857 168.298 178.596C169.604 178.465 170.126 178.857 169.996 180.294C169.604 184.082 169.212 187.869 168.82 191.657C168.559 193.877 168.298 196.098 168.167 198.188C167.906 200.539 169.343 201.975 171.694 201.584C173.261 201.322 174.828 200.931 176.396 200.408C176.657 200.277 177.049 199.886 177.049 199.494C177.44 195.314 177.832 191.135 178.224 186.955C178.485 184.212 178.877 181.469 179.138 178.596C179.269 177.42 179.922 176.637 181.098 176.506C183.187 176.114 185.147 175.853 187.236 175.461C188.281 175.331 188.934 175.853 188.804 177.028C188.543 179.771 188.151 182.645 187.889 185.388C187.498 188.653 187.106 191.788 186.845 195.053C186.583 197.535 187.759 198.71 190.241 198.449C191.677 198.318 193.114 197.796 194.551 197.404C194.812 197.273 195.204 196.751 195.204 196.359C195.726 192.18 196.249 187.869 196.641 183.559C196.902 180.947 197.163 178.204 197.555 175.592C197.685 174.286 198.338 173.502 199.645 173.371C201.604 172.979 203.563 172.718 205.522 172.457C207.089 172.326 207.481 172.588 207.22 174.155C206.959 177.159 206.567 180.294 206.306 183.298C205.914 187.477 205.392 191.657 204.869 195.837C204.738 196.882 204.608 198.057 204.477 199.102C204.347 200.408 203.694 201.453 202.518 201.975C196.771 205.11 190.763 207.069 184.102 206.939C183.841 206.939 183.579 206.939 183.318 206.939C181.751 206.286 180.445 206.677 179.008 207.331C175.351 208.898 171.694 209.943 167.775 209.943C161.375 210.596 158.24 207.331 158.371 200.147Z" fill="white"/>
<path d="M323.596 112.638C323.204 115.903 322.943 119.168 322.551 122.564C322.29 125.438 321.898 128.442 321.506 131.315C321.245 133.405 320.853 134.058 318.763 134.32C316.934 134.581 315.236 134.973 313.408 135.103C312.102 135.234 311.71 134.842 311.841 133.536C312.102 130.271 312.494 127.005 312.885 123.871C313.147 120.997 313.538 118.254 313.8 115.381C313.93 113.291 312.885 111.985 310.796 112.246C309.098 112.377 307.269 112.899 305.571 113.422C305.31 113.422 305.049 113.944 305.049 114.205C304.657 118.254 304.265 122.434 303.873 126.613C303.612 129.356 303.22 132.099 302.959 134.973C302.698 136.54 302.175 137.193 300.608 137.454C298.91 137.715 297.081 138.107 295.383 138.238C293.685 138.499 293.163 137.977 293.424 136.279C294.077 130.793 294.73 125.177 295.253 119.691C295.253 119.168 295.383 118.515 295.383 117.993C295.383 116.034 294.469 114.989 292.51 115.25C290.812 115.381 289.114 115.903 287.547 116.426C287.285 116.556 286.894 117.079 286.894 117.471C286.502 120.344 286.241 123.217 285.979 125.96C285.587 130.009 285.065 133.928 284.673 137.977C284.543 139.283 283.889 140.066 282.453 140.328C280.494 140.589 278.534 140.981 276.575 141.242C275.4 141.373 275.008 140.981 275.008 139.805C275.269 137.193 275.53 134.711 275.792 132.099C276.183 127.789 276.706 123.609 277.228 119.299C277.359 117.601 277.62 116.034 277.881 114.336C278.012 113.03 278.665 112.115 279.84 111.462C284.151 108.981 288.853 107.413 293.816 106.76C296.167 106.368 298.518 106.368 300.738 107.283C301 107.413 301.392 107.283 301.653 107.152C305.571 105.324 309.62 104.148 313.8 103.756C317.065 103.495 320.069 103.887 322.159 106.76C323.204 108.197 323.465 110.417 323.596 112.638Z" fill="white"/>
<path d="M227.202 121.519C227.855 117.34 225.635 114.466 221.455 114.336C218.581 114.205 215.839 114.597 212.965 114.858C211.528 114.989 211.006 114.727 211.137 113.16C211.267 111.723 211.398 110.287 211.528 108.85C211.659 108.066 212.181 107.282 212.965 107.152C218.059 106.238 223.153 105.323 228.377 106.499C232.557 107.544 234.777 110.548 235.561 114.597C236.214 117.731 236.084 120.997 235.692 124.131C235.3 128.311 234.777 132.491 234.255 136.54C233.602 142.678 230.206 146.858 224.72 149.34C220.541 151.168 215.969 152.083 211.398 151.429C206.826 150.776 203.822 147.772 203.822 143.201C203.953 139.282 204.214 135.364 205.128 131.707C206.565 125.829 211.006 122.695 216.622 120.997C219.235 120.213 221.847 119.952 224.459 120.605C225.243 120.736 226.157 121.127 227.202 121.519ZM225.112 132.36C225.373 129.095 224.198 127.789 221.716 127.919C221.063 127.919 220.41 128.05 219.757 128.18C217.275 128.703 214.924 129.748 214.402 132.491C213.879 135.103 213.618 137.846 213.488 140.458C213.357 142.156 214.533 143.201 216.1 143.331C217.928 143.462 219.626 143.201 221.194 142.417C223.022 141.503 224.198 140.066 224.459 138.107C224.72 135.887 224.981 133.797 225.112 132.36Z" fill="white"/>
<path d="M107.956 218.172C104.952 218.564 102.209 219.217 99.3356 219.478C98.0295 219.609 96.7233 219.478 95.4172 219.086C92.1519 218.303 89.9315 215.69 89.8009 212.294C89.6703 209.552 89.9315 206.939 90.1927 204.196C90.5846 200.409 90.9764 196.621 91.3683 192.964C91.4989 191.658 92.1519 191.005 93.458 190.743C95.4172 190.352 97.507 190.09 99.4662 189.699C100.642 189.568 101.164 190.09 101.034 191.266C100.772 194.009 100.38 196.752 100.119 199.625C99.858 202.368 99.4662 204.98 99.205 207.723C99.0744 209.682 100.25 210.988 102.209 210.858C104.299 210.727 106.389 210.205 108.348 209.813C108.609 209.813 108.87 209.29 109.001 209.029C109.654 203.674 110.176 198.45 110.829 193.094C110.96 191.919 111.091 190.874 111.221 189.699C111.352 188.523 112.005 187.739 113.18 187.609C115.14 187.217 117.099 186.956 119.058 186.694C120.625 186.564 121.017 186.956 120.887 188.392C120.625 191.135 120.234 194.009 119.972 196.752C119.45 201.062 119.058 205.372 118.536 209.682C118.144 213.339 117.883 217.127 117.099 220.784C115.662 227.837 110.829 231.756 104.168 233.323C100.772 234.237 97.1152 234.76 93.5886 233.846C91.4989 233.323 89.8009 232.148 88.756 230.319C88.103 229.143 88.1029 228.229 89.1478 227.445C90.9764 226.139 92.9356 224.964 94.8948 223.788C95.6784 223.397 96.4621 223.658 96.9846 224.311C98.8132 226.792 101.295 226.401 103.776 225.617C106.258 224.833 107.564 222.874 107.825 220.392C107.825 219.609 107.956 218.825 107.956 218.172Z" fill="white"/>
<path d="M64.7241 125.306C61.72 125.306 58.5853 124.784 55.9731 122.694C53.3608 120.735 52.0547 117.992 52.0547 114.857C52.0547 111.592 52.4465 108.196 52.7077 104.931C52.969 102.057 53.2302 99.1836 53.8833 96.4407C55.4506 89.2571 60.1526 84.6856 66.8139 82.0734C71.1241 80.3754 75.6955 79.5917 80.3975 79.8529C85.2302 80.1142 88.8873 82.9876 90.1935 87.6897C90.7159 89.3876 90.3241 90.1713 88.8873 90.955C87.0588 91.8693 85.2302 92.7836 83.271 93.5672C81.9649 94.2203 81.1812 93.8285 80.7894 92.5224C80.0057 90.0407 78.1772 88.9958 75.6955 88.9958C73.0833 88.9958 70.6016 89.5183 68.3812 90.8244C65.769 92.2612 64.4628 94.6121 64.071 97.6162C63.5485 101.796 63.1567 105.975 62.6343 110.155C62.2425 113.551 63.6792 115.641 66.9445 116.033C70.9935 116.424 76.6098 115.118 78.9608 110.024C79.0914 109.763 79.222 109.502 79.3527 109.241C80.0057 108.196 80.92 107.804 82.0955 108.065C83.7935 108.457 85.4914 108.718 87.1894 108.98C89.018 109.371 89.5404 110.024 88.6261 111.853C86.0139 117.339 81.7037 120.996 76.0873 123.086C72.4302 124.522 68.773 125.306 64.7241 125.306Z" fill="white"/>
<path d="M159.022 93.8289C159.284 93.5677 159.414 93.3064 159.545 93.0452C162.418 88.4738 165.422 83.9023 168.165 79.3309C169.08 77.8942 170.124 76.9799 171.822 76.8493C173.39 76.5881 175.088 76.3268 176.655 76.1962C177.961 76.0656 178.353 76.588 178.222 77.8942C177.961 80.637 177.569 83.3799 177.308 86.1228C176.786 90.3024 176.394 94.6125 175.871 98.7921C175.61 101.013 175.349 103.364 175.088 105.584C174.957 106.76 174.304 107.413 173.128 107.543C171.3 107.804 169.602 108.196 167.773 108.327C166.337 108.457 166.075 108.196 166.206 106.76C166.728 101.143 167.251 95.5269 169.341 90.1718C169.471 89.7799 169.602 89.3881 169.602 88.8656C169.471 89.1269 169.341 89.3881 169.21 89.6493C167.251 94.2207 164.247 98.1391 161.504 102.188C161.243 102.58 160.72 103.102 160.198 103.233C158.761 103.625 157.324 103.755 155.888 104.017C155.104 104.147 154.582 103.625 154.059 102.841C152.231 99.4452 150.141 96.1799 149.357 92.2615C149.357 92.2615 149.226 92.1309 149.096 91.8697C149.096 92.3922 149.096 92.6534 149.096 92.9146C149.879 97.0942 149.749 101.404 149.096 105.584C148.965 106.629 148.835 107.804 148.704 108.849C148.573 110.547 147.92 111.331 146.222 111.592C144.655 111.853 142.957 112.115 141.39 112.376C140.214 112.506 139.692 112.115 139.822 110.939C140.214 107.021 140.606 103.102 141.128 99.184C141.651 95.0044 142.043 90.6942 142.565 86.5146C142.696 85.4697 142.826 84.4248 142.957 83.3799C143.218 81.8126 143.741 81.2901 145.308 80.8983C146.875 80.637 148.443 80.3758 150.01 80.2452C151.577 80.1146 152.1 80.3758 152.753 81.682C154.582 85.3391 156.541 88.9962 158.369 92.6534C158.631 93.1758 158.761 93.4371 159.022 93.8289Z" fill="white"/>
<path d="M80.2643 156C81.0479 156.261 81.8316 156.523 82.6153 157.045C84.8357 158.351 85.4887 160.441 85.2275 162.923C84.8357 166.58 83.0071 169.453 79.8724 171.412C76.4765 173.502 72.6887 174.417 68.901 175.07C66.4193 175.461 64.0683 175.723 61.5867 175.853C59.8887 175.984 58.1908 175.853 56.6234 175.592C55.1867 175.331 54.403 174.286 54.5336 172.719C54.7948 169.453 55.1867 166.319 55.5785 163.053C56.101 158.874 56.6234 154.694 57.0152 150.645C57.2765 148.294 58.452 146.596 60.5418 145.551C63.9377 143.723 67.5948 142.808 71.252 142.286C73.9948 141.763 76.7377 141.633 79.6112 142.286C86.5337 143.853 86.2724 151.037 83.0071 154.302C82.0928 154.694 81.1786 155.347 80.2643 156ZM64.3295 168.278C66.55 167.886 68.6397 167.755 70.5989 167.233C71.905 166.972 73.0806 166.319 74.2561 165.535C75.1704 164.882 75.6928 163.837 75.1704 162.531C74.7785 161.355 73.7336 161.094 72.5581 161.225C70.0765 161.355 67.5949 161.747 64.9826 162.008C64.852 164.098 64.5908 166.057 64.3295 168.278ZM65.7663 155.608C67.203 155.347 68.5092 155.347 69.8153 154.955C71.252 154.563 72.6887 154.172 73.9949 153.649C75.0398 153.127 75.5622 151.69 75.1704 150.645C74.9091 149.731 73.9949 149.078 72.6887 149.208C70.7295 149.47 68.901 149.861 66.9418 150.253C66.6806 150.253 66.2887 150.776 66.2887 151.037C66.0275 152.604 65.8969 154.041 65.7663 155.608Z" fill="white"/>
<path d="M221.327 201.845C217.931 201.845 215.449 201.453 213.36 199.625C210.878 197.535 210.225 194.661 210.356 191.657C210.617 188.131 211.009 184.604 211.662 181.208C212.837 175.853 216.233 172.327 221.196 170.237C225.376 168.408 229.556 167.494 234.127 168.147C237.654 168.669 240.527 169.976 241.703 173.633C242.747 177.159 241.441 181.339 238.568 183.69C235.825 185.91 232.56 187.086 229.164 187.608C226.552 188 223.939 188.261 221.327 188.522C220.413 188.522 220.021 188.914 220.021 189.829C220.021 190.351 220.021 190.743 220.021 191.265C220.021 192.963 221.066 194.139 222.764 194.269C226.29 194.4 229.425 193.486 231.907 190.743C233.474 188.914 233.996 188.784 236.217 189.698C237.001 189.959 237.784 190.22 238.568 190.612C240.135 191.265 240.527 192.049 239.613 193.616C238.307 195.837 236.347 197.535 234.127 198.71C230.339 200.408 224.984 201.845 221.327 201.845ZM220.935 182.384C223.809 181.992 226.682 181.6 229.294 181.078C230.339 180.816 231.384 180.163 232.037 179.249C233.343 177.551 232.429 175.722 230.339 175.461C229.556 175.331 228.772 175.331 227.988 175.461C224.07 175.853 221.196 178.204 220.935 182.384Z" fill="white"/>
<path d="M217.408 89.1269C217.669 86.6453 217.93 83.2494 218.453 79.9841C219.367 74.4984 222.502 70.58 227.465 68.229C231.775 66.2698 236.347 65.2249 241.179 65.878C246.273 66.531 249.146 69.7963 248.885 74.8902C248.755 78.678 248.232 82.5963 247.579 86.3841C246.926 90.1718 244.836 93.3066 241.571 95.3964C236.608 98.6617 231.122 99.9678 225.244 99.3147C219.889 98.6617 217.146 95.3963 217.408 89.1269ZM235.302 73.9759C235.04 73.9759 234.649 73.9759 234.387 73.9759C230.991 74.2371 228.51 76.0657 227.987 78.9392C227.465 82.0739 227.204 85.2086 226.942 88.3433C226.812 89.9106 227.857 91.0861 229.555 91.2167C231.383 91.3474 233.212 91.0861 234.91 90.3024C236.738 89.3882 237.914 87.9514 238.175 85.9923C238.567 83.38 238.828 80.6371 239.089 78.0249C239.481 75.0208 238.306 73.7147 235.302 73.9759Z" fill="white"/>
<path d="M123.498 96.1798C123.237 98.7921 122.975 102.449 122.322 106.106C121.669 110.155 119.449 113.29 116.053 115.51C111.09 118.645 105.604 119.951 99.857 119.298C94.6325 118.645 91.7591 115.38 92.0203 110.155C92.1509 106.629 92.5427 103.233 93.1958 99.7064C93.9795 94.7431 96.8529 91.086 101.163 88.7349C105.735 86.3839 110.567 85.2084 115.661 85.8615C120.886 86.3839 123.498 89.6492 123.498 96.1798ZM105.473 111.331C106.649 111.07 107.955 110.808 109.13 110.417C111.22 109.633 112.526 108.066 112.918 105.715C113.049 105.192 113.049 104.67 113.049 104.278C113.31 101.796 113.702 99.1839 113.833 96.7023C113.963 95.135 112.788 94.09 111.351 93.9594C109.522 93.8288 107.694 94.09 105.996 94.8737C104.037 95.788 102.861 97.2247 102.73 99.4451C102.469 102.057 102.208 104.67 101.816 107.282C101.294 110.417 103.122 111.331 105.473 111.331Z" fill="white"/>
<path d="M200.298 133.797C200.037 136.41 199.776 140.067 199.123 143.724C198.339 148.165 195.857 151.691 191.808 153.912C187.106 156.524 182.013 157.699 176.657 157.046C171.564 156.524 168.69 153.258 168.821 148.034C168.951 144.377 169.343 140.72 169.996 137.063C170.78 132.23 173.523 128.703 177.833 126.352C182.404 123.871 187.237 122.695 192.461 123.479C197.686 124.263 200.298 127.397 200.298 133.797ZM182.143 148.818C182.404 148.818 182.666 148.818 183.057 148.818C186.845 148.556 189.196 146.597 189.719 143.201C189.849 142.679 189.849 142.156 189.849 141.634C190.11 139.283 190.502 137.063 190.502 134.712C190.633 132.752 189.588 131.707 187.629 131.577C185.8 131.446 184.102 131.707 182.535 132.491C180.706 133.405 179.661 134.712 179.4 136.801C179.139 139.414 178.878 142.026 178.486 144.638C178.225 147.642 179.27 148.948 182.143 148.818Z" fill="white"/>
<path d="M202.258 91.3456C200.168 91.6068 198.078 91.9986 196.119 92.2598C195.205 92.3904 194.16 92.6517 193.245 92.7823C192.592 92.9129 192.331 93.1741 192.2 93.8272C191.939 96.8313 191.547 99.8353 191.155 102.839C191.025 103.884 190.502 104.668 189.327 104.799C187.237 105.19 185.147 105.582 183.058 105.844C182.013 105.974 181.49 105.452 181.49 104.276C181.882 100.227 182.405 96.1782 182.796 92.1292C183.319 87.819 183.711 83.5088 184.233 79.1986C184.364 78.4149 184.364 77.5006 184.494 76.5863C184.756 75.1496 185.409 74.4966 186.845 74.2353C188.674 73.9741 190.372 73.5823 192.2 73.321C193.898 73.0598 194.29 73.4517 194.16 75.1496C193.898 77.7619 193.637 80.5047 193.245 83.117C193.245 83.3782 193.245 83.77 193.245 84.1619C196.511 83.6394 199.776 83.117 203.041 82.5945C203.302 79.9823 203.694 77.2394 203.956 74.6272C203.956 74.1047 204.086 73.5823 204.217 73.1905C204.347 72.0149 205 71.3619 206.176 71.1006C208.266 70.7088 210.225 70.4476 212.315 70.0557C213.36 69.9251 214.013 70.4476 213.882 71.6231C213.49 75.019 213.098 78.4149 212.837 81.8108C212.315 86.121 211.923 90.4313 211.4 94.7415C211.27 96.1782 211.139 97.6149 210.878 99.0517C210.617 100.619 210.094 101.141 208.527 101.533C206.698 101.795 204.87 102.186 202.911 102.448C201.474 102.578 201.082 102.186 201.213 100.88C201.605 97.8762 201.996 94.7415 202.258 91.3456Z" fill="white"/>
<path d="M249.669 146.074C246.404 145.943 243.531 145.421 241.702 142.939C240.265 140.98 239.873 138.629 240.004 136.278C240.265 132.752 240.788 129.225 241.18 125.698C241.441 122.956 241.833 120.343 242.094 117.601C242.224 116.294 243.008 115.641 244.184 115.511C246.143 115.119 248.233 114.858 250.192 114.466C251.237 114.335 251.89 114.858 251.759 116.033C251.367 119.429 250.975 122.956 250.584 126.352C250.322 128.964 250.061 131.576 249.8 134.188C249.539 136.409 250.714 137.715 253.065 137.454C255.024 137.323 256.853 136.801 258.812 136.278C259.204 136.147 259.465 135.625 259.596 135.233C260.38 128.703 261.033 122.172 261.816 115.511C262.078 113.029 262.469 112.507 264.82 112.115C266.518 111.854 268.216 111.592 270.045 111.331C271.351 111.201 271.743 111.723 271.612 112.898C271.09 117.601 270.567 122.433 270.045 127.135C269.653 130.662 269.261 134.058 268.869 137.584C268.739 139.021 268.216 140.196 266.78 140.98C261.294 144.115 255.416 145.552 249.669 146.074Z" fill="white"/>
<path d="M262.207 94.0899C261.293 93.9593 260.118 93.9592 258.942 93.698C255.154 92.7837 253.064 89.9103 253.064 85.6001C253.064 82.8572 253.456 80.245 253.718 77.5021C254.109 73.845 254.501 70.3184 254.893 66.6613C255.154 64.3103 255.546 63.7878 257.766 63.2654C259.595 63.0041 261.424 62.6123 263.122 62.4817C264.297 62.3511 264.689 62.8735 264.558 64.049C264.036 68.7511 263.513 73.4531 262.991 78.1552C262.86 79.5919 262.73 80.898 262.599 82.3348C262.469 84.4246 263.513 85.7307 265.603 85.6001C267.562 85.4695 269.522 84.947 271.481 84.4245C271.873 84.2939 272.264 83.6409 272.395 83.1184C273.179 76.3266 273.962 69.4041 274.746 62.6123C274.877 61.045 275.53 60.5225 277.097 60.2613C278.926 60 280.624 59.6082 282.452 59.347C284.02 59.0858 284.542 59.7388 284.411 61.3062C283.758 66.9225 283.105 72.5388 282.583 78.2858C282.322 80.898 282.06 83.5103 281.669 85.9919C281.538 87.5592 280.624 88.6042 279.317 89.3878C275.007 91.7389 270.305 93.1756 265.342 93.9593C264.428 93.8286 263.383 93.9593 262.207 94.0899Z" fill="white"/>
<path d="M74.9103 201.714C72.8205 202.106 70.7307 202.367 68.7715 202.759C68.5103 202.759 68.3797 203.412 68.249 203.673C67.3348 207.853 66.6817 212.032 65.6368 216.212C64.2001 221.828 60.6735 225.747 55.5796 228.228C54.1429 228.881 53.4899 228.751 52.8368 227.445C52.1837 226.269 51.5306 225.094 51.0082 223.918C50.4857 222.742 50.4857 221.828 51.6613 221.306C56.3633 218.824 57.4082 214.383 58.3225 209.812C59.1062 205.893 59.6286 201.975 60.2817 198.057C60.5429 196.228 61.0654 195.706 63.0245 195.314C67.596 194.53 72.298 193.877 77.0001 193.093C79.0899 192.832 81.049 192.44 83.1388 192.049C84.9674 191.787 85.4899 192.179 85.3593 194.008C84.9674 197.534 84.5756 201.061 84.1838 204.587C83.6613 208.898 83.2695 213.077 82.747 217.387C82.6164 218.694 82.4858 220.13 82.2246 221.436C82.094 222.481 81.4409 223.265 80.2654 223.526C78.1756 223.918 76.2164 224.31 74.1266 224.571C72.9511 224.702 72.4286 224.31 72.5592 223.004C72.6898 220.783 72.9511 218.563 73.2123 216.342C73.8654 211.51 74.3878 206.808 74.9103 201.714Z" fill="white"/>
<path d="M101.034 146.595C102.863 146.204 104.43 145.681 106.128 145.289C108.61 144.767 111.091 144.767 113.442 145.551C116.577 146.595 118.536 149.208 118.667 152.473C119.059 161.224 113.965 167.493 105.083 169.191C101.295 169.844 97.377 170.367 93.4586 169.844C93.0668 169.844 92.6749 169.714 92.2831 169.714C89.279 169.191 88.8872 168.669 89.4097 165.534C90.0627 160.963 90.4545 156.391 90.977 151.689C91.3688 148.163 91.7607 144.767 92.2831 141.24C92.4137 140.065 93.0668 139.412 94.1117 139.151C96.0709 138.759 98.03 138.497 99.9892 138.236C101.557 138.106 101.948 138.497 101.687 140.065C101.557 142.285 101.295 144.375 101.034 146.595ZM101.295 161.877C102.079 161.746 103.255 161.746 104.561 161.355C107.434 160.702 109.263 158.742 109.393 156.13C109.524 153.91 108.479 152.734 106.389 152.995C104.561 153.126 102.732 153.648 100.904 154.04C100.642 154.04 100.25 154.563 100.25 154.824C99.9892 156.653 99.728 158.612 99.5974 160.44C99.2056 161.877 99.3362 161.877 101.295 161.877Z" fill="white"/>
<path d="M150.926 151.429C149.359 153.78 147.791 156.131 146.224 158.352C143.612 162.27 143.612 162.27 138.91 163.054C137.734 163.185 136.428 163.446 135.252 163.576C134.599 163.576 134.077 163.446 133.424 163.315C133.554 162.793 133.685 162.14 133.946 161.748C136.95 157.699 139.954 153.65 142.828 149.601C143.612 148.556 144.395 147.38 145.31 146.336C142.828 142.678 140.346 139.152 137.995 135.625C137.865 135.364 137.603 135.103 137.473 134.842C136.95 133.797 137.081 132.882 138.387 132.621C139.693 132.229 141.13 131.968 142.567 131.838C147.269 131.184 146.616 131.184 148.967 134.842C149.881 136.278 150.795 137.585 151.71 139.152C153.408 136.801 154.975 134.58 156.412 132.36C157.718 130.27 159.416 129.095 161.897 128.833C163.465 128.703 165.163 128.311 166.73 128.05C167.252 128.05 167.775 128.18 168.297 128.311C168.167 128.833 168.167 129.487 167.905 130.009C166.599 131.968 165.032 133.927 163.726 135.756C161.767 138.368 159.808 140.98 157.848 143.593C157.457 144.246 157.326 144.638 157.848 145.291C160.33 148.817 162.681 152.344 165.032 155.87C165.293 156.262 165.554 156.523 165.685 156.915C166.207 157.96 165.946 158.744 164.901 159.005C163.465 159.397 161.897 159.658 160.33 159.919C159.677 160.05 159.024 160.05 158.371 160.18C156.934 160.442 155.889 159.919 155.236 158.613C153.799 156.001 152.493 153.78 150.926 151.429Z" fill="white"/>
<path d="M142.437 204.066C139.433 204.458 136.56 205.111 133.556 205.242C127.939 205.372 124.805 202.238 124.805 196.621C124.805 193.487 125.327 190.221 125.588 187.087C125.719 185.911 126.633 185.258 127.678 185.127C129.507 184.736 131.466 184.474 133.294 184.213C134.862 183.952 135.384 184.344 135.254 186.042C135.123 188.262 134.731 190.483 134.47 192.572C134.47 193.095 134.339 193.748 134.47 194.27C134.601 195.838 135.515 196.752 137.082 196.491C139.041 196.36 141.001 195.838 142.96 195.446C143.221 195.446 143.482 194.923 143.482 194.662C143.874 191.527 144.266 188.393 144.527 185.258C144.788 182.907 145.18 182.385 147.531 181.993C149.229 181.732 151.058 181.34 152.756 181.209C153.931 181.078 154.454 181.601 154.323 182.776C153.801 188.132 153.148 193.487 152.495 198.842C152.103 202.368 151.711 205.895 151.319 209.421C151.058 211.642 150.535 212.425 148.315 212.687C146.748 212.948 145.18 213.209 143.613 213.47C142.046 213.732 141.523 213.209 141.654 211.642C141.915 209.16 142.176 206.548 142.437 204.066Z" fill="white"/>
<path d="M132.642 136.278C132.119 140.458 131.597 145.682 131.075 150.776C130.683 154.303 130.291 157.829 129.899 161.356C129.638 163.838 129.115 164.621 126.503 164.882C124.936 165.144 123.368 165.405 121.801 165.536C120.364 165.666 119.842 165.274 119.972 163.838C120.887 155.74 121.801 147.772 122.715 139.674C122.846 138.499 122.977 137.323 123.107 136.148C123.238 134.972 124.021 134.319 125.066 134.189C126.895 133.797 128.723 133.536 130.552 133.274C132.511 133.144 132.772 133.405 132.642 136.278Z" fill="white"/>
<path d="M249.54 183.428C247.712 183.559 247.32 183.167 247.451 181.861C247.712 177.812 248.104 173.763 248.365 169.714C248.626 165.404 249.018 161.094 249.279 156.653C249.54 152.996 249.802 152.604 253.459 152.081C254.896 151.951 256.463 151.559 257.9 151.428C259.206 151.298 259.467 151.69 259.336 152.865C259.075 155.608 258.553 158.351 258.161 160.963C257.247 166.971 256.332 172.849 255.549 178.857C255.418 179.379 255.418 180.032 255.287 180.555C255.026 181.73 254.504 182.514 253.198 182.775C251.891 183.036 250.455 183.298 249.54 183.428Z" fill="white"/>
<path d="M267.957 58.8248C265.214 58.6942 262.863 58.3023 261.165 56.3432C260.773 55.9513 260.512 55.5595 260.25 55.037C259.205 53.2085 259.467 52.2942 261.426 51.3799C262.732 50.7268 264.038 50.0738 265.214 49.5513C265.997 49.1595 266.65 49.4207 266.912 50.2044C267.565 52.1636 269.524 52.2942 271.091 51.9024C272.659 51.5105 273.703 50.4656 274.618 49.1595C275.401 47.7227 275.793 47.5921 277.491 47.8534C278.405 47.984 279.45 48.2452 280.365 48.3758C282.063 48.6371 282.324 49.1595 281.54 50.7268C279.32 55.0371 275.663 57.3881 271.091 58.433C269.785 58.6942 268.74 58.8248 267.957 58.8248Z" fill="white"/>
<path d="M255.807 190.351C255.676 191.004 255.546 192.18 255.284 193.355C254.893 194.923 253.978 196.098 252.411 196.49C250.582 196.882 248.754 197.143 246.795 197.274C245.489 197.404 244.574 196.621 244.574 195.184C244.574 193.878 244.705 192.441 244.835 191.135C245.227 188.915 246.664 187.739 248.754 187.217C250.06 186.955 251.366 186.694 252.803 186.564C255.023 186.433 255.807 187.478 255.807 190.351Z" fill="white"/>
<defs>
<linearGradient id="paint0_linear_2353_41301" x1="34.46" y1="141.976" x2="340.904" y2="141.976" gradientUnits="userSpaceOnUse">
<stop offset="0.1899" stop-color="#4EAC1C"/>
<stop offset="1" stop-color="#BCDB39"/>
</linearGradient>
</defs>
</svg>
