<svg width="41" height="42" viewBox="0 0 41 42" fill="none" xmlns="http://www.w3.org/2000/svg">
<circle cx="20.3886" cy="20.7934" r="19.3886" fill="#0A7325" stroke="white" stroke-width="2"/>
<path d="M17.4877 34.7168V26.9912C15.1994 26.5314 14.3707 16.154 17.4877 14.9618V7.00098C8.47896 10.7007 9.73536 32.605 17.4877 34.7168Z" fill="white"/>
<path d="M20.8837 7.00098H18.7986V14.9244H20.8837C21.4611 14.9244 21.9316 14.4539 21.9316 13.8765V8.04887C21.9316 7.47146 21.4611 7.00098 20.8837 7.00098Z" fill="white"/>
<path d="M20.8837 26.7944H18.7986V34.7178H20.8837C21.4611 34.7178 21.9316 34.2473 21.9316 33.6699V27.8423C21.9316 27.2649 21.4611 26.7944 20.8837 26.7944Z" fill="white"/>
<path d="M23.199 18.3076L22.0656 19.286C22.8141 20.1575 23.0493 21.5796 22.0496 22.6222L23.1295 23.6594C23.7925 22.9697 24.1774 22.0661 24.2149 21.1145C24.2523 20.1094 23.8887 19.1149 23.199 18.3076Z" fill="white"/>
<path d="M25.3126 16.1655L24.2059 17.176C25.211 18.2774 25.7724 19.6247 25.7831 20.9773C25.7938 22.362 25.2431 23.6719 24.2006 24.7626L25.2805 25.7998C26.6011 24.4257 27.2961 22.7523 27.2854 20.9666C27.2694 19.2451 26.569 17.5396 25.3126 16.1655Z" fill="white"/>
<path d="M30.3448 20.8431C30.2913 18.3998 29.2541 15.9832 27.431 14.0317L26.335 15.0529C27.9068 16.737 28.7997 18.8007 28.8424 20.8751C28.8905 23.0618 28.0244 25.1469 26.3403 26.9006L27.4203 27.9378C29.3931 25.8901 30.4036 23.4361 30.3448 20.8431Z" fill="white"/>
</svg>
