<svg width="50" height="71" viewBox="0 0 50 71" fill="none" xmlns="http://www.w3.org/2000/svg">
<path d="M16.1239 71V51.2093C10.262 50.0314 8.13914 23.4475 16.1239 20.3933V0C-6.95384 9.47762 -3.73528 65.5901 16.1239 71Z" fill="white"/>
<path d="M24.82 0H19.4785V20.2975H24.82C26.2991 20.2975 27.5044 19.0922 27.5044 17.613V2.68441C27.5044 1.20525 26.2991 0 24.82 0Z" fill="white"/>
<path d="M24.82 50.7012H19.4785V70.9986H24.82C26.2991 70.9986 27.5044 69.7934 27.5044 68.3142V53.3856C27.5044 51.9064 26.2991 50.7012 24.82 50.7012Z" fill="white"/>
<path d="M30.7493 28.967L27.8458 31.4734C29.7632 33.7059 30.3658 37.349 27.8047 40.0197L30.5713 42.6767C32.2696 40.9099 33.2557 38.5953 33.3516 36.1574C33.4474 33.5826 32.5161 31.0351 30.7493 28.967Z" fill="white"/>
<path d="M36.1613 23.4758L33.3262 26.0644C35.901 28.8857 37.3391 32.3371 37.3665 35.8022C37.3939 39.3495 35.9832 42.705 33.3125 45.499L36.0791 48.156C39.462 44.6361 41.2425 40.3493 41.2151 35.7748C41.174 31.3647 39.3798 26.9957 36.1613 23.4758Z" fill="white"/>
<path d="M49.063 35.4577C48.926 29.1987 46.269 23.0081 41.5987 18.009L38.791 20.625C42.8176 24.9392 45.1049 30.2259 45.2144 35.5399C45.3377 41.1416 43.1189 46.483 38.8047 50.9753L41.5713 53.6323C46.6251 48.3867 49.2137 42.1003 49.063 35.4577Z" fill="white"/>
</svg>
