<svg width="345" height="49" viewBox="0 0 345 49" fill="none" xmlns="http://www.w3.org/2000/svg">
<path d="M0 13C0 7.47715 4.47715 3 10 3H311C316.523 3 321 7.47715 321 13V39C321 44.5228 316.523 49 311 49H10C4.47716 49 0 44.5228 0 39V13Z" fill="#FF0000"/>
<path d="M18.8242 23.7607V25.2524H14.6665V33.0029H12.7686V23.7607H18.8242ZM14.0127 27.1313H16.1709C16.8988 27.1313 17.5251 27.252 18.0498 27.4932C18.5745 27.7344 18.9787 28.0729 19.2622 28.5088C19.5457 28.9447 19.6875 29.4525 19.6875 30.0322C19.6875 30.4723 19.6071 30.8743 19.4463 31.2383C19.2855 31.598 19.0506 31.9111 18.7417 32.1777C18.437 32.4401 18.0688 32.6432 17.6372 32.7871C17.2056 32.931 16.7168 33.0029 16.1709 33.0029H12.7686V23.7607H14.6792V31.5176H16.1709C16.5348 31.5176 16.8353 31.4499 17.0723 31.3145C17.3092 31.179 17.487 30.9992 17.6055 30.7749C17.7282 30.5464 17.7896 30.2946 17.7896 30.0195C17.7896 29.7572 17.7282 29.5202 17.6055 29.3086C17.487 29.0928 17.3092 28.9235 17.0723 28.8008C16.8353 28.6781 16.5348 28.6167 16.1709 28.6167H14.0127V27.1313Z" fill="white"/>
<path d="M27.1333 31.5176V33.0029H22.2139V31.5176H27.1333ZM22.8359 23.7607V33.0029H20.9316V23.7607H22.8359ZM26.4922 27.5249V28.9722H22.2139V27.5249H26.4922ZM27.127 23.7607V25.2524H22.2139V23.7607H27.127Z" fill="white"/>
<path d="M31.6973 28.5723H30.2627V27.563H31.4053C31.7396 27.563 32.0104 27.5122 32.2178 27.4106C32.4251 27.3049 32.5775 27.1567 32.6748 26.9663C32.7721 26.7759 32.8208 26.5516 32.8208 26.2935C32.8208 26.0819 32.7658 25.8872 32.6558 25.7095C32.55 25.5317 32.3849 25.39 32.1606 25.2842C31.9364 25.1742 31.6507 25.1191 31.3037 25.1191C31.0413 25.1191 30.8022 25.1657 30.5864 25.2588C30.3706 25.3519 30.1992 25.4831 30.0723 25.6523C29.9453 25.8174 29.8818 26.0184 29.8818 26.2554H27.9839C27.9839 25.8491 28.0706 25.4852 28.2441 25.1636C28.4219 24.8377 28.6631 24.5627 28.9678 24.3384C29.2767 24.1099 29.6322 23.9364 30.0342 23.8179C30.4362 23.6994 30.8594 23.6401 31.3037 23.6401C31.8242 23.6401 32.2939 23.6973 32.7129 23.8115C33.1318 23.9215 33.4915 24.0866 33.792 24.3066C34.0924 24.5267 34.3231 24.7996 34.4839 25.1255C34.6447 25.4513 34.7251 25.8301 34.7251 26.2617C34.7251 26.5791 34.6532 26.8774 34.5093 27.1567C34.3654 27.436 34.1602 27.6815 33.8936 27.8931C33.627 28.1047 33.3075 28.2718 32.9351 28.3945C32.5627 28.513 32.1501 28.5723 31.6973 28.5723ZM30.2627 28.02H31.6973C32.2008 28.02 32.6473 28.0729 33.0366 28.1787C33.4302 28.2845 33.7624 28.439 34.0332 28.6421C34.3083 28.8452 34.5156 29.097 34.6553 29.3975C34.7992 29.6937 34.8711 30.0343 34.8711 30.4194C34.8711 30.8511 34.7822 31.234 34.6045 31.5684C34.431 31.9027 34.1834 32.1862 33.8618 32.4189C33.5444 32.6517 33.1678 32.8273 32.7319 32.9458C32.3003 33.0643 31.8242 33.1235 31.3037 33.1235C30.889 33.1235 30.4764 33.0728 30.0659 32.9712C29.6554 32.8654 29.283 32.7046 28.9487 32.4888C28.6144 32.2729 28.3478 31.9958 28.1489 31.6572C27.95 31.3187 27.8506 30.9124 27.8506 30.4385H29.7612C29.7612 30.6628 29.8268 30.868 29.958 31.0542C30.0892 31.2362 30.2712 31.3822 30.5039 31.4922C30.7367 31.598 31.0033 31.6509 31.3037 31.6509C31.6549 31.6509 31.9533 31.5959 32.1987 31.4858C32.4484 31.3758 32.6367 31.2256 32.7637 31.0352C32.8949 30.8405 32.9604 30.6268 32.9604 30.394C32.9604 30.1444 32.9266 29.9328 32.8589 29.7593C32.7912 29.5858 32.6917 29.444 32.5605 29.334C32.4294 29.2197 32.2664 29.1372 32.0718 29.0864C31.8813 29.0356 31.6592 29.0103 31.4053 29.0103H30.2627V28.02Z" fill="white"/>
<path d="M47.0459 23.7607V33.0029H45.1416V25.2524H41.4282V33.0029H39.5239V23.7607H47.0459Z" fill="white"/>
<path d="M56.3008 28.166V28.604C56.3008 29.3065 56.2056 29.937 56.0151 30.4956C55.8247 31.0542 55.556 31.5303 55.209 31.9238C54.862 32.3132 54.4473 32.6115 53.9648 32.8188C53.4867 33.0262 52.9556 33.1299 52.3716 33.1299C51.7918 33.1299 51.2607 33.0262 50.7783 32.8188C50.3001 32.6115 49.8854 32.3132 49.5342 31.9238C49.1829 31.5303 48.91 31.0542 48.7153 30.4956C48.5249 29.937 48.4297 29.3065 48.4297 28.604V28.166C48.4297 27.4593 48.5249 26.8288 48.7153 26.2744C48.9058 25.7158 49.1745 25.2397 49.5215 24.8462C49.8727 24.4526 50.2874 24.1522 50.7656 23.9448C51.248 23.7375 51.7791 23.6338 52.3589 23.6338C52.9429 23.6338 53.474 23.7375 53.9521 23.9448C54.4346 24.1522 54.8493 24.4526 55.1963 24.8462C55.5475 25.2397 55.8184 25.7158 56.0088 26.2744C56.2035 26.8288 56.3008 27.4593 56.3008 28.166ZM54.3774 28.604V28.1533C54.3774 27.6624 54.333 27.2308 54.2441 26.8584C54.1553 26.486 54.0241 26.1729 53.8506 25.9189C53.6771 25.665 53.4655 25.4746 53.2158 25.3477C52.9661 25.2165 52.6805 25.1509 52.3589 25.1509C52.0373 25.1509 51.7516 25.2165 51.502 25.3477C51.2565 25.4746 51.047 25.665 50.8735 25.9189C50.7043 26.1729 50.5752 26.486 50.4863 26.8584C50.3975 27.2308 50.353 27.6624 50.353 28.1533V28.604C50.353 29.0907 50.3975 29.5223 50.4863 29.8989C50.5752 30.2713 50.7064 30.5866 50.8799 30.8447C51.0534 31.0986 51.265 31.2912 51.5146 31.4224C51.7643 31.5535 52.05 31.6191 52.3716 31.6191C52.6932 31.6191 52.9788 31.5535 53.2285 31.4224C53.4782 31.2912 53.6877 31.0986 53.8569 30.8447C54.0262 30.5866 54.1553 30.2713 54.2441 29.8989C54.333 29.5223 54.3774 29.0907 54.3774 28.604Z" fill="white"/>
<path d="M63.7148 23.7607V25.2524H59.5571V33.0029H57.6592V23.7607H63.7148ZM58.9033 27.1313H61.0615C61.7894 27.1313 62.4157 27.252 62.9404 27.4932C63.4652 27.7344 63.8693 28.0729 64.1528 28.5088C64.4364 28.9447 64.5781 29.4525 64.5781 30.0322C64.5781 30.4723 64.4977 30.8743 64.3369 31.2383C64.1761 31.598 63.9412 31.9111 63.6323 32.1777C63.3276 32.4401 62.9595 32.6432 62.5278 32.7871C62.0962 32.931 61.6074 33.0029 61.0615 33.0029H57.6592V23.7607H59.5698V31.5176H61.0615C61.4255 31.5176 61.7259 31.4499 61.9629 31.3145C62.1999 31.179 62.3776 30.9992 62.4961 30.7749C62.6188 30.5464 62.6802 30.2946 62.6802 30.0195C62.6802 29.7572 62.6188 29.5202 62.4961 29.3086C62.3776 29.0928 62.1999 28.9235 61.9629 28.8008C61.7259 28.6781 61.4255 28.6167 61.0615 28.6167H58.9033V27.1313Z" fill="white"/>
<path d="M73.4141 28.166V28.604C73.4141 29.3065 73.3188 29.937 73.1284 30.4956C72.938 31.0542 72.6693 31.5303 72.3223 31.9238C71.9753 32.3132 71.5605 32.6115 71.0781 32.8188C70.5999 33.0262 70.0688 33.1299 69.4849 33.1299C68.9051 33.1299 68.374 33.0262 67.8916 32.8188C67.4134 32.6115 66.9987 32.3132 66.6475 31.9238C66.2962 31.5303 66.0233 31.0542 65.8286 30.4956C65.6382 29.937 65.543 29.3065 65.543 28.604V28.166C65.543 27.4593 65.6382 26.8288 65.8286 26.2744C66.019 25.7158 66.2878 25.2397 66.6348 24.8462C66.986 24.4526 67.4007 24.1522 67.8789 23.9448C68.3613 23.7375 68.8924 23.6338 69.4722 23.6338C70.0562 23.6338 70.5872 23.7375 71.0654 23.9448C71.5479 24.1522 71.9626 24.4526 72.3096 24.8462C72.6608 25.2397 72.9316 25.7158 73.1221 26.2744C73.3167 26.8288 73.4141 27.4593 73.4141 28.166ZM71.4907 28.604V28.1533C71.4907 27.6624 71.4463 27.2308 71.3574 26.8584C71.2686 26.486 71.1374 26.1729 70.9639 25.9189C70.7904 25.665 70.5788 25.4746 70.3291 25.3477C70.0794 25.2165 69.7938 25.1509 69.4722 25.1509C69.1506 25.1509 68.8649 25.2165 68.6152 25.3477C68.3698 25.4746 68.1603 25.665 67.9868 25.9189C67.8175 26.1729 67.6885 26.486 67.5996 26.8584C67.5107 27.2308 67.4663 27.6624 67.4663 28.1533V28.604C67.4663 29.0907 67.5107 29.5223 67.5996 29.8989C67.6885 30.2713 67.8197 30.5866 67.9932 30.8447C68.1667 31.0986 68.3783 31.2912 68.6279 31.4224C68.8776 31.5535 69.1632 31.6191 69.4849 31.6191C69.8065 31.6191 70.0921 31.5535 70.3418 31.4224C70.5915 31.2912 70.8009 31.0986 70.9702 30.8447C71.1395 30.5866 71.2686 30.2713 71.3574 29.8989C71.4463 29.5223 71.4907 29.0907 71.4907 28.604Z" fill="white"/>
<path d="M74.8423 23.7607H76.7529V26.5981C76.7529 27.0044 76.8143 27.3218 76.937 27.5503C77.064 27.7788 77.2544 27.9396 77.5083 28.0327C77.7664 28.1216 78.0859 28.166 78.4668 28.166C78.6107 28.166 78.7799 28.1597 78.9746 28.147C79.1735 28.1343 79.3766 28.1152 79.584 28.0898C79.7913 28.0602 79.9902 28.0285 80.1807 27.9946C80.3711 27.9565 80.5298 27.9142 80.6567 27.8677V29.353C80.5298 29.3953 80.3711 29.4355 80.1807 29.4736C79.9902 29.5117 79.7913 29.5456 79.584 29.5752C79.3766 29.6006 79.1735 29.6196 78.9746 29.6323C78.7799 29.645 78.6107 29.6514 78.4668 29.6514C77.7305 29.6514 77.0915 29.5456 76.5498 29.334C76.0081 29.1224 75.5871 28.7923 75.2866 28.3438C74.9904 27.891 74.8423 27.3091 74.8423 26.5981V23.7607ZM80.2568 23.7607H82.1611V33.0029H80.2568V23.7607Z" fill="white"/>
<path d="M89.9751 27.5249V29.0103H85.1509V27.5249H89.9751ZM85.7158 23.7607V33.0029H83.8115V23.7607H85.7158ZM91.3335 23.7607V33.0029H89.4355V23.7607H91.3335Z" fill="white"/>
<path d="M94.2471 27.1313H96.4053C97.1289 27.1313 97.7531 27.252 98.2778 27.4932C98.8068 27.7344 99.2109 28.0729 99.4902 28.5088C99.7738 28.9447 99.9155 29.4525 99.9155 30.0322C99.9155 30.4723 99.8351 30.8743 99.6743 31.2383C99.5135 31.598 99.2808 31.9111 98.9761 32.1777C98.6714 32.4401 98.3032 32.6432 97.8716 32.7871C97.4399 32.931 96.9512 33.0029 96.4053 33.0029H93.0029V23.7607H94.9136V31.5176H96.4053C96.765 31.5176 97.0633 31.4499 97.3003 31.3145C97.5415 31.179 97.7214 30.9992 97.8398 30.7749C97.9583 30.5464 98.0176 30.2946 98.0176 30.0195C98.0176 29.7572 97.9583 29.5202 97.8398 29.3086C97.7214 29.0928 97.5415 28.9235 97.3003 28.8008C97.0633 28.6781 96.765 28.6167 96.4053 28.6167H94.2471V27.1313ZM102.632 23.7607V33.0029H100.734V23.7607H102.632Z" fill="white"/>
<path d="M105.971 23.7607L107.71 26.9854L109.45 23.7607H111.627L108.942 28.3438L111.697 33.0029H109.5L107.71 29.7148L105.92 33.0029H103.711L106.473 28.3438L103.781 23.7607H105.971Z" fill="white"/>
<path d="M123.224 31.5176V33.0029H116.565V31.5176H123.224ZM117.13 31.5176V35.269H115.34L115.239 31.5176H117.13ZM124.595 31.5176L124.43 35.2754H122.685V31.5176H124.595ZM122.177 23.7607V25.2524H117.727V23.7607H122.177ZM123.535 23.7607V33.0029H121.637V23.7607H123.535ZM117.492 23.7607H119.396L119.149 27.5249C119.111 28.147 119.043 28.6971 118.946 29.1753C118.853 29.6493 118.738 30.0661 118.603 30.4258C118.472 30.7855 118.326 31.1007 118.165 31.3716C118.004 31.6382 117.835 31.8709 117.657 32.0698C117.479 32.2645 117.3 32.438 117.118 32.5903C116.936 32.7384 116.758 32.876 116.584 33.0029H115.493V31.5176H115.918C116.041 31.416 116.17 31.2764 116.305 31.0986C116.445 30.9209 116.576 30.6818 116.699 30.3813C116.826 30.0767 116.936 29.6916 117.029 29.2261C117.126 28.7606 117.198 28.1935 117.245 27.5249L117.492 23.7607Z" fill="white"/>
<path d="M131.781 31.5176V33.0029H126.861V31.5176H131.781ZM127.483 23.7607V33.0029H125.579V23.7607H127.483ZM131.14 27.5249V28.9722H126.861V27.5249H131.14ZM131.774 23.7607V25.2524H126.861V23.7607H131.774Z" fill="white"/>
<path d="M134.726 30.0068L138.439 23.7607H140.344V33.0029H138.439V26.7568L134.726 33.0029H132.822V23.7607H134.726V30.0068ZM137.506 21.3359H138.808C138.808 21.6999 138.717 22.0236 138.535 22.3071C138.357 22.5864 138.103 22.8065 137.773 22.9673C137.443 23.1239 137.054 23.2021 136.605 23.2021C135.924 23.2021 135.384 23.0286 134.986 22.6816C134.593 22.3346 134.396 21.8861 134.396 21.3359H135.691C135.691 21.556 135.759 21.7528 135.894 21.9263C136.034 22.0998 136.271 22.1865 136.605 22.1865C136.935 22.1865 137.168 22.0998 137.303 21.9263C137.439 21.7528 137.506 21.556 137.506 21.3359Z" fill="white"/>
<path d="M147.352 29.937H149.25C149.211 30.5591 149.04 31.1113 148.735 31.5938C148.435 32.0762 148.014 32.4528 147.472 32.7236C146.935 32.9945 146.287 33.1299 145.53 33.1299C144.937 33.1299 144.406 33.0283 143.937 32.8252C143.467 32.6178 143.065 32.3216 142.73 31.9365C142.4 31.5514 142.149 31.0859 141.975 30.54C141.802 29.9941 141.715 29.3826 141.715 28.7056V28.0645C141.715 27.3874 141.804 26.7759 141.981 26.23C142.163 25.6799 142.422 25.2122 142.756 24.8271C143.094 24.4421 143.499 24.1458 143.968 23.9385C144.438 23.7311 144.963 23.6274 145.542 23.6274C146.313 23.6274 146.962 23.7671 147.491 24.0464C148.024 24.3257 148.437 24.7108 148.729 25.2017C149.025 25.6925 149.203 26.2511 149.262 26.8774H147.358C147.337 26.505 147.263 26.1898 147.136 25.9316C147.009 25.6693 146.816 25.4725 146.558 25.3413C146.304 25.2059 145.966 25.1382 145.542 25.1382C145.225 25.1382 144.948 25.1974 144.711 25.3159C144.474 25.4344 144.275 25.6143 144.114 25.8555C143.953 26.0967 143.833 26.4014 143.752 26.7695C143.676 27.1335 143.638 27.5609 143.638 28.0518V28.7056C143.638 29.1838 143.674 29.6048 143.746 29.9688C143.818 30.3285 143.928 30.6331 144.076 30.8828C144.229 31.1283 144.423 31.3145 144.66 31.4414C144.901 31.5641 145.191 31.6255 145.53 31.6255C145.928 31.6255 146.256 31.562 146.514 31.4351C146.772 31.3081 146.969 31.1198 147.104 30.8701C147.244 30.6204 147.326 30.3094 147.352 29.937Z" fill="white"/>
<path d="M154.442 23.7607V33.0029H152.544V23.7607H154.442ZM157.286 23.7607V25.2524H149.745V23.7607H157.286Z" fill="white"/>
<path d="M161.989 28.9468H159.615L159.603 27.6392H161.596C161.947 27.6392 162.235 27.5947 162.459 27.5059C162.683 27.4128 162.85 27.2795 162.96 27.106C163.075 26.9282 163.132 26.7124 163.132 26.4585C163.132 26.1707 163.077 25.938 162.967 25.7603C162.861 25.5825 162.694 25.4535 162.465 25.373C162.241 25.2926 161.951 25.2524 161.596 25.2524H160.275V33.0029H158.371V23.7607H161.596C162.133 23.7607 162.613 23.8115 163.037 23.9131C163.464 24.0146 163.826 24.1691 164.122 24.3765C164.418 24.5838 164.645 24.8462 164.801 25.1636C164.958 25.4767 165.036 25.8491 165.036 26.2808C165.036 26.6616 164.949 27.0129 164.776 27.3345C164.607 27.6561 164.338 27.9185 163.97 28.1216C163.606 28.3247 163.13 28.4368 162.542 28.458L161.989 28.9468ZM161.907 33.0029H159.095L159.837 31.5176H161.907C162.241 31.5176 162.514 31.4647 162.726 31.3589C162.937 31.2489 163.094 31.1007 163.195 30.9146C163.297 30.7284 163.348 30.5146 163.348 30.2734C163.348 30.0026 163.301 29.7677 163.208 29.5688C163.119 29.37 162.975 29.2176 162.776 29.1118C162.577 29.0018 162.315 28.9468 161.989 28.9468H160.155L160.167 27.6392H162.453L162.891 28.1533C163.453 28.1449 163.906 28.2443 164.249 28.4517C164.596 28.6548 164.848 28.9193 165.004 29.2451C165.165 29.571 165.246 29.9201 165.246 30.2925C165.246 30.8849 165.117 31.3843 164.858 31.7905C164.6 32.1925 164.222 32.4951 163.722 32.6982C163.227 32.9014 162.622 33.0029 161.907 33.0029Z" fill="white"/>
<path d="M168.508 30.0068L172.222 23.7607H174.126V33.0029H172.222V26.7568L168.508 33.0029H166.604V23.7607H168.508V30.0068Z" fill="white"/>
<path d="M177.611 30.0068L181.324 23.7607H183.229V33.0029H181.324V26.7568L177.611 33.0029H175.707V23.7607H177.611V30.0068ZM180.391 21.3359H181.692C181.692 21.6999 181.601 22.0236 181.419 22.3071C181.242 22.5864 180.988 22.8065 180.658 22.9673C180.328 23.1239 179.938 23.2021 179.49 23.2021C178.808 23.2021 178.269 23.0286 177.871 22.6816C177.478 22.3346 177.281 21.8861 177.281 21.3359H178.576C178.576 21.556 178.643 21.7528 178.779 21.9263C178.918 22.0998 179.155 22.1865 179.49 22.1865C179.82 22.1865 180.053 22.0998 180.188 21.9263C180.323 21.7528 180.391 21.556 180.391 21.3359Z" fill="white"/>
<path d="M189.951 30.0068L193.664 23.7607H195.568V33.0029H193.664V26.7568L189.951 33.0029H188.046V23.7607H189.951V30.0068Z" fill="white"/>
<path d="M207.984 23.7607V33.0029H206.08V25.2524H202.367V33.0029H200.462V23.7607H207.984Z" fill="white"/>
<path d="M213.247 29.7085H210.892V28.2231H213.247C213.611 28.2231 213.907 28.1639 214.135 28.0454C214.364 27.9227 214.531 27.7534 214.637 27.5376C214.743 27.3218 214.795 27.0785 214.795 26.8076C214.795 26.5326 214.743 26.2765 214.637 26.0396C214.531 25.8026 214.364 25.6121 214.135 25.4683C213.907 25.3244 213.611 25.2524 213.247 25.2524H211.552V33.0029H209.647V23.7607H213.247C213.97 23.7607 214.59 23.8919 215.106 24.1543C215.627 24.4124 216.025 24.77 216.3 25.2271C216.575 25.6841 216.712 26.2067 216.712 26.7949C216.712 27.3916 216.575 27.9079 216.3 28.3438C216.025 28.7796 215.627 29.116 215.106 29.353C214.59 29.59 213.97 29.7085 213.247 29.7085Z" fill="white"/>
<path d="M219.861 30.0068L223.574 23.7607H225.479V33.0029H223.574V26.7568L219.861 33.0029H217.957V23.7607H219.861V30.0068Z" fill="white"/>
<path d="M230.747 28.9468H228.373L228.36 27.6392H230.354C230.705 27.6392 230.993 27.5947 231.217 27.5059C231.441 27.4128 231.608 27.2795 231.718 27.106C231.833 26.9282 231.89 26.7124 231.89 26.4585C231.89 26.1707 231.835 25.938 231.725 25.7603C231.619 25.5825 231.452 25.4535 231.223 25.373C230.999 25.2926 230.709 25.2524 230.354 25.2524H229.033V33.0029H227.129V23.7607H230.354C230.891 23.7607 231.371 23.8115 231.794 23.9131C232.222 24.0146 232.584 24.1691 232.88 24.3765C233.176 24.5838 233.403 24.8462 233.559 25.1636C233.716 25.4767 233.794 25.8491 233.794 26.2808C233.794 26.6616 233.707 27.0129 233.534 27.3345C233.364 27.6561 233.096 27.9185 232.728 28.1216C232.364 28.3247 231.888 28.4368 231.299 28.458L230.747 28.9468ZM230.665 33.0029H227.853L228.595 31.5176H230.665C230.999 31.5176 231.272 31.4647 231.483 31.3589C231.695 31.2489 231.852 31.1007 231.953 30.9146C232.055 30.7284 232.105 30.5146 232.105 30.2734C232.105 30.0026 232.059 29.7677 231.966 29.5688C231.877 29.37 231.733 29.2176 231.534 29.1118C231.335 29.0018 231.073 28.9468 230.747 28.9468H228.913L228.925 27.6392H231.21L231.648 28.1533C232.211 28.1449 232.664 28.2443 233.007 28.4517C233.354 28.6548 233.606 28.9193 233.762 29.2451C233.923 29.571 234.003 29.9201 234.003 30.2925C234.003 30.8849 233.874 31.3843 233.616 31.7905C233.358 32.1925 232.979 32.4951 232.48 32.6982C231.985 32.9014 231.38 33.0029 230.665 33.0029Z" fill="white"/>
<path d="M236.688 27.1313H238.847C239.57 27.1313 240.194 27.252 240.719 27.4932C241.248 27.7344 241.652 28.0729 241.932 28.5088C242.215 28.9447 242.357 29.4525 242.357 30.0322C242.357 30.4723 242.277 30.8743 242.116 31.2383C241.955 31.598 241.722 31.9111 241.417 32.1777C241.113 32.4401 240.745 32.6432 240.313 32.7871C239.881 32.931 239.393 33.0029 238.847 33.0029H235.444V23.7607H237.355V31.5176H238.847C239.206 31.5176 239.505 31.4499 239.742 31.3145C239.983 31.179 240.163 30.9992 240.281 30.7749C240.4 30.5464 240.459 30.2946 240.459 30.0195C240.459 29.7572 240.4 29.5202 240.281 29.3086C240.163 29.0928 239.983 28.9235 239.742 28.8008C239.505 28.6781 239.206 28.6167 238.847 28.6167H236.688V27.1313ZM245.074 23.7607V33.0029H243.176V23.7607H245.074Z" fill="white"/>
<path d="M248.641 23.7607V33.0029H246.737V23.7607H248.641ZM254.087 23.7607L250.545 29.188H248.216L247.975 27.4932H249.53L251.777 23.7607H254.087ZM252.126 33.0029L249.536 28.8706L250.856 27.5122L254.386 33.0029H252.126Z" fill="white"/>
<path d="M258.893 25.3413L256.379 33.0029H254.354L257.788 23.7607H259.077L258.893 25.3413ZM260.981 33.0029L258.461 25.3413L258.258 23.7607H259.559L263.012 33.0029H260.981ZM260.867 29.5625V31.0542H255.985V29.5625H260.867Z" fill="white"/>
<path d="M270.033 27.5249V29.0103H265.208V27.5249H270.033ZM265.773 23.7607V33.0029H263.869V23.7607H265.773ZM271.391 23.7607V33.0029H269.493V23.7607H271.391Z" fill="white"/>
<path d="M274.882 30.0068L278.596 23.7607H280.5V33.0029H278.596V26.7568L274.882 33.0029H272.978V23.7607H274.882V30.0068Z" fill="white"/>
<path d="M287.063 29.645H284.55L283.909 29.3784C283.185 29.1499 282.631 28.8071 282.246 28.3501C281.865 27.8931 281.674 27.3112 281.674 26.6045C281.674 25.9824 281.812 25.4619 282.087 25.043C282.366 24.6198 282.76 24.3003 283.268 24.0845C283.78 23.8687 284.387 23.7607 285.089 23.7607H288.314V33.0029H286.403V25.2524H285.089C284.569 25.2524 284.186 25.3815 283.94 25.6396C283.695 25.8978 283.572 26.2638 283.572 26.7378C283.572 27.0848 283.629 27.3704 283.744 27.5947C283.858 27.8148 284.025 27.9798 284.245 28.0898C284.465 28.1956 284.742 28.2485 285.077 28.2485H287.057L287.063 29.645ZM285.229 28.877L283.179 33.0029H281.116L283.172 28.877H285.229Z" fill="white"/>
<path d="M293.351 9.36565C293.511 9.71577 293.702 10.0659 293.957 10.3842L303.468 26.8076L313.105 43.4537C313.105 43.4856 313.137 43.5174 313.137 43.5492L313.201 43.6765C313.233 43.7084 313.265 43.7402 313.265 43.8038C313.329 43.8993 313.393 43.9948 313.488 44.0903C313.52 44.1221 313.52 44.154 313.552 44.1858C314.382 45.2679 315.722 46 317.19 46C318.754 46 320.126 45.2043 320.956 44.0266C320.988 43.9948 321.02 43.9312 321.02 43.8993C321.052 43.8675 321.084 43.8039 321.116 43.772L321.275 43.5174L330.977 26.7757L340.583 10.1932L340.934 9.58845C341.221 8.98372 341.38 8.31532 341.38 7.58327C341.38 5.03701 339.306 3 336.785 3H317.222H297.627C295.074 3 293 5.06884 293 7.58327C293 8.21984 293.128 8.82457 293.351 9.36565Z" fill="#FF0000"/>
<path fill-rule="evenodd" clip-rule="evenodd" d="M290.599 10.5605L290.578 10.5105C290.208 9.61445 290 8.6213 290 7.58327C290 3.39099 293.439 0 297.627 0H336.785C340.942 0 344.38 3.35909 344.38 7.58327C344.38 8.76595 344.119 9.8735 343.643 10.8755L343.59 10.9874L333.573 28.2795L323.845 45.0665L323.618 45.4284C323.55 45.5512 323.459 45.6964 323.341 45.8491C321.984 47.7143 319.757 49 317.19 49C314.756 49 312.584 47.8121 311.222 46.0771C311.208 46.0594 311.194 46.0417 311.18 46.0239C311.153 45.9897 311.128 45.9561 311.104 45.9234C310.965 45.7558 310.864 45.6106 310.808 45.5267L310.738 45.4566L310.667 45.3155L310.265 44.7142V44.5351L300.871 28.3109L291.458 12.0546C291.079 11.5421 290.814 11.0327 290.621 10.6098L290.599 10.5605ZM293.957 10.3842L313.105 43.4537C313.105 43.4697 313.113 43.4856 313.121 43.5015C313.129 43.5174 313.137 43.5333 313.137 43.5492L313.201 43.6765C313.233 43.7084 313.265 43.7402 313.265 43.8038C313.329 43.8993 313.393 43.9948 313.488 44.0903C313.504 44.1062 313.512 44.1221 313.52 44.138C313.528 44.154 313.536 44.1699 313.552 44.1858C314.382 45.2679 315.722 46 317.19 46C318.754 46 320.126 45.2043 320.956 44.0266C320.988 43.9948 321.02 43.9312 321.02 43.8993C321.036 43.8834 321.052 43.8596 321.068 43.8357C321.084 43.8118 321.1 43.7879 321.116 43.772L321.275 43.5174L340.934 9.58845C341.221 8.98372 341.38 8.31532 341.38 7.58327C341.38 5.03701 339.306 3 336.785 3H297.627C295.074 3 293 5.06884 293 7.58327C293 8.21984 293.128 8.82457 293.351 9.36565C293.511 9.71577 293.702 10.0659 293.957 10.3842ZM311.083 45.8007C311.101 45.8194 311.085 45.8051 311.046 45.7645L311.083 45.8007Z" fill="white"/>
<path d="M314.383 32.4722C314.383 31.5492 314.638 30.8171 315.148 30.3397C315.659 29.8623 316.393 29.6077 317.35 29.6077C318.276 29.6077 319.01 29.8623 319.521 30.3397C320.031 30.8171 320.287 31.5492 320.287 32.4404C320.287 33.3316 320.031 34.0318 319.521 34.541C319.01 35.0503 318.276 35.3049 317.382 35.3049C316.425 35.3049 315.723 35.0503 315.212 34.5729C314.67 34.0636 314.383 33.3634 314.383 32.4722ZM319.425 26.7431H315.308L314.446 10.3516H320.255L319.425 26.7431Z" fill="white"/>
</svg>
