<svg width="43" height="63" viewBox="0 0 43 63" fill="none" xmlns="http://www.w3.org/2000/svg">
<path d="M24.8455 0C9.06189 0 5.7494 10.6411 5.50139 11.529L0.221798 27.3403C-0.158713 28.5331 -0.0465979 29.7906 0.534786 30.8944C1.11574 31.9981 2.0925 32.8112 3.28627 33.1829C3.3143 33.1922 3.34275 33.1993 3.37163 33.2056L3.63875 33.2644C4.08169 33.398 4.53907 33.4652 4.999 33.4652C7.0642 33.4652 8.86823 32.1598 9.48869 30.2161L11.1211 25.8035L11.1148 58.4984C11.1152 60.9802 13.1571 63 15.6673 63H15.9633C18.5577 63 20.5142 60.8429 20.5142 57.9831V44.2407C21.217 44.6582 22.0825 44.8867 23.0741 44.8867H23.3714C25.5929 44.8867 27.4475 43.3037 27.8437 41.2188C28.5881 41.7446 29.4995 42.0542 30.4822 42.0542H30.7795C33.1381 42.0542 35.0832 40.27 35.3091 37.9945C36.0438 38.4964 36.9335 38.7904 37.8907 38.7904H38.1871C40.6163 38.7904 42.4513 36.881 42.4755 34.3405C42.5303 33.7793 42.9987 28.9187 43 25.2349C43 22.2088 42.7826 17.5094 40.908 11.6605C39.1817 6.2811 33.9404 0 24.845 0H24.8455ZM3.846 31.2929C3.17713 31.0733 2.62972 30.61 2.3006 29.9855C1.9651 29.3483 1.8997 28.6238 2.11586 27.9451L7.39927 12.1229C7.40862 12.0964 7.41626 12.0691 7.42263 12.0418C7.52371 11.6336 10.0875 1.96896 24.8455 1.96896C32.8651 1.96896 37.4881 7.51044 39.0097 12.2548C40.8023 17.8429 41.0091 22.3377 41.0091 25.2344C41.0083 28.9674 40.4961 34.1405 40.4906 34.1914C40.4863 34.2237 40.4855 34.256 40.4855 34.2884C40.4855 35.5471 39.6952 36.821 38.1867 36.821H37.8911C36.4952 36.821 35.3571 35.7118 35.3303 34.3379C35.3299 34.3216 35.3299 29.8754 35.3299 29.8586C35.3299 29.3152 34.8836 28.8742 34.3345 28.8742C33.7853 28.8742 33.339 29.3152 33.339 29.8586V37.5514C33.339 38.9479 32.1903 40.0835 30.7786 40.0835H30.4805C29.0884 40.0835 27.9524 38.9798 27.9197 37.611V31.6457C27.9197 31.1023 27.4742 30.6613 26.9243 30.6613C26.3743 30.6613 25.9288 31.1018 25.9288 31.6457V40.3843C25.9288 41.7808 24.7801 42.9173 23.3684 42.9173H23.072C21.9169 42.9173 20.5422 42.4872 20.5125 40.4523V33.4937C20.5125 32.9507 20.0666 32.5093 19.517 32.5093C18.9675 32.5093 18.5216 32.9507 18.5216 33.4937V57.9818C18.5224 59.7769 17.4688 61.031 15.9625 61.031H15.6665C14.2544 61.031 13.1052 59.8949 13.1052 58.4989L13.1116 20.2453C13.1116 19.7681 12.7655 19.3595 12.2903 19.2759C11.8151 19.1953 11.3475 19.459 11.181 19.9076L7.60397 29.5823C7.23747 30.7259 6.17281 31.4966 4.99857 31.4966C4.72593 31.4966 4.45498 31.4555 4.19253 31.3736C4.16451 31.3643 4.13605 31.3572 4.10675 31.3509L3.84515 31.2929H3.846Z" fill="white"/>
</svg>
