<svg width="256" height="256" viewBox="0 0 256 256" fill="none" xmlns="http://www.w3.org/2000/svg">
<g clip-path="url(#clip0_1528_40841)">
<path d="M128.002 128.001L238.854 64.0005C244.446 73.6893 248.747 84.0669 251.641 94.8713C254.536 105.676 256.003 116.815 256.003 128.001H128.002Z" fill="white"/>
<path d="M128.001 128.001L17.1492 192.002C11.5574 182.313 7.25683 171.936 4.36191 161.131C1.46698 150.324 0 139.188 0 128.001H128.001Z" fill="white"/>
<path d="M128.002 128.001L192.003 238.854C182.314 244.445 171.936 248.746 161.132 251.641C150.327 254.536 139.188 256.003 128.002 256.003V128.001Z" fill="white"/>
<path d="M128.001 128.001L64 17.1492C73.6888 11.5574 84.0665 7.25683 94.8708 4.36191C105.675 1.46698 116.814 0 128.001 0V128.001Z" fill="white"/>
<path d="M128.001 128.001V256.003C116.814 256.003 105.678 254.536 94.8708 251.641C84.0665 248.746 73.686 244.445 64 238.854L128.001 128.001Z" fill="white"/>
<path d="M128.002 128.001V0C139.188 0 150.325 1.46698 161.132 4.36191C171.936 7.25683 182.317 11.5574 192.003 17.1492L128.002 128.001Z" fill="white"/>
<path d="M128.001 128.001L63.9999 238.854C54.3111 233.262 45.4004 226.421 37.491 218.511C29.5815 210.602 22.7431 201.688 17.1484 192.002L128.001 128.001Z" fill="white"/>
<path d="M128.002 128.002L192.003 17.1494C201.691 22.7412 210.602 29.5825 218.512 37.492C226.421 45.4014 233.26 54.3149 238.854 64.0009L128.002 128.002Z" fill="white"/>
<path d="M128.001 128.001H0C0 116.815 1.46698 105.678 4.36191 94.8713C7.25683 84.0669 11.5574 73.6865 17.1492 64.0005L128.001 128.001Z" fill="white"/>
<path d="M128.002 128.001H256.003C256.003 139.188 254.536 150.324 251.641 161.131C248.747 171.936 244.446 182.316 238.854 192.002L128.002 128.001Z" fill="white"/>
<path d="M128.001 128.002L17.1484 64.0009C22.7403 54.3121 29.5815 45.4014 37.491 37.492C45.4004 29.5825 54.3139 22.744 63.9999 17.1494L128.001 128.002Z" fill="white"/>
<path d="M128.002 128.001L238.854 192.002C233.262 201.691 226.421 210.602 218.512 218.511C210.602 226.421 201.689 233.259 192.003 238.854L128.002 128.001Z" fill="white"/>
</g>
<path d="M85.2922 47.5391C83.2829 50.9592 78.9221 52.1563 75.4592 50.1897C72.039 48.2231 70.842 43.8196 72.8086 40.3567C74.7752 36.9365 79.1787 35.7395 82.5988 37.7061C86.019 39.6727 87.2161 44.0761 85.2495 47.5391H85.2922Z" fill="#289B38"/>
<path d="M79.0509 53.1827C77.4263 53.1827 75.8445 52.7552 74.4337 51.9429C70.0302 49.4205 68.5339 43.7773 71.0562 39.3738C73.4931 35.1413 79.3929 33.5595 83.6254 35.9964C88.0288 38.5615 89.5252 44.2048 87.0028 48.5655C85.3782 51.4299 82.3001 53.1827 79.0081 53.1827H79.0509ZM79.0509 38.818C77.2125 38.818 75.5025 39.8013 74.5619 41.3831C73.1511 43.82 74.0061 46.9837 76.443 48.4372C78.8371 49.8053 82.1291 48.9075 83.4971 46.5562C84.9079 44.0765 84.0529 40.9556 81.616 39.502C80.8465 39.0318 79.9487 38.818 79.0509 38.818V38.818Z" fill="#289B38"/>
<path d="M51.1753 79.0491C51.1753 83.025 47.9689 86.2314 43.9929 86.2314C40.017 86.2314 36.8105 83.025 36.8105 79.0491C36.8105 75.0731 40.017 71.8667 43.9929 71.8667C47.9689 71.8667 51.1753 75.0731 51.1753 79.0491Z" fill="#289B38"/>
<path d="M43.9944 88.2406C38.9069 88.2406 34.8027 84.0937 34.8027 79.0489C34.8027 73.9614 38.9069 69.8572 43.9944 69.8145C49.082 69.8145 53.2289 73.9614 53.2289 79.0062C53.2289 84.0937 49.082 88.1979 44.0372 88.2406H43.9944ZM43.9944 73.8759C41.1301 73.8759 38.8214 76.1845 38.8214 79.0489C38.8214 81.9133 41.1301 84.2219 43.9944 84.2219C46.8161 84.2219 49.1675 81.9133 49.1675 79.0489C49.1675 76.1845 46.8588 73.8759 43.9944 73.8759Z" fill="#289B38"/>
<path d="M47.5415 168.614C50.9617 170.58 52.1587 174.984 50.1921 178.404C48.1828 181.824 43.822 183.021 40.3591 181.055C36.8962 179.088 35.7419 174.685 37.7085 171.264C39.7178 167.844 44.0786 166.647 47.5415 168.614V168.614Z" fill="#289B38"/>
<path d="M43.9495 184.047C42.325 184.047 40.7431 183.619 39.3751 182.807C34.9716 180.242 33.4753 174.641 35.9976 170.238C38.4345 166.006 44.3343 164.381 48.6095 166.861C53.013 169.426 54.5093 175.026 51.987 179.43C50.3196 182.251 47.2842 184.047 43.9923 184.047H43.9495ZM43.9495 169.682C42.1112 169.682 40.4011 170.666 39.4606 172.29C38.0497 174.727 38.9048 177.891 41.3844 179.344C43.7358 180.712 47.0705 179.814 48.4385 177.42C49.8493 174.983 48.9943 171.82 46.5147 170.366C45.7451 169.896 44.8473 169.682 43.9495 169.682Z" fill="#289B38"/>
<path d="M79.0515 202.73C83.0275 202.73 86.2339 205.937 86.2339 209.913C86.2339 213.889 83.0275 217.095 79.0515 217.095C75.0756 217.095 71.8691 213.889 71.8691 209.913C71.8691 205.937 75.1183 202.73 79.0515 202.73Z" fill="#289B38"/>
<path d="M79.0489 219.146C73.9614 219.146 69.8145 214.999 69.8145 209.955C69.8145 204.91 73.9614 200.72 79.0062 200.72C84.0937 200.72 88.2406 204.867 88.2406 209.912C88.2406 214.957 84.0937 219.104 79.0489 219.146V219.146ZM79.0489 204.782C77.6809 204.782 76.3983 205.337 75.415 206.321C74.4317 207.304 73.9187 208.587 73.9187 209.955C73.9187 212.776 76.2273 215.085 79.0917 215.128C81.9561 215.128 84.2647 212.819 84.2647 209.955C84.2647 207.09 81.9561 204.824 79.0917 204.782H79.0489Z" fill="#289B38"/>
<path d="M168.615 206.322C170.624 202.902 174.985 201.705 178.448 203.671C181.868 205.638 183.065 210.041 181.099 213.504C179.132 216.925 174.729 218.122 171.308 216.155C167.845 214.188 166.691 209.785 168.658 206.322H168.615Z" fill="#289B38"/>
<path d="M174.857 219.148C173.276 219.148 171.651 218.721 170.283 217.908C168.145 216.668 166.606 214.702 166.008 212.308C165.366 209.914 165.708 207.434 166.906 205.339C169.342 201.107 175.242 199.525 179.475 201.962C183.878 204.484 185.374 210.127 182.852 214.531C181.227 217.395 178.149 219.148 174.857 219.148V219.148ZM174.857 204.783C173.019 204.783 171.309 205.767 170.368 207.391C169.684 208.588 169.471 209.956 169.855 211.282C170.197 212.607 171.052 213.719 172.25 214.403C174.601 215.771 177.936 214.873 179.304 212.521C180.714 210.042 179.859 206.878 177.423 205.467C176.653 204.997 175.755 204.783 174.857 204.783V204.783Z" fill="#289B38"/>
<path d="M202.734 174.857C202.734 170.881 205.941 167.675 209.917 167.675C213.893 167.675 217.099 170.881 217.099 174.857C217.099 178.833 213.893 182.04 209.917 182.04C205.941 182.04 202.734 178.79 202.734 174.857Z" fill="#289B38"/>
<path d="M209.914 184.048C204.827 184.048 200.68 179.901 200.68 174.856C200.68 169.812 204.827 165.665 209.871 165.665C214.916 165.665 219.063 169.769 219.063 174.856C219.063 179.944 214.959 184.048 209.871 184.091L209.914 184.048ZM209.914 169.683C207.05 169.683 204.741 171.992 204.741 174.856C204.741 177.721 207.05 180.029 209.914 180.029C212.779 180.029 215.087 177.721 215.087 174.856C215.087 171.992 212.779 169.683 209.914 169.683Z" fill="#289B38"/>
<path d="M206.324 85.2478C202.904 83.2384 201.707 78.8777 203.674 75.4148C205.64 71.9946 210.044 70.7976 213.464 72.7642C216.884 74.7308 218.081 79.1342 216.115 82.5544C214.148 85.9746 209.745 87.1716 206.282 85.205L206.324 85.2478Z" fill="#289B38"/>
<path d="M209.914 88.2408C208.333 88.2408 206.708 87.8133 205.34 87.001C200.936 84.4358 199.44 78.7925 201.962 74.4318C204.399 70.1994 210.256 68.5748 214.532 71.0544C218.935 73.5768 220.431 79.2201 217.909 83.6235C216.242 86.4879 213.206 88.2408 209.914 88.2408ZM209.914 73.8761C208.076 73.8761 206.366 74.8593 205.425 76.4839C204.015 78.9208 204.87 82.0845 207.307 83.538C209.701 84.9061 212.993 84.0083 214.361 81.6142C215.771 79.1773 214.916 76.0137 212.437 74.5601C211.667 74.0898 210.769 73.8761 209.872 73.8761H209.914Z" fill="#289B38"/>
<path d="M174.854 51.1743C170.878 51.1743 167.672 47.9679 167.672 43.9919C167.672 40.016 170.878 36.8096 174.854 36.8096C178.83 36.8096 182.037 40.016 182.037 43.9919C182.037 47.9679 178.83 51.1743 174.854 51.1743Z" fill="#289B38"/>
<path d="M174.856 53.1835C169.768 53.1835 165.664 49.0365 165.664 43.9918C165.664 38.947 169.768 34.7573 174.856 34.7573C179.943 34.7573 184.048 38.9043 184.09 43.949C184.09 49.0365 179.943 53.1835 174.899 53.1835H174.856ZM174.856 38.8188C171.991 38.8188 169.683 41.1274 169.683 43.9918C169.683 46.8562 171.991 49.1648 174.856 49.1648C177.72 49.1648 180.029 46.8562 180.029 43.9918C180.029 41.1701 177.72 38.8615 174.856 38.8615V38.8188Z" fill="#289B38"/>
<rect x="122" y="51" width="12" height="83" rx="6" fill="#289B38"/>
<rect x="122" y="134" width="12" height="54" rx="6" transform="rotate(-90 122 134)" fill="#289B38"/>
<rect x="122" y="13" width="12" height="37" rx="6" fill="#289B38"/>
<rect x="122" y="206" width="12" height="37" rx="6" fill="#289B38"/>
<rect x="13" y="134" width="12" height="37" rx="6" transform="rotate(-90 13 134)" fill="#289B38"/>
<rect x="206" y="134" width="12" height="37" rx="6" transform="rotate(-90 206 134)" fill="#289B38"/>
<defs>
<clipPath id="clip0_1528_40841">
<rect width="256" height="256" fill="white"/>
</clipPath>
</defs>
</svg>
