<svg width="257" height="257" viewBox="0 0 257 257" fill="none" xmlns="http://www.w3.org/2000/svg">
<path d="M127.92 256C198.015 256 254.839 198.692 254.839 128C254.839 57.3076 198.015 0 127.92 0C57.8238 0 1 57.3076 1 128C1 198.692 57.8238 256 127.92 256Z" fill="url(#paint0_linear_1531_40959)"/>
<path opacity="0.45" d="M30.4277 137.552C30.4277 94.6707 54.6551 57.4631 90.1527 38.832C90.3626 38.7077 90.487 38.4667 90.487 38.2102C90.487 37.8138 90.1683 37.4951 89.7719 37.4951C89.6398 37.4951 89.5154 37.5184 89.4144 37.5806C48.1649 53.9109 18.9941 94.15 18.9941 141.213C18.9941 202.749 68.879 252.634 130.423 252.634C133.477 252.634 136.501 252.494 139.501 252.253C140.022 251.142 140.574 250.046 141.149 248.966C79.9317 248.585 30.4277 198.855 30.4277 137.552Z" fill="url(#paint1_radial_1531_40959)"/>
<path opacity="0.45" d="M253.676 131.925C253.676 63.5488 198.249 8.12207 129.865 8.12207C111.195 8.12207 93.4968 12.2649 77.625 19.6645C90.0068 15.5061 103.267 13.252 117.056 13.252C185.432 13.252 240.866 68.6788 240.866 137.055C240.866 165.075 231.555 190.911 215.862 211.657C218.372 212.045 220.836 212.566 223.253 213.211C242.203 191.456 253.676 163.031 253.676 131.925Z" fill="url(#paint2_radial_1531_40959)"/>
<path d="M208.769 187.461C208.45 190.609 205.815 193.554 202.885 194.036L66.9177 216.289C63.9874 216.771 61.8733 214.618 62.1919 211.47L63.5366 198.311C63.8553 195.163 66.4902 192.217 69.4205 191.736L205.387 169.482C208.318 169.001 210.432 171.154 210.113 174.302L208.769 187.461Z" fill="url(#paint3_linear_1531_40959)"/>
<path d="M202.67 105.817C202.188 105.895 201.8 105.56 201.8 105.078V105.071C201.8 103.633 202.965 102.288 204.403 102.063L208.756 101.394C209.238 101.316 209.627 101.651 209.627 102.133V102.14C209.627 103.578 208.461 104.923 207.023 105.148L202.67 105.817ZM191.967 118.968C195.706 114.965 197.68 109.641 197.68 103.586C197.68 98.2152 196.025 93.8547 192.884 90.9788C189.729 88.0874 185.376 86.9681 180.3 87.7532C175.326 88.5227 170.826 91.0099 167.615 94.7719C164.219 98.7515 162.423 103.874 162.423 109.594C162.423 120.492 169.543 127.005 179.733 125.435C184.404 124.712 188.749 122.411 191.967 118.968ZM189.565 105.047C189.565 112.268 185.547 118.129 180.013 118.984C174.479 119.839 170.46 115.276 170.46 108.141C170.46 101.938 173.46 95.2149 180.153 94.1811C187.599 93.0308 189.565 100.788 189.565 105.047ZM97.1952 112.905C97.1952 125.793 89.6636 135.182 76.9941 138.167V138.47C76.9164 140.794 73.8928 143.141 70.162 143.747C69.6956 143.81 69.3148 143.483 69.3148 143.017V139.348C62.6614 139.768 49.1836 138.423 49.1836 120.608C49.1836 105.249 59.5057 97.2902 69.4547 94.8496V94.8418C69.4547 92.4867 72.4705 90.0927 76.2013 89.4942C76.6755 89.4243 77.0641 89.7507 77.0641 90.2249V93.6604C86.9509 92.8442 97.1952 97.469 97.1952 112.905ZM69.3847 101.06C63.3764 102.708 57.2905 108.203 57.2905 119.061C57.2905 127.938 61.7908 133.145 69.3847 133.153V101.06ZM89.0884 114.087C89.0884 101.114 81.2458 99.6919 76.9941 99.8785V131.995C81.2613 130.736 89.0884 126.702 89.0884 114.087ZM131.566 128.07V97.1892C131.566 96.715 131.177 96.3808 130.703 96.4585L130.517 96.4896C124.92 97.3835 121.64 99.964 120.303 102.405L111.956 117.515C110.331 120.6 109.243 122.839 108.015 125.458C108.139 122.388 108.186 119.466 108.186 115.268V100.811C108.186 100.337 107.797 100.003 107.323 100.081L107.261 100.088C103.623 100.648 100.607 103.042 100.576 105.42V136.286C100.576 136.767 100.965 137.094 101.439 137.016C107.113 136.138 110.347 133.55 111.699 131.093C112.787 129.104 113.868 127.106 114.925 125.147C116.728 121.813 118.43 118.665 120.047 115.774C121.578 112.859 122.783 110.465 124.135 107.628C123.964 111.258 123.887 113.9 123.887 118.152V132.679C123.887 133.153 124.275 133.487 124.749 133.41L124.928 133.379C128.535 132.803 131.527 130.425 131.566 128.07ZM162.61 91.4763L138.499 95.1994C136.144 95.5724 134.216 98.4483 134.178 101.449V101.69C134.178 102.164 134.566 102.498 135.04 102.42L144.88 100.904V129.383C144.88 129.858 145.269 130.184 145.743 130.114L146.085 130.06C149.738 129.492 152.762 127.083 152.77 124.697V99.6842L159.19 98.697C161.545 98.2929 163.465 95.3859 163.473 92.3779V92.2069C163.473 91.725 163.084 91.3985 162.61 91.4763ZM91.5834 174.131C94.1872 173.726 96.5035 171.97 96.3869 170.19L94.9256 149.639C94.8868 149.103 94.436 148.753 93.8919 148.831L90.0211 149.429C88.3033 149.717 87.4794 151.357 86.8265 153.152L86.4768 154.139C86.469 154.155 86.4612 154.17 86.4612 154.194L84.0828 161.003C83.5232 162.658 82.878 164.586 82.3339 166.257C82.1396 165.705 81.9376 165.153 81.7432 164.617C81.5334 164.034 81.339 163.49 81.168 163.008L77.0097 152.118C76.862 151.73 76.4734 151.512 76.0303 151.582L72.7891 152.08C71.0636 152.344 69.8278 154.497 69.649 156.782H69.6412L68.18 176.618C68.1566 176.905 68.2577 177.178 68.452 177.356C68.6463 177.535 68.9261 177.613 69.2137 177.574L69.3769 177.551C72.0119 177.131 74.0949 175.366 74.196 173.594L74.6468 164.936C74.6934 164.119 74.7401 163.272 74.7789 162.409C75.0199 163.148 75.2531 163.847 75.4707 164.485L79.5358 175.149C79.6835 175.537 80.0721 175.755 80.5151 175.685L80.655 175.662V175.654C83.2589 175.25 84.8756 173.299 85.4586 171.768L88.9096 162.176C89.2438 161.197 89.5392 160.342 89.8035 159.565C89.8346 160.085 89.8656 160.598 89.8967 161.096L89.9745 162.456L90.4952 173.291C90.5185 173.843 90.9771 174.208 91.529 174.115L91.5834 174.131ZM110.417 174.356C111.963 171.511 113.378 167.928 115.041 163.28L121.283 146.017C121.407 145.683 121.36 145.325 121.166 145.076C120.972 144.828 120.653 144.703 120.311 144.758L118.92 144.975C116.285 145.387 114.645 147.206 114.093 148.932H114.085L110.401 160.404C110.214 160.987 110.036 161.578 109.865 162.153C109.694 161.64 109.507 161.127 109.328 160.637L104.323 147.898C104.175 147.517 103.786 147.307 103.351 147.369L102.955 147.432C100.778 147.774 98.0114 149.732 98.5399 151.248L106.297 169.382C106.468 169.817 106.507 169.996 106.515 170.058C106.484 170.19 106.351 170.509 106.274 170.687C105.186 173.307 103.553 174.97 103.056 175.444C102.146 176.354 101.214 176.983 100.537 177.38C100.063 177.675 99.7369 178.196 99.7369 178.755C99.7369 179.517 100.359 180.038 101.12 179.921L101.276 179.898C102.636 179.696 107.618 179.455 110.417 174.356ZM142.945 173.486C145.386 173.066 146.94 171.527 147.142 169.91L147.337 161.446C147.344 161.166 147.243 160.917 147.049 160.746C146.855 160.575 146.598 160.505 146.318 160.536L144.974 160.715V141.983C144.974 141.408 144.507 141.019 143.94 141.105L143.629 141.151C141.01 141.555 138.833 143.328 138.787 145.053V161.508L130.322 162.814V144.245C130.322 143.67 129.856 143.281 129.289 143.366L128.978 143.413C126.358 143.817 124.19 145.589 124.135 147.315V168.06C124.135 168.635 124.602 169.024 125.169 168.938L141.639 166.397L141.802 172.638C141.818 173.198 142.277 173.579 142.836 173.486H142.945ZM168.051 162.332C170.701 161.92 172.893 160.163 172.893 158.368V137.677C172.893 137.102 172.427 136.713 171.859 136.799L169.31 137.195C166.675 137.599 165.346 139.55 164.475 141.136L158.957 151.124C158.288 152.391 157.76 153.448 157.255 154.474C157.286 153.082 157.301 151.59 157.301 149.717V140.079C157.301 139.503 156.835 139.115 156.267 139.2L156.104 139.224C153.477 139.643 151.308 141.439 151.308 143.172V163.871C151.308 164.446 151.775 164.835 152.342 164.749L154.806 164.368C157.286 163.987 158.669 162.106 159.485 160.692C160.239 159.308 160.993 157.917 161.732 156.549C162.936 154.326 164.071 152.227 165.152 150.292C165.804 149.048 166.372 147.945 166.931 146.81C166.877 148.333 166.854 149.794 166.854 151.784V161.469C166.854 162.044 167.32 162.433 167.888 162.347L168.051 162.332ZM197.136 132.897L185.065 134.762C182.422 135.174 180.223 136.977 180.223 138.718V145.659C180.223 148.092 180.161 149.965 179.92 151.434C179.166 156.238 177.922 157.264 176.422 158.92C176.041 159.339 175.854 159.907 176.01 160.42C176.228 161.119 176.997 161.415 177.728 161.08L177.883 161.01C179.181 160.42 183.868 158.694 185.454 153.277H185.461C186.052 150.922 186.223 148.077 186.223 144.734V139.962L191.991 139.068V157.59C191.991 158.166 192.457 158.554 193.024 158.469L193.351 158.422C195.955 158.01 198.123 156.246 198.17 154.528V133.767C198.178 133.208 197.711 132.811 197.136 132.897Z" fill="#0C7315"/>
<path d="M200.508 103.719C200.026 103.796 199.637 103.462 199.637 102.98V102.972C199.637 101.535 200.803 100.19 202.241 99.9645L206.594 99.296C207.076 99.2183 207.465 99.5525 207.465 100.034V100.042C207.465 101.48 206.299 102.825 204.861 103.05L200.508 103.719ZM189.805 116.87C193.544 112.867 195.518 107.543 195.518 101.488C195.518 96.117 193.862 91.7565 190.722 88.8807C187.567 85.9892 183.214 84.87 178.138 85.655C173.164 86.4245 168.663 88.9118 165.453 92.6737C162.057 96.6533 160.261 101.776 160.261 107.496C160.261 118.393 167.381 124.907 177.571 123.337C182.242 122.614 186.587 120.321 189.805 116.87ZM187.403 102.949C187.403 110.17 183.385 116.031 177.851 116.886C172.317 117.741 168.298 113.178 168.298 106.043C168.298 99.8401 171.298 93.1168 177.991 92.083C185.437 90.9326 187.403 98.6898 187.403 102.949ZM95.0331 110.815C95.0331 123.702 87.5014 133.092 74.832 136.076V136.379C74.7543 138.703 71.7307 141.051 67.9999 141.657C67.5335 141.719 67.1526 141.393 67.1526 140.926V137.258C60.4993 137.677 47.0215 136.333 47.0215 118.518C47.0215 103.159 57.3436 95.1998 67.2926 92.7592V92.7515C67.2926 90.3963 70.3084 88.0024 74.0392 87.4039C74.5134 87.3339 74.902 87.6604 74.902 88.1345V91.57C84.7888 90.7539 95.0331 95.3708 95.0331 110.815ZM67.2226 98.9696C61.2143 100.617 55.1284 106.113 55.1284 116.971C55.1284 125.847 59.6287 131.055 67.2226 131.063V98.9696ZM86.9263 111.989C86.9263 99.0162 79.0837 97.5938 74.832 97.7804V129.897C79.0992 128.646 86.9263 124.604 86.9263 111.989ZM129.404 125.972V95.091C129.404 94.6169 129.015 94.2827 128.541 94.3604L128.355 94.3915C122.758 95.2853 119.478 97.8659 118.141 100.306L109.793 115.417C108.169 118.502 107.081 120.741 105.853 123.36C105.977 120.29 106.024 117.367 106.024 113.17V98.7131C106.024 98.2389 105.635 97.9047 105.161 97.9825L105.099 97.9902C101.461 98.5498 98.4453 100.944 98.4142 103.322V134.187C98.4142 134.669 98.8029 134.996 99.277 134.918C104.951 134.04 108.184 131.451 109.537 128.995C110.625 127.006 111.705 125.008 112.763 123.049C114.566 119.715 116.268 116.567 117.885 113.675C119.416 110.761 120.621 108.367 121.973 105.53C121.802 109.16 121.724 111.802 121.724 116.054V130.581C121.724 131.055 122.113 131.389 122.587 131.312L122.766 131.28C126.372 130.705 129.365 128.335 129.404 125.972ZM160.44 89.3781L136.329 93.1012C133.974 93.4743 132.047 96.3502 132.008 99.3504V99.5914C132.008 100.066 132.396 100.4 132.87 100.322L142.711 98.8064V127.285C142.711 127.759 143.099 128.086 143.573 128.016L143.915 127.962C147.568 127.394 150.592 124.985 150.6 122.598V97.586L157.02 96.5989C159.375 96.1947 161.295 93.2878 161.303 90.2798V90.1088C161.311 89.6346 160.922 89.3004 160.44 89.3781ZM89.4213 172.04C92.0251 171.636 94.3414 169.879 94.2248 168.099L92.7635 147.549C92.7247 147.012 92.2738 146.663 91.7298 146.74L87.859 147.339C86.1412 147.626 85.3173 149.266 84.6644 151.062L84.3147 152.049C84.3069 152.065 84.2991 152.08 84.2991 152.103L81.9207 158.912C81.361 160.568 80.7159 162.495 80.1718 164.167C79.9775 163.615 79.7754 163.063 79.5811 162.527C79.3713 161.944 79.1769 161.399 79.0059 160.918L74.8476 150.028C74.6999 149.639 74.3113 149.422 73.8682 149.492L70.627 149.989C68.9015 150.254 67.6656 152.407 67.4869 154.692H67.4791L66.0412 174.535C66.0178 174.823 66.1189 175.095 66.3132 175.274C66.5075 175.452 66.7873 175.53 67.0749 175.491L67.2381 175.468C69.8731 175.048 71.9561 173.284 72.0572 171.512L72.508 162.853C72.5546 162.037 72.6013 161.19 72.6401 160.327C72.8811 161.065 73.1143 161.765 73.3319 162.402L77.397 173.066C77.5447 173.455 77.9333 173.673 78.3764 173.603L78.5163 173.579V173.571C81.1201 173.167 82.7368 171.216 83.3198 169.685L86.7708 160.094C87.1051 159.114 87.4004 158.259 87.6647 157.482C87.6958 158.003 87.7269 158.516 87.7579 159.013L87.8357 160.373L88.3564 171.209C88.3797 171.76 88.8383 172.126 89.3902 172.032L89.4213 172.04ZM108.254 172.258C109.801 169.413 111.216 165.83 112.879 161.182L119.121 143.919C119.245 143.585 119.198 143.227 119.004 142.978C118.81 142.73 118.491 142.605 118.149 142.66L116.758 142.877C114.123 143.289 112.483 145.108 111.931 146.834H111.923L108.239 158.306C108.052 158.889 107.874 159.48 107.703 160.055C107.532 159.542 107.345 159.029 107.166 158.539L102.161 145.8C102.013 145.419 101.624 145.209 101.189 145.271L100.793 145.333C98.6163 145.675 95.8493 147.634 96.3778 149.15L104.135 167.283C104.306 167.719 104.345 167.897 104.353 167.96C104.321 168.092 104.189 168.41 104.112 168.589C103.023 171.209 101.391 172.872 100.894 173.346C99.9843 174.255 99.0516 174.885 98.3754 175.281C97.9013 175.577 97.5748 176.098 97.5748 176.657C97.5748 177.419 98.1966 177.94 98.9583 177.823L99.1138 177.8C100.474 177.598 105.456 177.357 108.254 172.258ZM140.783 171.387C143.224 170.968 144.778 169.429 144.98 167.812L145.175 159.348C145.182 159.068 145.081 158.819 144.887 158.648C144.693 158.477 144.436 158.399 144.156 158.438L142.812 158.617V139.885C142.812 139.31 142.345 138.921 141.778 139.007L141.467 139.053C138.848 139.457 136.671 141.229 136.625 142.955V159.41L128.16 160.715V142.147C128.16 141.571 127.694 141.183 127.126 141.268L126.816 141.315C124.196 141.719 122.028 143.491 121.973 145.217V165.962C121.973 166.537 122.44 166.926 123.007 166.84L139.477 164.299L139.64 170.54C139.656 171.1 140.115 171.481 140.674 171.387H140.783ZM165.889 160.234C168.539 159.822 170.731 158.065 170.731 156.27V135.579C170.731 135.004 170.265 134.615 169.697 134.7L167.148 135.097C164.513 135.501 163.184 137.452 162.313 139.038L156.795 149.025C156.126 150.292 155.598 151.349 155.092 152.375C155.124 150.984 155.139 149.492 155.139 147.619V137.981C155.139 137.405 154.673 137.017 154.105 137.102L153.942 137.126C151.315 137.545 149.146 139.341 149.146 141.074V161.773C149.146 162.348 149.613 162.736 150.18 162.651L152.644 162.27C155.124 161.889 156.507 160.008 157.323 158.594C158.077 157.21 158.831 155.819 159.569 154.451C160.774 152.228 161.909 150.129 162.989 148.194C163.642 146.95 164.21 145.846 164.769 144.712C164.715 146.235 164.692 147.696 164.692 149.686V159.371C164.692 159.946 165.158 160.335 165.725 160.249L165.889 160.234ZM194.974 130.806L182.903 132.672C180.26 133.084 178.061 134.887 178.061 136.628V143.569C178.061 146.002 177.998 147.875 177.757 149.344C177.004 154.148 175.76 155.174 174.26 156.829C173.879 157.249 173.692 157.816 173.848 158.329C174.065 159.029 174.835 159.324 175.566 158.99L175.721 158.92C177.019 158.329 181.706 156.604 183.292 151.186H183.299C183.89 148.831 184.061 145.986 184.061 142.644V137.872L189.828 136.978V155.5C189.828 156.075 190.295 156.464 190.862 156.378L191.189 156.332C193.792 155.92 195.961 154.155 196.008 152.438V131.685C196.015 131.109 195.549 130.713 194.974 130.806Z" fill="white"/>
<path d="M202.091 102.056L205.83 101.481C205.635 101.932 205.216 102.297 204.718 102.375L200.98 102.95C201.174 102.491 201.594 102.134 202.091 102.056ZM170.868 116.42C168.614 114.313 167.254 110.855 167.254 106.549C167.254 102.981 168.171 99.522 169.827 96.8172C171.824 93.5604 174.77 91.5395 178.33 90.9954C180.864 90.6068 183.048 91.0965 184.797 92.4101C182.947 90.6612 180.514 89.9694 177.638 90.4125C174.079 90.9643 171.133 92.9775 169.135 96.2342C167.472 98.9391 166.562 102.398 166.562 105.966C166.562 110.691 168.195 114.407 170.868 116.42ZM190.044 90.2648C189.826 90.0627 189.601 89.8762 189.367 89.6974C192.251 92.3479 193.774 96.3974 193.774 101.403C193.774 107.062 191.956 112.005 188.512 115.697C185.551 118.868 181.54 120.99 177.211 121.659C172.951 122.319 169.244 121.488 166.422 119.265C166.43 119.272 166.43 119.272 166.438 119.28C169.329 121.931 173.293 122.949 177.903 122.241C182.232 121.573 186.243 119.459 189.204 116.28C192.647 112.588 194.466 107.644 194.466 101.986C194.466 96.9726 192.935 92.9153 190.044 90.2648ZM58.4681 129.587C55.6389 126.975 54.0843 122.824 54.0843 117.469C54.0843 112.114 55.4757 107.598 58.2194 104.046C61.1575 100.245 64.8339 98.6049 67.3911 97.9053C67.4455 97.8898 67.4999 97.8742 67.5543 97.8665C67.7564 97.8354 67.943 97.8509 68.1295 97.9053C68.0518 97.7421 67.9352 97.5944 67.7798 97.4856C67.5233 97.2991 67.1968 97.2291 66.8626 97.2757C66.8082 97.2835 66.7538 97.2991 66.6994 97.3146C64.1422 98.0141 60.4657 99.6542 57.5276 103.455C54.7839 107.007 53.3926 111.523 53.3926 116.878C53.3926 122.661 55.2036 127.029 58.4681 129.587ZM73.9046 130.947C73.8269 130.784 73.7802 130.597 73.7802 130.403V98.2862C73.7802 97.8898 73.9512 97.4934 74.2388 97.1825C74.4953 96.9182 74.8218 96.7394 75.1638 96.685C75.2182 96.6772 75.2648 96.6695 75.3192 96.6695C77.379 96.5762 80.8378 96.8482 83.7215 99.079C80.7212 96.3041 76.8582 95.9855 74.6275 96.0865C74.573 96.0865 74.5264 96.0943 74.472 96.1021C74.13 96.1565 73.8036 96.3275 73.5471 96.5995C73.2517 96.9026 73.0885 97.3068 73.0885 97.7032V129.82C73.0885 130.224 73.2595 130.574 73.5626 130.791C73.6714 130.861 73.788 130.916 73.9046 130.947ZM88.1052 96.5684C91.5485 99.6853 93.2974 104.442 93.2974 110.73C93.2974 116.7 91.5718 122.008 88.3073 126.089C85.0506 130.154 80.2315 133.038 74.3632 134.421C73.6481 134.592 73.0962 135.276 73.0962 135.999V136.271C73.0418 137.437 71.3552 138.968 68.8679 139.699V140.461C71.7283 139.839 73.7258 138.129 73.7802 136.854V136.582C73.7802 135.859 74.3321 135.175 75.055 135.004C80.9155 133.621 85.7424 130.745 88.9913 126.672C92.2558 122.599 93.9814 117.283 93.9814 111.313C93.9814 104.621 92.0071 99.6619 88.1052 96.5684ZM73.1662 89.3321V91.4696C73.1662 92.0292 73.5004 92.4567 73.9823 92.6044C73.9046 92.4412 73.858 92.2624 73.858 92.0525V89.1533C73.617 89.2077 73.3916 89.2699 73.1662 89.3321ZM66.917 135.556C63.0307 135.805 57.6831 135.393 53.6802 132.237C57.7453 135.929 63.497 136.403 67.6088 136.139C67.7642 136.131 67.9119 136.147 68.0518 136.193C67.8497 135.781 67.43 135.525 66.917 135.556ZM104.28 113.07C104.28 117.384 104.233 120.228 104.109 123.205C104.086 123.78 104.42 124.247 104.925 124.402C104.84 124.224 104.793 124.021 104.801 123.796C104.925 120.819 104.972 117.982 104.972 113.66V99.7319C104.731 99.7785 104.506 99.8407 104.28 99.9029V113.07ZM121.971 103.836C121.854 103.82 121.73 103.828 121.613 103.844C121.108 103.921 120.626 104.279 120.385 104.784C119.064 107.543 117.89 109.883 116.335 112.852C114.703 115.759 113.009 118.899 111.213 122.226C110.25 124.006 109.13 126.073 108.027 128.102C108.019 128.118 108.003 128.141 107.995 128.164C107.381 129.291 105.415 131.887 100.13 133.007V133.729C105.936 132.696 108.042 129.921 108.687 128.747C108.703 128.724 108.711 128.708 108.718 128.685C109.822 126.656 110.941 124.589 111.905 122.809C113.701 119.482 115.395 116.342 117.027 113.435C118.59 110.466 119.763 108.126 121.077 105.367C121.318 104.862 121.8 104.504 122.305 104.427C122.421 104.411 122.546 104.403 122.662 104.419C122.732 104.427 122.802 104.442 122.865 104.465C122.709 104.123 122.383 103.883 121.971 103.836ZM127.668 96.2498V125.871C127.637 127.084 125.943 128.685 123.44 129.377V130.131C126.316 129.563 128.321 127.783 128.36 126.462V96.1176C128.127 96.1487 127.893 96.1953 127.668 96.2498ZM142.358 97.1203L133.832 98.4339C133.785 98.667 133.754 98.9002 133.738 99.1412L143.042 97.7032C143.244 97.6721 143.439 97.6877 143.61 97.7421C143.4 97.299 142.918 97.0348 142.358 97.1203ZM159.466 91.2519C159.124 93.0941 157.958 94.6875 156.66 94.9206L150.255 95.9078C149.494 96.0243 148.872 96.7394 148.872 97.5011V122.506C148.872 123.166 148.382 123.928 147.527 124.612C146.695 125.281 145.6 125.794 144.434 126.089V126.827C145.856 126.579 147.224 125.988 148.219 125.195C149.074 124.511 149.564 123.749 149.564 123.089V98.0841C149.564 97.3224 150.185 96.6073 150.947 96.4907L157.352 95.5036C158.813 95.2471 160.111 93.2573 160.251 91.1353L159.466 91.2519ZM77.3479 161.276C77.5189 161.758 77.7132 162.302 77.9231 162.877L77.9386 162.924C78.1252 163.437 78.3195 163.973 78.506 164.501C78.6304 164.859 78.9102 165.1 79.2522 165.201C79.2366 165.162 79.2133 165.123 79.1978 165.084C79.0112 164.548 78.8169 164.012 78.6304 163.506L78.6148 163.46C78.405 162.877 78.2107 162.341 78.0397 161.859L73.9668 151.202L73.5237 151.272L77.3479 161.276ZM72.2801 158.649C72.2257 158.656 72.1635 158.672 72.1091 158.687C71.4407 158.874 70.9355 159.504 70.8966 160.18C70.85 161.035 70.8111 161.882 70.7644 162.698L70.3136 171.31C70.3136 171.326 70.3136 171.334 70.3136 171.349C70.2748 172.095 69.2877 173.059 67.8419 173.549L67.7875 174.334C69.6374 173.968 70.9665 172.803 71.0132 171.932C71.0132 171.917 71.0132 171.901 71.0132 171.893L71.4562 163.281C71.5029 162.465 71.5495 161.618 71.5884 160.763C71.6195 160.086 72.1325 159.457 72.8009 159.27C72.8553 159.255 72.9175 159.239 72.9719 159.232C73.1662 159.2 73.3605 159.216 73.5393 159.27C73.3139 158.812 72.8242 158.563 72.2801 158.649ZM91.7506 148.459L91.1055 148.56L92.489 168.1C92.5046 168.31 92.4035 168.543 92.1859 168.8C91.7973 169.274 91.0044 169.81 89.994 170.137L90.0329 170.898C91.362 170.626 92.4035 169.966 92.8776 169.39C93.0875 169.134 93.1886 168.893 93.1808 168.691L91.7506 148.459ZM87.4834 155.788C87.4212 155.788 87.3513 155.796 87.2891 155.804C86.7139 155.889 86.1854 156.34 85.9833 156.931C85.7346 157.669 85.447 158.516 85.105 159.519L81.6617 169.079C81.2731 170.09 80.2782 171.334 78.677 171.777L78.9413 172.461C80.7912 172.134 81.9337 170.758 82.3535 169.662L85.7968 160.102C86.1465 159.099 86.4341 158.252 86.6751 157.514C86.8694 156.923 87.3979 156.48 87.9809 156.387C88.0431 156.379 88.113 156.371 88.1752 156.371C88.3073 156.371 88.4317 156.395 88.5483 156.426C88.3617 156.037 87.9653 155.788 87.4834 155.788ZM105.508 158.913C105.679 159.387 105.858 159.884 106.029 160.39C106.153 160.755 106.433 161.004 106.775 161.105C106.752 161.066 106.736 161.019 106.721 160.973C106.55 160.467 106.371 159.97 106.2 159.496L101.28 146.982L101.124 147.005C101.031 147.021 100.938 147.036 100.845 147.06L105.508 158.913ZM117.097 144.549C117.074 144.549 117.051 144.557 117.027 144.565L111.237 160.6C109.356 165.846 108.042 168.994 106.713 171.435C105.43 173.774 103.448 175.212 100.674 175.826C100.238 176.16 99.7797 176.463 99.3056 176.743L99.4611 176.712C99.5777 176.697 99.7176 176.673 99.8808 176.658C100.075 176.634 100.293 176.603 100.549 176.565C103.759 176.067 106.006 174.583 107.413 172.018C108.742 169.577 110.055 166.429 111.936 161.182L117.999 144.409L117.097 144.549ZM126.424 143.158V160.646C126.424 161.206 126.759 161.633 127.241 161.781C127.163 161.618 127.116 161.431 127.116 161.237V143.01C126.875 143.041 126.642 143.096 126.424 143.158ZM141.076 140.888V158.54C141.076 159.099 141.41 159.535 141.892 159.675C141.814 159.511 141.768 159.325 141.768 159.123V140.733C141.527 140.779 141.293 140.826 141.076 140.888ZM143.415 160.265L143.244 167.618C143.112 168.388 142.382 169.079 141.34 169.468L141.363 170.253C142.747 169.942 143.781 169.126 143.936 168.201L144.123 160.172L143.415 160.265ZM139.133 162.636L123.696 165.014V165.706L139.824 163.219C140.027 163.188 140.221 163.203 140.392 163.258C140.182 162.807 139.692 162.543 139.133 162.636ZM154.095 138.844C153.854 138.89 153.621 138.953 153.403 139.023V147.549C153.403 149.477 153.388 150.938 153.357 152.267C153.341 152.835 153.675 153.293 154.173 153.441C154.087 153.27 154.041 153.068 154.048 152.858C154.079 151.521 154.095 150.068 154.095 148.14V138.844ZM164.775 143.041C164.658 143.026 164.534 143.033 164.417 143.049C163.92 143.127 163.446 143.469 163.197 143.966C162.66 145.046 162.101 146.135 161.448 147.394C160.368 149.329 159.233 151.42 158.044 153.627L158.028 153.651C157.321 154.957 156.567 156.356 155.797 157.77C154.795 159.511 153.714 160.382 152.3 160.607L150.877 160.825V161.517L152.991 161.19C154.406 160.973 155.486 160.094 156.489 158.353C157.259 156.939 158.02 155.54 158.72 154.242L158.735 154.218C159.932 152.003 161.059 149.92 162.14 147.984C162.8 146.733 163.352 145.645 163.889 144.557C164.137 144.059 164.611 143.717 165.109 143.64C165.233 143.624 165.35 143.616 165.474 143.632C165.544 143.64 165.614 143.655 165.676 143.671C165.505 143.329 165.187 143.088 164.775 143.041ZM168.995 136.535V156.192C168.995 156.923 167.938 157.895 166.407 158.361V159.115C168.296 158.765 169.687 157.615 169.687 156.783V136.427L168.995 136.535ZM189.476 135.3L183.709 136.193C182.947 136.31 182.325 137.025 182.325 137.787V142.559C182.325 146.166 182.115 148.653 181.641 150.604C181.634 150.627 181.626 150.658 181.618 150.682C180.709 153.806 178.602 155.477 176.923 156.418C176.581 156.845 176.232 157.226 175.874 157.615C175.765 157.731 175.664 157.848 175.555 157.965C175.548 157.98 175.54 157.988 175.532 157.996L175.672 157.934C175.757 157.895 175.858 157.848 175.975 157.801C177.491 157.141 181.051 155.586 182.318 151.265C182.325 151.233 182.333 151.21 182.341 151.187C182.815 149.236 183.025 146.741 183.025 143.142V138.37C183.025 137.608 183.647 136.893 184.408 136.776L190.176 135.882C190.378 135.851 190.572 135.867 190.743 135.921C190.51 135.478 190.036 135.214 189.476 135.3ZM194.272 132.634V152.329C194.241 152.975 193.191 154.032 191.544 154.498V155.236C193.588 154.91 194.925 153.651 194.964 152.912V132.525L194.272 132.634Z" fill="#007D43"/>
<path d="M116.446 191.075L116.407 194.76L120.084 194.153L120.123 190.469L122.524 190.073L122.423 199.726L120.022 200.123L120.06 196.058L116.384 196.664L116.345 200.729L113.943 201.125L114.044 191.472L116.446 191.075Z" fill="#067611"/>
<path d="M134.089 192.878C134.051 196.423 131.571 198.42 129.146 198.817C126.465 199.26 124.397 197.744 124.428 194.635C124.459 191.464 126.534 189.179 129.41 188.705C132.24 188.238 134.121 189.948 134.089 192.878ZM126.908 194.169C126.892 196.034 127.794 197.286 129.239 197.045C130.607 196.819 131.579 195.311 131.602 193.353C131.618 191.845 130.973 190.213 129.325 190.485C127.63 190.764 126.923 192.56 126.908 194.169Z" fill="#067611"/>
<path d="M136.081 191.022C136.097 189.755 136.066 188.729 136.035 187.827L138.149 187.478L138.25 188.947L138.289 188.939C139.004 187.734 140.123 186.933 141.569 186.692C143.761 186.327 145.556 187.928 145.525 190.944C145.486 194.434 143.302 196.478 141.134 196.836C139.944 197.03 138.95 196.68 138.468 195.989L138.429 195.996L138.374 200.994L135.973 201.391L136.081 191.022ZM138.46 193.027C138.46 193.268 138.475 193.478 138.514 193.688C138.755 194.636 139.595 195.211 140.628 195.04C142.152 194.784 143.069 193.354 143.085 191.449C143.1 189.747 142.292 188.496 140.753 188.752C139.758 188.915 138.825 189.802 138.561 190.913C138.522 191.115 138.475 191.341 138.475 191.543L138.46 193.027Z" fill="#067611"/>
<path d="M147.723 185.892L150.754 185.386L152.06 189.366C152.246 189.949 152.573 190.983 152.775 191.76L152.814 191.752C153.016 191.029 153.443 189.692 153.762 188.666L155.052 184.671L158.084 184.166L158.612 193.711L156.366 194.084L156.234 189.91C156.203 188.985 156.14 187.671 156.133 186.521L156.07 186.529C155.744 187.695 155.581 188.231 155.06 189.84L153.49 194.434L151.749 194.721L150.404 190.711C150.14 189.848 149.806 188.495 149.58 187.64L149.502 187.656C149.471 188.853 149.417 190.166 149.347 191.107L149.106 195.281L146.938 195.638L147.723 185.892Z" fill="#067611"/>
<path d="M115.53 190.376L115.491 194.06L119.168 193.454L119.207 189.769L121.608 189.373L121.507 199.027L119.106 199.423L119.144 195.358L115.468 195.964L115.429 200.029L113.027 200.426L113.128 190.772L115.53 190.376Z" fill="white"/>
<path d="M133.173 192.179C133.135 195.724 130.655 197.721 128.23 198.118C125.549 198.561 123.481 197.045 123.512 193.936C123.543 190.765 125.618 188.48 128.494 188.005C131.331 187.539 133.205 189.249 133.173 192.179ZM125.999 193.47C125.984 195.335 126.885 196.586 128.331 196.345C129.699 196.12 130.671 194.612 130.694 192.653C130.71 191.146 130.064 189.513 128.417 189.785C126.714 190.065 126.015 191.861 125.999 193.47Z" fill="white"/>
<path d="M135.163 190.329C135.179 189.062 135.148 188.036 135.117 187.134L137.231 186.785L137.332 188.254L137.371 188.246C138.086 187.041 139.205 186.241 140.651 186C142.843 185.634 144.638 187.235 144.607 190.251C144.568 193.741 142.384 195.785 140.216 196.143C139.026 196.337 138.032 195.987 137.55 195.296L137.511 195.303L137.456 200.301L135.055 200.698L135.163 190.329ZM137.542 192.327C137.542 192.567 137.557 192.777 137.596 192.987C137.837 193.935 138.677 194.511 139.71 194.34C141.234 194.083 142.151 192.653 142.167 190.749C142.182 189.046 141.374 187.795 139.835 188.052C138.84 188.215 137.907 189.101 137.643 190.212C137.604 190.414 137.557 190.64 137.557 190.842L137.542 192.327Z" fill="white"/>
<path d="M146.814 185.191L149.846 184.686L151.151 188.666C151.338 189.249 151.664 190.282 151.867 191.06L151.905 191.052C152.108 190.329 152.535 188.992 152.854 187.966L154.144 183.971L157.175 183.466L157.704 193.011L155.458 193.384L155.325 189.21C155.294 188.285 155.232 186.971 155.224 185.821L155.162 185.829C154.836 186.995 154.672 187.531 154.152 189.14L152.582 193.734L150.841 194.021L149.496 190.01C149.232 189.148 148.897 187.795 148.672 186.94L148.594 186.956C148.563 188.153 148.509 189.466 148.439 190.407L148.198 194.581L146.029 194.938L146.814 185.191Z" fill="white"/>
<path d="M128.001 128.001L64 17.1492C73.6888 11.5574 84.0665 7.25683 94.8708 4.36191C105.675 1.46698 116.814 0 128.001 0V128.001Z" fill="white"/>
<path d="M128.001 128.002L17.1484 64.0009C22.7403 54.3121 29.5815 45.4014 37.491 37.492C45.4004 29.5825 54.3139 22.744 63.9999 17.1494L128.001 128.002Z" fill="white"/>
<path d="M85.2922 47.5391C83.2829 50.9592 78.9221 52.1563 75.4592 50.1897C72.039 48.2231 70.842 43.8196 72.8086 40.3567C74.7752 36.9365 79.1787 35.7395 82.5988 37.7061C86.019 39.6727 87.2161 44.0761 85.2495 47.5391H85.2922Z" fill="#289B38"/>
<path d="M79.0509 53.1827C77.4263 53.1827 75.8445 52.7552 74.4337 51.9429C70.0302 49.4205 68.5339 43.7773 71.0562 39.3738C73.4931 35.1413 79.3929 33.5595 83.6254 35.9964C88.0288 38.5615 89.5252 44.2048 87.0028 48.5655C85.3782 51.4299 82.3001 53.1827 79.0081 53.1827H79.0509ZM79.0509 38.818C77.2125 38.818 75.5025 39.8013 74.5619 41.3831C73.1511 43.82 74.0061 46.9837 76.443 48.4372C78.8371 49.8053 82.1291 48.9075 83.4971 46.5562C84.9079 44.0765 84.0529 40.9556 81.616 39.502C80.8465 39.0318 79.9487 38.818 79.0509 38.818V38.818Z" fill="#289B38"/>
<path d="M128.001 128.001H0C0 116.815 1.46698 105.678 4.36191 94.8713C7.25683 84.0669 11.5574 73.6865 17.1492 64.0005L128.001 128.001Z" fill="white"/>
<path d="M51.1753 79.0491C51.1753 83.025 47.9689 86.2314 43.9929 86.2314C40.017 86.2314 36.8105 83.025 36.8105 79.0491C36.8105 75.0731 40.017 71.8667 43.9929 71.8667C47.9689 71.8667 51.1753 75.0731 51.1753 79.0491Z" fill="#289B38"/>
<path d="M43.9944 88.2406C38.9069 88.2406 34.8027 84.0937 34.8027 79.0489C34.8027 73.9614 38.9069 69.8572 43.9944 69.8145C49.082 69.8145 53.2289 73.9614 53.2289 79.0062C53.2289 84.0937 49.082 88.1979 44.0372 88.2406H43.9944ZM43.9944 73.8759C41.1301 73.8759 38.8214 76.1845 38.8214 79.0489C38.8214 81.9133 41.1301 84.2219 43.9944 84.2219C46.8161 84.2219 49.1675 81.9133 49.1675 79.0489C49.1675 76.1845 46.8588 73.8759 43.9944 73.8759Z" fill="#289B38"/>
<path d="M128.001 128.001L17.1492 192.002C11.5574 182.313 7.25683 171.936 4.36191 161.131C1.46698 150.324 0 139.188 0 128.001H128.001Z" fill="white"/>
<rect x="13" y="134" width="12" height="37" rx="6" transform="rotate(-90 13 134)" fill="#289B38"/>
<path d="M128.001 128.001L63.9999 238.854C54.3111 233.262 45.4004 226.421 37.491 218.511C29.5815 210.602 22.7431 201.688 17.1484 192.002L128.001 128.001Z" fill="white"/>
<path d="M47.5415 168.614C50.9617 170.58 52.1587 174.984 50.1921 178.404C48.1828 181.824 43.822 183.021 40.3591 181.055C36.8962 179.088 35.7419 174.685 37.7085 171.264C39.7178 167.844 44.0786 166.647 47.5415 168.614V168.614Z" fill="#289B38"/>
<path d="M43.9495 184.047C42.325 184.047 40.7431 183.619 39.3751 182.807C34.9716 180.242 33.4753 174.641 35.9976 170.238C38.4345 166.006 44.3343 164.381 48.6095 166.861C53.013 169.426 54.5093 175.026 51.987 179.43C50.3196 182.251 47.2842 184.047 43.9923 184.047H43.9495ZM43.9495 169.682C42.1112 169.682 40.4011 170.666 39.4606 172.29C38.0497 174.727 38.9048 177.891 41.3844 179.344C43.7358 180.712 47.0705 179.814 48.4385 177.42C49.8493 174.983 48.9943 171.82 46.5147 170.366C45.7451 169.896 44.8473 169.682 43.9495 169.682Z" fill="#289B38"/>
<path d="M128.001 128.001V256.003C116.814 256.003 105.678 254.536 94.8708 251.641C84.0665 248.746 73.686 244.445 64 238.854L128.001 128.001Z" fill="white"/>
<path d="M79.0515 202.73C83.0275 202.73 86.2339 205.937 86.2339 209.913C86.2339 213.889 83.0275 217.095 79.0515 217.095C75.0756 217.095 71.8691 213.889 71.8691 209.913C71.8691 205.937 75.1183 202.73 79.0515 202.73Z" fill="#289B38"/>
<path d="M79.0489 219.146C73.9614 219.146 69.8145 214.999 69.8145 209.955C69.8145 204.91 73.9614 200.72 79.0062 200.72C84.0937 200.72 88.2406 204.867 88.2406 209.912C88.2406 214.957 84.0937 219.104 79.0489 219.146V219.146ZM79.0489 204.782C77.6809 204.782 76.3983 205.337 75.415 206.321C74.4317 207.304 73.9187 208.587 73.9187 209.955C73.9187 212.776 76.2273 215.085 79.0917 215.128C81.9561 215.128 84.2647 212.819 84.2647 209.955C84.2647 207.09 81.9561 204.824 79.0917 204.782H79.0489Z" fill="#289B38"/>
<path d="M128.002 128.001L192.003 238.854C182.314 244.445 171.936 248.746 161.132 251.641C150.327 254.536 139.188 256.003 128.002 256.003V128.001Z" fill="white"/>
<rect x="122" y="206" width="12" height="37" rx="6" fill="#289B38"/>
<path d="M128.002 128.001L238.854 192.002C233.262 201.691 226.421 210.602 218.512 218.511C210.602 226.421 201.689 233.259 192.003 238.854L128.002 128.001Z" fill="white"/>
<path d="M168.615 206.322C170.624 202.902 174.985 201.705 178.448 203.671C181.868 205.638 183.065 210.041 181.099 213.504C179.132 216.925 174.729 218.122 171.308 216.155C167.845 214.188 166.691 209.785 168.658 206.322H168.615Z" fill="#289B38"/>
<path d="M174.857 219.148C173.276 219.148 171.651 218.721 170.283 217.908C168.145 216.668 166.606 214.702 166.008 212.308C165.366 209.914 165.708 207.434 166.906 205.339C169.342 201.107 175.242 199.525 179.475 201.962C183.878 204.484 185.374 210.127 182.852 214.531C181.227 217.395 178.149 219.148 174.857 219.148V219.148ZM174.857 204.783C173.019 204.783 171.309 205.767 170.368 207.391C169.684 208.588 169.471 209.956 169.855 211.282C170.197 212.607 171.052 213.719 172.25 214.403C174.601 215.771 177.936 214.873 179.304 212.521C180.714 210.042 179.859 206.878 177.423 205.467C176.653 204.997 175.755 204.783 174.857 204.783V204.783Z" fill="#289B38"/>
<path d="M128.002 128.001H256.003C256.003 139.188 254.536 150.324 251.641 161.131C248.747 171.936 244.446 182.316 238.854 192.002L128.002 128.001Z" fill="white"/>
<path d="M202.734 174.857C202.734 170.881 205.941 167.675 209.917 167.675C213.893 167.675 217.099 170.881 217.099 174.857C217.099 178.833 213.893 182.04 209.917 182.04C205.941 182.04 202.734 178.79 202.734 174.857Z" fill="#289B38"/>
<path d="M209.914 184.048C204.827 184.048 200.68 179.901 200.68 174.856C200.68 169.812 204.827 165.665 209.871 165.665C214.916 165.665 219.063 169.769 219.063 174.856C219.063 179.944 214.959 184.048 209.871 184.091L209.914 184.048ZM209.914 169.683C207.05 169.683 204.741 171.992 204.741 174.856C204.741 177.721 207.05 180.029 209.914 180.029C212.779 180.029 215.087 177.721 215.087 174.856C215.087 171.992 212.779 169.683 209.914 169.683Z" fill="#289B38"/>
<path d="M128.002 128.001L238.854 64.0005C244.446 73.6893 248.747 84.0669 251.641 94.8713C254.536 105.676 256.003 116.815 256.003 128.001H128.002Z" fill="white"/>
<rect x="206" y="134" width="12" height="37" rx="6" transform="rotate(-90 206 134)" fill="#289B38"/>
<path d="M128.002 128.002L192.003 17.1494C201.691 22.7412 210.602 29.5825 218.512 37.492C226.421 45.4014 233.26 54.3149 238.854 64.0009L128.002 128.002Z" fill="white"/>
<path d="M206.324 85.2478C202.904 83.2384 201.707 78.8777 203.674 75.4148C205.64 71.9946 210.044 70.7976 213.464 72.7642C216.884 74.7308 218.081 79.1342 216.115 82.5544C214.148 85.9746 209.745 87.1716 206.282 85.205L206.324 85.2478Z" fill="#289B38"/>
<path d="M209.914 88.2408C208.333 88.2408 206.708 87.8133 205.34 87.001C200.936 84.4358 199.44 78.7925 201.962 74.4318C204.399 70.1994 210.256 68.5748 214.532 71.0544C218.935 73.5768 220.431 79.2201 217.909 83.6235C216.242 86.4879 213.206 88.2408 209.914 88.2408ZM209.914 73.8761C208.076 73.8761 206.366 74.8593 205.425 76.4839C204.015 78.9208 204.87 82.0845 207.307 83.538C209.701 84.9061 212.993 84.0083 214.361 81.6142C215.771 79.1773 214.916 76.0137 212.437 74.5601C211.667 74.0898 210.769 73.8761 209.872 73.8761H209.914Z" fill="#289B38"/>
<path d="M128.002 128.001V0C139.188 0 150.325 1.46698 161.132 4.36191C171.936 7.25683 182.317 11.5574 192.003 17.1492L128.002 128.001Z" fill="white"/>
<path d="M174.854 51.1743C170.878 51.1743 167.672 47.9679 167.672 43.9919C167.672 40.016 170.878 36.8096 174.854 36.8096C178.83 36.8096 182.037 40.016 182.037 43.9919C182.037 47.9679 178.83 51.1743 174.854 51.1743Z" fill="#289B38"/>
<path d="M174.856 53.1835C169.768 53.1835 165.664 49.0365 165.664 43.9918C165.664 38.947 169.768 34.7573 174.856 34.7573C179.943 34.7573 184.048 38.9043 184.09 43.949C184.09 49.0365 179.943 53.1835 174.899 53.1835H174.856ZM174.856 38.8188C171.991 38.8188 169.683 41.1274 169.683 43.9918C169.683 46.8562 171.991 49.1648 174.856 49.1648C177.72 49.1648 180.029 46.8562 180.029 43.9918C180.029 41.1701 177.72 38.8615 174.856 38.8615V38.8188Z" fill="#289B38"/>
<rect x="122" y="13" width="12" height="37" rx="6" fill="#289B38"/>
<rect x="122" y="51" width="12" height="83" rx="6" fill="#289B38"/>
<rect x="122" y="134" width="12" height="54" rx="6" transform="rotate(-90 122 134)" fill="#289B38"/>
<defs>
<linearGradient id="paint0_linear_1531_40959" x1="127.923" y1="-0.00178771" x2="127.923" y2="256.002" gradientUnits="userSpaceOnUse">
<stop offset="0.1524" stop-color="#0B7425"/>
<stop offset="1" stop-color="#52B121"/>
</linearGradient>
<radialGradient id="paint1_radial_1531_40959" cx="0" cy="0" r="1" gradientUnits="userSpaceOnUse" gradientTransform="translate(-515.465 2057.82) scale(172.888 172.888)">
<stop offset="0.1524" stop-color="#FFF8A5"/>
<stop offset="1" stop-color="#7DC242"/>
</radialGradient>
<radialGradient id="paint2_radial_1531_40959" cx="0" cy="0" r="1" gradientUnits="userSpaceOnUse" gradientTransform="translate(165.655 128.716) scale(105.574 105.574)">
<stop offset="0.1524" stop-color="#FFF8A5"/>
<stop offset="1" stop-color="#7DC242"/>
</radialGradient>
<linearGradient id="paint3_linear_1531_40959" x1="62.1668" y1="192.885" x2="210.143" y2="192.885" gradientUnits="userSpaceOnUse">
<stop offset="0.0286" stop-color="#B0FE30"/>
<stop offset="0.5" stop-color="#68DE13"/>
<stop offset="1" stop-color="#AFFE30"/>
</linearGradient>
</defs>
</svg>
