<svg width="125" height="125" viewBox="0 0 125 125" fill="none" xmlns="http://www.w3.org/2000/svg">
<path d="M61.6845 6.94162C62.1495 7.25439 62.8173 7.49954 63.5443 7.51645C64.6179 7.54181 65.2603 6.99234 65.2857 6.17236C65.3026 5.42001 64.8799 4.96353 63.7894 4.52395C62.4707 4.0083 61.6676 3.28976 61.693 2.14855C61.7268 0.880548 62.8004 -0.0408699 64.3812 0.00139694C65.2011 0.0183037 65.8182 0.229638 66.1564 0.440973L65.8436 1.29476C65.59 1.13415 65.0574 0.889001 64.322 0.872095C63.2061 0.846735 62.775 1.49764 62.7581 2.05557C62.7412 2.81637 63.2231 3.20523 64.3389 3.67016C65.6999 4.23654 66.3762 4.92126 66.3508 6.11319C66.317 7.37274 65.3702 8.44632 63.4513 8.40405C62.6651 8.38715 61.8113 8.12509 61.3887 7.82077L61.6845 6.94162Z" fill="white"/>
<path d="M71.7351 8.78468C71.4392 8.88612 70.8052 9.00447 70.0275 8.91148C68.2777 8.69169 67.2886 7.35606 67.5169 5.58085C67.7451 3.79719 69.1314 2.63907 71.025 2.88422C71.6506 2.9603 72.1831 3.18854 72.4452 3.38297L72.107 4.15223C71.8703 3.99161 71.4984 3.79719 70.9151 3.72111C69.5795 3.55204 68.7341 4.45655 68.582 5.65693C68.4129 7.00102 69.1737 7.93934 70.3234 8.08305C70.9236 8.15913 71.3378 8.06614 71.6506 7.97315L71.7266 8.78468H71.7351Z" fill="white"/>
<path d="M73.5869 5.276C73.7306 4.59973 73.8405 4.01645 73.9166 3.48389L74.8295 3.67831L74.6351 4.82797H74.6689C75.0916 4.12634 75.8355 3.7713 76.5287 3.92346C76.6386 3.94882 76.7146 3.97418 76.8076 4.008L76.5963 4.98859C76.4948 4.94632 76.385 4.92096 76.2497 4.88715C75.5143 4.73499 74.8803 5.16611 74.5759 5.91846C74.5252 6.05371 74.4745 6.23123 74.4407 6.39185L73.7898 9.44352L72.75 9.22373L73.5869 5.28446V5.276Z" fill="white"/>
<path d="M82.2592 8.73345C81.6168 10.7961 79.8923 11.2441 78.5482 10.8299C77.0519 10.3565 76.2235 8.88561 76.773 7.11886C77.3563 5.25911 78.9286 4.55748 80.4671 5.03087C82.0733 5.52962 82.7918 7.03432 82.2592 8.73345ZM77.8212 7.40627C77.4408 8.63201 77.8381 9.76476 78.8356 10.0775C79.8078 10.3819 80.8137 9.69714 81.211 8.43758C81.5069 7.4908 81.4054 6.15517 80.2051 5.78322C79.0131 5.41127 78.1509 6.35805 77.8212 7.40627Z" fill="white"/>
<path d="M85.6921 4.10938L86.6726 4.51514L83.4181 12.4529L82.4375 12.0471L85.6921 4.10938Z" fill="white"/>
<path d="M88.6255 5.36914L89.5892 5.82562L85.9373 13.5943L84.9736 13.1378L88.6255 5.36914Z" fill="white"/>
<path d="M91.3808 11.8527C91.609 11.4639 92.0233 11.354 92.3952 11.5653C92.7587 11.7766 92.8517 12.1993 92.6234 12.5797C92.4121 12.9432 91.9894 13.0785 91.609 12.8502C91.254 12.6389 91.1695 12.2162 91.3892 11.8527H91.3808Z" fill="white"/>
<path d="M94.3901 17.0347C94.5845 17.5588 94.9818 18.159 95.5566 18.5985C96.4104 19.2494 97.2557 19.1818 97.7545 18.5309C98.211 17.9392 98.1349 17.3136 97.5093 16.3246C96.7485 15.1327 96.5203 14.076 97.2135 13.1715C97.9827 12.1655 99.3944 12.0556 100.654 13.0193C101.305 13.5181 101.677 14.0506 101.829 14.4226L101.077 14.9298C100.975 14.6508 100.679 14.1352 100.096 13.6871C99.2169 13.0109 98.473 13.2814 98.1349 13.7209C97.67 14.3211 97.839 14.9213 98.4646 15.9526C99.2338 17.2122 99.3775 18.159 98.6505 19.1142C97.8897 20.1117 96.4865 20.4245 94.9649 19.2579C94.3393 18.7761 93.8068 18.066 93.6377 17.5672L94.3985 17.0347H94.3901Z" fill="white"/>
<path d="M101.432 24.4483C101.136 24.3553 100.553 24.0848 99.9778 23.5438C98.6929 22.335 98.676 20.6781 99.9101 19.3763C101.144 18.066 102.945 17.9561 104.34 19.2664C104.796 19.6975 105.092 20.1963 105.194 20.509L104.458 20.9317C104.365 20.6612 104.171 20.2808 103.748 19.8835C102.767 18.9621 101.559 19.1988 100.722 20.0779C99.7918 21.067 99.851 22.2673 100.696 23.062C101.136 23.4762 101.525 23.6452 101.838 23.7551L101.423 24.4568L101.432 24.4483Z" fill="white"/>
<path d="M104.999 22.7156C105.515 22.2591 105.946 21.8534 106.326 21.4561L106.952 22.1492L106.123 22.9608L106.149 22.9861C106.909 22.6564 107.713 22.817 108.194 23.3412C108.27 23.4257 108.313 23.4933 108.372 23.5694L107.628 24.2372C107.577 24.1442 107.501 24.0597 107.4 23.9498C106.901 23.3919 106.132 23.3665 105.439 23.7892C105.312 23.8653 105.168 23.9836 105.05 24.0935L102.734 26.173L102.023 25.3784L105.016 22.6902L104.999 22.7156Z" fill="white"/>
<path d="M109.978 30.6025C108.245 31.8959 106.58 31.245 105.752 30.1207C104.813 28.8611 105.008 27.1789 106.496 26.0715C108.059 24.9134 109.75 25.26 110.705 26.5533C111.711 27.9059 111.407 29.5458 109.978 30.6025ZM107.172 26.9253C106.141 27.6861 105.802 28.8442 106.42 29.6811C107.028 30.4926 108.245 30.5349 109.302 29.7487C110.097 29.157 110.798 28.0158 110.054 27.0098C109.311 26.0123 108.059 26.2659 107.172 26.9253Z" fill="white"/>
<path d="M115.465 28.8779L116.022 29.7824L108.736 34.305L108.178 33.4005L115.465 28.8779Z" fill="white"/>
<path d="M117.096 31.5918L117.612 32.5217L110.106 36.6723L109.59 35.7424L117.096 31.5918Z" fill="white"/>
<path d="M115.524 38.4725C115.93 38.295 116.344 38.4472 116.513 38.836C116.682 39.2249 116.513 39.6138 116.099 39.7913C115.71 39.9603 115.296 39.8251 115.119 39.4109C114.958 39.0305 115.136 38.6416 115.524 38.4725Z" fill="white"/>
<path d="M114.924 44.4403C114.771 44.9814 114.738 45.6914 114.949 46.3846C115.253 47.4159 115.98 47.8555 116.766 47.6188C117.485 47.4075 117.789 46.858 117.874 45.6914C117.958 44.2797 118.398 43.2907 119.488 42.9695C120.706 42.606 121.906 43.3499 122.363 44.863C122.599 45.6492 122.591 46.3001 122.489 46.6889L121.585 46.6551C121.661 46.3677 121.729 45.7844 121.517 45.0743C121.204 44.0092 120.444 43.7894 119.911 43.9501C119.184 44.1698 118.964 44.7531 118.863 45.9535C118.745 47.4244 118.305 48.2782 117.155 48.6163C115.946 48.9714 114.636 48.405 114.087 46.5621C113.867 45.8098 113.85 44.9222 114.002 44.415L114.924 44.4319V44.4403Z" fill="white"/>
<path d="M116.251 54.5678C116.073 54.3227 115.752 53.7479 115.608 52.9786C115.287 51.2457 116.251 49.8931 118.009 49.5634C119.776 49.2338 121.297 50.2059 121.652 52.0826C121.771 52.6997 121.711 53.2745 121.61 53.5873L120.773 53.4943C120.858 53.2238 120.925 52.8011 120.824 52.2347C120.579 50.916 119.454 50.3834 118.271 50.6117C116.944 50.8568 116.284 51.8712 116.496 53.0124C116.606 53.6042 116.825 53.9677 117.011 54.2466L116.259 54.5678H116.251Z" fill="white"/>
<path d="M120.156 55.2606C120.841 55.193 121.433 55.1169 121.965 55.0239L122.058 55.9453L120.909 56.1144V56.1482C121.72 56.3342 122.278 56.9344 122.354 57.6445C122.363 57.7544 122.354 57.8389 122.354 57.9319L121.357 58.0333C121.374 57.9234 121.357 57.8135 121.348 57.6698C121.272 56.9259 120.664 56.4525 119.86 56.3849C119.717 56.3765 119.531 56.3849 119.362 56.4018L116.259 56.7146L116.149 55.6579L120.156 55.2522V55.2606Z" fill="white"/>
<path d="M119.565 64.5428C117.401 64.5766 116.437 63.0803 116.412 61.6771C116.386 60.1048 117.527 58.8537 119.379 58.8283C121.323 58.7945 122.49 60.0709 122.515 61.6771C122.54 63.3593 121.34 64.509 119.565 64.5428ZM119.429 59.9188C118.144 59.9357 117.189 60.6796 117.206 61.7194C117.223 62.7338 118.187 63.4777 119.505 63.4607C120.495 63.4438 121.737 62.9282 121.712 61.6686C121.695 60.426 120.52 59.9019 119.421 59.9188H119.429Z" fill="white"/>
<path d="M125 66.4027L124.924 67.4594L116.36 66.8254L116.436 65.7603L125 66.3943V66.4027Z" fill="white"/>
<path d="M124.713 69.5807L124.578 70.6374L116.057 69.5723L116.192 68.5156L124.713 69.5807Z" fill="white"/>
<path d="M119.404 74.1965C119.843 74.2895 120.08 74.653 119.987 75.0672C119.894 75.4814 119.531 75.6928 119.091 75.5998C118.677 75.5068 118.423 75.1518 118.516 74.7206C118.609 74.3149 118.99 74.1035 119.395 74.1965H119.404Z" fill="white"/>
<path d="M115.414 78.66C114.974 79.0066 114.526 79.5645 114.289 80.2492C113.934 81.2636 114.255 82.0498 115.033 82.3203C115.743 82.5739 116.31 82.3118 117.062 81.4073C117.958 80.3168 118.896 79.7758 119.97 80.1478C121.17 80.5704 121.703 81.8723 121.179 83.3685C120.908 84.1462 120.519 84.6619 120.207 84.9239L119.497 84.366C119.733 84.18 120.13 83.7405 120.376 83.0473C120.748 81.9991 120.257 81.382 119.733 81.196C119.015 80.9424 118.499 81.289 117.713 82.2019C116.749 83.3262 115.895 83.7574 114.763 83.3516C113.579 82.9289 112.844 81.7032 113.486 79.8857C113.748 79.1418 114.264 78.4148 114.678 78.1021L115.422 78.66H115.414Z" fill="white"/>
<path d="M110.537 87.6458C110.537 87.3415 110.613 86.6906 110.951 85.9805C111.712 84.3828 113.284 83.8587 114.899 84.628C116.53 85.3972 117.19 87.0795 116.37 88.8039C116.099 89.3703 115.719 89.8099 115.457 90.0043L114.831 89.4379C115.059 89.2689 115.364 88.9646 115.609 88.4404C116.184 87.2232 115.592 86.1411 114.493 85.6255C113.267 85.0422 112.143 85.4733 111.644 86.5215C111.382 87.071 111.348 87.4937 111.331 87.8233L110.528 87.6458H110.537Z" fill="white"/>
<path d="M113.284 90.5116C113.875 90.8582 114.399 91.1456 114.89 91.3907L114.425 92.1938L113.393 91.6528L113.377 91.6866C113.926 92.3121 114.019 93.1237 113.664 93.7408C113.613 93.8337 113.554 93.9014 113.495 93.9775L112.624 93.4702C112.7 93.3857 112.751 93.2927 112.827 93.1659C113.207 92.515 112.988 91.7796 112.371 91.2555C112.261 91.1625 112.109 91.061 111.956 90.9765L109.26 89.4126L109.792 88.4912L113.275 90.5116H113.284Z" fill="white"/>
<path d="M107.307 97.68C105.549 96.4204 105.659 94.6452 106.47 93.504C107.383 92.2275 109.04 91.8979 110.545 92.9714C112.134 94.1042 112.312 95.8202 111.382 97.1305C110.41 98.5 108.753 98.7197 107.307 97.68ZM109.945 93.876C108.905 93.1321 107.696 93.1659 107.087 94.0112C106.496 94.8396 106.834 96.0147 107.907 96.7755C108.719 97.3503 110.012 97.6715 110.748 96.6487C111.475 95.6343 110.841 94.5184 109.945 93.876Z" fill="white"/>
<path d="M110.637 102.38L109.953 103.191L103.401 97.646L104.086 96.8345L110.637 102.38Z" fill="white"/>
<path d="M108.541 104.755L107.814 105.533L101.559 99.6664L102.286 98.8887L108.541 104.755Z" fill="white"/>
<path d="M101.533 105.373C101.829 105.711 101.812 106.142 101.491 106.421C101.17 106.7 100.747 106.658 100.451 106.319C100.172 105.998 100.172 105.567 100.511 105.271C100.815 105.001 101.254 105.051 101.533 105.364V105.373Z" fill="white"/>
<path d="M95.6675 106.64C95.1095 106.657 94.4164 106.852 93.8246 107.266C92.937 107.875 92.7426 108.703 93.2075 109.379C93.6302 109.996 94.2473 110.115 95.3885 109.836C96.758 109.481 97.8315 109.591 98.4824 110.529C99.201 111.577 98.8713 112.947 97.5695 113.843C96.8932 114.308 96.2761 114.502 95.8704 114.527L95.6252 113.657C95.9211 113.64 96.5044 113.521 97.113 113.107C98.026 112.473 98.0006 111.687 97.6878 111.231C97.2567 110.605 96.6312 110.58 95.4646 110.859C94.0275 111.205 93.0807 111.045 92.4045 110.064C91.6944 109.024 91.8212 107.604 93.402 106.505C94.0529 106.057 94.8898 105.77 95.4139 105.761L95.6844 106.649L95.6675 106.64Z" fill="white"/>
<path d="M86.4443 111.053C86.6219 110.8 87.0699 110.326 87.7546 109.946C89.3016 109.101 90.8824 109.599 91.7446 111.163C92.6068 112.744 92.1588 114.494 90.485 115.407C89.9356 115.711 89.3692 115.838 89.0395 115.838L88.862 115.01C89.1494 115.01 89.5636 114.942 90.0793 114.663C91.2543 114.02 91.4065 112.795 90.8316 111.73C90.1807 110.546 89.0142 110.225 87.9998 110.783C87.4672 111.07 87.1882 111.391 86.9854 111.654L86.4443 111.036V111.053Z" fill="white"/>
<path d="M86.9936 114.984C87.2726 115.618 87.5262 116.15 87.7798 116.632L86.926 117.013L86.4103 115.973L86.3765 115.99C86.4526 116.818 86.0553 117.537 85.4044 117.824C85.3029 117.866 85.2268 117.892 85.1254 117.917L84.7196 116.996C84.8295 116.97 84.931 116.928 85.0578 116.869C85.7425 116.565 86.0046 115.838 85.8101 115.051C85.7763 114.908 85.7087 114.739 85.6411 114.587L84.373 111.738L85.3452 111.307L86.9767 114.992L86.9936 114.984Z" fill="white"/>
<path d="M77.9568 117.275C77.2721 115.221 78.3964 113.851 79.7321 113.403C81.2199 112.905 82.7584 113.615 83.3501 115.365C83.9672 117.207 83.105 118.712 81.5833 119.219C79.9941 119.752 78.5232 118.957 77.9653 117.275H77.9568ZM82.3272 115.745C81.9215 114.528 80.924 113.843 79.9434 114.173C78.9797 114.494 78.5655 115.644 78.9797 116.895C79.2925 117.833 80.1632 118.856 81.3551 118.459C82.5386 118.061 82.6823 116.793 82.3272 115.745Z" fill="white"/>
<path d="M77.8642 123.031L76.8329 123.285L74.8125 114.942L75.8438 114.688L77.8642 123.031Z" fill="white"/>
<path d="M74.7872 123.733L73.739 123.936L72.1328 115.5L73.181 115.305L74.7872 123.742V123.733Z" fill="white"/>
<path d="M68.7426 120.098C68.7849 120.546 68.5144 120.884 68.0917 120.927C67.6691 120.969 67.3478 120.681 67.314 120.233C67.2717 119.811 67.5338 119.456 67.9818 119.422C68.3876 119.38 68.7088 119.684 68.7511 120.098H68.7426Z" fill="white"/>
<path d="M63.2651 117.672C62.8002 117.36 62.1324 117.114 61.4054 117.089C60.3318 117.064 59.6894 117.613 59.664 118.433C59.6471 119.185 60.0698 119.642 61.1602 120.082C62.479 120.597 63.282 121.324 63.2482 122.457C63.2144 123.725 62.1408 124.638 60.56 124.604C59.7401 124.587 59.123 124.376 58.7848 124.156L59.0976 123.302C59.3512 123.463 59.8838 123.708 60.6192 123.725C61.7351 123.75 62.1746 123.099 62.1831 122.541C62.2 121.781 61.7182 121.392 60.6023 120.927C59.2413 120.36 58.5651 119.676 58.5989 118.484C58.6327 117.224 59.5795 116.151 61.4984 116.201C62.2845 116.218 63.1383 116.489 63.561 116.785L63.2567 117.664L63.2651 117.672Z" fill="white"/>
<path d="M53.2137 115.813C53.5095 115.72 54.1435 115.593 54.9212 115.686C56.6711 115.914 57.6601 117.241 57.4319 119.016C57.2037 120.8 55.8088 121.958 53.9153 121.713C53.2897 121.637 52.7572 121.409 52.4951 121.214L52.8417 120.437C53.0784 120.597 53.4503 120.792 54.0336 120.868C55.3693 121.037 56.2146 120.132 56.3668 118.932C56.5358 117.588 55.7835 116.65 54.6254 116.506C54.0252 116.43 53.611 116.523 53.2982 116.616L53.2221 115.804L53.2137 115.813Z" fill="white"/>
<path d="M51.3373 119.312C51.1935 119.989 51.0837 120.572 50.9991 121.104L50.0862 120.91L50.2806 119.769H50.2468C49.8241 120.47 49.0802 120.817 48.3786 120.673C48.2687 120.648 48.1926 120.623 48.0996 120.589L48.3109 119.608C48.4124 119.659 48.5223 119.676 48.6575 119.71C49.393 119.87 50.027 119.439 50.3398 118.687C50.3905 118.551 50.4412 118.374 50.4835 118.213L51.1428 115.162L52.1826 115.381L51.3373 119.312Z" fill="white"/>
<path d="M42.6893 115.863C43.3318 113.8 45.0563 113.352 46.4004 113.767C47.8966 114.24 48.725 115.711 48.1756 117.478C47.5923 119.337 46.02 120.048 44.4814 119.566C42.8753 119.067 42.1568 117.562 42.6893 115.863ZM47.1274 117.19C47.5078 115.965 47.1104 114.832 46.1129 114.519C45.1408 114.215 44.1349 114.899 43.7375 116.159C43.4417 117.106 43.5431 118.441 44.7435 118.813C45.9354 119.185 46.7977 118.238 47.1274 117.19Z" fill="white"/>
<path d="M39.2325 120.47L38.252 120.065L41.515 112.127L42.4955 112.533L39.2325 120.47Z" fill="white"/>
<path d="M36.2986 119.211L35.335 118.754L38.9953 110.986L39.959 111.442L36.2986 119.211Z" fill="white"/>
<path d="M33.5766 112.736C33.3484 113.125 32.9257 113.234 32.5622 113.023C32.1987 112.812 32.1057 112.389 32.334 112C32.5453 111.637 32.968 111.502 33.3484 111.73C33.7034 111.941 33.7879 112.364 33.5682 112.736H33.5766Z" fill="white"/>
<path d="M30.5669 107.545C30.3809 107.021 29.9836 106.421 29.4088 105.982C28.555 105.322 27.7097 105.39 27.2109 106.049C26.7544 106.641 26.8305 107.266 27.4476 108.256C28.2084 109.447 28.4282 110.504 27.7435 111.409C26.9742 112.415 25.5625 112.524 24.3029 111.561C23.652 111.062 23.2801 110.529 23.1279 110.158L23.8803 109.65C23.9817 109.929 24.2776 110.445 24.8609 110.893C25.74 111.569 26.4839 111.299 26.8221 110.859C27.287 110.259 27.1179 109.659 26.4924 108.627C25.7231 107.368 25.5794 106.421 26.3149 105.474C27.0841 104.477 28.4789 104.164 30.0005 105.339C30.6261 105.821 31.1586 106.531 31.3277 107.03L30.5669 107.562V107.545Z" fill="white"/>
<path d="M23.543 100.132C23.8389 100.225 24.4222 100.504 24.997 101.045C26.2819 102.254 26.2904 103.919 25.0646 105.212C23.8304 106.523 22.0214 106.632 20.635 105.322C20.1786 104.891 19.8827 104.392 19.7812 104.08L20.5167 103.657C20.6097 103.927 20.8041 104.308 21.2183 104.705C22.1905 105.627 23.4077 105.398 24.2446 104.519C25.1745 103.539 25.1153 102.33 24.27 101.535C23.8304 101.121 23.4416 100.952 23.1288 100.842L23.543 100.14V100.132Z" fill="white"/>
<path d="M19.967 101.856C19.4513 102.312 19.0202 102.718 18.6398 103.107L18.0227 102.414L18.8511 101.602L18.8258 101.577C18.065 101.906 17.2619 101.746 16.7801 101.213C16.704 101.129 16.6617 101.061 16.6025 100.985L17.3464 100.317C17.3972 100.419 17.4732 100.495 17.5662 100.605C18.065 101.163 18.8342 101.188 19.5274 100.765C19.6542 100.689 19.7979 100.571 19.9247 100.461L22.2494 98.3813L22.9595 99.176L19.9585 101.864L19.967 101.856Z" fill="white"/>
<path d="M14.9881 93.9775C16.721 92.6841 18.3864 93.335 19.2148 94.4593C20.1531 95.7189 19.9587 97.4011 18.4709 98.5085C16.907 99.6666 15.2163 99.32 14.2611 98.0266C13.2552 96.6826 13.5595 95.0341 14.9881 93.9775ZM17.7946 97.6547C18.8259 96.8939 19.1641 95.7273 18.547 94.8989C17.9383 94.0874 16.721 94.0451 15.6644 94.8313C14.8698 95.423 14.1681 96.5642 14.912 97.5702C15.6559 98.5677 16.907 98.3141 17.7946 97.6547Z" fill="white"/>
<path d="M9.50128 95.6847L8.94336 94.7802L16.2386 90.2661L16.7965 91.1706L9.50128 95.6847Z" fill="white"/>
<path d="M7.86136 92.946L7.3457 92.0162L14.8608 87.874L15.3764 88.8039L7.86136 92.946Z" fill="white"/>
<path d="M9.44265 86.0733C9.02844 86.2508 8.62267 86.0987 8.45361 85.7098C8.28454 85.321 8.45361 84.9321 8.86782 84.7546C9.25668 84.5855 9.67089 84.7208 9.84841 85.135C10.009 85.5154 9.83151 85.9127 9.44265 86.0733Z" fill="white"/>
<path d="M10.0592 80.1227C10.2114 79.5816 10.2452 78.8716 10.0339 78.1784C9.72955 77.1471 9.00256 76.7075 8.2164 76.9357C7.49786 77.1471 7.19354 77.6965 7.10901 78.8631C7.02447 80.2748 6.5849 81.2639 5.49441 81.5851C4.27712 81.9486 3.07675 81.2047 2.62026 79.6831C2.38357 78.8969 2.40048 78.246 2.49346 77.8572L3.39797 77.891C3.32189 78.1784 3.25427 78.7701 3.4656 79.4718C3.77838 80.5369 4.53918 80.7567 5.07174 80.596C5.79873 80.3763 6.01852 79.8014 6.11996 78.5926C6.23831 77.1217 6.67788 76.2679 7.82754 75.9298C9.03638 75.5747 10.3467 76.1411 10.8961 77.984C11.1159 78.7363 11.1328 79.6324 10.9722 80.1311L10.0508 80.1142L10.0592 80.1227Z" fill="white"/>
<path d="M8.73184 69.9951C8.90936 70.2403 9.23059 70.8151 9.3743 71.5843C9.69553 73.3173 8.73184 74.6698 6.97354 74.9995C5.20679 75.3292 3.68518 74.3571 3.33014 72.4804C3.21179 71.8633 3.27096 71.2885 3.3724 70.9757L4.20929 71.0687C4.12475 71.3392 4.05713 71.7619 4.15857 72.3282C4.40372 73.647 5.52801 74.1795 6.71149 73.9513C8.03867 73.7061 8.69803 72.6917 8.4867 71.5505C8.3768 70.9588 8.15701 70.5953 7.97104 70.3163L8.72339 69.9951H8.73184Z" fill="white"/>
<path d="M4.83542 69.2768C4.1507 69.3444 3.55896 69.4205 3.0264 69.505L2.93341 68.5836L4.08307 68.4145V68.3807C3.27155 68.1947 2.71363 67.5945 2.63755 66.8845C2.62909 66.7746 2.63755 66.69 2.63755 66.597L3.63504 66.4956C3.61814 66.6055 3.63504 66.7154 3.6435 66.8591C3.71958 67.603 4.32822 68.0764 5.13129 68.144C5.275 68.1525 5.46097 68.144 5.63004 68.1271L8.73243 67.8143L8.84232 68.871L4.83542 69.2768Z" fill="white"/>
<path d="M5.435 60.0206C7.59906 59.9868 8.56275 61.483 8.58811 62.8863C8.61347 64.4586 7.47226 65.7097 5.62097 65.7351C3.6767 65.7689 2.51013 64.4924 2.48477 62.8863C2.45941 61.2041 3.65979 60.0544 5.435 60.0206ZM5.57025 64.6446C6.85517 64.6277 7.8104 63.8838 7.79349 62.844C7.77658 61.8296 6.8129 61.0857 5.49417 61.1026C4.50513 61.1195 3.26248 61.6352 3.28784 62.8947C3.30475 64.1374 4.47977 64.6615 5.57871 64.6446H5.57025Z" fill="white"/>
<path d="M0 58.1349L0.0760804 57.0698L8.63935 57.7123L8.56327 58.7689L0 58.1265V58.1349Z" fill="white"/>
<path d="M0.287109 54.9732L0.422363 53.9165L8.94337 54.9901L8.80811 56.0468L0.287109 54.9732Z" fill="white"/>
<path d="M5.6043 50.3498C5.16473 50.2568 4.92803 49.8933 5.02102 49.4791C5.11401 49.0648 5.48595 48.8535 5.91708 48.9465C6.33129 49.0395 6.58489 49.3945 6.49191 49.8256C6.39892 50.2229 6.01852 50.4427 5.6043 50.3498Z" fill="white"/>
<path d="M9.6028 45.8862C10.0424 45.5396 10.4904 44.9817 10.7271 44.2969C11.0906 43.2825 10.7609 42.5048 9.9832 42.2259C9.27312 41.9723 8.70674 42.2343 7.95439 43.1388C7.05833 44.2293 6.12001 44.7703 5.04643 44.3899C3.84605 43.9673 3.31348 42.657 3.84605 41.1692C4.11656 40.3915 4.50541 39.8758 4.81819 39.6138L5.52827 40.1717C5.29157 40.3577 4.89427 40.7972 4.64912 41.4904C4.27717 42.5386 4.75901 43.1557 5.28312 43.3417C6.00166 43.5953 6.51731 43.2572 7.30348 42.3442C8.26716 41.2199 9.12095 40.7972 10.2453 41.1946C11.4287 41.6172 12.1557 42.8514 11.5133 44.6604C11.2512 45.4043 10.7355 46.1313 10.3213 46.4441L9.58589 45.8862H9.6028Z" fill="white"/>
<path d="M14.4886 36.9084C14.4886 37.2212 14.4126 37.8637 14.0744 38.5738C13.3136 40.163 11.7413 40.6871 10.1267 39.9179C8.50364 39.1401 7.84428 37.4664 8.66426 35.7419C8.93477 35.1755 9.31517 34.7359 9.58568 34.5415L10.2112 35.1079C9.98299 35.2769 9.67866 35.5813 9.43352 36.1054C8.85869 37.3142 9.45042 38.4047 10.5409 38.9204C11.7666 39.5036 12.8909 39.0725 13.3897 38.0243C13.6518 37.4748 13.694 37.0606 13.7025 36.7225L14.4971 36.9L14.4886 36.9084Z" fill="white"/>
<path d="M11.7419 34.0347C11.1501 33.6881 10.626 33.4007 10.1357 33.1556L10.6007 32.3525L11.632 32.8935L11.6489 32.8597C11.0994 32.2342 11.0064 31.4226 11.3615 30.8055C11.4122 30.7126 11.4714 30.6449 11.5305 30.5688L12.4012 31.076C12.3252 31.1606 12.2744 31.2536 12.1984 31.3804C11.818 32.0313 12.0378 32.7667 12.6464 33.2908C12.7563 33.3838 12.9084 33.4853 13.0522 33.5698L15.7488 35.1421L15.2162 36.0635L11.7334 34.0347H11.7419Z" fill="white"/>
<path d="M17.7102 26.8918C19.4685 28.1513 19.3586 29.9265 18.5471 31.0677C17.6341 32.3442 15.9772 32.6739 14.4725 31.6003C12.8918 30.4675 12.7058 28.7515 13.6357 27.4412C14.6078 26.0718 16.2647 25.8605 17.7102 26.8918ZM15.0727 30.6958C16.1125 31.4397 17.3213 31.4059 17.93 30.5605C18.5217 29.7321 18.1836 28.5571 17.11 27.7963C16.3069 27.2214 15.0051 26.9002 14.2697 27.9231C13.5511 28.9375 14.1767 30.0533 15.0727 30.6958Z" fill="white"/>
<path d="M14.3955 22.1914L15.0802 21.3799L21.6231 26.9422L20.9384 27.7537L14.3955 22.1914Z" fill="white"/>
<path d="M16.501 19.7992L17.228 19.0215L23.4835 24.905L22.7565 25.6827L16.501 19.7992Z" fill="white"/>
<path d="M23.5174 19.1905C23.2216 18.8524 23.2385 18.4213 23.5597 18.1423C23.8809 17.8634 24.3036 17.9056 24.5995 18.2438C24.8784 18.565 24.8784 18.9961 24.5403 19.292C24.236 19.5625 23.7964 19.5118 23.5174 19.1905Z" fill="white"/>
<path d="M29.3753 17.9309C29.9332 17.914 30.6264 17.7196 31.2182 17.3054C32.1058 16.6968 32.3002 15.8683 31.8353 15.1921C31.4126 14.575 30.7955 14.4482 29.6627 14.7356C28.2933 15.0906 27.2197 14.9807 26.5773 14.0424C25.8587 12.9942 26.1884 11.6247 27.4987 10.7287C28.1749 10.2637 28.792 10.0693 29.1978 10.0439L29.443 10.9146C29.1471 10.9315 28.5638 11.0499 27.9552 11.4641C27.0422 12.0981 27.0676 12.8843 27.3803 13.3408C27.8114 13.9663 28.4285 14.0001 29.6036 13.7212C31.0406 13.3746 31.9874 13.5352 32.6637 14.5242C33.3738 15.5555 33.2385 16.9842 31.6577 18.0747C31.0068 18.5227 30.1699 18.8101 29.6458 18.8186L29.3753 17.9309Z" fill="white"/>
<path d="M38.5896 13.5349C38.4121 13.7885 37.964 14.2619 37.2793 14.6339C35.7323 15.4792 34.1516 14.9804 33.2978 13.4081C32.4355 11.8273 32.8835 10.0859 34.5573 9.16452C35.1068 8.8602 35.6732 8.7334 36.0028 8.7334L36.1804 9.56183C35.8929 9.56183 35.4787 9.62946 34.9631 9.90842C33.7881 10.5509 33.6274 11.7766 34.2107 12.8417C34.8616 14.0337 36.0197 14.3464 37.0426 13.7885C37.5752 13.5011 37.8541 13.1799 38.057 12.9178L38.598 13.5349H38.5896Z" fill="white"/>
<path d="M38.0567 9.59592C37.7777 8.96192 37.5241 8.42935 37.2705 7.94751L38.1243 7.56711L38.64 8.60687L38.6738 8.58997C38.5977 7.76154 38.995 7.043 39.6459 6.75558C39.7473 6.71332 39.8319 6.68796 39.9249 6.6626L40.3306 7.57556C40.2207 7.60092 40.1193 7.64319 39.9925 7.70236C39.3078 8.00668 39.0457 8.72522 39.2317 9.51984C39.2655 9.66355 39.3331 9.83261 39.4008 9.98477L40.6603 12.8336L39.6882 13.2647L38.0567 9.58747V9.59592Z" fill="white"/>
<path d="M47.0857 7.31337C47.7704 9.36754 46.6377 10.737 45.3105 11.185C43.8227 11.6838 42.2842 10.9737 41.6924 9.22384C41.0753 7.381 41.9376 5.8763 43.4592 5.3691C45.0569 4.83653 46.5193 5.63115 47.0857 7.31337ZM42.7153 8.84343C43.1211 10.0607 44.1186 10.7454 45.1076 10.4158C46.0713 10.0945 46.4855 8.94487 46.0713 7.69377C45.7585 6.75545 44.8878 5.73259 43.6959 6.1299C42.5124 6.52721 42.3687 7.80367 42.7153 8.84343Z" fill="white"/>
<path d="M47.1699 1.56512L48.2012 1.31152L50.2216 9.65501L49.1903 9.90861L47.1699 1.56512Z" fill="white"/>
<path d="M50.2803 0.863373L51.3285 0.668945L52.9262 9.10542L51.878 9.29984L50.2887 0.863373H50.2803Z" fill="white"/>
<path d="M56.3083 4.50686C56.266 4.05883 56.5365 3.72069 56.9592 3.67843C57.3818 3.63616 57.6946 3.92357 57.7369 4.3716C57.7791 4.79427 57.5171 5.14086 57.0691 5.18313C56.6633 5.21694 56.3421 4.92107 56.2998 4.4984L56.3083 4.50686Z" fill="white"/>
</svg>
