<svg width="303" height="59" viewBox="0 0 303 59" fill="none" xmlns="http://www.w3.org/2000/svg">
<path d="M43.6387 28.3965V30.0811C43.6387 32.7829 43.2725 35.208 42.54 37.3564C41.8076 39.5049 40.7741 41.3359 39.4395 42.8496C38.1048 44.347 36.5098 45.4945 34.6543 46.292C32.8151 47.0895 30.7725 47.4883 28.5264 47.4883C26.2965 47.4883 24.2539 47.0895 22.3984 46.292C20.5592 45.4945 18.9642 44.347 17.6133 42.8496C16.2624 41.3359 15.2126 39.5049 14.4639 37.3564C13.7314 35.208 13.3652 32.7829 13.3652 30.0811V28.3965C13.3652 25.6784 13.7314 23.2533 14.4639 21.1211C15.1963 18.9727 16.2298 17.1416 17.5645 15.6279C18.9154 14.1143 20.5104 12.9587 22.3496 12.1611C24.2051 11.3636 26.2477 10.9648 28.4775 10.9648C30.7236 10.9648 32.7663 11.3636 34.6055 12.1611C36.4609 12.9587 38.056 14.1143 39.3906 15.6279C40.7415 17.1416 41.7832 18.9727 42.5156 21.1211C43.2643 23.2533 43.6387 25.6784 43.6387 28.3965ZM36.2412 30.0811V28.3477C36.2412 26.4596 36.0703 24.7995 35.7285 23.3672C35.3867 21.9349 34.8822 20.7305 34.2148 19.7539C33.5475 18.7773 32.7337 18.0449 31.7734 17.5566C30.8132 17.0521 29.7145 16.7998 28.4775 16.7998C27.2406 16.7998 26.1419 17.0521 25.1816 17.5566C24.2376 18.0449 23.432 18.7773 22.7646 19.7539C22.1136 20.7305 21.6172 21.9349 21.2754 23.3672C20.9336 24.7995 20.7627 26.4596 20.7627 28.3477V30.0811C20.7627 31.9528 20.9336 33.613 21.2754 35.0615C21.6172 36.4938 22.1217 37.7064 22.7891 38.6992C23.4564 39.6758 24.2702 40.4163 25.2305 40.9209C26.1908 41.4255 27.2894 41.6777 28.5264 41.6777C29.7633 41.6777 30.862 41.4255 31.8223 40.9209C32.7826 40.4163 33.5882 39.6758 34.2393 38.6992C34.8903 37.7064 35.3867 36.4938 35.7285 35.0615C36.0703 33.613 36.2412 31.9528 36.2412 30.0811ZM78.6973 20.584V26.1016H65.9043V20.584H78.6973ZM67.9307 20.584V47H60.8994V20.584H67.9307ZM83.8242 20.584V47H76.7686V20.584H83.8242ZM96.2754 25.6621V57.1562H89.2441V20.584H95.7627L96.2754 25.6621ZM112.999 33.499V34.0117C112.999 35.9323 112.771 37.7145 112.315 39.3584C111.876 41.0023 111.225 42.4346 110.362 43.6553C109.5 44.8597 108.425 45.8037 107.14 46.4873C105.87 47.1546 104.405 47.4883 102.745 47.4883C101.134 47.4883 99.734 47.1628 98.5459 46.5117C97.3577 45.8607 96.3568 44.9492 95.543 43.7773C94.7454 42.5892 94.1025 41.2139 93.6143 39.6514C93.126 38.0889 92.7516 36.4124 92.4912 34.6221V33.2793C92.7516 31.3587 93.126 29.6009 93.6143 28.0059C94.1025 26.3945 94.7454 25.0029 95.543 23.8311C96.3568 22.6429 97.3496 21.7233 98.5215 21.0723C99.7096 20.4212 101.101 20.0957 102.696 20.0957C104.373 20.0957 105.846 20.4131 107.115 21.0479C108.401 21.6826 109.475 22.5941 110.338 23.7822C111.217 24.9704 111.876 26.3864 112.315 28.0303C112.771 29.6742 112.999 31.4971 112.999 33.499ZM105.943 34.0117V33.499C105.943 32.376 105.846 31.3424 105.65 30.3984C105.471 29.4382 105.178 28.5999 104.771 27.8838C104.381 27.1676 103.86 26.6143 103.209 26.2236C102.574 25.8167 101.801 25.6133 100.89 25.6133C99.9294 25.6133 99.1074 25.7679 98.4238 26.0771C97.7565 26.3864 97.2113 26.834 96.7881 27.4199C96.3649 28.0059 96.0475 28.7057 95.8359 29.5195C95.6243 30.3333 95.4941 31.2529 95.4453 32.2783V35.6719C95.5267 36.8763 95.7546 37.9587 96.1289 38.9189C96.5033 39.863 97.0811 40.6117 97.8623 41.165C98.6436 41.7184 99.6689 41.9951 100.938 41.9951C101.866 41.9951 102.647 41.7917 103.282 41.3848C103.917 40.9616 104.43 40.3838 104.82 39.6514C105.227 38.9189 105.512 38.0726 105.675 37.1123C105.854 36.152 105.943 35.1185 105.943 34.0117ZM116.246 34.0605V33.5479C116.246 31.611 116.523 29.8288 117.076 28.2012C117.63 26.5573 118.435 25.1331 119.493 23.9287C120.551 22.7243 121.853 21.7884 123.399 21.1211C124.946 20.4375 126.72 20.0957 128.722 20.0957C130.724 20.0957 132.506 20.4375 134.068 21.1211C135.631 21.7884 136.941 22.7243 137.999 23.9287C139.073 25.1331 139.887 26.5573 140.44 28.2012C140.994 29.8288 141.271 31.611 141.271 33.5479V34.0605C141.271 35.9811 140.994 37.7633 140.44 39.4072C139.887 41.0348 139.073 42.459 137.999 43.6797C136.941 44.8841 135.639 45.82 134.093 46.4873C132.547 47.1546 130.772 47.4883 128.771 47.4883C126.769 47.4883 124.986 47.1546 123.424 46.4873C121.878 45.82 120.567 44.8841 119.493 43.6797C118.435 42.459 117.63 41.0348 117.076 39.4072C116.523 37.7633 116.246 35.9811 116.246 34.0605ZM123.277 33.5479V34.0605C123.277 35.1673 123.375 36.2008 123.57 37.1611C123.766 38.1214 124.075 38.9678 124.498 39.7002C124.938 40.4163 125.507 40.9779 126.207 41.3848C126.907 41.7917 127.761 41.9951 128.771 41.9951C129.747 41.9951 130.585 41.7917 131.285 41.3848C131.985 40.9779 132.547 40.4163 132.97 39.7002C133.393 38.9678 133.702 38.1214 133.897 37.1611C134.109 36.2008 134.215 35.1673 134.215 34.0605V33.5479C134.215 32.4736 134.109 31.4645 133.897 30.5205C133.702 29.5602 133.385 28.7139 132.945 27.9814C132.522 27.2327 131.961 26.6468 131.261 26.2236C130.561 25.8005 129.715 25.5889 128.722 25.5889C127.729 25.5889 126.882 25.8005 126.183 26.2236C125.499 26.6468 124.938 27.2327 124.498 27.9814C124.075 28.7139 123.766 29.5602 123.57 30.5205C123.375 31.4645 123.277 32.4736 123.277 33.5479ZM161.778 8.96289H167.467C167.467 10.2812 167.304 11.4124 166.979 12.3564C166.653 13.2842 166.132 14.0817 165.416 14.749C164.7 15.4001 163.74 15.9535 162.535 16.4092C161.331 16.8649 159.841 17.2555 158.067 17.5811C156.7 17.8577 155.512 18.3135 154.503 18.9482C153.51 19.583 152.688 20.4538 152.037 21.5605C151.402 22.651 150.947 24.0345 150.67 25.7109C150.393 27.3711 150.296 29.373 150.377 31.7168V32.8887L144.908 33.6455V32.4736C144.924 29.2835 145.209 26.5085 145.763 24.1484C146.332 21.7884 147.138 19.8027 148.18 18.1914C149.221 16.5638 150.475 15.2699 151.939 14.3096C153.404 13.333 155.032 12.6494 156.822 12.2588C158.027 11.9984 158.987 11.7461 159.703 11.502C160.436 11.2415 160.965 10.916 161.29 10.5254C161.616 10.1348 161.778 9.61393 161.778 8.96289ZM158.702 22.0732C160.493 22.0732 162.079 22.3825 163.463 23.001C164.846 23.6032 166.01 24.4577 166.954 25.5645C167.898 26.6712 168.614 27.9733 169.103 29.4707C169.591 30.9681 169.835 32.6038 169.835 34.3779V34.8906C169.835 36.6973 169.558 38.3737 169.005 39.9199C168.468 41.4499 167.67 42.7845 166.612 43.9238C165.554 45.0632 164.252 45.9502 162.706 46.585C161.16 47.2035 159.394 47.5127 157.408 47.5127C155.406 47.5127 153.624 47.179 152.062 46.5117C150.515 45.8281 149.205 44.876 148.131 43.6553C147.073 42.4183 146.267 40.9779 145.714 39.334C145.177 37.6738 144.908 35.8672 144.908 33.9141V33.377C144.908 33.1003 145.03 32.8317 145.274 32.5713C145.535 32.2946 145.836 31.9854 146.178 31.6436C146.536 31.3018 146.853 30.8704 147.13 30.3496C148.106 28.543 149.173 27.0293 150.328 25.8086C151.484 24.5716 152.745 23.6439 154.112 23.0254C155.496 22.3906 157.026 22.0732 158.702 22.0732ZM157.359 27.5664C156.041 27.5664 154.983 27.8838 154.186 28.5186C153.388 29.137 152.81 29.9671 152.452 31.0088C152.11 32.0342 151.939 33.1572 151.939 34.3779V34.8906C151.939 35.8835 152.037 36.8112 152.232 37.6738C152.428 38.5202 152.737 39.277 153.16 39.9443C153.583 40.5954 154.145 41.1081 154.845 41.4824C155.545 41.8405 156.399 42.0195 157.408 42.0195C158.385 42.0195 159.215 41.8405 159.898 41.4824C160.598 41.1081 161.16 40.5954 161.583 39.9443C162.006 39.277 162.315 38.5202 162.511 37.6738C162.706 36.8112 162.804 35.8835 162.804 34.8906V34.3779C162.804 33.4502 162.706 32.5794 162.511 31.7656C162.315 30.9355 162.006 30.2113 161.583 29.5928C161.16 28.958 160.598 28.4616 159.898 28.1035C159.199 27.7454 158.352 27.5664 157.359 27.5664ZM191.881 20.584V26.1016H178.893V20.584H191.881ZM197.032 20.584V47H190.001V20.584H197.032ZM177.135 20.584H184.044L183.336 33.9141C183.238 35.8184 183.035 37.4948 182.726 38.9434C182.416 40.3919 182.001 41.6289 181.48 42.6543C180.976 43.6797 180.366 44.5179 179.649 45.1689C178.95 45.8037 178.128 46.2676 177.184 46.5605C176.256 46.8535 175.23 47 174.107 47H171.959L171.886 41.458L172.789 41.3604C173.31 41.3115 173.766 41.165 174.156 40.9209C174.563 40.6605 174.905 40.2943 175.182 39.8223C175.475 39.334 175.719 38.7236 175.914 37.9912C176.109 37.2425 176.264 36.3636 176.378 35.3545C176.508 34.3454 176.598 33.1816 176.646 31.8633L177.135 20.584ZM214.635 47.4883C212.584 47.4883 210.745 47.1628 209.117 46.5117C207.49 45.8444 206.106 44.9248 204.967 43.7529C203.844 42.5811 202.981 41.222 202.379 39.6758C201.777 38.1133 201.476 36.4531 201.476 34.6953V33.7188C201.476 31.7168 201.76 29.8857 202.33 28.2256C202.9 26.5654 203.714 25.125 204.771 23.9043C205.846 22.6836 207.148 21.7477 208.678 21.0967C210.208 20.4294 211.933 20.0957 213.854 20.0957C215.725 20.0957 217.385 20.4049 218.834 21.0234C220.283 21.6419 221.495 22.5208 222.472 23.6602C223.465 24.7995 224.213 26.1667 224.718 27.7617C225.222 29.3405 225.475 31.0983 225.475 33.0352V35.9648H204.479V31.2773H218.565V30.7402C218.565 29.7637 218.386 28.8929 218.028 28.1279C217.687 27.3467 217.166 26.7282 216.466 26.2725C215.766 25.8167 214.871 25.5889 213.78 25.5889C212.853 25.5889 212.055 25.7923 211.388 26.1992C210.72 26.6061 210.175 27.1758 209.752 27.9082C209.345 28.6406 209.036 29.5033 208.824 30.4961C208.629 31.4727 208.531 32.5469 208.531 33.7188V34.6953C208.531 35.7533 208.678 36.7298 208.971 37.625C209.28 38.5202 209.711 39.2933 210.265 39.9443C210.834 40.5954 211.518 41.0999 212.315 41.458C213.129 41.8161 214.049 41.9951 215.074 41.9951C216.344 41.9951 217.524 41.751 218.614 41.2627C219.721 40.7581 220.673 40.0013 221.471 38.9922L224.889 42.7031C224.335 43.5007 223.578 44.2656 222.618 44.998C221.674 45.7305 220.535 46.3327 219.2 46.8047C217.866 47.2604 216.344 47.4883 214.635 47.4883ZM245.543 38.9189L252.477 20.584H258.214L247.911 47H243.175L232.921 20.584H238.658L245.543 38.9189ZM236.974 20.584V47H229.942V20.584H236.974ZM254.283 47V20.584H261.314V47H254.283ZM279.625 47.4883C277.574 47.4883 275.735 47.1628 274.107 46.5117C272.48 45.8444 271.096 44.9248 269.957 43.7529C268.834 42.5811 267.971 41.222 267.369 39.6758C266.767 38.1133 266.466 36.4531 266.466 34.6953V33.7188C266.466 31.7168 266.751 29.8857 267.32 28.2256C267.89 26.5654 268.704 25.125 269.762 23.9043C270.836 22.6836 272.138 21.7477 273.668 21.0967C275.198 20.4294 276.923 20.0957 278.844 20.0957C280.715 20.0957 282.376 20.4049 283.824 21.0234C285.273 21.6419 286.485 22.5208 287.462 23.6602C288.455 24.7995 289.203 26.1667 289.708 27.7617C290.213 29.3405 290.465 31.0983 290.465 33.0352V35.9648H269.469V31.2773H283.556V30.7402C283.556 29.7637 283.377 28.8929 283.019 28.1279C282.677 27.3467 282.156 26.7282 281.456 26.2725C280.756 25.8167 279.861 25.5889 278.771 25.5889C277.843 25.5889 277.045 25.7923 276.378 26.1992C275.711 26.6061 275.165 27.1758 274.742 27.9082C274.335 28.6406 274.026 29.5033 273.814 30.4961C273.619 31.4727 273.521 32.5469 273.521 33.7188V34.6953C273.521 35.7533 273.668 36.7298 273.961 37.625C274.27 38.5202 274.701 39.2933 275.255 39.9443C275.825 40.5954 276.508 41.0999 277.306 41.458C278.119 41.8161 279.039 41.9951 280.064 41.9951C281.334 41.9951 282.514 41.751 283.604 41.2627C284.711 40.7581 285.663 40.0013 286.461 38.9922L289.879 42.7031C289.326 43.5007 288.569 44.2656 287.608 44.998C286.664 45.7305 285.525 46.3327 284.19 46.8047C282.856 47.2604 281.334 47.4883 279.625 47.4883Z" fill="white"/>
<path d="M39.4395 42.8496L46.9046 49.5033C46.9165 49.49 46.9284 49.4766 46.9402 49.4632L39.4395 42.8496ZM34.6543 46.292L30.7054 37.1047C30.6956 37.1089 30.6857 37.1132 30.6759 37.1174L34.6543 46.292ZM22.3984 46.292L18.4201 55.4666C18.4299 55.4708 18.4397 55.475 18.4495 55.4793L22.3984 46.292ZM17.6133 42.8496L10.1525 49.5082C10.1644 49.5215 10.1764 49.5349 10.1884 49.5482L17.6133 42.8496ZM14.4639 37.3564L4.99877 40.5832C5.00605 40.6045 5.0134 40.6259 5.02083 40.6472L14.4639 37.3564ZM14.4639 21.1211L23.9214 24.3699C23.9239 24.3625 23.9265 24.3552 23.929 24.3478L14.4639 21.1211ZM17.5645 15.6279L10.1037 8.96937C10.0903 8.98433 10.077 8.99934 10.0637 9.01438L17.5645 15.6279ZM22.3496 12.1611L18.4007 2.97386C18.3909 2.97808 18.3811 2.98231 18.3713 2.98656L22.3496 12.1611ZM34.6055 12.1611L30.6271 21.3357C30.6369 21.34 30.6467 21.3442 30.6566 21.3484L34.6055 12.1611ZM39.3906 15.6279L31.8899 22.2415C31.9032 22.2565 31.9165 22.2715 31.9298 22.2865L39.3906 15.6279ZM42.5156 21.1211L33.0505 24.3478C33.0604 24.3767 33.0703 24.4055 33.0804 24.4342L42.5156 21.1211ZM35.7285 23.3672L26.0016 25.6884L35.7285 23.3672ZM31.7734 17.5566L27.1222 26.4091C27.1616 26.4298 27.2012 26.4503 27.241 26.4705L31.7734 17.5566ZM25.1816 17.5566L29.7759 26.4388C29.7949 26.429 29.8139 26.4191 29.8329 26.4091L25.1816 17.5566ZM22.7646 19.7539L14.5082 14.112C14.4867 14.1435 14.4653 14.1751 14.4441 14.2069L22.7646 19.7539ZM21.2754 35.0615L11.5427 37.358C11.5446 37.3662 11.5466 37.3745 11.5485 37.3827L21.2754 35.0615ZM22.7891 38.6992L14.4896 44.2776C14.5038 44.2988 14.5182 44.32 14.5326 44.3411L22.7891 38.6992ZM25.2305 40.9209L20.5792 49.7733L25.2305 40.9209ZM31.8223 40.9209L36.4735 49.7733L31.8223 40.9209ZM34.2393 38.6992L42.5598 44.2462C42.5738 44.2251 42.5878 44.204 42.6017 44.1828L34.2393 38.6992ZM35.7285 35.0615L45.4554 37.3827C45.4574 37.3745 45.4593 37.3662 45.4613 37.358L35.7285 35.0615ZM33.6387 28.3965V30.0811H53.6387V28.3965H33.6387ZM33.6387 30.0811C33.6387 31.8883 33.3931 33.1964 33.0749 34.1297L52.0051 40.5832C53.1518 37.2196 53.6387 33.6774 53.6387 30.0811H33.6387ZM33.0749 34.1297C32.7148 35.1861 32.2995 35.8269 31.9387 36.2361L46.9402 49.4632C49.2487 46.845 50.9004 43.8237 52.0051 40.5832L33.0749 34.1297ZM31.9743 36.1959C31.6193 36.5942 31.2272 36.8804 30.7054 37.1047L38.6032 55.4793C41.7923 54.1085 44.5903 52.0998 46.9046 49.5033L31.9743 36.1959ZM30.6759 37.1174C30.2354 37.3084 29.5688 37.4883 28.5264 37.4883V57.4883C31.9761 57.4883 35.3948 56.8706 38.6326 55.4666L30.6759 37.1174ZM28.5264 37.4883C27.5124 37.4883 26.8312 37.3127 26.3474 37.1047L18.4495 55.4793C21.6766 56.8664 25.0807 57.4883 28.5264 57.4883V37.4883ZM26.3768 37.1174C25.8585 36.8927 25.4366 36.5926 25.0382 36.151L10.1884 49.5482C12.4918 52.1014 15.26 54.0963 18.4201 55.4666L26.3768 37.1174ZM25.0741 36.191C24.6992 35.771 24.2752 35.1227 23.9069 34.0657L5.02083 40.6472C6.14989 43.8871 7.82551 46.9008 10.1525 49.5082L25.0741 36.191ZM23.929 34.1297C23.6108 33.1964 23.3652 31.8883 23.3652 30.0811H3.36523C3.36523 33.6774 3.85208 37.2196 4.99877 40.5832L23.929 34.1297ZM23.3652 30.0811V28.3965H3.36523V30.0811H23.3652ZM23.3652 28.3965C23.3652 26.5636 23.6133 25.2668 23.9214 24.3699L5.00631 17.8723C3.84957 21.2397 3.36523 24.7932 3.36523 28.3965H23.3652ZM23.929 24.3478C24.2891 23.2914 24.7044 22.6506 25.0652 22.2415L10.0637 9.01438C7.75521 11.6326 6.10348 14.6539 4.99877 17.8944L23.929 24.3478ZM25.0253 22.2865C25.4234 21.8404 25.8346 21.5496 26.328 21.3357L18.3713 2.98656C15.1862 4.36769 12.4074 6.38809 10.1037 8.96937L25.0253 22.2865ZM26.2985 21.3484C26.7823 21.1405 27.4635 20.9648 28.4775 20.9648V0.964844C25.0319 0.964844 21.6278 1.58676 18.4007 2.97386L26.2985 21.3484ZM28.4775 20.9648C29.52 20.9648 30.1866 21.1447 30.6271 21.3357L38.5838 2.98656C35.3459 1.58253 31.9272 0.964844 28.4775 0.964844V20.9648ZM30.6566 21.3484C31.1533 21.5619 31.5349 21.8389 31.8899 22.2415L46.8914 9.01438C44.5771 6.38962 41.7686 4.35539 38.5544 2.97386L30.6566 21.3484ZM31.9298 22.2865C32.2897 22.6897 32.6986 23.3154 33.0505 24.3478L51.9807 17.8944C50.8678 14.6299 49.1934 11.5935 46.8514 8.96937L31.9298 22.2865ZM33.0804 24.4342C33.3882 25.3107 33.6387 26.5847 33.6387 28.3965H53.6387C53.6387 24.7721 53.1405 21.1958 51.9508 17.808L33.0804 24.4342ZM46.2412 30.0811V28.3477H26.2412V30.0811H46.2412ZM46.2412 28.3477C46.2412 25.8853 46.0212 23.4169 45.4554 21.046L26.0016 25.6884C26.1194 26.182 26.2412 27.034 26.2412 28.3477H46.2412ZM45.4554 21.046C44.8971 18.7065 43.973 16.3096 42.4713 14.112L25.9584 25.3958C25.8734 25.2714 25.8528 25.2114 25.8704 25.2535C25.8888 25.2975 25.9409 25.4338 26.0016 25.6884L45.4554 21.046ZM42.4713 14.112C40.9518 11.8884 38.9055 9.96463 36.3059 8.64279L27.241 26.4705C26.9276 26.3111 26.6478 26.1152 26.4144 25.9051C26.1843 25.698 26.0381 25.5125 25.9584 25.3958L42.4713 14.112ZM36.4247 8.70421C33.8397 7.34599 31.1056 6.7998 28.4775 6.7998V26.7998C28.3234 26.7998 27.7866 26.7582 27.1222 26.4091L36.4247 8.70421ZM28.4775 6.7998C25.8494 6.7998 23.1154 7.34599 20.5304 8.70421L29.8329 26.4091C29.1685 26.7582 28.6317 26.7998 28.4775 26.7998V6.7998ZM20.5874 8.67446C18.0132 10.006 16.002 11.9259 14.5082 14.112L31.0211 25.3958C30.8619 25.6287 30.4621 26.0839 29.7759 26.4388L20.5874 8.67446ZM14.4441 14.2069C12.9943 16.3817 12.0977 18.7446 11.5485 21.046L31.0023 25.6884C31.0672 25.4161 31.1242 25.2618 31.1495 25.2003C31.1742 25.1404 31.1616 25.1863 31.0852 25.3009L14.4441 14.2069ZM11.5485 21.046C10.9827 23.4169 10.7627 25.8853 10.7627 28.3477H30.7627C30.7627 27.034 30.8845 26.182 31.0023 25.6884L11.5485 21.046ZM10.7627 28.3477V30.0811H30.7627V28.3477H10.7627ZM10.7627 30.0811C10.7627 32.5376 10.9847 34.9933 11.5427 37.358L31.0081 32.765C30.8825 32.2326 30.7627 31.368 30.7627 30.0811H10.7627ZM11.5485 37.3827C12.1058 39.7181 13.0216 42.0936 14.4896 44.2776L31.0886 33.1209C31.2219 33.3191 31.1286 33.2696 31.0023 32.7403L11.5485 37.3827ZM14.5326 44.3411C16.0363 46.5416 18.0451 48.4419 20.5792 49.7733L29.8817 32.0685C30.1645 32.217 30.4179 32.3977 30.6303 32.591C30.8398 32.7816 30.973 32.9512 31.0455 33.0573L14.5326 44.3411ZM20.5792 49.7733C23.1642 51.1316 25.8983 51.6777 28.5264 51.6777V31.6777C28.6805 31.6777 29.2173 31.7194 29.8817 32.0685L20.5792 49.7733ZM28.5264 51.6777C31.1545 51.6777 33.8886 51.1316 36.4735 49.7733L27.171 32.0685C27.8354 31.7194 28.3722 31.6777 28.5264 31.6777V51.6777ZM36.4735 49.7733C39.0338 48.4281 41.0593 46.4969 42.5598 44.2462L25.9188 33.1522C26.0046 33.0234 26.1529 32.833 26.3794 32.6248C26.6087 32.414 26.8774 32.2227 27.171 32.0685L36.4735 49.7733ZM42.6017 44.1828C44.0187 42.0219 44.9072 39.6801 45.4554 37.3827L26.0016 32.7403C25.8663 33.3076 25.7619 33.3909 25.8768 33.2156L42.6017 44.1828ZM45.4613 37.358C46.0192 34.9933 46.2412 32.5376 46.2412 30.0811H26.2412C26.2412 31.368 26.1214 32.2326 25.9958 32.765L45.4613 37.358ZM78.6973 20.584H88.6973C88.6973 15.0611 84.2201 10.584 78.6973 10.584V20.584ZM78.6973 26.1016V36.1016C84.2201 36.1016 88.6973 31.6244 88.6973 26.1016L78.6973 26.1016ZM65.9043 26.1016H55.9043C55.9043 31.6244 60.3814 36.1016 65.9043 36.1016V26.1016ZM65.9043 20.584V10.584C60.3814 10.584 55.9043 15.0611 55.9043 20.584L65.9043 20.584ZM67.9307 20.584H77.9307C77.9307 15.0611 73.4535 10.584 67.9307 10.584V20.584ZM67.9307 47V57C73.4535 57 77.9307 52.5228 77.9307 47H67.9307ZM60.8994 47H50.8994C50.8994 52.5228 55.3766 57 60.8994 57V47ZM60.8994 20.584V10.584C55.3766 10.584 50.8994 15.0611 50.8994 20.584L60.8994 20.584ZM83.8242 20.584H93.8242C93.8242 15.0611 89.3471 10.584 83.8242 10.584V20.584ZM83.8242 47V57C89.3471 57 93.8242 52.5228 93.8242 47H83.8242ZM76.7686 47H66.7686C66.7686 52.5228 71.2457 57 76.7686 57V47ZM76.7686 20.584V10.584C71.2457 10.584 66.7686 15.0611 66.7686 20.584L76.7686 20.584ZM68.6973 20.584V26.1016H88.6973V20.584H68.6973ZM78.6973 16.1016H65.9043V36.1016H78.6973V16.1016ZM75.9043 26.1016V20.584H55.9043V26.1016H75.9043ZM65.9043 30.584H78.6973V10.584H65.9043V30.584ZM57.9307 20.584V47H77.9307V20.584H57.9307ZM67.9307 37H60.8994V57H67.9307V37ZM70.8994 47V20.584H50.8994V47H70.8994ZM60.8994 30.584H67.9307V10.584H60.8994V30.584ZM73.8242 20.584V47H93.8242V20.584H73.8242ZM83.8242 37H76.7686V57H83.8242V37ZM86.7686 47V20.584H66.7686V47H86.7686ZM76.7686 30.584H83.8242V10.584H76.7686V30.584ZM96.2754 25.6621H106.275C106.275 25.3266 106.259 24.9914 106.225 24.6576L96.2754 25.6621ZM96.2754 57.1562V67.1562C101.798 67.1562 106.275 62.6791 106.275 57.1562H96.2754ZM89.2441 57.1562H79.2441C79.2441 62.6791 83.7213 67.1562 89.2441 67.1562V57.1562ZM89.2441 20.584V10.584C83.7213 10.584 79.2441 15.0611 79.2441 20.584L89.2441 20.584ZM95.7627 20.584L105.712 19.5795C105.196 14.4716 100.897 10.584 95.7627 10.584V20.584ZM112.315 39.3584L102.679 36.6869C102.671 36.7165 102.663 36.7461 102.655 36.7758L112.315 39.3584ZM110.362 43.6553L118.492 49.478C118.505 49.4609 118.517 49.4436 118.529 49.4264L110.362 43.6553ZM107.14 46.4873L111.792 55.3389C111.806 55.3317 111.82 55.3244 111.834 55.317L107.14 46.4873ZM95.543 43.7773L87.24 49.3506C87.2694 49.3944 87.2992 49.438 87.3293 49.4813L95.543 43.7773ZM92.4912 34.6221H82.4912C82.4912 35.1038 82.526 35.5848 82.5953 36.0615L92.4912 34.6221ZM92.4912 33.2793L82.5819 31.9357C82.5215 32.381 82.4912 32.8299 82.4912 33.2793H92.4912ZM93.6143 28.0059L103.176 30.933C103.179 30.924 103.182 30.915 103.185 30.9059L93.6143 28.0059ZM95.543 23.8311L87.2927 18.1802C87.287 18.1884 87.2814 18.1966 87.2758 18.2048L95.543 23.8311ZM98.5215 21.0723L93.7161 12.3025C93.6991 12.3119 93.6821 12.3212 93.6651 12.3307L98.5215 21.0723ZM107.115 21.0479L102.643 29.9921C102.658 29.9997 102.673 30.0072 102.689 30.0147L107.115 21.0479ZM110.338 23.7822L102.246 29.6574C102.263 29.6814 102.281 29.7054 102.298 29.7292L110.338 23.7822ZM112.315 28.0303L102.655 30.6129C102.663 30.6425 102.671 30.6722 102.679 30.7018L112.315 28.0303ZM105.65 30.3984L95.8198 32.2313C95.8318 32.2958 95.8445 32.3602 95.8578 32.4245L105.65 30.3984ZM104.771 27.8838L95.9925 32.6723C96.0202 32.7231 96.0484 32.7736 96.0769 32.8239L104.771 27.8838ZM103.209 26.2236L97.8123 34.6424C97.8954 34.6957 97.9794 34.7478 98.064 34.7986L103.209 26.2236ZM98.4238 26.0771L94.3021 16.9661C94.2744 16.9786 94.2468 16.9913 94.2192 17.004L98.4238 26.0771ZM95.4453 32.2783L85.4566 31.8027C85.4491 31.9611 85.4453 32.1197 85.4453 32.2783H95.4453ZM95.4453 35.6719H85.4453C85.4453 35.8968 85.4529 36.1216 85.4681 36.346L95.4453 35.6719ZM96.1289 38.9189L86.8118 42.551C86.8189 42.5691 86.826 42.5872 86.8331 42.6052L96.1289 38.9189ZM97.8623 41.165L92.0821 49.3253L97.8623 41.165ZM103.282 41.3848L108.679 49.8036C108.729 49.7712 108.779 49.7385 108.829 49.7053L103.282 41.3848ZM104.82 39.6514L96.0787 34.7949C96.051 34.8449 96.0237 34.8951 95.9968 34.9455L104.82 39.6514ZM105.675 37.1123L95.8442 35.2795C95.8342 35.3333 95.8246 35.3872 95.8154 35.4412L105.675 37.1123ZM86.2754 25.6621V57.1562H106.275V25.6621H86.2754ZM96.2754 47.1562H89.2441V67.1562H96.2754V47.1562ZM99.2441 57.1562V20.584H79.2441V57.1562H99.2441ZM89.2441 30.584H95.7627V10.584H89.2441V30.584ZM85.8133 21.5885L86.326 26.6666L106.225 24.6576L105.712 19.5795L85.8133 21.5885ZM102.999 33.499V34.0117H122.999V33.499H102.999ZM102.999 34.0117C102.999 35.141 102.865 36.0144 102.679 36.6869L121.952 42.0299C122.677 39.4147 122.999 36.7235 122.999 34.0117H102.999ZM102.655 36.7758C102.479 37.4332 102.288 37.7535 102.196 37.8842L118.529 49.4264C120.162 47.1157 121.273 44.5713 121.976 41.941L102.655 36.7758ZM102.232 37.8325C102.229 37.8376 102.253 37.8036 102.309 37.755C102.364 37.7058 102.416 37.6731 102.445 37.6576L111.834 55.317C114.506 53.8965 116.748 51.9138 118.492 49.478L102.232 37.8325ZM102.487 37.6357C102.656 37.5468 102.794 37.5045 102.868 37.4878C102.936 37.4723 102.905 37.4883 102.745 37.4883V57.4883C105.77 57.4883 108.877 56.8714 111.792 55.3389L102.487 37.6357ZM102.745 37.4883C102.611 37.4883 102.626 37.4747 102.752 37.5041C102.885 37.5351 103.1 37.6041 103.351 37.742L93.7406 55.2815C96.6574 56.8797 99.7719 57.4883 102.745 57.4883V37.4883ZM103.351 37.742C103.451 37.7968 103.551 37.8679 103.637 37.9459C103.721 38.0225 103.758 38.0753 103.757 38.0734L87.3293 49.4813C88.9783 51.8559 91.122 53.8467 93.7406 55.2815L103.351 37.742ZM103.846 38.2041C103.656 37.9206 103.401 37.4419 103.159 36.6686L84.0695 42.6341C84.8044 44.9858 85.8353 47.2578 87.24 49.3506L103.846 38.2041ZM103.159 36.6686C102.844 35.6599 102.579 34.5039 102.387 33.1827L82.5953 36.0615C82.924 38.3209 83.4081 40.5179 84.0695 42.6341L103.159 36.6686ZM102.491 34.6221V33.2793H82.4912V34.6221H102.491ZM102.401 34.6229C102.6 33.155 102.869 31.9355 103.176 30.933L84.0523 25.0787C83.3826 27.2663 82.9037 29.5625 82.5819 31.9357L102.401 34.6229ZM103.185 30.9059C103.433 30.0875 103.678 29.6517 103.81 29.4573L87.2758 18.2048C85.8131 20.3541 84.7726 22.7016 84.044 25.1058L103.185 30.9059ZM103.793 29.4819C103.806 29.463 103.777 29.5093 103.693 29.5867C103.608 29.6661 103.499 29.7466 103.378 29.8138L93.6651 12.3307C91.0383 13.79 88.9163 15.8097 87.2927 18.1802L103.793 29.4819ZM103.327 29.842C103.084 29.9753 102.872 30.0447 102.734 30.077C102.603 30.1077 102.578 30.0957 102.696 30.0957V10.0957C99.7201 10.0957 96.6187 10.7121 93.7161 12.3025L103.327 29.842ZM102.696 30.0957C102.905 30.0957 102.98 30.1154 102.952 30.1094C102.938 30.1063 102.901 30.0974 102.845 30.0781C102.789 30.0588 102.721 30.0308 102.643 29.9921L111.587 12.1036C108.699 10.6595 105.646 10.0957 102.696 10.0957V30.0957ZM102.689 30.0147C102.611 29.9766 102.513 29.9154 102.415 29.8326C102.319 29.7505 102.264 29.682 102.246 29.6574L118.43 17.9071C116.638 15.439 114.318 13.4515 111.542 12.081L102.689 30.0147ZM102.298 29.7292C102.326 29.7669 102.491 30.0008 102.655 30.6129L121.976 25.4477C121.261 22.772 120.107 20.1739 118.377 17.8352L102.298 29.7292ZM102.679 30.7018C102.856 31.3404 102.999 32.2479 102.999 33.499H122.999C122.999 30.7462 122.686 28.0079 121.952 25.3588L102.679 30.7018ZM115.943 34.0117V33.499H95.9434V34.0117H115.943ZM115.943 33.499C115.943 31.8039 115.797 30.0814 115.443 28.3724L95.8578 32.4245C95.8948 32.6035 95.9434 32.9481 95.9434 33.499H115.943ZM115.481 28.5656C115.135 26.7114 114.513 24.7859 113.466 22.9437L96.0769 32.8239C95.844 32.414 95.8074 32.1649 95.8198 32.2313L115.481 28.5656ZM113.55 23.0953C112.373 20.9364 110.645 19.0235 108.354 17.6487L98.064 34.7986C97.0747 34.205 96.3888 33.3988 95.9925 32.6723L113.55 23.0953ZM108.606 17.8048C106.052 16.1677 103.311 15.6133 100.89 15.6133V35.6133C100.291 35.6133 99.0968 35.4658 97.8123 34.6424L108.606 17.8048ZM100.89 15.6133C98.8911 15.6133 96.5896 15.9313 94.3021 16.9661L102.546 35.1882C101.625 35.6045 100.968 35.6133 100.89 35.6133V15.6133ZM94.2192 17.004C92.0255 18.0206 90.1262 19.5643 88.6813 21.565L104.895 33.2748C104.296 34.1036 103.488 34.7521 102.628 35.1503L94.2192 17.004ZM88.6813 21.565C87.4234 23.3067 86.6313 25.1818 86.1577 27.0032L105.514 32.0359C105.464 32.2296 105.306 32.705 104.895 33.2748L88.6813 21.565ZM86.1577 27.0032C85.7395 28.6119 85.5314 30.2332 85.4566 31.8027L105.434 32.754C105.457 32.2727 105.509 32.0548 105.514 32.0359L86.1577 27.0032ZM85.4453 32.2783V35.6719H105.445V32.2783H85.4453ZM85.4681 36.346C85.6065 38.3951 86.0115 40.4981 86.8118 42.551L105.446 35.2869C105.498 35.4193 105.447 35.3575 105.423 34.9977L85.4681 36.346ZM86.8331 42.6052C87.8759 45.2348 89.6227 47.5832 92.0821 49.3253L103.642 33.0048C104.052 33.2947 104.435 33.6577 104.76 34.0789C105.082 34.4964 105.293 34.9003 105.425 35.2327L86.8331 42.6052ZM92.0821 49.3253C95.0264 51.4108 98.2655 51.9951 100.938 51.9951V31.9951C101.072 31.9951 102.261 32.026 103.642 33.0048L92.0821 49.3253ZM100.938 51.9951C103.337 51.9951 106.098 51.458 108.679 49.8036L97.8856 32.966C99.197 32.1253 100.395 31.9951 100.938 31.9951V51.9951ZM108.829 49.7053C110.957 48.287 112.546 46.4152 113.644 44.3572L95.9968 34.9455C96.3131 34.3524 96.8774 33.6362 97.7352 33.0643L108.829 49.7053ZM113.562 44.5078C114.601 42.6382 115.212 40.6831 115.534 38.7834L95.8154 35.4412C95.8119 35.4621 95.8539 35.1997 96.0787 34.7949L113.562 44.5078ZM115.505 38.9451C115.811 37.3069 115.943 35.6538 115.943 34.0117H95.9434C95.9434 34.5832 95.8968 34.9971 95.8442 35.2795L115.505 38.9451ZM117.076 28.2012L126.544 31.4202C126.547 31.4107 126.55 31.4011 126.554 31.3916L117.076 28.2012ZM119.493 23.9287L111.98 17.3293L119.493 23.9287ZM123.399 21.1211L127.362 30.3025C127.389 30.2908 127.416 30.279 127.443 30.2671L123.399 21.1211ZM134.068 21.1211L130.06 30.2827C130.087 30.2944 130.114 30.306 130.141 30.3175L134.068 21.1211ZM137.999 23.9287L130.486 30.5281C130.503 30.5471 130.519 30.566 130.536 30.5849L137.999 23.9287ZM140.44 28.2012L130.963 31.3916C130.966 31.4011 130.969 31.4107 130.973 31.4202L140.44 28.2012ZM140.44 39.4072L149.908 42.6263C149.911 42.6167 149.915 42.6072 149.918 42.5976L140.44 39.4072ZM137.999 43.6797L130.492 37.0734L130.486 37.0803L137.999 43.6797ZM123.424 46.4873L119.461 55.6687C119.473 55.6737 119.485 55.6787 119.496 55.6837L123.424 46.4873ZM119.493 43.6797L111.936 50.229C111.967 50.2648 111.999 50.3004 112.03 50.3358L119.493 43.6797ZM117.076 39.4072L107.599 42.5976C107.602 42.6072 107.605 42.6167 107.608 42.6263L117.076 39.4072ZM124.498 39.7002L115.839 44.703C115.884 44.7794 115.929 44.8552 115.975 44.9304L124.498 39.7002ZM131.285 41.3848L136.311 50.0298L131.285 41.3848ZM132.97 39.7002L141.579 44.7875C141.596 44.7594 141.612 44.7312 141.628 44.703L132.97 39.7002ZM133.897 37.1611L124.132 35.0094C124.12 35.0622 124.109 35.1151 124.098 35.168L133.897 37.1611ZM133.897 30.5205L124.098 32.5136C124.111 32.5784 124.125 32.6431 124.14 32.7076L133.897 30.5205ZM132.945 27.9814L124.24 32.902C124.282 32.9774 124.326 33.0522 124.37 33.1264L132.945 27.9814ZM131.261 26.2236L136.435 17.6663L131.261 26.2236ZM126.183 26.2236L121.008 17.6663C120.979 17.6844 120.949 17.7026 120.919 17.721L126.183 26.2236ZM124.498 27.9814L115.874 22.9194C115.862 22.9391 115.851 22.9589 115.839 22.9787L124.498 27.9814ZM123.57 30.5205L133.363 32.5466C133.365 32.5356 133.367 32.5246 133.37 32.5136L123.57 30.5205ZM126.246 34.0605V33.5479H106.246V34.0605H126.246ZM126.246 33.5479C126.246 32.5689 126.385 31.8889 126.544 31.4202L107.608 24.9821C106.661 27.7686 106.246 30.6531 106.246 33.5479H126.246ZM126.554 31.3916C126.719 30.8991 126.892 30.6584 127.006 30.5281L111.98 17.3293C109.979 19.6079 108.54 22.2155 107.599 25.0108L126.554 31.3916ZM127.006 30.5281C127.037 30.493 127.105 30.4132 127.362 30.3025L119.437 11.9397C116.601 13.1636 114.065 14.9556 111.98 17.3293L127.006 30.5281ZM127.443 30.2671C127.503 30.2406 127.859 30.0957 128.722 30.0957V10.0957C125.58 10.0957 122.388 10.6344 119.356 11.9751L127.443 30.2671ZM128.722 30.0957C129.581 30.0957 129.962 30.2397 130.06 30.2827L138.077 11.9595C135.05 10.6353 131.866 10.0957 128.722 10.0957V30.0957ZM130.141 30.3175C130.413 30.4338 130.473 30.5131 130.486 30.5281L145.512 17.3293C143.409 14.9354 140.849 13.143 137.996 11.9247L130.141 30.3175ZM130.536 30.5849C130.646 30.7083 130.808 30.9303 130.963 31.3916L149.918 25.0108C148.966 22.1843 147.5 19.5579 145.462 17.2726L130.536 30.5849ZM130.973 31.4202C131.132 31.8889 131.271 32.5689 131.271 33.5479H151.271C151.271 30.6531 150.856 27.7686 149.908 24.9821L130.973 31.4202ZM131.271 33.5479V34.0605H151.271V33.5479H131.271ZM131.271 34.0605C131.271 35.0119 131.135 35.7051 130.963 36.2168L149.918 42.5976C150.852 39.8216 151.271 36.9504 151.271 34.0605H131.271ZM130.973 36.1882C130.819 36.641 130.647 36.8975 130.492 37.0734L145.506 50.286C147.5 48.0205 148.955 45.4286 149.908 42.6263L130.973 36.1882ZM130.486 37.0803C130.455 37.1154 130.387 37.1952 130.13 37.3059L138.055 55.6687C140.891 54.4448 143.427 52.6528 145.512 50.2791L130.486 37.0803ZM130.13 37.3059C130.048 37.3412 129.663 37.4883 128.771 37.4883V57.4883C131.882 57.4883 135.045 56.968 138.055 55.6687L130.13 37.3059ZM128.771 37.4883C127.881 37.4883 127.471 37.3421 127.351 37.2909L119.496 55.6837C122.501 56.9671 125.656 57.4883 128.771 57.4883V37.4883ZM127.386 37.3059C127.117 37.1897 127.019 37.094 126.956 37.0235L112.03 50.3358C114.116 52.6742 116.638 54.4502 119.461 55.6687L127.386 37.3059ZM127.05 37.1304C126.892 36.9474 126.708 36.6722 126.544 36.1882L107.608 42.6263C108.551 45.3974 109.979 47.9705 111.936 50.229L127.05 37.1304ZM126.554 36.2168C126.381 35.7051 126.246 35.0119 126.246 34.0605H106.246C106.246 36.9504 106.664 39.8216 107.599 42.5976L126.554 36.2168ZM113.277 33.5479V34.0605H133.277V33.5479H113.277ZM113.277 34.0605C113.277 35.7522 113.426 37.4601 113.771 39.1542L133.37 35.168C133.324 34.9416 133.277 34.5824 133.277 34.0605H113.277ZM113.771 39.1542C114.148 41.0084 114.798 42.9006 115.839 44.703L133.157 34.6974C133.352 35.0349 133.383 35.2344 133.37 35.168L113.771 39.1542ZM115.975 44.9304C117.246 47.0011 118.996 48.7593 121.181 50.0298L131.233 32.7397C132.019 33.1964 132.629 33.8316 133.021 34.47L115.975 44.9304ZM121.181 50.0298C123.741 51.5181 126.426 51.9951 128.771 51.9951V31.9951C129.096 31.9951 130.073 32.0652 131.233 32.7397L121.181 50.0298ZM128.771 51.9951C131.148 51.9951 133.798 51.4909 136.311 50.0298L126.259 32.7397C127.372 32.0924 128.346 31.9951 128.771 31.9951V51.9951ZM136.311 50.0298C138.532 48.7387 140.31 46.9342 141.579 44.7875L124.36 34.6129C124.783 33.8984 125.438 33.217 126.259 32.7397L136.311 50.0298ZM141.628 44.703C142.67 42.9006 143.32 41.0084 143.697 39.1542L124.098 35.168C124.085 35.2344 124.116 35.0349 124.311 34.6974L141.628 44.703ZM143.663 39.3129C144.049 37.5642 144.215 35.8022 144.215 34.0605H124.215C124.215 34.5325 124.17 34.8375 124.132 35.0094L143.663 39.3129ZM144.215 34.0605V33.5479H124.215V34.0605H144.215ZM144.215 33.5479C144.215 31.8176 144.044 30.0691 143.655 28.3334L124.14 32.7076C124.174 32.8599 124.215 33.1297 124.215 33.5479H144.215ZM143.697 28.5274C143.308 26.6159 142.623 24.6742 141.52 22.8365L124.37 33.1264C124.147 32.7535 124.096 32.5045 124.098 32.5136L143.697 28.5274ZM141.651 23.0609C140.428 20.8967 138.681 19.0247 136.435 17.6663L126.087 34.781C125.24 34.269 124.617 33.5688 124.24 32.902L141.651 23.0609ZM136.435 17.6663C133.871 16.1158 131.148 15.5889 128.722 15.5889V35.5889C128.281 35.5889 127.251 35.4851 126.087 34.781L136.435 17.6663ZM128.722 15.5889C126.296 15.5889 123.573 16.1158 121.008 17.6663L131.357 34.781C130.192 35.4851 129.162 35.5889 128.722 35.5889V15.5889ZM120.919 17.721C118.743 19.068 117.07 20.8823 115.874 22.9194L133.122 33.0435C132.805 33.5832 132.255 34.2256 131.446 34.7263L120.919 17.721ZM115.839 22.9787C114.798 24.781 114.148 26.6732 113.771 28.5274L133.37 32.5136C133.383 32.4473 133.352 32.6467 133.157 32.9842L115.839 22.9787ZM113.778 28.4945C113.43 30.1757 113.277 31.8692 113.277 33.5479H133.277C133.277 33.0781 133.32 32.7534 133.363 32.5466L113.778 28.4945ZM161.778 8.96289V-1.03711C156.255 -1.03711 151.778 3.44004 151.778 8.96289H161.778ZM167.467 8.96289H177.467C177.467 3.44004 172.99 -1.03711 167.467 -1.03711V8.96289ZM166.979 12.3564L176.415 15.6673C176.42 15.6503 176.426 15.6334 176.432 15.6164L166.979 12.3564ZM165.416 14.749L172.143 22.1484C172.173 22.1208 172.203 22.0931 172.233 22.0651L165.416 14.749ZM158.067 17.5811L156.263 7.74526C156.203 7.75621 156.143 7.76772 156.084 7.77976L158.067 17.5811ZM154.503 18.9482L149.178 10.4836C149.158 10.4967 149.137 10.5098 149.116 10.523L154.503 18.9482ZM152.037 21.5605L143.418 16.4903C143.41 16.5035 143.402 16.5167 143.395 16.5299L152.037 21.5605ZM150.67 25.7109L160.534 27.3549C160.535 27.3497 160.536 27.3446 160.536 27.3394L150.67 25.7109ZM150.377 31.7168H160.377C160.377 31.6011 160.375 31.4854 160.371 31.3698L150.377 31.7168ZM150.377 32.8887L151.748 42.7943C156.694 42.1098 160.377 37.8818 160.377 32.8887H150.377ZM144.908 33.6455H134.908C134.908 36.5368 136.16 39.2865 138.34 41.1857C140.52 43.0848 143.415 43.9475 146.279 43.5511L144.908 33.6455ZM144.908 32.4736L134.908 32.4226C134.908 32.4396 134.908 32.4566 134.908 32.4736L144.908 32.4736ZM145.763 24.1484L136.042 21.802C136.037 21.8232 136.032 21.8443 136.027 21.8655L145.763 24.1484ZM148.18 18.1914L156.578 23.6204C156.586 23.6076 156.594 23.5948 156.602 23.5819L148.18 18.1914ZM151.939 14.3096L157.422 22.6727C157.444 22.6586 157.465 22.6444 157.486 22.6301L151.939 14.3096ZM156.822 12.2588L154.709 2.48465C154.703 2.48597 154.697 2.4873 154.691 2.48863L156.822 12.2588ZM159.703 11.502L162.93 20.9671C162.971 20.953 163.012 20.9387 163.053 20.9241L159.703 11.502ZM163.463 23.001L159.382 32.1302C159.412 32.1436 159.442 32.1569 159.472 32.17L163.463 23.001ZM166.954 25.5645L159.346 32.0539L166.954 25.5645ZM169.005 39.9199L159.59 36.5503C159.583 36.5693 159.576 36.5884 159.569 36.6075L169.005 39.9199ZM166.612 43.9238L159.284 37.1193L166.612 43.9238ZM162.706 46.585L166.42 55.8697C166.448 55.8585 166.476 55.8472 166.504 55.8358L162.706 46.585ZM152.062 46.5117L148.018 55.6578C148.057 55.6748 148.095 55.6916 148.134 55.7081L152.062 46.5117ZM148.131 43.6553L140.531 50.1549C140.562 50.1907 140.593 50.2262 140.624 50.2616L148.131 43.6553ZM145.714 39.334L136.199 42.4122C136.212 42.4497 136.224 42.4871 136.236 42.5244L145.714 39.334ZM145.274 32.5713L137.992 25.7176C137.988 25.7224 137.983 25.7271 137.979 25.7319L145.274 32.5713ZM146.178 31.6436L139.273 24.41C139.217 24.4635 139.161 24.5177 139.107 24.5725L146.178 31.6436ZM147.13 30.3496L138.333 25.5944C138.321 25.6156 138.31 25.6368 138.299 25.6581L147.13 30.3496ZM150.328 25.8086L157.59 32.6834C157.605 32.6674 157.62 32.6513 157.635 32.6352L150.328 25.8086ZM154.112 23.0254L158.234 32.1365C158.25 32.1291 158.266 32.1218 158.283 32.1144L154.112 23.0254ZM154.186 28.5186L160.314 36.4208C160.347 36.395 160.38 36.369 160.413 36.3428L154.186 28.5186ZM152.452 31.0088L142.995 27.758C142.985 27.7875 142.975 27.817 142.965 27.8465L152.452 31.0088ZM152.232 37.6738L142.479 39.8821C142.482 39.8955 142.485 39.909 142.489 39.9224L152.232 37.6738ZM153.16 39.9443L144.715 45.2998C144.735 45.3314 144.755 45.3628 144.776 45.3942L153.16 39.9443ZM154.845 41.4824L150.128 50.3003C150.182 50.329 150.236 50.3572 150.29 50.3849L154.845 41.4824ZM159.898 41.4824L164.539 50.3407C164.564 50.3274 164.59 50.3139 164.615 50.3003L159.898 41.4824ZM161.583 39.9443L169.967 45.3942C169.988 45.3628 170.008 45.3314 170.028 45.2998L161.583 39.9443ZM162.511 37.6738L172.255 39.9224C172.258 39.909 172.261 39.8955 172.264 39.8821L162.511 37.6738ZM162.511 31.7656L152.777 34.056C152.78 34.0705 152.783 34.0849 152.787 34.0994L162.511 31.7656ZM161.583 29.5928L153.263 35.1398C153.285 35.1732 153.307 35.2065 153.33 35.2396L161.583 29.5928ZM161.778 18.9629H167.467V-1.03711H161.778V18.9629ZM157.467 8.96289C157.467 9.21619 157.451 9.34709 157.447 9.37587C157.443 9.40448 157.455 9.29925 157.525 9.09654L176.432 15.6164C177.214 13.3484 177.467 11.0565 177.467 8.96289H157.467ZM157.543 9.04557C157.75 8.45301 158.125 7.87416 158.599 7.43294L172.233 22.0651C174.139 20.2893 175.556 18.1153 176.415 15.6673L157.543 9.04557ZM158.689 7.34962C158.932 7.12889 159.112 7.01902 159.166 6.98804C159.218 6.95768 159.174 6.98887 158.996 7.05632L166.074 25.762C168.088 25.0001 170.245 23.8741 172.143 22.1484L158.689 7.34962ZM158.996 7.05632C158.527 7.23377 157.66 7.48877 156.263 7.74526L159.872 27.4169C162.022 27.0223 164.134 26.496 166.074 25.762L158.996 7.05632ZM156.084 7.77976C153.729 8.25629 151.369 9.10557 149.178 10.4836L159.827 27.4128C159.655 27.5214 159.671 27.4592 160.051 27.3823L156.084 7.77976ZM149.116 10.523C146.681 12.0803 144.794 14.1504 143.418 16.4903L160.656 26.6307C160.629 26.6776 160.554 26.7937 160.414 26.9416C160.272 27.0921 160.094 27.2426 159.89 27.3735L149.116 10.523ZM143.395 16.5299C141.977 18.9651 141.214 21.5968 140.803 24.0825L160.536 27.3394C160.604 26.9284 160.675 26.6739 160.717 26.5448C160.76 26.416 160.762 26.4501 160.68 26.5912L143.395 16.5299ZM140.806 24.0669C140.386 26.5847 140.287 29.2925 140.383 32.0638L160.371 31.3698C160.304 29.4536 160.4 28.1575 160.534 27.3549L140.806 24.0669ZM140.377 31.7168V32.8887H160.377V31.7168H140.377ZM149.006 22.9831L143.537 23.7399L146.279 43.5511L151.748 42.7943L149.006 22.9831ZM154.908 33.6455V32.4736H134.908V33.6455H154.908ZM154.908 32.5247C154.922 29.8649 155.161 27.8719 155.499 26.4313L136.027 21.8655C135.258 25.1451 134.927 28.7022 134.908 32.4226L154.908 32.5247ZM155.484 26.4948C155.856 24.9522 156.285 24.073 156.578 23.6204L139.782 12.7624C137.991 15.5325 136.809 18.6246 136.042 21.802L155.484 26.4948ZM156.602 23.5819C156.963 23.0178 157.252 22.7839 157.422 22.6727L146.457 5.94643C143.697 7.75586 141.479 10.1098 139.757 12.8009L156.602 23.5819ZM157.486 22.6301C157.871 22.3737 158.332 22.1647 158.954 22.0289L154.691 2.48863C151.732 3.13415 148.938 4.2923 146.392 5.98907L157.486 22.6301ZM158.936 22.0329C160.315 21.7348 161.695 21.3881 162.93 20.9671L156.476 2.03685C156.279 2.1041 155.739 2.26197 154.709 2.48465L158.936 22.0329ZM163.053 20.9241C164.652 20.3556 167.046 19.2382 168.972 16.9272L153.608 4.12355C154.273 3.32544 154.947 2.82986 155.408 2.54592C155.867 2.26328 156.216 2.12852 156.353 2.07981L163.053 20.9241ZM168.972 16.9272C171.174 14.2848 171.778 11.284 171.778 8.96289H151.778C151.778 7.94391 152.057 5.98474 153.608 4.12355L168.972 16.9272ZM158.702 32.0732C159.338 32.0732 159.494 32.1804 159.382 32.1302L167.544 13.8717C164.665 12.5846 161.647 12.0732 158.702 12.0732V32.0732ZM159.472 32.17C159.512 32.1877 159.499 32.1861 159.455 32.154C159.435 32.1392 159.413 32.1218 159.393 32.1026C159.372 32.0834 159.356 32.0664 159.346 32.0539L174.562 19.075C172.595 16.7682 170.178 15.0176 167.454 13.832L159.472 32.17ZM159.346 32.0539C159.373 32.0862 159.479 32.2129 159.595 32.5709L178.61 26.3705C177.75 23.7337 176.423 21.2562 174.562 19.075L159.346 32.0539ZM159.595 32.5709C159.719 32.9496 159.835 33.5254 159.835 34.3779H179.835C179.835 31.6823 179.463 28.9866 178.61 26.3705L159.595 32.5709ZM159.835 34.3779V34.8906H179.835V34.3779H159.835ZM159.835 34.8906C159.835 35.6634 159.719 36.1882 159.59 36.5503L178.42 43.2896C179.397 40.5592 179.835 37.7311 179.835 34.8906H159.835ZM159.569 36.6075C159.468 36.8978 159.367 37.0301 159.284 37.1193L173.94 50.7283C175.973 48.5389 177.468 46.0019 178.44 43.2324L159.569 36.6075ZM159.284 37.1193C159.272 37.133 159.253 37.1515 159.212 37.1791C159.17 37.2081 159.077 37.265 158.908 37.3342L166.504 55.8358C169.288 54.6929 171.824 53.0073 173.94 50.7283L159.284 37.1193ZM158.992 37.3002C158.831 37.3647 158.361 37.5127 157.408 37.5127V57.5127C160.427 57.5127 163.489 57.0422 166.42 55.8697L158.992 37.3002ZM157.408 37.5127C156.519 37.5127 156.109 37.3666 155.989 37.3153L148.134 55.7081C151.139 56.9915 154.293 57.5127 157.408 57.5127V37.5127ZM156.105 37.3657C155.83 37.244 155.717 37.1388 155.638 37.049L140.624 50.2616C142.693 52.6131 145.201 54.4123 148.018 55.6578L156.105 37.3657ZM155.73 37.1556C155.558 36.9539 155.363 36.6549 155.191 36.1436L136.236 42.5244C137.171 45.3009 138.588 47.8827 140.531 50.1549L155.73 37.1556ZM155.228 36.2558C155.049 35.7009 154.908 34.9453 154.908 33.9141H134.908C134.908 36.7891 135.305 39.6468 136.199 42.4122L155.228 36.2558ZM154.908 33.9141V33.377H134.908V33.9141H154.908ZM154.908 33.377C154.908 36.3128 153.542 38.3741 152.57 39.4107L137.979 25.7319C136.519 27.2893 134.908 29.8877 134.908 33.377H154.908ZM152.556 39.4249C152.732 39.2383 152.96 39.0031 153.249 38.7146L139.107 24.5725C138.712 24.9676 138.338 25.3509 137.992 25.7176L152.556 39.4249ZM153.082 38.8771C154.346 37.6707 155.276 36.3313 155.961 35.0412L138.299 25.6581C138.431 25.4096 138.725 24.9328 139.273 24.41L153.082 38.8771ZM155.927 35.1048C156.575 33.9052 157.153 33.1456 157.59 32.6834L143.066 18.9338C141.192 20.913 139.638 23.1807 138.333 25.5944L155.927 35.1048ZM157.635 32.6352C158.005 32.2393 158.214 32.1457 158.234 32.1365L149.991 13.9143C147.277 15.142 144.962 16.9039 143.021 18.982L157.635 32.6352ZM158.283 32.1144C158.272 32.1192 158.281 32.1126 158.329 32.1028C158.379 32.0924 158.497 32.0732 158.702 32.0732V12.0732C155.734 12.0732 152.761 12.6429 149.942 13.9364L158.283 32.1144ZM157.359 17.5664C154.45 17.5664 150.987 18.2832 147.958 20.6943L160.413 36.3428C158.979 37.4844 157.632 37.5664 157.359 37.5664V17.5664ZM148.057 20.6164C145.581 22.5369 143.926 25.0502 142.995 27.758L161.909 34.2596C161.814 34.536 161.646 34.9097 161.361 35.318C161.073 35.7319 160.717 36.1084 160.314 36.4208L148.057 20.6164ZM142.965 27.8465C142.243 30.0141 141.939 32.2196 141.939 34.3779H161.939C161.939 34.2342 161.95 34.1529 161.954 34.1245C161.958 34.0975 161.957 34.1168 161.939 34.1711L142.965 27.8465ZM141.939 34.3779V34.8906H161.939V34.3779H141.939ZM141.939 34.8906C141.939 36.5374 142.101 38.2128 142.479 39.8821L161.986 35.4656C161.973 35.4096 161.939 35.2296 161.939 34.8906H141.939ZM142.489 39.9224C142.913 41.7614 143.629 43.5876 144.715 45.2998L161.605 34.5889C161.845 34.9664 161.943 35.2789 161.976 35.4252L142.489 39.9224ZM144.776 45.3942C146.139 47.4916 147.976 49.1489 150.128 50.3003L159.561 32.6646C160.314 33.0672 161.028 33.6992 161.545 34.4945L144.776 45.3942ZM150.29 50.3849C152.742 51.6396 155.251 52.0195 157.408 52.0195V32.0195C157.547 32.0195 158.347 32.0414 159.399 32.5799L150.29 50.3849ZM157.408 52.0195C159.582 52.0195 162.093 51.6216 164.539 50.3407L155.258 32.6241C156.336 32.0594 157.187 32.0195 157.408 32.0195V52.0195ZM164.615 50.3003C166.768 49.1489 168.604 47.4916 169.967 45.3942L153.199 34.4945C153.716 33.6992 154.429 33.0672 155.182 32.6646L164.615 50.3003ZM170.028 45.2998C171.114 43.5876 171.83 41.7614 172.255 39.9224L152.767 35.4252C152.801 35.2789 152.899 34.9664 153.138 34.5889L170.028 45.2998ZM172.264 39.8821C172.642 38.2128 172.804 36.5374 172.804 34.8906H152.804C152.804 35.2296 152.77 35.4096 152.758 35.4656L172.264 39.8821ZM172.804 34.8906V34.3779H152.804V34.8906H172.804ZM172.804 34.3779C172.804 32.748 172.632 31.0875 172.235 29.4319L152.787 34.0994C152.78 34.0713 152.804 34.1524 152.804 34.3779H172.804ZM172.245 29.4752C171.806 27.6086 171.045 25.7127 169.836 23.9459L153.33 35.2396C152.967 34.7098 152.825 34.2625 152.777 34.056L172.245 29.4752ZM169.904 24.0458C168.503 21.9446 166.626 20.3127 164.453 19.201L155.344 37.006C154.571 36.6105 153.817 35.9714 153.263 35.1398L169.904 24.0458ZM164.453 19.201C162.022 17.9569 159.53 17.5664 157.359 17.5664V37.5664C157.175 37.5664 156.376 37.5339 155.344 37.006L164.453 19.201ZM191.881 20.584H201.881C201.881 15.0611 197.404 10.584 191.881 10.584V20.584ZM191.881 26.1016V36.1016C197.404 36.1016 201.881 31.6244 201.881 26.1016L191.881 26.1016ZM178.893 26.1016H168.893C168.893 31.6244 173.37 36.1016 178.893 36.1016V26.1016ZM178.893 20.584V10.584C173.37 10.584 168.893 15.0611 168.893 20.584L178.893 20.584ZM197.032 20.584H207.032C207.032 15.0611 202.555 10.584 197.032 10.584V20.584ZM197.032 47V57C202.555 57 207.032 52.5228 207.032 47H197.032ZM190.001 47H180.001C180.001 52.5228 184.478 57 190.001 57V47ZM190.001 20.584V10.584C184.478 10.584 180.001 15.0611 180.001 20.584L190.001 20.584ZM177.135 20.584V10.584C171.78 10.584 167.376 14.8019 167.144 20.1515L177.135 20.584ZM184.044 20.584L194.03 21.1144C194.175 18.374 193.188 15.6942 191.3 13.703C189.412 11.7117 186.788 10.584 184.044 10.584V20.584ZM183.336 33.9141L173.35 33.3837C173.35 33.3898 173.349 33.3958 173.349 33.4019L183.336 33.9141ZM182.726 38.9434L172.946 36.8556L182.726 38.9434ZM181.48 42.6543L172.565 38.1256C172.546 38.1634 172.527 38.2012 172.508 38.2392L181.48 42.6543ZM179.649 45.1689L186.368 52.5761L186.376 52.5683L179.649 45.1689ZM177.184 46.5605L174.22 37.0099C174.204 37.0148 174.188 37.0197 174.172 37.0247L177.184 46.5605ZM171.959 47L161.96 47.1321C162.032 52.603 166.488 57 171.959 57V47ZM171.886 41.458L170.811 31.5159C165.683 32.0703 161.818 36.4332 161.887 41.5902L171.886 41.458ZM172.789 41.3604L171.856 31.404C171.808 31.4084 171.761 31.4132 171.714 31.4183L172.789 41.3604ZM174.156 40.9209L179.456 49.4009C179.487 49.382 179.517 49.3629 179.547 49.3436L174.156 40.9209ZM175.182 39.8223L166.607 34.6773C166.589 34.7065 166.572 34.7357 166.555 34.7651L175.182 39.8223ZM175.914 37.9912L185.576 40.5678C185.581 40.5504 185.586 40.5329 185.59 40.5154L175.914 37.9912ZM176.378 35.3545L166.46 34.0748C166.453 34.1273 166.447 34.1799 166.441 34.2326L176.378 35.3545ZM176.646 31.8633L166.656 31.4308C166.655 31.4516 166.654 31.4724 166.653 31.4932L176.646 31.8633ZM181.881 20.584V26.1016H201.881V20.584H181.881ZM191.881 16.1016H178.893V36.1016H191.881V16.1016ZM188.893 26.1016V20.584H168.893V26.1016H188.893ZM178.893 30.584H191.881V10.584H178.893V30.584ZM187.032 20.584V47H207.032V20.584H187.032ZM197.032 37H190.001V57H197.032V37ZM200.001 47V20.584H180.001V47H200.001ZM190.001 30.584H197.032V10.584H190.001V30.584ZM177.135 30.584H184.044V10.584H177.135V30.584ZM174.058 20.0536L173.35 33.3837L193.322 34.4445L194.03 21.1144L174.058 20.0536ZM173.349 33.4019C173.271 34.9185 173.118 36.0486 172.946 36.8556L192.505 41.0311C192.951 38.9409 193.205 36.7182 193.323 34.4262L173.349 33.4019ZM172.946 36.8556C172.769 37.6861 172.599 38.0576 172.565 38.1256L190.396 47.183C191.403 45.2003 192.064 43.0977 192.505 41.0311L172.946 36.8556ZM172.508 38.2392C172.46 38.3374 172.558 38.1013 172.923 37.7695L186.376 52.5683C188.173 50.9345 189.492 49.0219 190.453 47.0694L172.508 38.2392ZM172.931 37.7618C173.361 37.3716 173.837 37.1287 174.22 37.0099L180.148 56.1112C182.418 55.4064 184.538 54.2358 186.368 52.5761L172.931 37.7618ZM174.172 37.0247C174.262 36.9963 174.31 36.9898 174.305 36.9906C174.298 36.9916 174.235 37 174.107 37V57C176.098 57 178.156 56.7402 180.195 56.0964L174.172 37.0247ZM174.107 37H171.959V57H174.107V37ZM181.958 46.8679L181.885 41.3259L161.887 41.5902L161.96 47.1321L181.958 46.8679ZM172.961 51.4001L173.864 51.3024L171.714 31.4183L170.811 31.5159L172.961 51.4001ZM173.722 51.3167C175.582 51.1423 177.576 50.5762 179.456 49.4009L168.856 32.4409C169.956 31.7539 171.038 31.4807 171.856 31.404L173.722 51.3167ZM179.547 49.3436C181.45 48.1256 182.84 46.531 183.809 44.8795L166.555 34.7651C166.969 34.0575 167.676 33.1954 168.766 32.4982L179.547 49.3436ZM183.757 44.9672C184.659 43.4633 185.215 41.9242 185.576 40.5678L166.252 35.4146C166.242 35.4515 166.253 35.4015 166.3 35.2844C166.346 35.1683 166.441 34.954 166.607 34.6773L183.757 44.9672ZM185.59 40.5154C185.936 39.1896 186.163 37.8216 186.315 36.4764L166.441 34.2326C166.365 34.9056 166.283 35.2954 166.238 35.467L185.59 40.5154ZM186.296 36.6342C186.474 35.2501 186.583 33.7722 186.64 32.2334L166.653 31.4932C166.613 32.5911 166.542 33.4406 166.46 34.0748L186.296 36.6342ZM186.637 32.2958L187.125 21.0165L167.144 20.1515L166.656 31.4308L186.637 32.2958ZM209.117 46.5117L205.324 55.7642C205.35 55.7751 205.377 55.7859 205.403 55.7965L209.117 46.5117ZM204.967 43.7529L197.747 50.672C197.763 50.6893 197.78 50.7065 197.797 50.7237L204.967 43.7529ZM202.379 39.6758L193.048 43.2721C193.052 43.2831 193.056 43.294 193.061 43.305L202.379 39.6758ZM202.33 28.2256L192.871 24.98L202.33 28.2256ZM204.771 23.9043L197.264 17.298C197.248 17.3169 197.231 17.3359 197.215 17.355L204.771 23.9043ZM208.678 21.0967L212.593 30.2982C212.621 30.2865 212.648 30.2747 212.676 30.2627L208.678 21.0967ZM222.472 23.6602L214.879 30.1681C214.897 30.1888 214.915 30.2094 214.933 30.2299L222.472 23.6602ZM224.718 27.7617L215.183 30.7777C215.186 30.7871 215.189 30.7965 215.192 30.8059L224.718 27.7617ZM225.475 35.9648V45.9648C230.997 45.9648 235.475 41.4877 235.475 35.9648H225.475ZM204.479 35.9648H194.479C194.479 41.4877 198.956 45.9648 204.479 45.9648V35.9648ZM204.479 31.2773V21.2773C198.956 21.2773 194.479 25.7545 194.479 31.2773H204.479ZM218.565 31.2773V41.2773C224.088 41.2773 228.565 36.8002 228.565 31.2773H218.565ZM218.028 28.1279L208.867 32.1361C208.901 32.2136 208.936 32.2907 208.971 32.3673L218.028 28.1279ZM209.752 27.9082L201.093 22.9054C201.065 22.954 201.038 23.0028 201.01 23.0518L209.752 27.9082ZM208.824 30.4961L199.044 28.4118C199.035 28.4528 199.027 28.4938 199.018 28.5349L208.824 30.4961ZM208.971 37.625L199.467 40.7354C199.484 40.7871 199.501 40.8387 199.519 40.8902L208.971 37.625ZM210.265 39.9443L202.645 46.4208C202.676 46.4572 202.707 46.4934 202.739 46.5294L210.265 39.9443ZM212.315 41.458L208.22 50.5807C208.242 50.5909 208.265 50.6011 208.288 50.6112L212.315 41.458ZM218.614 41.2627L222.701 50.3895C222.721 50.3804 222.742 50.3711 222.762 50.3618L218.614 41.2627ZM221.471 38.9922L228.826 32.2174C226.844 30.0649 224.018 28.8888 221.093 28.9993C218.169 29.1098 215.44 30.4957 213.625 32.7916L221.471 38.9922ZM224.889 42.7031L233.105 48.4039C235.774 44.5569 235.416 39.3726 232.244 35.9284L224.889 42.7031ZM222.618 44.998L216.554 37.0468C216.532 37.0635 216.51 37.0803 216.488 37.0972L222.618 44.998ZM219.2 46.8047L222.432 56.2682C222.466 56.2565 222.5 56.2446 222.534 56.2325L219.2 46.8047ZM214.635 37.4883C213.643 37.4883 213.095 37.3325 212.831 37.227L205.403 55.7965C208.395 56.9931 211.525 57.4883 214.635 57.4883V37.4883ZM212.911 37.2592C212.455 37.0724 212.248 36.8965 212.137 36.7821L197.797 50.7237C199.964 52.9531 202.524 54.6164 205.324 55.7642L212.911 37.2592ZM212.187 36.8339C211.993 36.6316 211.834 36.397 211.697 36.0466L193.061 43.305C194.129 46.047 195.695 48.5305 197.747 50.672L212.187 36.8339ZM211.71 36.0795C211.572 35.7208 211.476 35.2854 211.476 34.6953H191.476C191.476 37.6209 191.982 40.5057 193.048 43.2721L211.71 36.0795ZM211.476 34.6953V33.7188H191.476V34.6953H211.476ZM211.476 33.7188C211.476 32.6682 211.624 31.9513 211.789 31.4712L192.871 24.98C191.897 27.8202 191.476 30.7654 191.476 33.7188H211.476ZM211.789 31.4712C211.978 30.9184 212.18 30.6243 212.328 30.4536L197.215 17.355C195.247 19.6257 193.821 22.2124 192.871 24.98L211.789 31.4712ZM212.279 30.5106C212.342 30.4385 212.408 30.3773 212.593 30.2982L204.762 11.8951C201.888 13.1182 199.349 14.9287 197.264 17.298L212.279 30.5106ZM212.676 30.2627C212.769 30.2222 213.103 30.0957 213.854 30.0957V10.0957C210.763 10.0957 207.647 10.6365 204.68 11.9306L212.676 30.2627ZM213.854 30.0957C214.24 30.0957 214.506 30.1277 214.671 30.1585C214.833 30.1887 214.903 30.2182 214.907 30.2202L222.761 11.8267C219.86 10.5882 216.825 10.0957 213.854 10.0957V30.0957ZM214.907 30.2202C214.946 30.2366 214.966 30.2477 214.972 30.2512C214.978 30.2545 214.973 30.2522 214.961 30.2432C214.949 30.2342 214.933 30.2218 214.917 30.2067C214.9 30.1916 214.888 30.178 214.879 30.1681L230.064 17.1522C228.039 14.789 225.549 13.0173 222.761 11.8267L214.907 30.2202ZM214.933 30.2299C214.941 30.24 214.967 30.2712 215.007 30.3432C215.048 30.4174 215.113 30.5544 215.183 30.7777L234.252 24.7457C233.378 21.9824 231.998 19.3706 230.011 17.0904L214.933 30.2299ZM215.192 30.8059C215.335 31.2508 215.475 31.9616 215.475 33.0352H235.475C235.475 30.235 235.11 27.4301 234.243 24.7175L215.192 30.8059ZM215.475 33.0352V35.9648H235.475V33.0352H215.475ZM225.475 25.9648H204.479V45.9648H225.475V25.9648ZM214.479 35.9648V31.2773H194.479V35.9648H214.479ZM204.479 41.2773H218.565V21.2773H204.479V41.2773ZM228.565 31.2773V30.7402H208.565V31.2773H228.565ZM228.565 30.7402C228.565 28.5266 228.154 26.1726 227.085 23.8885L208.971 32.3673C208.618 31.6132 208.565 31.0008 208.565 30.7402H228.565ZM227.19 24.1197C226.084 21.5909 224.294 19.4364 221.923 17.8925L211.009 34.6524C210.038 34.02 209.29 33.1024 208.867 32.1361L227.19 24.1197ZM221.923 17.8925C219.171 16.1008 216.225 15.5889 213.78 15.5889V35.5889C213.517 35.5889 212.361 35.5327 211.009 34.6524L221.923 17.8925ZM213.78 15.5889C211.362 15.5889 208.689 16.1325 206.182 17.6613L216.594 34.7372C215.421 35.4521 214.343 35.5889 213.78 35.5889V15.5889ZM206.182 17.6613C203.97 19.0099 202.283 20.8467 201.093 22.9054L218.411 32.911C218.067 33.5048 217.471 34.2023 216.594 34.7372L206.182 17.6613ZM201.01 23.0518C200.032 24.8122 199.42 26.6463 199.044 28.4118L218.605 32.5804C218.627 32.4758 218.64 32.4469 218.628 32.4791C218.616 32.5121 218.577 32.6142 218.494 32.7646L201.01 23.0518ZM199.018 28.5349C198.674 30.2585 198.531 32.0004 198.531 33.7188H218.531C218.531 33.0933 218.584 32.6868 218.63 32.4573L199.018 28.5349ZM198.531 33.7188V34.6953H218.531V33.7188H198.531ZM198.531 34.6953C198.531 36.6812 198.807 38.7208 199.467 40.7354L218.475 34.5146C218.51 34.6225 218.525 34.7005 218.53 34.7378C218.536 34.7739 218.531 34.7627 218.531 34.6953H198.531ZM199.519 40.8902C200.19 42.8332 201.204 44.7251 202.645 46.4208L217.884 33.4679C218.219 33.8614 218.37 34.2072 218.423 34.3598L199.519 40.8902ZM202.739 46.5294C204.266 48.2749 206.124 49.6398 208.22 50.5807L216.411 32.3353C216.912 32.5601 217.402 32.9158 217.79 33.3593L202.739 46.5294ZM208.288 50.6112C210.551 51.6069 212.873 51.9951 215.074 51.9951V31.9951C215.224 31.9951 215.707 32.0253 216.343 32.3049L208.288 50.6112ZM215.074 51.9951C217.663 51.9951 220.246 51.489 222.701 50.3895L214.528 32.1358C214.649 32.0816 214.772 32.0428 214.885 32.0194C214.996 31.9964 215.065 31.9951 215.074 31.9951V51.9951ZM222.762 50.3618C225.397 49.1605 227.592 47.3743 229.316 45.1927L213.625 32.7916C213.676 32.7276 213.777 32.615 213.936 32.4884C214.097 32.3604 214.279 32.2489 214.466 32.1636L222.762 50.3618ZM214.115 45.7669L217.533 49.4779L232.244 35.9284L228.826 32.2174L214.115 45.7669ZM216.673 37.0023C216.759 36.8778 216.812 36.8269 216.797 36.8418C216.782 36.8574 216.709 36.9285 216.554 37.0468L228.683 52.9493C230.279 51.7316 231.831 50.2391 233.105 48.4039L216.673 37.0023ZM216.488 37.0972C216.528 37.0663 216.374 37.1972 215.866 37.3769L222.534 56.2325C224.695 55.4682 226.82 54.3946 228.748 52.8989L216.488 37.0972ZM215.969 37.3412C215.868 37.3756 215.47 37.4883 214.635 37.4883V57.4883C217.218 57.4883 219.863 57.1453 222.432 56.2682L215.969 37.3412ZM245.543 38.9189L236.181 42.4343C237.644 46.3312 241.369 48.9141 245.531 48.9189C249.694 48.9238 253.424 46.3496 254.896 42.4561L245.543 38.9189ZM252.477 20.584V10.584C248.318 10.584 244.594 13.1573 243.123 17.0468L252.477 20.584ZM258.214 20.584L267.53 24.2176C268.731 21.1404 268.334 17.6691 266.47 14.942C264.607 12.2149 261.517 10.584 258.214 10.584V20.584ZM247.911 47V57C252.032 57 255.73 54.4725 257.228 50.6336L247.911 47ZM243.175 47L233.852 50.6186C235.346 54.4654 239.048 57 243.175 57V47ZM232.921 20.584V10.584C229.621 10.584 226.533 12.2122 224.669 14.9354C222.805 17.6586 222.404 21.1262 223.599 24.2026L232.921 20.584ZM238.658 20.584L248.02 17.0687C246.555 13.1678 242.825 10.584 238.658 10.584V20.584ZM236.974 20.584H246.974C246.974 15.0611 242.496 10.584 236.974 10.584V20.584ZM236.974 47V57C242.496 57 246.974 52.5228 246.974 47H236.974ZM229.942 47H219.942C219.942 52.5228 224.42 57 229.942 57V47ZM229.942 20.584V10.584C224.42 10.584 219.942 15.0611 219.942 20.584L229.942 20.584ZM254.283 47H244.283C244.283 52.5228 248.76 57 254.283 57V47ZM254.283 20.584V10.584C248.76 10.584 244.283 15.0611 244.283 20.584L254.283 20.584ZM261.314 20.584H271.314C271.314 15.0611 266.837 10.584 261.314 10.584V20.584ZM261.314 47V57C266.837 57 271.314 52.5228 271.314 47H261.314ZM254.896 42.4561L261.83 24.1211L243.123 17.0468L236.189 35.3818L254.896 42.4561ZM252.477 30.584H258.214V10.584H252.477V30.584ZM248.897 16.9504L238.595 43.3664L257.228 50.6336L267.53 24.2176L248.897 16.9504ZM247.911 37H243.175V57H247.911V37ZM252.497 43.3814L242.243 16.9653L223.599 24.2026L233.852 50.6186L252.497 43.3814ZM232.921 30.584H238.658V10.584H232.921V30.584ZM229.296 24.0993L236.181 42.4343L254.905 35.4036L248.02 17.0687L229.296 24.0993ZM226.974 20.584V47H246.974V20.584H226.974ZM236.974 37H229.942V57H236.974V37ZM239.942 47V20.584H219.942V47H239.942ZM229.942 30.584H236.974V10.584H229.942V30.584ZM264.283 47V20.584H244.283V47H264.283ZM254.283 30.584H261.314V10.584H254.283V30.584ZM251.314 20.584V47H271.314V20.584H251.314ZM261.314 37H254.283V57H261.314V37ZM274.107 46.5117L270.314 55.7642C270.34 55.7751 270.367 55.7859 270.394 55.7965L274.107 46.5117ZM269.957 43.7529L262.737 50.672C262.754 50.6893 262.77 50.7065 262.787 50.7237L269.957 43.7529ZM267.369 39.6758L258.038 43.2721C258.042 43.2831 258.047 43.294 258.051 43.305L267.369 39.6758ZM267.32 28.2256L257.862 24.98L267.32 28.2256ZM269.762 23.9043L262.255 17.298C262.238 17.3169 262.221 17.3359 262.205 17.355L269.762 23.9043ZM273.668 21.0967L277.584 30.2982C277.611 30.2865 277.639 30.2747 277.666 30.2627L273.668 21.0967ZM287.462 23.6602L279.869 30.1681C279.887 30.1888 279.905 30.2094 279.923 30.2299L287.462 23.6602ZM289.708 27.7617L280.174 30.7777C280.177 30.7871 280.18 30.7965 280.183 30.8059L289.708 27.7617ZM290.465 35.9648V45.9648C295.988 45.9648 300.465 41.4877 300.465 35.9648H290.465ZM269.469 35.9648H259.469C259.469 41.4877 263.946 45.9648 269.469 45.9648V35.9648ZM269.469 31.2773V21.2773C263.946 21.2773 259.469 25.7545 259.469 31.2773H269.469ZM283.556 31.2773V41.2773C289.079 41.2773 293.556 36.8002 293.556 31.2773H283.556ZM283.019 28.1279L273.857 32.1361C273.891 32.2136 273.926 32.2907 273.962 32.3673L283.019 28.1279ZM274.742 27.9082L266.084 22.9054C266.055 22.954 266.028 23.0028 266.001 23.0518L274.742 27.9082ZM273.814 30.4961L264.034 28.4118C264.025 28.4528 264.017 28.4938 264.009 28.5349L273.814 30.4961ZM273.961 37.625L264.457 40.7354C264.474 40.7871 264.491 40.8387 264.509 40.8902L273.961 37.625ZM275.255 39.9443L267.635 46.4208C267.666 46.4572 267.698 46.4934 267.729 46.5294L275.255 39.9443ZM277.306 41.458L273.21 50.5807C273.233 50.5909 273.255 50.6011 273.278 50.6112L277.306 41.458ZM283.604 41.2627L287.691 50.3895C287.712 50.3804 287.732 50.3711 287.753 50.3618L283.604 41.2627ZM286.461 38.9922L293.816 32.2174C291.834 30.0649 289.008 28.8888 286.083 28.9993C283.159 29.1098 280.43 30.4957 278.615 32.7916L286.461 38.9922ZM289.879 42.7031L298.095 48.4039C300.764 44.5569 300.407 39.3726 297.234 35.9284L289.879 42.7031ZM287.608 44.998L281.544 37.0468C281.522 37.0635 281.5 37.0803 281.478 37.0972L287.608 44.998ZM284.19 46.8047L287.422 56.2682C287.456 56.2565 287.49 56.2446 287.525 56.2325L284.19 46.8047ZM279.625 37.4883C278.634 37.4883 278.085 37.3325 277.821 37.227L270.394 55.7965C273.385 56.9931 276.515 57.4883 279.625 57.4883V37.4883ZM277.901 37.2592C277.445 37.0724 277.238 36.8965 277.127 36.7821L262.787 50.7237C264.955 52.9531 267.514 54.6164 270.314 55.7642L277.901 37.2592ZM277.177 36.8339C276.983 36.6316 276.824 36.397 276.687 36.0466L258.051 43.305C259.119 46.047 260.685 48.5305 262.737 50.672L277.177 36.8339ZM276.7 36.0795C276.562 35.7208 276.466 35.2854 276.466 34.6953H256.466C256.466 37.6209 256.972 40.5057 258.038 43.2721L276.7 36.0795ZM276.466 34.6953V33.7188H256.466V34.6953H276.466ZM276.466 33.7188C276.466 32.6682 276.614 31.9513 276.779 31.4712L257.862 24.98C256.887 27.8202 256.466 30.7654 256.466 33.7188H276.466ZM276.779 31.4712C276.969 30.9184 277.171 30.6243 277.319 30.4536L262.205 17.355C260.237 19.6257 258.811 22.2124 257.862 24.98L276.779 31.4712ZM277.269 30.5106C277.332 30.4385 277.398 30.3773 277.584 30.2982L269.752 11.8951C266.878 13.1182 264.34 14.9287 262.255 17.298L277.269 30.5106ZM277.666 30.2627C277.759 30.2222 278.093 30.0957 278.844 30.0957V10.0957C275.753 10.0957 272.637 10.6365 269.67 11.9306L277.666 30.2627ZM278.844 30.0957C279.231 30.0957 279.496 30.1277 279.661 30.1585C279.823 30.1887 279.893 30.2182 279.898 30.2202L287.751 11.8267C284.85 10.5882 281.815 10.0957 278.844 10.0957V30.0957ZM279.898 30.2202C279.936 30.2366 279.956 30.2477 279.963 30.2512C279.968 30.2545 279.964 30.2522 279.951 30.2432C279.939 30.2342 279.923 30.2218 279.907 30.2067C279.891 30.1916 279.878 30.178 279.869 30.1681L295.054 17.1522C293.029 14.789 290.54 13.0173 287.751 11.8267L279.898 30.2202ZM279.923 30.2299C279.932 30.24 279.958 30.2712 279.997 30.3432C280.038 30.4174 280.103 30.5544 280.174 30.7777L299.242 24.7457C298.368 21.9824 296.988 19.3706 295.001 17.0904L279.923 30.2299ZM280.183 30.8059C280.325 31.2508 280.465 31.9616 280.465 33.0352H300.465C300.465 30.235 300.1 27.4301 299.233 24.7175L280.183 30.8059ZM280.465 33.0352V35.9648H300.465V33.0352H280.465ZM290.465 25.9648H269.469V45.9648H290.465V25.9648ZM279.469 35.9648V31.2773H259.469V35.9648H279.469ZM269.469 41.2773H283.556V21.2773H269.469V41.2773ZM293.556 31.2773V30.7402H273.556V31.2773H293.556ZM293.556 30.7402C293.556 28.5266 293.145 26.1726 292.075 23.8885L273.962 32.3673C273.609 31.6132 273.556 31.0008 273.556 30.7402H293.556ZM292.18 24.1197C291.074 21.5909 289.284 19.4364 286.913 17.8925L275.999 34.6524C275.028 34.02 274.28 33.1024 273.857 32.1361L292.18 24.1197ZM286.913 17.8925C284.161 16.1008 281.215 15.5889 278.771 15.5889V35.5889C278.507 35.5889 277.351 35.5327 275.999 34.6524L286.913 17.8925ZM278.771 15.5889C276.353 15.5889 273.679 16.1325 271.172 17.6613L281.584 34.7372C280.411 35.4521 279.333 35.5889 278.771 35.5889V15.5889ZM271.172 17.6613C268.96 19.0099 267.273 20.8467 266.084 22.9054L283.401 32.911C283.058 33.5048 282.461 34.2023 281.584 34.7372L271.172 17.6613ZM266.001 23.0518C265.023 24.8122 264.41 26.6463 264.034 28.4118L283.595 32.5804C283.617 32.4758 283.63 32.4469 283.618 32.4791C283.607 32.5121 283.567 32.6142 283.484 32.7646L266.001 23.0518ZM264.009 28.5349C263.664 30.2585 263.521 32.0004 263.521 33.7188H283.521C283.521 33.0933 283.574 32.6868 283.62 32.4573L264.009 28.5349ZM263.521 33.7188V34.6953H283.521V33.7188H263.521ZM263.521 34.6953C263.521 36.6812 263.798 38.7208 264.457 40.7354L283.465 34.5146C283.5 34.6225 283.515 34.7005 283.521 34.7378C283.526 34.7739 283.521 34.7627 283.521 34.6953H263.521ZM264.509 40.8902C265.18 42.8332 266.194 44.7251 267.635 46.4208L282.874 33.4679C283.209 33.8614 283.36 34.2072 283.413 34.3598L264.509 40.8902ZM267.729 46.5294C269.256 48.2749 271.114 49.6398 273.21 50.5807L281.402 32.3353C281.902 32.5601 282.393 32.9158 282.781 33.3593L267.729 46.5294ZM273.278 50.6112C275.541 51.6069 277.864 51.9951 280.064 51.9951V31.9951C280.215 31.9951 280.698 32.0253 281.333 32.3049L273.278 50.6112ZM280.064 51.9951C282.653 51.9951 285.236 51.489 287.691 50.3895L279.518 32.1358C279.639 32.0816 279.763 32.0428 279.876 32.0194C279.987 31.9964 280.055 31.9951 280.064 31.9951V51.9951ZM287.753 50.3618C290.388 49.1605 292.582 47.3743 294.307 45.1927L278.615 32.7916C278.666 32.7276 278.767 32.615 278.926 32.4884C279.087 32.3604 279.269 32.2489 279.456 32.1636L287.753 50.3618ZM279.105 45.7669L282.523 49.4779L297.234 35.9284L293.816 32.2174L279.105 45.7669ZM281.663 37.0023C281.749 36.8778 281.802 36.8269 281.787 36.8418C281.772 36.8574 281.699 36.9285 281.544 37.0468L293.673 52.9493C295.269 51.7316 296.821 50.2391 298.095 48.4039L281.663 37.0023ZM281.478 37.0972C281.518 37.0663 281.364 37.1972 280.856 37.3769L287.525 56.2325C289.686 55.4682 291.811 54.3946 293.738 52.8989L281.478 37.0972ZM280.959 37.3412C280.858 37.3756 280.46 37.4883 279.625 37.4883V57.4883C282.208 57.4883 284.853 57.1453 287.422 56.2682L280.959 37.3412Z" fill="white"/>
<path d="M43.6387 28.3965V30.0811C43.6387 32.7829 43.2725 35.208 42.54 37.3564C41.8076 39.5049 40.7741 41.3359 39.4395 42.8496C38.1048 44.347 36.5098 45.4945 34.6543 46.292C32.8151 47.0895 30.7725 47.4883 28.5264 47.4883C26.2965 47.4883 24.2539 47.0895 22.3984 46.292C20.5592 45.4945 18.9642 44.347 17.6133 42.8496C16.2624 41.3359 15.2126 39.5049 14.4639 37.3564C13.7314 35.208 13.3652 32.7829 13.3652 30.0811V28.3965C13.3652 25.6784 13.7314 23.2533 14.4639 21.1211C15.1963 18.9727 16.2298 17.1416 17.5645 15.6279C18.9154 14.1143 20.5104 12.9587 22.3496 12.1611C24.2051 11.3636 26.2477 10.9648 28.4775 10.9648C30.7236 10.9648 32.7663 11.3636 34.6055 12.1611C36.4609 12.9587 38.056 14.1143 39.3906 15.6279C40.7415 17.1416 41.7832 18.9727 42.5156 21.1211C43.2643 23.2533 43.6387 25.6784 43.6387 28.3965ZM36.2412 30.0811V28.3477C36.2412 26.4596 36.0703 24.7995 35.7285 23.3672C35.3867 21.9349 34.8822 20.7305 34.2148 19.7539C33.5475 18.7773 32.7337 18.0449 31.7734 17.5566C30.8132 17.0521 29.7145 16.7998 28.4775 16.7998C27.2406 16.7998 26.1419 17.0521 25.1816 17.5566C24.2376 18.0449 23.432 18.7773 22.7646 19.7539C22.1136 20.7305 21.6172 21.9349 21.2754 23.3672C20.9336 24.7995 20.7627 26.4596 20.7627 28.3477V30.0811C20.7627 31.9528 20.9336 33.613 21.2754 35.0615C21.6172 36.4938 22.1217 37.7064 22.7891 38.6992C23.4564 39.6758 24.2702 40.4163 25.2305 40.9209C26.1908 41.4255 27.2894 41.6777 28.5264 41.6777C29.7633 41.6777 30.862 41.4255 31.8223 40.9209C32.7826 40.4163 33.5882 39.6758 34.2393 38.6992C34.8903 37.7064 35.3867 36.4938 35.7285 35.0615C36.0703 33.613 36.2412 31.9528 36.2412 30.0811ZM78.6973 20.584V26.1016H65.9043V20.584H78.6973ZM67.9307 20.584V47H60.8994V20.584H67.9307ZM83.8242 20.584V47H76.7686V20.584H83.8242ZM96.2754 25.6621V57.1562H89.2441V20.584H95.7627L96.2754 25.6621ZM112.999 33.499V34.0117C112.999 35.9323 112.771 37.7145 112.315 39.3584C111.876 41.0023 111.225 42.4346 110.362 43.6553C109.5 44.8597 108.425 45.8037 107.14 46.4873C105.87 47.1546 104.405 47.4883 102.745 47.4883C101.134 47.4883 99.734 47.1628 98.5459 46.5117C97.3577 45.8607 96.3568 44.9492 95.543 43.7773C94.7454 42.5892 94.1025 41.2139 93.6143 39.6514C93.126 38.0889 92.7516 36.4124 92.4912 34.6221V33.2793C92.7516 31.3587 93.126 29.6009 93.6143 28.0059C94.1025 26.3945 94.7454 25.0029 95.543 23.8311C96.3568 22.6429 97.3496 21.7233 98.5215 21.0723C99.7096 20.4212 101.101 20.0957 102.696 20.0957C104.373 20.0957 105.846 20.4131 107.115 21.0479C108.401 21.6826 109.475 22.5941 110.338 23.7822C111.217 24.9704 111.876 26.3864 112.315 28.0303C112.771 29.6742 112.999 31.4971 112.999 33.499ZM105.943 34.0117V33.499C105.943 32.376 105.846 31.3424 105.65 30.3984C105.471 29.4382 105.178 28.5999 104.771 27.8838C104.381 27.1676 103.86 26.6143 103.209 26.2236C102.574 25.8167 101.801 25.6133 100.89 25.6133C99.9294 25.6133 99.1074 25.7679 98.4238 26.0771C97.7565 26.3864 97.2113 26.834 96.7881 27.4199C96.3649 28.0059 96.0475 28.7057 95.8359 29.5195C95.6243 30.3333 95.4941 31.2529 95.4453 32.2783V35.6719C95.5267 36.8763 95.7546 37.9587 96.1289 38.9189C96.5033 39.863 97.0811 40.6117 97.8623 41.165C98.6436 41.7184 99.6689 41.9951 100.938 41.9951C101.866 41.9951 102.647 41.7917 103.282 41.3848C103.917 40.9616 104.43 40.3838 104.82 39.6514C105.227 38.9189 105.512 38.0726 105.675 37.1123C105.854 36.152 105.943 35.1185 105.943 34.0117ZM116.246 34.0605V33.5479C116.246 31.611 116.523 29.8288 117.076 28.2012C117.63 26.5573 118.435 25.1331 119.493 23.9287C120.551 22.7243 121.853 21.7884 123.399 21.1211C124.946 20.4375 126.72 20.0957 128.722 20.0957C130.724 20.0957 132.506 20.4375 134.068 21.1211C135.631 21.7884 136.941 22.7243 137.999 23.9287C139.073 25.1331 139.887 26.5573 140.44 28.2012C140.994 29.8288 141.271 31.611 141.271 33.5479V34.0605C141.271 35.9811 140.994 37.7633 140.44 39.4072C139.887 41.0348 139.073 42.459 137.999 43.6797C136.941 44.8841 135.639 45.82 134.093 46.4873C132.547 47.1546 130.772 47.4883 128.771 47.4883C126.769 47.4883 124.986 47.1546 123.424 46.4873C121.878 45.82 120.567 44.8841 119.493 43.6797C118.435 42.459 117.63 41.0348 117.076 39.4072C116.523 37.7633 116.246 35.9811 116.246 34.0605ZM123.277 33.5479V34.0605C123.277 35.1673 123.375 36.2008 123.57 37.1611C123.766 38.1214 124.075 38.9678 124.498 39.7002C124.938 40.4163 125.507 40.9779 126.207 41.3848C126.907 41.7917 127.761 41.9951 128.771 41.9951C129.747 41.9951 130.585 41.7917 131.285 41.3848C131.985 40.9779 132.547 40.4163 132.97 39.7002C133.393 38.9678 133.702 38.1214 133.897 37.1611C134.109 36.2008 134.215 35.1673 134.215 34.0605V33.5479C134.215 32.4736 134.109 31.4645 133.897 30.5205C133.702 29.5602 133.385 28.7139 132.945 27.9814C132.522 27.2327 131.961 26.6468 131.261 26.2236C130.561 25.8005 129.715 25.5889 128.722 25.5889C127.729 25.5889 126.882 25.8005 126.183 26.2236C125.499 26.6468 124.938 27.2327 124.498 27.9814C124.075 28.7139 123.766 29.5602 123.57 30.5205C123.375 31.4645 123.277 32.4736 123.277 33.5479ZM161.778 8.96289H167.467C167.467 10.2812 167.304 11.4124 166.979 12.3564C166.653 13.2842 166.132 14.0817 165.416 14.749C164.7 15.4001 163.74 15.9535 162.535 16.4092C161.331 16.8649 159.841 17.2555 158.067 17.5811C156.7 17.8577 155.512 18.3135 154.503 18.9482C153.51 19.583 152.688 20.4538 152.037 21.5605C151.402 22.651 150.947 24.0345 150.67 25.7109C150.393 27.3711 150.296 29.373 150.377 31.7168V32.8887L144.908 33.6455V32.4736C144.924 29.2835 145.209 26.5085 145.763 24.1484C146.332 21.7884 147.138 19.8027 148.18 18.1914C149.221 16.5638 150.475 15.2699 151.939 14.3096C153.404 13.333 155.032 12.6494 156.822 12.2588C158.027 11.9984 158.987 11.7461 159.703 11.502C160.436 11.2415 160.965 10.916 161.29 10.5254C161.616 10.1348 161.778 9.61393 161.778 8.96289ZM158.702 22.0732C160.493 22.0732 162.079 22.3825 163.463 23.001C164.846 23.6032 166.01 24.4577 166.954 25.5645C167.898 26.6712 168.614 27.9733 169.103 29.4707C169.591 30.9681 169.835 32.6038 169.835 34.3779V34.8906C169.835 36.6973 169.558 38.3737 169.005 39.9199C168.468 41.4499 167.67 42.7845 166.612 43.9238C165.554 45.0632 164.252 45.9502 162.706 46.585C161.16 47.2035 159.394 47.5127 157.408 47.5127C155.406 47.5127 153.624 47.179 152.062 46.5117C150.515 45.8281 149.205 44.876 148.131 43.6553C147.073 42.4183 146.267 40.9779 145.714 39.334C145.177 37.6738 144.908 35.8672 144.908 33.9141V33.377C144.908 33.1003 145.03 32.8317 145.274 32.5713C145.535 32.2946 145.836 31.9854 146.178 31.6436C146.536 31.3018 146.853 30.8704 147.13 30.3496C148.106 28.543 149.173 27.0293 150.328 25.8086C151.484 24.5716 152.745 23.6439 154.112 23.0254C155.496 22.3906 157.026 22.0732 158.702 22.0732ZM157.359 27.5664C156.041 27.5664 154.983 27.8838 154.186 28.5186C153.388 29.137 152.81 29.9671 152.452 31.0088C152.11 32.0342 151.939 33.1572 151.939 34.3779V34.8906C151.939 35.8835 152.037 36.8112 152.232 37.6738C152.428 38.5202 152.737 39.277 153.16 39.9443C153.583 40.5954 154.145 41.1081 154.845 41.4824C155.545 41.8405 156.399 42.0195 157.408 42.0195C158.385 42.0195 159.215 41.8405 159.898 41.4824C160.598 41.1081 161.16 40.5954 161.583 39.9443C162.006 39.277 162.315 38.5202 162.511 37.6738C162.706 36.8112 162.804 35.8835 162.804 34.8906V34.3779C162.804 33.4502 162.706 32.5794 162.511 31.7656C162.315 30.9355 162.006 30.2113 161.583 29.5928C161.16 28.958 160.598 28.4616 159.898 28.1035C159.199 27.7454 158.352 27.5664 157.359 27.5664ZM191.881 20.584V26.1016H178.893V20.584H191.881ZM197.032 20.584V47H190.001V20.584H197.032ZM177.135 20.584H184.044L183.336 33.9141C183.238 35.8184 183.035 37.4948 182.726 38.9434C182.416 40.3919 182.001 41.6289 181.48 42.6543C180.976 43.6797 180.366 44.5179 179.649 45.1689C178.95 45.8037 178.128 46.2676 177.184 46.5605C176.256 46.8535 175.23 47 174.107 47H171.959L171.886 41.458L172.789 41.3604C173.31 41.3115 173.766 41.165 174.156 40.9209C174.563 40.6605 174.905 40.2943 175.182 39.8223C175.475 39.334 175.719 38.7236 175.914 37.9912C176.109 37.2425 176.264 36.3636 176.378 35.3545C176.508 34.3454 176.598 33.1816 176.646 31.8633L177.135 20.584ZM214.635 47.4883C212.584 47.4883 210.745 47.1628 209.117 46.5117C207.49 45.8444 206.106 44.9248 204.967 43.7529C203.844 42.5811 202.981 41.222 202.379 39.6758C201.777 38.1133 201.476 36.4531 201.476 34.6953V33.7188C201.476 31.7168 201.76 29.8857 202.33 28.2256C202.9 26.5654 203.714 25.125 204.771 23.9043C205.846 22.6836 207.148 21.7477 208.678 21.0967C210.208 20.4294 211.933 20.0957 213.854 20.0957C215.725 20.0957 217.385 20.4049 218.834 21.0234C220.283 21.6419 221.495 22.5208 222.472 23.6602C223.465 24.7995 224.213 26.1667 224.718 27.7617C225.222 29.3405 225.475 31.0983 225.475 33.0352V35.9648H204.479V31.2773H218.565V30.7402C218.565 29.7637 218.386 28.8929 218.028 28.1279C217.687 27.3467 217.166 26.7282 216.466 26.2725C215.766 25.8167 214.871 25.5889 213.78 25.5889C212.853 25.5889 212.055 25.7923 211.388 26.1992C210.72 26.6061 210.175 27.1758 209.752 27.9082C209.345 28.6406 209.036 29.5033 208.824 30.4961C208.629 31.4727 208.531 32.5469 208.531 33.7188V34.6953C208.531 35.7533 208.678 36.7298 208.971 37.625C209.28 38.5202 209.711 39.2933 210.265 39.9443C210.834 40.5954 211.518 41.0999 212.315 41.458C213.129 41.8161 214.049 41.9951 215.074 41.9951C216.344 41.9951 217.524 41.751 218.614 41.2627C219.721 40.7581 220.673 40.0013 221.471 38.9922L224.889 42.7031C224.335 43.5007 223.578 44.2656 222.618 44.998C221.674 45.7305 220.535 46.3327 219.2 46.8047C217.866 47.2604 216.344 47.4883 214.635 47.4883ZM245.543 38.9189L252.477 20.584H258.214L247.911 47H243.175L232.921 20.584H238.658L245.543 38.9189ZM236.974 20.584V47H229.942V20.584H236.974ZM254.283 47V20.584H261.314V47H254.283ZM279.625 47.4883C277.574 47.4883 275.735 47.1628 274.107 46.5117C272.48 45.8444 271.096 44.9248 269.957 43.7529C268.834 42.5811 267.971 41.222 267.369 39.6758C266.767 38.1133 266.466 36.4531 266.466 34.6953V33.7188C266.466 31.7168 266.751 29.8857 267.32 28.2256C267.89 26.5654 268.704 25.125 269.762 23.9043C270.836 22.6836 272.138 21.7477 273.668 21.0967C275.198 20.4294 276.923 20.0957 278.844 20.0957C280.715 20.0957 282.376 20.4049 283.824 21.0234C285.273 21.6419 286.485 22.5208 287.462 23.6602C288.455 24.7995 289.203 26.1667 289.708 27.7617C290.213 29.3405 290.465 31.0983 290.465 33.0352V35.9648H269.469V31.2773H283.556V30.7402C283.556 29.7637 283.377 28.8929 283.019 28.1279C282.677 27.3467 282.156 26.7282 281.456 26.2725C280.756 25.8167 279.861 25.5889 278.771 25.5889C277.843 25.5889 277.045 25.7923 276.378 26.1992C275.711 26.6061 275.165 27.1758 274.742 27.9082C274.335 28.6406 274.026 29.5033 273.814 30.4961C273.619 31.4727 273.521 32.5469 273.521 33.7188V34.6953C273.521 35.7533 273.668 36.7298 273.961 37.625C274.27 38.5202 274.701 39.2933 275.255 39.9443C275.825 40.5954 276.508 41.0999 277.306 41.458C278.119 41.8161 279.039 41.9951 280.064 41.9951C281.334 41.9951 282.514 41.751 283.604 41.2627C284.711 40.7581 285.663 40.0013 286.461 38.9922L289.879 42.7031C289.326 43.5007 288.569 44.2656 287.608 44.998C286.664 45.7305 285.525 46.3327 284.19 46.8047C282.856 47.2604 281.334 47.4883 279.625 47.4883Z" fill="#0A7325"/>
</svg>
