<?xml version="1.0" encoding="UTF-8"?><svg id="a" xmlns="http://www.w3.org/2000/svg" viewBox="0 0 853.69 129.39"><defs><style>.b{fill:#fff;}.c{fill:#12743b;}</style></defs><path class="b" d="M852.29,31.09c.16-.94,.24-1.9,.24-2.88,0-6.53-3.12-12.24-8.56-15.67-3.76-2.37-8.44-3.57-13.89-3.57h-9.34c-2.1,0-4.08,.51-5.83,1.39-2.61-1.09-5.73-1.81-9.46-1.81-4.93,0-8.8,1.26-11.81,2.97-3.19-1.94-6.9-2.97-10.93-2.97-1.56,0-3.07,.17-4.53,.5-.48-.05-.97-.08-1.47-.08h-5.44c-2.04,0-3.97,.48-5.69,1.33-2.57-1.05-5.64-1.74-9.29-1.74s-6.63,.68-9.18,1.7c-1.7-.82-3.6-1.29-5.62-1.29h-19.47c-1.91,0-3.72,.42-5.35,1.16-2.7-1.03-5.66-1.58-8.8-1.58-4.82,0-8.59,1.18-11.39,2.62-3.38-1.71-7.32-2.59-11.77-2.59-5.34,0-10.06,1.45-14.02,4.31-.04,.03-.08,.06-.12,.09-2.37-2.47-5.69-4.01-9.38-4.01h-20.26c-1.72,0-3.35,.34-4.85,.95-2.36-.83-5.1-1.36-8.29-1.36-8.96,0-14.47,4.15-17.52,7.64-.12,.14-.23,.3-.35,.44-.14-.17-.26-.34-.41-.51-3.05-3.46-8.57-7.58-17.52-7.58-5.09,0-9.06,1.34-12.11,3.14-3.48-1.81-7.65-2.72-12.4-2.72h-9.34c-.71,0-1.4,.07-2.09,.18-.68-.11-1.37-.18-2.09-.18h-20.26c-1.53,0-3,.28-4.36,.77-2.35-.77-4.87-1.18-7.54-1.18-4.01,0-7.31,.82-10.02,2.04-1.86-1.03-4.01-1.62-6.29-1.62h-16.5c-2.57,0-4.97,.76-6.99,2.05-2.78-1.43-6.3-2.46-10.68-2.46-4.25-.02-8.19,1.02-11.59,2.99-3.2-1.96-6.92-2.99-10.97-2.99-1.56,0-3.07,.17-4.53,.5-.48-.05-.97-.08-1.47-.08h-5.44c-1.77,0-3.45,.36-4.98,.99-2.54-.92-5.31-1.41-8.24-1.41-9.11,0-14.61,4.23-17.62,7.78-.52,.61-1,1.25-1.45,1.91-2.04-1.33-4.46-2.1-7.08-2.1h-11.66c-1.8,0-3.52,.37-5.07,1.03-1.91-4.8-6.59-8.2-12.07-8.2h-7.55c-2.05,0-4.03,.48-5.79,1.36-1.76-.88-3.73-1.36-5.79-1.36h-7.48c-1.9,0-3.71,.42-5.34,1.16-2.5-1.03-5.24-1.57-8.16-1.57-1.56,0-3.07,.17-4.53,.5-.48-.05-.97-.08-1.47-.08h-5.44c-2.04,0-3.97,.48-5.69,1.33-2.57-1.05-5.64-1.74-9.29-1.74-1.28,0-2.48,.09-3.62,.25-2.06-4.46-6.56-7.57-11.8-7.57h-6.02c-2.22,0-4.31,.56-6.14,1.54-1.83-.98-3.92-1.54-6.14-1.54h-6.04c-5.62,0-10.4,3.58-12.21,8.57-1.42-.53-2.96-.84-4.57-.84h-17.43c-1.24,0-2.44,.18-3.57,.51-1.14-.32-2.33-.51-3.57-.51h-6.02c-1.27,0-2.52,.19-3.71,.54-1.18-.35-2.42-.54-3.72-.54h-6.04c-1.21,0-2.38,.18-3.49,.49-1.11-.31-2.28-.49-3.49-.49h-6.04c-1.29,0-2.53,.19-3.7,.53-1.17-.35-2.41-.53-3.7-.53h-6.04c-.5,0-1,.04-1.49,.09-.5-.06-1-.09-1.51-.09h-6.49c-1.46,0-2.89,.25-4.22,.7-1.33-.46-2.75-.7-4.22-.7h-6.49c-.62,0-1.24,.06-1.85,.15-.6-.09-1.22-.15-1.85-.15h-7.55c-2.05,0-4.03,.48-5.79,1.36-1.76-.88-3.73-1.36-5.79-1.36h-7.48c-2.11,0-4.09,.51-5.85,1.4-2.61-1.09-5.74-1.82-9.48-1.82-3.14,0-5.84,.52-8.17,1.33-1.48-.58-3.08-.91-4.76-.91h-20.26c-.66,0-1.31,.07-1.94,.16-.63-.1-1.28-.16-1.94-.16h-6.02c-1.27,0-2.52,.19-3.71,.54-1.18-.35-2.42-.54-3.72-.54h-6.04c-.4,0-.79,.02-1.18,.06-1.51-1.13-3.12-2.1-4.85-2.86-2.29-3.7-6.39-6.17-11.06-6.17h-6.04c-4.66,0-8.75,2.45-11.05,6.14-2.71,1.18-5.17,2.84-7.33,4.93C2.59,15.84,0,22.2,0,29.48s2.64,13.61,7.62,18.32c2.15,2.03,4.61,3.63,7.3,4.78,1.04,1.62,2.44,2.98,4.07,4.01h-5.56c-7.18,0-13,5.82-13,13v15.74c0,1.86,.4,3.62,1.1,5.22-.81,1.7-1.28,3.59-1.28,5.6v15.74c0,7.18,5.82,13,13,13h6.01c1.38,0,2.64-.13,3.82-.35,.96,.22,1.94,.35,2.95,.35h2.17c1.24,0,2.45-.18,3.61-.51,2.39,2.7,5.88,4.39,9.74,4.39h1.81c2.05,0,3.98-.47,5.7-1.31,1.71,.83,3.63,1.29,5.66,1.29h1.91c2.1,0,4.09-.51,5.85-1.4,1.99-.45,3.83-1.36,5.39-2.64,.68,.11,1.37,.18,2.07,.18h2.13c.89,0,1.76-.09,2.61-.26,.84,.17,1.71,.26,2.61,.26h2.13c1.16,0,2.27-.17,3.34-.45,1.59,.43,3.25,.68,4.98,.68,2.58,0,5-.44,7.19-1.3,1.61,.7,3.36,1.08,5.17,1.08h2.29c.96,0,1.91-.11,2.82-.31,.91,.2,1.86,.31,2.83,.31h2.13c.61,0,1.2-.06,1.78-.14,.58,.08,1.18,.14,1.78,.14h5.36c1.24,0,2.42-.11,3.56-.3,.89,.19,1.81,.3,2.74,.3h.61c1.49,0,2.94-.18,4.32-.53,1.17,.35,2.41,.53,3.69,.53h2.13c.41,0,.82-.02,1.22-.06,.4,.04,.79,.06,1.2,.06h2.29c.96,0,1.91-.11,2.82-.31,.91,.2,1.86,.31,2.83,.31h2.13c1.17,0,2.3-.17,3.39-.46,1.6,.44,3.28,.69,5.02,.69,2.13,0,4.14-.31,6.01-.9,1.29,.43,2.67,.67,4.1,.67h2.13c1.65,0,3.22-.32,4.67-.88,1.99,.72,4.15,1.11,6.42,1.11,1.41,0,2.78-.17,4.11-.48,.83,.16,1.67,.25,2.53,.25h2.29c.96,0,1.91-.11,2.82-.31,.91,.2,1.86,.31,2.83,.31h2.13c1.43,0,2.8-.24,4.08-.66,1.3,.43,2.67,.66,4.07,.66h.61c1.49,0,2.94-.18,4.32-.53,1.17,.35,2.41,.53,3.69,.53h2.13c1.09,0,2.15-.15,3.17-.4,1.54,.4,3.14,.63,4.81,.63s3.13-.19,4.59-.52c.88,.19,1.79,.29,2.73,.29h2.13c.92,0,1.81-.1,2.68-.28,.87,.18,1.76,.28,2.66,.28h2.62c.56,0,1.12-.04,1.67-.11,.97,.19,2.01,.3,3.13,.33,2.38,2.62,5.8,4.28,9.62,4.28h2.13c4.17,0,7.87-1.98,10.25-5.03,1.68,.48,3.46,.76,5.32,.76,2.08,0,4.08-.35,5.98-1.01,1.38,.5,2.85,.78,4.4,.78h2.13c1.13,0,2.22-.16,3.27-.43,1.05,.27,2.14,.43,3.27,.43h5.36c2.15,0,4.15-.29,6.01-.87,1.97,.71,4.08,1.1,6.3,1.1,1.72,0,3.38-.25,4.96-.68,1.07,.28,2.19,.45,3.35,.45h2.13c.63,0,1.26-.05,1.86-.13,.61,.09,1.23,.13,1.85,.13h1.47c.62,0,1.22-.04,1.82-.13,.6,.08,1.21,.13,1.83,.13h2.13c7.18,0,13-5.82,13-13v-11.7c0-1.28-.19-2.51-.54-3.68,2.55,1.32,5.41,2.03,8.46,2.03,2.23,0,4.37-.39,6.35-1.11,1.21,.43,2.47,.74,3.78,.92,2.38,2.73,5.88,4.46,9.79,4.46h2.13c4.18,0,7.89-1.99,10.27-5.06,1.71,.51,3.52,.79,5.4,.79,1.6,0,3.13-.19,4.59-.52,.88,.19,1.79,.29,2.73,.29h2.13c.63,0,1.26-.05,1.86-.13,.61,.09,1.23,.13,1.85,.13h1.47c.62,0,1.22-.04,1.82-.13,.6,.08,1.21,.13,1.83,.13h2.13c1.19,0,2.34-.17,3.44-.47,1.62,.45,3.32,.7,5.08,.7,1.58,0,3.09-.18,4.53-.51,.86,.18,1.76,.28,2.68,.28h2.13c.89,0,1.76-.09,2.61-.26,.84,.17,1.71,.26,2.61,.26h2.13c.59,0,1.17-.05,1.73-.13,.57,.08,1.14,.13,1.73,.13h2.13c.89,0,1.76-.09,2.61-.26,.84,.17,1.71,.26,2.61,.26h2.13c.65,0,1.28-.06,1.9-.15,.62,.09,1.25,.15,1.9,.15h5.04c1.29,0,2.48-.12,3.57-.32,.92,.21,1.88,.32,2.87,.32h2.13c.68,0,1.35-.07,2-.17,.66,.1,1.32,.17,2,.17h2.13c.63,0,1.26-.05,1.86-.13,.61,.09,1.23,.13,1.85,.13h1.47c.12,0,.24,0,.36-.01,2.27,1.8,5.11,2.8,8.06,2.8h1.26c3.08,0,6-1.09,8.28-2.98,.71,.12,1.43,.19,2.17,.19h2.13c.92,0,1.81-.1,2.68-.28,.87,.18,1.76,.28,2.66,.28h2.62c.71,0,1.41-.07,2.1-.18,.8,.17,1.62,.27,2.45,.33,2.38,2.66,5.83,4.35,9.68,4.35h2.13c3.95,0,7.48-1.77,9.86-4.55,.35,.03,.7,.05,1.05,.05h2.13c.63,0,1.26-.05,1.86-.13,.61,.09,1.23,.13,1.85,.13h1.47c.62,0,1.22-.04,1.82-.13,.6,.08,1.21,.13,1.83,.13h2.13c.5,0,.99-.04,1.48-.09,.49,.06,.98,.09,1.48,.09h2.29c.96,0,1.91-.11,2.82-.31,.91,.2,1.86,.31,2.83,.31h2.13c.6,0,1.19-.06,1.78-.14,.58,.08,1.17,.14,1.78,.14h5.39c2.34,2.26,5.53,3.65,9.04,3.65h2.11c3.53,0,6.73-1.41,9.07-3.7,.28,.02,.55,.04,.83,.04h2.13c.61,0,1.2-.06,1.78-.14,.58,.08,1.18,.14,1.78,.14h2.13c.63,0,1.26-.05,1.86-.13,.61,.09,1.23,.13,1.85,.13h1.47c.62,0,1.22-.04,1.82-.13,.6,.08,1.21,.13,1.83,.13h2.13c1.68,0,3.28-.33,4.76-.91,1.48,.58,3.08,.91,4.76,.91h2.12c.89,0,1.76-.09,2.61-.26,.85,.17,1.72,.26,2.62,.26h1.81c2.32,2.13,5.41,3.44,8.79,3.44h1.92c1.4,0,2.76-.22,4.02-.63,1.27,.41,2.62,.63,4.02,.63h1.92c3.29,0,6.29-1.23,8.58-3.25,1.78-.08,3.48-.36,5.08-.86,1.29,.43,2.67,.67,4.1,.67h2.13c1,0,1.97-.12,2.91-.34,.95,.22,1.92,.34,2.92,.34h2.29c.96,0,1.91-.11,2.82-.31,.91,.2,1.86,.31,2.83,.31h2.13c.62,0,1.23-.06,1.83-.14,.6,.08,1.21,.14,1.83,.14h2.13c.63,0,1.26-.05,1.86-.13,.61,.09,1.23,.13,1.85,.13h1.47c.62,0,1.22-.04,1.82-.13,.6,.08,1.21,.13,1.83,.13h2.13c2.24,0,4.36-.57,6.2-1.57,2.43,1.17,5.16,1.8,8.08,1.8,3.1,0,6.05-.77,8.68-2.22,2.68,1.45,5.73,2.22,8.98,2.22,2.8,0,5.43-.57,7.82-1.65,1.8,.92,3.82,1.43,5.92,1.43h2.46c.88,0,1.75-.09,2.59-.26,.85,.17,1.71,.26,2.59,.26h2.44c1.21,0,2.4-.17,3.54-.49,1.13,.32,2.3,.49,3.5,.49h.61c1.49,0,2.94-.18,4.32-.53,1.17,.35,2.41,.53,3.69,.53h2.13c1.09,0,2.15-.15,3.17-.4,1.54,.4,3.14,.63,4.81,.63,2.13,0,4.14-.31,6.02-.9,1.29,.43,2.67,.67,4.1,.67h2.13c1.16,0,2.29-.17,3.36-.45,1.07,.29,2.2,.45,3.36,.45h2.13c7.18,0,13-5.82,13-13v-2.21c0-4.17-1.97-7.88-5.03-10.26-.4-6.82-6.04-12.24-12.96-12.24h-9.79c-.72,0-1.42,.07-2.11,.19,.94-1.23,1.67-2.63,2.12-4.15,1.39-.47,2.71-1.08,3.95-1.82,3,1.69,6.87,2.93,11.78,2.93,3.73,0,6.85-.72,9.46-1.81,1.75,.87,3.71,1.38,5.79,1.38h10.79c5.59,0,10.34-1.3,14.11-3.87,5.11-3.48,8.05-9.14,8.05-15.52,0-2.38-.48-4.71-1.39-6.86Z"/><g><g><path class="c" d="M31.92,16.95h.06c3.76,0,6.83,1.14,9.2,3.43,2.37,2.29,3.56,5.31,3.56,9.05s-1.19,6.66-3.57,8.9c-2.38,2.24-5.44,3.36-9.19,3.36h-.06v3.89h-6.04v-3.89h-.12c-3.78,0-6.85-1.12-9.21-3.35-2.36-2.23-3.55-5.19-3.55-8.87s1.19-6.77,3.56-9.08c2.37-2.3,5.44-3.45,9.2-3.45h.12v-3.95h6.04v3.95Zm-6.16,4.96c-2.12,0-3.79,.66-5,1.97-1.21,1.32-1.82,3.18-1.82,5.59s.61,4.14,1.82,5.4c1.21,1.25,2.88,1.88,5,1.88h.12v-14.84h-.12Zm6.16,0v14.84h.1c2.09,0,3.75-.64,4.96-1.91,1.21-1.27,1.82-3.08,1.82-5.41s-.6-4.27-1.81-5.57-2.86-1.95-4.97-1.95h-.1Z"/><path class="c" d="M62.46,21.97h6.02v22.37h-6.02v-13.64l-.12-.02-7.3,13.66h-6.04V21.97h6.04v13.6l.12,.02,7.3-13.62Z"/><path class="c" d="M92.62,26.62h-7.15v17.72h-6.06V26.62h-7.05v-4.65h20.26v4.65Z"/><path class="c" d="M95.04,32.95c0-3.33,.93-6.07,2.79-8.2,1.86-2.13,4.44-3.19,7.73-3.19s5.9,1.06,7.77,3.18c1.87,2.12,2.81,4.86,2.81,8.21v.43c0,3.36-.93,6.1-2.8,8.22-1.87,2.12-4.45,3.17-7.74,3.17s-5.9-1.06-7.76-3.17c-1.87-2.12-2.8-4.85-2.8-8.22v-.43Zm6.02,.42c0,2.04,.36,3.67,1.07,4.9s1.87,1.85,3.47,1.85,2.7-.62,3.42-1.86c.72-1.24,1.09-2.87,1.09-4.89v-.43c0-1.98-.37-3.6-1.1-4.85-.73-1.25-1.88-1.88-3.45-1.88s-2.7,.63-3.42,1.89c-.72,1.26-1.09,2.87-1.09,4.84v.43Z"/><path class="c" d="M134.06,37.31h.12l5.77-15.34h7.55v22.37h-6.02v-13.35l-.12-.02-5.19,13.38h-4.05l-5.06-13.09-.12,.02v13.06h-6.04V21.97h7.48l5.68,15.34Z"/><path class="c" d="M161.47,34.95l.25,1.24h.12l4.28-14.22h6.49l-9.08,25.72c-.63,1.6-1.5,2.95-2.58,4.04-1.09,1.1-2.72,1.64-4.9,1.64-.51,0-.98-.04-1.42-.12-.43-.08-.96-.2-1.58-.35l.7-4.4c.18,.03,.37,.05,.58,.08,.21,.03,.39,.04,.56,.04,.99,0,1.76-.25,2.29-.73,.54-.49,.95-1.1,1.24-1.83l.7-1.74-7.94-22.35h6.49l3.78,12.98Z"/><path class="c" d="M175.6,21.97h6.04v17.72h7.4V21.97h6.04v17.72h3.23v12.05h-6.02v-7.4h-16.68V21.97Z"/><path class="c" d="M215.52,21.97h6.02v22.37h-6.02v-13.64l-.12-.02-7.3,13.66h-6.04V21.97h6.04v13.6l.12,.02,7.3-13.62Z"/><path class="c" d="M246.11,21.97v22.37h-6.02V26.62h-5.38v4.86c0,4.42-.68,7.66-2.03,9.74-1.35,2.08-3.66,3.11-6.93,3.11h-.97l-.06-4.75,.64-.02c1.38,0,2.27-.56,2.69-1.7,.41-1.13,.62-3.25,.62-6.37v-9.53h17.43Z"/><path class="c" d="M287.21,44.34h-6.02v-12.51h-12.28v12.51h-6.04V14.24h6.04v12.94h12.28V14.24h6.02v30.1Z"/><path class="c" d="M292.11,32.95c0-3.33,.93-6.07,2.79-8.2,1.86-2.13,4.44-3.19,7.73-3.19s5.9,1.06,7.77,3.18c1.87,2.12,2.81,4.86,2.81,8.21v.43c0,3.36-.93,6.1-2.8,8.22-1.87,2.12-4.45,3.17-7.74,3.17s-5.9-1.06-7.76-3.17c-1.87-2.12-2.8-4.85-2.8-8.22v-.43Zm6.02,.42c0,2.04,.36,3.67,1.07,4.9s1.87,1.85,3.47,1.85,2.7-.62,3.42-1.86c.72-1.24,1.09-2.87,1.09-4.89v-.43c0-1.98-.37-3.6-1.1-4.85-.73-1.25-1.88-1.88-3.45-1.88s-2.7,.63-3.42,1.89c-.72,1.26-1.09,2.87-1.09,4.84v.43Z"/><path class="c" d="M337.79,33.78c0,3.31-.76,5.97-2.29,7.98s-3.67,3.02-6.41,3.02c-1.17,0-2.21-.22-3.12-.65-.91-.43-1.69-1.07-2.34-1.91v10.73h-6.02V21.97h5.44l.35,2.65c.66-.98,1.46-1.73,2.39-2.26,.93-.53,2.02-.8,3.26-.8,2.77,0,4.92,1.08,6.45,3.25,1.53,2.16,2.29,5.01,2.29,8.54v.43Zm-6.04-.46c0-2.11-.35-3.82-1.05-5.13-.7-1.31-1.78-1.97-3.22-1.97-.91,0-1.69,.19-2.33,.56-.64,.37-1.15,.9-1.52,1.59v9.81c.37,.64,.88,1.12,1.52,1.45,.64,.33,1.43,.5,2.37,.5,1.46,0,2.53-.57,3.21-1.72s1.02-2.7,1.02-4.66v-.43Z"/><path class="c" d="M355.71,37.31h.12l5.77-15.34h7.55v22.37h-6.02v-13.35l-.12-.02-5.19,13.38h-4.05l-5.06-13.09-.12,.02v13.06h-6.04V21.97h7.48l5.68,15.34Z"/><path class="c" d="M397.95,33.8h-11.66v-4.65h11.66v4.65Z"/><path class="c" d="M424.12,40.12c1.08,0,1.94-.31,2.58-.94s.97-1.46,.97-2.51h5.48l.06,.12c.06,2.26-.8,4.16-2.55,5.69-1.76,1.53-3.94,2.29-6.54,2.29-3.34,0-5.91-1.05-7.71-3.16-1.81-2.11-2.71-4.82-2.71-8.12v-.62c0-3.29,.9-6,2.7-8.12,1.8-2.12,4.37-3.18,7.7-3.18,2.76,0,4.98,.79,6.67,2.36,1.69,1.57,2.5,3.64,2.45,6.2l-.04,.12h-5.5c0-1.16-.32-2.12-.95-2.88-.63-.77-1.51-1.15-2.63-1.15-1.6,0-2.73,.62-3.38,1.86-.65,1.24-.98,2.83-.98,4.79v.62c0,2,.33,3.6,.98,4.82,.65,1.22,1.79,1.83,3.4,1.83Z"/><path class="c" d="M457.5,33.78c0,3.31-.76,5.97-2.29,7.98s-3.67,3.02-6.41,3.02c-1.17,0-2.21-.22-3.12-.65-.91-.43-1.69-1.07-2.34-1.91v10.73h-6.02V21.97h5.44l.35,2.65c.66-.98,1.46-1.73,2.39-2.26,.93-.53,2.02-.8,3.26-.8,2.77,0,4.92,1.08,6.45,3.25,1.53,2.16,2.29,5.01,2.29,8.54v.43Zm-6.04-.46c0-2.11-.35-3.82-1.05-5.13-.7-1.31-1.78-1.97-3.22-1.97-.91,0-1.69,.19-2.33,.56-.64,.37-1.15,.9-1.52,1.59v9.81c.37,.64,.88,1.12,1.52,1.45,.64,.33,1.43,.5,2.37,.5,1.46,0,2.53-.57,3.21-1.72s1.02-2.7,1.02-4.66v-.43Z"/><path class="c" d="M471.8,44.77c-3.22,0-5.8-1.03-7.73-3.1-1.93-2.07-2.89-4.69-2.89-7.88v-.83c0-3.32,.91-6.06,2.74-8.21,1.83-2.15,4.28-3.22,7.35-3.2,3.02,0,5.36,.91,7.03,2.73,1.67,1.82,2.5,4.28,2.5,7.38v3.29h-13.35l-.04,.12c.11,1.47,.6,2.68,1.48,3.62,.88,.95,2.06,1.42,3.57,1.42,1.34,0,2.45-.13,3.33-.4,.88-.27,1.85-.69,2.89-1.27l1.63,3.73c-.91,.75-2.1,1.37-3.58,1.86-1.48,.49-3.11,.74-4.92,.74Zm-.54-18.56c-1.12,0-2,.43-2.65,1.28s-1.05,1.98-1.2,3.37l.06,.1h7.4v-.54c0-1.28-.3-2.31-.9-3.07-.6-.77-1.51-1.15-2.72-1.15Z"/><path class="c" d="M485.29,39.65c1.38-1.42,2.3-2.82,2.78-4.2,.48-1.38,.75-3.36,.82-5.94l.1-7.54h16.5v17.72h3.22l-.41,11.35h-5.6v-6.7h-13.21v6.7h-5.62l-.52-11.39h1.94Zm9.61-10.13c-.1,2.22-.38,4.16-.84,5.83-.46,1.67-1.09,3.11-1.87,4.32h7.28v-12.88h-4.53l-.04,2.72Z"/><path class="c" d="M521.82,40.12c1.08,0,1.94-.31,2.58-.94s.97-1.46,.97-2.51h5.48l.06,.12c.06,2.26-.8,4.16-2.55,5.69-1.76,1.53-3.94,2.29-6.54,2.29-3.34,0-5.91-1.05-7.71-3.16-1.81-2.11-2.71-4.82-2.71-8.12v-.62c0-3.29,.9-6,2.7-8.12,1.8-2.12,4.37-3.18,7.7-3.18,2.76,0,4.98,.79,6.67,2.36,1.69,1.57,2.5,3.64,2.45,6.2l-.04,.12h-5.5c0-1.16-.32-2.12-.95-2.88-.63-.77-1.51-1.15-2.63-1.15-1.6,0-2.73,.62-3.38,1.86-.65,1.24-.98,2.83-.98,4.79v.62c0,2,.33,3.6,.98,4.82,.65,1.22,1.79,1.83,3.4,1.83Z"/><path class="c" d="M553.96,26.62h-7.15v17.72h-6.06V26.62h-7.05v-4.65h20.26v4.65Z"/><path class="c" d="M558.13,44.34V21.97h9.34c2.98,0,5.3,.52,6.96,1.57,1.66,1.05,2.49,2.6,2.49,4.67,0,1.05-.35,1.98-1.04,2.79-.7,.81-1.69,1.43-2.97,1.86,1.7,.33,2.98,.95,3.86,1.87,.88,.92,1.31,1.99,1.31,3.21,0,2.11-.79,3.7-2.37,4.78-1.58,1.07-3.84,1.61-6.79,1.61h-10.79Zm6.04-13.25h3.47c1.12,0,1.94-.18,2.47-.53,.53-.35,.8-.89,.8-1.6,0-.81-.28-1.4-.85-1.77-.57-.38-1.43-.56-2.58-.56h-3.31v4.47Zm0,3.93v4.73h4.75c1.06,0,1.85-.2,2.36-.59,.51-.39,.77-.97,.77-1.75s-.24-1.36-.73-1.78-1.29-.62-2.39-.62h-4.75Z"/><path class="c" d="M581.46,32.95c0-3.33,.93-6.07,2.79-8.2,1.86-2.13,4.44-3.19,7.73-3.19s5.9,1.06,7.77,3.18c1.87,2.12,2.81,4.86,2.81,8.21v.43c0,3.36-.93,6.1-2.8,8.22-1.87,2.12-4.45,3.17-7.74,3.17s-5.9-1.06-7.76-3.17c-1.87-2.12-2.8-4.85-2.8-8.22v-.43Zm6.02,.42c0,2.04,.36,3.67,1.07,4.9s1.87,1.85,3.47,1.85,2.7-.62,3.42-1.86c.72-1.24,1.09-2.87,1.09-4.89v-.43c0-1.98-.37-3.6-1.1-4.85-.73-1.25-1.88-1.88-3.45-1.88s-2.7,.63-3.42,1.89c-.72,1.26-1.09,2.87-1.09,4.84v.43Z"/><path class="c" d="M617.26,32.95c0-3.33,.93-6.07,2.79-8.2,1.86-2.13,4.44-3.19,7.73-3.19s5.9,1.06,7.77,3.18c1.87,2.12,2.81,4.86,2.81,8.21v.43c0,3.36-.93,6.1-2.8,8.22-1.87,2.12-4.45,3.17-7.74,3.17s-5.9-1.06-7.76-3.17c-1.87-2.12-2.8-4.85-2.8-8.22v-.43Zm6.02,.42c0,2.04,.36,3.67,1.07,4.9s1.87,1.85,3.47,1.85,2.7-.62,3.42-1.86c.72-1.24,1.09-2.87,1.09-4.89v-.43c0-1.98-.37-3.6-1.1-4.85-.73-1.25-1.88-1.88-3.45-1.88s-2.7,.63-3.42,1.89c-.72,1.26-1.09,2.87-1.09,4.84v.43Z"/><path class="c" d="M661.18,26.62h-7.15v17.72h-6.06V26.62h-7.05v-4.65h20.26v4.65Z"/><path class="c" d="M684.99,30.99c1.02,0,1.77-.21,2.25-.64s.72-1.03,.72-1.82c0-.72-.23-1.32-.69-1.82s-1.22-.74-2.26-.74c-.98,0-1.77,.22-2.37,.66s-.9,1.03-.9,1.78h-5.85l-.04-.12c-.08-2,.73-3.61,2.44-4.85,1.71-1.23,3.85-1.85,6.41-1.85,2.87,0,5.13,.57,6.79,1.7,1.66,1.13,2.49,2.74,2.49,4.82,0,1.01-.3,1.93-.91,2.76s-1.45,1.49-2.52,1.97c1.24,.44,2.19,1.1,2.84,1.97,.65,.88,.98,1.95,.98,3.21,0,2.09-.89,3.74-2.68,4.94-1.79,1.2-4.12,1.8-7,1.8-2.55,0-4.74-.59-6.56-1.78-1.83-1.19-2.7-2.89-2.61-5.13l.02-.12h5.85c0,.77,.32,1.41,.95,1.92,.63,.51,1.53,.77,2.69,.77s1.95-.27,2.5-.81c.55-.54,.83-1.2,.83-1.98,0-.96-.28-1.67-.83-2.12-.55-.45-1.4-.67-2.54-.67h-3.22v-3.85h3.22Z"/><path class="c" d="M711.84,44.34c-.22-.51-.41-1.05-.57-1.61-.16-.56-.27-1.14-.34-1.74-.62,1.09-1.44,1.99-2.45,2.71-1.01,.72-2.22,1.07-3.63,1.07-2.34,0-4.15-.6-5.42-1.81-1.27-1.21-1.9-2.85-1.9-4.93,0-2.19,.84-3.89,2.53-5.1,1.69-1.21,4.15-1.81,7.39-1.81h3.37v-1.78c0-1.07-.28-1.91-.85-2.5-.57-.59-1.4-.89-2.5-.89-.98,0-1.73,.24-2.26,.71-.53,.48-.8,1.13-.8,1.97l-5.83-.02-.02-.12c-.1-1.89,.72-3.52,2.46-4.89,1.74-1.37,4.02-2.06,6.84-2.06,2.67,0,4.84,.68,6.51,2.04,1.67,1.36,2.5,3.29,2.5,5.8v9.24c0,1.05,.08,2.03,.24,2.96,.16,.92,.41,1.84,.75,2.75h-6.04Zm-5.52-4.03c1.06,0,2.01-.26,2.83-.79,.83-.52,1.39-1.13,1.67-1.82v-3.16h-3.37c-1.28,0-2.25,.32-2.92,.96-.66,.64-.99,1.42-.99,2.33,0,.74,.25,1.34,.74,1.8s1.17,.68,2.03,.68Z"/><path class="c" d="M741.5,44.34h-6.04V26.62h-7.4v17.72h-6.04V21.97h19.47v22.37Z"/><path class="c" d="M745.77,32.95c0-3.33,.93-6.07,2.79-8.2,1.86-2.13,4.44-3.19,7.73-3.19s5.9,1.06,7.77,3.18c1.87,2.12,2.81,4.86,2.81,8.21v.43c0,3.36-.93,6.1-2.8,8.22-1.87,2.12-4.45,3.17-7.74,3.17s-5.9-1.06-7.76-3.17c-1.87-2.12-2.8-4.85-2.8-8.22v-.43Zm6.02,.42c0,2.04,.36,3.67,1.07,4.9s1.87,1.85,3.47,1.85,2.7-.62,3.42-1.86c.72-1.24,1.09-2.87,1.09-4.89v-.43c0-1.98-.37-3.6-1.1-4.85-.73-1.25-1.88-1.88-3.45-1.88s-2.7,.63-3.42,1.89c-.72,1.26-1.09,2.87-1.09,4.84v.43Z"/><path class="c" d="M791.45,33.78c0,3.31-.76,5.97-2.29,7.98s-3.67,3.02-6.41,3.02c-1.17,0-2.21-.22-3.12-.65-.91-.43-1.69-1.07-2.34-1.91v10.73h-6.02V21.97h5.44l.35,2.65c.66-.98,1.46-1.73,2.39-2.26,.93-.53,2.02-.8,3.26-.8,2.77,0,4.92,1.08,6.45,3.25,1.53,2.16,2.29,5.01,2.29,8.54v.43Zm-6.04-.46c0-2.11-.35-3.82-1.05-5.13-.7-1.31-1.78-1.97-3.22-1.97-.91,0-1.69,.19-2.33,.56-.64,.37-1.15,.9-1.52,1.59v9.81c.37,.64,.88,1.12,1.52,1.45,.64,.33,1.43,.5,2.37,.5,1.46,0,2.53-.57,3.21-1.72s1.02-2.7,1.02-4.66v-.43Z"/><path class="c" d="M794.92,32.95c0-3.33,.93-6.07,2.79-8.2,1.86-2.13,4.44-3.19,7.73-3.19s5.9,1.06,7.77,3.18c1.87,2.12,2.81,4.86,2.81,8.21v.43c0,3.36-.93,6.1-2.8,8.22-1.87,2.12-4.45,3.17-7.74,3.17s-5.9-1.06-7.76-3.17c-1.87-2.12-2.8-4.85-2.8-8.22v-.43Zm6.02,.42c0,2.04,.36,3.67,1.07,4.9s1.87,1.85,3.47,1.85,2.7-.62,3.42-1.86c.72-1.24,1.09-2.87,1.09-4.89v-.43c0-1.98-.37-3.6-1.1-4.85-.73-1.25-1.88-1.88-3.45-1.88s-2.7,.63-3.42,1.89c-.72,1.26-1.09,2.87-1.09,4.84v.43Z"/><path class="c" d="M820.74,44.34V21.97h9.34c2.98,0,5.3,.52,6.96,1.57,1.66,1.05,2.49,2.6,2.49,4.67,0,1.05-.35,1.98-1.04,2.79-.7,.81-1.69,1.43-2.97,1.86,1.7,.33,2.98,.95,3.86,1.87,.88,.92,1.31,1.99,1.31,3.21,0,2.11-.79,3.7-2.37,4.78-1.58,1.07-3.84,1.61-6.79,1.61h-10.79Zm6.04-13.25h3.47c1.12,0,1.94-.18,2.47-.53,.53-.35,.8-.89,.8-1.6,0-.81-.28-1.4-.85-1.77-.57-.38-1.43-.56-2.58-.56h-3.31v4.47Zm0,3.93v4.73h4.75c1.06,0,1.85-.2,2.36-.59,.51-.39,.77-.97,.77-1.75s-.24-1.36-.73-1.78-1.29-.62-2.39-.62h-4.75Z"/></g><g><path class="c" d="M15.57,79.01v6.31h-2.13v-15.74h6.02c1.68,0,2.98,.43,3.91,1.3,.93,.86,1.39,2,1.39,3.42s-.46,2.58-1.39,3.43c-.93,.85-2.24,1.28-3.91,1.28h-3.89Zm0-1.68h3.89c1.07,0,1.86-.29,2.39-.86,.53-.57,.79-1.29,.79-2.16s-.27-1.6-.79-2.18c-.53-.58-1.32-.87-2.38-.87h-3.89v6.08Z"/><path class="c" d="M34.65,85.32c-.07-.35-.13-.67-.17-.94-.04-.27-.06-.54-.07-.82-.4,.56-.91,1.03-1.55,1.41-.64,.38-1.32,.57-2.06,.57-1.22,0-2.15-.31-2.78-.94s-.96-1.48-.96-2.58,.45-1.99,1.36-2.62c.9-.63,2.13-.95,3.68-.95h2.31v-1.16c0-.68-.21-1.23-.63-1.63s-1.01-.6-1.77-.6c-.69,0-1.24,.17-1.67,.52s-.64,.77-.64,1.26h-2.03l-.02-.06c-.04-.85,.36-1.63,1.21-2.33,.85-.71,1.94-1.06,3.28-1.06s2.39,.34,3.2,1.01c.81,.67,1.21,1.65,1.21,2.91v5.63c0,.42,.02,.82,.07,1.21,.04,.39,.12,.77,.24,1.15h-2.19Zm-3.54-1.57c.77,0,1.47-.2,2.09-.59,.62-.4,1.02-.85,1.21-1.36v-1.9h-2.39c-.86,0-1.54,.22-2.06,.65-.52,.43-.77,.94-.77,1.52,0,.52,.16,.93,.49,1.23,.32,.3,.8,.45,1.44,.45Z"/><path class="c" d="M44.18,78.49c.75,0,1.29-.14,1.61-.43s.49-.7,.49-1.24c0-.49-.19-.9-.56-1.24s-.93-.51-1.68-.51c-.67,0-1.23,.18-1.69,.53s-.68,.78-.68,1.29h-2.02l-.02-.06c-.04-1,.37-1.82,1.23-2.45s1.92-.95,3.18-.95c1.37,0,2.44,.29,3.21,.88,.77,.59,1.16,1.43,1.16,2.51,0,.53-.16,1.01-.48,1.44s-.76,.78-1.33,1.03c.66,.24,1.16,.59,1.5,1.05s.52,1.02,.52,1.68c0,1.1-.42,1.95-1.26,2.57-.84,.62-1.95,.93-3.33,.93-1.27,0-2.36-.31-3.28-.92s-1.36-1.51-1.32-2.68l.02-.06h2.02c0,.55,.24,1.02,.71,1.43,.48,.4,1.09,.61,1.84,.61s1.37-.18,1.8-.54c.43-.36,.64-.8,.64-1.33,0-.63-.19-1.08-.56-1.37s-.95-.43-1.75-.43h-2.03v-1.73h2.03Z"/><path class="c" d="M61.55,79.92c0,1.69-.4,3.05-1.21,4.08-.81,1.03-1.92,1.55-3.34,1.55-.72,0-1.35-.12-1.9-.36-.54-.24-1.01-.6-1.39-1.09v5.72h-2.13v-16.2h1.63l.33,1.51c.38-.56,.86-.99,1.43-1.29,.57-.3,1.23-.44,1.99-.44,1.45,0,2.57,.57,3.38,1.72,.8,1.15,1.21,2.67,1.21,4.56v.23Zm-2.13-.23c0-1.32-.26-2.41-.78-3.27s-1.29-1.28-2.31-1.28c-.61,0-1.13,.14-1.57,.42-.43,.28-.78,.66-1.05,1.14v5.65c.27,.48,.62,.86,1.05,1.13s.96,.4,1.59,.4c1.01,0,1.77-.37,2.29-1.11,.52-.74,.78-1.69,.78-2.86v-.23Z"/><path class="c" d="M69.37,85.55c-1.63,0-2.92-.54-3.89-1.63-.96-1.08-1.44-2.49-1.44-4.22v-.48c0-1.67,.5-3.05,1.49-4.16,.99-1.11,2.16-1.66,3.52-1.66,1.58,0,2.77,.48,3.58,1.43,.81,.95,1.21,2.22,1.21,3.81v1.33h-7.59l-.03,.05c.02,1.12,.31,2.04,.85,2.77s1.32,1.08,2.3,1.08c.72,0,1.35-.1,1.9-.31s1.01-.49,1.41-.85l.83,1.39c-.42,.41-.97,.76-1.65,1.03s-1.51,.41-2.49,.41Zm-.32-10.47c-.71,0-1.32,.3-1.83,.9-.5,.6-.81,1.35-.93,2.26l.02,.05h5.39v-.28c0-.83-.22-1.53-.67-2.09-.45-.56-1.11-.84-1.99-.84Z"/><path class="c" d="M78.71,73.62v10.02h4.12v-10.02h2.13v10.02h4.12v-10.02h2.13v11.7h-14.63v-11.7h2.13Z"/><path class="c" d="M99.58,85.55c-1.63,0-2.92-.54-3.89-1.63-.96-1.08-1.44-2.49-1.44-4.22v-.48c0-1.67,.5-3.05,1.49-4.16s2.16-1.66,3.52-1.66c1.58,0,2.77,.48,3.58,1.43,.81,.95,1.21,2.22,1.21,3.81v1.33h-7.59l-.03,.05c.02,1.12,.31,2.04,.85,2.77,.55,.72,1.31,1.08,2.3,1.08,.72,0,1.35-.1,1.9-.31,.54-.21,1.01-.49,1.41-.85l.83,1.39c-.42,.41-.97,.76-1.65,1.03s-1.51,.41-2.49,.41Zm-.32-10.47c-.71,0-1.32,.3-1.83,.9-.5,.6-.82,1.35-.93,2.26l.02,.05h5.39v-.28c0-.83-.22-1.53-.67-2.09-.45-.56-1.11-.84-1.99-.84Z"/><path class="c" d="M116.26,85.32h-2.13v-4.96h-5.21v4.96h-2.13v-11.7h2.13v5.06h5.21v-5.06h2.13v11.7Z"/><path class="c" d="M129.21,80.36h-1.39v4.96h-2.13v-11.7h2.13v4.94h1.23l3.86-4.94h2.5l.03,.05-4.58,5.55,4.95,6.04-.03,.05h-2.62l-3.95-4.96Z"/><path class="c" d="M153.02,85.32h-2.13v-10.02h-5.22v10.02h-2.13v-11.7h9.48v11.7Z"/><path class="c" d="M166.44,79.92c0,1.69-.4,3.05-1.21,4.08-.81,1.03-1.92,1.55-3.34,1.55-.72,0-1.35-.12-1.9-.36-.54-.24-1.01-.6-1.39-1.09v5.72h-2.13v-16.2h1.63l.33,1.51c.38-.56,.86-.99,1.43-1.29s1.23-.44,1.99-.44c1.45,0,2.58,.57,3.38,1.72,.8,1.15,1.21,2.67,1.21,4.56v.23Zm-2.13-.23c0-1.32-.26-2.41-.78-3.27-.52-.85-1.29-1.28-2.31-1.28-.61,0-1.14,.14-1.57,.42-.43,.28-.78,.66-1.05,1.14v5.65c.27,.48,.62,.86,1.05,1.13,.43,.27,.96,.4,1.59,.4,1.01,0,1.77-.37,2.29-1.11s.78-1.69,.78-2.86v-.23Z"/><path class="c" d="M176.76,73.62h2.13v11.7h-2.13v-8.3l-.06-.02-5.17,8.32h-2.12v-11.7h2.12v8.3l.06,.02,5.17-8.32Z"/><path class="c" d="M189.01,82.53h.07l3.83-8.91h2.66v11.7h-2.13v-8.12l-.06-.02-3.59,8.14h-1.47l-3.65-8.32-.06,.02v8.3h-2.13v-11.7h2.75l3.8,8.91Z"/><path class="c" d="M204.08,85.55c-1.63,0-2.92-.54-3.89-1.63-.96-1.08-1.44-2.49-1.44-4.22v-.48c0-1.67,.5-3.05,1.49-4.16s2.16-1.66,3.52-1.66c1.58,0,2.77,.48,3.58,1.43,.81,.95,1.21,2.22,1.21,3.81v1.33h-7.59l-.03,.05c.02,1.12,.31,2.04,.85,2.77,.55,.72,1.31,1.08,2.3,1.08,.72,0,1.35-.1,1.9-.31,.54-.21,1.01-.49,1.41-.85l.83,1.39c-.42,.41-.97,.76-1.65,1.03s-1.51,.41-2.49,.41Zm-.32-10.47c-.71,0-1.32,.3-1.83,.9-.5,.6-.82,1.35-.93,2.26l.02,.05h5.39v-.28c0-.83-.22-1.53-.67-2.09-.45-.56-1.11-.84-1.99-.84Z"/><path class="c" d="M220.76,85.32h-2.13v-4.96h-5.21v4.96h-2.13v-11.7h2.13v5.06h5.21v-5.06h2.13v11.7Z"/><path class="c" d="M229.08,85.55c-1.63,0-2.92-.54-3.89-1.63-.96-1.08-1.44-2.49-1.44-4.22v-.48c0-1.67,.5-3.05,1.49-4.16,.99-1.11,2.16-1.66,3.52-1.66,1.58,0,2.77,.48,3.58,1.43,.81,.95,1.21,2.22,1.21,3.81v1.33h-7.59l-.03,.05c.02,1.12,.31,2.04,.85,2.77s1.32,1.08,2.3,1.08c.72,0,1.35-.1,1.9-.31s1.01-.49,1.41-.85l.83,1.39c-.42,.41-.97,.76-1.65,1.03s-1.51,.41-2.49,.41Zm-.32-10.47c-.71,0-1.32,.3-1.83,.9-.5,.6-.81,1.35-.93,2.26l.02,.05h5.39v-.28c0-.83-.22-1.53-.67-2.09-.45-.56-1.11-.84-1.99-.84Z"/><path class="c" d="M245.76,85.32h-2.13v-4.96h-5.21v4.96h-2.13v-11.7h2.13v5.06h5.21v-5.06h2.13v11.7Z"/><path class="c" d="M256.58,73.62h2.13v11.7h-2.13v-8.3l-.06-.02-5.17,8.32h-2.12v-11.7h2.12v8.3l.06,.02,5.17-8.32Z"/><path class="c" d="M264.4,78.56h2.77c.14-1.53,.68-2.77,1.59-3.72s2.12-1.43,3.59-1.43c1.62,0,2.9,.56,3.84,1.68s1.41,2.54,1.41,4.28v.24c0,1.74-.47,3.17-1.41,4.28-.94,1.11-2.21,1.67-3.83,1.67-1.51,0-2.73-.49-3.66-1.47-.93-.98-1.45-2.26-1.56-3.84h-2.76v5.08h-2.13v-11.7h2.13v4.94Zm4.86,1.03c0,1.24,.26,2.26,.78,3.07,.52,.81,1.3,1.21,2.33,1.21s1.79-.4,2.31-1.21c.53-.81,.79-1.83,.79-3.07v-.24c0-1.22-.26-2.24-.79-3.06-.53-.81-1.31-1.22-2.33-1.22s-1.79,.41-2.31,1.22-.78,1.83-.78,3.06v.24Z"/><path class="c" d="M286.31,83.65c.6-.69,1.06-1.41,1.37-2.17,.32-.75,.53-1.91,.64-3.46l.17-4.4h7.64v10.02h1.56l-.21,5.11h-1.92v-3.44h-8.04v3.44h-1.92l-.21-5.11h.92Zm4.14-5.62c-.08,1.3-.26,2.4-.56,3.31s-.67,1.68-1.13,2.31h5.24v-8.13h-3.46l-.1,2.5Z"/><path class="c" d="M307.47,85.32c-.07-.35-.13-.67-.17-.94-.04-.27-.06-.54-.07-.82-.4,.56-.91,1.03-1.55,1.41-.64,.38-1.32,.57-2.06,.57-1.22,0-2.15-.31-2.78-.94s-.96-1.48-.96-2.58,.45-1.99,1.36-2.62c.9-.63,2.13-.95,3.68-.95h2.31v-1.16c0-.68-.21-1.23-.63-1.63s-1.01-.6-1.77-.6c-.69,0-1.24,.17-1.67,.52s-.64,.77-.64,1.26h-2.03l-.02-.06c-.04-.85,.36-1.63,1.21-2.33,.85-.71,1.94-1.06,3.28-1.06s2.39,.34,3.2,1.01c.81,.67,1.21,1.65,1.21,2.91v5.63c0,.42,.02,.82,.07,1.21,.04,.39,.12,.77,.24,1.15h-2.19Zm-3.54-1.57c.77,0,1.47-.2,2.09-.59,.62-.4,1.02-.85,1.21-1.36v-1.9h-2.39c-.86,0-1.54,.22-2.06,.65-.52,.43-.77,.94-.77,1.52,0,.52,.16,.93,.49,1.23,.32,.3,.8,.45,1.44,.45Z"/><path class="c" d="M322.12,80.24h-1.36v5.08h-2.13v-5.08h-1.37l-3.09,5.08h-2.68l4.17-6.2-3.81-5.5h2.57l2.88,4.82h1.33v-4.82h2.13v4.82h1.33l2.89-4.82h2.57l-3.82,5.5,4.17,6.2h-2.68l-3.1-5.08Z"/><path class="c" d="M334.75,85.55c-1.63,0-2.92-.54-3.89-1.63-.96-1.08-1.44-2.49-1.44-4.22v-.48c0-1.67,.5-3.05,1.49-4.16,.99-1.11,2.16-1.66,3.52-1.66,1.58,0,2.77,.48,3.58,1.43,.81,.95,1.21,2.22,1.21,3.81v1.33h-7.59l-.03,.05c.02,1.12,.31,2.04,.85,2.77s1.32,1.08,2.3,1.08c.72,0,1.35-.1,1.9-.31s1.01-.49,1.41-.85l.83,1.39c-.42,.41-.97,.76-1.65,1.03s-1.51,.41-2.49,.41Zm-.32-10.47c-.71,0-1.32,.3-1.83,.9-.5,.6-.81,1.35-.93,2.26l.02,.05h5.39v-.28c0-.83-.22-1.53-.67-2.09-.45-.56-1.11-.84-1.99-.84Z"/><path class="c" d="M352.96,74.29c1.49,0,2.67,.5,3.54,1.49,.87,.99,1.3,2.26,1.3,3.81v.24c0,1.68-.47,3.05-1.41,4.12-.94,1.07-2.21,1.6-3.83,1.6s-2.89-.53-3.83-1.6c-.94-1.07-1.41-2.44-1.41-4.12v-1.52c0-2.31,.48-4.15,1.45-5.52,.97-1.37,2.27-2.22,3.9-2.54,.91-.16,1.57-.36,1.97-.59,.41-.23,.61-.6,.61-1.12h1.64l.02,.06c.02,1.27-.28,2.1-.9,2.5s-1.6,.71-2.95,.94c-.98,.17-1.82,.54-2.52,1.14s-1.13,1.46-1.29,2.61l.04,.05c.43-.45,.96-.82,1.6-1.11,.64-.28,1.33-.43,2.05-.43Zm-.42,1.68c-1.02,0-1.78,.34-2.3,1.03-.52,.69-.78,1.55-.78,2.59v.24c0,1.17,.26,2.14,.78,2.9,.52,.76,1.29,1.14,2.32,1.14s1.79-.38,2.31-1.14c.53-.76,.79-1.73,.79-2.9v-.24c0-1.04-.27-1.9-.79-2.59-.53-.69-1.31-1.03-2.33-1.03Z"/><path class="c" d="M365.27,85.55c-1.63,0-2.92-.54-3.89-1.63-.96-1.08-1.44-2.49-1.44-4.22v-.48c0-1.67,.5-3.05,1.49-4.16,.99-1.11,2.16-1.66,3.52-1.66,1.58,0,2.77,.48,3.58,1.43,.81,.95,1.21,2.22,1.21,3.81v1.33h-7.59l-.03,.05c.02,1.12,.31,2.04,.85,2.77s1.32,1.08,2.3,1.08c.72,0,1.35-.1,1.9-.31s1.01-.49,1.41-.85l.83,1.39c-.42,.41-.97,.76-1.65,1.03s-1.51,.41-2.49,.41Zm-.32-10.47c-.71,0-1.32,.3-1.83,.9-.5,.6-.81,1.35-.93,2.26l.02,.05h5.39v-.28c0-.83-.22-1.53-.67-2.09-.45-.56-1.11-.84-1.99-.84Z"/><path class="c" d="M382.45,79.92c0,1.69-.4,3.05-1.21,4.08-.81,1.03-1.92,1.55-3.34,1.55-.72,0-1.35-.12-1.9-.36-.54-.24-1.01-.6-1.39-1.09v5.72h-2.13v-16.2h1.63l.33,1.51c.38-.56,.86-.99,1.43-1.29s1.23-.44,1.99-.44c1.45,0,2.58,.57,3.38,1.72,.8,1.15,1.21,2.67,1.21,4.56v.23Zm-2.13-.23c0-1.32-.26-2.41-.78-3.27-.52-.85-1.29-1.28-2.31-1.28-.61,0-1.14,.14-1.57,.42-.43,.28-.78,.66-1.05,1.14v5.65c.27,.48,.62,.86,1.05,1.13,.43,.27,.96,.4,1.59,.4,1.01,0,1.77-.37,2.29-1.11s.78-1.69,.78-2.86v-.23Z"/><path class="c" d="M390.27,85.55c-1.63,0-2.92-.54-3.89-1.63-.96-1.08-1.44-2.49-1.44-4.22v-.48c0-1.67,.5-3.05,1.49-4.16s2.16-1.66,3.52-1.66c1.58,0,2.77,.48,3.58,1.43,.81,.95,1.21,2.22,1.21,3.81v1.33h-7.59l-.03,.05c.02,1.12,.31,2.04,.85,2.77,.55,.72,1.31,1.08,2.3,1.08,.72,0,1.35-.1,1.9-.31,.54-.21,1.01-.49,1.41-.85l.83,1.39c-.42,.41-.97,.76-1.65,1.03s-1.51,.41-2.49,.41Zm-.32-10.47c-.71,0-1.32,.3-1.83,.9-.5,.6-.82,1.35-.93,2.26l.02,.05h5.39v-.28c0-.83-.22-1.53-.67-2.09-.45-.56-1.11-.84-1.99-.84Z"/><path class="c" d="M404.14,82.53h.06l3.83-8.91h2.66v11.7h-2.13v-8.12l-.07-.02-3.59,8.14h-1.47l-3.65-8.32-.06,.02v8.3h-2.13v-11.7h2.75l3.81,8.91Z"/><path class="c" d="M419.21,85.55c-1.63,0-2.92-.54-3.89-1.63-.96-1.08-1.44-2.49-1.44-4.22v-.48c0-1.67,.5-3.05,1.49-4.16,.99-1.11,2.16-1.66,3.52-1.66,1.58,0,2.77,.48,3.58,1.43,.81,.95,1.21,2.22,1.21,3.81v1.33h-7.59l-.03,.05c.02,1.12,.31,2.04,.85,2.77s1.32,1.08,2.3,1.08c.72,0,1.35-.1,1.9-.31s1.01-.49,1.41-.85l.83,1.39c-.42,.41-.97,.76-1.65,1.03s-1.51,.41-2.49,.41Zm-.32-10.47c-.71,0-1.32,.3-1.83,.9-.5,.6-.81,1.35-.93,2.26l.02,.05h5.39v-.28c0-.83-.22-1.53-.67-2.09-.45-.56-1.11-.84-1.99-.84Z"/><path class="c" d="M435.89,85.32h-2.13v-4.96h-5.21v4.96h-2.13v-11.7h2.13v5.06h5.21v-5.06h2.13v11.7Z"/><path class="c" d="M448.83,85.32h-2.13v-4.96h-5.21v4.96h-2.13v-11.7h2.13v5.06h5.21v-5.06h2.13v11.7Z"/><path class="c" d="M454.75,78.08h2.91c1.38,0,2.46,.33,3.23,.99s1.15,1.52,1.15,2.58-.39,1.94-1.16,2.63c-.78,.69-1.85,1.03-3.22,1.03h-5.04v-11.7h2.13v4.45Zm0,1.68v3.89h2.91c.76,0,1.33-.18,1.69-.55,.36-.37,.55-.82,.55-1.37s-.18-.99-.55-1.39c-.37-.39-.93-.59-1.69-.59h-2.91Zm11.48,5.57h-2.13v-11.7h2.13v11.7Z"/><path class="c" d="M476.79,82.53h.07l3.83-8.91h2.66v11.7h-2.13v-8.12l-.06-.02-3.59,8.14h-1.47l-3.65-8.32-.06,.02v8.3h-2.13v-11.7h2.75l3.8,8.91Z"/><path class="c" d="M488.87,84.8l-1.62,3.31h-1.26l.76-3.42v-1.76h2.13v1.87Z"/><path class="c" d="M501.22,80.36h-1.39v4.96h-2.13v-11.7h2.13v4.94h1.23l3.86-4.94h2.5l.03,.05-4.58,5.55,4.95,6.04-.03,.05h-2.62l-3.95-4.96Z"/><path class="c" d="M508.58,79.36c0-1.73,.47-3.15,1.41-4.28,.94-1.12,2.21-1.68,3.82-1.68s2.9,.56,3.84,1.68,1.41,2.54,1.41,4.28v.24c0,1.74-.47,3.17-1.41,4.28-.94,1.11-2.21,1.67-3.83,1.67s-2.89-.56-3.83-1.67c-.94-1.11-1.41-2.54-1.41-4.28v-.24Zm2.13,.23c0,1.24,.26,2.26,.78,3.07,.52,.81,1.3,1.21,2.33,1.21s1.79-.4,2.31-1.21c.53-.81,.79-1.83,.79-3.07v-.24c0-1.22-.27-2.24-.79-3.06s-1.31-1.22-2.33-1.22-1.79,.41-2.31,1.22c-.52,.81-.78,1.83-.78,3.06v.24Z"/><path class="c" d="M531.98,79.92c0,1.69-.4,3.05-1.21,4.08-.81,1.03-1.92,1.55-3.34,1.55-.72,0-1.35-.12-1.9-.36-.54-.24-1.01-.6-1.39-1.09v5.72h-2.13v-16.2h1.63l.33,1.51c.38-.56,.86-.99,1.43-1.29s1.23-.44,1.99-.44c1.45,0,2.58,.57,3.38,1.72,.8,1.15,1.21,2.67,1.21,4.56v.23Zm-2.13-.23c0-1.32-.26-2.41-.78-3.27-.52-.85-1.29-1.28-2.31-1.28-.61,0-1.14,.14-1.57,.42-.43,.28-.78,.66-1.05,1.14v5.65c.27,.48,.62,.86,1.05,1.13,.43,.27,.96,.4,1.59,.4,1.01,0,1.77-.37,2.29-1.11s.78-1.69,.78-2.86v-.23Z"/><path class="c" d="M541.61,82.53h.07l3.83-8.91h2.66v11.7h-2.13v-8.12l-.06-.02-3.59,8.14h-1.47l-3.65-8.32-.06,.02v8.3h-2.13v-11.7h2.75l3.8,8.91Z"/><path class="c" d="M561.2,73.62v11.7h-2.13v-4.54h-2.89l-2.77,4.54h-2.29l2.96-4.85c-.74-.27-1.31-.69-1.71-1.26-.4-.58-.6-1.24-.6-2,0-1.05,.4-1.91,1.19-2.58,.8-.67,1.89-1,3.29-1h4.94Zm-7.29,3.61c0,.52,.18,.96,.53,1.32,.35,.37,.88,.55,1.59,.55h3.04v-3.81h-2.81c-.77,0-1.35,.19-1.75,.58-.4,.38-.59,.84-.59,1.36Z"/><path class="c" d="M566.89,73.62v10.02h4.12v-10.02h2.13v10.02h4.12v-10.02h2.13v10.12h1.9v5.23h-2.11v-3.65h-14.42v-11.7h2.13Z"/><path class="c" d="M591.19,73.62h2.13v11.7h-2.13v-8.3l-.06-.02-5.17,8.32h-2.12v-11.7h2.12v8.3l.06,.02,5.17-8.32Z"/><path class="c" d="M603.43,82.53h.07l3.83-8.91h2.66v11.7h-2.13v-8.12l-.06-.02-3.59,8.14h-1.47l-3.65-8.32-.06,.02v8.3h-2.13v-11.7h2.75l3.8,8.91Z"/><path class="c" d="M626.86,73.62h2.13v11.7h-2.13v-8.3l-.06-.02-5.17,8.32h-2.12v-11.7h2.12v8.3l.06,.02,5.17-8.32Z"/><path class="c" d="M638.17,83.65c.6-.69,1.06-1.41,1.37-2.17,.32-.75,.53-1.91,.64-3.46l.17-4.4h7.64v10.02h1.56l-.21,5.11h-1.92v-3.44h-8.04v3.44h-1.92l-.21-5.11h.92Zm4.14-5.62c-.08,1.3-.27,2.4-.56,3.31-.29,.91-.67,1.68-1.13,2.31h5.24v-8.13h-3.46l-.1,2.5Z"/><path class="c" d="M656.99,85.55c-1.63,0-2.92-.54-3.89-1.63-.96-1.08-1.44-2.49-1.44-4.22v-.48c0-1.67,.5-3.05,1.49-4.16,.99-1.11,2.16-1.66,3.52-1.66,1.58,0,2.77,.48,3.58,1.43,.81,.95,1.21,2.22,1.21,3.81v1.33h-7.59l-.03,.05c.02,1.12,.31,2.04,.85,2.77s1.32,1.08,2.3,1.08c.72,0,1.35-.1,1.9-.31s1.01-.49,1.41-.85l.83,1.39c-.42,.41-.97,.76-1.65,1.03s-1.51,.41-2.49,.41Zm-.32-10.47c-.71,0-1.32,.3-1.83,.9-.5,.6-.81,1.35-.93,2.26l.02,.05h5.39v-.28c0-.83-.22-1.53-.67-2.09-.45-.56-1.11-.84-1.99-.84Z"/><path class="c" d="M673.1,75.3h-3.86v10.02h-2.13v-10.02h-3.81v-1.68h9.8v1.68Z"/><path class="c" d="M685.14,73.62v11.7h-2.13v-4.54h-2.89l-2.77,4.54h-2.29l2.96-4.85c-.74-.27-1.31-.69-1.71-1.26-.4-.58-.6-1.24-.6-2,0-1.05,.4-1.91,1.19-2.58s1.89-1,3.29-1h4.94Zm-7.29,3.61c0,.52,.18,.96,.53,1.32,.35,.37,.88,.55,1.59,.55h3.04v-3.81h-2.81c-.77,0-1.36,.19-1.75,.58-.4,.38-.59,.84-.59,1.36Z"/><path class="c" d="M695.35,82.53h.06l3.83-8.91h2.66v11.7h-2.13v-8.12l-.07-.02-3.59,8.14h-1.47l-3.65-8.32-.06,.02v8.3h-2.13v-11.7h2.75l3.81,8.91Z"/><path class="c" d="M716.18,83.87c.71,0,1.33-.22,1.87-.65,.54-.44,.81-.97,.81-1.61h1.91l.02,.06c.04,1.01-.41,1.91-1.35,2.69s-2.02,1.18-3.26,1.18c-1.7,0-3-.56-3.9-1.67-.9-1.11-1.35-2.5-1.35-4.18v-.45c0-1.66,.45-3.05,1.36-4.17s2.2-1.67,3.9-1.67c1.37,0,2.49,.4,3.36,1.21,.87,.81,1.29,1.8,1.26,2.97l-.02,.06h-1.92c0-.71-.25-1.32-.76-1.82-.5-.5-1.14-.75-1.91-.75-1.12,0-1.92,.4-2.39,1.2s-.72,1.79-.72,2.95v.45c0,1.19,.24,2.19,.71,2.99,.48,.8,1.28,1.19,2.4,1.19Z"/><path class="c" d="M732.03,76.47h1.86c.94,0,1.61-.24,2-.71s.59-1.13,.59-1.97c0-.9-.22-1.59-.67-2.05-.45-.47-1.11-.7-1.98-.7s-1.49,.24-1.99,.73c-.5,.49-.75,1.13-.75,1.94h-2.04l-.02-.06c-.04-1.19,.39-2.2,1.29-3.03s2.07-1.25,3.52-1.25,2.62,.39,3.48,1.16c.87,.77,1.3,1.88,1.3,3.31,0,.65-.2,1.3-.59,1.94s-.98,1.14-1.77,1.48c.94,.31,1.61,.8,2.01,1.46,.39,.66,.59,1.41,.59,2.23,0,1.43-.47,2.56-1.41,3.38-.94,.82-2.14,1.23-3.61,1.23s-2.62-.39-3.56-1.16c-.94-.77-1.39-1.83-1.36-3.15l.03-.06h2.03c0,.83,.25,1.48,.76,1.97,.51,.49,1.21,.73,2.09,.73s1.61-.24,2.12-.73,.77-1.21,.77-2.17-.23-1.68-.68-2.14-1.17-.69-2.15-.69h-1.86v-1.68Z"/><path class="c" d="M746.34,79.5h-5.3v-1.67h5.3v1.67Z"/><path class="c" d="M752.59,77.94l2.49-4.31h2.49l-3.79,5.78,3.9,5.91h-2.44l-2.59-4.42-2.59,4.42h-2.46l3.9-5.91-3.79-5.78h2.45l2.45,4.31Z"/><path class="c" d="M775.45,73.62v11.7h-2.13v-10.02h-3.96v3.31c0,2.31-.31,4-.92,5.09-.61,1.08-1.66,1.62-3.13,1.62h-.61l.04-1.79h.44c.76-.01,1.29-.38,1.58-1.12s.45-2,.45-3.78v-5.01h8.23Z"/><path class="c" d="M783.43,85.55c-1.63,0-2.92-.54-3.89-1.63-.96-1.08-1.44-2.49-1.44-4.22v-.48c0-1.67,.5-3.05,1.49-4.16s2.16-1.66,3.52-1.66c1.58,0,2.77,.48,3.58,1.43,.81,.95,1.21,2.22,1.21,3.81v1.33h-7.59l-.03,.05c.02,1.12,.31,2.04,.85,2.77s1.32,1.08,2.3,1.08c.72,0,1.35-.1,1.9-.31,.54-.21,1.01-.49,1.41-.85l.83,1.39c-.42,.41-.97,.76-1.65,1.03s-1.51,.41-2.49,.41Zm-.32-10.47c-.71,0-1.32,.3-1.83,.9-.5,.6-.81,1.35-.93,2.26l.02,.05h5.39v-.28c0-.83-.22-1.53-.67-2.09-.45-.56-1.11-.84-1.99-.84Z"/><path class="c" d="M799.54,75.3h-3.86v10.02h-2.13v-10.02h-3.81v-1.68h9.79v1.68Z"/><path class="c" d="M804.53,85.32h-2.13v-2.21h2.13v2.21Z"/><path class="c" d="M22.91,97.83h-7.52v4.55h3.88c1.68,0,2.99,.43,3.92,1.29,.93,.86,1.4,2,1.4,3.42s-.47,2.58-1.41,3.47c-.94,.89-2.24,1.33-3.91,1.33h-6.01v-15.74h9.65v1.68Zm-7.52,6.23v6.16h3.88c1.06,0,1.86-.3,2.39-.91,.53-.61,.8-1.35,.8-2.24s-.26-1.57-.79-2.15c-.53-.58-1.33-.86-2.39-.86h-3.88Z"/><path class="c" d="M36.29,107.84h-6.59l-1.49,4.05h-2.17l6.09-15.74h1.83l5.99,15.74h-2.17l-1.47-4.05Zm-5.94-1.78h5.3l-2.59-7.17h-.06l-2.64,7.17Z"/><path class="c" d="M54.69,110.21h2.16l-.22,5.54h-1.91v-3.86h-11.36v3.88h-1.81l-.32-5.56h1.35c.55-.63,1.06-1.55,1.52-2.76,.46-1.21,.71-2.86,.76-4.94l.36-6.36h9.47v14.07Zm-7.68-7.7c-.06,1.71-.28,3.22-.65,4.53-.37,1.3-.84,2.36-1.42,3.18h7.61v-12.39h-5.3l-.25,4.69Z"/><path class="c" d="M61.23,111.37l-1.62,3.31h-1.26l.76-3.42v-1.76h2.13v1.87Z"/><path class="c" d="M79.42,111.89h-2.13v-4.96h-5.21v4.96h-2.13v-11.7h2.13v5.06h5.21v-5.06h2.13v11.7Z"/><path class="c" d="M87.74,112.12c-1.63,0-2.92-.54-3.89-1.63-.96-1.08-1.44-2.49-1.44-4.22v-.48c0-1.67,.5-3.05,1.49-4.16,.99-1.11,2.16-1.66,3.52-1.66,1.58,0,2.77,.48,3.58,1.43,.81,.95,1.21,2.22,1.21,3.81v1.33h-7.59l-.03,.05c.02,1.12,.31,2.04,.85,2.77s1.32,1.08,2.3,1.08c.72,0,1.35-.1,1.9-.31s1.01-.49,1.41-.85l.83,1.39c-.42,.41-.97,.76-1.65,1.03s-1.51,.41-2.49,.41Zm-.32-10.47c-.71,0-1.32,.3-1.83,.9-.5,.6-.81,1.35-.93,2.26l.02,.05h5.39v-.28c0-.83-.22-1.53-.67-2.09-.45-.56-1.11-.84-1.99-.84Z"/><path class="c" d="M110.18,100.19v11.7h-2.13v-4.54h-2.89l-2.77,4.54h-2.29l2.96-4.85c-.74-.27-1.31-.69-1.71-1.26s-.6-1.24-.6-2c0-1.05,.4-1.91,1.19-2.58,.8-.67,1.89-1,3.29-1h4.94Zm-7.29,3.61c0,.52,.18,.96,.53,1.32s.88,.55,1.59,.55h3.04v-3.81h-2.81c-.77,0-1.36,.19-1.75,.58-.4,.38-.59,.84-.59,1.36Z"/><path class="c" d="M113.74,111.89v-11.7h4.62c1.54,0,2.74,.27,3.59,.81,.85,.54,1.28,1.34,1.28,2.42,0,.55-.17,1.04-.5,1.46-.33,.43-.8,.76-1.41,.98,.73,.18,1.29,.52,1.7,1.01,.41,.49,.61,1.06,.61,1.69,0,1.1-.4,1.92-1.2,2.49-.8,.56-1.91,.84-3.33,.84h-5.36Zm2.13-6.76h2.5c.9,0,1.58-.13,2.04-.4,.46-.27,.69-.67,.69-1.2s-.23-.97-.69-1.25c-.46-.28-1.14-.42-2.04-.42h-2.49v3.27Zm0,1.63v3.48h3.23c.79,0,1.38-.15,1.78-.45,.4-.3,.61-.73,.61-1.29s-.2-.98-.61-1.29c-.4-.3-1-.45-1.78-.45h-3.23Z"/><path class="c" d="M136.15,100.19v11.7h-2.13v-10.02h-3.96v3.31c0,2.31-.31,4-.92,5.09-.61,1.08-1.66,1.62-3.13,1.62h-.61l.04-1.79h.44c.76-.01,1.28-.38,1.58-1.12,.3-.74,.45-2,.45-3.78v-5.01h8.23Z"/><path class="c" d="M148.65,100.19v11.7h-2.13v-4.54h-2.89l-2.77,4.54h-2.29l2.96-4.85c-.74-.27-1.31-.69-1.71-1.26s-.6-1.24-.6-2c0-1.05,.4-1.91,1.19-2.58,.8-.67,1.89-1,3.29-1h4.94Zm-7.29,3.61c0,.52,.18,.96,.53,1.32s.88,.55,1.59,.55h3.04v-3.81h-2.81c-.77,0-1.36,.19-1.75,.58-.4,.38-.59,.84-.59,1.36Z"/><path class="c" d="M157.06,112.12c-1.63,0-2.92-.54-3.89-1.63-.96-1.08-1.44-2.49-1.44-4.22v-.48c0-1.67,.5-3.05,1.49-4.16s2.16-1.66,3.52-1.66c1.58,0,2.77,.48,3.58,1.43,.81,.95,1.21,2.22,1.21,3.81v1.33h-7.59l-.03,.05c.02,1.12,.31,2.04,.85,2.77,.55,.72,1.31,1.08,2.3,1.08,.72,0,1.35-.1,1.9-.31,.54-.21,1.01-.49,1.41-.85l.83,1.39c-.42,.41-.97,.76-1.65,1.03s-1.51,.41-2.49,.41Zm-.32-10.47c-.71,0-1.32,.3-1.83,.9-.5,.6-.82,1.35-.93,2.26l.02,.05h5.39v-.28c0-.83-.22-1.53-.67-2.09-.45-.56-1.11-.84-1.99-.84Z"/><path class="c" d="M173.16,101.87h-3.86v10.02h-2.13v-10.02h-3.81v-1.68h9.79v1.68Z"/><path class="c" d="M180.39,110.44c.71,0,1.33-.22,1.87-.65,.54-.44,.8-.97,.8-1.61h1.91l.02,.06c.04,1.01-.41,1.91-1.35,2.69s-2.02,1.18-3.26,1.18c-1.7,0-3-.56-3.9-1.67-.9-1.11-1.35-2.5-1.35-4.18v-.45c0-1.66,.45-3.05,1.36-4.17s2.2-1.67,3.9-1.67c1.37,0,2.49,.4,3.36,1.21,.87,.81,1.29,1.8,1.26,2.97l-.02,.06h-1.92c0-.71-.25-1.32-.76-1.82-.5-.5-1.14-.75-1.91-.75-1.12,0-1.92,.4-2.39,1.2s-.72,1.79-.72,2.95v.45c0,1.19,.24,2.19,.71,2.99,.48,.8,1.28,1.19,2.4,1.19Z"/><path class="c" d="M197.11,100.19v11.7h-2.13v-4.54h-2.89l-2.77,4.54h-2.29l2.96-4.85c-.74-.27-1.31-.69-1.71-1.26s-.6-1.24-.6-2c0-1.05,.4-1.91,1.19-2.58,.8-.67,1.89-1,3.29-1h4.94Zm-7.29,3.61c0,.52,.18,.96,.53,1.32s.88,.55,1.59,.55h3.04v-3.81h-2.81c-.77,0-1.36,.19-1.75,.58-.4,.38-.59,.84-.59,1.36Z"/><path class="c" d="M216.01,100.19v11.7h-2.13v-10.02h-3.96v3.31c0,2.31-.31,4-.92,5.09-.61,1.08-1.66,1.62-3.14,1.62h-.61l.04-1.79h.44c.76-.01,1.29-.38,1.58-1.12s.45-2,.45-3.78v-5.01h8.23Z"/><path class="c" d="M223.98,112.12c-1.63,0-2.92-.54-3.89-1.63-.96-1.08-1.44-2.49-1.44-4.22v-.48c0-1.67,.5-3.05,1.49-4.16,.99-1.11,2.16-1.66,3.52-1.66,1.58,0,2.77,.48,3.58,1.43,.81,.95,1.21,2.22,1.21,3.81v1.33h-7.59l-.03,.05c.02,1.12,.31,2.04,.85,2.77s1.32,1.08,2.3,1.08c.72,0,1.35-.1,1.9-.31s1.01-.49,1.41-.85l.83,1.39c-.42,.41-.97,.76-1.65,1.03s-1.51,.41-2.49,.41Zm-.32-10.47c-.71,0-1.32,.3-1.83,.9-.5,.6-.81,1.35-.93,2.26l.02,.05h5.39v-.28c0-.83-.22-1.53-.67-2.09-.45-.56-1.11-.84-1.99-.84Z"/><path class="c" d="M234.83,106.93h-1.39v4.96h-2.13v-11.7h2.13v4.94h1.23l3.86-4.94h2.5l.03,.05-4.58,5.55,4.95,6.04-.03,.05h-2.62l-3.95-4.96Z"/><path class="c" d="M250.48,111.89c-.07-.35-.13-.67-.17-.94-.04-.27-.06-.54-.07-.82-.4,.56-.91,1.03-1.55,1.41-.64,.38-1.32,.57-2.06,.57-1.22,0-2.15-.31-2.78-.94-.64-.62-.96-1.48-.96-2.58s.45-1.99,1.36-2.62c.9-.63,2.13-.95,3.68-.95h2.31v-1.16c0-.68-.21-1.23-.63-1.63s-1.01-.6-1.77-.6c-.68,0-1.24,.17-1.67,.52s-.64,.77-.64,1.26h-2.03l-.02-.06c-.04-.85,.36-1.63,1.21-2.33s1.94-1.06,3.28-1.06,2.39,.34,3.2,1.01c.81,.67,1.21,1.65,1.21,2.91v5.63c0,.42,.02,.82,.06,1.21,.04,.39,.12,.77,.24,1.15h-2.2Zm-3.54-1.57c.77,0,1.47-.2,2.09-.59,.62-.4,1.02-.85,1.21-1.36v-1.9h-2.39c-.86,0-1.54,.22-2.06,.65s-.77,.94-.77,1.52c0,.52,.16,.93,.49,1.23,.32,.3,.8,.45,1.44,.45Z"/><path class="c" d="M265.78,106.48c0,1.69-.4,3.05-1.21,4.08-.81,1.03-1.92,1.55-3.34,1.55-.72,0-1.35-.12-1.9-.36-.54-.24-1.01-.6-1.39-1.09v5.72h-2.13v-16.2h1.63l.33,1.51c.38-.56,.86-.99,1.43-1.29s1.23-.44,1.99-.44c1.45,0,2.58,.57,3.38,1.72,.8,1.15,1.21,2.67,1.21,4.56v.23Zm-2.13-.23c0-1.32-.26-2.41-.78-3.27-.52-.85-1.29-1.28-2.31-1.28-.61,0-1.14,.14-1.57,.42-.43,.28-.78,.66-1.05,1.14v5.65c.27,.48,.62,.86,1.05,1.13,.43,.27,.96,.4,1.59,.4,1.01,0,1.77-.37,2.29-1.11s.78-1.69,.78-2.86v-.23Z"/><path class="c" d="M273.51,110.44c.71,0,1.33-.22,1.87-.65,.54-.44,.8-.97,.8-1.61h1.91l.02,.06c.04,1.01-.41,1.91-1.35,2.69s-2.02,1.18-3.26,1.18c-1.7,0-3-.56-3.9-1.67-.9-1.11-1.35-2.5-1.35-4.18v-.45c0-1.66,.45-3.05,1.36-4.17s2.2-1.67,3.9-1.67c1.37,0,2.49,.4,3.36,1.21,.87,.81,1.29,1.8,1.26,2.97l-.02,.06h-1.92c0-.71-.25-1.32-.76-1.82-.5-.5-1.14-.75-1.91-.75-1.12,0-1.92,.4-2.39,1.2s-.72,1.79-.72,2.95v.45c0,1.19,.24,2.19,.71,2.99,.48,.8,1.28,1.19,2.4,1.19Z"/><path class="c" d="M289.88,101.87h-3.86v10.02h-2.13v-10.02h-3.81v-1.68h9.79v1.68Z"/><path class="c" d="M292.56,111.89v-11.7h4.62c1.54,0,2.74,.27,3.59,.81,.85,.54,1.28,1.34,1.28,2.42,0,.55-.17,1.04-.5,1.46-.33,.43-.8,.76-1.41,.98,.73,.18,1.3,.52,1.7,1.01,.41,.49,.61,1.06,.61,1.69,0,1.1-.4,1.92-1.19,2.49-.8,.56-1.91,.84-3.33,.84h-5.36Zm2.13-6.76h2.5c.9,0,1.58-.13,2.04-.4,.46-.27,.69-.67,.69-1.2s-.23-.97-.69-1.25-1.14-.42-2.04-.42h-2.49v3.27Zm0,1.63v3.48h3.23c.79,0,1.38-.15,1.78-.45,.4-.3,.61-.73,.61-1.29s-.2-.98-.61-1.29-1-.45-1.78-.45h-3.23Z"/><path class="c" d="M304.99,105.93c0-1.73,.47-3.15,1.41-4.28,.94-1.12,2.21-1.68,3.82-1.68s2.9,.56,3.84,1.68c.94,1.12,1.41,2.54,1.41,4.28v.24c0,1.74-.47,3.17-1.41,4.28-.94,1.11-2.21,1.67-3.83,1.67s-2.89-.56-3.83-1.67c-.94-1.11-1.41-2.54-1.41-4.28v-.24Zm2.13,.23c0,1.24,.26,2.26,.78,3.07,.52,.81,1.3,1.21,2.33,1.21s1.79-.4,2.31-1.21c.53-.81,.79-1.83,.79-3.07v-.24c0-1.22-.26-2.24-.79-3.06-.53-.81-1.31-1.22-2.33-1.22s-1.79,.41-2.31,1.22-.78,1.83-.78,3.06v.24Z"/><path class="c" d="M325.08,109.1h.07l3.83-8.91h2.66v11.7h-2.13v-8.12l-.06-.02-3.59,8.14h-1.47l-3.65-8.32-.06,.02v8.3h-2.13v-11.7h2.75l3.8,8.91Z"/></g></g></svg>